<?xml version="1.0" encoding="utf-8"?>
<!-- Generator: Adobe Illustrator 16.0.0, SVG Export Plug-In . SVG Version: 6.00 Build 0)  -->
<!DOCTYPE svg PUBLIC "-//W3C//DTD SVG 1.1//EN" "http://www.w3.org/Graphics/SVG/1.1/DTD/svg11.dtd">
<svg version="1.1" id="Layer_1" xmlns="http://www.w3.org/2000/svg" xmlns:xlink="http://www.w3.org/1999/xlink" x="0px" y="0px"
	 width="100px" height="100px" viewBox="0 0 100 100" enable-background="new 0 0 100 100" xml:space="preserve">
<g>
	<path fill-rule="evenodd" clip-rule="evenodd" fill="#FEFEFE" d="M11.974,82.495c0.071-0.129,0.142-0.258,0.212-0.387
		c0.482-0.362,0.965-0.727,1.448-1.09c12.706-11.895,25.627-23.57,38.028-35.761c6.174-6.076,12.533-12.49,12.432-22.271
		c-0.225-1.005-0.449-2.012-0.674-3.018c0.959-1.124,0.551-1.705-0.765-1.924c0.074-0.608,0.149-1.216,0.223-1.824
		c-0.468-1.096-0.936-2.191-1.402-3.288c-0.04-0.1-0.113-0.161-0.219-0.183c-0.278-0.601-0.557-1.203-0.834-1.805
		c-0.854-1.451-1.706-2.902-3.328-5.664c-0.893,6.106-1.574,10.771-2.256,15.437c-1.284,2.853-2.569,5.706-3.854,8.56
		c-2.896,3.985-5.792,7.97-8.69,11.955c-8.333,10.233-16.665,20.449-24.998,30.68c-0.811,0.952-1.621,1.905-2.429,2.857
		c-0.203,0.29-0.407,0.58-0.61,0.87c-0.595,0.652-1.19,1.308-1.785,1.96c-1.409,1.691-2.819,3.382-4.229,5.072
		c-0.767,0.899-1.535,1.799-2.302,2.699c-1.23,1.515-2.46,3.029-3.69,4.545c0.306,0.271,0.612,0.543,0.918,0.814
		c1.47-1.63,2.94-3.261,4.411-4.892c0.899-0.743,1.798-1.488,2.698-2.232c0.324-0.111,0.648-0.222,0.973-0.333
		c0.167-0.185,0.332-0.369,0.498-0.555C11.896,82.711,11.972,82.635,11.974,82.495z"/>
	<path fill-rule="evenodd" clip-rule="evenodd" fill="#FEFEFE" d="M44.974,79.534c0.361,0.641,0.723,1.279,1.084,1.92
		c0.822,0.896,1.644,1.792,2.675,2.916c1.293-1.855,2.388-3.43,3.486-5.003c0.837-1.038,1.675-2.076,2.513-3.114
		c0.923-0.924,1.848-1.849,2.771-2.772c0.804-0.6,1.607-1.199,2.516-1.877c-1.953-1.35-3.506-0.478-4.618,0.572
		c-1.945,1.835-3.932,3.835-3.224,6.976c-1.923-0.762-2.199,5.304-4.93,1.189c-1.125-1.651-2.25-3.304-3.374-4.956
		c-0.461-0.66-0.923-1.321-1.384-1.982c-1.062-1.977-2.783-2.817-4.958-2.876c-0.618-0.091-1.236-0.182-1.855-0.273
		c-0.664-0.05-1.327-0.101-3.001-0.226c2.455,1.48,4.034,2.434,5.614,3.386c0.972,0.987,1.943,1.974,2.916,2.963
		C42.461,77.429,43.718,78.481,44.974,79.534z"/>
	<path fill-rule="evenodd" clip-rule="evenodd" fill="#FEFEFE" d="M62.183,61.555c0.144,0.476,0.287,0.95,0.43,1.426
		c0.224,0.785,0.447,1.569,0.671,2.355c0.293,0.581,0.586,1.163,0.878,1.744c0.489,1.469,0.978,2.938,1.467,4.405
		c0.049,0.099,0.129,0.154,0.238,0.17c0.109,0.484,0.219,0.969,0.328,1.455c0.378,0.897,0.756,1.796,1.135,2.693
		c1.41,2.325,2.82,4.65,4.23,6.976c0.396,0.643,0.793,1.285,1.188,1.928c6.753,7.584,16.128,7.184,26.817,9.022
		c-2.13-1.387-2.645-1.723-3.158-2.057c-0.177-0.071-0.353-0.142-0.528-0.212c0,0,0.014,0.007,0.013,0.007
		c-1.188-0.657-2.377-1.314-3.565-1.972c-1.164-0.623-2.329-1.245-3.493-1.868c-2.625-1.867-5.25-3.734-7.875-5.603
		c-2.769-2.978-5.537-5.955-8.306-8.933c-2.245-3.992-4.49-7.984-6.735-11.977c-0.843-1.646-1.684-3.293-2.526-4.937
		c-0.915-1.706-1.83-3.416-2.744-5.131c-0.961-1.587-1.922-3.173-4.237-6.994c1.507,4.52,2.162,6.487,2.817,8.453
		c0.791,2.113,1.582,4.22,2.372,6.336C61.794,59.747,61.988,60.65,62.183,61.555z"/>
	<path fill-rule="evenodd" clip-rule="evenodd" fill="#FEFEFE" d="M1.784,90.995c-0.287-0.091-0.574-0.182-0.861-0.272
		c-0.272,0.772-0.544,1.544-0.817,2.316c0.273,0.084,0.547,0.168,0.822,0.253C1.213,92.526,1.499,91.761,1.784,90.995z"/>
	<path fill-rule="evenodd" clip-rule="evenodd" fill="#512610" d="M64.094,22.986c0.102,9.781-6.258,16.196-12.432,22.271
		C39.261,57.448,26.34,69.124,13.634,81.019c-0.386-0.276-0.773-0.552-1.159-0.828c0.153-0.481,0.307-0.964,0.46-1.445
		c0.848-0.261,1.696-0.521,2.543-0.783c0.483-0.616,0.967-1.233,1.451-1.85c0.14-0.246,0.279-0.493,0.418-0.739
		c0.997-1.024,1.994-2.049,2.992-3.073c1.969-1.989,3.938-3.979,5.908-5.97c0.648-0.616,1.296-1.233,1.944-1.85
		c0.382-0.638,0.765-1.275,1.147-1.913c1.979-1.544,3.959-3.088,5.938-4.63c0.557-0.415,1.113-0.829,1.671-1.244
		c-0.446-0.406-0.852-0.775-1.257-1.145c0.382-0.261,0.764-0.521,1.146-0.782c2.271-1.206,4.543-2.418,6.997-3.727
		c-1.095,0-2,0-2.905,0c0.839-0.619,1.678-1.238,2.517-1.857c0.214-1.462,4.004-0.193,2.354-3.08
		c0.132-0.088,0.265-0.175,0.397-0.263c3.541,0.676,3.554-3.345,5.902-4.435c-0.236-0.307-0.47-0.612-0.528-0.688
		c0.517-0.821,0.943-1.5,1.369-2.179c0.785-0.174,1.568-0.35,1.813-0.404c0.868-1.183,1.455-1.983,2.07-2.822
		c-0.586-0.045-1.152-0.089-1.747-0.135c-0.021-1.899,3.884-1.327,2.313-3.984c0.373-0.387,0.746-0.776,1.119-1.164
		c0.392-0.232,0.781-0.464,1.171-0.697c0.604-1.258,1.205-2.516,1.809-3.774c0.22-0.512,0.44-1.024,0.747-1.738
		C62.608,23.651,63.352,23.319,64.094,22.986z"/>
	<path fill-rule="evenodd" clip-rule="evenodd" fill="#F1C428" d="M36.835,54.767c-0.382,0.261-0.764,0.521-1.146,0.782
		c-0.994,0.646-1.659,1.352-0.413,2.389c-1.979,1.542-3.958,3.086-5.938,4.63c-0.533,0.616-1.066,1.232-1.6,1.849
		c-0.884,0.391-1.768,0.782-2.829,1.252c0.581,0.287,0.959,0.475,1.338,0.662c-1.97,1.99-3.939,3.98-5.908,5.97
		c-1.081,0.392-2.244,1.437-3.042-0.387c8.333-10.231,16.666-20.447,24.998-30.68c0.639-0.286,1.899,1.204,1.975-0.691
		c0.252,0,0.504,0,0.756,0c0.117,0.749,0.232,1.498,0.348,2.246c-0.108,0.004-0.216,0.006-0.324,0.006
		c-1.337,0.693-2.674,1.385-3.688,1.911c0.414,1.005,0.725,1.763,1.037,2.52c-0.123,0.266-0.246,0.532-0.369,0.798
		c-1.867,1.874-3.733,3.748-5.6,5.621C36.564,54.019,36.7,54.393,36.835,54.767z M31.917,56.766c1.718-0.942,2.314-1.27,3.259-1.788
		c-0.685-0.39-1.351-0.893-1.445-0.803C33.266,54.619,32.953,55.22,31.917,56.766z"/>
	<path fill-rule="evenodd" clip-rule="evenodd" fill="#E5AF3A" d="M67.329,75.805c-0.379-0.898-0.757-1.797-1.135-2.694
		c2.149-1.352,4.304-0.944,6.458-0.018c2.769,2.978,5.537,5.955,8.306,8.934c-0.338,0.907-0.677,1.814-0.98,2.628
		c1.018,0.613,2.112,1.273,3.206,1.934c-0.021,0.313-0.042,0.623-0.063,0.936c-2.79-1.059-5.581-2.117-8.372-3.176
		c0.188-0.178,0.375-0.356,0.562-0.534c-0.371-0.227-0.743-0.452-1.114-0.678c-0.647-1.555-1.294-3.11-1.896-4.561
		c-0.702,0.084-1.34,0.159-2.042,0.243c0.539-0.959,0.93-1.656,1.321-2.352c0.292-0.519,2.073-1.051-0.016-1.543
		c-0.679-1.665-1.283-0.764-1.889,0.056C68.894,75.253,68.11,75.529,67.329,75.805z"/>
	<path fill-rule="evenodd" clip-rule="evenodd" fill="#512610" d="M74.196,83.136c0.371,0.226,0.743,0.451,1.114,0.678
		c-0.187,0.178-0.374,0.356-0.562,0.534c2.791,1.059,5.582,2.117,8.372,3.175c0.433,0.299,0.864,0.598,1.297,0.896
		c0.204,0.069,0.408,0.14,0.612,0.208c0.646,0.014,1.294,0.025,1.942,0.037l0.094,0.088c-0.257,0.221-0.513,0.441-1.039,0.894
		c3.407,0.63,6.635,1.227,9.865,1.822l-0.014-0.007c0.176,0.07,0.352,0.141,0.528,0.212c0.514,0.334,1.028,0.67,3.158,2.057
		c-10.689-1.839-20.064-1.438-26.817-9.023c0.376-0.483,0.751-0.968,1.127-1.453C73.987,83.227,74.094,83.188,74.196,83.136z"/>
	<path fill-rule="evenodd" clip-rule="evenodd" fill="#ECC140" d="M54.839,20.718c0.682-4.666,1.363-9.331,2.256-15.437
		c1.622,2.762,2.475,4.213,3.328,5.664c-1.313,1.133-0.255,2.069,0.253,3.052c0.021,0.121,0.037,0.243,0.05,0.365
		c-0.128,0.475-0.257,0.95-0.385,1.425c-0.637,0.537-1.32,1.075-0.002,1.615c0.013,0.225,0.026,0.451,0.039,0.676
		c-0.251,0.13-0.502,0.26-0.753,0.39c-0.303-0.614-0.765-1.203-0.869-1.85c-0.135-0.82,0.257-1.77-0.003-2.516
		c-0.451-1.295-1.652-1.285-2.229-0.289c-0.291,0.503,0.476,1.618,0.842,2.683c-0.661,0.842-2.912,1.918-0.738,3.1
		c1.398-0.525,2.195-0.824,2.991-1.124c-0.865,1.369-1.73,2.737-2.596,4.106C56.294,21.958,55.566,21.338,54.839,20.718z"/>
	<path fill-rule="evenodd" clip-rule="evenodd" fill="#F3C721" d="M54.839,20.718c0.728,0.62,1.455,1.24,2.184,1.86
		c-0.075,1.305-1.462,2.86,0.714,3.734l0.013,0.014c-0.873,0.868-1.747,1.735-2.62,2.603c-0.4,0.944-2.627,0.843-1.521,2.651
		c0.128,0.369,0.256,0.737,0.383,1.106c-1.244-0.001-2.488-0.002-3.733-0.004l-0.002-0.002c0.243-1.134,0.486-2.269,0.728-3.403
		C52.27,26.424,53.555,23.571,54.839,20.718z"/>
	<path fill-rule="evenodd" clip-rule="evenodd" fill="#DAA253" d="M72.652,73.093c-2.154-0.927-4.309-1.334-6.458,0.018
		c-0.109-0.486-0.219-0.971-0.328-1.455c2.612-0.034,3.978-0.902,2.342-3.637c-0.951-1.59-1.99-3.125-2.99-4.685
		c0.004-0.614,0.007-1.229,0.01-1.844c0.124-0.128,0.248-0.256,0.371-0.384c0.106,0.003,0.212,0.006,0.318,0.01
		C68.162,65.108,70.407,69.101,72.652,73.093z"/>
	<path fill-rule="evenodd" clip-rule="evenodd" fill="#ECC140" d="M50.258,32.684c1.245,0.001,2.489,0.002,3.733,0.004
		c0.13,0.126,0.257,0.252,0.386,0.378c-0.725,0.878-1.448,1.756-2.173,2.633c-1.252-0.826-2.589-2.48-4.044-0.911
		c-1.556,1.677-2.615,3.816-3.891,5.754c-0.075,1.895-1.336,0.405-1.975,0.691c2.897-3.985,5.794-7.97,8.69-11.955
		c-0.242,1.134-0.485,2.269-0.728,3.403c-0.023,0.045-0.048,0.09-0.071,0.136C50.209,32.773,50.234,32.729,50.258,32.684z"/>
	<path fill-rule="evenodd" clip-rule="evenodd" fill="#D3994D" d="M74.196,83.136c-0.103,0.052-0.209,0.091-0.321,0.117
		c-0.772-0.157-1.544-0.315-2.315-0.474c-1.41-2.325-2.82-4.65-4.23-6.976c0.781-0.274,1.564-0.551,2.346-0.824
		c0.386,0.13,0.771,0.26,1.155,0.391c0.25,0.365,0.5,0.73,0.75,1.097c-0.393,0.695-0.783,1.393-1.322,2.352
		c0.702-0.084,1.34-0.159,2.042-0.243C72.902,80.025,73.549,81.581,74.196,83.136z"/>
	<path fill-rule="evenodd" clip-rule="evenodd" fill="#F3C721" d="M83.184,86.588c-1.094-0.66-2.188-1.32-3.206-1.934
		c0.304-0.813,0.643-1.721,0.98-2.628c2.625,1.867,5.25,3.734,7.875,5.602c-0.385,0.378-0.769,0.756-1.153,1.134
		c-0.204-0.004-0.408-0.008-0.613-0.01c0,0-0.094-0.088-0.094-0.087c-0.634-0.43-1.268-0.858-2.22-1.502
		C84.792,86.562,84.511,85.771,83.184,86.588z"/>
	<path fill-rule="evenodd" clip-rule="evenodd" fill="#E5AF3A" d="M65.218,63.334c1,1.56,2.039,3.095,2.99,4.685
		c1.636,2.734,0.271,3.603-2.342,3.637c-0.109-0.016-0.189-0.071-0.238-0.17c0.342-1.544,0.683-3.087,1.033-4.628
		c-0.827,0.076-1.664,0.149-2.5,0.223c-0.292-0.581-0.585-1.163-0.878-1.744C63.928,64.668,64.573,64.001,65.218,63.334z"/>
	<path fill-rule="evenodd" clip-rule="evenodd" fill="#E7B762" d="M54.732,76.253c-0.838,1.038-1.676,2.076-2.513,3.114
		c-0.084-0.059-0.098-0.13-0.042-0.216c-0.708-3.141,1.278-5.141,3.224-6.976c1.112-1.05,2.665-1.922,4.618-0.572
		c-0.908,0.678-1.712,1.277-2.516,1.877C55.522,73.348,54.986,74.659,54.732,76.253z"/>
	<path fill-rule="evenodd" clip-rule="evenodd" fill="#ECC140" d="M60.646,51.049c0.914,1.715,1.829,3.425,2.744,5.131
		c-0.129,0.516-0.257,1.032-0.385,1.55c-0.38,0.374-0.759,0.747-1.139,1.12c-0.089-0.005-0.179-0.007-0.269-0.006
		c-0.79-2.116-1.581-4.223-2.371-6.336C59.7,52.021,60.174,51.535,60.646,51.049z"/>
	<path fill-rule="evenodd" clip-rule="evenodd" fill="#ECC140" d="M38.29,73.413c-1.58-0.952-3.159-1.905-5.614-3.386
		c1.675,0.125,2.338,0.176,3.001,0.226c0.316,0.434,0.633,0.866,0.949,1.301c0.302-0.343,0.604-0.684,0.906-1.027
		c2.174,0.059,3.896,0.899,4.958,2.876C41.09,73.406,39.69,73.41,38.29,73.413z"/>
	<path fill-rule="evenodd" clip-rule="evenodd" fill="#D3994D" d="M64.094,22.986c-0.742,0.333-1.485,0.665-1.86,0.833
		c-0.307,0.713-0.527,1.226-0.747,1.738c-0.244,0.007-0.487,0.014-0.73,0.021c-1.634-0.953-2.966-2.046-1.974-4.362
		c0.331,0.375,0.598,0.676,0.863,0.977c-0.006,0.224-0.012,0.447-0.018,0.671c0.161,0.16,0.32,0.319,0.48,0.479
		c0.143-0.004,0.285-0.007,0.427-0.011c0.295-0.019,0.59-0.038,0.884-0.074c-0.105-0.492-0.21-0.965-0.314-1.439l-0.007,0.008
		c0.144-0.128,0.286-0.257,0.43-0.386c0.367-0.365,0.735-0.729,1.103-1.094c0.265-0.126,0.527-0.252,0.79-0.379
		C63.645,20.975,63.869,21.981,64.094,22.986z"/>
	<path fill-rule="evenodd" clip-rule="evenodd" fill="#E5AF3A" d="M38.29,73.413c1.401-0.003,2.8-0.007,4.2-0.011
		c0.461,0.661,0.923,1.322,1.384,1.982c0,0.231,0.002,0.462,0.003,0.692c-0.891,0.1-1.782,0.198-2.673,0.298
		C40.233,75.387,39.262,74.4,38.29,73.413z"/>
	<path fill-rule="evenodd" clip-rule="evenodd" fill="#512610" d="M52.178,79.151c-0.056,0.086-0.042,0.157,0.042,0.216
		c-1.098,1.573-2.193,3.147-3.486,5.003c-1.031-1.124-1.853-2.021-2.675-2.914c0.396-0.37,0.793-0.742,1.189-1.115
		C49.979,84.455,50.254,78.39,52.178,79.151z"/>
	<path fill-rule="evenodd" clip-rule="evenodd" fill="#DAA253" d="M87.066,88.752c0.205,0.002,0.409,0.006,0.612,0.01
		c1.55,0.245,3.099,0.49,4.647,0.734c1.188,0.657,2.377,1.314,3.566,1.972c-3.23-0.596-6.458-1.192-9.865-1.822
		C86.554,89.193,86.81,88.973,87.066,88.752z"/>
	<path fill-rule="evenodd" clip-rule="evenodd" fill="#ECC140" d="M12.935,78.745c-0.153,0.481-0.307,0.964-0.46,1.445
		c-0.455,0.406-0.91,0.812-1.365,1.217c-0.298,0.325-0.596,0.652-0.897,0.98c0.419,0.358,0.728,0.623,1.036,0.888
		c-0.324,0.11-0.648,0.221-0.972,0.332c-0.678-0.313-1.356-0.623-2.035-0.935c1.41-1.69,2.82-3.381,4.229-5.072
		C12.627,77.982,12.781,78.364,12.935,78.745z"/>
	<path fill-rule="evenodd" clip-rule="evenodd" fill="#E7B762" d="M7.58,85.84c-1.471,1.631-2.94,3.262-4.411,4.892
		c-0.306-0.271-0.612-0.543-0.918-0.814c1.23-1.516,2.46-3.03,3.691-4.545C6.488,85.527,7.034,85.685,7.58,85.84z"/>
	<path fill-rule="evenodd" clip-rule="evenodd" fill="#E5AF3A" d="M61.867,58.85c0.38-0.373,0.759-0.746,1.139-1.12
		c-0.001,0.892-0.001,1.782-0.001,2.896c0.835-0.403,1.367-0.661,1.958-0.946c0.237,0.534,0.437,0.981,0.636,1.428
		c-0.123,0.128-0.247,0.256-0.371,0.384c-0.871,0.497-1.743,0.993-2.615,1.49c-0.143-0.476-0.286-0.95-0.43-1.426
		C62.078,60.652,61.973,59.751,61.867,58.85z"/>
	<path fill-rule="evenodd" clip-rule="evenodd" fill="#ECC140" d="M17.296,71.913c0.798,1.823,1.962,0.778,3.042,0.387
		c-0.998,1.024-1.995,2.049-2.992,3.073c-0.252-0.372-0.504-0.744-0.854-1.262c-0.447,0.524-0.754,0.883-1.06,1.241
		c-0.189-0.194-0.379-0.389-0.568-0.582C15.675,73.818,16.486,72.865,17.296,71.913z"/>
	<path fill-rule="evenodd" clip-rule="evenodd" fill="#E7B762" d="M47.248,80.341c-0.396,0.373-0.792,0.745-1.189,1.115
		c-0.362-0.643-0.724-1.281-1.085-1.922c-0.365-1.152-0.731-2.304-1.097-3.457c-0.001-0.23-0.002-0.461-0.003-0.692
		C44.999,77.037,46.123,78.689,47.248,80.341z"/>
	<path fill-rule="evenodd" clip-rule="evenodd" fill="#E7B762" d="M60.646,51.049c-0.473,0.486-0.946,0.973-1.419,1.459
		c-0.656-1.966-1.312-3.933-2.818-8.453C58.725,47.876,59.686,49.461,60.646,51.049z"/>
	<path fill-rule="evenodd" clip-rule="evenodd" fill="#DAA253" d="M7.58,85.84c-0.546-0.155-1.092-0.313-1.638-0.468
		c0.767-0.9,1.535-1.8,2.302-2.699c0.678,0.312,1.356,0.622,2.034,0.935C9.378,84.352,8.479,85.097,7.58,85.84z"/>
	<path fill-rule="evenodd" clip-rule="evenodd" fill="#894A13" d="M43.877,76.077c0.366,1.153,0.731,2.305,1.097,3.457
		c-1.256-1.053-2.512-2.105-3.77-3.159C42.095,76.275,42.986,76.177,43.877,76.077z"/>
	<path fill-rule="evenodd" clip-rule="evenodd" fill="#E7B762" d="M65.599,61.106c-0.199-0.446-0.398-0.894-0.636-1.428
		c-0.591,0.285-1.123,0.543-1.958,0.946c0-1.113,0-2.004,0.001-2.896c0.128-0.518,0.256-1.034,0.385-1.55
		c0.843,1.644,1.684,3.29,2.526,4.937C65.811,61.112,65.705,61.109,65.599,61.106z"/>
	<path fill-rule="evenodd" clip-rule="evenodd" fill="#E7B762" d="M64.161,67.08c0.836-0.073,1.673-0.146,2.5-0.223
		c-0.351,1.541-0.691,3.084-1.033,4.628C65.139,70.018,64.65,68.549,64.161,67.08z"/>
	<path fill-rule="evenodd" clip-rule="evenodd" fill="#E5AF3A" d="M12.935,78.745c-0.154-0.381-0.308-0.763-0.463-1.145
		c0.595-0.652,1.19-1.308,1.785-1.96c0.407,0.774,0.814,1.548,1.221,2.321C14.631,78.224,13.783,78.484,12.935,78.745z"/>
	<path fill-rule="evenodd" clip-rule="evenodd" fill="#DAA253" d="M60.378,18.078c-0.013-0.225-0.026-0.451-0.039-0.676
		c0-0.539,0.001-1.077,0.002-1.614c0.128-0.475,0.257-0.95,0.385-1.425c0.249-0.477,0.499-0.953,0.75-1.43
		c0.467,1.096,0.935,2.192,1.402,3.288c-1.635-0.427-1.785,0.869-2.178,1.88C60.592,18.093,60.485,18.085,60.378,18.078z"/>
	<path fill-rule="evenodd" clip-rule="evenodd" fill="#E7B762" d="M62.612,62.98c0.872-0.497,1.744-0.993,2.615-1.49
		c-0.003,0.614-0.006,1.229-0.01,1.844c-0.645,0.667-1.29,1.334-1.935,2.002C63.06,64.55,62.836,63.766,62.612,62.98z"/>
	<path fill-rule="evenodd" clip-rule="evenodd" fill="#ECC140" d="M92.326,89.496c-1.549-0.244-3.098-0.489-4.647-0.734
		c0.386-0.378,0.77-0.756,1.154-1.134C89.997,88.251,91.162,88.873,92.326,89.496z"/>
	<path fill-rule="evenodd" clip-rule="evenodd" fill="#D3994D" d="M60.699,18.101c0.394-1.012,0.544-2.308,2.179-1.881
		c-0.073,0.608-0.148,1.216-0.224,1.823c-0.638,0.267-1.274,0.534-1.911,0.801C60.728,18.597,60.714,18.349,60.699,18.101z"/>
	<path fill-rule="evenodd" clip-rule="evenodd" fill="#DAA253" d="M60.743,18.845c0.637-0.267,1.273-0.534,1.911-0.801
		c1.316,0.22,1.725,0.801,0.766,1.925c-0.263,0.127-0.525,0.253-0.79,0.379C62.001,19.847,61.371,19.346,60.743,18.845z"/>
	<path fill-rule="evenodd" clip-rule="evenodd" fill="#E7B762" d="M15.478,77.962c-0.407-0.773-0.813-1.547-1.221-2.321
		c0.203-0.29,0.407-0.58,0.608-0.87c0.188,0.193,0.378,0.388,0.568,0.581c0.499,0.254,0.997,0.507,1.495,0.761
		C16.445,76.729,15.961,77.346,15.478,77.962z"/>
	<path fill-rule="evenodd" clip-rule="evenodd" fill="#894A13" d="M54.732,76.253c0.254-1.594,0.79-2.905,2.771-2.772
		C56.58,74.404,55.655,75.329,54.732,76.253z"/>
	<path fill-rule="evenodd" clip-rule="evenodd" fill="#DAA253" d="M1.784,90.995c-0.285,0.766-0.571,1.531-0.856,2.297
		c-0.274-0.085-0.548-0.169-0.822-0.253c0.272-0.772,0.544-1.544,0.817-2.316C1.209,90.813,1.497,90.904,1.784,90.995z"/>
	<path fill-rule="evenodd" clip-rule="evenodd" fill="#894A13" d="M71.56,82.779c0.771,0.158,1.543,0.316,2.315,0.474
		c-0.376,0.485-0.751,0.97-1.127,1.453C72.353,84.064,71.956,83.422,71.56,82.779z"/>
	<path fill-rule="evenodd" clip-rule="evenodd" fill="#D3994D" d="M11.11,81.407c0.455-0.405,0.91-0.811,1.365-1.217
		c0.386,0.276,0.773,0.552,1.159,0.828c-0.482,0.363-0.966,0.728-1.448,1.09C11.828,81.875,11.469,81.642,11.11,81.407z"/>
	<path fill-rule="evenodd" clip-rule="evenodd" fill="#DAA253" d="M60.676,13.997c-0.508-0.982-1.565-1.918-0.253-3.052
		c0.277,0.602,0.556,1.204,0.834,1.806C61.063,13.167,60.869,13.581,60.676,13.997z"/>
	<path fill-rule="evenodd" clip-rule="evenodd" fill="#F3C721" d="M37.532,70.526c-0.302,0.344-0.604,0.685-0.906,1.027
		c-0.315-0.435-0.632-0.867-0.949-1.301C36.296,70.345,36.914,70.436,37.532,70.526z"/>
	<path fill-rule="evenodd" clip-rule="evenodd" fill="#894A13" d="M11.11,81.407c0.358,0.234,0.717,0.468,1.076,0.701
		c-0.07,0.129-0.141,0.258-0.211,0.386c-0.075,0.075-0.15,0.15-0.226,0.226c-0.166,0.186-0.332,0.37-0.499,0.555
		c-0.309-0.264-0.617-0.528-1.037-0.887C10.514,82.06,10.812,81.732,11.11,81.407z"/>
	<path fill-rule="evenodd" clip-rule="evenodd" fill="#E7B762" d="M61.867,58.85c0.105,0.901,0.211,1.803,0.315,2.705
		c-0.194-0.904-0.389-1.808-0.584-2.711C61.688,58.843,61.778,58.845,61.867,58.85z"/>
	<path fill-rule="evenodd" clip-rule="evenodd" fill="#D3994D" d="M60.676,13.997c0.193-0.416,0.387-0.831,0.581-1.246
		c0.105,0.021,0.179,0.082,0.219,0.182c-0.251,0.477-0.501,0.953-0.75,1.43C60.713,14.24,60.696,14.118,60.676,13.997z"/>
	<path fill-rule="evenodd" clip-rule="evenodd" fill="#D3994D" d="M11.749,82.72c0.076-0.075,0.151-0.15,0.226-0.226
		C11.972,82.635,11.896,82.711,11.749,82.72z"/>
	<path fill-rule="evenodd" clip-rule="evenodd" fill="#DAA253" d="M96.407,91.673c-0.177-0.071-0.353-0.142-0.528-0.212
		C96.055,91.531,96.23,91.602,96.407,91.673z"/>
	<path fill-rule="evenodd" clip-rule="evenodd" fill="#E5AF3A" d="M60.743,18.845c0.628,0.501,1.258,1.002,1.887,1.503
		c-0.367,0.365-0.735,0.729-1.103,1.094c-0.001,0-0.028-0.038-0.028-0.038c-0.128,0.01-0.255,0.02-0.382,0.03
		c-0.007,0.131-0.013,0.262-0.02,0.393l0.007-0.008c-0.122,0.003-0.243,0.01-0.363,0.022c-0.366,0.117-0.73,0.234-1.096,0.351
		c-0.266-0.301-0.532-0.603-0.863-0.977c-0.992,2.316,0.34,3.41,1.973,4.362c-1.479,0.93-1.97,2.144-1.077,3.753
		c-0.39,0.232-0.779,0.465-1.171,0.697c-0.16-0.548-0.32-1.096-0.5-1.713c-0.512,1.076-0.936,1.966-1.358,2.856
		c-0.757,0.632-1.514,1.263-2.271,1.895c-0.129-0.125-0.256-0.252-0.386-0.378c-0.127-0.369-0.255-0.738-0.382-1.107
		c0.507-0.884,1.013-1.767,1.52-2.651c0.873-0.868,1.747-1.735,2.62-2.603c0.023-0.05,0.046-0.099,0.068-0.148
		c-0.027,0.045-0.055,0.089-0.081,0.134c-2.176-0.875-0.789-2.43-0.714-3.734c0.865-1.369,1.73-2.737,2.596-4.106l0.007-0.004
		c0.251-0.13,0.502-0.26,0.753-0.39c0.107,0.007,0.214,0.016,0.322,0.023C60.714,18.349,60.728,18.597,60.743,18.845z"/>
	<path fill-rule="evenodd" clip-rule="evenodd" fill="#D3994D" d="M45.048,42.794c0.108,0,0.216-0.002,0.325-0.006
		c0.479,0.12,0.956,0.24,1.434,0.361c0.618,0.557,1.236,1.114,2.597,2.341c-0.77-1.818-1.091-2.574-1.412-3.33
		c1.01-1.523,2.02-3.046,3.032-4.569c0.241-0.015,0.481-0.031,0.723-0.046c0.397,0.331,0.795,0.661,1.191,0.992
		c-0.426,0.679-0.853,1.358-1.369,2.179c0.059,0.076,0.292,0.381,0.528,0.688c-2.349,1.09-2.361,5.111-5.902,4.435
		C45.813,44.825,45.431,43.81,45.048,42.794z"/>
	<path fill-rule="evenodd" clip-rule="evenodd" fill="#DAA253" d="M52.938,38.537c-0.396-0.331-0.794-0.661-1.191-0.992
		c0.017-0.114,0.03-0.229,0.043-0.344c0.112-0.124,0.226-0.248,0.339-0.372l0.031-0.037c0.037-0.036,0.111-0.078,0.107-0.108
		c-0.015-0.093-0.059-0.181-0.09-0.271c0.01-0.238,0.018-0.476,0.027-0.714c0.724-0.878,1.447-1.756,2.172-2.634
		c0.758-0.631,1.515-1.263,2.271-1.895c0.247,0.007,0.493,0.014,0.739,0.021c1.57,2.658-2.334,2.085-2.313,3.984
		c0.595,0.046,1.161,0.09,1.747,0.135c-0.615,0.839-1.202,1.639-2.07,2.822C54.507,38.188,53.724,38.363,52.938,38.537z"/>
	<path fill-rule="evenodd" clip-rule="evenodd" fill="#E5AF3A" d="M36.429,53.645c1.866-1.873,3.733-3.748,5.6-5.621
		c0.472,0.387,0.944,0.773,1.416,1.16c-0.839,0.619-1.678,1.238-2.517,1.856C39.427,51.908,37.928,52.776,36.429,53.645z"/>
	<path fill-rule="evenodd" clip-rule="evenodd" fill="#ECC140" d="M45.048,42.794c0.382,1.016,0.764,2.031,1.147,3.045
		c-0.132,0.088-0.265,0.175-0.396,0.263c-1.133,0.374-2.268,0.748-3.402,1.122c-0.312-0.757-0.624-1.515-1.037-2.52
		C42.374,44.18,43.711,43.487,45.048,42.794z"/>
	<path fill-rule="evenodd" clip-rule="evenodd" fill="#DAA253" d="M36.429,53.645c1.499-0.868,2.999-1.736,4.499-2.605
		c0.905,0.001,1.81,0.001,2.905,0.001c-2.454,1.309-4.726,2.521-6.997,3.727C36.7,54.393,36.564,54.019,36.429,53.645z"/>
	<path fill-rule="evenodd" clip-rule="evenodd" fill="#D3994D" d="M42.397,47.225c1.134-0.374,2.269-0.748,3.402-1.122
		c1.65,2.887-2.14,1.618-2.354,3.08c-0.472-0.387-0.944-0.773-1.416-1.16C42.151,47.757,42.274,47.491,42.397,47.225z"/>
	<path fill-rule="evenodd" clip-rule="evenodd" fill="#894A13" d="M59.678,29.331c-0.893-1.61-0.401-2.823,1.077-3.753
		c0.244-0.006,0.487-0.014,0.731-0.021C60.883,26.815,60.281,28.073,59.678,29.331z"/>
	<path fill-rule="evenodd" clip-rule="evenodd" fill="#894A13" d="M35.276,57.938c-1.246-1.037-0.581-1.742,0.413-2.389
		c0.406,0.369,0.812,0.738,1.258,1.145C36.389,57.108,35.833,57.522,35.276,57.938z"/>
	<path fill-rule="evenodd" clip-rule="evenodd" fill="#D3994D" d="M26.247,66.33c-0.378-0.188-0.757-0.375-1.337-0.662
		c1.061-0.47,1.945-0.861,2.829-1.252c0.151,0.021,0.302,0.043,0.453,0.064C27.543,65.097,26.895,65.714,26.247,66.33z"/>
	<path fill-rule="evenodd" clip-rule="evenodd" fill="#894A13" d="M57.388,31.191c-0.246-0.006-0.492-0.013-0.739-0.021
		c0.423-0.89,0.847-1.78,1.358-2.856c0.18,0.617,0.34,1.165,0.5,1.713C58.134,30.416,57.761,30.804,57.388,31.191z"/>
	<path fill-rule="evenodd" clip-rule="evenodd" fill="#E5AF3A" d="M16.929,76.112c-0.498-0.254-0.997-0.507-1.495-0.761
		c0.306-0.357,0.612-0.716,1.06-1.24c0.35,0.518,0.602,0.89,0.854,1.262C17.208,75.619,17.068,75.866,16.929,76.112z"/>
	<path fill-rule="evenodd" clip-rule="evenodd" fill="#DAA253" d="M28.191,64.48c-0.151-0.021-0.301-0.043-0.453-0.064
		c0.533-0.616,1.066-1.232,1.6-1.849C28.956,63.205,28.573,63.843,28.191,64.48z"/>
	<path fill-rule="evenodd" clip-rule="evenodd" fill="#F3C721" d="M51.79,37.201c-0.013,0.115-0.026,0.23-0.043,0.344
		c-0.241,0.015-0.481,0.031-0.723,0.045c-3.579-2.226-3.374,3.24-6,2.952c-0.252,0-0.503,0-0.756,0
		c1.275-1.938,2.334-4.077,3.891-5.754c1.455-1.569,2.792,0.085,4.044,0.911c-0.009,0.239-0.017,0.477-0.026,0.715
		c-0.006,0.126-0.012,0.253-0.018,0.379l-0.031,0.037C52.016,36.954,51.902,37.077,51.79,37.201z"/>
	<path fill-rule="evenodd" clip-rule="evenodd" fill="#ECC140" d="M45.025,40.542c2.625,0.289,2.42-5.177,6-2.952
		c-1.012,1.523-2.021,3.047-3.032,4.57c-0.395,0.329-0.79,0.659-1.185,0.989c-0.478-0.121-0.956-0.241-1.434-0.361
		C45.257,42.04,45.142,41.292,45.025,40.542z"/>
	<path fill-rule="evenodd" clip-rule="evenodd" fill="#ECC140" d="M31.917,56.766c1.037-1.546,1.35-2.146,1.814-2.591
		c0.094-0.09,0.76,0.413,1.445,0.803C34.23,55.496,33.635,55.823,31.917,56.766z"/>
	<path fill-rule="evenodd" clip-rule="evenodd" fill="#ECC140" d="M83.184,86.588c1.327-0.817,1.608-0.026,1.569,0.575
		c0.952,0.644,1.586,1.072,2.22,1.502c-0.648-0.013-1.296-0.024-1.942-0.038c-0.204-0.068-0.408-0.139-0.612-0.208
		c-0.433-0.299-0.864-0.598-1.297-0.896C83.142,87.211,83.163,86.9,83.184,86.588z"/>
	<path fill-rule="evenodd" clip-rule="evenodd" fill="#E7B762" d="M71.58,76.467c-0.25-0.366-0.5-0.731-0.75-1.098
		c0.246-0.148,0.489-0.298,0.733-0.445C73.652,75.416,71.871,75.948,71.58,76.467z"/>
	<path fill-rule="evenodd" clip-rule="evenodd" fill="#F3C721" d="M71.563,74.924c-0.244,0.147-0.487,0.297-0.733,0.445
		c-0.385-0.13-0.77-0.26-1.155-0.39C70.28,74.16,70.885,73.259,71.563,74.924z"/>
	<path fill-rule="evenodd" clip-rule="evenodd" fill="#DAA253" d="M84.418,88.419c0.204,0.069,0.408,0.14,0.612,0.208
		C84.826,88.559,84.622,88.488,84.418,88.419z"/>
	<path fill-rule="evenodd" clip-rule="evenodd" fill="#F3C721" d="M59.618,18.472c-0.796,0.299-1.593,0.599-2.991,1.124
		c-2.174-1.181,0.077-2.257,0.738-3.1c-0.366-1.065-1.133-2.18-0.842-2.683c0.577-0.996,1.778-1.006,2.229,0.289
		c0.26,0.746-0.132,1.695,0.003,2.516c0.104,0.647,0.566,1.236,0.869,1.85L59.618,18.472z"/>
	<path fill-rule="evenodd" clip-rule="evenodd" fill="#D3994D" d="M60.341,15.787c-0.001,0.538-0.002,1.076-0.002,1.614
		C59.021,16.862,59.704,16.324,60.341,15.787z"/>
	<path fill-rule="evenodd" clip-rule="evenodd" fill="#ECC140" d="M55.129,28.93c-0.507,0.884-1.013,1.767-1.52,2.651
		C52.502,29.772,54.729,29.874,55.129,28.93z"/>
	<path fill-rule="evenodd" clip-rule="evenodd" fill="#F3C721" d="M50.258,32.684c-0.024,0.045-0.049,0.089-0.073,0.134
		c0.023-0.046,0.048-0.091,0.071-0.136L50.258,32.684z"/>
	<path fill-rule="evenodd" clip-rule="evenodd" fill="#E7B762" d="M59.646,22.192c0.365-0.117,0.729-0.234,1.096-0.351
		c-0.069,0.498-0.138,0.994-0.206,1.491c-0.142,0.003-0.284,0.007-0.428,0.011c-0.16-0.16-0.32-0.32-0.479-0.479
		C59.634,22.64,59.64,22.416,59.646,22.192z"/>
	<path fill-rule="evenodd" clip-rule="evenodd" fill="#894A13" d="M60.535,23.333c0.068-0.497,0.137-0.994,0.206-1.491
		c0.12-0.012,0.241-0.019,0.363-0.022c0.104,0.474,0.209,0.948,0.314,1.439C61.125,23.295,60.83,23.313,60.535,23.333z"/>
	<path fill-rule="evenodd" clip-rule="evenodd" fill="#894A13" d="M59.628,22.864c0.159,0.16,0.319,0.319,0.479,0.479
		C59.948,23.183,59.789,23.023,59.628,22.864z"/>
	<path fill-rule="evenodd" clip-rule="evenodd" fill="#894A13" d="M61.098,21.828c0.007-0.131,0.013-0.262,0.02-0.393
		c0.127-0.01,0.254-0.02,0.382-0.03c0,0,0.027,0.038,0.028,0.038C61.384,21.57,61.241,21.699,61.098,21.828z"/>
	<path fill-rule="evenodd" clip-rule="evenodd" fill="#F3C721" d="M57.736,26.313c0.026-0.045,0.054-0.089,0.081-0.134
		c-0.022,0.049-0.045,0.098-0.068,0.148L57.736,26.313z"/>
	<path fill-rule="evenodd" clip-rule="evenodd" fill="#D3994D" d="M61.499,21.404c-0.128,0.01-0.255,0.02-0.382,0.03
		C61.244,21.424,61.371,21.415,61.499,21.404z"/>
	<path fill-rule="evenodd" clip-rule="evenodd" fill="#512610" d="M46.808,43.149c0.395-0.33,0.791-0.66,1.185-0.989
		c0.321,0.756,0.642,1.512,1.412,3.33C48.043,44.264,47.426,43.707,46.808,43.149z"/>
	<path fill-rule="evenodd" clip-rule="evenodd" fill="#ECC140" d="M51.79,37.201c0.112-0.124,0.226-0.248,0.339-0.372
		C52.016,36.954,51.902,37.078,51.79,37.201z"/>
	<path fill-rule="evenodd" clip-rule="evenodd" fill="#ECC140" d="M52.16,36.792c0.006-0.126,0.012-0.252,0.018-0.379
		c0.031,0.09,0.075,0.178,0.09,0.271C52.271,36.715,52.197,36.756,52.16,36.792z"/>
</g>
</svg>
