<?xml version="1.0" encoding="utf-8"?>
<!-- Generator: Adobe Illustrator 16.0.0, SVG Export Plug-In . SVG Version: 6.00 Build 0)  -->
<!DOCTYPE svg PUBLIC "-//W3C//DTD SVG 1.1//EN" "http://www.w3.org/Graphics/SVG/1.1/DTD/svg11.dtd">
<svg version="1.1" id="Layer_1" xmlns="http://www.w3.org/2000/svg" xmlns:xlink="http://www.w3.org/1999/xlink" x="0px" y="0px"
	 width="300px" height="240px" viewBox="0 0 300 240" enable-background="new 0 0 300 240" xml:space="preserve">
<rect x="-0.215" y="8.365" fill="none" width="300.001" height="179.986"/>
<rect x="-6.215" y="-3.935" fill="#39769E" width="336.715" height="213.985"/>
<rect x="-0.215" y="8.365" fill="none" width="300.001" height="179.986"/>
<rect x="-0.215" y="8.365" fill="none" width="300.001" height="179.986"/>
<rect x="-0.215" y="8.365" fill="none" width="300.001" height="179.986"/>
<rect x="-0.215" y="8.365" fill="none" width="300.001" height="179.986"/>
<rect x="-0.215" y="8.365" fill="none" width="300.001" height="179.986"/>
<rect x="-19.5" y="193.861" fill="#333333" width="337.786" height="60"/>
<text transform="matrix(1 0 0 1 83.5098 227.0234)" fill="#ECF0F1" font-family="'CenturyGothic'" font-size="31">Cybernix</text>
<g>
	<g>
		<polygon fill="#FFFFFE" points="173.824,75.921 173.827,75.925 173.827,75.921 		"/>
		<path fill="#FFDA96" d="M123.985,73.549c0,3.489-2.827,6.315-6.313,6.315c-3.486,0-6.313-2.826-6.313-6.315
			c0-3.485,2.826-6.313,6.313-6.313C121.158,67.236,123.985,70.064,123.985,73.549"/>
		<path fill="#FFDA96" d="M190.331,73.549c0,3.489-2.826,6.315-6.313,6.315c-3.486,0-6.312-2.826-6.312-6.315
			c0-3.485,2.825-6.313,6.312-6.313C187.505,67.236,190.331,70.064,190.331,73.549"/>
		<g>
			<g>
				<g>
					<path fill="#944232" d="M174.424,137.741c1.449-0.095,2.823-0.534,4.217-0.929c1.916-0.543,3.899-0.578,5.826-1.058
						c0.104-0.024,0.059-0.177-0.043-0.155c-1.713,0.334-3.455,0.385-5.148,0.822c-1.621,0.42-3.229,0.889-4.854,1.297
						C174.409,137.723,174.411,137.742,174.424,137.741L174.424,137.741z"/>
				</g>
			</g>
			<g>
				<g>
					<path fill="#944232" d="M175.334,137.641c-0.066,0.267-0.039,0.536,0.07,0.785c0.022,0.053,0.088,0.018,0.094-0.025
						c0.034-0.254-0.016-0.516-0.092-0.76C175.395,137.605,175.344,137.604,175.334,137.641L175.334,137.641z"/>
				</g>
			</g>
			<g>
				<g>
					<path fill="#944232" d="M175.891,137.475c-0.053,0.303-0.021,0.612,0.129,0.885c0.027,0.052,0.121,0.046,0.131-0.018
						c0.05-0.296-0.035-0.58-0.116-0.867C176.016,137.408,175.902,137.398,175.891,137.475L175.891,137.475z"/>
				</g>
			</g>
			<g>
				<g>
					<path fill="#944232" d="M176.65,137.262c0.063,0.29,0.104,0.57,0.238,0.836c0.014,0.025,0.051,0.008,0.045-0.019
						c-0.076-0.277-0.154-0.556-0.24-0.829C176.686,137.223,176.646,137.232,176.65,137.262L176.65,137.262z"/>
				</g>
			</g>
			<g>
				<g>
					<path fill="#944232" d="M177.291,137.178c0.038,0.307,0.09,0.608,0.27,0.864c0.039,0.058,0.123,0.036,0.127-0.034
						c0.019-0.313-0.097-0.596-0.228-0.876C177.423,137.053,177.279,137.089,177.291,137.178L177.291,137.178z"/>
				</g>
			</g>
			<g>
				<g>
					<path fill="#944232" d="M177.936,136.941c-0.029,0.343,0.094,0.793,0.355,1.024c0.035,0.031,0.096,0.013,0.096-0.039
						c-0.003-0.325-0.113-0.76-0.304-1.026C178.036,136.835,177.941,136.861,177.936,136.941L177.936,136.941z"/>
				</g>
			</g>
			<g>
				<g>
					<path fill="#944232" d="M178.521,136.783c0.026,0.32,0.125,0.674,0.299,0.943c0.039,0.063,0.132,0.037,0.135-0.035
						c0.013-0.332-0.15-0.67-0.348-0.933C178.582,136.729,178.516,136.732,178.521,136.783L178.521,136.783z"/>
				</g>
			</g>
			<g>
				<g>
					<path fill="#944232" d="M179.313,136.654c-0.098,0.367,0.024,0.791,0.229,1.106c0.034,0.054,0.109,0.029,0.113-0.03
						c0.027-0.357-0.119-0.75-0.256-1.076C179.383,136.616,179.325,136.607,179.313,136.654L179.313,136.654z"/>
				</g>
			</g>
			<g>
				<g>
					<path fill="#944232" d="M179.925,136.467c0.024,0.398,0.158,0.834,0.363,1.176c0.03,0.053,0.122,0.033,0.116-0.031
						c-0.028-0.393-0.209-0.797-0.356-1.16C180.023,136.391,179.92,136.391,179.925,136.467L179.925,136.467z"/>
				</g>
			</g>
			<g>
				<g>
					<path fill="#944232" d="M180.534,136.439c0.089,0.313,0.184,0.621,0.333,0.912c0.015,0.026,0.061,0.016,0.059-0.017
						c-0.02-0.341-0.158-0.63-0.307-0.933C180.596,136.355,180.521,136.391,180.534,136.439L180.534,136.439z"/>
				</g>
			</g>
			<g>
				<g>
					<path fill="#944232" d="M181.137,136.35c-0.007,0.354,0.131,0.709,0.316,1.006c0.021,0.035,0.068,0.02,0.072-0.02
						c0.029-0.367-0.082-0.736-0.33-1.011C181.175,136.301,181.137,136.32,181.137,136.35L181.137,136.35z"/>
				</g>
			</g>
			<g>
				<g>
					<path fill="#944232" d="M181.805,136.279c0.088,0.343,0.234,0.668,0.442,0.953c0.021,0.029,0.071,0.014,0.062-0.024
						c-0.104-0.334-0.267-0.651-0.434-0.958C181.854,136.211,181.794,136.236,181.805,136.279L181.805,136.279z"/>
				</g>
			</g>
			<g>
				<g>
					<path fill="#944232" d="M182.355,136.152c0.041,0.343,0.144,0.709,0.309,1.014c0.021,0.038,0.09,0.033,0.098-0.014
						c0.063-0.371-0.119-0.723-0.334-1.021C182.408,136.105,182.352,136.109,182.355,136.152L182.355,136.152z"/>
				</g>
			</g>
			<g>
				<g>
					<path fill="#944232" d="M182.936,136.074c0.022,0.322,0.113,0.662,0.32,0.912c0.035,0.043,0.116,0.01,0.11-0.045
						c-0.031-0.31-0.183-0.625-0.339-0.894C183.005,136.008,182.932,136.023,182.936,136.074L182.936,136.074z"/>
				</g>
			</g>
			<g>
				<g>
					<path fill="#944232" d="M183.438,135.921c0.092,0.339,0.158,0.698,0.276,1.026c0.007,0.02,0.038,0.023,0.043,0
						c0.078-0.373-0.11-0.717-0.276-1.045C183.468,135.877,183.43,135.895,183.438,135.921L183.438,135.921z"/>
				</g>
			</g>
			<g>
				<g>
					<path fill="#944232" d="M184.125,135.9c-0.111,0.361-0.021,0.779,0.152,1.108c0.021,0.042,0.095,0.034,0.104-0.014
						c0.076-0.365-0.028-0.767-0.173-1.104C184.193,135.852,184.137,135.867,184.125,135.9L184.125,135.9z"/>
				</g>
			</g>
		</g>
		<g>
			<g>
				<g>
					<path fill="#944232" d="M117.498,135.805c-0.157,0.313-0.293,0.67-0.333,1.019c-0.007,0.06,0.079,0.073,0.106,0.028
						c0.185-0.305,0.298-0.679,0.271-1.035C117.541,135.794,117.509,135.781,117.498,135.805L117.498,135.805z"/>
				</g>
			</g>
			<g>
				<g>
					<path fill="#944232" d="M118.216,136.033c-0.09,0.308-0.179,0.67-0.129,0.988c0.012,0.076,0.121,0.078,0.155,0.021
						c0.169-0.286,0.188-0.689,0.116-1.01C118.342,135.959,118.236,135.965,118.216,136.033L118.216,136.033z"/>
				</g>
			</g>
			<g>
				<g>
					<path fill="#944232" d="M119.062,136.156c-0.076,0.34-0.165,0.734-0.173,1.08c-0.002,0.113,0.146,0.141,0.204,0.055
						c0.182-0.27,0.361-0.911,0.065-1.16C119.126,136.105,119.071,136.111,119.062,136.156L119.062,136.156z"/>
				</g>
			</g>
			<g>
				<g>
					<path fill="#944232" d="M119.843,136.348c-0.04,0.32-0.099,0.713-0.025,1.026c0.014,0.062,0.098,0.067,0.128,0.017
						c0.173-0.283,0.232-0.826-0.03-1.072C119.887,136.29,119.848,136.313,119.843,136.348L119.843,136.348z"/>
				</g>
			</g>
			<g>
				<g>
					<path fill="#944232" d="M121.007,136.607c-0.139,0.248-0.183,0.55-0.135,0.828c0.013,0.073,0.114,0.073,0.149,0.02
						c0.151-0.236,0.154-0.536,0.121-0.811C121.134,136.578,121.046,136.54,121.007,136.607L121.007,136.607z"/>
				</g>
			</g>
			<g>
				<g>
					<path fill="#944232" d="M121.765,136.624c-0.053,0.364-0.151,0.72-0.19,1.085c-0.011,0.1,0.145,0.115,0.171,0.023
						c0.098-0.353,0.188-0.723,0.171-1.088C121.914,136.563,121.778,136.533,121.765,136.624L121.765,136.624z"/>
				</g>
			</g>
			<g>
				<g>
					<path fill="#944232" d="M122.847,136.611c-0.181,0.395-0.211,0.848-0.266,1.274c-0.021,0.163,0.262,0.201,0.287,0.039
						c0.065-0.418,0.151-0.858,0.103-1.28C122.965,136.587,122.878,136.544,122.847,136.611L122.847,136.611z"/>
				</g>
			</g>
			<g>
				<g>
					<path fill="#944232" d="M123.816,136.871c-0.094,0.352-0.148,0.792-0.078,1.148c0.009,0.047,0.08,0.056,0.102,0.015
						c0.176-0.341,0.144-0.8,0.047-1.163C123.878,136.836,123.826,136.836,123.816,136.871L123.816,136.871z"/>
				</g>
			</g>
			<g>
				<g>
					<path fill="#944232" d="M124.682,137.102c-0.121,0.388-0.218,0.854-0.183,1.258c0.006,0.063,0.081,0.086,0.117,0.031
						c0.246-0.353,0.29-0.88,0.18-1.289C124.781,137.043,124.699,137.047,124.682,137.102L124.682,137.102z"/>
				</g>
			</g>
			<g>
				<g>
					<path fill="#944232" d="M125.38,137.275c-0.072,0.36-0.142,0.781-0.108,1.145c0.005,0.061,0.074,0.078,0.11,0.03
						c0.238-0.319,0.209-0.8,0.136-1.175C125.506,137.206,125.394,137.207,125.38,137.275L125.38,137.275z"/>
				</g>
			</g>
			<g>
				<g>
					<path fill="#944232" d="M126.263,137.511c-0.119,0.312-0.211,0.696-0.169,1.028c0.006,0.05,0.072,0.098,0.113,0.047
						c0.24-0.291,0.235-0.689,0.208-1.055C126.409,137.441,126.294,137.43,126.263,137.511L126.263,137.511z"/>
				</g>
			</g>
			<g>
				<g>
					<path fill="#944232" d="M116.638,135.706c3.265,0.623,6.874,0.841,10.027,1.874c0.135,0.044,0.188-0.163,0.058-0.211
						c-1.702-0.62-3.482-0.756-5.26-1.039c-1.615-0.26-3.179-0.903-4.825-0.648C116.625,135.684,116.625,135.703,116.638,135.706
						L116.638,135.706z"/>
				</g>
			</g>
		</g>
		<path fill="#BA533F" d="M169.693,108.841c-4.547-1.015-11.56-2.241-18.858-2.242c-7.308,0-14.345,1.23-18.903,2.247
			c-2.88,0.637-5.174,3.704-5.174,6.651v48.075h48.107v-48.075C174.865,112.55,172.57,109.482,169.693,108.841"/>
		<g>
			<path fill="#FFDA96" d="M173.075,144.785c-4.196-2.602-18.532-2.391-23.084-0.475c-0.083-0.021-0.172-0.033-0.271-0.031
				c-6.283,0.229-14.14,0.174-20.013,3.313c0.929-2.772,1.133-9.821,0.455-10.065c-2.508-0.902-5.255-0.955-7.832-1.664
				c-1.821-0.5-4.138-0.9-5.483,0.738c-0.484,0.588-0.634,1.403-0.73,2.137c-0.22,1.691-0.554,3.363-0.833,5.043
				c-0.559,3.381-0.926,6.787-1.082,10.207c-0.003,0.063,0.002,0.125,0.01,0.184c-0.016,0.088-0.024,0.184-0.01,0.291
				c1.043,8.227,18.796,2.859,18.958,2.807c9.529-3.112,18.998-6.508,28.969-7.846c0.04,0.012,0.079,0.025,0.124,0.031
				c1.325,0.213,11.353,0.486,12.085-1.086C174.979,146.994,174.344,145.572,173.075,144.785z"/>
			<g id="XMLID_1_">
				<g>
					<path fill="#FFDA96" d="M159.525,145.023c1.511,0.143,3.229,0.479,4.604,1.143c1.529,0.732,0.956,1.245,0.014,1.43
						c-0.146-0.171-0.379-0.273-0.69-0.236c-8.329,0.957-16.275,3.339-24.188,5.914c-0.024-0.652-22.077,9.766-23.166,1.188
						c-0.009-0.075-0.028-0.146-0.047-0.213c0.023-0.08,0.042-0.166,0.047-0.261c0.218-4.782,1.188-9.387,1.771-14.111
						c0.412-3.357,2.894-2.491,5.299-1.813c1.837,0.516,3.76,0.543,5.598,1.018c0.611,3.557-0.346,7.08-1.785,10.352
						c-0.308,0.256-1.175,2.448-1.284,2.657c-0.559,1.084,1.075,2.041,1.639,0.956c0.412-0.795,0.81-1.609,1.179-2.434
						c5.451-4.305,14.045-4.2,20.68-4.418c0.265,0.197,0.625,0.273,1.004,0.09C153.09,144.863,156.367,144.73,159.525,145.023z"/>
				</g>
			</g>
			<g id="XMLID_2_">
				<g>
					<path fill="#FFDA96" d="M184.523,150.438c-0.032,11.08-18.278,3.982-28.953,0.941c2.014-0.469,3.897-1.473,5.906-2.003
						c2.392-0.63,4.722-1.245,7.217-1.24c1.293,0,2.58,0.563,3.783,0.98c1.08,0.374,2.207,0.022,3.319,0.052
						c0.224,0.143,0.464,0.146,0.687,0.063c1.09,0.043,1.517-1.64,0.36-1.838c-0.048-0.01-0.09-0.01-0.138-0.02
						c-1.79-2.227-2.709-5.001-3.229-7.78c1.014-0.374,2.051-0.469,3.2-0.687c1.724-0.332,3.438-0.696,5.162-1.043
						c2.694-0.539,2.666,10.205,2.685,12.101c0,0.085,0.016,0.16,0.028,0.231C184.534,150.271,184.523,150.352,184.523,150.438z"/>
					<path fill="#FFDA96" d="M168.693,148.136c-2.495-0.005-4.825,0.61-7.217,1.24c-2.009,0.53-3.894,1.534-5.906,2.003
						c10.675,3.041,28.921,10.139,28.953-0.941c0-0.086,0.011-0.166,0.028-0.242c-0.014-0.07-0.028-0.146-0.028-0.23
						c-0.019-1.895,0.011-12.64-2.685-12.1c-1.726,0.346-3.438,0.71-5.162,1.042c-1.149,0.218-2.188,0.313-3.2,0.687
						c0.521,2.779,1.438,5.555,3.229,7.78c0.048,0.01,0.09,0.01,0.138,0.019c1.155,0.199,0.729,1.881-0.36,1.838
						c-0.223,0.086-0.463,0.08-0.687-0.062c-1.112-0.028-2.239,0.322-3.319-0.052C171.273,148.699,169.986,148.136,168.693,148.136z
						 M157.163,148.832c2.287-0.909,4.674-1.63,7.094-2.111c2.05-0.408,4.3-0.797,6.359-0.199c1.179,0.336,2.392,0.989,3.655,0.838
						c0.037-0.004,0.07-0.01,0.104-0.015c-1.42-2.216-3.472-8.562-2.761-8.974c0.337-0.189,0.678-0.663,1.094-0.776
						c0.824-0.228,1.753-0.188,2.604-0.354c1.432-0.271,2.865-0.545,4.297-0.838c1.51-0.31,3.604-1.369,4.56-0.006
						c0.881,1.256,1.394,4.012,1.592,5.365c0.407,2.723,0.634,5.445,0.658,8.202c0,0.085-0.01,0.165-0.028,0.241
						c0.02,0.07,0.028,0.146,0.028,0.23c-0.053,16.979-29.081,1.279-36.937,1.658c-0.208,0.01-0.374-0.037-0.512-0.123
						c-1.179-0.043-1.169-1.895,0.038-1.89C151.84,150.096,154.512,149.883,157.163,148.832z"/>
				</g>
			</g>
			<path fill="#FFDA96" d="M150.208,144.314c-0.897-0.342-6.563-1.029-7.5-1.219c-0.104-0.193-8.698-0.427-12.182,0.981
				c-0.543,0.219-0.705,0.764-0.6,1.215l-1.517,2.69l15.538-2.563l-0.077-0.107c0.371,0.104,5.473,0.689,5.834,0.826
				C150.848,146.578,151.336,144.746,150.208,144.314z"/>
		</g>
		<path fill="#E8674E" d="M175.684,112.192c-0.947-1.094-2.151-2.011-3.557-2.56c-1.395-0.543-2.863-0.71-4.105-0.429
			c-0.615,0.113-1.148,0.349-1.6,0.643c-0.445,0.282-0.811,0.629-1.092,1.032c-0.564,0.788-0.782,1.686-0.797,2.637
			c0,1.903,1.486,8.75,1.855,9.441c0.758,1.328,1.674,3.558,2.422,5.979c0.75,2.43,1.359,5.016,1.762,6.985
			c0.404,1.972,0.632,3.315,0.632,3.315l13.584-2.389c0,0-0.247-1.479-0.71-3.719c-0.457-2.238-1.154-5.234-2.092-8.281
			c-0.946-3.047-2.174-6.16-3.533-8.578c-0.648-1.201-1.355-2.23-1.878-2.947c-0.249-0.355-0.507-0.646-0.653-0.837
			C175.764,112.294,175.684,112.192,175.684,112.192"/>
		<path fill="#E8674E" d="M136.688,113.516c-0.013-0.952-0.23-1.85-0.796-2.637c-0.282-0.403-0.645-0.75-1.091-1.032
			c-0.451-0.294-0.984-0.531-1.599-0.643c-1.242-0.281-2.713-0.113-4.106,0.429c-1.404,0.548-2.609,1.465-3.554,2.56
			c0,0-0.083,0.103-0.242,0.295c-0.147,0.191-0.404,0.482-0.652,0.837c-0.522,0.716-1.23,1.746-1.879,2.947
			c-1.359,2.418-2.587,5.531-3.533,8.578c-0.939,3.047-1.634,6.045-2.093,8.281c-0.462,2.238-0.708,3.721-0.708,3.721l14.532,2.387
			c0,0,0.047-1.202,0.157-3.315c0.104-2.008,0.537-4.557,1.287-6.985C133.161,126.514,136.688,115.418,136.688,113.516z"/>
		<g>
			<g>
				<g>
					<path fill="#944232" d="M138.692,107.525c-2.767,6.073,7.065,10.557,11.603,10.947c5.402,0.465,14.123-4.294,12.964-10.732
						c-0.047-0.261-0.497-0.202-0.465,0.063c0.726,5.86-6.733,10.34-11.815,10.207c-5.376-0.142-13.092-4.189-12.066-10.392
						C138.932,107.494,138.753,107.392,138.692,107.525L138.692,107.525z"/>
				</g>
			</g>
			<g>
				<g>
					<path fill="#944232" d="M138.629,108.722c0.491,0.07,0.992-0.06,1.419-0.308c0.063-0.037,0.037-0.14-0.037-0.138
						c-0.471,0.01-0.882,0.274-1.361,0.29C138.564,108.569,138.537,108.709,138.629,108.722L138.629,108.722z"/>
				</g>
			</g>
			<g>
				<g>
					<path fill="#944232" d="M138.709,109.991c0.517,0.042,1.128-0.142,1.575-0.397c0.063-0.036,0.033-0.128-0.036-0.131
						c-0.514-0.017-1.078,0.257-1.55,0.444C138.653,109.925,138.66,109.987,138.709,109.991L138.709,109.991z"/>
				</g>
			</g>
			<g>
				<g>
					<path fill="#944232" d="M138.946,111.017c0.53,0.056,1.157-0.311,1.536-0.658c0.062-0.057-0.003-0.149-0.077-0.133
						c-0.508,0.115-1.018,0.455-1.491,0.673C138.851,110.929,138.891,111.011,138.946,111.017L138.946,111.017z"/>
				</g>
			</g>
			<g>
				<g>
					<path fill="#944232" d="M139.75,112.084c0.471-0.177,0.963-0.422,1.275-0.825c0.053-0.068,0.008-0.189-0.092-0.158
						c-0.477,0.148-0.922,0.457-1.308,0.77C139.527,111.95,139.633,112.128,139.75,112.084L139.75,112.084z"/>
				</g>
			</g>
			<g>
				<g>
					<path fill="#944232" d="M140.326,113.294c0.554-0.365,1.275-0.761,1.696-1.276c0.046-0.057,0.005-0.167-0.079-0.136
						c-0.635,0.227-1.232,0.856-1.662,1.354C140.255,113.267,140.289,113.319,140.326,113.294L140.326,113.294z"/>
				</g>
			</g>
			<g>
				<g>
					<path fill="#944232" d="M141.229,114.209c0.551-0.362,1.26-0.759,1.619-1.329c0.034-0.055-0.033-0.117-0.086-0.086
						c-0.575,0.331-1.174,0.816-1.613,1.311C141.101,114.159,141.163,114.252,141.229,114.209L141.229,114.209z"/>
				</g>
			</g>
			<g>
				<g>
					<path fill="#944232" d="M142.208,114.884c0.515-0.21,1.103-0.827,1.32-1.335c0.044-0.103-0.063-0.185-0.151-0.116
						c-0.265,0.206-0.466,0.484-0.689,0.734c-0.192,0.216-0.399,0.418-0.509,0.688C142.172,114.871,142.192,114.891,142.208,114.884
						L142.208,114.884z"/>
				</g>
			</g>
			<g>
				<g>
					<path fill="#944232" d="M143.424,115.668c0.457-0.397,0.96-1.103,1.166-1.672c0.028-0.078-0.082-0.135-0.136-0.079
						c-0.416,0.431-0.999,1.104-1.119,1.699C143.323,115.669,143.382,115.704,143.424,115.668L143.424,115.668z"/>
				</g>
			</g>
			<g>
				<g>
					<path fill="#944232" d="M144.805,116.256c0.302-0.478,0.628-1.109,0.733-1.669c0.014-0.072-0.083-0.153-0.139-0.081
						c-0.358,0.457-0.683,1.131-0.718,1.717C144.676,116.292,144.771,116.309,144.805,116.256L144.805,116.256z"/>
				</g>
			</g>
			<g>
				<g>
					<path fill="#944232" d="M146.149,116.914c0.395-0.385,0.576-1.168,0.639-1.697c0.011-0.089-0.122-0.114-0.162-0.044
						c-0.268,0.469-0.525,1.163-0.574,1.701C146.046,116.926,146.116,116.946,146.149,116.914L146.149,116.914z"/>
				</g>
			</g>
			<g>
				<g>
					<path fill="#944232" d="M147.687,117.298c0.101-0.321,0.171-0.651,0.262-0.975c0.083-0.292,0.197-0.564,0.199-0.871
						c0-0.09-0.116-0.114-0.162-0.044c-0.322,0.49-0.516,1.312-0.377,1.889C147.619,117.339,147.676,117.335,147.687,117.298
						L147.687,117.298z"/>
				</g>
			</g>
			<g>
				<g>
					<path fill="#944232" d="M149.308,117.838c0.182-0.749,0.172-1.725-0.055-2.462c-0.023-0.075-0.131-0.059-0.134,0.018
						c-0.021,0.443,0,0.886,0.005,1.329c0.004,0.374-0.026,0.749,0.059,1.115C149.198,117.9,149.293,117.899,149.308,117.838
						L149.308,117.838z"/>
				</g>
			</g>
			<g>
				<g>
					<path fill="#944232" d="M151.098,117.959c0.157-0.62,0.164-1.436,0.018-2.059c-0.021-0.092-0.164-0.092-0.186,0
						c-0.146,0.623-0.142,1.438,0.018,2.059C150.966,118.034,151.077,118.034,151.098,117.959L151.098,117.959z"/>
				</g>
			</g>
			<g>
				<g>
					<path fill="#944232" d="M152.682,118.016c0.121-0.809-0.123-1.686-0.33-2.468c-0.021-0.083-0.156-0.09-0.174,0
						c-0.164,0.815,0.213,1.678,0.379,2.468C152.568,118.076,152.672,118.08,152.682,118.016L152.682,118.016z"/>
				</g>
			</g>
			<g>
				<g>
					<path fill="#944232" d="M155.009,117.072c-0.177-0.619-0.425-1.47-0.884-1.941c-0.094-0.097-0.219,0.007-0.204,0.119
						c0.086,0.624,0.454,1.424,0.821,1.936C154.834,117.313,155.059,117.24,155.009,117.072L155.009,117.072z"/>
				</g>
			</g>
			<g>
				<g>
					<path fill="#944232" d="M156.514,116.861c-0.08-0.396-0.33-0.699-0.559-1.023c-0.26-0.369-0.459-0.768-0.706-1.144
						c-0.054-0.08-0.185-0.052-0.183,0.049c0,0.805,0.767,1.685,1.365,2.165C156.471,116.938,156.523,116.91,156.514,116.861
						L156.514,116.861z"/>
				</g>
			</g>
			<g>
				<g>
					<path fill="#944232" d="M158.145,115.644c-0.287-0.53-0.578-1.142-1.026-1.552c-0.058-0.053-0.167-0.002-0.14,0.081
						c0.193,0.583,0.539,1.193,1.022,1.581C158.079,115.816,158.195,115.74,158.145,115.644L158.145,115.644z"/>
				</g>
			</g>
			<g>
				<g>
					<path fill="#944232" d="M159.221,114.955c-0.188-0.518-0.635-1.127-1.113-1.407c-0.073-0.042-0.148,0.041-0.111,0.111
						c0.24,0.464,0.628,1.125,1.089,1.4C159.15,115.099,159.248,115.033,159.221,114.955L159.221,114.955z"/>
				</g>
			</g>
			<g>
				<g>
					<path fill="#944232" d="M160.137,114.151c0.008-0.266-0.195-0.463-0.352-0.658c-0.253-0.313-0.555-0.698-0.898-0.911
						c-0.074-0.046-0.177,0.03-0.148,0.115c0.103,0.328,0.386,0.581,0.615,0.825c0.213,0.228,0.418,0.525,0.693,0.68
						C160.087,114.225,160.135,114.196,160.137,114.151L160.137,114.151z"/>
				</g>
			</g>
			<g>
				<g>
					<path fill="#944232" d="M161.255,112.953c-0.157-0.517-0.708-0.979-1.187-1.196c-0.082-0.038-0.197,0.045-0.137,0.137
						c0.291,0.433,0.803,0.843,1.243,1.12C161.216,113.038,161.27,112.997,161.255,112.953L161.255,112.953z"/>
				</g>
			</g>
			<g>
				<g>
					<path fill="#944232" d="M161.956,111.59c-0.31-0.192-0.623-0.315-0.909-0.55c-0.227-0.185-0.424-0.387-0.686-0.521
						c-0.086-0.042-0.17,0.043-0.127,0.127c0.27,0.54,1.041,1.278,1.701,1.103C162.01,111.729,162.02,111.629,161.956,111.59
						L161.956,111.59z"/>
				</g>
			</g>
			<g>
				<g>
					<path fill="#944232" d="M162.555,110.786c-0.462-0.484-1.121-0.804-1.746-1.025c-0.072-0.025-0.119,0.071-0.07,0.12
						c0.464,0.473,1.146,0.725,1.732,1.015C162.54,110.931,162.611,110.845,162.555,110.786L162.555,110.786z"/>
				</g>
			</g>
			<g>
				<g>
					<path fill="#944232" d="M162.818,109.413c-0.51-0.205-1.127-0.489-1.676-0.516c-0.11-0.005-0.131,0.138-0.054,0.193
						c0.453,0.315,1.16,0.506,1.711,0.45C162.875,109.532,162.887,109.44,162.818,109.413L162.818,109.413z"/>
				</g>
			</g>
			<g>
				<g>
					<path fill="#944232" d="M161.586,108.071c0.249,0.356,0.939,0.381,1.333,0.368c0.087-0.003,0.123-0.12,0.045-0.166
						c-0.362-0.21-0.933-0.271-1.348-0.255C161.592,108.02,161.568,108.048,161.586,108.071L161.586,108.071z"/>
				</g>
			</g>
		</g>
		<path fill="#FFDA96" d="M160.775,102.033l0.744,6.467c0,0-1.865,7.082-10.707,7.082c-8.847,0-10.711-7.082-10.711-7.082
			l0.744-6.467H160.775z"/>
		<path fill="#EBC580" d="M160.859,104.683c0,0-3.178,1.547-10.012,1.547c-6.839,0-10.091-1.559-10.091-1.559
			s5.408-1.139,10.091-1.139C155.525,103.532,160.859,104.683,160.859,104.683"/>
		<path fill="#FFDA96" d="M159.65,20.73h-17.612c-24.01,0-24.366,44.681-24.366,44.681v12.04c0,15.235,12.351,27.584,27.585,27.584
			h11.177c15.231,0,27.584-12.349,27.584-27.584l-0.002-11.994C184.016,65.457,183.662,20.73,159.65,20.73"/>
		<path fill="#8E6C59" d="M137.461,74.271c0,1.9-1.539,3.438-3.437,3.438s-3.436-1.537-3.436-3.438v-1.49
			c0-1.899,1.538-3.438,3.436-3.438s3.437,1.539,3.437,3.438V74.271z"/>
		<path fill="#8E6C59" d="M171.979,74.271c0,1.9-1.539,3.438-3.436,3.438c-1.9,0-3.438-1.537-3.438-3.438v-1.49
			c0-1.899,1.537-3.438,3.438-3.438c1.896,0,3.436,1.539,3.436,3.438V74.271z"/>
		<g>
			<path fill="#A86C47" d="M191.581,54.43c-0.901,0.437-1.688,1.008-2.747,0.845c-0.877-0.137-1.593-0.792-2.202-1.386
				c-0.511-0.498-0.963-1.113-1.366-1.767c-0.33-0.914-0.666-1.826-0.996-2.749c0.291-1.28,0.229-2.646,0.063-3.998
				c0.106,0.225,0.212,0.451,0.324,0.673c0.108,0.217,0.456,0.065,0.389-0.164c-0.471-1.588-0.905-3.177-1.347-4.758
				c-0.264-1.589-0.608-3.153-1.111-4.691c0.994,0.081,2.002-0.314,2.792-1.413c0.156-0.217-0.144-0.481-0.354-0.354
				c-0.998,0.598-1.973,0.753-2.864,0.574c-0.274-0.689-0.608-1.424-0.997-2.165c-0.62-1.634-1.326-3.243-2.171-4.815
				c-0.585-1.428-1.302-2.814-2.209-4.155c0.608,0.518,1.217,1.04,1.835,1.537c0.316,0.255,0.701-0.127,0.445-0.444
				c-1.35-1.675-3.188-3.549-5.258-4.706c-2.85-2.935-6.229-5.184-9.947-6.678c1.104,0.1,2.205,0.186,3.302,0.267
				c0.399,0.03,0.444-0.56,0.092-0.672c-2.542-0.8-5.274-1.173-7.95-1.01c-1.438-0.324-2.906-0.551-4.402-0.667
				c-1.241-0.097-2.563-0.125-3.93-0.084c0.979-0.319,1.973-0.615,2.979-0.896c0.224-0.063,0.125-0.371-0.095-0.339
				c-1.625,0.241-3.192,0.716-4.711,1.33c-1.784,0.13-3.628,0.375-5.478,0.737c1.27-0.973,2.458-2.051,3.541-3.228
				c0.262-0.286-0.077-0.773-0.426-0.552c-2.346,1.493-4.606,3.172-6.948,4.708c-5.821,1.688-11.292,4.615-14.603,8.936
				c0.533-1.724,1.481-3.205,2.89-4.637c1.631-1.659,3.462-2.992,4.628-5.049c0.165-0.291-0.19-0.724-0.493-0.494
				c-3.637,2.766-8.822,6.817-8.148,11.845c-0.175,0.296-0.342,0.598-0.496,0.906c0.22-1.195,0.425-2.391,0.485-3.599
				c0.026-0.522-0.675-0.646-0.931-0.252c-1.38,2.127-1.899,4.833-1.341,7.284c-0.87-0.754-1.851-1.266-2.879-1.809
				c-0.16-0.084-0.355,0.138-0.202,0.261c0.427,0.342,0.882,0.647,1.335,0.955c-3.292-1.444-7.109-0.077-8.798,3.792
				c-0.154,0.353,0.289,0.798,0.582,0.448c2.149-2.566,5.192-3.794,8.222-3.077c-0.191,0.019-0.387,0.048-0.588,0.091
				c-2.477,0.522-4.057,2.015-4.974,3.977c-3.698,3.855-3.387,11.502-2.269,16.192c0.069,0.29,0.523,0.294,0.589,0
				c0.57-2.557,0.187-5.284,0.257-7.885c0.028-1.052,0.155-2.059,0.36-3.034c-0.132,3.767,0.48,7.706,0.551,11.454
				c0.077,4.068,0.293,9.292-2.386,12.666c-0.561,0.707,0.165,1.94,1.042,1.351c0.158-0.106,0.31-0.216,0.457-0.331
				c0.011,0.159,0.029,0.319,0.058,0.48c0.012,0.069,0.039,0.125,0.063,0.183c-0.541,0.891-2.092,3.565-0.065,3.61
				c1.617,0.036,2.729-2.493,3.285-3.754c0.073-0.166,0.138-0.34,0.193-0.518c0.095,0.173,0.214,0.333,0.38,0.464
				c0.366,0.292,0.759,0.301,1.125,0c0.962-0.79,0.606-2.44,0.297-3.467c-0.075-0.251-0.176-0.49-0.293-0.718
				c0.826-1.099,1.748-2.129,2.665-3.148c2.262-2.512,4.675-4.903,6.595-7.699c1.409-2.05,2.282-4.363,2.077-6.819
				c2.014,2.577,5.389,4.183,8.617,4.426c0.51,0.038,0.662-0.692,0.252-0.931c-1.709-0.996-3.652-1.497-5.421-2.379
				c-0.909-0.454-1.753-1.033-2.513-1.708c5.376,2.087,12.015,2.59,16.666,2.869c6.27,0.375,12.421,0.394,18.501,2.226
				c3.689,1.111,7.175,2.846,10.305,5.085c3.049,2.182,5.1,5.01,7.179,7.979c-0.092,1.5,0.349,3.343,0.662,4.577
				c0.466,1.826,1.927,4.364,4.144,3.693c0.433-0.131,0.635-0.539,0.549-0.967c-0.17-0.853-0.596-1.342-1.178-1.962
				c-0.67-0.715-0.881-1.793-1.08-2.715c-0.061-0.271-0.119-0.575-0.188-0.891c0.305-0.252,0.467-0.658,0.313-1.17
				c-0.09-0.297-0.19-0.591-0.297-0.881c0.197,0.018,0.396-0.021,0.57-0.103c0.85,1.122,1.969,2.013,3.21,2.299
				c0.379,0.086,0.622-0.35,0.369-0.634c-0.781-0.874-1.765-1.521-2.532-2.416c-0.238-0.279-0.439-0.571-0.621-0.872
				c-0.197-0.756-0.412-1.5-0.646-2.236c0.132,0.112,0.26,0.229,0.4,0.329c1.729,1.233,4.174,1.374,5.377-0.645
				C192.359,54.615,191.932,54.259,191.581,54.43z M144.906,28.361c0.009-0.004,0.018-0.007,0.025-0.011
				c0.003,0.027,0.006,0.054,0.009,0.081C144.929,28.408,144.917,28.384,144.906,28.361z M136.328,28.027
				c-0.083-0.49-0.143-0.991-0.182-1.5C136.21,27.025,136.27,27.526,136.328,28.027z M155.997,34.019
				c0.344,0.751,0.649,1.51,0.887,2.275C156.523,35.576,156.234,34.81,155.997,34.019z M119.879,52.693
				c0.174-0.057,0.337-0.143,0.484-0.255c-0.159,0.169-0.317,0.339-0.476,0.508C119.891,52.865,119.889,52.78,119.879,52.693z
				 M120.792,51.94c0.007,0.005,0.015,0.011,0.022,0.016c-0.031,0.034-0.063,0.066-0.093,0.1
				C120.747,52.018,120.771,51.98,120.792,51.94z M153.289,41.367c0.018,0.01,0.031,0.022,0.049,0.032
				c-0.023,0-0.045-0.001-0.068-0.003C153.275,41.386,153.283,41.377,153.289,41.367z M156.21,41.344
				c0.09,0.083,0.179,0.167,0.271,0.248c-0.156-0.013-0.315-0.024-0.472-0.036C156.082,41.49,156.148,41.418,156.21,41.344z"/>
			<g>
				<g>
					<g>
						<path fill="#B17B58" d="M130.024,36.181c6.253,2.995,13.449,3.417,20.263,3.933c8.29,0.627,16.292,1.325,24.068,4.489
							c0.27,0.11,0.426-0.315,0.191-0.457c-5.918-3.584-12.715-4.386-19.486-4.981c-8.451-0.742-16.539-1.326-24.729-3.71
							C129.905,35.33,129.612,35.983,130.024,36.181L130.024,36.181z"/>
					</g>
				</g>
				<g>
					<g>
						<path fill="#B17B58" d="M125.668,26.731c2.097-5.587,8.579-7.338,13.8-8.883c0.423-0.125,0.237-0.703-0.177-0.643
							c-4.767,0.696-14.218,3.126-13.987,9.476C125.313,26.899,125.596,26.923,125.668,26.731L125.668,26.731z"/>
					</g>
				</g>
				<g>
					<g>
						<path fill="#B17B58" d="M119.491,32.774c-6.189,0.119-4.232,14.872-3.796,18.533c0.049,0.413,0.605,0.42,0.647,0
							c0.449-4.47-1.775-15.782,3.261-18.119C119.808,33.093,119.701,32.77,119.491,32.774L119.491,32.774z"/>
					</g>
				</g>
				<g>
					<g>
						<path fill="#B17B58" d="M122.068,35.018c-5.562-1.974-6.12,12.217-6.132,15.341c-0.002,0.445,0.677,0.548,0.781,0.106
							c0.542-2.301,0.769-4.664,1.207-6.986c0.396-2.096,1.189-7.824,4.093-8.08C122.236,35.38,122.279,35.093,122.068,35.018
							L122.068,35.018z"/>
					</g>
				</g>
				<g>
					<g>
						<path fill="#B17B58" d="M125.048,39.028c0.91,6.027-1.485,10.234-4.834,14.988c-0.173,0.245,0.204,0.519,0.407,0.314
							c3.974-4.018,7.09-9.805,4.664-15.402C125.222,38.783,125.029,38.897,125.048,39.028L125.048,39.028z"/>
					</g>
				</g>
				<g>
					<g>
						<path fill="#B17B58" d="M124.912,37.22c-5.498-1.477-7.678,13.626-8.047,16.928c-0.045,0.401,0.616,0.585,0.775,0.21
							c2.251-5.31,2.06-13.263,7.32-16.766C125.103,37.497,125.09,37.268,124.912,37.22L124.912,37.22z"/>
					</g>
				</g>
				<g>
					<g>
						<path fill="#B17B58" d="M129.088,30.66c8.736,9.331,24.612,7.676,36.18,8.427c0.121,0.008,0.113-0.169,0-0.185
							c-12.504-1.675-25.271-0.665-35.854-8.663C129.161,30.048,128.888,30.447,129.088,30.66L129.088,30.66z"/>
					</g>
				</g>
				<g>
					<g>
						<path fill="#B17B58" d="M132.955,28.372c3.499,3.936,8.65,4.632,13.581,5.64c8.226,1.681,16.405,3.735,24.673,5.187
							c0.266,0.047,0.381-0.333,0.113-0.41c-6.828-1.962-13.829-3.372-20.786-4.799c-5.859-1.202-12.804-1.532-17.358-5.841
							C133.029,28.009,132.821,28.221,132.955,28.372L132.955,28.372z"/>
					</g>
				</g>
				<g>
					<g>
						<path fill="#B17B58" d="M128.052,28.709c9.662-1.542,17.89-3.708,27.667-1.119c0.363,0.096,0.494-0.427,0.152-0.553
							c-9.24-3.415-18.967-2.548-27.926,1.418C127.789,28.525,127.909,28.732,128.052,28.709L128.052,28.709z"/>
					</g>
				</g>
				<g>
					<g>
						<path fill="#B17B58" d="M136.501,28.709c11.632,3.333,23.892,4.301,35.622,7.449c0.427,0.114,0.563-0.484,0.178-0.643
							c-11.05-4.525-23.907-6.175-35.763-7.079C136.378,28.425,136.354,28.667,136.501,28.709L136.501,28.709z"/>
					</g>
				</g>
				<g>
					<g>
						<path fill="#B17B58" d="M128.693,26.762c10.992-6.723,24.422-4.041,36.187-1.084c0.338,0.085,0.468-0.406,0.144-0.518
							c-10.991-3.77-26.813-7.1-36.441,1.456C128.502,26.687,128.604,26.816,128.693,26.762L128.693,26.762z"/>
					</g>
				</g>
				<g>
					<g>
						<path fill="#B17B58" d="M127.75,25.823c4.53-3.405,8.197-5.773,13.878-7.039c5.804-1.293,12.325-1.354,18.172-0.269
							c0.474,0.087,0.642-0.544,0.197-0.714c-5.94-2.262-12.667-1.706-18.783-0.518c-4.48,0.871-12.367,3.265-13.614,8.424
							C127.582,25.786,127.674,25.88,127.75,25.823L127.75,25.823z"/>
					</g>
				</g>
				<g>
					<g>
						<path fill="#B17B58" d="M161.574,29.268c3.004,2.106,6.57,3.26,9.855,4.849c4.079,1.973,7.219,4.748,10.019,8.271
							c0.252,0.317,0.669-0.086,0.522-0.403c-3.546-7.689-12.416-11.209-20.063-13.51C161.412,28.323,161.188,28.997,161.574,29.268
							L161.574,29.268z"/>
					</g>
				</g>
				<g>
					<g>
						<path fill="#B17B58" d="M157.646,19.582c9.258,1.425,15.143,7.242,20.024,14.808c0.185,0.286,0.581,0.039,0.447-0.262
							c-3.653-8.217-11.293-14.511-20.429-14.874C157.505,19.247,157.458,19.553,157.646,19.582L157.646,19.582z"/>
					</g>
				</g>
				<g>
					<g>
						<path fill="#B17B58" d="M159.205,14.917c6.316,1.637,11.036,6.001,15.689,10.343c0.215,0.199,0.492-0.095,0.314-0.313
							c-3.866-4.768-9.41-10.258-15.941-10.502C158.995,14.435,158.943,14.85,159.205,14.917L159.205,14.917z"/>
					</g>
				</g>
				<g>
					<g>
						<path fill="#B17B58" d="M172.139,38.491c5.36,3.369,7.577,9.754,10.898,14.841c0.186,0.283,0.586,0.039,0.447-0.262
							c-2.614-5.644-5.424-11.825-11.198-14.835C172.117,38.147,171.977,38.389,172.139,38.491L172.139,38.491z"/>
					</g>
				</g>
				<g>
					<g>
						<path fill="#B17B58" d="M133.303,38.441c4.914,5.086,12.801,5.138,19.394,5.776c10.136,0.98,20.035,2.83,28.261,9.143
							c0.17,0.13,0.372-0.147,0.226-0.291c-6.113-5.957-13.918-7.55-22.09-8.887c-8.191-1.34-18.978-0.199-25.633-5.899
							C133.353,38.192,133.203,38.337,133.303,38.441L133.303,38.441z"/>
					</g>
				</g>
				<g>
					<g>
						<path fill="#B17B58" d="M127.094,36.785c0.361-3.213,2.75-5.508,4.944-7.657c0.271-0.266-0.078-0.717-0.403-0.523
							c-2.877,1.709-5.342,4.68-5.225,8.18C126.425,37.235,127.046,37.214,127.094,36.785L127.094,36.785z"/>
					</g>
				</g>
			</g>
		</g>
		<g>
			<path fill="#3690A4" d="M169.17,88.295c0.338-0.008,0.689-0.026,1.048-0.055c9.787-0.793,12.208-5.18,13.323-10.73
				c1.229-6.096,1.313-8.217,2.889-8.773c1.153-0.412,1.438-1.775,1.409-3.364c-0.037-1.584-0.086-1.756-1.991-2.422
				c-1.509-0.531-9.861-1.312-16.127-0.938l-0.029,1.643c4.935-0.256,9.695,0.354,11.069,1.25
				c3.138,2.043,2.196,11.858-0.468,16.712c-1.846,3.37-6.714,5.076-11.098,5.135L169.17,88.295z M150.952,65.17
				c-2.159,0.046-10.988-2.529-17.274-3.09c-0.446-0.043-0.904-0.076-1.374-0.104l-0.032,1.647
				c5.109,0.246,10.394,1.42,12.201,4.151c2.962,4.484-2.414,15.409-7.252,17.833c-1.471,0.736-3.404,1.11-5.438,1.128l-0.034,1.545
				c8.459,0.038,11.606-6.051,12.652-8.083c1.979-3.828,1.587-9.109,6.43-9.106c4.836,0,4.187,5.185,5.905,9.018
				c0.929,2.065,3.656,8.41,12.436,8.185l0.026-1.543c-2.162,0.03-4.222-0.348-5.728-1.129c-4.677-2.429-9.326-13.356-6.063-17.835
				c1.963-2.703,7.217-3.875,12.284-4.133l0.029-1.643c-0.39,0.024-0.771,0.05-1.141,0.083
				C162.914,62.593,156.04,65.049,150.952,65.17z M132.304,61.977c-6.206-0.348-14.428,0.41-15.95,0.929
				c-1.954,0.669-2.015,0.842-2.155,2.428c-0.14,1.586,0.063,2.951,1.185,3.362c1.539,0.56,1.48,2.683,2.307,8.779
				c0.744,5.55,2.87,9.94,12.608,10.743c0.499,0.042,0.98,0.061,1.449,0.064l0.034-1.545c-4.476,0.024-9.451-1.686-11.116-5.149
				c-2.338-4.861-2.638-14.673,0.644-16.715c1.416-0.883,6.111-1.483,10.961-1.248L132.304,61.977z"/>
			<path opacity="0.35" fill="#B0CAD9" enable-background="new    " d="M121.31,64.872c2.906-1.813,19.629-2.429,23.162,2.904
				c2.962,4.484-2.414,15.409-7.252,17.833c-4.698,2.352-14.133,1.02-16.554-4.021C118.328,76.726,118.028,66.914,121.31,64.872
				L121.31,64.872z M180.762,64.904c-2.791-1.818-19.479-2.449-23.355,2.883c-3.264,4.479,1.388,15.406,6.064,17.835
				c4.537,2.357,14.059,1.033,16.822-4.006C182.957,76.763,183.896,66.947,180.762,64.904z"/>
			<g opacity="0.35">
				<path fill="#D1E2EB" d="M122.925,64.275c5.153-1.28,18.449-1.184,21.547,3.5c2.078,3.148,0.051,9.455-3.011,13.786
					L122.925,64.275z"/>
				<path fill="#D1E2EB" d="M160.152,65.663l18.873,17.607c0.506-0.5,0.935-1.048,1.268-1.653
					c2.664-4.854,3.604-14.669,0.469-16.712C178.42,63.377,166.277,62.686,160.152,65.663z"/>
			</g>
		</g>
		<g>
			<text transform="matrix(0.9973 0 0 1 140.6016 140.0234)" fill="#FFFFFF" font-family="'ArialMT'" font-size="22.2586">C</text>
			<text transform="matrix(0.9973 0 0 1 152.1758 132.7148)" fill="#FFFFFF" font-family="'ArialMT'" font-size="15.581">+</text>
			<text transform="matrix(0.9973 0 0 1 152.1758 142.0625)" fill="#FFFFFF" font-family="'ArialMT'" font-size="15.581">+</text>
		</g>
		<path fill="#FFFFFF" d="M138.485,93.847c0,0,10.688,3.315,23.035,0C173.87,90.533,138.485,93.847,138.485,93.847z"/>
		<ellipse fill="#FFFFFF" cx="135.281" cy="73.993" rx="1.257" ry="1.928"/>
		<ellipse fill="#FFFFFF" cx="167.161" cy="73.993" rx="1.256" ry="1.928"/>
	</g>
	<path fill="#8B8C8C" d="M196.127,182.77c0,1.25-0.825,2.265-1.846,2.265h-89.125c-1.019,0-1.844-1.015-1.844-2.265l0,0
		c0-1.248,0.826-2.262,1.844-2.262h89.125C195.302,180.508,196.127,181.521,196.127,182.77L196.127,182.77z"/>
	<g>
		<g>
			<path fill="#C5C6C7" d="M104.254,183.061h8.262H130.6h3.978h4.284h3.978h13.895h4.188h4.072h4.19h17.873h8.262
				c0.74,0,0.951-0.658,0.468-1.473l-0.896-1.508l-0.074-0.125l-9.807-16.531c-0.224-0.375-0.938-0.68-1.596-0.68h-19.975h-9.187
				h-10.948h-9.026h-20.135c-0.657,0-1.341,0.305-1.526,0.68l-8.173,16.531l-0.062,0.125l-0.746,1.508
				C103.238,182.402,103.513,183.061,104.254,183.061z"/>
			<g>
				<g id="keys_9_">
					<g>
						<path fill="#FFFFFF" d="M179.773,175.643c-0.088-0.201,0.156-0.365,0.543-0.365h3.72c0.39,0,0.787,0.164,0.888,0.365
							l0.967,1.935c0.103,0.202-0.144,0.364-0.545,0.364H181.5c-0.4,0-0.798-0.162-0.887-0.364L179.773,175.643z"/>
						<path display="none" fill="#FFFFFF" stroke="#58595B" stroke-width="0.3552" stroke-miterlimit="10" d="M180.305,175.248
							h3.719c0.42,0,0.852,0.178,0.959,0.395l0.97,1.935c0.108,0.219-0.156,0.396-0.591,0.396h-3.848
							c-0.435,0-0.865-0.178-0.961-0.396l-0.84-1.935C179.619,175.426,179.885,175.248,180.305,175.248z M185.331,177.912
							c0.367,0,0.593-0.15,0.5-0.336l-0.966-1.934c-0.092-0.185-0.459-0.336-0.814-0.336h-3.72c-0.354,0-0.58,0.151-0.5,0.336
							l0.842,1.934c0.081,0.186,0.447,0.336,0.813,0.336H185.331z"/>
					</g>
					<g>
						<path fill="#FFFFFF" d="M185.514,175.643c-0.103-0.201,0.129-0.365,0.521-0.365h3.719c0.39,0,0.798,0.164,0.913,0.365
							l1.107,1.935c0.117,0.202-0.116,0.364-0.52,0.364h-3.845c-0.403,0-0.812-0.162-0.914-0.364L185.514,175.643z"/>
						<path display="none" fill="#FFFFFF" stroke="#58595B" stroke-width="0.3552" stroke-miterlimit="10" d="M186.018,175.248
							h3.719c0.42,0,0.863,0.178,0.988,0.395l1.108,1.935c0.125,0.219-0.127,0.396-0.562,0.396h-3.848
							c-0.436,0-0.88-0.178-0.99-0.396l-0.979-1.935C185.344,175.426,185.598,175.248,186.018,175.248z M191.236,177.912
							c0.367,0,0.582-0.15,0.476-0.336l-1.106-1.934c-0.104-0.185-0.481-0.336-0.838-0.336h-3.72c-0.354,0-0.567,0.151-0.476,0.336
							l0.982,1.934c0.096,0.186,0.471,0.336,0.838,0.336H191.236z"/>
					</g>
					<g>
						<path fill="#FFFFFF" d="M168.29,175.643c-0.06-0.201,0.209-0.365,0.599-0.365h3.719c0.391,0,0.763,0.164,0.834,0.365
							l0.686,1.935c0.072,0.202-0.195,0.364-0.6,0.364h-3.844c-0.404,0-0.775-0.162-0.834-0.364L168.29,175.643z"/>
						<path display="none" fill="#FFFFFF" stroke="#58595B" stroke-width="0.3552" stroke-miterlimit="10" d="M168.88,175.248h3.718
							c0.42,0,0.826,0.178,0.902,0.395l0.688,1.935c0.078,0.219-0.213,0.396-0.647,0.396h-3.847c-0.436,0-0.842-0.178-0.904-0.396
							l-0.557-1.935C168.169,175.426,168.46,175.248,168.88,175.248z M173.518,177.912c0.367,0,0.613-0.15,0.549-0.336l-0.685-1.934
							c-0.065-0.185-0.407-0.336-0.764-0.336h-3.722c-0.354,0-0.603,0.151-0.549,0.336l0.561,1.934
							c0.054,0.186,0.398,0.336,0.766,0.336H173.518z"/>
					</g>
					<g>
						<path fill="#FFFFFF" d="M174.029,175.643c-0.072-0.201,0.186-0.365,0.574-0.365h3.717c0.392,0,0.775,0.164,0.861,0.365
							l0.826,1.935c0.086,0.202-0.17,0.364-0.572,0.364h-3.845c-0.401,0-0.788-0.162-0.862-0.364L174.029,175.643z"/>
						<path display="none" fill="#FFFFFF" stroke="#58595B" stroke-width="0.3552" stroke-miterlimit="10" d="M174.593,175.248
							h3.718c0.422,0,0.838,0.178,0.932,0.395l0.826,1.935c0.095,0.219-0.182,0.396-0.618,0.396h-3.847
							c-0.436,0-0.854-0.178-0.934-0.396l-0.697-1.935C173.895,175.426,174.172,175.248,174.593,175.248z M179.424,177.912
							c0.369,0,0.604-0.15,0.524-0.336l-0.825-1.934c-0.078-0.185-0.432-0.336-0.789-0.336h-3.721c-0.355,0-0.592,0.151-0.523,0.336
							l0.701,1.934c0.066,0.186,0.422,0.336,0.79,0.336H179.424z"/>
					</g>
					<g>
						<path fill="#FFFFFF" d="M156.77,175.643c-0.028-0.201,0.264-0.365,0.651-0.365h3.718c0.391,0,0.739,0.164,0.781,0.365
							l0.402,1.935c0.043,0.202-0.25,0.364-0.653,0.364h-3.844c-0.401,0-0.752-0.162-0.781-0.364L156.77,175.643z"/>
						<path display="none" fill="#FFFFFF" stroke="#58595B" stroke-width="0.3552" stroke-miterlimit="10" d="M157.416,175.248
							h3.717c0.422,0,0.801,0.178,0.846,0.395l0.404,1.935c0.047,0.219-0.271,0.396-0.707,0.396h-3.846
							c-0.436,0-0.814-0.178-0.846-0.396l-0.274-1.935C156.68,175.426,156.995,175.248,157.416,175.248z M161.663,177.912
							c0.368,0,0.638-0.15,0.599-0.336l-0.4-1.934c-0.037-0.185-0.359-0.336-0.717-0.336h-3.72c-0.354,0-0.624,0.151-0.598,0.336
							l0.276,1.934c0.027,0.186,0.349,0.336,0.717,0.336H161.663z"/>
					</g>
					<g>
						<path fill="#FFFFFF" d="M162.509,175.643c-0.043-0.201,0.237-0.365,0.628-0.365h3.717c0.391,0,0.752,0.164,0.809,0.365
							l0.543,1.935c0.057,0.202-0.225,0.364-0.626,0.364h-3.845c-0.402,0-0.764-0.162-0.809-0.364L162.509,175.643z"/>
						<path display="none" fill="#FFFFFF" stroke="#58595B" stroke-width="0.3552" stroke-miterlimit="10" d="M163.129,175.248
							h3.717c0.42,0,0.813,0.178,0.875,0.395l0.545,1.935c0.062,0.219-0.244,0.396-0.679,0.396h-3.846
							c-0.437,0-0.828-0.178-0.876-0.396l-0.415-1.935C162.402,175.426,162.708,175.248,163.129,175.248z M167.57,177.912
							c0.367,0,0.625-0.15,0.572-0.336l-0.541-1.934c-0.052-0.185-0.386-0.336-0.74-0.336h-3.719c-0.356,0-0.615,0.151-0.574,0.336
							l0.418,1.934c0.039,0.186,0.373,0.336,0.74,0.336H167.57z"/>
					</g>
					<g>
						<path fill="#FFFFFF" d="M145.286,175.643c0.001-0.201,0.317-0.365,0.706-0.365h3.719c0.389,0,0.715,0.164,0.728,0.365
							l0.122,1.935c0.012,0.202-0.305,0.364-0.708,0.364h-3.845c-0.402,0-0.728-0.162-0.728-0.364L145.286,175.643z"/>
						<path display="none" fill="#FFFFFF" stroke="#58595B" stroke-width="0.3552" stroke-miterlimit="10" d="M145.992,175.248
							h3.717c0.42,0,0.773,0.178,0.787,0.395l0.122,1.935c0.014,0.219-0.329,0.396-0.764,0.396h-3.847
							c-0.436,0-0.789-0.178-0.788-0.396l0.007-1.935C145.228,175.426,145.571,175.248,145.992,175.248z M149.851,177.912
							c0.368,0,0.658-0.15,0.646-0.336l-0.119-1.934c-0.011-0.185-0.311-0.336-0.667-0.336h-3.72c-0.356,0-0.646,0.151-0.647,0.336
							l-0.004,1.934c0,0.186,0.299,0.336,0.667,0.336H149.851z"/>
					</g>
					<g>
						<path fill="#FFFFFF" d="M151.027,175.643c-0.016-0.201,0.289-0.365,0.68-0.365h3.718c0.39,0,0.728,0.164,0.755,0.365
							l0.262,1.935c0.027,0.202-0.277,0.364-0.68,0.364h-3.845c-0.401,0-0.741-0.162-0.755-0.364L151.027,175.643z"/>
						<path display="none" fill="#FFFFFF" stroke="#58595B" stroke-width="0.3552" stroke-miterlimit="10" d="M151.704,175.248
							h3.717c0.42,0,0.787,0.178,0.815,0.395l0.264,1.935c0.029,0.219-0.301,0.396-0.734,0.396h-3.847
							c-0.437,0-0.802-0.178-0.817-0.396l-0.134-1.935C150.953,175.426,151.282,175.248,151.704,175.248z M155.757,177.912
							c0.368,0,0.647-0.15,0.623-0.336l-0.261-1.934c-0.023-0.185-0.334-0.336-0.689-0.336h-3.721c-0.357,0-0.636,0.151-0.623,0.336
							l0.137,1.934c0.014,0.186,0.322,0.336,0.691,0.336H155.757z"/>
					</g>
					<g>
						<path fill="#FFFFFF" d="M139.506,175.643c0.015-0.201,0.343-0.365,0.732-0.365h3.718c0.389,0,0.703,0.164,0.701,0.365
							l-0.021,1.935c-0.002,0.202-0.331,0.364-0.733,0.364h-3.845c-0.402,0-0.715-0.162-0.7-0.364L139.506,175.643z"/>
						<path display="none" fill="#FFFFFF" stroke="#58595B" stroke-width="0.3552" stroke-miterlimit="10" d="M140.24,175.248h3.717
							c0.421,0,0.761,0.178,0.758,0.395l-0.02,1.935c-0.002,0.219-0.357,0.396-0.793,0.396h-3.846c-0.436,0-0.776-0.178-0.759-0.396
							l0.149-1.935C139.463,175.426,139.819,175.248,140.24,175.248z M143.904,177.912c0.369,0,0.669-0.15,0.671-0.336l0.023-1.934
							c0.002-0.185-0.285-0.336-0.642-0.336h-3.72c-0.356,0-0.658,0.151-0.671,0.336l-0.146,1.934
							c-0.014,0.186,0.274,0.336,0.642,0.336H143.904z"/>
					</g>
					<g>
						<path fill="#FFFFFF" d="M127.984,175.643c0.045-0.201,0.396-0.365,0.786-0.365h3.718c0.389,0,0.679,0.164,0.648,0.365
							l-0.304,1.935c-0.032,0.202-0.384,0.364-0.787,0.364h-3.844c-0.402,0-0.692-0.162-0.647-0.364L127.984,175.643z"/>
						<path display="none" fill="#FFFFFF" stroke="#58595B" stroke-width="0.3552" stroke-miterlimit="10" d="M128.776,175.248
							h3.717c0.421,0,0.735,0.178,0.701,0.395l-0.303,1.935c-0.034,0.219-0.416,0.396-0.852,0.396h-3.846
							c-0.436,0-0.75-0.178-0.701-0.396l0.432-1.935C127.974,175.426,128.355,175.248,128.776,175.248z M132.05,177.912
							c0.368,0,0.692-0.15,0.721-0.336l0.306-1.934c0.029-0.185-0.237-0.336-0.593-0.336h-3.719c-0.356,0-0.68,0.151-0.721,0.336
							l-0.429,1.934c-0.042,0.186,0.225,0.336,0.593,0.336H132.05z"/>
					</g>
					<g>
						<path fill="#FFFFFF" d="M133.726,175.643c0.03-0.201,0.37-0.365,0.759-0.365h3.719c0.389,0,0.69,0.164,0.673,0.365
							l-0.163,1.935c-0.017,0.202-0.357,0.364-0.759,0.364h-3.846c-0.402,0-0.704-0.162-0.673-0.364L133.726,175.643z"/>
						<path display="none" fill="#FFFFFF" stroke="#58595B" stroke-width="0.3552" stroke-miterlimit="10" d="M134.488,175.248
							h3.718c0.42,0,0.748,0.178,0.73,0.395l-0.162,1.935c-0.019,0.219-0.388,0.396-0.823,0.396h-3.847
							c-0.435,0-0.762-0.178-0.729-0.396l0.291-1.935C133.699,175.426,134.068,175.248,134.488,175.248z M137.958,177.912
							c0.367,0,0.68-0.15,0.696-0.336l0.165-1.934c0.016-0.185-0.262-0.336-0.618-0.336h-3.721c-0.356,0-0.668,0.151-0.696,0.336
							l-0.289,1.934c-0.027,0.186,0.25,0.336,0.618,0.336H137.958z"/>
					</g>
					<g>
						<path fill="#FFFFFF" d="M116.502,175.643c0.074-0.201,0.45-0.365,0.839-0.365h3.718c0.389,0,0.655,0.164,0.594,0.365
							l-0.586,1.935c-0.062,0.202-0.438,0.364-0.84,0.364h-3.844c-0.402,0-0.669-0.162-0.594-0.364L116.502,175.643z"/>
						<path display="none" fill="#FFFFFF" stroke="#58595B" stroke-width="0.3552" stroke-miterlimit="10" d="M117.352,175.248
							h3.717c0.421,0,0.709,0.178,0.644,0.395l-0.584,1.935c-0.066,0.219-0.474,0.396-0.91,0.396h-3.846
							c-0.435,0-0.724-0.178-0.643-0.396l0.714-1.935C116.523,175.426,116.931,175.248,117.352,175.248z M120.237,177.912
							c0.368,0,0.713-0.15,0.77-0.336l0.587-1.934c0.056-0.185-0.188-0.336-0.544-0.336h-3.72c-0.356,0-0.702,0.151-0.77,0.336
							l-0.711,1.934c-0.068,0.186,0.176,0.336,0.544,0.336H120.237z"/>
					</g>
					<g>
						<path fill="#FFFFFF" d="M122.243,175.643c0.06-0.201,0.423-0.365,0.813-0.365h3.718c0.389,0,0.667,0.164,0.621,0.365
							l-0.445,1.935c-0.046,0.202-0.41,0.364-0.813,0.364h-3.844c-0.403,0-0.681-0.162-0.621-0.364L122.243,175.643z"/>
						<path fill="#FFFFFF" d="M123.064,175.248h3.717c0.42,0,0.722,0.178,0.672,0.395l-0.443,1.935
							c-0.05,0.219-0.445,0.396-0.88,0.396h-3.846c-0.436,0-0.737-0.178-0.672-0.396l0.573-1.935
							C122.248,175.426,122.643,175.248,123.064,175.248z M126.144,177.912c0.368,0,0.702-0.15,0.745-0.336l0.446-1.934
							c0.042-0.185-0.211-0.336-0.568-0.336h-3.72c-0.356,0-0.691,0.151-0.745,0.336l-0.57,1.934
							c-0.055,0.186,0.201,0.336,0.569,0.336H126.144z"/>
					</g>
					<g>
						<path fill="#FFFFFF" d="M135.415,175.043c0.355,0,0.663-0.15,0.685-0.336l0.234-1.932c0.022-0.187-0.238-0.336-0.583-0.336
							h-3.583c-0.343,0-0.65,0.149-0.685,0.336l-0.357,1.932c-0.034,0.186,0.227,0.336,0.582,0.336H135.415z"/>
					</g>
					<g>
						<path fill="#FFFFFF" d="M120.324,172.775c0.067-0.203,0.426-0.367,0.801-0.367h3.583c0.375,0,0.635,0.164,0.581,0.367
							l-0.515,1.932c-0.054,0.203-0.412,0.367-0.8,0.367h-3.709c-0.388,0-0.648-0.164-0.581-0.367L120.324,172.775z"/>
						<path display="none" fill="#FFFFFF" stroke="#58595B" stroke-width="0.3552" stroke-miterlimit="10" d="M121.135,172.379
							h3.581c0.405,0,0.688,0.178,0.629,0.396l-0.514,1.932c-0.058,0.219-0.447,0.396-0.867,0.396h-3.71
							c-0.42,0-0.702-0.179-0.629-0.396l0.643-1.932C120.34,172.557,120.729,172.379,121.135,172.379z M123.981,175.043
							c0.355,0,0.684-0.15,0.734-0.336l0.517-1.932c0.049-0.187-0.19-0.336-0.533-0.336h-3.584c-0.343,0-0.672,0.149-0.733,0.336
							l-0.64,1.932c-0.062,0.186,0.178,0.336,0.533,0.336H123.981z"/>
					</g>
					<g>
						<path fill="#FFFFFF" d="M125.857,172.775c0.053-0.203,0.398-0.367,0.773-0.367h3.583c0.375,0,0.647,0.164,0.608,0.367
							l-0.375,1.932c-0.039,0.203-0.386,0.367-0.774,0.367h-3.709c-0.388,0-0.66-0.164-0.607-0.367L125.857,172.775z"/>
						<path display="none" fill="#FFFFFF" stroke="#58595B" stroke-width="0.3552" stroke-miterlimit="10" d="M126.638,172.379
							h3.581c0.405,0,0.701,0.178,0.658,0.396l-0.373,1.932c-0.042,0.219-0.418,0.396-0.838,0.396h-3.71
							c-0.42,0-0.715-0.179-0.659-0.396l0.502-1.932C125.856,172.557,126.232,172.379,126.638,172.379z M129.679,175.043
							c0.355,0,0.673-0.15,0.709-0.336l0.375-1.932c0.036-0.187-0.214-0.336-0.557-0.336h-3.584c-0.343,0-0.661,0.149-0.709,0.336
							l-0.499,1.932c-0.048,0.186,0.202,0.336,0.557,0.336H129.679z"/>
					</g>
					<g>
						<path fill="#FFFFFF" d="M109.26,172.775c0.097-0.203,0.479-0.367,0.854-0.367h3.582c0.375,0,0.611,0.164,0.527,0.367
							l-0.796,1.932c-0.084,0.203-0.466,0.367-0.854,0.367h-3.708c-0.388,0-0.625-0.164-0.527-0.367L109.26,172.775z"/>
						<path display="none" fill="#FFFFFF" stroke="#58595B" stroke-width="0.3552" stroke-miterlimit="10" d="M110.128,172.379
							h3.581c0.405,0,0.662,0.178,0.572,0.396l-0.795,1.932c-0.09,0.219-0.505,0.396-0.925,0.396h-3.71
							c-0.42,0-0.676-0.179-0.571-0.396l0.924-1.932C109.308,172.557,109.723,172.379,110.128,172.379z M112.586,175.043
							c0.355,0,0.707-0.15,0.784-0.336l0.798-1.932c0.077-0.187-0.141-0.336-0.484-0.336H110.1c-0.344,0-0.694,0.149-0.783,0.336
							l-0.921,1.932c-0.088,0.186,0.128,0.336,0.484,0.336H112.586z"/>
					</g>
					<g>
						<path fill="#FFFFFF" d="M114.792,172.775c0.082-0.203,0.453-0.367,0.827-0.367h3.583c0.375,0,0.623,0.164,0.554,0.367
							l-0.656,1.932c-0.069,0.203-0.439,0.367-0.827,0.367h-3.709c-0.387,0-0.636-0.164-0.554-0.367L114.792,172.775z"/>
						<path display="none" fill="#FFFFFF" stroke="#58595B" stroke-width="0.3552" stroke-miterlimit="10" d="M115.631,172.379
							h3.581c0.405,0,0.675,0.178,0.601,0.396l-0.654,1.932c-0.074,0.219-0.476,0.396-0.896,0.396h-3.71
							c-0.42,0-0.689-0.179-0.601-0.396l0.783-1.932C114.824,172.557,115.226,172.379,115.631,172.379z M118.284,175.043
							c0.355,0,0.695-0.15,0.758-0.336l0.657-1.932c0.063-0.187-0.165-0.336-0.508-0.336h-3.583c-0.343,0-0.684,0.149-0.758,0.336
							l-0.781,1.932c-0.075,0.186,0.153,0.336,0.508,0.336H118.284z"/>
					</g>
					<g>
						<path fill="#FFFFFF" d="M159.163,172.775c-0.036-0.203,0.237-0.367,0.612-0.367h3.582c0.375,0,0.72,0.164,0.77,0.367
							l0.475,1.932c0.049,0.203-0.226,0.367-0.613,0.367h-3.709c-0.387,0-0.731-0.164-0.77-0.367L159.163,172.775z"/>
						<path display="none" fill="#FFFFFF" stroke="#58595B" stroke-width="0.3552" stroke-miterlimit="10" d="M159.771,172.379h3.58
							c0.405,0,0.777,0.178,0.832,0.396l0.476,1.932c0.054,0.219-0.243,0.396-0.664,0.396h-3.71c-0.419,0-0.792-0.179-0.831-0.396
							l-0.347-1.932C159.068,172.557,159.365,172.379,159.771,172.379z M163.98,175.043c0.354,0,0.606-0.15,0.562-0.336
							l-0.472-1.932c-0.045-0.187-0.36-0.336-0.704-0.336h-3.585c-0.342,0-0.594,0.149-0.561,0.336l0.348,1.932
							c0.033,0.186,0.35,0.336,0.703,0.336H163.98z"/>
					</g>
					<g>
						<path fill="#FFFFFF" d="M148.061,172.775c-0.006-0.203,0.292-0.367,0.666-0.367h3.583c0.373,0,0.693,0.164,0.715,0.367
							l0.189,1.932c0.02,0.203-0.279,0.367-0.666,0.367h-3.709c-0.388,0-0.708-0.164-0.714-0.367L148.061,172.775z"/>
						<path display="none" fill="#FFFFFF" stroke="#58595B" stroke-width="0.3552" stroke-miterlimit="10" d="M148.726,172.379
							h3.583c0.404,0,0.752,0.178,0.773,0.396l0.191,1.932c0.021,0.219-0.303,0.396-0.722,0.396h-3.711
							c-0.419,0-0.767-0.179-0.774-0.396l-0.063-1.932C147.998,172.557,148.321,172.379,148.726,172.379z M152.548,175.043
							c0.354,0,0.628-0.15,0.609-0.336l-0.189-1.932c-0.018-0.187-0.312-0.336-0.653-0.336h-3.585c-0.342,0-0.617,0.149-0.61,0.336
							l0.066,1.932c0.006,0.186,0.301,0.336,0.655,0.336H152.548z"/>
					</g>
					<g>
						<path fill="#FFFFFF" d="M153.596,172.775c-0.022-0.203,0.264-0.367,0.639-0.367h3.582c0.375,0,0.705,0.164,0.74,0.367
							l0.332,1.932c0.034,0.203-0.25,0.367-0.64,0.367h-3.709c-0.388,0-0.72-0.164-0.74-0.367L153.596,172.775z"/>
						<path display="none" fill="#FFFFFF" stroke="#58595B" stroke-width="0.3552" stroke-miterlimit="10" d="M154.229,172.379
							h3.582c0.404,0,0.766,0.178,0.803,0.396l0.334,1.932c0.037,0.219-0.273,0.396-0.693,0.396h-3.71
							c-0.42,0-0.78-0.179-0.804-0.396l-0.203-1.932C153.514,172.557,153.824,172.379,154.229,172.379z M158.244,175.043
							c0.355,0,0.617-0.15,0.586-0.336l-0.33-1.932c-0.032-0.187-0.336-0.336-0.68-0.336h-3.584c-0.344,0-0.606,0.149-0.586,0.336
							l0.205,1.932c0.021,0.186,0.326,0.336,0.682,0.336H158.244z"/>
					</g>
					<g>
						<path fill="#FFFFFF" d="M175.762,172.775c-0.082-0.203,0.155-0.367,0.53-0.367h3.583c0.374,0,0.755,0.164,0.85,0.367
							l0.896,1.932c0.095,0.203-0.146,0.367-0.532,0.367h-3.709c-0.388,0-0.768-0.164-0.848-0.367L175.762,172.775z"/>
						<path display="none" fill="#FFFFFF" stroke="#58595B" stroke-width="0.3552" stroke-miterlimit="10" d="M176.279,172.379
							h3.582c0.404,0,0.816,0.178,0.918,0.396l0.897,1.932c0.103,0.219-0.157,0.396-0.577,0.396h-3.711
							c-0.421,0-0.83-0.179-0.918-0.396l-0.768-1.932C175.617,172.557,175.874,172.379,176.279,172.379z M181.073,175.043
							c0.354,0,0.573-0.15,0.487-0.336l-0.896-1.932c-0.086-0.187-0.435-0.336-0.776-0.336h-3.584c-0.345,0-0.563,0.149-0.488,0.336
							l0.771,1.932c0.074,0.186,0.422,0.336,0.777,0.336H181.073z"/>
					</g>
					<g>
						<path fill="#FFFFFF" d="M164.657,172.775c-0.052-0.203,0.211-0.367,0.587-0.367h3.581c0.374,0,0.731,0.164,0.796,0.367
							l0.613,1.932c0.063,0.203-0.199,0.367-0.586,0.367h-3.709c-0.39,0-0.744-0.164-0.797-0.367L164.657,172.775z"/>
						<path display="none" fill="#FFFFFF" stroke="#58595B" stroke-width="0.3552" stroke-miterlimit="10" d="M165.236,172.379h3.58
							c0.404,0,0.791,0.178,0.86,0.396l0.614,1.932c0.07,0.219-0.215,0.396-0.635,0.396h-3.711c-0.42,0-0.805-0.179-0.86-0.396
							l-0.485-1.932C164.546,172.557,164.831,172.379,165.236,172.379z M169.639,175.043c0.354,0,0.596-0.15,0.536-0.336
							l-0.61-1.932c-0.06-0.187-0.385-0.336-0.729-0.336h-3.583c-0.344,0-0.584,0.149-0.537,0.336l0.488,1.932
							c0.047,0.186,0.373,0.336,0.729,0.336H169.639z"/>
					</g>
					<g>
						<path fill="#FFFFFF" d="M170.189,172.775c-0.066-0.203,0.186-0.367,0.56-0.367h3.582c0.375,0,0.743,0.164,0.821,0.367
							l0.755,1.932c0.079,0.203-0.171,0.367-0.56,0.367h-3.709c-0.388,0-0.757-0.164-0.822-0.367L170.189,172.775z"/>
						<path display="none" fill="#FFFFFF" stroke="#58595B" stroke-width="0.3552" stroke-miterlimit="10" d="M170.738,172.379
							h3.582c0.404,0,0.806,0.178,0.891,0.396l0.756,1.932c0.085,0.219-0.188,0.396-0.607,0.396h-3.711
							c-0.418,0-0.816-0.179-0.889-0.396l-0.626-1.932C170.063,172.557,170.334,172.379,170.738,172.379z M175.336,175.043
							c0.355,0,0.587-0.15,0.516-0.336l-0.754-1.932c-0.072-0.187-0.41-0.336-0.754-0.336h-3.585c-0.342,0-0.573,0.149-0.513,0.336
							l0.629,1.932c0.061,0.186,0.398,0.336,0.754,0.336H175.336z"/>
					</g>
					<g>
						<path fill="#FFFFFF" d="M136.997,172.775c0.023-0.203,0.345-0.367,0.72-0.367h3.583c0.375,0,0.671,0.164,0.662,0.367
							l-0.091,1.932c-0.009,0.203-0.332,0.367-0.72,0.367h-3.708c-0.388,0-0.684-0.164-0.662-0.367L136.997,172.775z"/>
						<path display="none" fill="#FFFFFF" stroke="#58595B" stroke-width="0.3552" stroke-miterlimit="10" d="M137.72,172.379h3.581
							c0.406,0,0.727,0.178,0.717,0.396l-0.089,1.932c-0.01,0.219-0.36,0.396-0.78,0.396h-3.71c-0.42,0-0.742-0.179-0.717-0.396
							l0.219-1.932C136.965,172.557,137.314,172.379,137.72,172.379z M141.152,175.043c0.355,0,0.65-0.15,0.659-0.336l0.092-1.932
							c0.009-0.187-0.263-0.336-0.606-0.336h-3.583c-0.343,0-0.64,0.149-0.66,0.336l-0.215,1.932
							c-0.021,0.186,0.251,0.336,0.606,0.336H141.152z"/>
					</g>
					<g>
						<path fill="#FFFFFF" d="M142.529,172.775c0.008-0.203,0.318-0.367,0.693-0.367h3.582c0.375,0,0.683,0.164,0.688,0.367
							l0.05,1.932c0.005,0.203-0.306,0.367-0.694,0.367h-3.708c-0.388,0-0.696-0.164-0.688-0.367L142.529,172.775z"/>
						<path display="none" fill="#FFFFFF" stroke="#58595B" stroke-width="0.3552" stroke-miterlimit="10" d="M143.223,172.379
							h3.581c0.406,0,0.74,0.178,0.746,0.396l0.052,1.932c0.006,0.219-0.331,0.396-0.751,0.396h-3.709
							c-0.42,0-0.754-0.179-0.746-0.396l0.078-1.932C142.481,172.557,142.818,172.379,143.223,172.379z M146.849,175.043
							c0.355,0,0.641-0.15,0.636-0.336l-0.048-1.932c-0.005-0.187-0.288-0.336-0.631-0.336h-3.583c-0.343,0-0.628,0.149-0.635,0.336
							l-0.075,1.932c-0.007,0.186,0.276,0.336,0.631,0.336H146.849z"/>
					</g>
					<g>
						<path fill="#FFFFFF" d="M130.677,169.846c0.042-0.203,0.368-0.367,0.728-0.367h3.443c0.36,0,0.63,0.164,0.603,0.367
							l-0.267,1.934c-0.028,0.201-0.354,0.365-0.728,0.365h-3.57c-0.373,0-0.644-0.164-0.603-0.365L130.677,169.846z"/>
						<path display="none" fill="#FFFFFF" stroke="#58595B" stroke-width="0.3552" stroke-miterlimit="10" d="M131.411,169.447
							h3.442c0.39,0,0.682,0.18,0.652,0.398l-0.266,1.934c-0.03,0.217-0.383,0.395-0.788,0.395h-3.571
							c-0.404,0-0.696-0.178-0.652-0.395l0.395-1.934C130.667,169.627,131.021,169.447,131.411,169.447z M134.46,172.113
							c0.342,0,0.641-0.15,0.667-0.334l0.269-1.934c0.026-0.187-0.222-0.337-0.552-0.337h-3.445c-0.329,0-0.629,0.15-0.667,0.337
							l-0.392,1.934c-0.038,0.184,0.211,0.334,0.552,0.334H134.46z"/>
					</g>
					<g>
						<path fill="#FFFFFF" d="M120.003,169.846c0.071-0.203,0.421-0.367,0.781-0.367h3.444c0.36,0,0.606,0.164,0.548,0.367
							l-0.55,1.934c-0.057,0.201-0.406,0.365-0.78,0.365h-3.57c-0.373,0-0.619-0.164-0.549-0.365L120.003,169.846z"/>
						<path display="none" fill="#FFFFFF" stroke="#58595B" stroke-width="0.3552" stroke-miterlimit="10" d="M120.795,169.447
							h3.442c0.389,0,0.655,0.18,0.593,0.398l-0.548,1.934c-0.062,0.217-0.441,0.395-0.845,0.395h-3.572
							c-0.404,0-0.67-0.178-0.594-0.395l0.678-1.934C120.026,169.627,120.406,169.447,120.795,169.447z M123.455,172.113
							c0.342,0,0.663-0.15,0.715-0.334l0.551-1.934c0.053-0.187-0.172-0.337-0.502-0.337h-3.445c-0.33,0-0.65,0.15-0.715,0.337
							l-0.675,1.934c-0.064,0.184,0.162,0.334,0.503,0.334H123.455z"/>
					</g>
					<g>
						<path fill="#FFFFFF" d="M125.322,169.846c0.056-0.203,0.394-0.367,0.754-0.367h3.443c0.36,0,0.618,0.164,0.575,0.367
							l-0.409,1.934c-0.042,0.201-0.38,0.365-0.754,0.365h-3.57c-0.374,0-0.631-0.164-0.576-0.365L125.322,169.846z"/>
						<path display="none" fill="#FFFFFF" stroke="#58595B" stroke-width="0.3552" stroke-miterlimit="10" d="M126.085,169.447
							h3.442c0.39,0,0.669,0.18,0.623,0.398l-0.407,1.934c-0.045,0.217-0.412,0.395-0.816,0.395h-3.571
							c-0.404,0-0.684-0.178-0.624-0.395l0.537-1.934C125.328,169.627,125.695,169.447,126.085,169.447z M128.939,172.113
							c0.342,0,0.652-0.15,0.691-0.334l0.41-1.934c0.04-0.187-0.197-0.337-0.527-0.337h-3.445c-0.331,0-0.64,0.15-0.691,0.337
							l-0.534,1.934c-0.051,0.184,0.186,0.334,0.528,0.334H128.939z"/>
					</g>
					<g>
						<path fill="#FFFFFF" d="M157.346,169.846c-0.033-0.203,0.231-0.367,0.592-0.367h3.441c0.361,0,0.689,0.164,0.737,0.367
							l0.438,1.934c0.047,0.201-0.22,0.365-0.595,0.365h-3.569c-0.371,0-0.701-0.164-0.733-0.365L157.346,169.846z"/>
						<path display="none" fill="#FFFFFF" stroke="#58595B" stroke-width="0.3552" stroke-miterlimit="10" d="M157.932,169.447h3.44
							c0.392,0,0.749,0.18,0.799,0.398l0.44,1.934c0.05,0.217-0.239,0.395-0.645,0.395h-3.57c-0.403,0-0.762-0.178-0.797-0.395
							l-0.312-1.934C157.254,169.627,157.542,169.447,157.932,169.447z M161.954,172.113c0.343,0,0.587-0.15,0.545-0.334
							l-0.438-1.934c-0.041-0.187-0.345-0.337-0.676-0.337h-3.443c-0.33,0-0.572,0.15-0.543,0.337l0.314,1.934
							c0.029,0.184,0.332,0.334,0.674,0.334H161.954z"/>
					</g>
					<g>
						<path fill="#FFFFFF" d="M146.67,169.846c-0.003-0.203,0.287-0.367,0.646-0.367h3.443c0.36,0,0.666,0.164,0.683,0.367
							l0.156,1.934c0.016,0.201-0.273,0.365-0.646,0.365h-3.569c-0.374,0-0.679-0.164-0.682-0.365L146.67,169.846z"/>
						<path display="none" fill="#FFFFFF" stroke="#58595B" stroke-width="0.3552" stroke-miterlimit="10" d="M147.316,169.447
							h3.442c0.389,0,0.721,0.18,0.739,0.398l0.157,1.934c0.019,0.217-0.297,0.395-0.7,0.395h-3.571
							c-0.404,0-0.736-0.178-0.739-0.395l-0.029-1.934C146.612,169.627,146.926,169.447,147.316,169.447z M150.95,172.113
							c0.341,0,0.606-0.15,0.593-0.334l-0.154-1.934c-0.016-0.187-0.297-0.337-0.625-0.337h-3.445c-0.33,0-0.596,0.15-0.593,0.337
							l0.032,1.934c0.003,0.184,0.284,0.334,0.625,0.334H150.95z"/>
					</g>
					<g>
						<path fill="#FFFFFF" d="M151.988,169.846c-0.018-0.203,0.26-0.367,0.619-0.367h3.443c0.361,0,0.678,0.164,0.709,0.367
							l0.299,1.934c0.029,0.201-0.246,0.365-0.621,0.365h-3.568c-0.374,0-0.691-0.164-0.709-0.365L151.988,169.846z"/>
						<path display="none" fill="#FFFFFF" stroke="#58595B" stroke-width="0.3552" stroke-miterlimit="10" d="M152.605,169.447h3.44
							c0.39,0,0.733,0.18,0.769,0.398l0.299,1.934c0.033,0.217-0.268,0.395-0.672,0.395h-3.569c-0.405,0-0.75-0.178-0.769-0.395
							l-0.17-1.934C151.914,169.627,152.216,169.447,152.605,169.447z M156.434,172.113c0.342,0,0.598-0.15,0.568-0.334
							l-0.296-1.934c-0.028-0.187-0.32-0.337-0.649-0.337h-3.445c-0.329,0-0.584,0.15-0.567,0.337l0.173,1.934
							c0.018,0.184,0.309,0.334,0.65,0.334H156.434z"/>
					</g>
					<g>
						<path fill="#FFFFFF" d="M173.301,169.846c-0.076-0.203,0.151-0.367,0.514-0.367h3.441c0.36,0,0.727,0.164,0.816,0.367
							l0.861,1.934c0.09,0.201-0.14,0.365-0.514,0.365h-3.568c-0.375,0-0.738-0.164-0.815-0.365L173.301,169.846z"/>
						<path display="none" fill="#FFFFFF" stroke="#58595B" stroke-width="0.3552" stroke-miterlimit="10" d="M173.801,169.447
							h3.441c0.39,0,0.787,0.18,0.885,0.398l0.863,1.934c0.098,0.217-0.152,0.395-0.557,0.395h-3.57
							c-0.405,0-0.803-0.178-0.885-0.395l-0.733-1.934C173.162,169.627,173.41,169.447,173.801,169.447z M178.407,172.113
							c0.341,0,0.553-0.15,0.472-0.334l-0.861-1.934c-0.082-0.187-0.418-0.337-0.748-0.337h-3.443c-0.331,0-0.542,0.15-0.471,0.337
							l0.736,1.934c0.07,0.184,0.405,0.334,0.748,0.334H178.407z"/>
					</g>
					<g>
						<path fill="#FFFFFF" d="M162.626,169.846c-0.048-0.203,0.204-0.367,0.565-0.367h3.443c0.36,0,0.7,0.164,0.762,0.367
							l0.58,1.934c0.061,0.201-0.192,0.365-0.565,0.365h-3.57c-0.375,0-0.715-0.164-0.762-0.365L162.626,169.846z"/>
						<path display="none" fill="#FFFFFF" stroke="#58595B" stroke-width="0.3552" stroke-miterlimit="10" d="M163.186,169.447
							h3.441c0.389,0,0.762,0.18,0.826,0.398l0.581,1.934c0.065,0.217-0.211,0.395-0.614,0.395h-3.57
							c-0.406,0-0.775-0.178-0.826-0.395l-0.453-1.934C162.52,169.627,162.794,169.447,163.186,169.447z M167.402,172.113
							c0.341,0,0.574-0.15,0.519-0.334l-0.578-1.934c-0.055-0.187-0.368-0.337-0.696-0.337H163.2c-0.331,0-0.563,0.15-0.521,0.337
							l0.454,1.934c0.044,0.184,0.356,0.334,0.699,0.334H167.402z"/>
					</g>
					<g>
						<path fill="#FFFFFF" d="M167.945,169.846c-0.063-0.203,0.179-0.367,0.539-0.367h3.442c0.36,0,0.714,0.164,0.79,0.367
							l0.721,1.934c0.074,0.201-0.168,0.365-0.541,0.365h-3.568c-0.374,0-0.729-0.164-0.789-0.365L167.945,169.846z"/>
						<path display="none" fill="#FFFFFF" stroke="#58595B" stroke-width="0.3552" stroke-miterlimit="10" d="M168.475,169.447
							h3.441c0.391,0,0.773,0.18,0.855,0.398l0.722,1.934c0.081,0.217-0.183,0.395-0.586,0.395h-3.57
							c-0.405,0-0.787-0.178-0.854-0.395l-0.592-1.934C167.823,169.627,168.084,169.447,168.475,169.447z M172.887,172.113
							c0.34,0,0.563-0.15,0.494-0.334l-0.719-1.934c-0.069-0.187-0.395-0.337-0.723-0.337h-3.445c-0.33,0-0.553,0.15-0.494,0.337
							l0.596,1.934c0.057,0.184,0.379,0.334,0.723,0.334H172.887z"/>
					</g>
					<g>
						<path fill="#FFFFFF" d="M136.033,169.846c0.026-0.203,0.34-0.367,0.7-0.367h3.443c0.36,0,0.642,0.164,0.629,0.367
							l-0.125,1.934c-0.013,0.201-0.327,0.365-0.7,0.365h-3.57c-0.374,0-0.655-0.164-0.629-0.365L136.033,169.846z"/>
						<path display="none" fill="#FFFFFF" stroke="#58595B" stroke-width="0.3552" stroke-miterlimit="10" d="M136.737,169.447
							h3.442c0.39,0,0.695,0.18,0.681,0.398l-0.124,1.934c-0.014,0.217-0.354,0.395-0.758,0.395h-3.571
							c-0.404,0-0.71-0.178-0.682-0.395l0.253-1.934C136.007,169.627,136.347,169.447,136.737,169.447z M139.982,172.113
							c0.342,0,0.629-0.15,0.641-0.334l0.126-1.934c0.012-0.187-0.246-0.337-0.576-0.337h-3.445c-0.33,0-0.618,0.15-0.643,0.337
							l-0.25,1.934c-0.023,0.184,0.235,0.334,0.577,0.334H139.982z"/>
					</g>
					<g>
						<path fill="#FFFFFF" d="M141.352,169.846c0.012-0.203,0.313-0.367,0.673-0.367h3.444c0.361,0,0.654,0.164,0.655,0.367
							l0.016,1.934c0.001,0.201-0.299,0.365-0.673,0.365h-3.57c-0.373,0-0.667-0.164-0.655-0.365L141.352,169.846z"/>
						<path display="none" fill="#FFFFFF" stroke="#58595B" stroke-width="0.3552" stroke-miterlimit="10" d="M142.026,169.447
							h3.442c0.39,0,0.708,0.18,0.71,0.398l0.017,1.934c0.002,0.217-0.325,0.395-0.729,0.395h-3.572
							c-0.404,0-0.722-0.178-0.709-0.395l0.112-1.934C141.31,169.627,141.637,169.447,142.026,169.447z M145.466,172.113
							c0.342,0,0.619-0.15,0.617-0.334l-0.014-1.934c-0.001-0.187-0.271-0.337-0.601-0.337h-3.445c-0.33,0-0.607,0.15-0.617,0.337
							l-0.109,1.934c-0.01,0.184,0.26,0.334,0.601,0.334H145.466z"/>
					</g>
					<g>
						<path fill="#FFFFFF" d="M128.731,166.945c0.048-0.201,0.368-0.365,0.714-0.365h3.306c0.346,0,0.597,0.164,0.563,0.365
							l-0.337,1.934c-0.035,0.201-0.355,0.367-0.714,0.367h-3.433c-0.358,0-0.61-0.166-0.562-0.367L128.731,166.945z"/>
						<path display="none" fill="#FFFFFF" stroke="#58595B" stroke-width="0.3552" stroke-miterlimit="10" d="M129.453,166.549
							h3.305c0.374,0,0.647,0.178,0.609,0.396l-0.335,1.934c-0.038,0.219-0.385,0.396-0.773,0.396h-3.434
							c-0.389,0-0.662-0.178-0.609-0.396l0.465-1.934C128.732,166.727,129.079,166.549,129.453,166.549z M132.269,169.213
							c0.329,0,0.622-0.148,0.655-0.334l0.338-1.934c0.032-0.187-0.199-0.336-0.516-0.336h-3.308c-0.316,0-0.61,0.149-0.654,0.336
							l-0.462,1.934c-0.044,0.186,0.188,0.334,0.516,0.334H132.269z"/>
					</g>
					<g>
						<path fill="#FFFFFF" d="M123.589,166.945c0.063-0.201,0.395-0.365,0.741-0.365h3.306c0.346,0,0.586,0.164,0.536,0.365
							l-0.479,1.934c-0.05,0.201-0.383,0.367-0.742,0.367h-3.433c-0.359,0-0.598-0.166-0.535-0.367L123.589,166.945z"/>
						<path display="none" fill="#FFFFFF" stroke="#58595B" stroke-width="0.3552" stroke-miterlimit="10" d="M124.339,166.549
							h3.304c0.375,0,0.635,0.178,0.581,0.396l-0.478,1.934c-0.054,0.219-0.414,0.396-0.803,0.396h-3.434
							c-0.388,0-0.649-0.178-0.58-0.396l0.606-1.934C123.605,166.727,123.966,166.549,124.339,166.549z M126.96,169.213
							c0.329,0,0.633-0.148,0.679-0.334l0.48-1.934c0.046-0.187-0.174-0.336-0.491-0.336h-3.308c-0.317,0-0.621,0.149-0.679,0.336
							l-0.604,1.934c-0.058,0.186,0.163,0.334,0.492,0.334H126.96z"/>
					</g>
					<g>
						<path fill="#FFFFFF" d="M154.337,166.945c-0.024-0.201,0.235-0.365,0.582-0.365h3.306c0.346,0,0.657,0.164,0.696,0.365
							l0.369,1.934c0.039,0.201-0.222,0.367-0.581,0.367h-3.432c-0.359,0-0.672-0.166-0.697-0.367L154.337,166.945z"/>
						<path display="none" fill="#FFFFFF" stroke="#58595B" stroke-width="0.3552" stroke-miterlimit="10" d="M154.915,166.549
							h3.303c0.374,0,0.714,0.178,0.755,0.396l0.371,1.934c0.043,0.219-0.24,0.396-0.629,0.396h-3.433
							c-0.39,0-0.729-0.178-0.757-0.396l-0.241-1.934C154.257,166.727,154.54,166.549,154.915,166.549z M158.703,169.213
							c0.329,0,0.568-0.148,0.533-0.334l-0.368-1.934c-0.035-0.187-0.322-0.336-0.64-0.336h-3.307c-0.316,0-0.556,0.149-0.531,0.336
							l0.243,1.934c0.023,0.186,0.31,0.334,0.64,0.334H158.703z"/>
					</g>
					<g>
						<path fill="#FFFFFF" d="M144.088,166.945c0.004-0.201,0.288-0.365,0.634-0.365h3.306c0.346,0,0.634,0.164,0.643,0.365
							l0.086,1.934c0.009,0.201-0.275,0.367-0.634,0.367h-3.433c-0.359,0-0.647-0.166-0.643-0.367L144.088,166.945z"/>
						<path display="none" fill="#FFFFFF" stroke="#58595B" stroke-width="0.3552" stroke-miterlimit="10" d="M144.723,166.549
							h3.304c0.375,0,0.686,0.178,0.696,0.396l0.088,1.934c0.01,0.219-0.296,0.396-0.686,0.396h-3.434
							c-0.389,0-0.701-0.178-0.696-0.396l0.042-1.934C144.041,166.727,144.349,166.549,144.723,166.549z M148.123,169.213
							c0.329,0,0.589-0.148,0.581-0.334l-0.085-1.934c-0.008-0.187-0.272-0.336-0.589-0.336h-3.308
							c-0.316,0-0.577,0.149-0.581,0.336l-0.038,1.934c-0.003,0.186,0.261,0.334,0.589,0.334H148.123z"/>
					</g>
					<g>
						<path fill="#FFFFFF" d="M149.196,166.945c-0.011-0.201,0.261-0.365,0.608-0.365h3.305c0.347,0,0.646,0.164,0.67,0.365
							l0.228,1.934c0.022,0.201-0.248,0.367-0.608,0.367h-3.43c-0.36,0-0.66-0.166-0.67-0.367L149.196,166.945z"/>
						<path display="none" fill="#FFFFFF" stroke="#58595B" stroke-width="0.3552" stroke-miterlimit="10" d="M149.802,166.549
							h3.304c0.375,0,0.699,0.178,0.726,0.396l0.229,1.934c0.025,0.219-0.27,0.396-0.658,0.396h-3.432
							c-0.39,0-0.714-0.178-0.726-0.396l-0.1-1.934C149.132,166.727,149.427,166.549,149.802,166.549z M153.395,169.213
							c0.328,0,0.58-0.148,0.559-0.334l-0.227-1.934c-0.021-0.187-0.299-0.336-0.615-0.336h-3.305c-0.318,0-0.567,0.149-0.558,0.336
							l0.103,1.934c0.01,0.186,0.285,0.334,0.615,0.334H153.395z"/>
					</g>
					<g>
						<path fill="#FFFFFF" d="M169.659,166.945c-0.069-0.201,0.155-0.365,0.501-0.365h3.306c0.347,0,0.694,0.164,0.777,0.365
							l0.792,1.934c0.082,0.201-0.141,0.367-0.501,0.367h-3.433c-0.358,0-0.707-0.166-0.776-0.367L169.659,166.945z"/>
						<path display="none" fill="#FFFFFF" stroke="#58595B" stroke-width="0.3552" stroke-miterlimit="10" d="M170.148,166.549
							h3.305c0.374,0,0.751,0.178,0.841,0.396l0.794,1.934c0.09,0.219-0.152,0.396-0.542,0.396h-3.433
							c-0.391,0-0.766-0.178-0.842-0.396l-0.664-1.934C169.532,166.727,169.773,166.549,170.148,166.549z M174.521,169.213
							c0.328,0,0.535-0.148,0.459-0.334l-0.791-1.934c-0.076-0.187-0.396-0.336-0.713-0.336h-3.307
							c-0.316,0-0.521,0.149-0.459,0.336l0.668,1.934c0.063,0.186,0.382,0.334,0.711,0.334H174.521z"/>
					</g>
					<g>
						<path fill="#FFFFFF" d="M179.466,163.729c-0.116-0.229,0.058-0.414,0.388-0.414h3.15c0.33,0,0.703,0.187,0.834,0.414
							l1.256,2.191c0.131,0.229-0.041,0.416-0.386,0.416h-3.295c-0.345,0-0.72-0.188-0.835-0.416L179.466,163.729z"/>
						<path display="none" fill="#FFFFFF" stroke="#58595B" stroke-width="0.3552" stroke-miterlimit="10" d="M179.836,163.283h3.15
							c0.354,0,0.761,0.201,0.9,0.445l1.258,2.19c0.142,0.246-0.049,0.445-0.42,0.445h-3.297c-0.373,0-0.777-0.199-0.902-0.445
							l-1.11-2.19C179.291,163.484,179.479,163.283,179.836,163.283z M184.689,166.305c0.314,0,0.474-0.172,0.352-0.385
							l-1.254-2.191c-0.12-0.211-0.467-0.385-0.768-0.385h-3.152c-0.301,0-0.459,0.174-0.352,0.385l1.113,2.191
							c0.107,0.213,0.453,0.385,0.768,0.385H184.689z"/>
					</g>
					<g>
						<path fill="#FFFFFF" d="M174.594,163.729c-0.1-0.229,0.088-0.414,0.416-0.414h3.151c0.329,0,0.688,0.187,0.804,0.414
							l1.096,2.191c0.115,0.229-0.07,0.416-0.416,0.416h-3.293c-0.346,0-0.705-0.188-0.806-0.416L174.594,163.729z"/>
						<path display="none" fill="#FFFFFF" stroke="#58595B" stroke-width="0.3552" stroke-miterlimit="10" d="M174.996,163.283
							h3.148c0.356,0,0.748,0.201,0.869,0.445l1.098,2.19c0.125,0.246-0.079,0.445-0.452,0.445h-3.296
							c-0.372,0-0.764-0.199-0.87-0.445l-0.95-2.19C174.438,163.484,174.641,163.283,174.996,163.283z M179.63,166.305
							c0.313,0,0.486-0.172,0.38-0.385l-1.094-2.191c-0.105-0.211-0.439-0.385-0.74-0.385h-3.152c-0.301,0-0.473,0.174-0.381,0.385
							l0.955,2.191c0.092,0.213,0.424,0.385,0.738,0.385H179.63z"/>
					</g>
					<g>
						<path fill="#FFFFFF" d="M169.719,163.729c-0.082-0.229,0.119-0.414,0.448-0.414h3.151c0.33,0,0.676,0.187,0.772,0.414
							l0.937,2.191c0.099,0.229-0.101,0.416-0.445,0.416h-3.294c-0.345,0-0.692-0.188-0.776-0.416L169.719,163.729z"/>
						<path display="none" fill="#FFFFFF" stroke="#58595B" stroke-width="0.3552" stroke-miterlimit="10" d="M170.154,163.283h3.15
							c0.356,0,0.731,0.201,0.836,0.445l0.938,2.19c0.104,0.246-0.112,0.445-0.486,0.445h-3.295c-0.373,0-0.749-0.199-0.838-0.445
							l-0.792-2.19C169.581,163.484,169.799,163.283,170.154,163.283z M174.568,166.305c0.315,0,0.498-0.172,0.408-0.385
							l-0.936-2.191c-0.09-0.211-0.409-0.385-0.712-0.385h-3.152c-0.302,0-0.483,0.174-0.407,0.385l0.795,2.191
							c0.076,0.213,0.396,0.385,0.711,0.385H174.568z"/>
					</g>
					<g>
						<path fill="#FFFFFF" d="M128.201,163.729c0.06-0.229,0.375-0.414,0.704-0.414h3.151c0.33,0,0.562,0.187,0.517,0.414
							l-0.424,2.191c-0.044,0.229-0.36,0.416-0.705,0.416h-3.294c-0.345,0-0.575-0.188-0.516-0.416L128.201,163.729z"/>
						<path display="none" fill="#FFFFFF" stroke="#58595B" stroke-width="0.3552" stroke-miterlimit="10" d="M128.913,163.283
							h3.149c0.357,0,0.607,0.201,0.561,0.445l-0.423,2.19c-0.048,0.246-0.389,0.445-0.763,0.445h-3.295
							c-0.373,0-0.625-0.199-0.561-0.445l0.569-2.19C128.214,163.484,128.556,163.283,128.913,163.283z M131.45,166.305
							c0.315,0,0.605-0.172,0.647-0.385l0.426-2.191c0.041-0.211-0.171-0.385-0.473-0.385h-3.152c-0.302,0-0.592,0.174-0.646,0.385
							l-0.566,2.191c-0.055,0.213,0.157,0.385,0.472,0.385H131.45z"/>
					</g>
					<g>
						<path fill="#FFFFFF" d="M159.41,166.945c-0.04-0.201,0.208-0.365,0.554-0.365h3.306c0.348,0,0.67,0.164,0.724,0.365
							l0.51,1.934c0.054,0.201-0.194,0.367-0.554,0.367h-3.434c-0.357,0-0.683-0.166-0.723-0.367L159.41,166.945z"/>
						<path display="none" fill="#FFFFFF" stroke="#58595B" stroke-width="0.3552" stroke-miterlimit="10" d="M159.957,166.549
							h3.305c0.374,0,0.727,0.178,0.783,0.396l0.512,1.934c0.057,0.219-0.211,0.396-0.601,0.396h-3.435
							c-0.39,0-0.738-0.178-0.781-0.396l-0.383-1.934C159.314,166.727,159.583,166.549,159.957,166.549z M163.939,169.213
							c0.33,0,0.557-0.148,0.508-0.334l-0.508-1.934c-0.049-0.187-0.346-0.336-0.662-0.336h-3.309c-0.316,0-0.544,0.149-0.507,0.336
							l0.386,1.934c0.036,0.186,0.332,0.334,0.66,0.334H163.939z"/>
					</g>
					<g>
						<path fill="#FFFFFF" d="M164.518,166.945c-0.055-0.201,0.183-0.365,0.527-0.365h3.307c0.346,0,0.682,0.164,0.75,0.365
							l0.649,1.934c0.067,0.201-0.169,0.367-0.526,0.367h-3.434c-0.359,0-0.695-0.166-0.75-0.367L164.518,166.945z"/>
						<path display="none" fill="#FFFFFF" stroke="#58595B" stroke-width="0.3552" stroke-miterlimit="10" d="M165.036,166.549
							h3.305c0.374,0,0.739,0.178,0.813,0.396l0.652,1.934c0.072,0.219-0.185,0.396-0.572,0.396H165.8
							c-0.39,0-0.753-0.178-0.813-0.396l-0.521-1.934C164.406,166.727,164.662,166.549,165.036,166.549z M169.213,169.213
							c0.328,0,0.546-0.148,0.484-0.334l-0.649-1.934c-0.063-0.187-0.371-0.336-0.688-0.336h-3.308
							c-0.317,0-0.532,0.149-0.483,0.336l0.527,1.934c0.049,0.186,0.355,0.334,0.687,0.334H169.213z"/>
					</g>
					<g>
						<path fill="#FFFFFF" d="M133.874,166.945c0.033-0.201,0.341-0.365,0.688-0.365h3.306c0.345,0,0.61,0.164,0.589,0.365
							l-0.195,1.934c-0.021,0.201-0.329,0.367-0.688,0.367h-3.432c-0.359,0-0.623-0.166-0.59-0.367L133.874,166.945z"/>
						<path display="none" fill="#FFFFFF" stroke="#58595B" stroke-width="0.3552" stroke-miterlimit="10" d="M134.566,166.549
							h3.304c0.374,0,0.661,0.178,0.639,0.396l-0.194,1.934c-0.022,0.219-0.356,0.396-0.744,0.396h-3.434
							c-0.389,0-0.676-0.178-0.64-0.396l0.323-1.934C133.858,166.727,134.192,166.549,134.566,166.549z M137.578,169.213
							c0.328,0,0.61-0.148,0.629-0.334l0.196-1.934c0.019-0.187-0.223-0.336-0.54-0.336h-3.308c-0.317,0-0.6,0.149-0.63,0.336
							l-0.32,1.934c-0.031,0.186,0.212,0.334,0.541,0.334H137.578z"/>
					</g>
					<g>
						<path fill="#FFFFFF" d="M138.981,166.945c0.019-0.201,0.314-0.365,0.66-0.365h3.307c0.345,0,0.621,0.164,0.615,0.365
							l-0.054,1.934c-0.005,0.201-0.301,0.367-0.66,0.367h-3.433c-0.359,0-0.634-0.166-0.616-0.367L138.981,166.945z"/>
						<path display="none" fill="#FFFFFF" stroke="#58595B" stroke-width="0.3552" stroke-miterlimit="10" d="M139.644,166.549
							h3.305c0.374,0,0.673,0.178,0.667,0.396l-0.053,1.934c-0.006,0.219-0.327,0.396-0.715,0.396h-3.435
							c-0.389,0-0.688-0.178-0.667-0.396l0.182-1.934C138.949,166.727,139.27,166.549,139.644,166.549z M142.851,169.213
							c0.327,0,0.6-0.148,0.605-0.334l0.056-1.934c0.005-0.187-0.249-0.336-0.564-0.336h-3.308c-0.317,0-0.588,0.149-0.605,0.336
							l-0.179,1.934c-0.017,0.186,0.236,0.334,0.565,0.334H142.851z"/>
					</g>
					<g>
						<path fill="#FFFFFF" d="M187.002,178.574c-0.104-0.203,0.141-0.367,0.544-0.367h3.858c0.402,0,0.824,0.164,0.941,0.367
							l0.471,0.822c0.115,0.203-0.123,0.367-0.534,0.367h-3.933c-0.412,0-0.828-0.164-0.932-0.367L187.002,178.574z"/>
						<path display="none" fill="#FFFFFF" stroke="#58595B" stroke-width="0.3552" stroke-miterlimit="10" d="M187.531,178.178
							h3.855c0.437,0,0.891,0.176,1.018,0.396l0.473,0.822c0.126,0.219-0.133,0.397-0.577,0.397h-3.934
							c-0.445,0-0.898-0.181-1.011-0.397l-0.416-0.822C186.828,178.354,187.096,178.178,187.531,178.178z M192.266,179.732
							c0.375,0,0.596-0.15,0.488-0.336l-0.471-0.822c-0.106-0.186-0.494-0.338-0.862-0.338h-3.858c-0.369,0-0.594,0.152-0.5,0.338
							l0.42,0.822c0.094,0.186,0.478,0.336,0.853,0.336H192.266z"/>
					</g>
					<g>
						<path fill="#FFFFFF" d="M180.742,178.574c-0.088-0.203,0.168-0.367,0.57-0.367h3.858c0.403,0,0.812,0.164,0.912,0.367
							l0.408,0.822c0.101,0.203-0.15,0.367-0.563,0.367h-3.931c-0.412,0-0.815-0.164-0.901-0.367L180.742,178.574z"/>
						<path display="none" fill="#FFFFFF" stroke="#58595B" stroke-width="0.3552" stroke-miterlimit="10" d="M181.301,178.178
							h3.856c0.437,0,0.879,0.176,0.987,0.396l0.41,0.822c0.107,0.219-0.164,0.397-0.609,0.397h-3.934
							c-0.445,0-0.885-0.181-0.979-0.397l-0.354-0.822C180.585,178.354,180.863,178.178,181.301,178.178z M185.915,179.732
							c0.376,0,0.606-0.15,0.515-0.336l-0.406-0.822c-0.092-0.186-0.467-0.338-0.838-0.338h-3.858c-0.369,0-0.604,0.152-0.522,0.338
							l0.354,0.822c0.079,0.186,0.45,0.336,0.827,0.336H185.915z"/>
					</g>
					<g>
						<path fill="#FFFFFF" d="M174.622,178.574c-0.072-0.203,0.198-0.367,0.601-0.367h3.859c0.4,0,0.798,0.164,0.884,0.367
							l0.347,0.822c0.086,0.203-0.179,0.367-0.588,0.367h-3.935c-0.409,0-0.804-0.164-0.875-0.367L174.622,178.574z"/>
						<path display="none" fill="#FFFFFF" stroke="#58595B" stroke-width="0.3552" stroke-miterlimit="10" d="M175.212,178.178
							h3.856c0.437,0,0.865,0.176,0.959,0.396l0.348,0.822c0.092,0.219-0.193,0.397-0.639,0.397h-3.936
							c-0.443,0-0.869-0.181-0.947-0.397l-0.293-0.822C174.482,178.354,174.775,178.178,175.212,178.178z M179.711,179.732
							c0.376,0,0.617-0.15,0.539-0.336l-0.346-0.822c-0.078-0.186-0.441-0.338-0.812-0.338h-3.86c-0.369,0-0.614,0.152-0.549,0.338
							l0.293,0.822c0.066,0.186,0.426,0.336,0.803,0.336H179.711z"/>
					</g>
					<g>
						<path fill="#FFFFFF" d="M168.361,178.574c-0.057-0.203,0.226-0.367,0.629-0.367h3.857c0.403,0,0.787,0.164,0.857,0.367
							l0.283,0.822c0.07,0.203-0.207,0.367-0.618,0.367h-3.933c-0.41,0-0.791-0.164-0.848-0.367L168.361,178.574z"/>
						<path display="none" fill="#FFFFFF" stroke="#58595B" stroke-width="0.3552" stroke-miterlimit="10" d="M168.982,178.178
							h3.854c0.438,0,0.854,0.176,0.931,0.396l0.283,0.822c0.076,0.219-0.225,0.397-0.67,0.397h-3.934
							c-0.446,0-0.855-0.181-0.918-0.397l-0.229-0.822C168.24,178.354,168.545,178.178,168.982,178.178z M173.359,179.732
							c0.377,0,0.632-0.15,0.567-0.336l-0.282-0.822c-0.063-0.186-0.418-0.338-0.787-0.338h-3.858c-0.37,0-0.628,0.152-0.575,0.338
							l0.23,0.822c0.052,0.186,0.398,0.336,0.775,0.336H173.359z"/>
					</g>
					<g>
						<path fill="#FFFFFF" d="M162.295,178.574c-0.042-0.203,0.252-0.367,0.655-0.367h3.858c0.402,0,0.773,0.164,0.83,0.367
							l0.223,0.822c0.055,0.203-0.234,0.367-0.646,0.367h-3.932c-0.411,0-0.778-0.164-0.82-0.367L162.295,178.574z"/>
						<path display="none" fill="#FFFFFF" stroke="#58595B" stroke-width="0.3552" stroke-miterlimit="10" d="M162.943,178.178
							h3.856c0.437,0,0.839,0.176,0.897,0.396l0.224,0.822c0.06,0.219-0.254,0.397-0.698,0.397h-3.933
							c-0.444,0-0.845-0.181-0.89-0.397l-0.168-0.822C162.188,178.354,162.509,178.178,162.943,178.178z M167.207,179.732
							c0.377,0,0.643-0.15,0.592-0.336l-0.222-0.822c-0.05-0.186-0.392-0.338-0.763-0.338h-3.857c-0.369,0-0.639,0.152-0.6,0.338
							l0.168,0.822c0.039,0.186,0.375,0.336,0.752,0.336H167.207z"/>
					</g>
					<g>
						<path fill="#FFFFFF" d="M156.034,178.574c-0.026-0.203,0.28-0.367,0.683-0.367h3.859c0.402,0,0.762,0.164,0.802,0.367
							l0.159,0.822c0.039,0.203-0.262,0.367-0.674,0.367h-3.932c-0.412,0-0.767-0.164-0.793-0.367L156.034,178.574z"/>
						<path display="none" fill="#FFFFFF" stroke="#58595B" stroke-width="0.3552" stroke-miterlimit="10" d="M156.713,178.178
							h3.857c0.437,0,0.824,0.176,0.867,0.396l0.16,0.822c0.043,0.219-0.283,0.397-0.729,0.397h-3.936
							c-0.443,0-0.828-0.181-0.856-0.397l-0.104-0.822C155.945,178.354,156.277,178.178,156.713,178.178z M160.857,179.732
							c0.377,0,0.654-0.15,0.617-0.336l-0.158-0.822c-0.037-0.186-0.365-0.338-0.734-0.338h-3.861c-0.367,0-0.648,0.152-0.625,0.338
							l0.106,0.822c0.022,0.186,0.351,0.336,0.726,0.336H160.857z"/>
					</g>
					<g>
						<path fill="#FFFFFF" d="M149.866,178.574c-0.011-0.203,0.308-0.367,0.71-0.367h3.857c0.404,0,0.75,0.164,0.774,0.367
							l0.097,0.822c0.024,0.203-0.289,0.367-0.701,0.367h-3.932c-0.41,0-0.752-0.164-0.764-0.367L149.866,178.574z"/>
						<path display="none" fill="#FFFFFF" stroke="#58595B" stroke-width="0.3552" stroke-miterlimit="10" d="M150.574,178.178
							h3.855c0.438,0,0.813,0.176,0.84,0.396l0.099,0.822c0.024,0.219-0.315,0.397-0.761,0.397h-3.934
							c-0.444,0-0.815-0.181-0.827-0.397l-0.043-0.822C149.793,178.354,150.139,178.178,150.574,178.178z M154.602,179.732
							c0.377,0,0.666-0.15,0.644-0.336l-0.097-0.822c-0.021-0.186-0.34-0.338-0.711-0.338h-3.858c-0.369,0-0.662,0.152-0.652,0.338
							l0.044,0.822c0.01,0.186,0.326,0.336,0.701,0.336H154.602z"/>
					</g>
					<g>
						<path fill="#FFFFFF" d="M143.605,178.574c0.005-0.203,0.336-0.367,0.739-0.367h3.858c0.404,0,0.737,0.164,0.746,0.367
							l0.035,0.822c0.008,0.203-0.318,0.367-0.729,0.367h-3.932c-0.411,0-0.741-0.164-0.736-0.367L143.605,178.574z"/>
						<path display="none" fill="#FFFFFF" stroke="#58595B" stroke-width="0.3552" stroke-miterlimit="10" d="M144.345,178.178
							h3.856c0.436,0,0.798,0.176,0.808,0.396l0.035,0.822c0.009,0.219-0.345,0.397-0.79,0.397h-3.933
							c-0.445,0-0.803-0.181-0.797-0.397l0.02-0.822C143.55,178.354,143.909,178.178,144.345,178.178z M148.253,179.732
							c0.375,0,0.676-0.15,0.668-0.336l-0.034-0.822c-0.008-0.186-0.315-0.338-0.684-0.338h-3.859c-0.369,0-0.674,0.152-0.678,0.338
							l-0.019,0.822c-0.004,0.186,0.299,0.336,0.675,0.336H148.253z"/>
					</g>
					<g>
						<path fill="#FFFFFF" d="M137.487,178.574c0.02-0.203,0.363-0.367,0.768-0.367h3.857c0.404,0,0.726,0.164,0.719,0.367
							l-0.027,0.822c-0.007,0.203-0.346,0.367-0.758,0.367h-3.931c-0.412,0-0.729-0.164-0.709-0.367L137.487,178.574z"/>
						<path display="none" fill="#FFFFFF" stroke="#58595B" stroke-width="0.3552" stroke-miterlimit="10" d="M138.257,178.178
							h3.856c0.437,0,0.786,0.176,0.778,0.396l-0.026,0.822c-0.007,0.219-0.375,0.397-0.82,0.397h-3.933
							c-0.445,0-0.79-0.181-0.768-0.397l0.082-0.822C137.448,178.354,137.821,178.178,138.257,178.178z M142.047,179.732
							c0.376,0,0.688-0.15,0.694-0.336l0.028-0.822c0.006-0.186-0.29-0.338-0.659-0.338h-3.859c-0.37,0-0.686,0.152-0.704,0.338
							l-0.08,0.822c-0.018,0.186,0.273,0.336,0.65,0.336H142.047z"/>
					</g>
					<g>
						<path fill="#FFFFFF" d="M131.227,178.574c0.036-0.203,0.391-0.367,0.794-0.367h3.857c0.404,0,0.713,0.164,0.69,0.367
							l-0.09,0.822c-0.022,0.203-0.374,0.367-0.785,0.367h-3.931c-0.412,0-0.716-0.164-0.68-0.367L131.227,178.574z"/>
						<path display="none" fill="#FFFFFF" stroke="#58595B" stroke-width="0.3552" stroke-miterlimit="10" d="M132.026,178.178
							h3.856c0.437,0,0.773,0.176,0.749,0.396l-0.089,0.822c-0.024,0.219-0.406,0.397-0.851,0.397h-3.933
							c-0.445,0-0.775-0.181-0.737-0.397l0.145-0.822C131.204,178.354,131.59,178.178,132.026,178.178z M135.698,179.732
							c0.376,0,0.699-0.15,0.72-0.336l0.091-0.822c0.021-0.186-0.264-0.338-0.633-0.338h-3.859c-0.37,0-0.697,0.152-0.729,0.338
							l-0.143,0.822c-0.033,0.186,0.248,0.336,0.625,0.336H135.698z"/>
					</g>
					<g>
						<path fill="#FFFFFF" d="M125.159,178.574c0.051-0.203,0.419-0.367,0.823-0.367h3.857c0.404,0,0.701,0.164,0.663,0.367
							l-0.151,0.822c-0.038,0.203-0.401,0.367-0.813,0.367h-3.931c-0.411,0-0.704-0.164-0.653-0.367L125.159,178.574z"/>
						<path display="none" fill="#FFFFFF" stroke="#58595B" stroke-width="0.3552" stroke-miterlimit="10" d="M125.989,178.178
							h3.856c0.437,0,0.759,0.176,0.719,0.396l-0.151,0.822c-0.04,0.219-0.435,0.397-0.88,0.397H125.6
							c-0.445,0-0.762-0.181-0.708-0.397l0.206-0.822C125.153,178.354,125.553,178.178,125.989,178.178z M129.545,179.732
							c0.376,0,0.71-0.15,0.744-0.336l0.152-0.822c0.035-0.186-0.238-0.338-0.608-0.338h-3.858c-0.37,0-0.707,0.152-0.753,0.338
							l-0.204,0.822c-0.046,0.186,0.222,0.336,0.598,0.336H129.545z"/>
					</g>
					<g>
						<path fill="#FFFFFF" d="M118.898,178.574c0.066-0.203,0.447-0.367,0.851-0.367h3.857c0.403,0,0.688,0.164,0.635,0.367
							l-0.214,0.822c-0.053,0.203-0.429,0.367-0.84,0.367h-3.931c-0.411,0-0.691-0.164-0.625-0.367L118.898,178.574z"/>
						<path display="none" fill="#FFFFFF" stroke="#58595B" stroke-width="0.3552" stroke-miterlimit="10" d="M119.758,178.178
							h3.856c0.437,0,0.746,0.176,0.688,0.396l-0.214,0.822c-0.057,0.219-0.465,0.397-0.911,0.397h-3.932
							c-0.445,0-0.749-0.181-0.677-0.397l0.269-0.822C118.91,178.354,119.323,178.178,119.758,178.178z M123.195,179.732
							c0.377,0,0.722-0.15,0.771-0.336l0.215-0.822c0.049-0.186-0.212-0.338-0.582-0.338h-3.859c-0.369,0-0.72,0.152-0.78,0.338
							l-0.267,0.822c-0.061,0.186,0.198,0.336,0.573,0.336H123.195z"/>
					</g>
					<g>
						<path fill="#FFFFFF" d="M112.75,178.574c0.082-0.203,0.474-0.367,0.878-0.367h3.858c0.403,0,0.676,0.164,0.607,0.367
							l-0.276,0.822c-0.068,0.203-0.457,0.367-0.868,0.367h-3.932c-0.412,0-0.679-0.164-0.598-0.367L112.75,178.574z"/>
						<path display="none" fill="#FFFFFF" stroke="#58595B" stroke-width="0.3552" stroke-miterlimit="10" d="M113.64,178.178h3.856
							c0.437,0,0.732,0.176,0.659,0.396l-0.275,0.822c-0.073,0.219-0.496,0.397-0.94,0.397h-3.933c-0.445,0-0.735-0.181-0.647-0.397
							l0.331-0.822C112.777,178.354,113.203,178.178,113.64,178.178z M116.96,179.732c0.376,0,0.733-0.15,0.795-0.336l0.277-0.822
							c0.063-0.186-0.188-0.338-0.557-0.338h-3.859c-0.37,0-0.731,0.152-0.806,0.338l-0.329,0.822
							c-0.075,0.186,0.172,0.336,0.548,0.336H116.96z"/>
					</g>
					<g>
						<path fill="#FFFFFF" d="M106.49,178.574c0.097-0.203,0.502-0.367,0.906-0.367h3.856c0.404,0,0.664,0.164,0.58,0.367
							l-0.339,0.822c-0.084,0.203-0.485,0.367-0.897,0.367h-3.931c-0.411,0-0.667-0.164-0.569-0.367L106.49,178.574z"/>
						<path display="none" fill="#FFFFFF" stroke="#58595B" stroke-width="0.3552" stroke-miterlimit="10" d="M107.41,178.178h3.855
							c0.437,0,0.719,0.176,0.628,0.396l-0.338,0.822c-0.09,0.219-0.526,0.397-0.972,0.397h-3.932c-0.445,0-0.721-0.181-0.616-0.397
							l0.394-0.822C106.534,178.354,106.973,178.178,107.41,178.178z M110.61,179.732c0.376,0,0.746-0.15,0.822-0.336l0.34-0.822
							c0.077-0.186-0.162-0.338-0.532-0.338h-3.858c-0.37,0-0.743,0.152-0.832,0.338l-0.392,0.822
							c-0.089,0.186,0.145,0.336,0.522,0.336H110.61z"/>
					</g>
					<g>
						<path fill="#FFFFFF" d="M181.35,172.775c-0.098-0.203,0.129-0.367,0.506-0.367h6.277c0.375,0,0.773,0.164,0.891,0.367
							l1.105,1.932c0.116,0.203-0.104,0.367-0.492,0.367h-6.5c-0.389,0-0.781-0.164-0.877-0.367L181.35,172.775z"/>
						<path display="none" fill="#FFFFFF" stroke="#58595B" stroke-width="0.3552" stroke-miterlimit="10" d="M181.841,172.379
							h6.275c0.405,0,0.837,0.178,0.962,0.396l1.107,1.932c0.127,0.219-0.113,0.396-0.533,0.396h-6.502
							c-0.42,0-0.846-0.179-0.949-0.396l-0.91-1.932C181.188,172.557,181.436,172.379,181.841,172.379z M189.619,175.043
							c0.354,0,0.558-0.15,0.451-0.336l-1.105-1.932c-0.105-0.187-0.472-0.336-0.814-0.336h-6.28c-0.343,0-0.552,0.149-0.464,0.336
							l0.912,1.932c0.089,0.186,0.449,0.336,0.805,0.336H189.619z"/>
					</g>
					<g>
						<path fill="#FFFFFF" d="M178.602,169.846c-0.093-0.203,0.125-0.367,0.485-0.367h7.394c0.36,0,0.748,0.164,0.863,0.367
							l1.107,1.934c0.115,0.201-0.094,0.365-0.467,0.365h-7.666c-0.373,0-0.75-0.164-0.842-0.365L178.602,169.846z"/>
						<path display="none" fill="#FFFFFF" stroke="#58595B" stroke-width="0.3552" stroke-miterlimit="10" d="M179.072,169.447
							h7.391c0.389,0,0.809,0.18,0.936,0.398l1.108,1.934c0.124,0.217-0.103,0.395-0.506,0.395h-7.669
							c-0.404,0-0.813-0.178-0.912-0.395l-0.875-1.934C178.445,169.627,178.684,169.447,179.072,169.447z M187.967,172.113
							c0.342,0,0.533-0.15,0.428-0.334l-1.105-1.934c-0.105-0.187-0.461-0.337-0.79-0.337h-7.397c-0.33,0-0.529,0.15-0.443,0.337
							l0.878,1.934c0.083,0.184,0.429,0.334,0.771,0.334H187.967z"/>
					</g>
					<g>
						<path fill="#FFFFFF" d="M174.662,166.945c-0.084-0.201,0.128-0.365,0.475-0.365h9.709c0.346,0,0.721,0.164,0.836,0.365
							l1.107,1.934c0.115,0.201-0.08,0.367-0.439,0.367h-10.08c-0.358,0-0.72-0.166-0.804-0.367L174.662,166.945z"/>
						<path display="none" fill="#FFFFFF" stroke="#58595B" stroke-width="0.3552" stroke-miterlimit="10" d="M175.123,166.549
							h9.705c0.373,0,0.779,0.178,0.904,0.396l1.109,1.934c0.125,0.219-0.089,0.396-0.477,0.396h-10.086
							c-0.387,0-0.777-0.178-0.868-0.396l-0.804-1.934C174.52,166.727,174.75,166.549,175.123,166.549z M186.331,169.213
							c0.328,0,0.51-0.148,0.403-0.334l-1.106-1.934c-0.104-0.187-0.448-0.336-0.767-0.336h-9.713c-0.315,0-0.513,0.149-0.436,0.336
							l0.807,1.934c0.076,0.186,0.406,0.334,0.734,0.334H186.331z"/>
					</g>
					<g>
						<path fill="#FFFFFF" d="M163.633,163.68c-0.055-0.201,0.168-0.365,0.497-0.365h4.347c0.33,0,0.653,0.164,0.726,0.365
							l0.812,2.289c0.072,0.203-0.147,0.367-0.492,0.367h-4.543c-0.346,0-0.67-0.164-0.725-0.367L163.633,163.68z"/>
						<path display="none" fill="#FFFFFF" stroke="#58595B" stroke-width="0.3552" stroke-miterlimit="10" d="M164.121,163.283
							h4.344c0.355,0,0.71,0.178,0.787,0.396l0.813,2.288c0.078,0.22-0.162,0.396-0.535,0.396h-4.545
							c-0.373,0-0.726-0.178-0.783-0.396l-0.619-2.288C163.523,163.461,163.766,163.283,164.121,163.283z M169.509,166.305
							c0.314,0,0.519-0.15,0.452-0.336l-0.811-2.289c-0.063-0.184-0.363-0.336-0.666-0.336h-4.346c-0.304,0-0.507,0.152-0.457,0.336
							l0.623,2.289c0.049,0.186,0.346,0.336,0.662,0.336H169.509z"/>
					</g>
					<g>
						<path fill="#FFFFFF" d="M133.232,163.68c0.037-0.201,0.335-0.365,0.665-0.365h4.345c0.33,0,0.581,0.164,0.561,0.365
							l-0.23,2.289c-0.02,0.203-0.316,0.367-0.661,0.367h-4.542c-0.345,0-0.595-0.164-0.557-0.367L133.232,163.68z"/>
						<path display="none" fill="#FFFFFF" stroke="#58595B" stroke-width="0.3552" stroke-miterlimit="10" d="M133.903,163.283
							h4.343c0.357,0,0.629,0.178,0.607,0.396l-0.229,2.288c-0.021,0.22-0.343,0.396-0.716,0.396h-4.544
							c-0.373,0-0.644-0.178-0.603-0.396l0.423-2.288C133.224,163.461,133.546,163.283,133.903,163.283z M137.915,166.305
							c0.315,0,0.587-0.15,0.606-0.336l0.232-2.289c0.019-0.184-0.212-0.336-0.514-0.336h-4.347c-0.302,0-0.576,0.152-0.609,0.336
							l-0.419,2.289c-0.034,0.186,0.194,0.336,0.51,0.336H137.915z"/>
					</g>
					<g>
						<path fill="#FFFFFF" d="M107.89,175.643c0.096-0.201,0.49-0.365,0.879-0.365h6.693c0.389,0,0.644,0.164,0.568,0.365
							l-0.724,1.935c-0.076,0.202-0.463,0.364-0.866,0.364h-6.92c-0.402,0-0.651-0.162-0.554-0.364L107.89,175.643z"/>
						<path display="none" fill="#FFFFFF" stroke="#58595B" stroke-width="0.3552" stroke-miterlimit="10" d="M108.783,175.248h6.69
							c0.421,0,0.696,0.178,0.615,0.395l-0.723,1.935c-0.082,0.219-0.501,0.396-0.937,0.396h-6.923c-0.436,0-0.705-0.178-0.6-0.396
							l0.925-1.935C107.935,175.426,108.362,175.248,108.783,175.248z M114.452,177.912c0.368,0,0.724-0.15,0.793-0.336l0.726-1.934
							c0.069-0.185-0.164-0.336-0.52-0.336h-6.696c-0.356,0-0.719,0.151-0.806,0.336l-0.922,1.934
							c-0.088,0.186,0.139,0.336,0.507,0.336H114.452z"/>
					</g>
					<g>
						<path fill="#FFFFFF" d="M110.66,169.846c0.097-0.203,0.467-0.367,0.828-0.367h7.466c0.36,0,0.594,0.164,0.521,0.367
							l-0.69,1.934c-0.072,0.201-0.433,0.365-0.807,0.365h-7.741c-0.374,0-0.598-0.164-0.501-0.365L110.66,169.846z"/>
						<path display="none" fill="#FFFFFF" stroke="#58595B" stroke-width="0.3552" stroke-miterlimit="10" d="M111.502,169.447
							h7.463c0.389,0,0.642,0.18,0.564,0.398l-0.689,1.934c-0.077,0.217-0.469,0.395-0.874,0.395h-7.744
							c-0.404,0-0.648-0.178-0.544-0.395l0.925-1.934C110.71,169.627,111.113,169.447,111.502,169.447z M117.99,172.113
							c0.341,0,0.673-0.15,0.739-0.334l0.691-1.934c0.066-0.187-0.148-0.337-0.478-0.337h-7.47c-0.331,0-0.67,0.15-0.759,0.337
							l-0.922,1.934c-0.087,0.184,0.118,0.334,0.46,0.334H117.99z"/>
					</g>
					<g>
						<path fill="#FFFFFF" d="M112.045,166.945c0.096-0.201,0.455-0.365,0.801-0.365h9.674c0.346,0,0.574,0.164,0.509,0.365
							l-0.621,1.934c-0.064,0.201-0.409,0.367-0.768,0.367h-10.044c-0.359,0-0.571-0.166-0.475-0.367L112.045,166.945z"/>
						<path display="none" fill="#FFFFFF" stroke="#58595B" stroke-width="0.3552" stroke-miterlimit="10" d="M112.861,166.549
							h9.669c0.374,0,0.622,0.178,0.551,0.396l-0.619,1.934c-0.07,0.219-0.443,0.396-0.832,0.396h-10.048
							c-0.389,0-0.62-0.178-0.515-0.396l0.925-1.934C112.098,166.727,112.487,166.549,112.861,166.549z M121.651,169.213
							c0.329,0,0.644-0.148,0.704-0.334l0.622-1.934c0.06-0.187-0.149-0.336-0.466-0.336h-9.678c-0.317,0-0.646,0.149-0.734,0.336
							l-0.922,1.934c-0.089,0.186,0.107,0.334,0.437,0.334H121.651z"/>
					</g>
					<g>
						<path fill="#FFFFFF" d="M123.344,163.68c0.067-0.201,0.389-0.365,0.719-0.365h3.151c0.33,0,0.553,0.164,0.5,0.365
							l-0.208,0.779c-0.054,0.201-0.37,0.365-0.708,0.365h-3.223c-0.337,0-0.556-0.164-0.489-0.365L123.344,163.68z"/>
						<path display="none" fill="#FFFFFF" stroke="#58595B" stroke-width="0.3552" stroke-miterlimit="10" d="M124.073,163.283h3.15
							c0.356,0,0.599,0.178,0.541,0.396l-0.208,0.778c-0.058,0.219-0.402,0.396-0.767,0.396h-3.224c-0.365,0-0.603-0.178-0.53-0.396
							l0.259-0.778C123.367,163.461,123.716,163.283,124.073,163.283z M126.806,164.795c0.308,0,0.6-0.152,0.649-0.336l0.208-0.779
							c0.049-0.184-0.156-0.336-0.458-0.336h-3.153c-0.302,0-0.598,0.152-0.659,0.336l-0.258,0.779
							c-0.061,0.184,0.14,0.336,0.448,0.336H126.806z"/>
					</g>
					<g>
						<path fill="#FFFFFF" d="M113.606,163.68c0.096-0.201,0.442-0.365,0.771-0.365h3.15c0.33,0,0.53,0.164,0.447,0.365
							l-0.321,0.779c-0.083,0.201-0.424,0.365-0.762,0.365h-3.222c-0.337,0-0.532-0.164-0.436-0.365L113.606,163.68z"/>
						<path display="none" fill="#FFFFFF" stroke="#58595B" stroke-width="0.3552" stroke-miterlimit="10" d="M114.392,163.283
							h3.149c0.357,0,0.574,0.178,0.484,0.396l-0.321,0.778c-0.09,0.219-0.46,0.396-0.826,0.396h-3.224
							c-0.365,0-0.577-0.178-0.472-0.396l0.373-0.778C113.661,163.461,114.035,163.283,114.392,163.283z M116.904,164.795
							c0.309,0,0.623-0.152,0.699-0.336l0.322-0.779c0.076-0.184-0.107-0.336-0.41-0.336h-3.152c-0.303,0-0.62,0.152-0.708,0.336
							l-0.372,0.779c-0.088,0.184,0.09,0.336,0.399,0.336H116.904z"/>
					</g>
					<g>
						<path fill="#FFFFFF" d="M118.475,163.68c0.082-0.201,0.416-0.365,0.745-0.365h3.151c0.33,0,0.541,0.164,0.473,0.365
							l-0.777,2.289c-0.069,0.203-0.404,0.367-0.749,0.367h-3.294c-0.345,0-0.558-0.164-0.476-0.367L118.475,163.68z"/>
						<path display="none" fill="#FFFFFF" stroke="#58595B" stroke-width="0.3552" stroke-miterlimit="10" d="M119.232,163.283
							h3.149c0.356,0,0.586,0.178,0.513,0.396l-0.775,2.288c-0.074,0.22-0.438,0.396-0.812,0.396h-3.295
							c-0.373,0-0.604-0.178-0.516-0.396l0.929-2.288C118.514,163.461,118.876,163.283,119.232,163.283z M121.329,166.305
							c0.315,0,0.623-0.15,0.686-0.336l0.779-2.289c0.063-0.184-0.131-0.336-0.433-0.336h-3.152c-0.302,0-0.609,0.152-0.684,0.336
							l-0.925,2.289c-0.075,0.186,0.121,0.336,0.436,0.336H121.329z"/>
					</g>
					<g>
						<path fill="#FFFFFF" d="M139.287,163.68c0.019-0.201,0.301-0.365,0.631-0.365h22.521c0.33,0,0.641,0.164,0.692,0.365
							l0.604,2.289c0.054,0.203-0.184,0.367-0.527,0.367h-23.546c-0.345,0-0.608-0.164-0.589-0.367L139.287,163.68z"/>
					</g>
				</g>
			</g>
			<path fill="#404041" d="M187.521,171.744c-0.027-0.049,0.022-0.088,0.111-0.088c0.09,0,0.186,0.039,0.213,0.088
				s-0.021,0.09-0.113,0.09C187.645,171.834,187.548,171.793,187.521,171.744z"/>
		</g>
	</g>
</g>
</svg>
