<?xml version="1.0" encoding="utf-8"?>
<!-- Generator: Adobe Illustrator 16.0.0, SVG Export Plug-In . SVG Version: 6.00 Build 0)  -->
<!DOCTYPE svg PUBLIC "-//W3C//DTD SVG 1.1//EN" "http://www.w3.org/Graphics/SVG/1.1/DTD/svg11.dtd">
<svg version="1.1" id="Layer_1" xmlns="http://www.w3.org/2000/svg" xmlns:xlink="http://www.w3.org/1999/xlink" x="0px" y="0px"
	 width="300px" height="240px" viewBox="0 0 300 240" enable-background="new 0 0 300 240" xml:space="preserve">
<rect x="-8.1" y="-18.275" fill="#D67C32" width="341.6" height="213.984"/>
<rect x="-0.729" y="5.317" fill="none" width="300.002" height="179.988"/>
<rect x="-0.729" y="5.317" fill="none" width="300.002" height="179.988"/>
<rect x="-0.729" y="5.317" fill="none" width="300.002" height="179.988"/>
<rect x="-0.729" y="5.317" fill="none" width="300.002" height="179.988"/>
<rect x="-0.729" y="5.317" fill="none" width="300.002" height="179.988"/>
<rect x="-0.729" y="5.317" fill="none" width="300.002" height="179.988"/>
<rect x="135.187" y="13.641" transform="matrix(-0.7557 -0.6549 0.6549 -0.7557 276.6184 176.417)" opacity="0.2" enable-background="new    " width="72.05" height="45.953"/>
<path opacity="0.2" enable-background="new    " d="M207.749,82.518l0.074-0.051l0.758-0.527l4.75,6.827
	c0.752,1.08,0.483,2.578-0.597,3.329l-0.735,0.512c-1.08,0.751-2.578,0.483-3.33-0.597l-4.312-6.195v-0.938l0.523-0.364
	l-0.523-0.751v-2.458l1.291-0.898l1.677,2.407L207.749,82.518L207.749,82.518z M204.357,78.33v-2.458l1.152,1.656l-0.758,0.527
	L204.357,78.33z M204.357,85.816l-0.438-0.632l0.438-0.306V85.816L204.357,85.816z M204.357,83.763l-1.151-1.656l1.151-0.802V83.763
	L204.357,83.763z M204.357,75.872v2.458l-2.752,1.915l-0.758,0.527l-1.43-2.054c-0.75-1.08-0.482-2.578,0.598-3.329l0.736-0.512
	c1.08-0.751,2.578-0.483,3.328,0.597L204.357,75.872z"/>
<path opacity="0.2" enable-background="new    " d="M213.245,152.081c-1.892,6.832-8.736,11.185-15.824,9.842
	c-7.471-1.412-12.381-8.614-10.967-16.086c1.414-7.471,8.614-12.382,16.086-10.968c6.83,1.293,11.519,7.423,11.192,14.173
	l1.72,0.326c0.582,0.108,0.967,0.676,0.856,1.258l-0.172,0.906c-0.109,0.582-0.676,0.969-1.258,0.858L213.245,152.081z"/>
<rect x="104.724" y="75.412" transform="matrix(-0.8966 -0.4428 0.4428 -0.8966 215.119 312.1323)" opacity="0.2" enable-background="new    " width="78.546" height="111.083"/>
<path opacity="0.2" enable-background="new    " d="M130.408,58.835c1.615-0.911,2.483-1.886,2.9-2.921
	c0.885,1.044,1.881,0.107,1.443-1.134c-0.229-0.649-0.658-1.674-1.326-2.614c-0.403-2.409-0.643-3.247-0.041-3.715
	c0.473-0.367,0.378-0.999,0.094-1.674c-0.283-0.675-0.335-0.74-1.344-0.711c-0.266,0.008-0.896,0.13-1.727,0.335v2.877
	c0.385-0.158,0.73-0.299,1.031-0.422c0.374,0.571,0.684,1.312,0.909,2.11c-0.548-0.468-1.191-0.826-1.94-0.968v1.3
	c1.033,0.299,1.613,1.536,2.301,3.488l0.002,0.005c-0.009,0.067-0.019,0.134-0.029,0.198c-0.193,1.136-1.102,2.183-2.273,2.982
	V58.835L130.408,58.835z M124.787,60.122c1.15,0.217,2.574,0.129,4.287-0.624c0.492-0.217,0.937-0.438,1.334-0.663v-0.863
	c-1.529,1.043-3.509,1.667-4.938,1.52c-0.219-0.023-0.447-0.071-0.684-0.142L124.787,60.122L124.787,60.122z M130.408,46.4
	c-1.543,0.381-3.774,1.046-5.621,1.783v0.816c1.154-0.464,2.318-0.824,3.283-1.042c-1.014,0.407-2.12,0.863-3.283,1.351v3.267
	c2.314-0.668,3.971-1.14,4.4-1.25c0.474-0.121,0.873-0.127,1.221-0.026v-1.3c-0.37-0.07-0.767-0.087-1.189-0.039
	c-0.193,0.022-0.445,0.062-0.75,0.116c0.72-0.296,1.373-0.565,1.939-0.798V46.4z M116.151,52.793
	c-0.817,0.309-3.989,0.601-6.783,1.129v0.755c0.468-0.083,0.928-0.144,1.366-0.175c-0.46,0.127-0.916,0.255-1.366,0.381v3.126
	c1.443-0.604,3.155-1.319,4.985-2.082c1.102,2.137,0.374,6.35-1.195,7.904c-0.836,0.827-2.281,1.483-3.79,1.775v0.724
	c0.313-0.064,0.642-0.142,0.987-0.234c4.613-1.245,5.101-4.67,5.258-5.774c0.281-1.968-0.793-4.167,1.478-4.967
	s2.838,1.531,4.292,2.889c0.496,0.463,1.617,1.541,3.404,1.878V59.35c-2.125-0.643-4.771-3.145-5.205-5.266
	c1.911-0.556,3.698-1.074,5.205-1.509v-3.267c-1.055,0.443-2.158,0.914-3.281,1.399c0.936-0.651,2.104-1.233,3.281-1.708v-0.816
	c-0.309,0.124-0.608,0.25-0.892,0.376C121.326,49.709,118.518,51.9,116.151,52.793z M109.368,53.922
	c-0.645,0.122-1.269,0.256-1.839,0.406c-0.975,0.256-2.072,0.625-3.139,1.027v0.891c1.404-0.633,3.254-1.26,4.978-1.569V53.922
	L109.368,53.922z M104.391,66.865c0.239-0.132,0.412-0.427,0.426-0.9c1.055,0.586,2.477,0.787,4.552,0.366v-0.724
	c-1.749,0.337-3.583,0.186-4.651-0.76c-0.043-0.039-0.088-0.08-0.131-0.121l-0.008-0.024c-0.066-0.187-0.129-0.367-0.188-0.542
	V66.865L104.391,66.865z M109.368,54.883v3.126c-2.226,0.932-3.813,1.604-4.219,1.788c-0.315,0.144-0.565,0.31-0.759,0.5v-1.619
	c0.146-0.088,0.328-0.191,0.537-0.305l-0.537,0.158v-2.205C105.896,55.873,107.589,55.383,109.368,54.883z M104.391,55.354
	c-0.341,0.128-0.679,0.26-1.008,0.392v3.083c0.316-0.093,0.652-0.193,1.008-0.298v-2.205c-0.166,0.05-0.328,0.1-0.49,0.149
	c0.156-0.077,0.32-0.153,0.49-0.23V55.354L104.391,55.354z M103.383,66.629v-7.118c0.242-0.28,0.535-0.536,0.887-0.758
	c0.037-0.024,0.078-0.049,0.121-0.075v1.619c-0.809,0.797-0.614,2.025,0,3.863v2.706C104.096,67.028,103.699,66.941,103.383,66.629z
	 M103.383,55.747c-1.859,0.746-3.447,1.51-3.836,1.805c-0.803,0.61-0.803,0.694-0.602,1.397c0.203,0.704,0.525,1.255,1.123,1.245
	c0.766-0.013,1.104,0.795,2.309,2.938c0.072,1.143,0.378,2.2,0.605,2.845c0.096,0.274,0.238,0.492,0.4,0.652v-7.118
	c-0.508,0.588-0.791,1.284-0.924,2.006c-0.328-0.769-0.553-1.545-0.621-2.228c0.43-0.129,0.95-0.284,1.545-0.459L103.383,55.747
	L103.383,55.747z"/>
<path fill="#21445C" d="M98.041,56.769c5.643-2.125,26.238-7.529,29.555-7.911c3.317-0.382,4.99,3.279,5.533,4.82
	c0.543,1.541-1.123,2.616-2.043,0.006c-0.92-2.609-1.645-3.942-3.521-3.461s-26.909,7.799-28.631,8.353
	C97.213,59.131,96.88,57.099,98.041,56.769z"/>
<path fill="#21445C" d="M130.629,45.283c-5.727,1.882-25.159,10.586-27.982,12.369c-2.822,1.783-1.83,5.683-1.287,7.225
	s2.515,1.333,1.596-1.276c-0.92-2.609-1.191-4.103,0.571-4.904c1.763-0.802,25.853-10.798,27.541-11.446
	S131.741,44.812,130.629,45.283z"/>
<path fill="#21445C" d="M124.521,59.12c0.861-0.032,1.837-0.242,2.93-0.722c4.459-1.961,4.851-4.243,4.438-6.807
	c-0.453-2.816-0.771-3.74-0.128-4.241c0.474-0.367,0.378-0.999,0.094-1.674c-0.283-0.675-0.335-0.74-1.344-0.711
	c-0.645,0.018-3.43,0.711-5.99,1.611V47.4c1.743-0.581,3.313-0.878,3.938-0.755c1.816,0.357,3.027,4.722,2.6,7.244
	c-0.407,2.397-3.996,4.396-6.537,4.517L124.521,59.12L124.521,59.12z M114.528,51.692c-0.919,0.347-4.815,0.674-7.802,1.337v0.761
	c2.063-0.496,4.107-0.635,5.201,0.095c2.146,1.432,1.467,7.005-0.393,8.846c-1.022,1.013-2.96,1.769-4.809,1.914v0.749
	c0.602-0.069,1.268-0.199,2.006-0.398c4.613-1.245,5.101-4.67,5.258-5.774c0.282-1.969-0.793-4.167,1.478-4.967
	c2.271-0.8,2.839,1.531,4.292,2.888c0.611,0.571,2.172,2.075,4.762,1.978v-0.713c-0.234,0.011-0.461,0.007-0.674-0.015
	c-2.603-0.268-6.627-4.184-5.854-6.645c0.564-1.795,3.764-3.426,6.527-4.346v-0.825c-0.795,0.279-1.568,0.578-2.248,0.883
	C119.703,48.608,116.895,50.799,114.528,51.692z M106.727,53.029c-0.283,0.063-0.558,0.128-0.82,0.198
	c-3.047,0.8-7.309,2.712-7.982,3.223c-0.803,0.611-0.803,0.694-0.602,1.397c0.203,0.704,0.525,1.255,1.123,1.245
	c0.816-0.014,1.148,0.906,2.561,3.383c1.084,1.902,2.488,3.289,5.721,2.917v-0.749c-1.412,0.11-2.771-0.137-3.633-0.899
	c-1.914-1.696-3.708-5.855-2.518-7.273c0.605-0.72,3.395-2.02,6.15-2.682V53.029z"/>
<path opacity="0.2" fill="#FFFFFF" enable-background="new    " d="M100.576,56.473c1.059-1.26,8.798-4.292,11.352-2.587
	c2.146,1.432,1.467,7.005-0.393,8.846c-1.804,1.786-6.453,2.775-8.441,1.015C101.18,62.049,99.386,57.89,100.576,56.473
	L100.576,56.473z M128.459,46.645c-1.613-0.318-9.543,2.173-10.465,5.102c-0.773,2.461,3.251,6.376,5.854,6.645
	c2.523,0.26,6.766-1.884,7.211-4.502C131.486,51.367,130.275,47.002,128.459,46.645z"/>
<path fill="#FFFFFF" d="M101.235,55.948c2.2-1.4,8.448-3.561,10.692-2.063c1.505,1.004,1.62,4.046,0.913,6.408L101.235,55.948z"/>
<path fill="#FFFFFF" d="M118.922,50.383l11.822,4.425c0.152-0.297,0.262-0.605,0.314-0.919c0.428-2.522-0.783-6.887-2.6-7.244
	C127.104,46.378,121.295,48.092,118.922,50.383z"/>
<rect x="103.161" y="72.805" transform="matrix(-0.8966 -0.4428 0.4428 -0.8966 213.309 306.4957)" fill="#FFFFFF" width="78.544" height="111.085"/>
<rect x="201.704" y="81.174" transform="matrix(-0.5713 -0.8208 0.8208 -0.5713 253.8725 297.9377)" fill="#FFFFFF" width="6.096" height="2.977"/>
<path fill="#CDE9FA" d="M207.159,80.834l4.752,6.827c0.75,1.08,0.481,2.578-0.599,3.329l-0.735,0.513
	c-1.08,0.751-2.578,0.482-3.328-0.597l-4.752-6.827L207.159,80.834z"/>
<path fill="#4C8EB4" d="M206.4,81.361l4.437,6.373c0.509,0.729,0.326,1.74-0.401,2.247l-0.498,0.346
	c-0.729,0.507-1.74,0.326-2.246-0.403l-4.437-6.372L206.4,81.361z"/>
<path fill="#CDE9FA" d="M202.659,74.368l1.43,2.054l-4.662,3.245l-1.428-2.055c-0.752-1.08-0.483-2.578,0.597-3.329l0.735-0.513
	C200.411,73.02,201.909,73.289,202.659,74.368z"/>
<path fill="#4C8EB4" d="M202.221,75.35l1.112,1.6l-3.147,2.19l-1.113-1.6c-0.506-0.729-0.326-1.74,0.402-2.247l0.498-0.346
	C200.7,74.439,201.712,74.621,202.221,75.35z"/>
<circle fill="#D67C32" cx="203.924" cy="80.357" r="0.242"/>
<circle fill="#D67C32" cx="202.881" cy="81.081" r="0.242"/>
<polygon opacity="0.2" enable-background="new    " points="114.142,74.302 127.298,74.302 127.298,88.805 124.119,91.983 
	114.142,91.983 "/>
<rect x="133.884" y="11.816" transform="matrix(-0.7557 -0.6549 0.6549 -0.7557 275.5262 172.3602)" fill="#FFEDC4" width="72.05" height="45.953"/>
<rect x="141.11" y="1.209" transform="matrix(0.7557 0.6549 -0.6549 0.7557 54.0092 -97.1967)" fill="#FFFFFF" width="32.36" height="45.177"/>
<circle fill="#726657" cx="157.988" cy="45.568" r="0.84"/>
<path fill="#8C8E90" d="M158.645,45.856c0.09-0.104,0.147-0.226,0.182-0.352c0.016,0.214-0.051,0.436-0.203,0.612
	c-0.303,0.351-0.834,0.389-1.184,0.085c-0.246-0.212-0.336-0.536-0.267-0.832c0.019,0.213,0.113,0.42,0.287,0.57
	C157.811,46.245,158.341,46.206,158.645,45.856z"/>
<circle fill="#726657" cx="160.193" cy="43.023" r="0.839"/>
<path fill="#8C8E90" d="M160.85,43.313c0.09-0.105,0.149-0.227,0.182-0.353c0.016,0.214-0.051,0.437-0.203,0.613
	c-0.303,0.35-0.834,0.388-1.184,0.085c-0.244-0.212-0.336-0.536-0.267-0.831c0.019,0.213,0.113,0.419,0.287,0.57
	C160.016,43.7,160.544,43.662,160.85,43.313z"/>
<circle fill="#726657" cx="162.398" cy="40.479" r="0.839"/>
<path fill="#8C8E90" d="M163.055,40.768c0.092-0.105,0.149-0.227,0.182-0.353c0.016,0.215-0.051,0.437-0.203,0.613
	c-0.303,0.35-0.834,0.388-1.184,0.085c-0.244-0.212-0.336-0.536-0.267-0.832c0.019,0.213,0.112,0.419,0.287,0.57
	C162.221,41.155,162.751,41.118,163.055,40.768z"/>
<circle fill="#726657" cx="164.604" cy="37.934" r="0.839"/>
<path fill="#8C8E90" d="M165.259,38.223c0.093-0.105,0.148-0.226,0.183-0.353c0.016,0.215-0.051,0.437-0.203,0.613
	c-0.303,0.351-0.834,0.389-1.184,0.085c-0.244-0.212-0.337-0.536-0.267-0.832c0.019,0.213,0.112,0.419,0.287,0.57
	C164.425,38.61,164.954,38.573,165.259,38.223z"/>
<circle fill="#726657" cx="166.809" cy="35.39" r="0.839"/>
<path fill="#8C8E90" d="M167.464,35.678c0.093-0.105,0.149-0.227,0.183-0.353c0.016,0.215-0.051,0.437-0.203,0.613
	c-0.303,0.35-0.834,0.388-1.185,0.085c-0.243-0.212-0.336-0.536-0.266-0.832c0.019,0.213,0.112,0.419,0.286,0.57
	C166.63,36.065,167.161,36.028,167.464,35.678z"/>
<circle fill="#726657" cx="169.014" cy="32.845" r="0.839"/>
<path fill="#8C8E90" d="M169.669,33.133c0.09-0.104,0.147-0.226,0.183-0.352c0.016,0.214-0.052,0.437-0.203,0.613
	c-0.303,0.35-0.834,0.388-1.185,0.084c-0.243-0.212-0.336-0.536-0.266-0.832c0.018,0.214,0.112,0.42,0.286,0.571
	C168.835,33.521,169.366,33.483,169.669,33.133z"/>
<circle fill="#726657" cx="171.219" cy="30.301" r="0.839"/>
<path fill="#8C8E90" d="M171.874,30.589c0.09-0.104,0.149-0.227,0.183-0.352c0.016,0.214-0.052,0.437-0.203,0.613
	c-0.304,0.35-0.834,0.389-1.185,0.085c-0.244-0.212-0.336-0.536-0.267-0.832c0.019,0.213,0.113,0.419,0.289,0.57
	C171.042,30.976,171.57,30.939,171.874,30.589z"/>
<circle fill="#726657" cx="173.424" cy="27.756" r="0.839"/>
<path fill="#8C8E90" d="M174.079,28.044c0.092-0.104,0.149-0.226,0.183-0.352c0.016,0.214-0.052,0.437-0.203,0.614
	c-0.304,0.35-0.834,0.388-1.185,0.084c-0.244-0.212-0.336-0.536-0.267-0.832c0.019,0.213,0.113,0.419,0.287,0.57
	C173.247,28.432,173.775,28.394,174.079,28.044z"/>
<circle fill="#726657" cx="175.629" cy="25.211" r="0.839"/>
<path fill="#8C8E90" d="M176.284,25.5c0.092-0.105,0.149-0.227,0.182-0.353c0.017,0.215-0.051,0.437-0.202,0.613
	c-0.304,0.35-0.834,0.389-1.185,0.085c-0.244-0.212-0.336-0.536-0.265-0.832c0.017,0.213,0.111,0.42,0.285,0.57
	C175.45,25.887,175.98,25.85,176.284,25.5z"/>
<circle fill="#726657" cx="177.834" cy="22.667" r="0.839"/>
<path fill="#8C8E90" d="M178.488,22.955c0.093-0.104,0.15-0.226,0.183-0.351c0.017,0.214-0.051,0.437-0.203,0.612
	c-0.303,0.35-0.831,0.388-1.184,0.084c-0.244-0.212-0.336-0.535-0.267-0.831c0.019,0.213,0.113,0.418,0.287,0.569
	C177.657,23.342,178.188,23.305,178.488,22.955z"/>
<circle fill="#726657" cx="180.039" cy="20.122" r="0.839"/>
<path fill="#8C8E90" d="M180.693,20.411c0.093-0.105,0.15-0.227,0.183-0.352c0.017,0.214-0.051,0.437-0.203,0.613
	c-0.303,0.35-0.832,0.388-1.185,0.084c-0.243-0.212-0.336-0.536-0.266-0.831c0.019,0.213,0.113,0.419,0.287,0.57
	C179.859,20.798,180.393,20.76,180.693,20.411z"/>
<path fill="#343434" d="M180.9,20.408l0.882,0.762c0.146,0.128,0.135,0.378-0.029,0.568c-0.164,0.19-0.41,0.237-0.56,0.108
	l-0.293-0.254v-0.31l0.447,0.387c0.041,0.036,0.146,0.007,0.228-0.085s0.094-0.202,0.053-0.238l0,0l-0.728-0.629V20.408
	L180.9,20.408z M180.607,20.154l0.293,0.254v0.31l-0.444-0.386c-0.043-0.037-0.149-0.008-0.229,0.084s-0.094,0.202-0.051,0.239
	l0.725,0.628v0.31l-0.879-0.762c-0.147-0.129-0.137-0.378,0.027-0.568C180.214,20.073,180.46,20.025,180.607,20.154z"/>
<path fill="#343434" d="M178.71,22.935l0.881,0.763c0.147,0.128,0.138,0.378-0.026,0.568c-0.166,0.19-0.41,0.237-0.56,0.109
	l-0.295-0.254v-0.31l0.447,0.387c0.041,0.036,0.147,0.007,0.229-0.085c0.079-0.091,0.092-0.202,0.051-0.237l0,0l-0.728-0.629V22.935
	z M178.419,22.682l0.291,0.253v0.311l-0.444-0.386c-0.041-0.037-0.148-0.008-0.229,0.084c-0.08,0.093-0.095,0.203-0.052,0.239
	l0.726,0.629v0.31l-0.879-0.762c-0.147-0.13-0.138-0.379,0.028-0.569C178.023,22.601,178.27,22.552,178.419,22.682z"/>
<path fill="#343434" d="M176.521,25.463l0.879,0.763c0.147,0.128,0.137,0.378-0.027,0.568s-0.41,0.237-0.559,0.109l-0.293-0.254
	v-0.31l0.446,0.387c0.041,0.036,0.146,0.007,0.228-0.085c0.08-0.092,0.094-0.202,0.053-0.238l0,0l-0.727-0.629V25.463z
	 M176.229,25.21l0.293,0.253v0.31l-0.445-0.386c-0.043-0.037-0.15-0.008-0.23,0.084c-0.078,0.092-0.092,0.202-0.051,0.239
	l0.727,0.629v0.31l-0.879-0.762c-0.149-0.129-0.137-0.379,0.027-0.568C175.833,25.128,176.079,25.081,176.229,25.21z"/>
<path fill="#343434" d="M174.331,27.99l0.879,0.763c0.147,0.128,0.138,0.379-0.028,0.569c-0.164,0.19-0.41,0.237-0.558,0.108
	l-0.293-0.254v-0.31l0.444,0.387c0.041,0.036,0.148,0.007,0.229-0.085c0.08-0.092,0.095-0.203,0.054-0.238l0,0l-0.728-0.629V27.99
	L174.331,27.99z M174.038,27.737l0.293,0.253v0.311l-0.447-0.386c-0.041-0.037-0.147-0.008-0.229,0.084
	c-0.079,0.092-0.094,0.202-0.051,0.239l0.728,0.629v0.31l-0.881-0.762c-0.148-0.129-0.138-0.379,0.026-0.568
	C173.645,27.656,173.889,27.608,174.038,27.737z"/>
<path fill="#343434" d="M172.141,30.519l0.879,0.763c0.147,0.128,0.137,0.378-0.027,0.568s-0.41,0.237-0.559,0.109l-0.293-0.254
	v-0.31l0.446,0.387c0.041,0.036,0.146,0.007,0.228-0.085c0.08-0.092,0.094-0.202,0.053-0.237l0,0l-0.727-0.629V30.519z
	 M171.848,30.265l0.293,0.253v0.311l-0.445-0.387c-0.043-0.036-0.15-0.008-0.229,0.084c-0.08,0.093-0.094,0.202-0.053,0.239
	l0.728,0.629v0.31l-0.879-0.762c-0.15-0.13-0.14-0.378,0.026-0.569C171.452,30.184,171.698,30.136,171.848,30.265z"/>
<path fill="#343434" d="M169.95,33.046l0.879,0.762c0.147,0.128,0.137,0.379-0.027,0.568c-0.165,0.19-0.409,0.237-0.559,0.108
	l-0.293-0.254v-0.31l0.444,0.387c0.041,0.036,0.148,0.007,0.229-0.085c0.08-0.092,0.094-0.202,0.051-0.237l0,0l-0.725-0.629V33.046z
	 M169.657,32.793l0.293,0.253v0.31l-0.447-0.387c-0.041-0.036-0.147-0.008-0.229,0.084c-0.08,0.092-0.092,0.202-0.051,0.239
	l0.728,0.628v0.31l-0.88-0.762c-0.149-0.129-0.139-0.378,0.027-0.569C169.264,32.712,169.507,32.664,169.657,32.793z"/>
<path fill="#343434" d="M167.759,35.574l0.882,0.763c0.146,0.128,0.135,0.379-0.029,0.568c-0.164,0.19-0.41,0.237-0.56,0.108
	l-0.293-0.254v-0.31l0.447,0.387c0.041,0.036,0.146,0.007,0.228-0.085c0.08-0.092,0.094-0.202,0.053-0.237l0,0l-0.728-0.629V35.574
	L167.759,35.574z M167.466,35.321l0.293,0.253v0.311l-0.444-0.386c-0.043-0.037-0.15-0.008-0.23,0.084
	c-0.078,0.092-0.092,0.202-0.051,0.239l0.727,0.628v0.31l-0.879-0.762c-0.15-0.129-0.137-0.379,0.027-0.568
	C167.07,35.239,167.316,35.191,167.466,35.321z"/>
<path fill="#343434" d="M165.566,38.102l0.882,0.762c0.147,0.128,0.137,0.378-0.029,0.568c-0.164,0.19-0.408,0.237-0.558,0.108
	l-0.295-0.254v-0.31l0.447,0.387c0.041,0.036,0.148,0.007,0.229-0.085c0.08-0.093,0.092-0.202,0.051-0.238l0,0l-0.728-0.629V38.102
	L165.566,38.102z M165.275,37.849l0.291,0.253v0.31l-0.444-0.387c-0.041-0.036-0.147-0.008-0.229,0.084
	c-0.08,0.092-0.094,0.202-0.051,0.239l0.725,0.629v0.31l-0.879-0.762c-0.147-0.13-0.137-0.379,0.027-0.569
	C164.882,37.767,165.126,37.719,165.275,37.849z"/>
<path fill="#343434" d="M163.378,40.629l0.879,0.763c0.147,0.128,0.138,0.378-0.026,0.568s-0.41,0.237-0.56,0.108l-0.293-0.254
	v-0.31l0.447,0.387c0.041,0.036,0.146,0.007,0.228-0.085c0.08-0.092,0.094-0.202,0.053-0.237l0,0l-0.728-0.629V40.629z
	 M163.085,40.376l0.293,0.253v0.311l-0.444-0.386c-0.043-0.037-0.15-0.009-0.23,0.084c-0.08,0.092-0.092,0.202-0.051,0.239
	l0.727,0.628v0.31l-0.879-0.762c-0.15-0.129-0.137-0.379,0.027-0.569S162.938,40.247,163.085,40.376z"/>
<path fill="#343434" d="M161.188,43.157l0.881,0.763c0.147,0.128,0.137,0.379-0.029,0.569c-0.164,0.19-0.408,0.237-0.557,0.108
	l-0.295-0.254v-0.31l0.446,0.387c0.041,0.036,0.148,0.007,0.229-0.085c0.078-0.092,0.092-0.202,0.051-0.237l0,0l-0.727-0.63V43.157
	L161.188,43.157z M160.896,42.904l0.291,0.253v0.311l-0.445-0.386c-0.043-0.036-0.148-0.008-0.229,0.084
	c-0.082,0.092-0.095,0.202-0.052,0.238l0.726,0.629v0.31l-0.879-0.761c-0.148-0.13-0.138-0.378,0.026-0.569
	C160.501,42.822,160.745,42.774,160.896,42.904z"/>
<path fill="#343434" d="M158.997,45.685l0.879,0.762c0.147,0.129,0.138,0.379-0.026,0.568c-0.166,0.19-0.41,0.237-0.56,0.109
	l-0.293-0.254v-0.31l0.444,0.387c0.043,0.036,0.148,0.007,0.229-0.085c0.081-0.092,0.095-0.202,0.054-0.237l0,0l-0.728-0.629V45.685
	z M158.704,45.432l0.293,0.253v0.311l-0.445-0.386c-0.043-0.037-0.149-0.009-0.229,0.083c-0.08,0.092-0.092,0.203-0.051,0.239
	l0.727,0.628v0.31l-0.879-0.762c-0.15-0.129-0.139-0.378,0.027-0.568C158.311,45.35,158.557,45.302,158.704,45.432z"/>
<rect x="154.378" y="12.238" transform="matrix(0.7557 0.6549 -0.6549 0.7557 48.9795 -106.7612)" fill="#5D5E60" width="26.439" height="0.071"/>
<rect x="153.328" y="13.45" transform="matrix(0.7557 0.6549 -0.6549 0.7557 49.5186 -105.7805)" fill="#5D5E60" width="26.438" height="0.069"/>
<rect x="152.279" y="14.66" transform="matrix(0.7557 0.6549 -0.6549 0.7557 50.052 -104.7955)" fill="#5D5E60" width="26.439" height="0.069"/>
<rect x="151.229" y="15.873" transform="matrix(0.7557 0.6549 -0.6549 0.7557 50.5898 -103.811)" fill="#5D5E60" width="26.439" height="0.069"/>
<rect x="150.181" y="17.082" transform="matrix(0.7557 0.6549 -0.6549 0.7557 51.1262 -102.8292)" fill="#5D5E60" width="26.439" height="0.071"/>
<rect x="149.129" y="18.295" transform="matrix(0.7557 0.6549 -0.6549 0.7557 51.6631 -101.8443)" fill="#5D5E60" width="26.439" height="0.069"/>
<rect x="148.08" y="19.507" transform="matrix(0.7557 0.6549 -0.6549 0.7557 52.2003 -100.8615)" fill="#5D5E60" width="26.439" height="0.069"/>
<rect x="147.032" y="20.715" transform="matrix(0.7557 0.6549 -0.6549 0.7557 52.7362 -99.8797)" fill="#5D5E60" width="26.439" height="0.071"/>
<rect x="145.985" y="21.924" transform="matrix(0.7557 0.6549 -0.6549 0.7557 53.2746 -98.9026)" fill="#5D5E60" width="26.44" height="0.066"/>
<rect x="144.934" y="23.136" transform="matrix(0.7557 0.6549 -0.6549 0.7557 53.8104 -97.9158)" fill="#5D5E60" width="26.439" height="0.069"/>
<rect x="143.886" y="24.346" transform="matrix(0.7557 0.6549 -0.6549 0.7557 54.347 -96.9348)" fill="#5D5E60" width="26.44" height="0.069"/>
<rect x="142.832" y="25.562" transform="matrix(0.7557 0.6549 -0.6549 0.7557 54.8836 -95.9454)" fill="#5D5E60" width="26.439" height="0.069"/>
<rect x="141.785" y="26.769" transform="matrix(0.7557 0.6549 -0.6549 0.7557 55.4206 -94.9663)" fill="#5D5E60" width="26.44" height="0.069"/>
<rect x="140.736" y="27.979" transform="matrix(0.7557 0.6549 -0.6549 0.7557 55.9554 -93.9825)" fill="#5D5E60" width="26.44" height="0.069"/>
<rect x="139.689" y="29.189" transform="matrix(0.7557 0.6549 -0.6549 0.7557 56.4921 -93.0013)" fill="#5D5E60" width="26.44" height="0.069"/>
<rect x="138.64" y="30.401" transform="matrix(0.7557 0.6549 -0.6549 0.7557 57.0305 -92.0196)" fill="#5D5E60" width="26.439" height="0.068"/>
<rect x="137.59" y="31.612" transform="matrix(0.7557 0.6549 -0.6549 0.7557 57.5671 -91.0357)" fill="#5D5E60" width="26.439" height="0.069"/>
<rect x="136.541" y="32.822" transform="matrix(0.7557 0.6549 -0.6549 0.7557 58.1017 -90.0519)" fill="#5D5E60" width="26.44" height="0.069"/>
<rect x="135.492" y="34.033" transform="matrix(0.7557 0.6549 -0.6549 0.7557 58.6386 -89.0694)" fill="#5D5E60" width="26.44" height="0.069"/>
<rect x="134.439" y="35.246" transform="matrix(0.7557 0.6549 -0.6549 0.7557 59.1773 -88.0847)" fill="#5D5E60" width="26.439" height="0.069"/>
<rect x="137.846" y="38.117" transform="matrix(0.7557 0.6549 -0.6549 0.7557 61.271 -87.9528)" fill="#5D5E60" width="21.364" height="0.069"/>
<path fill="#4C8EB4" d="M202.012,46.428l0.598,0.519c0.934,0.808,2.248,0.815,2.938,0.018l4.308-4.969
	c0.69-0.798,0.498-2.1-0.437-2.908l-0.599-0.518L202.012,46.428z"/>
<path fill="#DA4622" d="M197.157,52.03l0.598,0.519c0.933,0.808,2.248,0.815,2.938,0.017l4.306-4.968
	c0.692-0.799,0.498-2.101-0.435-2.908l-0.598-0.519L197.157,52.03z"/>
<path fill="#F9A818" d="M192.333,57.596l0.599,0.518c0.934,0.808,2.248,0.815,2.938,0.017l4.307-4.969
	c0.691-0.798,0.496-2.1-0.436-2.907l-0.599-0.518L192.333,57.596z"/>
<rect x="165.953" y="22.743" transform="matrix(-0.7557 -0.6549 0.6549 -0.7557 290.0836 198.8684)" fill="#BCBDBF" width="32.358" height="45.177"/>
<polygon fill="#FFFFFF" points="209.154,38.857 184.7,17.666 155.113,51.808 173.188,67.471 183.15,68.864 "/>
<path fill="#C8CACD" d="M173.188,67.471c0,0,3.281-0.289,5.107-3.059c0,0,2.08,3.313,4.855,4.451L173.188,67.471z"/>
<circle fill="#726657" cx="160.486" cy="47.734" r="0.84"/>
<path fill="#8C8E90" d="M160.107,47.126c0.091-0.105,0.201-0.18,0.322-0.229c-0.215,0.015-0.426,0.111-0.578,0.288
	c-0.303,0.351-0.266,0.88,0.084,1.184c0.246,0.212,0.578,0.256,0.861,0.144c-0.213,0.014-0.432-0.052-0.605-0.203
	C159.843,48.006,159.807,47.475,160.107,47.126z"/>
<circle fill="#726657" cx="162.691" cy="45.189" r="0.839"/>
<path fill="#8C8E90" d="M162.313,44.582c0.09-0.105,0.203-0.181,0.322-0.23c-0.215,0.016-0.426,0.111-0.578,0.288
	c-0.303,0.35-0.266,0.88,0.086,1.184c0.244,0.212,0.578,0.256,0.859,0.144c-0.213,0.014-0.432-0.052-0.605-0.203
	C162.048,45.461,162.009,44.932,162.313,44.582z"/>
<circle fill="#726657" cx="164.896" cy="42.645" r="0.839"/>
<path fill="#8C8E90" d="M164.52,42.037c0.09-0.105,0.203-0.181,0.321-0.23c-0.215,0.016-0.426,0.112-0.577,0.288
	c-0.304,0.35-0.267,0.88,0.086,1.184c0.243,0.212,0.577,0.256,0.858,0.144c-0.213,0.014-0.433-0.053-0.604-0.203
	C164.253,42.917,164.214,42.387,164.52,42.037z"/>
<circle fill="#726657" cx="167.104" cy="40.1" r="0.839"/>
<path fill="#8C8E90" d="M166.725,39.492c0.09-0.105,0.2-0.18,0.321-0.23c-0.215,0.016-0.426,0.112-0.578,0.288
	c-0.303,0.35-0.266,0.88,0.087,1.184c0.243,0.212,0.577,0.256,0.858,0.144c-0.213,0.014-0.433-0.052-0.604-0.203
	C166.458,40.372,166.419,39.842,166.725,39.492z"/>
<circle fill="#726657" cx="169.309" cy="37.555" r="0.839"/>
<path fill="#8C8E90" d="M168.93,36.948c0.09-0.105,0.202-0.181,0.321-0.23c-0.215,0.016-0.426,0.112-0.578,0.288
	c-0.303,0.35-0.266,0.88,0.086,1.184c0.244,0.212,0.578,0.256,0.859,0.144c-0.214,0.014-0.433-0.052-0.604-0.203
	C168.663,37.827,168.626,37.297,168.93,36.948z"/>
<circle fill="#726657" cx="171.514" cy="35.01" r="0.839"/>
<path fill="#8C8E90" d="M171.134,34.402c0.091-0.104,0.201-0.18,0.322-0.229c-0.213,0.015-0.427,0.112-0.578,0.288
	c-0.303,0.35-0.267,0.88,0.086,1.183c0.244,0.212,0.578,0.256,0.859,0.144c-0.214,0.014-0.433-0.052-0.605-0.202
	C170.868,35.283,170.831,34.752,171.134,34.402z"/>
<circle fill="#726657" cx="173.717" cy="32.467" r="0.839"/>
<path fill="#8C8E90" d="M173.339,31.858c0.091-0.104,0.203-0.181,0.322-0.229c-0.213,0.015-0.427,0.111-0.578,0.288
	c-0.304,0.35-0.267,0.88,0.084,1.184c0.246,0.212,0.578,0.256,0.86,0.144c-0.213,0.014-0.43-0.052-0.604-0.203
	C173.073,32.738,173.036,32.208,173.339,31.858z"/>
<circle fill="#726657" cx="175.923" cy="29.921" r="0.839"/>
<path fill="#8C8E90" d="M175.544,29.313c0.093-0.105,0.203-0.18,0.322-0.229c-0.214,0.015-0.427,0.112-0.578,0.288
	c-0.304,0.35-0.267,0.88,0.086,1.184c0.244,0.212,0.578,0.256,0.858,0.144c-0.213,0.014-0.43-0.053-0.604-0.203
	C175.277,30.193,175.241,29.663,175.544,29.313z"/>
<circle fill="#726657" cx="178.129" cy="27.377" r="0.839"/>
<path fill="#8C8E90" d="M177.749,26.769c0.092-0.105,0.203-0.181,0.321-0.23c-0.215,0.016-0.424,0.112-0.577,0.288
	c-0.304,0.35-0.267,0.88,0.086,1.184c0.244,0.212,0.578,0.256,0.858,0.144c-0.213,0.014-0.432-0.052-0.604-0.203
	C177.482,27.649,177.445,27.119,177.749,26.769z"/>
<circle fill="#726657" cx="180.333" cy="24.832" r="0.839"/>
<path fill="#8C8E90" d="M179.954,24.224c0.09-0.104,0.2-0.179,0.321-0.229c-0.215,0.015-0.426,0.112-0.577,0.288
	c-0.304,0.35-0.265,0.88,0.086,1.184c0.243,0.212,0.577,0.257,0.858,0.145c-0.213,0.014-0.43-0.053-0.604-0.204
	C179.689,25.104,179.65,24.575,179.954,24.224z"/>
<circle fill="#726657" cx="182.539" cy="22.288" r="0.839"/>
<path fill="#8C8E90" d="M182.159,21.68c0.092-0.106,0.202-0.181,0.321-0.23c-0.215,0.016-0.426,0.112-0.578,0.288
	c-0.303,0.35-0.266,0.88,0.086,1.184c0.244,0.212,0.578,0.256,0.859,0.144c-0.213,0.014-0.432-0.052-0.604-0.203
	C181.895,22.56,181.855,22.029,182.159,21.68z"/>
<path fill="#343434" d="M182.396,22.297c-0.164,0.19-0.41,0.237-0.559,0.107l-0.293-0.253v-0.31l0.445,0.386
	c0.043,0.037,0.15,0.008,0.23-0.084c0.077-0.092,0.092-0.202,0.049-0.239l-0.726-0.628v-0.31l0.879,0.761
	C182.573,21.857,182.563,22.107,182.396,22.297z M181.546,22.151l-0.879-0.762c-0.147-0.129-0.14-0.378,0.026-0.569
	c0.164-0.19,0.41-0.236,0.56-0.108l0.293,0.254v0.31l-0.446-0.387c-0.041-0.036-0.146-0.007-0.228,0.085l0,0
	c-0.08,0.092-0.095,0.202-0.054,0.237l0.728,0.629V22.151z"/>
<path fill="#343434" d="M180.208,24.825c-0.166,0.19-0.41,0.237-0.562,0.108l-0.291-0.253v-0.31l0.443,0.386
	c0.043,0.037,0.15,0.008,0.23-0.084c0.08-0.092,0.092-0.202,0.051-0.239l-0.725-0.628v-0.311l0.879,0.762
	C180.384,24.385,180.372,24.635,180.208,24.825z M179.355,24.679l-0.881-0.762c-0.147-0.128-0.137-0.379,0.027-0.569
	c0.166-0.19,0.412-0.237,0.561-0.108l0.293,0.254v0.311l-0.446-0.387c-0.041-0.036-0.147-0.007-0.229,0.085l0,0
	c-0.08,0.092-0.092,0.202-0.051,0.238l0.727,0.629V24.679z"/>
<path fill="#343434" d="M178.018,27.353c-0.164,0.19-0.41,0.237-0.56,0.107l-0.293-0.253v-0.31l0.444,0.386
	c0.043,0.037,0.15,0.008,0.229-0.084c0.08-0.092,0.095-0.202,0.052-0.239l-0.726-0.628v-0.31l0.879,0.761
	C178.191,26.913,178.182,27.163,178.018,27.353z M177.165,27.207l-0.879-0.762c-0.147-0.129-0.14-0.379,0.026-0.569
	c0.164-0.19,0.41-0.237,0.56-0.108l0.293,0.254v0.31l-0.447-0.387c-0.041-0.036-0.146-0.007-0.227,0.085l0,0
	c-0.08,0.092-0.095,0.202-0.054,0.238l0.728,0.629V27.207z"/>
<path fill="#343434" d="M175.825,29.88c-0.164,0.19-0.41,0.237-0.56,0.107l-0.293-0.253v-0.31l0.445,0.386
	c0.043,0.037,0.15,0.008,0.23-0.084c0.08-0.092,0.094-0.203,0.051-0.239l-0.727-0.629v-0.31l0.879,0.762
	C176.003,29.44,175.991,29.69,175.825,29.88z M174.975,29.735l-0.879-0.762c-0.148-0.129-0.138-0.379,0.026-0.569
	s0.41-0.237,0.562-0.108l0.291,0.253v0.31l-0.445-0.387c-0.041-0.035-0.148-0.006-0.229,0.086l0,0
	c-0.079,0.092-0.092,0.202-0.051,0.238l0.726,0.629V29.735z"/>
<path fill="#343434" d="M173.637,32.408c-0.164,0.19-0.41,0.237-0.562,0.108l-0.291-0.253v-0.31l0.444,0.386
	c0.043,0.037,0.148,0.008,0.229-0.084c0.081-0.092,0.094-0.202,0.051-0.239l-0.725-0.628v-0.31l0.879,0.761
	C173.813,31.968,173.8,32.218,173.637,32.408z M172.784,32.262l-0.88-0.762c-0.149-0.129-0.139-0.379,0.027-0.569
	c0.164-0.19,0.41-0.237,0.56-0.108l0.293,0.254v0.31L172.337,31c-0.041-0.036-0.146-0.007-0.228,0.085l0,0
	c-0.08,0.092-0.094,0.202-0.053,0.238l0.728,0.629V32.262L172.784,32.262z"/>
<path fill="#343434" d="M171.445,34.936c-0.166,0.19-0.409,0.237-0.561,0.107l-0.293-0.253v-0.31l0.447,0.386
	c0.041,0.037,0.148,0.008,0.229-0.084c0.082-0.092,0.094-0.202,0.051-0.239l-0.727-0.628v-0.31l0.879,0.761
	C171.622,34.496,171.609,34.746,171.445,34.936z M170.593,34.79l-0.879-0.762c-0.147-0.129-0.137-0.378,0.027-0.569
	c0.163-0.189,0.409-0.237,0.561-0.108l0.291,0.254v0.31l-0.444-0.387c-0.041-0.036-0.148-0.007-0.229,0.085l0,0
	c-0.08,0.092-0.092,0.202-0.051,0.237l0.725,0.629V34.79z"/>
<path fill="#343434" d="M169.255,37.463c-0.164,0.19-0.409,0.237-0.562,0.108l-0.291-0.253v-0.31l0.445,0.386
	c0.043,0.037,0.148,0.008,0.229-0.084c0.081-0.092,0.094-0.202,0.051-0.239l-0.726-0.628v-0.311l0.88,0.762
	C169.432,37.023,169.419,37.273,169.255,37.463z M168.402,37.318l-0.879-0.762c-0.147-0.129-0.139-0.379,0.027-0.569
	c0.164-0.189,0.41-0.237,0.559-0.108l0.293,0.253v0.311l-0.446-0.387c-0.041-0.036-0.146-0.007-0.228,0.085l0,0
	c-0.08,0.092-0.094,0.202-0.053,0.238l0.727,0.629V37.318z"/>
<path fill="#343434" d="M167.063,39.991c-0.164,0.19-0.408,0.237-0.559,0.107l-0.293-0.253v-0.31l0.445,0.386
	c0.043,0.037,0.15,0.008,0.23-0.084c0.079-0.093,0.092-0.202,0.051-0.239l-0.728-0.628v-0.31l0.879,0.762
	C167.241,39.551,167.229,39.801,167.063,39.991z M166.212,39.846l-0.879-0.762c-0.147-0.129-0.138-0.379,0.026-0.569
	s0.41-0.237,0.56-0.108l0.293,0.254v0.311l-0.444-0.387c-0.041-0.036-0.148-0.008-0.229,0.084l0,0
	c-0.08,0.092-0.093,0.202-0.052,0.238l0.726,0.629V39.846z"/>
<path fill="#343434" d="M164.874,42.519c-0.164,0.19-0.41,0.237-0.562,0.107l-0.291-0.253v-0.31l0.445,0.386
	c0.043,0.037,0.148,0.009,0.229-0.084c0.08-0.092,0.095-0.202,0.052-0.238l-0.726-0.628v-0.311l0.879,0.762
	C165.05,42.079,165.038,42.329,164.874,42.519z M164.021,42.374l-0.879-0.762c-0.149-0.129-0.139-0.379,0.027-0.569
	c0.164-0.19,0.41-0.237,0.559-0.108l0.293,0.253v0.311l-0.446-0.387c-0.041-0.035-0.146-0.007-0.228,0.085l0,0
	c-0.08,0.092-0.094,0.202-0.053,0.238l0.727,0.629V42.374z"/>
<path fill="#343434" d="M162.684,45.047c-0.164,0.19-0.41,0.237-0.56,0.107l-0.293-0.253v-0.31l0.444,0.386
	c0.043,0.037,0.15,0.008,0.23-0.084c0.08-0.092,0.092-0.202,0.051-0.239l-0.727-0.628v-0.311l0.879,0.762
	C162.859,44.606,162.85,44.857,162.684,45.047z M161.831,44.901l-0.879-0.762c-0.147-0.129-0.138-0.378,0.026-0.568
	s0.41-0.237,0.56-0.109l0.293,0.254v0.311l-0.445-0.387c-0.04-0.036-0.147-0.007-0.229,0.085l0,0
	c-0.08,0.093-0.095,0.202-0.054,0.238l0.728,0.629V44.901z"/>
<path fill="#343434" d="M160.493,47.574c-0.166,0.19-0.41,0.237-0.562,0.107l-0.291-0.253v-0.309l0.445,0.386
	c0.043,0.037,0.148,0.008,0.229-0.084c0.082-0.092,0.095-0.202,0.052-0.238l-0.726-0.628v-0.311l0.879,0.762
	C160.669,47.134,160.657,47.384,160.493,47.574z M159.643,47.428l-0.879-0.762c-0.15-0.129-0.14-0.378,0.026-0.569
	c0.164-0.189,0.41-0.237,0.56-0.108l0.293,0.253v0.311l-0.447-0.387c-0.041-0.036-0.146-0.007-0.228,0.085l0,0
	c-0.079,0.092-0.094,0.202-0.053,0.238l0.728,0.629V47.428z"/>
<rect x="178.854" y="33.457" transform="matrix(-0.7557 -0.6549 0.6549 -0.7557 315.2927 184.5901)" fill="#5D5E60" width="26.439" height="0.069"/>
<rect x="177.8" y="34.669" transform="matrix(-0.7557 -0.6549 0.6549 -0.7557 312.6495 186.0289)" fill="#5D5E60" width="26.439" height="0.069"/>
<rect x="176.752" y="35.88" transform="matrix(-0.7557 -0.6549 0.6549 -0.7557 310.0165 187.4667)" fill="#5D5E60" width="26.439" height="0.069"/>
<rect x="175.703" y="37.091" transform="matrix(-0.7557 -0.6549 0.6549 -0.7557 307.3761 188.9094)" fill="#5D5E60" width="26.438" height="0.07"/>
<rect x="174.664" y="38.311" transform="matrix(-0.7558 -0.6548 0.6548 -0.7558 304.7721 190.3609)" fill="#5D5E60" width="26.442" height="0.071"/>
<rect x="173.605" y="39.512" transform="matrix(-0.7557 -0.6549 0.6549 -0.7557 302.107 191.7882)" fill="#5D5E60" width="26.438" height="0.071"/>
<rect x="172.555" y="40.723" transform="matrix(-0.7557 -0.6549 0.6549 -0.7557 299.475 193.2226)" fill="#5D5E60" width="26.439" height="0.069"/>
<rect x="171.505" y="41.934" transform="matrix(-0.7557 -0.6549 0.6549 -0.7557 296.8386 194.6616)" fill="#5D5E60" width="26.439" height="0.071"/>
<rect x="170.457" y="43.145" transform="matrix(-0.7557 -0.6549 0.6549 -0.7557 294.2037 196.1014)" fill="#5D5E60" width="26.438" height="0.069"/>
<rect x="169.406" y="44.355" transform="matrix(-0.7557 -0.6549 0.6549 -0.7557 291.5675 197.5377)" fill="#5D5E60" width="26.439" height="0.07"/>
<rect x="178.259" y="41.515" transform="matrix(-0.7557 -0.6549 0.6549 -0.7557 308.9718 198.3495)" fill="#5D5E60" width="26.439" height="0.069"/>
<rect x="167.309" y="46.779" transform="matrix(-0.7557 -0.6549 0.6549 -0.7557 286.2988 200.4181)" fill="#5D5E60" width="26.439" height="0.068"/>
<rect x="166.27" y="47.998" transform="matrix(-0.7557 -0.6549 0.6549 -0.7557 283.6807 201.8772)" fill="#5D5E60" width="26.441" height="0.069"/>
<rect x="165.21" y="49.198" transform="matrix(-0.7557 -0.6549 0.6549 -0.7557 281.024 203.2968)" fill="#5D5E60" width="26.438" height="0.071"/>
<rect x="164.16" y="50.41" transform="matrix(-0.7557 -0.6549 0.6549 -0.7557 278.3929 204.7318)" fill="#5D5E60" width="26.439" height="0.069"/>
<rect x="163.111" y="51.621" transform="matrix(-0.7557 -0.6549 0.6549 -0.7557 275.7584 206.171)" fill="#5D5E60" width="26.439" height="0.068"/>
<rect x="162.063" y="52.832" transform="matrix(-0.7557 -0.6549 0.6549 -0.7557 273.1237 207.6107)" fill="#5D5E60" width="26.439" height="0.069"/>
<rect x="161.013" y="54.042" transform="matrix(-0.7557 -0.6549 0.6549 -0.7557 270.4839 209.0511)" fill="#5D5E60" width="26.438" height="0.07"/>
<rect x="159.963" y="55.254" transform="matrix(-0.7557 -0.6549 0.6549 -0.7557 267.8515 210.4873)" fill="#5D5E60" width="26.439" height="0.069"/>
<rect x="158.916" y="56.464" transform="matrix(-0.7557 -0.6549 0.6549 -0.7557 265.2199 211.9266)" fill="#5D5E60" width="26.439" height="0.07"/>
<rect x="158.495" y="56.009" transform="matrix(-0.7557 -0.6549 0.6549 -0.7557 260.3212 209.1912)" fill="#5D5E60" width="21.364" height="0.069"/>
<path opacity="0.2" fill="#1E1E1E" enable-background="new    " d="M179.682,58.055l-8.076-31.926h-0.002l-0.248-0.98
	c0,0,0,0-0.002,0l-0.312-1.234c-0.119-0.46-0.592-0.742-1.054-0.624l-0.696,0.177l0,0l-0.696,0.178
	c-0.462,0.117-0.742,0.59-0.625,1.051l8.639,34.14l2.422,3.093l0.215-1.28l0,0L179.682,58.055z"/>
<path fill="#F9A818" d="M178.882,57.225l-0.647,3.875l-2.422-3.093l-8.64-34.14c-0.116-0.461,0.162-0.934,0.623-1.051l1.396-0.355
	c0.461-0.117,0.935,0.164,1.052,0.625L178.882,57.225z"/>
<path fill="#B37306" d="M178.882,57.225l-0.647,3.875l-0.922-3.623l-8.816-34.838l0.697-0.178c0.461-0.117,0.934,0.164,1.051,0.625
	L178.882,57.225z"/>
<path fill="#FFFFFF" d="M178.882,57.225l-0.647,3.875l-2.422-3.093l-8.326-32.906c1.035-0.459,2.055-0.709,3.072-0.782
	L178.882,57.225z"/>
<path fill="#D0D0D0" d="M178.882,57.225l-0.647,3.875l-0.922-3.623l-8.324-32.902c0.525-0.135,1.047-0.219,1.57-0.256
	L178.882,57.225z"/>
<path fill="#DA4622" d="M178.882,57.225l-0.647,3.875l-2.422-3.093l-8.076-31.927c1.037-0.473,2.057-0.723,3.07-0.782
	L178.882,57.225z"/>
<path fill="#AD2C0C" d="M178.882,57.225l-0.647,3.875l-0.922-3.623l-8.078-31.932c0.527-0.136,1.051-0.217,1.572-0.247
	L178.882,57.225z"/>
<path fill="#F0B16C" d="M178.882,57.225l-0.647,3.875l-2.422-3.093c0.465-0.215,0.967-0.395,1.5-0.53
	C177.843,57.341,178.372,57.259,178.882,57.225z"/>
<path fill="#C78B4C" d="M178.882,57.225l-0.647,3.875l-0.922-3.623C177.843,57.341,178.372,57.259,178.882,57.225z"/>
<path fill="#1E1E1E" d="M178.448,59.82l-0.216,1.28l-0.801-1.022c0.154-0.071,0.32-0.13,0.496-0.175
	C178.104,59.858,178.277,59.831,178.448,59.82z"/>
<polygon fill="#D4EAF7" points="113.1,73.259 126.255,73.259 126.255,87.762 123.076,90.94 113.1,90.94 "/>
<path fill="#2E5B78" d="M124.949,89.067c-1.021-3.146-1.17-3.029-5.381-3.089c-4.879-0.07-4.332,0.068-5.983,4.963h9.491
	L124.949,89.067z"/>
<path fill="#21445C" d="M113.739,90.478c-0.036,0.161-0.077,0.315-0.124,0.462h5.969v-4.962h-0.008l-0.008,0.129
	c-0.203-0.002-0.429-0.058-0.674-0.138C114.88,85.934,115.133,86.26,113.739,90.478z"/>
<polygon fill="#E6E6E6" points="117.623,85.949 119.576,85.949 119.576,90.94 118.494,90.94 117.623,89.478 "/>
<path fill="#FFDDB8" d="M118.084,81.544h2.975v4.303c0,1.452-2.975,1.619-2.975,0V81.544z"/>
<polygon fill="#E8C5A0" points="121.059,84.604 121.059,84.054 118.084,84.054 118.084,86.079 "/>
<path fill="#F0CEAA" d="M119.572,76.43c6.299,0,3.746,8.322,0,8.322C115.826,84.752,113.271,76.43,119.572,76.43z"/>
<path fill="#FFDDB8" d="M119.572,76.43c6.299,0,3.746,8.322,0,8.322V76.43z"/>
<path fill="#7D5F54" d="M121.33,77.266c1.02,0.433,1.436,1.741,1.671,2.622c0.343,1.28,0.149,1.17,0.606,0.195
	c0.457-0.976-0.662-5.181-3.93-5.181c-3.268,0-4.605,3.235-4.148,5.002c0.457,1.768,0.457,1.348,0.742,0.007
	C117.006,76.463,119.592,77.973,121.33,77.266z"/>
<ellipse transform="matrix(-0.976 -0.2178 0.2178 -0.976 226.3617 185.4645)" fill="#FFDDB8" cx="123.401" cy="80.258" rx="0.426" ry="0.985"/>
<ellipse transform="matrix(-0.9761 0.2172 -0.2172 -0.9761 246.1536 133.4755)" fill="#F7D6B2" cx="115.742" cy="80.264" rx="0.425" ry="0.985"/>
<polygon fill="#FFFFFF" points="121.529,85.949 119.576,85.949 119.576,90.94 120.658,90.94 121.529,89.478 "/>
<path fill="#142C3D" d="M117.294,90.94c-0.358-0.263-0.731-0.407-1.099-0.358c-0.213-0.757-0.029-1.346,0.292-2.023
	c-0.388-0.069-0.967-0.012-1.455,0.24c0.565-1.733,2.138-3.012,3.331-3.416c0,0.707-0.838,2.452-0.188,3.361
	c0.273,0.381,0.617,1.224,0.887,2.196H117.294z"/>
<path fill="#21445C" d="M117.809,90.94c-0.457-0.519-0.943-0.879-1.381-0.879c0.021-0.805,0.086-1.187,0.52-1.792
	c-0.597-0.101-1.197-0.008-1.686,0.245c0.387-1.007,1.706-2.548,2.63-2.952c0,0.707,0.146,2.242,0.499,3.2
	c0.168,0.456,0.459,1.27,0.705,2.179L117.809,90.94L117.809,90.94z"/>
<path fill="#21445C" d="M121.854,90.94c0.357-0.263,0.73-0.407,1.098-0.358c0.214-0.757,0.031-1.346-0.291-2.023
	c0.388-0.069,0.936-0.011,1.553,0.241c-0.521-1.048-1.611-2.725-2.804-3.128c0,0.707,1.111,2.211,0.212,2.922
	c-0.543,0.431-1.196,1.33-1.645,2.347L121.854,90.94L121.854,90.94z"/>
<path fill="#2E5B78" d="M121.338,90.94c0.457-0.519,0.944-0.879,1.382-0.879c-0.021-0.805-0.085-1.187-0.52-1.792
	c0.597-0.101,1.222,0.016,1.71,0.269c-0.531-0.959-1.73-2.425-2.654-2.829c0,0.707-0.082,2.106-0.5,3.102
	c-0.256,0.612-0.541,1.332-0.768,2.13L121.338,90.94L121.338,90.94z"/>
<path fill="#21445C" d="M119.246,88.471l-0.176,2.47h0.998l-0.176-2.469l1.051-2.517c-0.983-0.018-1.771-0.016-2.748,0
	L119.246,88.471z"/>
<path fill="#2E5B78" d="M120.068,90.94l-0.176-2.469l1.051-2.517c-0.492-0.009-0.935-0.013-1.377-0.013v4.999H120.068z"/>
<polygon fill="#E6E6E6" points="118.08,85.06 117.143,85.99 116.971,87.845 119.533,85.949 "/>
<polygon fill="#FFFFFF" points="121.053,85.06 121.991,85.99 122.162,87.845 119.6,85.949 "/>
<polygon fill="#999999" points="123.076,90.94 123.076,87.762 126.255,87.762 "/>
<circle fill="#FFEDC4" cx="198.677" cy="146.051" r="13.767"/>
<circle fill="#F0D8A1" cx="198.677" cy="146.051" r="12.921"/>
<path fill="#FFEDC4" d="M215.005,148.279l-0.172,0.906c-0.108,0.582-0.676,0.969-1.258,0.857l-6.647-1.258
	c-0.582-0.109-0.97-0.676-0.859-1.258l0.172-0.906c0.111-0.582,0.676-0.969,1.258-0.859l6.65,1.26
	C214.729,147.132,215.116,147.698,215.005,148.279z"/>
<path fill="#F0D8A1" d="M214.445,148.346l-0.106,0.575c-0.069,0.371-0.43,0.615-0.801,0.545l-6.242-1.182
	c-0.369-0.068-0.614-0.431-0.545-0.8l0.108-0.575c0.07-0.369,0.431-0.613,0.8-0.545l6.241,1.182
	C214.271,147.616,214.518,147.977,214.445,148.346z"/>
<circle fill="#FFEDC4" cx="198.677" cy="146.051" r="10.843"/>
<circle fill="#F0D8A1" cx="198.677" cy="146.05" r="9.768"/>
<circle fill="#6E532A" cx="198.678" cy="146.051" r="8.306"/>
<circle fill="#4F3A1C" cx="198.677" cy="146.051" r="5.999"/>
<path fill="#997C51" d="M202.093,152.598c-1.42,0.741-3.092,1.028-4.788,0.709c-4.007-0.759-6.64-4.621-5.882-8.627
	c0.32-1.697,1.199-3.148,2.408-4.199c-0.965,1.012-1.658,2.303-1.938,3.778c-0.77,4.068,1.904,7.992,5.974,8.763
	C199.343,153.3,200.8,153.126,202.093,152.598z"/>
<rect x="135.636" y="102.214" transform="matrix(-0.7552 -0.6555 0.6555 -0.7552 171.1676 269.8612)" fill="#5896CC" width="0.676" height="1.511"/>
<rect x="154.081" y="121.376" transform="matrix(-0.7552 -0.6555 0.6555 -0.7552 190.5997 317.0188)" fill="#5896CC" width="0.843" height="3.078"/>
<rect x="109.644" y="119.874" transform="matrix(0.303 0.953 -0.953 0.303 199.1834 -27.2776)" fill="#FFFFFF" width="17.19" height="5.31"/>
<rect x="131.178" y="100.927" transform="matrix(-0.7552 -0.6555 0.6555 -0.7552 163.5272 267.2219)" fill="#254554" width="0.97" height="4.296"/>
<rect x="93.273" y="38.497" fill="none" width="127.167" height="127.166"/>
<path fill="#999999" d="M130.104,224.418c0.053,0,0.1-0.014,0.143-0.041s0.076-0.068,0.103-0.125
	c0.025-0.057,0.038-0.125,0.038-0.209c0-0.08-0.013-0.146-0.038-0.203c-0.026-0.057-0.061-0.102-0.104-0.131
	s-0.09-0.043-0.141-0.045v-0.213c0.049,0.006,0.092,0.02,0.129,0.039c0.059,0.027,0.115,0.074,0.171,0.135v-0.438
	c0-0.062,0.013-0.105,0.036-0.14c0.024-0.03,0.059-0.045,0.104-0.045s0.08,0.015,0.104,0.043c0.024,0.026,0.037,0.07,0.037,0.125
	v1.306c0,0.057-0.014,0.1-0.039,0.127c-0.027,0.028-0.061,0.043-0.102,0.043s-0.074-0.015-0.1-0.045
	c-0.027-0.027-0.04-0.07-0.04-0.125v-0.029c-0.04,0.047-0.079,0.084-0.118,0.111c-0.038,0.028-0.08,0.051-0.125,0.065
	c-0.018,0.006-0.037,0.01-0.057,0.015L130.104,224.418L130.104,224.418z M129.822,224.043c0,0.08,0.013,0.148,0.038,0.205
	c0.024,0.057,0.059,0.098,0.102,0.127s0.091,0.043,0.143,0.043l0,0v0.221c-0.029,0.004-0.059,0.008-0.092,0.008
	c-0.07,0-0.137-0.016-0.196-0.045c-0.059-0.028-0.112-0.072-0.157-0.129c-0.043-0.055-0.077-0.121-0.1-0.195
	c-0.023-0.075-0.034-0.155-0.034-0.243c0-0.187,0.045-0.33,0.136-0.435c0.09-0.102,0.209-0.154,0.355-0.154
	c0.031,0,0.061,0.002,0.088,0.007v0.213h-0.002c-0.055,0-0.104,0.017-0.146,0.047c-0.042,0.029-0.075,0.074-0.099,0.133
	C129.834,223.9,129.822,223.967,129.822,224.043z"/>
<path fill="#999999" d="M131.497,223.949h0.268c-0.008-0.102-0.035-0.176-0.082-0.227c-0.047-0.052-0.109-0.076-0.186-0.076v-0.205
	h0.008c0.116,0,0.215,0.022,0.298,0.072c0.083,0.049,0.146,0.11,0.187,0.188c0.041,0.077,0.061,0.155,0.061,0.235
	c0,0.074-0.021,0.123-0.063,0.146c-0.043,0.022-0.104,0.033-0.181,0.033h-0.31V223.949L131.497,223.949z M131.497,224.646v-0.197
	c0.006,0,0.014,0,0.021,0c0.035,0,0.067-0.002,0.098-0.012c0.028-0.008,0.057-0.021,0.084-0.039
	c0.027-0.019,0.053-0.037,0.076-0.058s0.053-0.047,0.09-0.082c0.016-0.014,0.037-0.021,0.064-0.021c0.031,0,0.055,0.009,0.074,0.025
	c0.02,0.016,0.028,0.039,0.028,0.07c0,0.025-0.011,0.057-0.031,0.094c-0.021,0.035-0.053,0.07-0.095,0.104
	c-0.043,0.03-0.096,0.059-0.16,0.081c-0.063,0.021-0.137,0.031-0.221,0.031C131.517,224.646,131.507,224.646,131.497,224.646z
	 M131.228,223.949h0.27v0.168h-0.27c0.002,0.068,0.015,0.127,0.041,0.178s0.062,0.09,0.105,0.115
	c0.037,0.023,0.078,0.037,0.123,0.039v0.197c-0.176-0.006-0.313-0.062-0.414-0.162c-0.105-0.109-0.158-0.256-0.158-0.441
	c0-0.088,0.014-0.168,0.039-0.244c0.027-0.074,0.064-0.139,0.115-0.191c0.049-0.055,0.11-0.096,0.184-0.123
	c0.07-0.026,0.148-0.041,0.234-0.043v0.205h-0.002c-0.073,0-0.134,0.025-0.181,0.076S131.237,223.85,131.228,223.949z"/>
<path fill="#999999" d="M133.253,224.26c0,0.08-0.02,0.15-0.061,0.209c-0.039,0.059-0.098,0.104-0.176,0.133
	c-0.077,0.029-0.172,0.045-0.283,0.045c-0.105,0-0.197-0.016-0.273-0.049c-0.076-0.031-0.131-0.074-0.168-0.121
	c-0.035-0.049-0.055-0.098-0.055-0.147c0-0.031,0.012-0.062,0.035-0.082c0.023-0.022,0.053-0.035,0.088-0.035
	c0.031,0,0.055,0.009,0.072,0.022c0.016,0.015,0.032,0.035,0.047,0.063c0.031,0.054,0.066,0.093,0.109,0.117
	c0.043,0.026,0.1,0.041,0.173,0.041c0.06,0,0.107-0.015,0.146-0.041c0.038-0.024,0.057-0.056,0.057-0.09
	c0-0.054-0.02-0.091-0.059-0.113c-0.039-0.022-0.104-0.047-0.195-0.067c-0.102-0.025-0.184-0.052-0.248-0.08
	c-0.064-0.027-0.115-0.064-0.153-0.109c-0.038-0.047-0.058-0.102-0.058-0.168c0-0.059,0.018-0.115,0.053-0.168
	c0.035-0.053,0.088-0.096,0.157-0.127s0.152-0.047,0.249-0.047c0.077,0,0.146,0.008,0.207,0.022s0.111,0.037,0.152,0.064
	c0.041,0.026,0.072,0.057,0.094,0.088c0.021,0.032,0.032,0.063,0.032,0.096c0,0.035-0.012,0.063-0.034,0.084
	c-0.023,0.021-0.055,0.033-0.098,0.033c-0.029,0-0.056-0.01-0.077-0.026s-0.046-0.043-0.073-0.078
	c-0.021-0.027-0.049-0.052-0.078-0.068c-0.031-0.018-0.072-0.027-0.125-0.027c-0.053,0-0.098,0.014-0.133,0.035
	c-0.035,0.023-0.053,0.051-0.053,0.084s0.013,0.057,0.039,0.078c0.025,0.02,0.061,0.035,0.105,0.049
	c0.043,0.014,0.104,0.029,0.182,0.047c0.092,0.023,0.166,0.049,0.225,0.08c0.059,0.031,0.103,0.068,0.133,0.111
	C133.237,224.156,133.253,224.205,133.253,224.26z"/>
<path fill="#999999" d="M133.799,223.611v0.854c0,0.06-0.015,0.104-0.042,0.136c-0.028,0.028-0.064,0.045-0.107,0.045
	s-0.078-0.017-0.105-0.047c-0.027-0.031-0.041-0.076-0.041-0.134v-0.848c0-0.058,0.014-0.103,0.041-0.132
	c0.027-0.028,0.063-0.045,0.105-0.045s0.079,0.017,0.107,0.045C133.784,223.518,133.799,223.559,133.799,223.611L133.799,223.611z
	 M133.653,223.307c-0.042,0-0.077-0.014-0.106-0.039c-0.029-0.024-0.044-0.061-0.044-0.106c0-0.041,0.016-0.076,0.045-0.104
	c0.03-0.027,0.064-0.041,0.105-0.041c0.037,0,0.071,0.012,0.102,0.037c0.029,0.025,0.044,0.062,0.044,0.107
	c0,0.045-0.015,0.082-0.044,0.107C133.727,223.293,133.692,223.307,133.653,223.307z"/>
<path fill="#999999" d="M134.62,224.398c0.048,0,0.094-0.015,0.137-0.039c0.043-0.027,0.079-0.066,0.106-0.119
	c0.028-0.053,0.041-0.117,0.041-0.193c0-0.121-0.026-0.215-0.079-0.281c-0.053-0.065-0.121-0.1-0.205-0.102v-0.211
	c0.045,0.008,0.087,0.021,0.124,0.041c0.062,0.031,0.118,0.082,0.171,0.15v-0.039c0-0.054,0.013-0.092,0.039-0.119
	c0.024-0.029,0.057-0.043,0.096-0.043c0.059,0,0.096,0.02,0.115,0.057c0.018,0.037,0.027,0.09,0.027,0.16v0.859
	c0,0.098-0.01,0.184-0.031,0.254c-0.021,0.069-0.055,0.129-0.101,0.176c-0.046,0.045-0.106,0.08-0.182,0.104
	c-0.07,0.02-0.157,0.031-0.259,0.033v-0.207c0.064-0.002,0.115-0.012,0.154-0.031c0.042-0.021,0.071-0.051,0.088-0.09
	c0.018-0.039,0.027-0.08,0.029-0.123c0.004-0.043,0.006-0.113,0.008-0.211c-0.046,0.064-0.099,0.113-0.158,0.145
	c-0.036,0.021-0.076,0.035-0.121,0.043L134.62,224.398L134.62,224.398z M134.335,224.035c0,0.119,0.026,0.211,0.079,0.271
	c0.052,0.063,0.12,0.092,0.203,0.092h0.003v0.213c-0.029,0.006-0.06,0.008-0.092,0.008c-0.1,0-0.186-0.025-0.26-0.076
	c-0.074-0.051-0.131-0.121-0.17-0.213c-0.041-0.09-0.061-0.195-0.061-0.314c0-0.088,0.013-0.17,0.037-0.24
	c0.023-0.071,0.059-0.133,0.104-0.182c0.045-0.049,0.096-0.086,0.154-0.111c0.059-0.022,0.123-0.037,0.193-0.037
	c0.033,0,0.064,0.002,0.094,0.009v0.211h-0.005c-0.085,0-0.153,0.032-0.204,0.099C134.359,223.828,134.335,223.916,134.335,224.035
	L134.335,224.035z M134.62,224.879v0.207h-0.02c-0.103,0-0.193-0.016-0.273-0.043c-0.08-0.029-0.143-0.066-0.186-0.111
	s-0.064-0.092-0.064-0.139c0-0.037,0.012-0.066,0.036-0.088c0.024-0.023,0.054-0.035,0.089-0.035c0.043,0,0.081,0.02,0.113,0.057
	c0.016,0.021,0.033,0.041,0.05,0.062c0.017,0.021,0.036,0.035,0.057,0.051c0.021,0.015,0.045,0.024,0.073,0.031
	c0.029,0.006,0.063,0.01,0.1,0.01L134.62,224.879L134.62,224.879z"/>
<path fill="#999999" d="M135.761,223.607v0.035c0.053-0.068,0.109-0.119,0.171-0.15c0.062-0.033,0.132-0.049,0.213-0.049
	c0.077,0,0.147,0.018,0.209,0.051s0.107,0.082,0.138,0.145c0.02,0.035,0.031,0.074,0.037,0.117c0.006,0.041,0.01,0.096,0.01,0.16
	v0.551c0,0.059-0.014,0.104-0.041,0.135c-0.027,0.029-0.063,0.045-0.105,0.045c-0.045,0-0.08-0.016-0.107-0.047
	c-0.027-0.031-0.041-0.076-0.041-0.133v-0.494c0-0.096-0.014-0.172-0.041-0.223c-0.027-0.053-0.081-0.078-0.162-0.078
	c-0.053,0-0.101,0.016-0.145,0.047c-0.043,0.031-0.074,0.074-0.095,0.129c-0.015,0.045-0.022,0.129-0.022,0.248v0.371
	c0,0.059-0.014,0.105-0.041,0.135c-0.027,0.03-0.064,0.045-0.107,0.045s-0.078-0.016-0.105-0.047
	c-0.027-0.031-0.041-0.076-0.041-0.133v-0.855c0-0.057,0.012-0.1,0.037-0.127c0.024-0.026,0.058-0.041,0.1-0.041
	c0.026,0,0.051,0.007,0.07,0.019c0.021,0.015,0.039,0.031,0.051,0.058C135.755,223.541,135.761,223.572,135.761,223.607z"/>
<path fill="#999999" d="M137.349,223.949h0.268c-0.008-0.102-0.035-0.176-0.082-0.227c-0.047-0.052-0.109-0.076-0.186-0.076v-0.205
	h0.009c0.115,0,0.214,0.022,0.298,0.072c0.082,0.049,0.145,0.11,0.186,0.188c0.041,0.077,0.062,0.155,0.062,0.235
	c0,0.074-0.021,0.123-0.063,0.146c-0.043,0.022-0.104,0.033-0.181,0.033h-0.31L137.349,223.949L137.349,223.949z M137.349,224.646
	v-0.197c0.007,0,0.014,0,0.021,0c0.035,0,0.068-0.002,0.098-0.012c0.029-0.008,0.057-0.021,0.084-0.039
	c0.027-0.019,0.053-0.037,0.076-0.058s0.053-0.047,0.09-0.082c0.016-0.014,0.037-0.021,0.064-0.021c0.031,0,0.056,0.009,0.074,0.025
	c0.02,0.016,0.029,0.039,0.029,0.07c0,0.025-0.012,0.057-0.032,0.094c-0.021,0.035-0.053,0.07-0.095,0.104
	c-0.042,0.03-0.096,0.059-0.16,0.081c-0.063,0.021-0.137,0.031-0.22,0.031C137.368,224.646,137.358,224.646,137.349,224.646z
	 M137.079,223.949h0.27v0.168h-0.27c0.002,0.068,0.015,0.127,0.041,0.178c0.026,0.051,0.062,0.09,0.105,0.115
	c0.037,0.023,0.078,0.037,0.123,0.039v0.197c-0.176-0.006-0.313-0.062-0.414-0.162c-0.104-0.109-0.157-0.256-0.157-0.441
	c0-0.088,0.013-0.168,0.039-0.244c0.026-0.074,0.063-0.139,0.114-0.191c0.049-0.055,0.11-0.096,0.184-0.123
	c0.07-0.026,0.148-0.041,0.234-0.043v0.205h-0.002c-0.072,0-0.134,0.025-0.182,0.076C137.118,223.773,137.09,223.85,137.079,223.949
	z"/>
<path fill="#999999" d="M138.663,224.418c0.052,0,0.099-0.014,0.142-0.041c0.042-0.027,0.077-0.068,0.103-0.125
	c0.026-0.057,0.039-0.125,0.039-0.209c0-0.08-0.014-0.146-0.039-0.203c-0.025-0.057-0.061-0.102-0.104-0.131
	c-0.043-0.029-0.09-0.043-0.141-0.045v-0.213c0.049,0.008,0.091,0.02,0.128,0.039c0.059,0.027,0.115,0.074,0.171,0.135v-0.438
	c0-0.062,0.012-0.105,0.037-0.14c0.023-0.03,0.059-0.045,0.104-0.045s0.078,0.015,0.104,0.043c0.023,0.026,0.035,0.07,0.035,0.125
	v1.306c0,0.057-0.012,0.1-0.038,0.127c-0.026,0.028-0.06,0.043-0.101,0.043s-0.074-0.015-0.102-0.045
	c-0.025-0.027-0.039-0.07-0.039-0.125v-0.029c-0.039,0.047-0.078,0.084-0.117,0.111c-0.039,0.028-0.08,0.051-0.125,0.065
	c-0.019,0.006-0.037,0.01-0.057,0.015V224.418z M138.38,224.043c0,0.08,0.014,0.148,0.038,0.205s0.06,0.098,0.103,0.127
	s0.09,0.043,0.142,0.043h0.001v0.221c-0.029,0.004-0.06,0.008-0.092,0.008c-0.07,0-0.137-0.016-0.197-0.045
	c-0.06-0.028-0.112-0.072-0.156-0.129c-0.045-0.055-0.078-0.121-0.1-0.195c-0.023-0.075-0.035-0.155-0.035-0.243
	c0-0.187,0.045-0.33,0.136-0.435c0.091-0.102,0.21-0.154,0.356-0.154c0.031,0,0.061,0.002,0.088,0.007v0.213h-0.004
	c-0.053,0-0.102,0.017-0.145,0.047c-0.043,0.029-0.076,0.074-0.1,0.133C138.392,223.9,138.38,223.967,138.38,224.043z"/>
<path fill="#999999" d="M140.664,224.418h0.01c0.074,0,0.138-0.033,0.192-0.098c0.054-0.064,0.08-0.156,0.08-0.277
	c0-0.078-0.011-0.145-0.033-0.201c-0.021-0.057-0.055-0.102-0.096-0.131c-0.041-0.031-0.089-0.047-0.144-0.047h-0.01v-0.213
	c0.027-0.004,0.057-0.006,0.088-0.006c0.099,0,0.185,0.022,0.259,0.07c0.074,0.047,0.131,0.112,0.172,0.202
	c0.041,0.089,0.061,0.193,0.061,0.314c0,0.09-0.011,0.172-0.033,0.245c-0.023,0.074-0.057,0.142-0.1,0.195
	c-0.043,0.055-0.096,0.098-0.158,0.127c-0.061,0.029-0.129,0.045-0.203,0.045c-0.029,0-0.059-0.002-0.085-0.008V224.418
	L140.664,224.418z M140.382,224.051c0,0.119,0.026,0.209,0.08,0.271c0.052,0.061,0.119,0.094,0.202,0.096v0.221
	c-0.015-0.002-0.03-0.004-0.044-0.008c-0.04-0.012-0.074-0.025-0.103-0.043c-0.029-0.018-0.052-0.037-0.072-0.055
	c-0.02-0.02-0.046-0.047-0.078-0.086v0.029c0,0.057-0.013,0.098-0.04,0.127c-0.027,0.028-0.061,0.043-0.102,0.043
	c-0.043,0-0.076-0.015-0.102-0.043c-0.024-0.029-0.037-0.07-0.037-0.127v-1.291c0-0.062,0.013-0.105,0.037-0.138
	c0.023-0.03,0.058-0.045,0.102-0.045c0.045,0,0.08,0.015,0.104,0.043c0.024,0.029,0.037,0.072,0.037,0.125v0.453
	c0.056-0.06,0.112-0.104,0.17-0.133c0.037-0.021,0.079-0.033,0.127-0.041v0.213c-0.052,0.002-0.099,0.019-0.142,0.047
	s-0.078,0.074-0.104,0.133C140.391,223.902,140.382,223.971,140.382,224.051z"/>
<path fill="#999999" d="M141.726,224.684l0.027-0.065l-0.365-0.918c-0.021-0.054-0.033-0.091-0.033-0.113
	c0-0.024,0.006-0.049,0.02-0.071c0.013-0.021,0.031-0.037,0.054-0.052c0.023-0.014,0.046-0.021,0.071-0.021
	c0.042,0,0.074,0.015,0.096,0.041c0.022,0.027,0.041,0.066,0.058,0.115l0.251,0.729l0.236-0.677c0.02-0.057,0.037-0.1,0.051-0.131
	c0.016-0.028,0.032-0.051,0.049-0.063c0.018-0.01,0.041-0.016,0.072-0.016c0.022,0,0.044,0.006,0.064,0.018s0.036,0.029,0.047,0.049
	c0.012,0.02,0.018,0.041,0.018,0.064c-0.002,0.012-0.008,0.031-0.014,0.057c-0.007,0.027-0.016,0.053-0.024,0.078l-0.386,1.01
	c-0.033,0.09-0.065,0.158-0.098,0.209c-0.031,0.051-0.074,0.09-0.126,0.117c-0.053,0.027-0.124,0.041-0.212,0.041
	c-0.087,0-0.152-0.01-0.195-0.029c-0.043-0.018-0.064-0.053-0.064-0.102c0-0.035,0.01-0.061,0.03-0.08
	c0.021-0.018,0.052-0.027,0.092-0.027c0.016,0,0.031,0.002,0.046,0.008c0.02,0.004,0.035,0.006,0.049,0.006
	c0.035,0,0.062-0.006,0.08-0.016c0.02-0.01,0.037-0.027,0.053-0.053S141.705,224.732,141.726,224.684z"/>
<path fill="#999999" d="M148.38,223.068h0.089v-0.111c0-0.115,0.015-0.207,0.044-0.273c0.029-0.067,0.078-0.119,0.148-0.149
	c0.07-0.031,0.166-0.048,0.289-0.048c0.214,0,0.322,0.054,0.322,0.158c0,0.035-0.012,0.064-0.034,0.088
	c-0.022,0.025-0.049,0.037-0.08,0.037c-0.015,0-0.039-0.002-0.074-0.008s-0.064-0.008-0.089-0.008c-0.067,0-0.109,0.02-0.129,0.059
	s-0.028,0.097-0.028,0.168v0.088h0.091c0.141,0,0.211,0.043,0.211,0.127c0,0.062-0.019,0.101-0.057,0.115
	c-0.037,0.017-0.088,0.025-0.154,0.025h-0.091v0.977c0,0.074-0.019,0.129-0.052,0.168c-0.035,0.039-0.08,0.058-0.135,0.058
	c-0.053,0-0.096-0.019-0.131-0.058s-0.052-0.094-0.052-0.168v-0.977h-0.102c-0.056,0-0.097-0.014-0.127-0.039
	c-0.03-0.023-0.045-0.057-0.045-0.096C148.195,223.113,148.257,223.068,148.38,223.068z"/>
<path fill="#999999" d="M149.7,224.004v0.309c0,0.074-0.018,0.133-0.053,0.17s-0.08,0.056-0.135,0.056
	c-0.053,0-0.097-0.019-0.131-0.058c-0.034-0.037-0.051-0.094-0.051-0.168v-1.026c0-0.166,0.059-0.248,0.179-0.248
	c0.062,0,0.106,0.021,0.134,0.058c0.027,0.038,0.041,0.096,0.044,0.172c0.044-0.076,0.09-0.134,0.136-0.172
	c0.047-0.037,0.109-0.058,0.186-0.058c0.078,0,0.153,0.021,0.227,0.058c0.073,0.038,0.109,0.09,0.109,0.153
	c0,0.047-0.016,0.082-0.047,0.11c-0.031,0.029-0.064,0.045-0.101,0.045c-0.013,0-0.046-0.008-0.099-0.024
	c-0.051-0.019-0.097-0.024-0.137-0.024c-0.054,0-0.098,0.016-0.133,0.043c-0.033,0.029-0.061,0.069-0.08,0.127
	c-0.018,0.055-0.031,0.123-0.039,0.199C149.703,223.801,149.7,223.895,149.7,224.004z"/>
<path fill="#999999" d="M151.121,223.668h0.334c-0.008-0.127-0.043-0.221-0.102-0.283c-0.06-0.063-0.138-0.094-0.232-0.094v-0.258
	h0.012c0.145,0,0.268,0.031,0.371,0.092s0.18,0.139,0.232,0.236c0.051,0.096,0.076,0.195,0.076,0.295c0,0.092-0.025,0.152-0.08,0.18
	c-0.053,0.027-0.127,0.041-0.226,0.041h-0.387L151.121,223.668L151.121,223.668z M151.121,224.537v-0.246
	c0.01,0.002,0.02,0.002,0.027,0.002c0.045,0,0.086-0.006,0.121-0.016c0.037-0.01,0.071-0.027,0.104-0.049
	c0.035-0.021,0.065-0.045,0.097-0.07c0.029-0.025,0.065-0.061,0.11-0.104c0.021-0.017,0.047-0.025,0.082-0.025
	c0.037,0,0.067,0.012,0.092,0.031c0.022,0.021,0.035,0.051,0.035,0.088c0,0.035-0.013,0.072-0.039,0.117
	c-0.024,0.045-0.065,0.088-0.117,0.129c-0.053,0.041-0.118,0.073-0.198,0.104c-0.08,0.025-0.172,0.039-0.275,0.039
	C151.146,224.537,151.135,224.537,151.121,224.537z M150.786,223.668h0.335v0.209h-0.335c0.001,0.084,0.019,0.158,0.051,0.223
	s0.077,0.111,0.131,0.146c0.048,0.026,0.099,0.043,0.153,0.047v0.246c-0.219-0.009-0.393-0.074-0.516-0.203
	c-0.132-0.135-0.197-0.317-0.197-0.549c0-0.108,0.017-0.211,0.05-0.306c0.031-0.094,0.079-0.174,0.142-0.239
	c0.063-0.066,0.139-0.117,0.229-0.152c0.088-0.034,0.185-0.053,0.292-0.055v0.258l0,0c-0.092,0-0.168,0.031-0.229,0.095
	C150.834,223.449,150.798,223.543,150.786,223.668z"/>
<path fill="#999999" d="M152.768,223.668h0.334c-0.01-0.127-0.043-0.221-0.102-0.283s-0.137-0.094-0.232-0.094v-0.258h0.012
	c0.146,0,0.269,0.031,0.371,0.092s0.181,0.139,0.232,0.236c0.051,0.096,0.076,0.195,0.076,0.295c0,0.092-0.027,0.152-0.08,0.18
	s-0.127,0.041-0.225,0.041h-0.387V223.668L152.768,223.668z M152.768,224.537v-0.246c0.008,0.002,0.019,0.002,0.027,0.002
	c0.045,0,0.084-0.006,0.121-0.016s0.072-0.027,0.105-0.049c0.035-0.021,0.065-0.045,0.096-0.07c0.029-0.025,0.066-0.061,0.113-0.104
	c0.018-0.017,0.045-0.025,0.08-0.025c0.037,0,0.067,0.012,0.092,0.031c0.022,0.021,0.035,0.051,0.035,0.088
	c0,0.035-0.015,0.072-0.039,0.117c-0.027,0.045-0.066,0.088-0.119,0.129s-0.119,0.073-0.197,0.104
	c-0.082,0.025-0.172,0.039-0.275,0.039C152.793,224.537,152.779,224.537,152.768,224.537z M152.434,223.668h0.334v0.209h-0.334
	c0,0.084,0.019,0.158,0.049,0.223c0.033,0.064,0.078,0.111,0.134,0.146c0.047,0.026,0.098,0.043,0.151,0.047v0.246
	c-0.219-0.009-0.391-0.074-0.516-0.203c-0.131-0.135-0.197-0.317-0.197-0.549c0-0.108,0.018-0.211,0.049-0.306
	c0.033-0.094,0.08-0.174,0.144-0.239c0.062-0.066,0.139-0.117,0.229-0.152c0.088-0.034,0.187-0.053,0.291-0.055v0.258h-0.002
	c-0.092,0-0.166,0.031-0.227,0.095C152.48,223.449,152.445,223.543,152.434,223.668z"/>
<path fill="#999999" d="M154.797,223.781c0-0.1-0.014-0.182-0.043-0.252c-0.031-0.07-0.07-0.125-0.125-0.16
	c-0.053-0.039-0.109-0.057-0.174-0.057h-0.01v-0.267c0.031-0.006,0.063-0.008,0.1-0.008c0.113,0,0.219,0.028,0.314,0.088
	c0.095,0.06,0.17,0.146,0.227,0.256c0.055,0.113,0.082,0.246,0.082,0.402c0,0.112-0.016,0.217-0.047,0.313
	c-0.033,0.094-0.076,0.176-0.133,0.237c-0.055,0.063-0.121,0.115-0.197,0.149c-0.076,0.033-0.158,0.052-0.246,0.052
	c-0.035,0-0.068-0.002-0.1-0.009v-0.276h0.01c0.061,0,0.117-0.019,0.17-0.053c0.053-0.035,0.094-0.091,0.125-0.16
	C154.781,223.967,154.797,223.881,154.797,223.781z M154.445,223.313c-0.098,0.002-0.182,0.043-0.248,0.119
	c-0.07,0.08-0.105,0.199-0.105,0.355c0,0.146,0.035,0.262,0.105,0.342c0.066,0.08,0.148,0.121,0.248,0.123v0.277
	c-0.063-0.008-0.119-0.027-0.166-0.055c-0.072-0.043-0.141-0.105-0.205-0.188v0.555c0,0.162-0.059,0.244-0.176,0.244
	c-0.07,0-0.117-0.021-0.14-0.063c-0.022-0.041-0.032-0.104-0.032-0.185v-1.592c0-0.07,0.016-0.123,0.045-0.158
	c0.03-0.032,0.071-0.051,0.127-0.051c0.051,0,0.094,0.019,0.127,0.053c0.033,0.035,0.049,0.086,0.049,0.152v0.045
	c0.07-0.084,0.143-0.147,0.217-0.188c0.047-0.025,0.098-0.043,0.154-0.053V223.313L154.445,223.313z"/>
<path fill="#999999" d="M155.834,223.246v1.066c0,0.074-0.018,0.131-0.053,0.168c-0.035,0.039-0.08,0.057-0.135,0.057
	c-0.054,0-0.097-0.02-0.131-0.057c-0.033-0.039-0.052-0.097-0.052-0.168v-1.058c0-0.071,0.019-0.127,0.052-0.164
	c0.034-0.036,0.077-0.055,0.131-0.055c0.055,0,0.1,0.019,0.135,0.055C155.816,223.128,155.834,223.18,155.834,223.246
	L155.834,223.246z M155.652,222.865c-0.053,0-0.098-0.018-0.133-0.047c-0.035-0.033-0.056-0.078-0.056-0.135
	c0-0.054,0.021-0.097,0.058-0.129c0.037-0.035,0.08-0.052,0.131-0.052c0.047,0,0.09,0.015,0.127,0.045
	c0.037,0.031,0.055,0.076,0.055,0.136c0,0.057-0.018,0.102-0.055,0.133C155.744,222.848,155.701,222.865,155.652,222.865z"/>
<path fill="#999999" d="M157.135,224.369l-0.326-0.537l-0.199,0.191v0.293c0,0.07-0.02,0.125-0.057,0.164s-0.08,0.057-0.129,0.057
	c-0.057,0-0.102-0.018-0.133-0.057c-0.033-0.037-0.049-0.094-0.049-0.168v-1.574c0-0.082,0.014-0.146,0.047-0.188
	c0.031-0.043,0.076-0.063,0.135-0.063c0.057,0,0.102,0.02,0.135,0.059s0.051,0.096,0.051,0.172v0.896l0.414-0.438
	c0.054-0.053,0.093-0.09,0.117-0.108c0.029-0.021,0.062-0.029,0.101-0.029c0.047,0,0.084,0.014,0.114,0.043
	c0.031,0.029,0.047,0.066,0.047,0.109c0,0.055-0.051,0.127-0.149,0.217l-0.194,0.18l0.377,0.596
	c0.028,0.045,0.049,0.078,0.061,0.103c0.014,0.021,0.018,0.045,0.018,0.063c0,0.059-0.016,0.105-0.047,0.139
	c-0.033,0.033-0.074,0.052-0.127,0.052c-0.045,0-0.08-0.013-0.104-0.035C157.209,224.477,157.178,224.432,157.135,224.369z"/>
<path fill="#999999" d="M158.049,224.537c-0.057,0-0.104-0.018-0.145-0.055c-0.041-0.035-0.063-0.086-0.063-0.15
	c0-0.055,0.021-0.102,0.06-0.143c0.039-0.039,0.088-0.06,0.145-0.06s0.104,0.021,0.145,0.06s0.062,0.086,0.062,0.143
	c0,0.064-0.021,0.115-0.062,0.15C158.148,224.52,158.102,224.537,158.049,224.537z"/>
<path fill="#999999" d="M159.994,224.08c0,0.047-0.014,0.096-0.041,0.148c-0.027,0.051-0.068,0.102-0.125,0.147
	c-0.057,0.049-0.127,0.086-0.213,0.115c-0.086,0.026-0.184,0.043-0.291,0.043c-0.227,0-0.404-0.066-0.533-0.199
	c-0.127-0.133-0.193-0.313-0.193-0.535c0-0.151,0.031-0.284,0.09-0.401c0.06-0.115,0.144-0.205,0.254-0.271
	c0.111-0.065,0.242-0.096,0.396-0.096c0.096,0,0.184,0.014,0.264,0.043c0.08,0.026,0.146,0.063,0.203,0.106
	c0.055,0.045,0.098,0.092,0.127,0.142c0.029,0.051,0.045,0.098,0.045,0.141c0,0.045-0.018,0.082-0.051,0.113
	c-0.033,0.028-0.072,0.045-0.119,0.045c-0.031,0-0.057-0.008-0.076-0.022c-0.021-0.017-0.043-0.041-0.067-0.076
	c-0.045-0.068-0.093-0.119-0.142-0.154s-0.112-0.051-0.188-0.051c-0.109,0-0.197,0.041-0.264,0.127
	c-0.067,0.086-0.103,0.201-0.103,0.35c0,0.07,0.009,0.133,0.027,0.191c0.016,0.059,0.041,0.106,0.073,0.147
	c0.031,0.041,0.07,0.072,0.117,0.095c0.045,0.021,0.097,0.03,0.15,0.03c0.074,0,0.139-0.018,0.191-0.051
	c0.053-0.035,0.098-0.086,0.139-0.156c0.023-0.043,0.049-0.073,0.074-0.098s0.059-0.035,0.096-0.035
	c0.045,0,0.082,0.019,0.111,0.052C159.979,224.006,159.994,224.043,159.994,224.08z"/>
<path fill="#999999" d="M161.328,223.787c0-0.15-0.033-0.268-0.1-0.352c-0.064-0.084-0.152-0.125-0.265-0.127v-0.271
	c0.111,0,0.211,0.018,0.302,0.053c0.092,0.037,0.17,0.088,0.233,0.154s0.114,0.146,0.147,0.238s0.051,0.192,0.051,0.305
	c0,0.109-0.018,0.211-0.051,0.303c-0.035,0.094-0.086,0.174-0.149,0.24s-0.144,0.119-0.231,0.154
	c-0.09,0.035-0.189,0.053-0.302,0.053v-0.275c0.111,0,0.199-0.041,0.265-0.125C161.295,224.053,161.328,223.936,161.328,223.787z
	 M160.965,223.309h-0.004c-0.072,0-0.135,0.021-0.189,0.058c-0.055,0.038-0.098,0.094-0.129,0.166
	c-0.029,0.071-0.043,0.157-0.043,0.256c0,0.096,0.015,0.183,0.043,0.252c0.029,0.071,0.072,0.127,0.127,0.166
	c0.056,0.039,0.119,0.058,0.191,0.058h0.004v0.274h-0.004c-0.111,0-0.211-0.019-0.301-0.056c-0.09-0.034-0.166-0.086-0.232-0.153
	c-0.063-0.065-0.115-0.146-0.148-0.238c-0.032-0.09-0.051-0.19-0.051-0.303s0.019-0.215,0.054-0.308
	c0.032-0.094,0.082-0.172,0.146-0.237c0.064-0.066,0.141-0.117,0.232-0.152c0.091-0.034,0.191-0.053,0.301-0.053h0.004V223.309z"/>
<path fill="#999999" d="M163.219,223.814v0.49c0,0.077-0.02,0.137-0.055,0.176c-0.033,0.037-0.08,0.057-0.139,0.057
	c-0.055,0-0.103-0.02-0.135-0.057c-0.035-0.039-0.054-0.099-0.054-0.176v-0.589c0-0.094-0.004-0.164-0.01-0.217
	c-0.007-0.051-0.022-0.095-0.052-0.127c-0.028-0.033-0.071-0.049-0.133-0.049c-0.121,0-0.201,0.041-0.238,0.125
	c-0.038,0.081-0.059,0.2-0.059,0.356v0.498c0,0.076-0.018,0.135-0.053,0.174c-0.033,0.039-0.08,0.06-0.137,0.06
	c-0.055,0-0.102-0.021-0.137-0.06s-0.056-0.098-0.056-0.174v-1.057c0-0.068,0.019-0.121,0.05-0.158
	c0.032-0.035,0.073-0.053,0.127-0.053c0.051,0,0.094,0.016,0.127,0.051c0.032,0.033,0.051,0.08,0.051,0.139v0.035
	c0.063-0.076,0.133-0.133,0.205-0.168c0.072-0.037,0.154-0.055,0.242-0.055c0.094,0,0.174,0.018,0.239,0.055
	c0.066,0.037,0.123,0.094,0.166,0.168c0.062-0.074,0.129-0.131,0.199-0.168c0.069-0.037,0.149-0.055,0.235-0.055
	c0.103,0,0.189,0.02,0.263,0.059c0.071,0.041,0.127,0.098,0.162,0.172c0.032,0.066,0.049,0.172,0.049,0.314v0.721
	c0,0.078-0.019,0.137-0.054,0.176c-0.034,0.037-0.082,0.058-0.139,0.058s-0.102-0.021-0.137-0.06
	c-0.037-0.039-0.055-0.098-0.055-0.174v-0.621c0-0.078-0.004-0.143-0.01-0.19c-0.008-0.048-0.025-0.089-0.056-0.119
	c-0.028-0.033-0.075-0.049-0.137-0.049c-0.047,0-0.095,0.016-0.138,0.043c-0.045,0.028-0.078,0.067-0.104,0.116
	C163.23,223.547,163.219,223.656,163.219,223.814z"/>
<path fill="#999999" d="M145.472,222.084c-0.008-0.023-0.016-0.047-0.023-0.07c0.123-0.012,0.207-0.16,0.146-0.271
	c-0.029-0.063-0.098-0.101-0.166-0.103h-0.008c-0.057,0.002-0.113,0.025-0.146,0.076c-0.079,0.102-0.018,0.26,0.104,0.293
	c0.008,0.025,0.015,0.051,0.022,0.076c-0.187,0.014-0.376,0.055-0.532,0.16c0.016,0.045,0.033,0.09,0.049,0.137
	c0.314-0.139,0.668-0.109,0.999-0.076c0.011-0.043,0.022-0.088,0.033-0.131C145.8,222.107,145.634,222.084,145.472,222.084z"/>
<path fill="#999999" d="M147.343,222.592c-0.05,0.025-0.06,0.086-0.057,0.137c-0.055,0.054-0.029,0.135-0.035,0.201
	c-0.012,0.039-0.058,0.043-0.09,0.057c-0.043-0.065-0.089-0.129-0.146-0.184v-0.004c-0.064-0.059-0.133-0.113-0.205-0.16
	c-0.058,0.063-0.119,0.123-0.174,0.189c0.109,0.121,0.213,0.252,0.303,0.389c0.063,0.105,0.113,0.217,0.156,0.332
	c0.094-0.049,0.186-0.098,0.279-0.148c-0.049-0.112-0.105-0.225-0.166-0.334c0.042-0.022,0.098-0.045,0.104-0.098
	c0.006-0.061-0.008-0.125,0.027-0.178c0.072,0.047,0.182-0.006,0.184-0.094C147.532,222.605,147.417,222.541,147.343,222.592z"/>
<path fill="#999999" d="M146.608,223.35c-0.021,0.152-0.166,0.281-0.322,0.271v0.609c0.285-0.076,0.562-0.189,0.816-0.338
	c0,0-0.055-0.297-0.266-0.621c-0.121-0.203-0.254-0.404-0.434-0.562c-0.037-0.03-0.076-0.063-0.117-0.092v0.354
	c0.039,0,0.079,0.008,0.117,0.018C146.545,223.041,146.638,223.201,146.608,223.35z M146.286,223.621L146.286,223.621
	c-0.09,0.006-0.178-0.035-0.238-0.1c-0.044-0.056-0.08-0.117-0.086-0.188c-0.021-0.153,0.088-0.313,0.238-0.353
	c0.029-0.008,0.058-0.01,0.086-0.01v-0.354c-0.186-0.129-0.409-0.211-0.639-0.211c-0.281-0.004-0.566,0.033-0.836,0.119v0.336
	c0.049,0,0.1,0.006,0.147,0.02c0.054,0.014,0.104,0.039,0.151,0.07c0.096,0.068,0.168,0.168,0.199,0.281
	c0.045,0.146,0.017,0.311-0.068,0.436c-0.061,0.09-0.148,0.158-0.25,0.197c-0.057,0.021-0.119,0.031-0.18,0.031v0.453h0.014
	c0.33,0.01,0.664,0.02,0.991-0.027c0.159-0.021,0.315-0.053,0.47-0.094L146.286,223.621L146.286,223.621z M144.812,222.527v0.336
	c-0.086-0.002-0.17,0.018-0.245,0.059c-0.156,0.084-0.267,0.25-0.273,0.428c-0.011,0.144,0.046,0.283,0.142,0.389
	c0.096,0.107,0.236,0.16,0.377,0.16v0.453c-0.33-0.018-0.655-0.088-0.975-0.168c-0.059-0.297-0.061-0.619,0.069-0.896
	c0.135-0.312,0.401-0.552,0.707-0.687C144.679,222.574,144.744,222.549,144.812,222.527z"/>
<path fill="#999999" d="M143.91,222.82c-0.132,0.078-0.24,0.191-0.331,0.313c-0.025-0.049-0.034-0.106-0.068-0.149
	c-0.02-0.027-0.055-0.017-0.082-0.019c-0.035,0.005-0.07-0.006-0.103-0.016c0.038-0.054,0.028-0.138-0.03-0.173
	c-0.063-0.047-0.162-0.006-0.178,0.068c-0.027,0.082,0.061,0.166,0.142,0.146c0.042,0.063,0.12,0.053,0.187,0.055
	c0.029,0.052,0.053,0.106,0.09,0.154c-0.07,0.139-0.111,0.295-0.113,0.45c0.09,0.039,0.181,0.078,0.271,0.115
	c0.006-0.1,0.017-0.197,0.031-0.293c0.031-0.213,0.153-0.396,0.299-0.549C143.987,222.889,143.948,222.855,143.91,222.82z"/>
<path fill="#999999" d="M146.032,224.416c-0.335,0.074-0.68,0.096-1.021,0.08c-0.231-0.012-0.463-0.033-0.689-0.084
	c-0.159-0.031-0.316-0.078-0.474-0.123c0.024,0.201,0.106,0.393,0.223,0.559c0.138,0.193,0.32,0.371,0.548,0.441
	c0.168,0.045,0.365,0.102,0.689,0.104h0.033h0.033c0.303-0.006,0.601-0.045,0.865-0.156c0.172-0.073,0.332-0.174,0.471-0.301
	c0.118-0.11,0.212-0.252,0.276-0.401c0.062-0.142,0.118-0.396,0.112-0.527C146.771,224.191,146.405,224.354,146.032,224.416z"/>
<rect x="-14.5" y="188.861" fill="#333333" width="325" height="60"/>
<text transform="matrix(1 0 0 1 84.1846 227.4238)" fill="#ECF0F1" font-family="'CenturyGothic'" font-size="31">General</text>
<g>
	<g>
		
			<rect x="91.425" y="164.96" transform="matrix(-0.8945 -0.4471 0.4471 -0.8945 155.1754 366.6948)" fill="#5D5E60" width="58.867" height="0.153"/>
	</g>
	<g>
		
			<rect x="93.425" y="160.96" transform="matrix(-0.8945 -0.4471 0.4471 -0.8945 160.7527 360.0111)" fill="#5D5E60" width="58.867" height="0.153"/>
	</g>
	<g>
		
			<rect x="95.425" y="156.96" transform="matrix(-0.8945 -0.4471 0.4471 -0.8945 166.3325 353.3273)" fill="#5D5E60" width="58.868" height="0.153"/>
	</g>
	<g>
		
			<rect x="97.425" y="152.96" transform="matrix(-0.8945 -0.4471 0.4471 -0.8945 171.9098 346.6435)" fill="#5D5E60" width="58.868" height="0.153"/>
	</g>
	<g>
		
			<rect x="99.425" y="148.96" transform="matrix(-0.8945 -0.4471 0.4471 -0.8945 177.4872 339.9598)" fill="#5D5E60" width="58.868" height="0.153"/>
	</g>
	<g>
		
			<rect x="101.425" y="144.96" transform="matrix(-0.8945 -0.4471 0.4471 -0.8945 183.0645 333.276)" fill="#5D5E60" width="58.868" height="0.153"/>
	</g>
	<g>
		
			<rect x="103.425" y="140.96" transform="matrix(-0.8945 -0.4471 0.4471 -0.8945 188.6446 326.5914)" fill="#5D5E60" width="58.867" height="0.154"/>
	</g>
	<g>
		
			<rect x="105.425" y="136.96" transform="matrix(-0.8945 -0.4471 0.4471 -0.8945 194.2219 319.9076)" fill="#5D5E60" width="58.867" height="0.154"/>
	</g>
	<g>
		
			<rect x="107.425" y="132.96" transform="matrix(-0.8945 -0.4471 0.4471 -0.8945 199.799 313.2242)" fill="#5D5E60" width="58.867" height="0.154"/>
	</g>
	<g>
		
			<rect x="109.425" y="128.96" transform="matrix(-0.8945 -0.4471 0.4471 -0.8945 205.3737 306.5413)" fill="#5D5E60" width="58.867" height="0.153"/>
	</g>
	<g>
		
			<rect x="111.425" y="124.96" transform="matrix(-0.8945 -0.4471 0.4471 -0.8945 210.9536 299.8565)" fill="#5D5E60" width="58.867" height="0.154"/>
	</g>
	<g>
		
			<rect x="113.425" y="120.96" transform="matrix(-0.8945 -0.4471 0.4471 -0.8945 216.531 293.1727)" fill="#5D5E60" width="58.867" height="0.154"/>
	</g>
	<g>
		
			<rect x="115.425" y="116.96" transform="matrix(-0.8945 -0.4471 0.4471 -0.8945 222.1083 286.489)" fill="#5D5E60" width="58.867" height="0.154"/>
	</g>
	<g>
		
			<rect x="117.425" y="112.96" transform="matrix(-0.8945 -0.4471 0.4471 -0.8945 227.6858 279.8042)" fill="#5D5E60" width="58.867" height="0.153"/>
	</g>
	<g>
		
			<rect x="119.425" y="108.96" transform="matrix(-0.8945 -0.4471 0.4471 -0.8945 233.2632 273.1204)" fill="#5D5E60" width="58.867" height="0.153"/>
	</g>
	<g>
		
			<rect x="121.426" y="104.96" transform="matrix(-0.8945 -0.4471 0.4471 -0.8945 238.8391 266.4382)" fill="#5D5E60" width="58.866" height="0.153"/>
	</g>
	<g>
		
			<rect x="123.426" y="100.96" transform="matrix(-0.8945 -0.4471 0.4471 -0.8945 244.4164 259.7544)" fill="#5D5E60" width="58.866" height="0.153"/>
	</g>
	<g>
		
			<rect x="125.426" y="96.96" transform="matrix(-0.8945 -0.4471 0.4471 -0.8945 249.9937 253.0706)" fill="#5D5E60" width="58.866" height="0.153"/>
	</g>
	<g>
		
			<rect x="127.426" y="92.96" transform="matrix(-0.8945 -0.4471 0.4471 -0.8945 255.5711 246.3869)" fill="#5D5E60" width="58.866" height="0.153"/>
	</g>
</g>
<rect x="119.609" y="109.801" transform="matrix(-0.7548 -0.656 0.656 -0.7548 174.8531 288.0462)" fill="#254554" width="43.315" height="3.078"/>
<polygon fill="#5896CC" points="136.435,102.945 125.597,96.097 126.159,95.449 136.997,102.298 "/>
<rect x="123.197" y="99.083" transform="matrix(-0.7548 -0.656 0.656 -0.7548 160.8954 262.6127)" fill="#5896CC" width="12.674" height="4.298"/>
<path fill="#5896CC" d="M156.563,126.498c0.416,0.172,1.086,0.619,1.039,1.721c0.955-0.502,2.77,0.307,3.241,0.648
	c0.095,0.068,0.222,0.072,0.326,0.01l-2.75-2.391c-0.112,0.063-0.262,0.053-0.364-0.037c-0.134-0.117-0.148-0.318-0.031-0.451
	c0.115-0.135,0.317-0.148,0.451-0.031c0.104,0.09,0.135,0.234,0.088,0.355l2.75,2.391c0.049-0.115,0.028-0.242-0.056-0.322
	c-0.432-0.418-1.459-2.104-1.094-3.119c-0.838,0.197-1.504-0.192-1.851-0.789L156.563,126.498z"/>
</svg>
