<?xml version="1.0" encoding="utf-8"?>
<!-- Generator: Adobe Illustrator 16.0.0, SVG Export Plug-In . SVG Version: 6.00 Build 0)  -->
<!DOCTYPE svg PUBLIC "-//W3C//DTD SVG 1.1//EN" "http://www.w3.org/Graphics/SVG/1.1/DTD/svg11.dtd">
<svg version="1.1" id="Layer_1" xmlns="http://www.w3.org/2000/svg" xmlns:xlink="http://www.w3.org/1999/xlink" x="0px" y="0px"
	 width="300px" height="240px" viewBox="0 0 300 240" enable-background="new 0 0 300 240" xml:space="preserve">
<g>
	<g>
		<g>
			<g>
				<g>
					<defs>
						<rect id="SVGID_1_" x="-12.854" y="-39.905" width="319.354" height="320.593"/>
					</defs>
					<clipPath id="SVGID_2_">
						<use xlink:href="#SVGID_1_"  overflow="visible"/>
					</clipPath>
					
						<radialGradient id="SVGID_3_" cx="1125.8125" cy="976.7637" r="229.9149" gradientTransform="matrix(0.9962 0 0 1 -978.9102 -861.9404)" gradientUnits="userSpaceOnUse">
						<stop  offset="0" style="stop-color:#FFFFFF"/>
						<stop  offset="0.2551" style="stop-color:#FCFCFC"/>
						<stop  offset="0.465" style="stop-color:#F2F2F2"/>
						<stop  offset="0.6589" style="stop-color:#E0E0E0"/>
						<stop  offset="0.8419" style="stop-color:#C8C8C8"/>
						<stop  offset="1" style="stop-color:#ADADAD"/>
					</radialGradient>
					<rect x="-87.801" y="-113.693" clip-path="url(#SVGID_2_)" fill="url(#SVGID_3_)" width="460.852" height="457.033"/>
				</g>
			</g>
		</g>
	</g>
</g>
<rect x="0.146" y="8.365" fill="none" width="299.993" height="179.986"/>
<rect x="0.146" y="8.365" fill="none" width="299.993" height="179.986"/>
<rect x="0.146" y="8.365" fill="none" width="299.993" height="179.986"/>
<rect x="0.146" y="8.365" fill="none" width="299.993" height="179.986"/>
<rect x="0.146" y="8.365" fill="none" width="299.993" height="179.986"/>
<rect x="0.146" y="8.365" fill="none" width="299.993" height="179.986"/>
<g>
	<path fill="#231F20" d="M199.803,201.437c-0.2-0.961-2.908-10.17-2.908-11.223c0-2.979-2.732-2.979-4.967-5.465
		c-2.236-2.483-2.732-5.464-4.473-8.197c-1.738-2.73-4.719-4.223-4.719-4.223s-9.494-1.62-9.476-1.732
		c-1.733,0.186-56.008,4.361-62.808,10.676c-5.079,4.716-6.563,17.818-6.433,20.164H199.803z"/>
	<path fill="#BF8C76" d="M90.581,89.117c-0.994,0.497-5.215-0.248-11.178,0.497c-5.961,0.746-11.426,1.988-18.132,4.968
		c-6.708,2.981-14.407,4.473-17.389,4.473c-2.98,0-5.961-0.25-5.961-0.25s-1.986-6.458-5.712-6.954
		c-3.726-0.498-4.719-3.727-7.701-5.713c-2.981-1.987-5.216-1.491-4.471,0.993c0.746,2.484,4.968,5.961,5.713,6.458
		c0.746,0.498,0.248,1.987,0.248,1.987s-4.223,1.242-7.948,0.746c-3.727-0.497-15.401-1.986-15.897,0
		c-0.497,1.987,4.223,3.478,5.465,3.726c1.242,0.25,8.942,2.236,8.942,2.236s-7.451,2.981-10.93,3.725
		c-3.477,0.746-5.713,1.74-4.967,2.733c0.745,0.993,1.242,1.49,3.726,1.49s11.922-1.987,11.922-1.987l-12.667,4.471
		c0,0-3.479,1.988-0.498,2.236c2.982,0.249,14.16-2.483,14.16-2.483s0.248,2.483-1.243,2.979c-1.49,0.497-2.732,3.975-4.967,4.968
		c-2.235,0.994-3.477,4.473,0,2.981s9.936-6.21,9.936-6.21s10.929-0.496,19.126-3.726c7.204-0.249,18.134-1.242,24.343-0.993
		c6.211,0.247,22.604-0.249,27.076-2.981c4.471-2.732,5.712-4.721,10.93-5.465C107.72,103.274,90.581,89.117,90.581,89.117z"/>
	<path fill="#BF8C76" d="M219.25,101.288c0,0,0.25,0,4.473,1.987c3.24,1.525,7.203,8.943,13.164,10.186s7.453,0.992,9.439-0.993
		c1.986-1.987,1.738-2.236,5.217-3.229c3.477-0.994,6.209-3.727,6.209-3.727s0.994,1.49,0,3.478
		c-0.992,1.987-3.975,4.969-3.975,4.969c1.986,2.483,5.963,5.216,7.453,5.96c1.49,0.746,7.203,4.97,5.713,5.465
		c-1.492,0.497-9.688-3.229-8.941-2.98c0.744,0.249-0.25,2.98,3.725,4.968c3.975,1.988,9.938,7.452,7.451,7.203
		c-2.484-0.248-8.941-3.725-8.941-3.725l6.953,6.706c0,0,0.996,2.981-1.984,1.242c-2.982-1.738-9.191-5.962-8.199-5.714
		c0.996,0.249,5.154,9.089,3.977,8.694c-1.492-0.496-3.977-5.961-7.205-7.948s-11.178-3.975-12.668-9.191
		c-6.209,0.497-19.375-1.738-24.84-4.223c-5.463-2.483-9.688-5.464-12.172-9.438C207.328,106.007,219.25,101.288,219.25,101.288z"/>
	<path fill="#FFFFFF" d="M173.795,52.852c0,0-2.236,0.248-5.466,0.744c-3.229,0.498-5.714,0.746-7.949,1.987
		c-2.235,1.242-1.242,0.25-5.712,0.498c-4.473,0.248-5.715,0.248-8.198,0.745c-2.484,0.498-3.725,0.25-6.955,1.492
		c-3.229,1.241-4.223,0.992-5.961,2.731c-1.739,1.74-2.732,4.223-5.961,6.707c-3.23,2.485-8.694,6.21-10.432,7.948
		c-1.74,1.741-3.479,2.982-4.471,3.231c-0.994,0.248-5.217,1.738-6.459,2.981c-1.242,1.242-1.242,1.986-2.236,2.98
		c-0.993,0.993-0.993,1.242-2.731,1.242c-1.74,0-1.74,0-1.74,0s-2.236,2.483-2.981,2.235c-0.744-0.249-1.738,0-2.981,0.249
		c-1.242,0.249-2.236,0-2.98,0.497c-0.744,0.497,2.236,9.687,7.204,12.917c4.967,3.229,8.197,6.457,8.197,6.457
		s2.981-4.471,9.688-6.209c6.706-1.74,7.699-1.49,7.699-1.49s-4.718,10.68-4.718,19.871c0,9.19-1.49,16.395-4.719,22.355
		c-3.23,5.962-5.217,19.624-6.707,23.847c-1.492,4.222-3.727,9.439-3.975,11.674c-0.248,2.236-0.498,3.478,0.745,4.224
		c1.242,0.744,6.211,4.472,6.211,4.472s14.903,2.233,28.814-0.747c13.909-2.98,20.119-7.7,28.317-9.688
		c8.195-1.985,15.4-4.471,15.4-4.471s-1.738-3.229-1.242-4.72s0.746-2.732,0.496-4.967c-0.246-2.236-0.744-3.477-1.49-4.473
		c-0.744-0.992-0.496-1.489-0.496-3.973c0-2.484,1.986-2.235,1.986-4.224c0-1.987-2.98-2.732-2.234-4.719
		c0.744-1.988,1.988-4.223,2.234-6.211c0.25-1.986,3.229-6.21,3.727-9.438c0.496-3.23,8.694-16.643,8.694-16.643
		s1.987,0.746,6.21-0.249c4.222-0.993,19.127-5.216,18.629-11.426c-4.223-10.929-5.215-15.151-5.961-18.877
		c-0.746-3.726-3.973-10.185-3.973-12.668s-0.16-8.099-6.664-8.645C197.889,60.551,173.795,52.852,173.795,52.852z"/>
	<path fill="#BF8C76" d="M201.711,20.708c0.537,0.135,4.039,3.5,4.846,7.136c0.808,3.635,1.615,6.057,1.75,7
		c0.135,0.942-0.269,3.096-0.135,3.903c0.135,0.809,0.943,6.866-0.403,10.098c-1.347,3.23-4.712,10.097-5.116,12.251
		c-0.404,2.153,0,7-7.674,6.192c-0.27,4.039-2.288,8.483-7.001,7.27c-4.712-1.211-16.021-5.923-15.347-20.463
		c1.211-2.02,2.424-3.366,2.153-5.923c-1.884-1.213-4.442-6.462-4.308-9.56c0.135-3.095,2.693-4.981,5.654-1.885
		c1.346,1.212,1.885,1.078,1.885,1.078l1.211-0.673c0,0-0.809-10.636-0.537-11.982c0.269-1.346,1.076-3.769,2.289-4.443
		c1.211-0.672,4.576-2.154,5.654-2.424c1.077-0.269,3.23-0.808,4.846-0.403c1.615,0.403,7.27,1.615,7.27,1.615L201.711,20.708z"/>
	<path fill="#0B040C" d="M202.518,21.112c0,0-0.807-2.019-0.403-3.77c0.403-1.75,0.808-5.116,0.808-5.116s-0.834,1.157-1.078,0.808
		c-0.942-1.346-1.48-2.019-1.48-2.019c-0.672,0.134-0.941-0.405-1.346-0.54c-0.807-0.27-0.403-0.808-0.807-0.808
		c-0.404,0-1.347,0.269-1.347,0.269c-0.538,0.135-0.538-0.539-0.538,0.135c0,0.672-0.135,0.943-0.674,2.02s-1.346,3.096-1.346,2.422
		c0-0.672,0.537-3.77,0.269-3.096s-0.942,3.231-0.942,3.231s0.27-3.231-0.135-2.961c-0.404,0.268-1.212,3.095-1.212,2.288
		c0-0.808-0.674-5.385-0.538-4.039c0.135,1.347-0.404,1.212-0.673,0.807c-0.269-0.403-1.481-0.538-1.481-0.538l-1.213-0.269
		c0,0-0.671,0-1.209,0.269c-0.539,0.27-2.156,0.27-2.156,0.27s-0.27-0.134-1.346,0.54c-1.076,0.673-0.135,0.269-1.076,0.673
		c-0.943,0.404-3.098,2.826-3.636,3.635c-0.54,0.808-1.884,1.885-2.288,2.423s-1.078,1.212-1.75,2.29
		c-0.674,1.077-0.809,2.288-1.349,2.288c-0.536,0-0.268,0.269-1.077,1.482c-0.807,1.211-0.807,1.077-1.346,2.691
		c-0.537,1.617,0.136,4.712,0.136,5.655c0,0.942,0.403,3.366,0.403,3.366s3.635-0.943,6.328,3.635
		c0.674,1.346,1.75,1.211,2.154,0.942c0.402-0.27,0-3.367,0.27-4.444s1.479-2.422,2.019-3.23c0.538-0.808-1.749-3.366-2.019-5.654
		c-0.27-2.29-1.348-4.848,2.826-5.521c4.173-0.674,7.136-0.403,10.637-0.674C197.402,20.305,200.635,20.17,202.518,21.112z"/>
	<path fill="#0B040C" d="M186.497,37.537c0,0,1.077-1.212,1.884-2.424c0.809-1.211,0.809-3.231,3.502-3.231
		c2.692,0,5.113-0.806,5.52,1.482c0.404,2.288,0.538,3.77,0.538,3.77s-0.944-0.538-0.944,0.404c0,0.942,0.271-0.942-0.805-0.809
		c-1.078,0.136-2.02,0.54-2.02,0.54s0.227-2.014-2.174-1.849c-1.242,0.167-2.803,1.949-2.803,1.949S187.029,37.541,186.497,37.537z"
		/>
	<path fill="#0B040C" d="M190.767,36.291c0,0,0.235,1.35,1.242,1.325c1.684-0.043,1.684-2.007,1.684-2.007l-0.855-0.229h-0.993
		C191.844,35.379,190.602,35.629,190.767,36.291z"/>
	<polygon fill="#FFFFFF" points="191.799,35.305 191.92,35.97 192.584,35.97 192.768,35.245 	"/>
	<path fill="#0B040C" d="M200.539,37.118c-0.218,0.124-0.084-2.98,0.744-3.973c0.828-0.994,2.07-1.242,3.064-1.242
		c0.993,0,1.986,0.166,2.566,0.497c0.579,0.332-0.25,0.498-0.084,1.49c0.166,0.994,0.828,2.319,0.746,2.815
		c-0.083,0.497-1.738,0.497-1.738,0.497s-0.084-1.242-1.16-1.573c-1.077-0.331-2.566,0.579-2.566,1.573
		C201.779,37.118,201.117,36.787,200.539,37.118z"/>
	<path fill="#0B040C" d="M202.521,36.121c0,0,0.336,1.33,1.329,1.247c0.992-0.083,1.093-1.731,1.093-1.731
		S203.598,34.051,202.521,36.121z"/>
	<path fill="#FFFFFF" d="M203.381,35.713c0,0-0.084,0.828,0.248,0.745c0.33-0.083,0.745-0.083,0.745-0.083l-0.084-0.829
		L203.381,35.713z"/>
	<path fill="#0B040C" d="M196.895,42.833c0.262,0.01-1.738,0.993-1.408,2.235c0.332,1.242,0.664,0.829,2.072,0.496
		c1.406-0.331,1.654-0.248,2.482,0c0.829,0.25,0.828,0.498,1.407,0.333c0.579-0.166,1.655,0.165,1.821-0.829
		c0.166-0.994,2.236,0.746,2.236,1.739c0,0.994-0.248,4.39-0.994,5.465c-0.744,1.077-1.242,3.229-1.242,3.229
		s-0.33-0.414,0.084-2.98c0.414-2.566,0.247-6.375,0.247-6.375s-0.661,0.331-1.075,0.581c-0.414,0.247-0.579,0.992-0.746,1.242
		c-0.166,0.247-0.331,1.075-1.49,1.075s-1.986-0.579-1.656-0.994c0.332-0.413,0.744-0.496,1.078-0.496c0.33,0,0.91-0.498,0.91-0.498
		c-0.249-0.33,0.33-1.076-1.491-0.91s-3.063,0.249-3.063,0.249s-1.077-0.249-1.242-1.739c-1.904,2.898-3.394,4.719-3.643,5.961
		c-0.248,1.243-0.58,2.237-0.58,2.898c0,0.663,0.249-0.828-0.496-0.994c-0.746-0.166-1.16-0.083-0.414-1.408
		c0.746-1.325,1.904-2.732,2.732-4.305C193.252,45.233,194.824,42.75,196.895,42.833z"/>
	<path fill="#0B040C" d="M191.596,53.927c0,0,0.58-1.408,1.738-2.069c1.16-0.662,1.574-1.077,3.313-0.994s4.141-0.082,5.05-0.165
		c0.911-0.083,0.911,0,0.829,0.827c-0.082,0.829,0.414,2.072-0.082,2.651c-0.497,0.58-1.408,2.318-1.658,2.814
		c-0.246,0.498-1.074,0.581-1.074,0.581s0.33-1.324-0.168-1.49c-0.496-0.166-1.075,0.414-1.488,0.414
		c-0.415,0-2.65-0.414-3.396,0.166c-0.745,0.581-1.159,0.746-1.159,0.746S191.844,56.163,191.596,53.927z"/>
	<path fill="#201315" d="M177.645,45.275c0,0,1.242,2.484-0.621,2.732c-1.863,0.249-2.239,0.166-2.239,0.166
		s1.244-0.042,1.991,0.827c0.744,0.871,0.496,1.738,1.365,1.367c0.869-0.374,0.496-0.621,0.62-1.864
		C178.887,47.262,178.39,45.523,177.645,45.275z"/>
	<path fill="#201315" d="M173.297,42.294c-0.249-0.496-0.994-1.118,0.124-1.366c1.12-0.249,1.476-0.935,1.739-0.497
		c0.745,1.242,0.62,2.483,0.62,2.483s-0.372-0.87-0.993-0.745C174.168,42.294,173.297,42.294,173.297,42.294z"/>
	<path fill="#201315" d="M171.188,41.176c-0.127-0.372-0.747-3.601,0.371-4.471c1.116-0.869,1.986,0.497,2.236,0.994
		c0.246,0.497-1.12-0.869-1.617,0.125C171.683,38.817,171.188,41.176,171.188,41.176z"/>
	<path opacity="0.6" fill="#201315" d="M182.861,66.761c-0.662,0.441,1.863-3.477,2.731-2.856s1.366,1.49,2.11,1.863
		c0.746,0.372,3.125,1.554,7.275,1.521c-0.195,1.708-2.059,5.93-2.68,6.304c-0.619,0.372-1.986,0.87-2.855,0.87
		c-0.87,0,2.732-1.741,1.117-3.85c-1.615-2.113-1.863-1.242-2.732-0.747C186.959,70.363,186.586,64.276,182.861,66.761z"/>
	<path opacity="0.6" fill="#201315" d="M191.182,64.526c0,0,2.234,1.738,6.086,1.118c3.85-0.621,4.595-2.112,4.595-2.112
		s-0.372,3.477-4.72,3.85c-4.346,0.373-9.439-2.732-9.936-8.942c-0.496-6.209-0.496-6.209-0.496-6.209
		S187.703,63.407,191.182,64.526z"/>
	<path fill="#9A5545" d="M193.914,60.303c0.461,0.308,1.615,1.614,3.478,1.49c1.862-0.125,2.98-1.614,3.726-3.105
		c0.745-1.49,2.111-1.366-0.124-0.994c-2.235,0.373-2.484,0.373-4.472,0.373c-1.986,0-2.69-0.206-3.021-0.662
		c-0.33-0.456-1.118-1.904-1.904-3.478C190.809,55.583,192.051,59.061,193.914,60.303z"/>
	<path opacity="0.2" fill="#201315" d="M136.784,104.517c0,0-2.237-2.235-3.728-2.482c-1.49-0.25-4.222-2.98-4.222-2.98
		l-5.466,1.738c0,0-12.916,1.49-17.387,7.699c-2.98-2.484-4.719-4.222-4.719-4.222s-3.976,1.737-9.688,5.216
		c-4.719,1.49-9.191,3.726-20.618,3.229c-11.426-0.496-26.578,0.497-30.801,0.746c-2.484,1.739-16.145,3.974-19.126,3.726
		c-3.975,2.98-4.969,3.726-4.969,3.726l5.465-5.712c0,0,11.178,1.241,19.126-3.479c-1.738-0.993-4.719-2.732-4.719-2.732
		s-9.937-3.478-10.681-5.217c-0.746-1.737,12.917,6.21,11.426,3.479c-1.49-2.733-1.49-2.733-1.49-2.733s3.229,4.969,5.961,4.969
		c2.731,0,5.713-0.248,7.452-0.248c1.739,0,11.179,0.744,15.152,0.744c3.975,0,3.727-1.738,5.961-1.986c2.236-0.248,8.199,0,9.192,0
		c0.993,0,3.478,0.248,7.7-0.994c4.223-1.241,7.949-2.731,5.465-3.477c-2.484-0.747-3.725-2.237,0.249-2.237
		c3.975,0,4.223,0.497,7.452-1.986c3.23-2.485,10.184-2.732,6.707-3.479c-3.477-0.745-2.235,1.49,5.961-0.496
		c8.197-1.988-4.471,0,1.74-2.236c6.21-2.235,5.216-2.981,8.444-2.483c3.23,0.496,5.465,0.248,5.465,0.248l8.446-1.242l-6.211-0.497
		l3.23-1.242c0,0,7.7,0.745,5.961,2.235c-1.738,1.491-1.988,2.981,1.738,3.478c3.727,0.498-0.993,4.224,7.95,5.216
		c8.941,0.994,25.584,4.721,12.419,3.726c-13.166-0.995-11.674,0.248-7.7,0.745c3.975,0.497,9.688,2.732,4.223,2.485
		c-5.465-0.249-9.688,0.247-9.688,0.247s0.747-2.732-1.49-2.98C144.732,102.778,137.527,105.511,136.784,104.517z"/>
	<path opacity="0.2" fill="#201315" d="M155.91,71.232c3.23,0.203,11.674,2.732,14.407,4.47c2.73,1.741,7.45,4.721,8.692,5.467
		c1.242,0.745,3.727,3.726-3.727,0.496c-7.451-3.229-10.681-7.452-14.158-7.452c-3.477,0-9.191-1.739-11.673-0.497
		c-2.485,1.243-2.485,1.243-2.485,1.243S151.934,70.984,155.91,71.232z"/>
	<path opacity="0.2" fill="#201315" d="M175.283,85.142c2.982,1.491,4.721,3.478,7.702,3.229c2.979-0.249,6.458,0,9.19-0.745
		c2.732-0.746,5.464-1.739,0.248-1.49c-5.217,0.249-9.191,0.497-10.93,0C179.756,85.639,175.283,85.142,175.283,85.142z"/>
	<path opacity="0.2" fill="#201315" d="M189.195,83.403c1.738-1.489,4.471-3.974,6.457-4.223c1.987-0.248,11.699-3.75,10.434-2.484
		c-2.235,2.236-6.707,2.98-8.694,3.727C195.404,81.169,189.195,83.403,189.195,83.403z"/>
	<path opacity="0.2" fill="#201315" d="M206.086,89.365c0,0-3.479,8.447-5.216,11.427c-1.74,2.979-2.237,2.979-4.224,6.706
		c-1.987,3.726-14.656,15.897-18.879,18.381c-4.223,2.484-11.923,0.248-24.592,2.98c-12.667,2.732-10.681,0.994-17.883,6.956
		c-7.204,5.961,7.203-0.994,5.216,0.744c-1.986,1.74-4.968,1.74-9.687,8.197c-4.721,6.459-3.229,8.694,4.967,1.988
		c8.198-6.707,13.165-9.439,17.139-9.936c3.975-0.497,9.937,0,2.484,2.483s-7.452,3.726-1.738,4.223s7.451,4.72,12.42,0
		c4.967-4.72,8.196-9.439,10.432-10.93s5.465-2.235,2.235,1.986c-3.229,4.224,2.983,0.747,4.722,0
		c1.737-0.744,0.992-1.738,0.992-1.738s3.479-6.955,5.963-12.42c2.482-5.464,3.974-7.451,3.974-7.451s12.171-0.249,21.858-6.458
		c3.479-2.484,2.98-5.217,2.98-5.217s-4.471,1.739-8.692-0.248c6.706-1.242,5.712-0.994,2.731-2.732
		c-2.982-1.738-3.973-2.484-5.961-1.987c-1.987,0.497-3.23-1.986,0-3.478c3.229-1.49,6.955-7.203,3.974-4.967
		c-2.98,2.235-1.739,1.49-1.49-1.242C210.06,83.9,206.086,89.365,206.086,89.365z"/>
	<path opacity="0.2" fill="#201315" d="M216.27,106.505c0,0,1.242,0.496-0.744,2.732c-1.987,2.234-1.987,3.477,0.496,2.731
		c2.484-0.745,5.217-0.993,2.236,0.745s-1.988,2.236-0.248,2.98c1.738,0.746,3.725,2.485,6.955,2.236
		c3.229-0.249,6.457,0.249,3.725,1.49c-2.732,1.242,0.498,2.483,2.732,2.732c2.234,0.248,7.203,0.995,8.197,0.995
		s3.477-1.492,3.229-0.747c-0.248,0.747,0,5.962,10.186,9.688c2.98,1.738,2.236,2.731,2.236,2.731s-12.422-4.968-14.16-10.185
		c-3.229,1.242-30.303-1.241-37.012-13.661C208.818,109.733,213.538,108.491,216.27,106.505z"/>
	<path opacity="0.2" fill="#201315" d="M247.072,120.911c0,0,5.215-4.968,5.711-7.7c0.498-2.731,0.994-0.993,0.994-0.993
		l2.732-1.987l-2.732,3.727c0,0,1.492,1.242,0,3.725C252.287,120.166,250.053,121.904,247.072,120.911z"/>
	<path fill="#201315" d="M174.285,121.995c0,0,3.575-7.853,5.053-14.771c-2.098,0-2.098,0-2.098,0s-1.555,0.466-2.021,1.71
		c-0.467,1.245-0.544,1.943-0.544,1.943l1.088-0.312c0,0-0.388,2.799-1.711,5.675c-1.322,2.877-2.331,5.755-2.099,5.599
		C172.186,121.684,174.285,121.995,174.285,121.995z"/>
	<path fill="#201315" d="M177.162,121.684c0,0,3.498-7.464,4.198-10.729c-1.165,0.155-1.244,0.466-1.165,0.155
		c0.076-0.312,0.697-2.177,1.01-2.722c0.311-0.544,1.01-1.01,1.01-1.01h2.1c0,0-3.188,10.651-4.897,14.382
		C178.406,121.839,177.162,121.684,177.162,121.684z"/>
	<path fill="#201315" d="M168.246,56.328c0,0-6.292,2.484-9.108,2.069c-2.815-0.414-2.815-0.91-4.72-0.165
		c-1.903,0.746-4.304,4.057-7.865,3.478c-3.562-0.579-3.892-3.477-6.625-1.077c-2.733,2.402-11.508,9.439-14.406,11.758
		c-2.899,2.318-6.128,5.712-7.619,6.128c-0.083,1.241-0.083,1.241-0.083,1.241s2.898-1.324,5.713-3.643
		c2.815-2.318,8.528-7.867,10.598-9.274c2.07-1.407,3.974-3.229,5.299-4.223c1.325-0.993,2.567-1.82,3.89-0.993
		c1.327,0.827,3.811,2.069,6.957,0.248s4.389-3.229,6.707-2.898c2.318,0.331,5.713,0.414,8.196-0.25
		c2.484-0.662,3.478-0.745,3.478-0.745L168.246,56.328z"/>
	<path fill="#201315" d="M168.91,59.64c0.164,0.25,0.33,1.739,0.33,1.739s-6.376,2.236-8.363,1.409
		c-1.987-0.829-4.637-0.911-6.541,0.083c-1.904,0.993-6.623,3.229-9.025,2.152c-2.4-1.077-4.139-0.497-5.961,1.242
		c-1.822,1.739-18.96,16.063-18.96,16.063l-0.747-1.243c0,0,6.292-5.05,10.35-8.611c4.058-3.56,7.702-6.375,9.109-7.535
		s2.317-2.484,4.388-1.738c2.07,0.744,3.643,1.904,7.452-0.166c3.809-2.071,4.969-3.065,7.865-1.988
		c2.899,1.077,4.969-0.083,6.625-0.579C167.087,59.971,168.91,59.64,168.91,59.64z"/>
	<path fill="#201315" d="M169.736,63.366c0,0-7.037,2.071-9.604,0.994c-2.235-0.994-3.063-0.248-5.382,0.249
		c-2.318,0.496-6.624,2.4-8.28,2.069c-1.656-0.331-3.148-0.662-4.802,0.746c-1.657,1.407-19.955,16.807-19.955,16.807l1.076,1.243
		c0,0,13.083-10.764,15.4-12.667c2.318-1.906,5.464-4.887,7.038-4.887c1.573,0,4.637-0.33,7.37-1.325
		c2.732-0.993,5.383-1.572,7.534-1.076c2.153,0.497,4.306,0.249,6.79-0.083c2.484-0.331,3.311-1.076,3.311-1.076L169.736,63.366z"/>
	<path fill="#201315" d="M172.303,53.099c0.043-0.295-2.07,1.16-1.324,4.719c0.746,3.56,4.058,11.84,7.949,16.892
		c3.477,4.637,6.541,6.955,6.541,6.955l-2.072,1.656l1.244,0.414c0,0,5.547-3.312,7.699-5.631
		c2.154-2.318,3.146-10.598,3.146-10.598s-0.992,9.854-8.775,13.579c-2.567-2.235-10.02-9.521-12.834-18.215
		C172.967,60.468,171.889,55.997,172.303,53.099z"/>
	<path fill="#201315" d="M196.812,68.5l0.331,0.994c0,0,0.084,1.077,2.898,0.911c2.816-0.165,4.141,0,4.886-0.497
		c0.745-0.497,2.649-1.241,4.222,0.497c-0.082-1.242-0.082-1.242-0.082-1.242s-1.904-1.49-3.395-0.912
		c-1.49,0.581-3.229,1.408-4.389,1.16C200.123,69.162,196.812,68.5,196.812,68.5z"/>
	<path fill="#201315" d="M199.213,67.258c0.248,0.083,2.152,0.992,3.727,0c1.572-0.994,4.389-1.821,5.961,0.166
		c-0.082-1.492-1.986-2.899-3.56-2.567c-1.573,0.331-3.063,1.906-4.637,1.573C200.207,66.843,199.213,67.258,199.213,67.258z"/>
	<path fill="#201315" d="M202.111,64.276c0,0,2.152-0.496,2.65-0.745c0.496-0.248,2.648-0.083,3.974,2.152
		c-1.905-3.808-2.567-3.477-3.893-3.146c-1.325,0.333-2.317,0.498-2.317,0.498L202.111,64.276z"/>
	<g>
		<path fill="#6E6F75" d="M135.28,123.551l-0.141-0.476c0.141-0.043,14.172-4.174,22.844-7.118
			c10.445-3.707,20.24-14.44,21.555-16.778c0.897-1.594,1.429-1.883,2.098-2.249c0.486-0.265,1.037-0.566,1.919-1.448
			c0.868-0.871,1.335-1.585,1.782-2.279c0.652-1.009,1.328-2.051,3.207-3.536c3.053-2.41,5.033-8.107,5.053-8.164l0.47,0.161
			c-0.081,0.239-2.047,5.894-5.214,8.393c-1.816,1.434-2.438,2.397-3.098,3.416c-0.463,0.716-0.943,1.455-1.849,2.362
			c-0.934,0.932-1.542,1.266-2.033,1.532c-0.646,0.354-1.075,0.586-1.899,2.055c-1.672,2.974-11.775,13.437-21.828,17.004
			C149.461,119.375,135.42,123.51,135.28,123.551z"/>
		<path fill="#6E6F75" d="M128.817,151.058l-0.462-0.18c0.096-0.248,2.478-6.109,12.421-8.763
			c11.019-2.937,19.572-6.61,26.918-11.556c3.915-2.639,7.601-4.676,10.849-6.474c3.382-1.871,6.301-3.486,8.172-5.102
			c0.057-0.046,5.172-4.228,10.549-12.86c2.547-4.089,4.549-8.098,6.315-11.637c1.978-3.964,3.542-7.096,4.985-8.45l0.34,0.363
			c-1.379,1.292-2.924,4.388-4.881,8.309c-1.771,3.547-3.779,7.569-6.339,11.678c-5.424,8.711-10.601,12.938-10.651,12.979
			c-1.902,1.644-4.844,3.27-8.25,5.154c-3.24,1.793-6.913,3.825-10.813,6.451c-7.393,4.978-15.993,8.673-27.067,11.625
			C131.222,145.178,128.839,150.999,128.817,151.058z"/>
		<path fill="#6E6F75" d="M132.189,178.175l-0.252-0.429c0.101-0.06,10.156-6.056,17.982-15.84
			c6.942-8.678,7.074-8.78,10.419-11.426c0.488-0.388,1.047-0.829,1.707-1.363c2.031-1.637,3.516-3.012,4.709-4.116
			c1.847-1.71,3.18-2.947,5.111-3.863c3.645-1.726,10.656-5.952,13.81-10.839l0.417,0.27c-3.215,4.981-10.319,9.27-14.013,11.02
			c-1.864,0.883-3.106,2.035-4.987,3.776c-1.199,1.11-2.691,2.493-4.734,4.141c-0.662,0.533-1.222,0.977-1.712,1.366
			c-3.302,2.61-3.431,2.712-10.338,11.347C142.421,172.075,132.292,178.114,132.189,178.175z"/>
	</g>
	<path opacity="0.2" fill="#201315" d="M131.234,155.604c-2.337,1.963,1.823-6.624,10.93-4.638
		c9.107,1.987,9.273,3.976,18.049,0.332s1.159,5.133-9.77,4.802C139.515,155.77,139.515,148.649,131.234,155.604z"/>
	<path opacity="0.2" fill="#201315" d="M157.564,159.247c-6.521,1.004,14.407-8.446,17.389-11.096c2.98-2.648,5.463-4.47,5.463-4.47
		s-0.164,1.325-2.482,3.146S166.177,157.923,157.564,159.247z"/>
	<g>
		<g>
			<path fill="none" d="M196.537,93.676"/>
			<path fill="#0E0710" d="M196.537,93.676c0,0,0.056,0.26,0.243,0.272c0.188,0.013,0.277,0.102,0.277,0.102s-0.101,0-0.228-0.02
				C196.702,94.012,196.482,94.098,196.537,93.676z"/>
			<g>
				<path fill="#0E0710" d="M196.738,93.876c-0.033,0.008-0.027-0.345,0.186-0.348c0.215-0.003,0.402-0.077,0.489-0.065
					c0.088,0.014,0.257,0.105,0.308,0.249c0.14-0.046,0.2,0.115,0.164,0.416c-0.076-0.116-0.221-0.117-0.201,0.104
					c0.018,0.225-0.043,0.828,0.072,0.914c0.111,0.083,0.326,0.08,0.365,0.034c0.038-0.045-0.072-0.249-0.098-0.421
					c-0.023-0.173,0.082-0.414,0.282-0.402c0.2,0.012,0.513,0.04,0.547,0.216c0.035,0.175,0.097,0.999,0.097,0.999
					s-0.518,0.385-0.9,0.398c-0.381,0.011-0.492,0.098-0.555,0.445c-0.063,0.348-0.006,1.105,0.365,1.565
					c-0.146,0.013-0.18,0.11-0.102,0.293c0.08,0.181,0.072,0.162,0.166,0.126c0.094-0.039,0.322,0.03,0.293,0.074
					c-0.123,0.187-0.162,0.045-0.246,0.084c-0.082,0.039-0.078,0.193-0.078,0.193s0.22,0.134,0.23,0.238
					c0.01,0.102-0.17,0.11-0.17,0.11s-0.111-0.491-0.155-0.396c-0.045,0.095,0.034,0.377-0.054,0.45
					c-0.086,0.073-0.17-0.075-0.17-0.075s0.146-0.386,0.054-0.365c-0.091,0.021-0.124,0.202-0.124,0.202s-0.023-0.19-0.091-0.082
					c-0.07,0.11-0.04-0.226-0.04-0.226s0.025-0.134,0.136-0.117c0.11,0.016,0.11,0.016,0.11,0.016s0.029-0.455-0.076-0.316
					c-0.104,0.137-0.125,0.032-0.125,0.032s-0.121-0.799-0.244-0.698c-0.125,0.102-0.23,0.816-0.033,1.44
					c-0.17-0.178-0.268,0.063-0.326,0.276c-0.057,0.212-0.12,0.169-0.123-0.171c-0.004-0.341-0.111-0.204-0.203-0.199
					c-0.088,0.002-0.088,0.002-0.088,0.002s0.33-0.529,0.332-1.226c0.028-0.131-0.16-0.26-0.411,0.45
					c-0.052-0.125-0.245,0.083-0.253,0.151c-0.008,0.067,0.128,0.154,0.128,0.154l0.024,0.276c0,0-0.075,0.158-0.104,0.002
					c-0.025-0.158-0.073-0.316-0.093-0.235c-0.022,0.083-0.058,0.093-0.042,0.25c0.017,0.154,0.012,0.187-0.051,0.248
					c-0.063,0.056-0.138-0.072-0.131-0.123c0.006-0.049,0.156-0.386,0.075-0.363c-0.082,0.022-0.073,0.144-0.185,0.246
					c-0.115,0.103-0.338,0.12-0.258-0.004c0.082-0.124,0.131-0.253,0.211-0.275c0.082-0.022,0.299-0.16,0.156-0.182
					c-0.143-0.02-0.241,0.051-0.267-0.021s-0.003-0.17,0.067-0.193c0.07-0.025,0.076-0.177,0.154-0.064
					c0.075,0.113,0.164,0.212,0.193,0.164c0.025-0.047,0.176-0.264,0.176-0.264s-0.039-0.056-0.115-0.067
					c-0.078-0.012-0.029-0.039-0.029-0.039s0.387-0.232,0.613-0.743c0.229-0.512,0.108-1.021,0.108-1.021s-0.103-0.066-0.284-0.16
					c-0.178-0.094-0.674-0.472-0.847-0.802c0.126-0.594,0.246-0.849,0.246-0.849s-0.101-0.201,0.22-0.155
					c0.32,0.047,0.826,0.119,0.621,0.43c-0.204,0.31-0.258,0.49-0.098,0.546c0.162,0.057,0.26,0.072,0.394-0.199
					c0.132-0.27,0.13-0.355,0.024-0.403c-0.105-0.05-0.111-0.203-0.111-0.203s0.311,0.044,0.291-0.179
					C197.141,93.798,196.957,93.823,196.738,93.876z"/>
				<path fill="#FFFFFF" d="M197.254,93.729c0,0,0.148-0.068,0.17,0.025C197.441,93.847,197.281,93.854,197.254,93.729z"/>
				<path fill="#0E0710" d="M195.031,96.797c-0.004,0-0.01-0.002-0.012-0.005c-0.031-0.019-0.052-0.054-0.063-0.099
					c-0.018-0.101,0.031-0.224,0.037-0.238l0.543-1.389l0.063,0.051l-0.544,1.391c-0.009,0.024-0.034,0.101-0.024,0.148
					c0,0.008,0.002,0.019,0.014,0.028c0.079-0.076,0.371-0.806,0.615-1.493l0.066,0.047
					C195.208,96.69,195.076,96.803,195.031,96.797z"/>
				<path fill="#0E0710" d="M195.229,97.509c-0.007,0-0.014-0.004-0.021-0.007c-0.028-0.014-0.046-0.042-0.056-0.08
					c-0.021-0.103,0.033-0.253,0.041-0.27l0.607-1.788l0.064,0.044l-0.609,1.79c-0.02,0.053-0.041,0.14-0.032,0.18
					c0.001,0.008,0.005,0.014,0.013,0.018c0.039,0.02,0.088-0.109,0.105-0.169l0.628-1.688l0.065,0.047l-0.628,1.681
					C195.381,97.364,195.313,97.521,195.229,97.509z"/>
				<path fill="#0E0710" d="M195.512,97.88c-0.033-0.004-0.059-0.027-0.074-0.067c-0.041-0.103,0.006-0.292,0.012-0.311l0.676-1.835
					l0.063,0.049l-0.672,1.826c-0.015,0.056-0.029,0.168-0.014,0.209c0.004,0.008,0.01,0.016,0.021,0.019
					c0.081,0.012,0.143-0.152,0.143-0.155l0.67-1.872l0.064,0.046l-0.67,1.873C195.728,97.673,195.645,97.899,195.512,97.88z"/>
				<path fill="#0E0710" d="M196.204,97.272c-0.009,0-0.019-0.005-0.028-0.009c-0.052-0.021-0.07-0.067-0.08-0.102
					c-0.02-0.093,0.025-0.199,0.029-0.211l0.375-1.075l0.064,0.045L196.188,97c-0.009,0.023-0.029,0.083-0.021,0.119
					c0.002,0.007,0.008,0.026,0.037,0.038c0.078,0.031,0.118-0.114,0.118-0.121l0.349-1.063l0.065,0.042l-0.347,1.059
					C196.371,97.152,196.307,97.286,196.204,97.272z"/>
				<path fill="#0E0710" d="M197.82,97.48c-0.08-0.01-0.144-0.149-0.152-0.169l-0.007-0.023l-0.094-1.148l0.073-0.022l0.095,1.137
					c0.024,0.05,0.067,0.109,0.097,0.115c0.023-0.132-0.016-0.789-0.066-1.384l0.072-0.022c0.129,1.459,0.058,1.494,0.022,1.51
					C197.848,97.48,197.834,97.482,197.82,97.48z"/>
				<path fill="#0E0710" d="M198.203,98.229c-0.036-0.006-0.061-0.023-0.076-0.056c-0.019-0.039-0.014-0.08-0.008-0.104
					l-0.184-2.089l0.073-0.023l0.185,2.117l-0.004,0.015c-0.001,0.001-0.002,0.012,0,0.016c0.004,0.007,0.018,0.018,0.056,0.014
					c0.079-0.008,0.09-0.269,0.09-0.271l-0.179-1.865l0.07-0.025l0.182,1.875c-0.002,0.146-0.04,0.384-0.165,0.396
					C198.227,98.231,198.215,98.231,198.203,98.229z"/>
				<path fill="#0E0710" d="M198.603,97.924c-0.024-0.002-0.043-0.015-0.062-0.037c-0.049-0.065-0.049-0.186-0.049-0.199
					l-0.163-1.817l0.072-0.023l0.166,1.826c0,0.032,0.003,0.099,0.025,0.127c0.007,0.008,0.019,0.02,0.043,0.012
					c0.02-0.004,0.034-0.017,0.042-0.038c0.031-0.071,0.016-0.211,0.009-0.254l-0.142-1.726l0.074-0.021l0.139,1.716
					c0.004,0.015,0.037,0.214-0.018,0.341c-0.023,0.049-0.057,0.081-0.098,0.093C198.628,97.927,198.615,97.927,198.603,97.924z"/>
				<path fill="#0E0710" d="M198.984,97.299c-0.094-0.013-0.153-0.18-0.157-0.188l-0.003-0.016l-0.129-1.368l0.072-0.024
					l0.129,1.357c0.011,0.028,0.057,0.131,0.108,0.129c0.032-0.135-0.022-0.908-0.094-1.604l0.073-0.026
					c0.039,0.359,0.152,1.543,0.078,1.701c-0.013,0.023-0.025,0.033-0.035,0.036C199.013,97.301,198.998,97.302,198.984,97.299z"/>
			</g>
			<path fill="#0C050E" d="M193.567,100.368c0,0,0.419,1.156,1.378,1.829c-0.299,0.49-0.299,0.49-0.299,0.49
				s-1.042-0.741-1.484-2.012C193.322,100.557,193.567,100.368,193.567,100.368z"/>
			<path fill="#D93541" d="M195.236,102.406l-0.196,0.562c0,0,0.913,0.751,2.538,0.313c-0.082-0.406-0.102-0.549-0.102-0.549
				S196.249,103.088,195.236,102.406z"/>
			<path fill="#EBB33A" d="M197.822,102.614l0.121,0.55c0,0,1.183-0.446,1.992-1.509c-0.296-0.325-0.365-0.362-0.365-0.362
				S198.688,102.345,197.822,102.614z"/>
			<path fill="#7E8081" d="M200.244,101.175c0.731-1.087,1.258-2.502,1.449-4.099c0.463-3.872-1.229-7.323-3.782-7.708
				c-2.554-0.386-4.999,2.442-5.463,6.315c-0.194,1.62-0.009,3.166,0.457,4.445l0.413-0.299c-0.436-1.168-0.611-2.589-0.432-4.082
				c0.418-3.505,2.633-6.066,4.944-5.717c2.312,0.348,3.847,3.474,3.425,6.98c-0.174,1.465-0.664,2.763-1.34,3.754L200.244,101.175z
				"/>
			<g>
				<path fill="#201315" d="M194.924,92.758c0.033-0.053,0.077-0.112,0.127-0.171c0.091-0.107,0.169-0.155,0.24-0.15
					s0.138,0.055,0.195,0.165c0.055,0.113,0.078,0.234,0.064,0.35c-0.014,0.118-0.072,0.242-0.166,0.355
					c-0.044,0.052-0.084,0.094-0.119,0.127L194.924,92.758z M195.295,93.291c0.018-0.014,0.041-0.041,0.066-0.07
					c0.135-0.159,0.154-0.352,0.06-0.538c-0.081-0.163-0.198-0.188-0.332-0.031c-0.033,0.041-0.056,0.073-0.069,0.098
					L195.295,93.291z"/>
				<path fill="#201315" d="M195.982,92.248l-0.213,0.166l0.087,0.285l0.237-0.184l0.027,0.083l-0.309,0.241l-0.241-0.791
					l0.294-0.229l0.028,0.085l-0.226,0.177l0.076,0.248l0.213-0.167L195.982,92.248z"/>
				<path fill="#201315" d="M196.223,91.61l0.074,0.509c0.027,0.192,0.099,0.247,0.176,0.214c0.086-0.04,0.131-0.147,0.103-0.337
					l-0.075-0.509l0.076-0.033l0.074,0.5c0.039,0.264-0.041,0.415-0.167,0.47c-0.12,0.053-0.226-0.007-0.264-0.275l-0.074-0.505
					L196.223,91.61z"/>
				<path fill="#201315" d="M197.002,91.455l-0.182,0.025l-0.001-0.099l0.444-0.058v0.098l-0.184,0.024l0.004,0.796l-0.076,0.01
					L197.002,91.455z"/>
				<path fill="#201315" d="M197.394,92.087c0.032,0.036,0.078,0.067,0.132,0.074c0.076,0.011,0.129-0.048,0.139-0.138
					c0.01-0.083-0.018-0.134-0.093-0.191c-0.091-0.063-0.142-0.146-0.128-0.271c0.013-0.139,0.102-0.233,0.217-0.22
					c0.061,0.007,0.102,0.033,0.125,0.059l-0.029,0.092c-0.02-0.017-0.055-0.049-0.109-0.055c-0.08-0.01-0.119,0.059-0.125,0.12
					c-0.008,0.084,0.021,0.129,0.098,0.188c0.096,0.07,0.139,0.15,0.124,0.28c-0.016,0.138-0.095,0.248-0.231,0.233
					c-0.061-0.007-0.119-0.039-0.146-0.075L197.394,92.087z"/>
				<path fill="#201315" d="M198.28,92.462c-0.032,0.007-0.091,0.003-0.157-0.026c-0.16-0.071-0.24-0.277-0.17-0.559
					c0.066-0.269,0.229-0.4,0.402-0.323c0.07,0.031,0.109,0.074,0.123,0.098l-0.039,0.082c-0.021-0.033-0.059-0.065-0.104-0.086
					c-0.131-0.058-0.249,0.033-0.306,0.258c-0.052,0.212-0.006,0.383,0.131,0.443c0.044,0.02,0.092,0.026,0.127,0.016L198.28,92.462
					z"/>
				<path fill="#201315" d="M198.803,91.846l-0.139,0.33l0.243,0.207l0.138-0.33l0.066,0.056l-0.33,0.789l-0.065-0.056l0.154-0.369
					l-0.242-0.208l-0.154,0.37l-0.063-0.056l0.327-0.789L198.803,91.846z"/>
				<path fill="#201315" d="M199.346,93.049l-0.166-0.226l-0.151,0.247l0.185,0.251l-0.047,0.073l-0.237-0.326l0.422-0.685
					l0.23,0.313l-0.048,0.074l-0.174-0.238l-0.133,0.217l0.163,0.226L199.346,93.049z"/>
				<path fill="#201315" d="M199.756,93.012c0.029,0.037,0.064,0.099,0.094,0.161c0.047,0.097,0.064,0.173,0.059,0.247
					c-0.004,0.062-0.028,0.119-0.066,0.163c-0.066,0.076-0.138,0.067-0.189,0.013l-0.003,0.003c0.013,0.069-0.007,0.14-0.05,0.217
					c-0.057,0.101-0.098,0.172-0.11,0.209l-0.044-0.093c0.008-0.027,0.044-0.092,0.094-0.182c0.059-0.099,0.066-0.165,0.029-0.249
					l-0.041-0.085l-0.213,0.247l-0.045-0.091L199.756,93.012z M199.576,93.36l0.044,0.092c0.048,0.096,0.113,0.113,0.171,0.048
					c0.063-0.071,0.059-0.168,0.014-0.265c-0.021-0.042-0.039-0.072-0.049-0.083L199.576,93.36z"/>
			</g>
			<path fill="#A2A5A7" d="M196.609,100.366c-1.438-0.209-2.402-2.152-2.146-4.334c0.256-2.18,1.635-3.786,3.074-3.578
				c1.437,0.208,2.398,2.151,2.145,4.334C199.424,98.968,198.049,100.574,196.609,100.366z M197.512,92.675
				c-1.359-0.197-2.661,1.318-2.902,3.377c-0.24,2.06,0.668,3.895,2.025,4.091c1.359,0.197,2.659-1.317,2.9-3.377
				C199.775,94.707,198.867,92.871,197.512,92.675z"/>
			<path fill="#A2A5A7" d="M196.409,102.073c-2.06-0.299-3.437-3.082-3.071-6.205s2.339-5.421,4.397-5.123
				c2.059,0.297,3.437,3.081,3.071,6.205C200.441,100.073,198.469,102.371,196.409,102.073z M197.71,90.967
				c-1.979-0.287-3.876,1.921-4.227,4.923s0.972,5.675,2.952,5.962c1.979,0.286,3.873-1.922,4.226-4.923
				C201.012,93.928,199.688,91.253,197.71,90.967z"/>
			<g>
				<path fill="#201315" d="M194.275,97.681l0.081,0.456l-0.063,0.032l-0.062-0.346l-0.193,0.097l0.057,0.322l-0.062,0.031
					l-0.058-0.322l-0.262,0.132l-0.02-0.109L194.275,97.681z"/>
				<path fill="#201315" d="M194.439,98.456l-0.321,0.266c-0.121,0.102-0.146,0.221-0.111,0.325
					c0.038,0.115,0.116,0.144,0.234,0.045l0.319-0.266l0.033,0.101l-0.314,0.261c-0.165,0.138-0.275,0.069-0.332-0.099
					c-0.051-0.16-0.029-0.333,0.139-0.471l0.318-0.264L194.439,98.456z"/>
				<path fill="#201315" d="M194.281,99.625c0.005,0.06,0.02,0.135,0.051,0.196c0.049,0.089,0.109,0.1,0.158,0.04
					c0.044-0.055,0.052-0.123,0.027-0.244c-0.029-0.144-0.023-0.263,0.042-0.346c0.075-0.092,0.179-0.074,0.246,0.059
					c0.037,0.069,0.052,0.133,0.056,0.177l-0.064,0.039c-0.002-0.033-0.012-0.095-0.045-0.156c-0.048-0.092-0.105-0.08-0.139-0.039
					c-0.045,0.056-0.045,0.123-0.021,0.248c0.029,0.153,0.02,0.259-0.05,0.346c-0.075,0.091-0.18,0.092-0.264-0.067
					c-0.034-0.065-0.059-0.154-0.06-0.211L194.281,99.625z"/>
				<path fill="#201315" d="M194.641,100.255c0.011,0.058,0.034,0.126,0.074,0.176c0.057,0.075,0.119,0.069,0.16,0
					c0.039-0.065,0.039-0.132,0.001-0.246c-0.048-0.133-0.057-0.249,0.003-0.346c0.064-0.108,0.168-0.116,0.252-0.005
					c0.044,0.057,0.066,0.115,0.074,0.158l-0.059,0.053c-0.006-0.03-0.023-0.089-0.063-0.141c-0.059-0.078-0.114-0.05-0.144-0.001
					c-0.038,0.065-0.029,0.13,0.008,0.245c0.047,0.142,0.05,0.247-0.012,0.35c-0.063,0.107-0.168,0.136-0.27,0.001
					c-0.043-0.054-0.076-0.132-0.084-0.189L194.641,100.255z"/>
				<path fill="#201315" d="M195.354,100.133c0.03,0.016,0.079,0.045,0.124,0.086c0.064,0.056,0.097,0.109,0.111,0.176
					c0.015,0.053,0.01,0.113-0.016,0.176c-0.033,0.076-0.094,0.113-0.158,0.099v0.002c0.039,0.061,0.068,0.169,0.02,0.285
					c-0.028,0.069-0.066,0.104-0.109,0.121c-0.055,0.019-0.121-0.005-0.202-0.077c-0.046-0.038-0.076-0.072-0.097-0.096
					L195.354,100.133z M195.124,100.885c0.011,0.017,0.028,0.032,0.051,0.053c0.067,0.058,0.146,0.074,0.192-0.041
					c0.046-0.107,0.007-0.203-0.063-0.264l-0.054-0.046L195.124,100.885z M195.282,100.51l0.059,0.053
					c0.067,0.059,0.131,0.036,0.163-0.038c0.039-0.092,0.012-0.167-0.055-0.224c-0.029-0.026-0.049-0.037-0.059-0.042
					L195.282,100.51z"/>
				<path fill="#201315" d="M195.74,101.115l-0.128,0.242l-0.074-0.038l0.415-0.762l0.086,0.042L196,101.547l-0.074-0.037
					l0.011-0.297L195.74,101.115z M195.945,101.119l0.011-0.273c0.001-0.063,0.006-0.118,0.011-0.171l0,0
					c-0.021,0.046-0.045,0.094-0.069,0.14l-0.118,0.223L195.945,101.119z"/>
				<path fill="#201315" d="M196.359,100.721l0.076,0.014l-0.107,0.793l0.249,0.049l-0.013,0.096l-0.324-0.061L196.359,100.721z"/>
				<path fill="#201315" d="M196.822,100.787l0.077-0.005l-0.022,0.799l0.256-0.015l-0.004,0.097l-0.332,0.02L196.822,100.787z"/>
				<path fill="#201315" d="M197.472,101.181l0.005,0.085l-0.219,0.056l-0.006-0.087L197.472,101.181z"/>
				<path fill="#201315" d="M197.594,100.659c0.031-0.026,0.082-0.06,0.134-0.085c0.075-0.037,0.126-0.041,0.169-0.016
					c0.037,0.018,0.063,0.059,0.074,0.127c0.014,0.081-0.012,0.171-0.066,0.233v0.004c0.059-0.007,0.135,0.028,0.156,0.154
					c0.011,0.074,0.002,0.14-0.021,0.195c-0.031,0.075-0.092,0.131-0.187,0.178c-0.052,0.024-0.093,0.039-0.12,0.047
					L197.594,100.659z M197.728,100.969l0.067-0.033c0.079-0.039,0.116-0.122,0.102-0.203c-0.016-0.101-0.074-0.114-0.15-0.077
					c-0.035,0.016-0.055,0.03-0.064,0.039L197.728,100.969z M197.795,101.377c0.016-0.003,0.037-0.013,0.064-0.026
					c0.076-0.038,0.143-0.115,0.121-0.237c-0.02-0.116-0.096-0.132-0.178-0.092l-0.063,0.029L197.795,101.377z"/>
				<path fill="#201315" d="M198.17,100.319l0.151,0.461c0.058,0.174,0.134,0.204,0.208,0.145c0.078-0.066,0.105-0.185,0.049-0.358
					l-0.152-0.46l0.071-0.059l0.149,0.454c0.078,0.238,0.023,0.411-0.094,0.507c-0.11,0.09-0.225,0.069-0.305-0.173l-0.148-0.458
					L198.17,100.319z"/>
				<path fill="#201315" d="M199.013,100.558l-0.366-0.664l0.068-0.085l0.336,0.143c0.078,0.032,0.143,0.067,0.203,0.106l0,0
					c-0.053-0.084-0.098-0.162-0.154-0.266l-0.154-0.278l0.058-0.073l0.366,0.664l-0.063,0.079l-0.336-0.145
					c-0.074-0.032-0.146-0.068-0.21-0.109l-0.003,0.004c0.051,0.078,0.097,0.157,0.156,0.267l0.156,0.282L199.013,100.558z"/>
				<path fill="#201315" d="M199.137,99.25c0.023-0.062,0.056-0.137,0.096-0.21c0.07-0.137,0.143-0.212,0.213-0.236
					c0.07-0.022,0.145,0,0.219,0.083c0.074,0.084,0.117,0.19,0.122,0.308c0.009,0.116-0.026,0.256-0.103,0.399
					c-0.034,0.066-0.065,0.121-0.094,0.165L199.137,99.25z M199.594,99.612c0.014-0.019,0.033-0.054,0.054-0.091
					c0.106-0.204,0.091-0.393-0.032-0.532c-0.108-0.124-0.229-0.103-0.334,0.098c-0.025,0.05-0.042,0.088-0.052,0.117
					L199.594,99.612z"/>
			</g>
		</g>
		<g>
			<polygon fill="#0E0710" points="198.23,86.701 198.368,87.396 198.84,87.571 198.43,88.038 198.426,88.78 198.035,88.373 
				197.563,88.654 197.73,87.937 197.441,87.37 197.938,87.334 			"/>
			<polygon fill="#0E0710" points="195.227,87.452 195.538,87.992 196.031,87.877 195.76,88.531 195.949,89.193 195.472,89.058 
				195.092,89.582 195.068,88.846 194.646,88.506 195.109,88.188 			"/>
			<polygon fill="#0E0710" points="200.918,88.212 200.491,88.646 200.041,88.392 200.152,89.102 199.818,89.689 200.313,89.694 
				200.556,90.309 200.752,89.602 201.236,89.396 200.862,88.954 			"/>
		</g>
	</g>
</g>
<rect x="-12.708" y="193.861" fill="#333333" width="319.208" height="60"/>
<text transform="matrix(1 0 0 1 88.5156 232.4238)" fill="#ECF0F1" font-family="'CenturyGothic'" font-size="31">Gaming</text>
</svg>
