<?xml version="1.0" encoding="utf-8"?>
<!-- Generator: Adobe Illustrator 16.0.0, SVG Export Plug-In . SVG Version: 6.00 Build 0)  -->
<!DOCTYPE svg PUBLIC "-//W3C//DTD SVG 1.1//EN" "http://www.w3.org/Graphics/SVG/1.1/DTD/svg11.dtd">
<svg version="1.1" id="Layer_1" xmlns="http://www.w3.org/2000/svg" xmlns:xlink="http://www.w3.org/1999/xlink" x="0px" y="0px"
	 width="300px" height="240px" viewBox="0 0 300 240" enable-background="new 0 0 300 240" xml:space="preserve">
<rect x="0.289" y="4.365" fill="none" width="300.012" height="179.986"/>
<rect x="-6.711" y="-7.935" fill="#1E1E1E" width="315.012" height="213.985"/>
<rect x="0.289" y="4.365" fill="none" width="300.012" height="179.986"/>
<rect x="0.289" y="4.365" fill="none" width="300.012" height="179.986"/>
<rect x="0.289" y="4.365" fill="none" width="300.012" height="179.986"/>
<rect x="0.289" y="4.365" fill="none" width="300.012" height="179.986"/>
<rect x="0.289" y="4.365" fill="none" width="300.012" height="179.986"/>
<rect x="-13.5" y="189.861" fill="#333333" width="322.102" height="60"/>
<text transform="matrix(1 0 0 1 81.6143 228.4238)" fill="#ECF0F1" font-family="'CenturyGothic'" font-size="31">Fun Events</text>
<radialGradient id="SVGID_1_" cx="457.4355" cy="-117.394" r="181.9286" gradientTransform="matrix(1 0 0 -1 -270.96 63.3398)" gradientUnits="userSpaceOnUse">
	<stop  offset="0" style="stop-color:#FCB415"/>
	<stop  offset="0.122" style="stop-color:#F89F1B"/>
	<stop  offset="0.2439" style="stop-color:#BF8927"/>
	<stop  offset="0.3659" style="stop-color:#58AD63"/>
	<stop  offset="0.4829" style="stop-color:#00A289"/>
	<stop  offset="0.5707" style="stop-color:#009FDB"/>
	<stop  offset="0.6732" style="stop-color:#005AA1"/>
	<stop  offset="0.7707" style="stop-color:#1B3C8E"/>
	<stop  offset="0.9024" style="stop-color:#D70080"/>
	<stop  offset="1" style="stop-color:#D81921"/>
</radialGradient>
<path fill="url(#SVGID_1_)" d="M123.837,16.396c0,0,0.136,0.326,0.268,0.778c-0.03-0.175-0.08-0.359-0.16-0.564
	C123.361,15.125,123.837,16.396,123.837,16.396z"/>
<radialGradient id="SVGID_2_" cx="457.3838" cy="-112.7373" r="181.9497" gradientTransform="matrix(1 0 0 -1 -270.96 63.3398)" gradientUnits="userSpaceOnUse">
	<stop  offset="0" style="stop-color:#FCB415"/>
	<stop  offset="0.122" style="stop-color:#F89F1B"/>
	<stop  offset="0.2439" style="stop-color:#BF8927"/>
	<stop  offset="0.3659" style="stop-color:#58AD63"/>
	<stop  offset="0.4829" style="stop-color:#00A289"/>
	<stop  offset="0.5707" style="stop-color:#009FDB"/>
	<stop  offset="0.6732" style="stop-color:#005AA1"/>
	<stop  offset="0.7707" style="stop-color:#1B3C8E"/>
	<stop  offset="0.9024" style="stop-color:#D70080"/>
	<stop  offset="1" style="stop-color:#D81921"/>
</radialGradient>
<path fill="url(#SVGID_2_)" d="M175.775,56.682c-1.006-1.855-3.295-0.632-5.043-2.273c-1.746-1.641-1.59-2.123-1.854-3.5
	c-0.266-1.376-0.689-1.325-1.801-2.543c-1.113-1.218-1.061-1.958-1.963-3.125c-0.898-1.168-2.859-1.747-3.389-2.703
	c-0.533-0.953-1.115-0.899-2.07-1.642c-0.952-0.743-0.952-0.531-1.48-1.324c-0.531-0.798-1.484-2.492-2.121-2.864
	c-0.636-0.371-0.58-0.474-0.477-1.06c0.105-0.582-0.635-1.535-1.377-2.383c-0.741-0.847-0.954-1.114-0.529-1.75
	c0.422-0.636,1.219-0.371,1.747-0.583c0.529-0.212,1.271-0.264,3.815-0.794c2.543-0.531,3.658-0.213,5.828-0.531
	c2.172-0.318,6.307-1.007,9.117-1.378c2.807-0.371,4.342-0.475,6.355-0.635c2.014-0.158,1.482-2.542,1.482-2.542
	s2.916-0.687,5.828-1.271c2.918-0.584,6.094-0.479,8.161-0.689c2.066-0.212,1.96,0.478,2.597,1.273
	c0.636,0.791,3.496,2.33,4.504,2.542c1.008,0.213,1.961,0.744,2.701,1.379c0.742,0.635,2.492,1.163,2.492,1.163
	c1.694-0.952,0.053-2.224-0.85-2.807c-0.9-0.583-1.854-1.005-2.118-1.908c-0.267-0.9,0.793-1.538,1.8-2.014
	c1.01-0.476,1.539-0.899,2.333-1.536c0.796-0.637,1.802-1.06,2.861-1.642c1.062-0.583,2.967-2.542,2.967-2.542
	c1.272-1.536,0.423-1.38,0.423-1.38c0.531-0.742,0.215-1.856,0.215-1.856c-0.317-1.216-1.963,0.637-1.963,0.637
	c0.477-0.848-0.104-1.482-0.104-1.482c-0.476-0.742-2.331,1.007-3.284,1.482c-0.955,0.478-0.371,0.318-1.907,0.902
	c-1.539,0.583-2.386,0.954-2.386,0.954c0.424-0.582,0.954-2.013,1.59-2.861c0.637-0.847,0.637-0.532,0.689-1.909
	c0.052-1.376-1.325,0.052-1.59,0.371c-0.267,0.319-1.59,2.174-1.696,2.334c-0.105,0.157-1.96,2.117-2.81,2.329
	c-0.847,0.213-3.338,1.222-4.504,1.166c-1.164-0.052-1.695-0.211-2.754-0.052c-1.061,0.159-5.195,0.318-11.021,0.262
	c-5.83-0.051-9.01,0.479-12.137,0.531c-3.123,0.053-2.596,0.902-4.822,1.221c-2.223,0.316-8,1.166-10.754,1.112
	c-2.756-0.054-7.259,0.742-8.057,0.53c-0.794-0.211-2.332-1.75-3.073-1.593c-0.741,0.162-1.589,2.07-1.589,2.07
	s-0.426,0.74-1.697,0.9c-1.271,0.158-2.859,0.583-4.503,0.424c-1.644-0.16-3.286,0.478-4.61,0.635
	c-1.325,0.161-2.173-0.105-2.968-0.476c-0.795-0.371-1.06-1.431-1.801-3.232c-0.741-1.801-2.491-3.499-2.81-4.505
	c-0.316-1.008,1.114-0.845,1.114-0.845c-0.823-0.352-1.315-0.482-1.604-0.493c0.585-0.411,2.028-0.411,2.028-0.411
	c-1.696-0.229-2.329,0.039-2.559,0.333c0.028-0.53-0.109-1.147-0.249-1.622c0.184,1.055-0.479,1.45-0.479,1.45
	c-0.899-1.696-4.556-3.394-6.994-5.038c-2.438-1.642-3.233-0.792-4.505-0.314c-1.271,0.475-1.589,0.685-1.589,0.685
	c-6.147-1.534-9.433,5.936-9.433,5.936c-1.327,0.643-2.75,3.543-4.183,5.983c-1.429,2.437-0.953,1.854-2.597,3.178
	c-1.642,1.324-1.747,1.643-3.283,2.969c-1.539,1.324-3.286,1.746-3.286,1.746s-2.277-0.846,0,0.265
	c2.278,1.112,5.936-0.583,5.936-0.583c-0.584,2.067-4.981,3.974-4.981,3.974c1.587,0.478,6.517-1.642,6.517-1.642
	c-1.273,3.921-8.585,4.502-8.585,4.502s-2.383-0.952,0.108,0.211c2.488,1.168,6.306,0.162,6.306,0.162
	c-1.909,2.171-5.936,2.064-5.936,2.064c2.333,0.532,8.055-1.534,8.055-1.534c-1.432,4.606-7.896,3.974-7.896,3.974
	c1.694,1.271,5.298-0.214,5.298-0.214c-1.644,2.755-6.677,3.604-6.677,3.604c2.013,1.325,7.047-1.484,7.047-1.484
	c-0.741,3.232-4.769,3.497-4.769,3.497c3.232,0.265,4.081-1.058,5.354-2.861c1.271-1.8,3.231-1.855,4.502-3.602
	c1.273-1.75,2.863-2.81,2.863-2.81c-0.159,1.698-1.643,3.871-1.643,3.871c-3.55,2.276-1.376,4.607-3.392,9.271
	c-2.014,4.661-6.463,5.459-6.463,5.459c2.703,0.793,3.657-0.16,3.657-0.16s0.898-1.645,0.211,0
	c-0.689,1.642-3.445,2.966-3.445,2.966c1.006,0.106,1.271,0.16,2.28-0.74c1.006-0.902,1.376-1.325,2.542-2.279
	c1.166-0.954,1.379-0.688,1.379-0.688c-1.273,2.752-3.815,4.767-3.815,4.767c2.012-0.793,0.849,0.53,2.861-2.385
	c2.013-2.913,4.238-3.551,4.238-3.551c-0.53,3.655-2.647,7.261-2.647,7.261c1.748-0.744,2.277-4.503,3.072-6.837
	c0.795-2.333,1.008-2.437,2.649-3.391c1.643-0.954,1.643-0.741,1.643-0.741s2.067-2.384,0.214-0.105
	c-1.857,2.277-1.167,5.352-1.167,5.352c0.583-2.121,2.225-5.089,2.225-5.089c-0.529,8.426-4.769,12.878-4.769,12.878
	c1.061-0.264,2.967-2.384,2.967-2.384c0.108,1.589-0.952,3.443-0.952,3.443c1.854-0.689,1.96-3.709,3.232-6.624
	s1.536-0.052,1.536-0.052s1.75-4.981,0,0.21c-1.747,5.195,0.69,4.929,0.69,4.929c-1.061-1.643-0.319-1.005,0-1.058
	c0.319-0.054,1.325-0.266,1.325-0.266c-1.166,1.377,1.428,2.436,1.428,2.436c-2.382-1.165-0.369-3.074-0.369-3.074
	c1.06-0.952,2.385-7.84,2.385-7.84l0.158,4.873c-0.9,7.79,2.119,6.997,2.119,6.997c-1.855-0.531-1.431-2.81-1.431-2.81
	c3.762-1.801,4.558-4.662,4.558-4.662c0.371,1.905,5.298,3.815,3.55,3.02c-1.749-0.795-2.543-3.391-2.914-5.352
	c-0.372-1.961-0.372-3.762-0.319-4.399c0.054-0.636,1.008-2.333,1.325-3.974c0.318-1.643,0.16-2.226,0.265-4.822
	c0.107-2.598,2.915-5.3,2.915-5.3c-0.637,0.957,0.104,9.54,0.424,11.182c0.318,1.645,0.465,4.238,1.524,5.667
	c1.061,1.431,2.487,2.478,2.125,2.616c-1.058,0.402,3.354,3.054,4.413,3.106c1.061,0.054,2.452-1.593,2.452,0
	c0,1.587,1.733-0.684,3.269,0.327c1.538,1.007,4.921,2.224,6.564,3.175c1.643,0.954,2.915,2.228,2.915,2.228s3.073,0.368-2.279,0.58
	c-5.351,0.211-23.688,5.088-25.488,6.042c-1.801,0.954-2.225,2.384-4.452,4.504c-2.223,2.119,0.637,5.406,1.062,7.629
	c0.425,2.226,1.218,2.648,0.955,3.709c-0.267,1.063-0.053,0.637,0.369,1.114c0.423,0.476,0.53,0.212,2.385-0.052
	c1.854-0.267,1.006,0.052,1.006,0.052s3.022,2.541,3.763,3.337c0.741,0.795,1.431,0.531,1.431,0.531s7.048,6.093,9.272,8
	c2.227,1.908,7.843,6.783,7.579,7.475c-0.266,0.687-0.159,6.515-0.317,8.315c-0.161,1.801,0.846,5.14,0.742,6.306
	c-0.108,1.167-0.16,2.543,0.317,3.551c0.476,1.011,0.53,1.537,0.583,2.914c0.053,1.379,0.902,3.499,1.378,5.246
	c0.477,1.75,2.542,0.901,2.542,0.901l1.433,6.52l0.37,0.211c0,0,1.803,7.523,3.655,12.081c1.856,4.558,2.598,8.901,2.811,10.651
	c0.212,1.746,0.318,2.964,0.157,3.18c-0.157,0.212-0.21-0.689-0.21-0.689c-0.584-0.849-0.106-1.22-0.637-0.478
	c-0.528,0.739-0.426,2.757-0.901,3.18s-0.476,1.271-1.853,1.853c-1.379,0.584-3.076,2.175-3.924,2.547
	c-0.848,0.369-1.323,0.369-3.179,1.324c-1.855,0.953-0.584,0.849-3.551,1.854c-2.966,1.007-3.445,1.325-1.908,3.181
	c1.538,1.854,12.294,1.112,12.876,0.527c0.583-0.581,0.212-0.581,1.326-0.635c1.111-0.055,1.482,0.369,2.226-0.105
	c0.74-0.479,2.438,0,2.438,0c2.066,1.481,8.637,0.105,8.637,0.105c2.544-1.221,1.535-3.445,1.165-4.771
	c-0.37-1.322-0.37-2.172-0.899-3.813c-0.529-1.645-1.326-1.432-1.326-1.432c-0.635-0.795-1.431-6.092-1.695-9.006
	c-0.264-2.916-0.793-4.664-0.793-7.845c0-3.179,0.105-4.397-0.371-7.416c-0.479-3.022-1.167-6.255-1.961-8.479
	s-1.219-3.39-1.219-3.39c1.004-0.532,2.385-9.698,2.33-11.231c-0.053-1.539-1.006-1.697-1.905-3.074
	c-0.902-1.378-0.956-4.344-0.956-4.344s0.796,0.212,1.697-1.908c0.899-2.122-0.637-0.795,0.423-2.65
	c1.061-1.856,1.431-3.392,1.696-5.353c0.266-1.96,0.371-1.43,0.688-2.81c0.316-1.376,0.266-0.846,0.636-1.905
	c0.371-1.06-0.104-0.583,0.741-1.802c0.85-1.22,0.479-1.376,0.689-1.958c0.211-0.584,0.688-0.689,1.113-1.484
	c0.422-0.793,0.105-0.689,0.582-1.219c0.477-0.528,0.319-0.688,0.742-1.643c0.423-0.952,1.059-1.749,1.059-1.749
	c2.174-1.484,5.664-3.608,6.672-4.936c1.007-1.322,1.939-1.943,2.975-3.273C191.583,66.296,175.775,56.682,175.775,56.682z
	 M143.87,93.932c-0.848-0.688-4.185-6.941-4.185-6.941c0.476,0.371,5.086,0.476,5.086,0.476
	C144.135,87.998,143.87,93.932,143.87,93.932z"/>
</svg>
