<?xml version="1.0" encoding="utf-8"?>
<!-- Generator: Adobe Illustrator 16.0.0, SVG Export Plug-In . SVG Version: 6.00 Build 0)  -->
<!DOCTYPE svg PUBLIC "-//W3C//DTD SVG 1.1//EN" "http://www.w3.org/Graphics/SVG/1.1/DTD/svg11.dtd">
<svg version="1.1" id="Layer_1" xmlns="http://www.w3.org/2000/svg" xmlns:xlink="http://www.w3.org/1999/xlink" x="0px" y="0px"
	 width="300px" height="240px" viewBox="0 0 300 240" enable-background="new 0 0 300 240" xml:space="preserve">
<rect x="-11.5" y="-10.695" fill="#199E51" width="319" height="235.271"/>
<rect x="-0.075" y="8.365" fill="none" width="299.997" height="179.986"/>
<rect x="-0.075" y="8.365" fill="none" width="299.997" height="179.986"/>
<rect x="-0.075" y="8.365" fill="none" width="299.997" height="179.986"/>
<rect x="-0.075" y="8.365" fill="none" width="299.997" height="179.986"/>
<rect x="-0.075" y="8.365" fill="none" width="299.997" height="179.986"/>
<rect x="-0.075" y="8.365" fill="none" width="299.997" height="179.986"/>
<rect x="-11.5" y="193.861" fill="#333333" width="318.922" height="60"/>
<text transform="matrix(1 0 0 1 85.457 232.4238)" fill="#ECF0F1" font-family="'CenturyGothic'" font-size="31">Lensified</text>
<g>
	<g>
		<path fill="#F9F4E5" d="M108.02,129.545c-1.256,4.693,1.448,9.495,6.04,10.725l62.992,16.861
			c4.593,1.229,9.333-1.578,10.591-6.271l28.871-107.865c1.258-4.693-1.447-9.495-6.039-10.724l-62.996-16.862
			c-4.588-1.229-9.33,1.579-10.586,6.272L108.02,129.545z"/>
		
			<rect x="125.89" y="30.448" transform="matrix(0.966 0.2586 -0.2586 0.966 27.1646 -39.2254)" opacity="0.75" fill="#BABABA" enable-background="new    " width="73.589" height="106.392"/>
		
			<ellipse transform="matrix(-0.2585 0.966 -0.966 -0.2585 251.5432 -136.9211)" fill="#0091B0" cx="178.319" cy="28.076" rx="1.834" ry="1.794"/>
		
			<rect x="143.053" y="139.22" transform="matrix(0.9659 0.2589 -0.2589 0.9659 41.3732 -33.1726)" fill="#0091B0" width="7.175" height="2.569"/>
	</g>
	<g>
		<polygon fill="#1F191A" points="215.145,69.923 205.704,83.847 208.967,71.658 		"/>
		<circle fill="#1F191A" cx="210.873" cy="67.012" r="5.167"/>
		<polygon fill="#1F191A" points="111.654,116.439 105.089,121.139 110.541,121.871 		"/>
		<circle fill="#1F191A" cx="107.726" cy="124.681" r="4.394"/>
		<g>
			<g>
				<defs>
					<polygon id="SVGID_1_" points="182.887,144.123 113.5,125.489 133.54,50.236 177.156,52.509 208.314,55.483 184.475,144.549 
											"/>
				</defs>
				<clipPath id="SVGID_2_">
					<use xlink:href="#SVGID_1_"  overflow="visible"/>
				</clipPath>
				<path clip-path="url(#SVGID_2_)" fill="#1F191A" d="M192.616,84.627l-25.005-0.806c-11.463,0.81-14.023-0.509-14.541-1.352
					c5.06-1.191,9.345-5.122,10.806-10.582c2.101-7.843-2.419-15.865-10.094-17.92c-7.674-2.054-15.591,2.638-17.691,10.481
					c-2.099,7.843,2.42,15.865,10.09,17.919c0.188,0.051,0.38,0.095,0.569,0.137c-0.155,0.956-1.625,1.328-1.625,1.328
					l-18.228,0.495c-1.932,0.251-2.766,1.499-2.766,1.499l-0.905,3.5l-0.382,16.294c0.072,3.418-1.69,4.265-1.69,4.265l-4.364,2.778
					l-3.29,12.826l16.336-9.114c3.354-2.281,3.376-5.238,3.376-5.238l0.063-14.57c0.752-1.993,1.254,0.227,1.254,0.227l0.095,44.936
					l10.844,2.902l-0.11-5.121c0,0,0.104-1.076,5.066-1.174c4.963-0.097,5.545,1.271,5.545,1.271l-0.176,7.8l10.952,2.933
					l-0.548-50.992c0.064-3.932,3.253-3.955,3.253-3.955l23.946,1.412c3.875,0.271,4.965-3.387,4.965-3.387l5.6-21.236
					L192.616,84.627z"/>
			</g>
		</g>
		<g>
			<path fill="#80CC8E" stroke="#80CC8E" stroke-width="0.4401" stroke-miterlimit="10" d="M167.609,83.825
				c-6.498,0.459-10.133,0.234-12.16-0.2c-3.651,1.584-8.359,0.612-10.124,0.15c-0.12,0.042-0.198,0.062-0.198,0.062l-18.226,0.495
				c-1.931,0.25-2.765,1.499-2.765,1.499l-0.905,3.498l-0.261,11.133l10.293-0.505l0.014-3.39c0.752-1.992,1.255,0.227,1.255,0.227
				l0.062,29.255l31.9,1.187l-0.299-27.885c0.064-3.931,3.252-3.955,3.252-3.955l7.043,0.416l0.615-11.678L167.609,83.825z"/>
		</g>
	</g>
</g>
</svg>
