<?xml version="1.0" encoding="utf-8"?>
<!-- Generator: Adobe Illustrator 16.0.0, SVG Export Plug-In . SVG Version: 6.00 Build 0)  -->
<!DOCTYPE svg PUBLIC "-//W3C//DTD SVG 1.1//EN" "http://www.w3.org/Graphics/SVG/1.1/DTD/svg11.dtd">
<svg version="1.1" id="Layer_1" xmlns="http://www.w3.org/2000/svg" xmlns:xlink="http://www.w3.org/1999/xlink" x="0px" y="0px"
	 width="300px" height="240px" viewBox="0 0 300 240" enable-background="new 0 0 300 240" xml:space="preserve">
<radialGradient id="SVGID_1_" cx="124.2861" cy="166.207" r="161.2458" gradientTransform="matrix(1 0 0 -1 41.8398 300.0391)" gradientUnits="userSpaceOnUse">
	<stop  offset="0" style="stop-color:#DDDFE2"/>
	<stop  offset="1" style="stop-color:#C3C5CA"/>
</radialGradient>
<rect x="-7.611" y="-3.003" fill="url(#SVGID_1_)" width="339.271" height="239.889"/>
<g>
	
		<rect x="288.911" y="41.047" transform="matrix(0.8944 -0.4472 0.4472 0.8944 3.8924 135.5775)" fill="#7B7A7E" width="0.385" height="36.995"/>
	
		<rect x="267.765" y="57.775" transform="matrix(0.3353 0.9421 -0.9421 0.3353 243.461 -229.1313)" fill="#7B7A7E" width="32.688" height="0.386"/>
	<path fill="#7B7A7E" d="M308.672,88.527h0.906l-0.057-1.725l-0.244-7.407l-5.775-1.469l-0.029-0.894l-3.178-0.767l-5.209,0.064
		l0.033-2.873l-6.303,0.063l-0.246,4.216c0,0-2.396-0.447-4.324-0.447c-1.928,0-1.191,0.894-1.191,0.894h-0.902
		c0,0-0.493,0.638-0.155,1.085c0.336,0.446,1.688,0.511,1.688,0.511l2.844,0.383c0,0,0.199,0.255,0.341,0.575
		c0.139,0.32-0.574,0.128-1.091,0.128c-0.514,0-1.223,0-2.055,0.064c-0.836,0.063-0.742,0.957-0.742,0.957l-0.684,0.703
		l-0.672-0.096l-4.492-38.299h0.113l-0.016-0.189l0.01-0.002l-0.012-0.013l-0.554-6.835l-0.041-3.331l1.689,5.055l-0.771,0.047
		l-0.879-1.771c0,0,0.334,2.826,0.34,2.969c0.004,0.144,1.469,2.107,1.469,2.107l-0.325-1.102l1.01-0.096l1.547,1.581l-1.075-3.4
		c0,0-0.285,0.144-0.644-0.479c-0.358-0.622-2.222-5.891-2.222-5.891l-0.143,0.791l-0.043-3.425l0.061-2.538l-0.727-1.58
		c0,0,0,0-0.125-0.814c-1.35,0-1.291,0.335-1.291,0.335s-0.004,1.341-0.146,1.437c-0.141,0.096-0.817,0.048-0.817,0.048
		s0.08-1.964-0.642-1.868c-0.719,0.096-0.221,0.575-0.385,1.485c-0.162,0.91,0.16,1.915,0.16,1.915
		c-0.143,0.048,0.256,0.431,0.709,1.006c0.201,0.255,0.271,1.078,0.281,1.912l-0.121,0.004l-0.16-1.916l-0.236,0.145l0,0
		l-0.209-0.479c0,0-0.161-0.527-0.45-0.527c-0.291,0-0.761,0.383-0.761,0.383s0.078-0.527-0.444-0.383
		c-0.527,0.144-0.565,0.431-0.565,0.431s-0.107-0.382-0.593-0.382c-0.481,0-0.295,1.292-0.295,1.292s1.586,0.097,2.293,0.104
		l-2.961,0.086c0,0,0.08,1.007,0.226,0.958c0.143-0.047-1.896,2.444-1.896,2.444l0.135,0.321l-0.078-0.034l0.002,0.071
		c-6.471,1.549-50.326,11.772-81.938,12.184l-0.013-0.242l-4.74-0.127l-0.008,0.661l-1.705-0.538
		c-0.037-0.081-0.049-0.093-0.059-0.102l-0.061,0.063l-5.469-1.729l-0.107-0.174l-5.682,7.185c-0.373,0.004-0.617,0.007-0.688,0.007
		v0.386c0.127,0,0.824-0.008,1.808-0.019l-0.002,0.192c0.077,0.004,0.364,0.083,0.771,0.208l-0.507,0.911l0.339,0.187l0.545-0.982
		c0.86,0.269,2.037,0.655,2.969,0.968l-6.379,0.049l0.017,0.511l8.946,0.128l51.22,15.913l0.041,1.249h-0.611l-0.662-1.602
		c0,0-0.553,0.071-0.709,0.041c0.061,0.268,0.023,1.648,0.023,1.648h-0.828l-1.271-1.472l-0.035-1.082l-1.405-0.303l0.065,0.649
		l0.61,0.043l0.281,3.246h0.437l-0.013-0.347h2.052l0.037,1.169h2.745l0.035,1.039h-0.608l0.021,0.693h0.654l0.025,0.735
		c0.262,0,0.44-0.454,0.44-0.454l0.593,0.064l0.541,0.52l0.244-0.476h0.653l0.414,0.649l0.321-0.779h0.438l-0.018-0.52h-0.785
		l-0.054-1.601c0,0,5.246-0.195,5.449,0c0.123,0.118,0.09-0.083,0.045-0.259l33.336,10.356l0.275,0.575c0,0,0.264,0.099,0.707,0.187
		l-0.012,0.115l-0.695-0.302c0,0-0.457,19.775-0.439,21.691l-0.645-0.043l-0.207,1.533h-0.965l0.047,1.405
		c0,0,0.488,0.015,1.289,0.037c0.082,0.003,0.168,0.006,0.256,0.008l0.045,1.359h13.445l-0.039-1.184
		c0.83-0.109,5.4,0.167,6.891,0.226c1.609,0.064,3.605,0.127,3.605,0.127l-0.158-10.6l-1.232-0.32l0.25-7.981l-2.856-0.831
		l-7.535-0.319l-0.137-2.191c4.479,1.177,9.207,2.431,11.771,3.124l0.174,10.85l14.194,0.335l-0.092-2.777l1.644,0.047
		L308.672,88.527z M287.836,106.025l0.127,0.957l-4.344-0.095l-0.418-0.959L287.836,106.025z M278.396,82.027l-1.086-0.156
		l-3.629-5.22c-0.017-0.765-0.033-1.54-0.05-2.253l4.705,6.554L278.396,82.027z M272.313,80.813
		c-0.043-0.107-0.088-0.215-0.131-0.319l0.019-0.015l-0.048-0.056c-0.758-1.833-1.28-3.083-1.647-3.938l2.269,2.708l0.008,1.766
		L272.313,80.813z M174.373,52.064l0.584,0.127l0.01,0.325c-0.174-0.086-1.182-0.579-1.93-0.95c0.416-0.005,0.828-0.01,1.223-0.015
		l-0.031,0.002L174.373,52.064z M168.613,51.234l3.566-3.144l-0.505,3.107C170.541,51.211,169.451,51.225,168.613,51.234z
		 M174.367,46.292l-0.014-0.006l-2.248,4.663l0.531-3.261l1.678-1.48L174.367,46.292z M172.734,47.087l0.307-1.883l0.373-0.472
		l0.697,1.14L172.734,47.087z M172.277,47.49l-3.455,3.047l3.727-4.71L172.277,47.49z M174.598,46.669l1.017,1.661l-3.089,2.782
		l0.068,0.074c-0.057,0.001-0.115,0.002-0.174,0.003L174.598,46.669z M274.594,49.75l2.275,4.924l0.15,2.692l-2.822-7.616H274.594z
		 M274.01,50.355l3.059,8.254h-3.227L274.01,50.355z M273.832,59.088h3.285l0.01,0.193l-3.426,6.259L273.832,59.088z
		 M277.168,60.012l0.088,1.611l-3.631,7.756l0.061-3.004L277.168,60.012z M277.764,70.679h-4.166l0.008-0.349l3.697-7.894
		L277.764,70.679z M272.914,70.679h-1.174l0.088-1.164l0.107,0.059l0.86-1.577L272.914,70.679z M272.746,72.5l-0.826-1.15h0.822
		L272.746,72.5z M271.666,71.658l1.082,1.508l0.01,2.352l-0.086,0.06l-1.271-0.403L271.666,71.658z M273.756,81.266
		c0.002-0.146,0-0.465-0.006-0.906l0.951,1.136l-0.393-0.056L273.756,81.266z M273.74,79.748c-0.008-0.399-0.014-0.851-0.023-1.336
		c1.15,1.629,1.914,2.652,2.42,3.291l-1.111-0.16l0.127-0.108L273.74,79.748z M276.682,81.781c-0.688-0.864-1.869-2.492-2.979-4.065
		c-0.004-0.122-0.006-0.244-0.008-0.368l3.092,4.448L276.682,81.781z M272.762,76.37c-0.111-0.157-0.217-0.312-0.322-0.461
		l0.205,0.064l0.029-0.095l0.086,0.123L272.762,76.37z M271.998,75.769l-0.082,0.058c0.299,0.436,0.582,0.843,0.848,1.226
		l0.006,1.537l-2.844-3.393c-0.016-0.035-0.031-0.068-0.047-0.098L271.998,75.769z M269.43,75.039l-0.08,0.068l0.262,0.313
		c0.177,0.387,0.435,0.985,0.73,1.68l-0.455,0.596l-1.479-1.781l0.823-0.991l-0.057-0.048l0.234,0.073l-0.021,0.014
		C269.396,74.977,269.412,75.004,269.43,75.039z M271.316,79.417l-1.176-1.416l0.373-0.492
		C270.771,78.114,271.047,78.771,271.316,79.417z M257.145,76.054c-0.074-0.194-0.156-0.416-0.248-0.655l0.017,0.016l0.987-0.969
		c0.621,0.825,1.254,1.67,1.81,2.413L257.145,76.054z M256.016,75.699l-0.004-0.072l-0.193,0.01l-1.854-0.581l-0.539-1.432h1.391
		l1.688,2.227L256.016,75.699z M241.113,67.715l1.668,2.188c-0.324,0.337-0.643,0.669-0.932,0.972l-1.109-2.75L241.113,67.715z
		 M240.58,67.728l-0.605-1.505l0.9,1.181L240.58,67.728z M243.779,69.417c0.166-0.176,0.32-0.339,0.459-0.486l1.426,1.89
		l-0.924,0.929L243.779,69.417z M243.912,70.752l-0.625-0.819c0.07-0.072,0.137-0.142,0.201-0.209L243.912,70.752z M243.617,69.022
		l-0.832-2.015L244,68.615C243.875,68.746,243.748,68.882,243.617,69.022z M242.08,66.307l0.023,0.058l-0.086-0.078L242.08,66.307z
		 M243.326,69.329c-0.092,0.096-0.184,0.193-0.277,0.291l-1.672-2.194l0.799-0.883L243.326,69.329z M241.146,70.169l-1.021-1.365
		l0.328-0.361L241.146,70.169z M242.006,71.268c0.375-0.388,0.711-0.738,1.014-1.053l1.406,1.847l-2.404-0.754L242.006,71.268z
		 M244.936,72.222l-0.035-0.086l0.998-1.004l1.373,1.818l-0.014,0.001L244.936,72.222z M247.268,69.753l1.445,2l-0.766,0.898
		l-0.932-2.645L247.268,69.753z M246.875,69.603l-0.273-0.776l0.438,0.608L246.875,69.603z M258.742,73.625l0.855,2.437
		c-0.533-0.712-1.005-1.34-1.418-1.891l0.557-0.546H258.742z M257.945,73.86c-0.059-0.08-0.119-0.159-0.176-0.235h0.416
		L257.945,73.86z M257.666,74.134l-0.91,0.894c-0.164-0.437-0.346-0.918-0.529-1.403h1.056
		C257.408,73.792,257.537,73.962,257.666,74.134z M256.324,74.977l-1.023-1.352h0.512C255.992,74.101,256.168,74.566,256.324,74.977
		z M255.229,70.979c-0.01-0.026-0.02-0.052-0.03-0.078c0.021,0.025,0.041,0.051,0.063,0.078H255.229z M254.816,70.979h-0.019
		c0.004-0.005,0.009-0.011,0.013-0.017C254.811,70.969,254.814,70.975,254.816,70.979z M252.939,73.427
		c-0.021,0.036-0.039,0.071-0.062,0.107c-0.071-0.101-0.146-0.206-0.226-0.313c0.074,0,0.146,0,0.209,0L252.939,73.427z
		 M253.213,72.633l-0.16-0.001l-1.008-2.671l1.18,1.56L253.213,72.633z M251.361,69.243l1.277,3.386l-0.414-0.003
		c-0.556-0.773-1.177-1.633-1.718-2.387l0.851-0.998L251.361,69.243z M251.746,72.622l-1.238-0.01
		c-0.189-0.486-0.408-1.05-0.631-1.633l0.373-0.438C250.725,71.201,251.256,71.938,251.746,72.622z M249.805,72.607l-0.604-0.835
		l0.387-0.454c0.195,0.507,0.359,0.933,0.5,1.291L249.805,72.607z M250.332,73.221c0.039,0.097,0.074,0.186,0.109,0.269
		l-0.195-0.269C250.275,73.221,250.303,73.221,250.332,73.221z M249.326,72.603l-0.826-0.005l0.445-0.522L249.326,72.603z
		 M249.719,70.568c-0.211-0.55-0.42-1.104-0.613-1.618c0.224,0.313,0.545,0.757,0.912,1.269L249.719,70.568z M248.521,68.493
		c0.354,0.946,0.653,1.743,0.91,2.415l-0.464,0.542l-1.424-1.975L248.521,68.493z M247.547,72.673l-1.373-1.818l0.541-0.543
		L247.547,72.673z M248.152,73.232l-0.058-0.16l0.187-0.218l-0.008,0.367c0.039,0,0.686,0,1.498,0l0.483,0.67L248.152,73.232z
		 M251.141,74.17l0.015-0.009c-0.048-0.07-0.197-0.424-0.402-0.94c0.502,0,1.004,0,1.427,0c0.176,0.243,0.342,0.474,0.493,0.685
		c-0.098,0.173-0.198,0.352-0.305,0.543l0.338,0.188c0.067-0.122,0.142-0.252,0.215-0.386c0.188,0.262,0.343,0.474,0.443,0.616
		L251.141,74.17z M260.129,76.416c0.156-0.197,0.742-0.836,1.422-1.563l0.428,1.01l-0.498,1.552l-1.146-0.359l0.019-0.006
		L260.129,76.416z M262.15,74.213c0.082,0.109,0.166,0.22,0.252,0.335l-0.242,0.751l-0.32-0.756
		C261.941,74.434,262.047,74.323,262.15,74.213z M261.676,74.152l-0.547-1.283c0.207,0.266,0.475,0.619,0.785,1.029
		C261.83,73.986,261.75,74.071,261.676,74.152z M262.549,74.093c-0.045-0.058-0.086-0.112-0.127-0.167
		c0.092-0.097,0.184-0.194,0.271-0.289L262.549,74.093z M262.391,75.843l0.295-0.917c0.267,0.357,0.547,0.733,0.832,1.116
		l-0.735,0.726L262.391,75.843z M262.486,77.06l-0.476,0.468l0.076,0.077l-0.239-0.076l0.36-1.124L262.486,77.06z M262.648,77.442
		l0.166,0.391l-0.426-0.134L262.648,77.442z M263.299,77.984l-0.355-0.833l0.808-0.795c0.276,0.373,0.556,0.749,0.828,1.117
		l-0.281,0.825L263.299,77.984z M265.002,75.119c0.086,0.108,0.174,0.22,0.264,0.334l-0.197,0.584l-0.288-0.7L265.002,75.119z
		 M264.621,74.952l-0.262-0.637c0.123,0.153,0.258,0.32,0.399,0.501L264.621,74.952z M265.416,75.017
		c-0.049-0.059-0.094-0.117-0.137-0.171l0.293-0.29L265.416,75.017z M264.877,76.594l-0.146,0.434
		c-0.252-0.338-0.483-0.654-0.7-0.948l0.452-0.449L264.877,76.594z M265.102,77.136l0.361,0.883
		c-0.156-0.211-0.309-0.417-0.453-0.614L265.102,77.136z M264.857,77.85c0.207,0.28,0.408,0.552,0.6,0.812l-0.791-0.248
		L264.857,77.85z M265.291,76.58l0.26-0.767c0.375,0.475,0.779,0.985,1.184,1.501l-0.768,0.918L265.291,76.58z M265.701,75.376
		l0.484-1.427l1.135,2.662l-0.332,0.399C266.482,76.369,266.057,75.827,265.701,75.376z M266.961,74.779l0.941,1.135l-0.305,0.365
		L266.961,74.779z M267.49,77.01l0.6,1.406c-0.307-0.393-0.594-0.757-0.857-1.095L267.49,77.01z M267.768,76.678l0.387-0.462
		l1.49,1.795l-0.84,1.1L267.768,76.678z M268.154,75.613l-1.193-1.438l1.893,0.599L268.154,75.613z M265.037,74.542
		c-0.605-0.758-0.914-1.13-1.076-1.315l1.824,0.577L265.037,74.542z M263.43,73.059l0.896,2.186l-0.527,0.522
		c-0.366-0.494-0.687-0.923-0.965-1.296l0.467-1.453L263.43,73.059z M262.186,73.612c-0.483-0.638-0.787-1.023-0.979-1.256
		l1.668,0.528C262.627,73.146,262.396,73.389,262.186,73.612z M260.383,72.095l1.002,2.365c-0.77,0.82-1.182,1.277-1.402,1.537
		l-0.83-2.373h0.234l1.508,0.845l0.14-0.331l-1.027-0.808l-0.082-0.874l0.392-0.382L260.383,72.095z M259.879,71.962l-0.004-0.026
		l0.023,0.006L259.879,71.962z M255.748,70.979c-0.162-0.203-0.285-0.356-0.383-0.471l1.49,0.471H255.748z M254.545,70.249
		c0.023,0.066,0.055,0.155,0.096,0.263c-0.074,0.115-0.17,0.267-0.293,0.467h-1.047l-1.119-1.478L254.545,70.249z M250.275,69.916
		c-0.396-0.551-0.734-1.02-0.947-1.316l1.629,0.515L250.275,69.916z M247.314,69.158l-1.117-1.55l2.021,0.641L247.314,69.158z
		 M246.572,69.907l-0.633,0.636l-1.435-1.898c0.72-0.775,0.978-1.087,1.063-1.234l0.182,0.057l-0.033,0.013L246.572,69.907z
		 M245.234,67.377c-0.01-0.027-0.012-0.053-0.012-0.076l0.114,0.037L245.234,67.377z M244.268,68.329l-1.319-1.747l2.25,0.712
		C245.074,67.451,244.723,67.837,244.268,68.329z M241.916,66.255l-0.777,0.857l-1.106-1.454L241.916,66.255z M239.23,65.406
		l1.063,2.64l-0.402,0.443l-1.502-2.006l0.853-0.92l-0.257-0.235L239.23,65.406z M237.787,67.132l0.334-0.361l1.504,2.009
		l-0.848,0.936L237.787,67.132z M238.205,69.298l-1.094-1.436l0.383-0.414L238.205,69.298z M237.633,66.73l-0.479-1.251l0.731,0.979
		L237.633,66.73z M238.152,66.17l-1.082-1.447l1.873,0.593L238.152,66.17z M237.342,67.046l-0.467,0.504l-2.895-3.804l2.399,0.76
		l-0.012,0.005L237.342,67.046z M233.84,64.2l2.768,3.637l-0.971,1.048L233.84,64.2z M233.152,63.484l1.846,4.813l-2.854-3.67
		l1.03-1.08l-0.086-0.083L233.152,63.484z M231.904,64.319l-1.269-1.63l2.171,0.686L231.904,64.319z M196.73,57.096l-0.002-0.052
		l-0.14,0.008l-2.03-0.638l-0.064-0.176l1.092-1.079l1.561,2.067L196.73,57.096z M188.848,54.623V54.62l-0.008,0.001l-0.795-0.25
		l0.066-0.025l-0.103-0.269l1.162-1.07l1.338,1.668l0.181,0.524L188.848,54.623z M178.045,51.232l-0.006-0.016l1.232-1.132
		l1.608,2.038L178.045,51.232z M179.557,49.824L180,49.417c0.205,0.574,0.416,1.172,0.619,1.75L179.557,49.824z M181.422,52.293
		c-0.018-0.052-0.035-0.101-0.051-0.15l1.041-1.152l1.525,2.091L181.422,52.293z M185.967,51.844l0.584-0.558l0.873,2.329
		L185.967,51.844z M186.855,50.997l0.399-0.382l1.677,2.09l-1.068,0.981L186.855,50.997z M186.707,50.604l-0.475-1.265l0.781,0.973
		L186.707,50.604z M186.404,50.893l-0.684,0.652l-1.816-2.207l0.373-0.413l1.375-0.039L186.404,50.893z M183.232,50.082l0.41-0.454
		l1.799,2.185l-1.107,1.055C183.891,51.737,183.527,50.823,183.232,50.082z M183.656,49.038l-0.074-0.092l0.162-0.005
		L183.656,49.038z M183.395,49.327l-0.319,0.355c-0.104-0.263-0.199-0.499-0.287-0.714l0.305-0.008L183.395,49.327z M182.783,50.002
		l-0.34,0.378l-1.002-1.375l0.934-0.026C182.502,49.298,182.641,49.642,182.783,50.002z M182.943,50.401
		c0.188,0.477,0.387,0.97,0.578,1.455l-0.847-1.158L182.943,50.401z M184.488,53.254l1.197-1.143l1.686,2.048L184.488,53.254z
		 M190.471,51.813l1.637,2.085l-0.955,0.961l-0.299-0.373l-0.787-2.302L190.471,51.813z M189.932,51.785l-0.399-1.169l0.7,0.892
		L189.932,51.785z M190.143,53.6l-0.686-0.855l0.299-0.275L190.143,53.6z M191.199,55.359l1.148-1.156l1.577,2.013L191.199,55.359z
		 M193.777,52.764l1.574,2.084l-1.006,0.994l-0.99-2.654L193.777,52.764z M193.209,52.789l-0.576-1.542l0.91,1.206L193.209,52.789z
		 M193.764,55.383l-1.143-1.456l0.436-0.438L193.764,55.383z M197.092,53.672l1.707,2.263l-1.113,1.081l-1.043-2.9L197.092,53.672z
		 M196.5,53.715l-0.568-1.58l0.926,1.226L196.5,53.715z M197.096,56.52l-1.232-1.634l0.479-0.472L197.096,56.52z M197.838,57.444
		l-0.01-0.03l1.205-1.169l1.512,2.006l0.02,0.047L197.838,57.444z M200.381,54.937l1.623,2.161l-1.07,1.089l-0.039-0.101
		l0.006-0.004l-0.012-0.019l-0.996-2.652L200.381,54.937z M199.744,55.016l-0.689-1.844l1.092,1.454L199.744,55.016z
		 M204.176,59.264c-0.188-0.456-0.588-1.557-1.023-2.783l0.455-0.463l1.634,2.163L204.176,59.264z M203.391,58.297l-0.877-1.167
		l0.332-0.339C203.066,57.414,203.246,57.907,203.391,58.297z M203.008,56.077c-0.189-0.534-0.381-1.08-0.563-1.598l0.926,1.229
		L203.008,56.077z M202.703,56.387l-0.426,0.431l-1.617-2.153l1.076-1.045C202.121,54.73,202.439,55.641,202.703,56.387z
		 M200.068,56.976l-0.756-1.002l0.276-0.271L200.068,56.976z M201.176,58.49l1.064-1.082l1.391,1.853L201.176,58.49z
		 M204.463,59.522l1.012-1.029l1.332,1.765L204.463,59.522z M206.836,57.11l1.49,1.935c-0.33,0.327-0.66,0.651-0.971,0.954
		l-0.863-2.54L206.836,57.11z M206.352,57.051l-0.346-1.017l0.592,0.768L206.352,57.051z M215.992,60.317l0.508-0.445l1.463,1.922
		l-1.041,1.12C216.549,61.861,216.242,61.008,215.992,60.317z M216.328,62.399l-1.074-1.438l0.424-0.37
		C215.891,61.18,216.115,61.8,216.328,62.399z M215.85,59.929c-0.307-0.846-0.518-1.412-0.666-1.791l1.084,1.426L215.85,59.929z
		 M214.572,57.646c0.109,0.228,0.502,1.28,0.965,2.555l-0.516,0.449l-1.48-1.983L214.572,57.646z M214.73,60.906l-1.146,0.999
		l-0.836-2.455l0.515-0.509L214.73,60.906z M212.941,61.204l-0.854-1.099l0.356-0.354L212.941,61.204z M212.611,59.044L212,57.251
		l1.031,1.379L212.611,59.044z M212.307,59.346l-0.457,0.453l-1.619-2.085c0.681-0.678,0.965-0.982,1.07-1.14l0.068,0.022
		L212.307,59.346z M211.574,60.072l-0.939,0.929l-1.035-2.662c0.127-0.125,0.246-0.243,0.355-0.352L211.574,60.072z M210.115,60.731
		l-1.271-1.649c0.162-0.158,0.314-0.308,0.455-0.448L210.115,60.731z M209.445,57.942l-0.48-1.23l0.748,0.963
		C209.627,57.762,209.535,57.851,209.445,57.942z M209.145,58.238c-0.176,0.174-0.356,0.353-0.541,0.534l-1.494-1.94l1.066-1.085
		L209.145,58.238z M206.828,59.645l-1.08-1.43l0.439-0.447L206.828,59.645z M207.521,60.482l-0.027-0.078
		c0.396-0.387,0.752-0.736,1.072-1.049l1.479,1.919L207.521,60.482z M210.836,61.522l-0.049-0.129l1.023-1.014l1.485,1.915
		L210.836,61.522z M213.77,62.442l-0.049-0.144l1.242-1.083l1.563,2.092L213.77,62.442z M217.129,63.497
		c-0.02-0.059-0.039-0.116-0.061-0.173l1.131-1.218l1.566,2.06c0.018,0.06,0.036,0.118,0.057,0.176L217.129,63.497z M219.373,60.843
		l1.586,2.224l-0.857,0.887c-0.387-1.204-0.694-2.148-0.938-2.885L219.373,60.843z M219.023,60.652
		c-0.068-0.208-0.133-0.396-0.189-0.566l0.311,0.436L219.023,60.652z M219.404,63.054l-0.938-1.234l0.396-0.426
		C219.039,61.929,219.223,62.496,219.404,63.054z M220.271,64.483c-0.013-0.038-0.023-0.074-0.035-0.112l0.949-0.984l1.268,1.781
		L220.271,64.483z M222.662,61.857l1.512,2.002l-1.035,0.994l-0.91-2.548L222.662,61.857z M222.084,61.899l-0.545-1.526l0.885,1.172
		L222.084,61.899z M222.756,64.926l-1.299-1.822l0.473-0.49L222.756,64.926z M223.352,65.45l-0.069-0.197l1.127-1.083l1.596,2.112
		L223.352,65.45z M225.828,62.804l1.551,2.229l-0.967,0.993c-0.389-1.195-0.697-2.133-0.947-2.872L225.828,62.804z M225.33,62.748
		c-0.193-0.567-0.342-0.995-0.459-1.32l0.734,1.055L225.33,62.748z M225.785,65.351l-1.098-1.451l0.469-0.45
		C225.363,64.068,225.58,64.724,225.785,65.351z M226.551,66.453c-0.002-0.004-0.004-0.009-0.004-0.013l1.057-1.085l1.271,1.826
		L226.551,66.453z M227.877,65.074l0.35-0.359l0.588,1.706L227.877,65.074z M228.527,64.406l1.66-1.703l0.891,2.482l-1.678,1.753
		L228.527,64.406z M230.973,63.748l0.662,0.853l-0.26,0.272L230.973,63.748z M230.123,62.526l0.025,0.067l-0.092-0.089
		L230.123,62.526z M228.389,63.997l-0.783-2.267l2.287,0.722L228.389,63.997z M227.148,61.585l0.938,2.722l-0.434,0.444
		l-1.541-2.218l0.963-0.927l-0.059-0.063L227.148,61.585z M225.887,62.212l-0.914-1.315l1.717,0.543L225.887,62.212z M225.02,63.045
		l-0.563,0.545l-1.522-2.014l0.969-1.004l-0.021-0.021l0.313,0.1l-0.023,0.015C224.25,60.795,224.602,61.8,225.02,63.045z
		 M222.695,61.265l-1.078-1.429l1.883,0.596L222.695,61.265z M220.85,59.594l0.937,2.616l-0.556,0.575l-1.588-2.231l0.963-1.038
		L220.85,59.594z M219.414,60.232l-1.006-1.41l1.789,0.565L219.414,60.232z M217.932,58.67c0.004,0.01,0.01,0.022,0.014,0.036
		l-0.063,0.044l0.166,0.23c0.146,0.412,0.393,1.142,0.674,1.994l-0.494,0.532l-1.436-1.89l1.039-0.907l-0.086-0.099L217.932,58.67z
		 M216.559,59.31l-1.072-1.413l1.976,0.625L216.559,59.31z M215.074,57.862c-0.016-0.039-0.031-0.076-0.045-0.109l0.133,0.042
		L215.074,57.862z M213.309,58.355l-1.123-1.502l2,0.633L213.309,58.355z M209.988,57.4l-1.277-1.646l2.213,0.7
		C210.775,56.612,210.434,56.958,209.988,57.4z M206.871,56.524l-1.252-1.623l-0.047-0.14l2.313,0.732L206.871,56.524z
		 M205.115,54.617L205.115,54.617l-0.127,0.099l0.287,0.371l0.774,2.272l-0.536,0.544l-1.634-2.163l1.101-1.118l-0.072-0.071
		L205.115,54.617z M203.645,55.429l-1.266-1.678l2.225,0.704L203.645,55.429z M201.709,53.54c0,0.002,0,0.004,0.002,0.007
		l-0.008-0.009L201.709,53.54z M200.426,54.355l-1.203-1.601l2.152,0.681L200.426,54.355z M199.443,55.309l-0.365,0.355
		l-1.709-2.265l0.879-0.868l-0.123-0.124l0.396,0.125l-0.105,0.04L199.443,55.309z M197.135,53.088l-0.984-1.306l1.746,0.552
		L197.135,53.088z M195.299,51.513l0.898,2.5l-0.568,0.562l-1.576-2.088l1.035-1.041L195.299,51.513z M193.816,52.176l-1.121-1.486
		l1.977,0.625L193.816,52.176z M192.908,53.091l-0.527,0.531l-1.625-2.072l1.166-1.072l-0.043-0.048l0.156,0.05l-0.088,0.033
		L192.908,53.091z M190.518,51.246l-1.301-1.656l2.307,0.729L190.518,51.246z M188.721,49.433l0.086,0.249l-0.004,0.003l0.008,0.011
		l0.812,2.375l-0.404,0.373l-1.68-2.095l1.017-0.969L188.721,49.433z M187.293,50.045l-1.141-1.425l1.979,0.626L187.293,50.045z
		 M185.963,48.617l-0.023-0.064l0.074,0.024L185.963,48.617z M182.178,50.672l-0.953,1.055c-0.365-1.041-0.666-1.894-0.914-2.594
		l0.445-0.41L182.178,50.672z M180.17,48.739c-0.252-0.703-0.443-1.231-0.588-1.627l0.947,1.298L180.17,48.739z M179.859,49.022
		l-0.543,0.497l-1.849-2.342l1.063-0.959l-0.01-0.012l0.35,0.11C179.037,46.729,179.42,47.789,179.859,49.022z M177.229,46.875
		l-1.133-1.435l2.016,0.638L177.229,46.875z M176.941,47.134l-0.308,0.275l-0.459-1.245L176.941,47.134z M177.18,47.437l1.853,2.344
		l-1.138,1.043l-1.117-3.025L177.18,47.437z M177.318,50.379l-1.209-1.978l0.358-0.324L177.318,50.379z M177.322,51.127
		c-0.711,0.009-2.449,0.03-4.297,0.054l2.793-2.516L177.322,51.127z M183.281,53.28l-5.102,0.313l0.157-1.865L183.281,53.28z
		 M185.691,54.036l-4.562,0.454l0.022,0.232l-2.475-0.772l5.631-0.347L185.691,54.036z M186.285,54.223l1.672,0.525l-3.975,0.574
		l0.043,0.295l-2.496-0.779l4.77-0.474L186.285,54.223z M188.809,55.015l2.123,0.666l-4.918,0.278l0.016,0.284l-1.813-0.565
		L188.809,55.015z M191.68,55.916l1.533,0.481l-4.668,0.264l0.021,0.373l-2.262-0.706l5.381-0.304L191.68,55.916z M194.217,56.712
		l1.279,0.401l-4.42,0.25l0.023,0.385l5.44-0.308l1.517,0.476l-4.896,0.276l0.019,0.28l-4.582-1.429l5.62-0.318L194.217,56.712z
		 M198.83,58.159l1.49,0.468l-4.754,0.269l0.02,0.329l-2.121-0.662l5.371-0.303L198.83,58.159z M201.236,58.914l2.088,0.655
		l-5.023,0.284l0.012,0.221l-2.574-0.803l5.5-0.311L201.236,58.914z M203.965,59.77l1.441,0.453l-4.768,0.27l0.018,0.313
		l-1.898-0.592l5.215-0.295L203.965,59.77z M206.307,60.505l1.131,0.355l-4.785,0.271l0.019,0.303l-1.819-0.568l5.461-0.308
		L206.307,60.505z M208.32,61.138l1.332,0.417l-4.918,0.278l0.016,0.25l-1.857-0.579l5.433-0.308L208.32,61.138z M210.4,61.79
		l1.697,0.532l-4.894,0.277l0.014,0.254l-2.102-0.656l5.288-0.299L210.4,61.79z M212.871,62.565l1.25,0.392l-4.965,0.281
		l0.012,0.224l-1.594-0.497l5.303-0.299L212.871,62.565z M214.82,63.177l1.879,0.59l-5.33,0.301l0.006,0.082l-1.768-0.551
		l5.221-0.295L214.82,63.177z M217.027,63.869l1.994,0.626l-4.861,0.275l0.012,0.253l-1.973-0.616l4.844-0.274L217.027,63.869z
		 M219.828,64.748l1.439,0.453l-4.834,0.272l0.016,0.261l-1.916-0.598l5.299-0.3L219.828,64.748z M222.102,65.461l0.724,0.228
		l0.002,0.002v-0.002l0.473,0.148l-4.85,0.274l0.016,0.25l-1.676-0.523l5.315-0.3L222.102,65.461z M224.117,66.094l1.406,0.441
		l-4.928,0.279l0.012,0.216l-1.775-0.554l5.289-0.299L224.117,66.094z M226.262,66.767l1.496,0.47l-4.951,0.28l0.012,0.204
		l-1.752-0.547l5.201-0.293L226.262,66.767z M228.473,67.461l1.328,0.417l-4.914,0.277l0.012,0.214l-1.586-0.496l5.166-0.292
		L228.473,67.461z M229.559,67.397l-0.018-0.048l1.682-1.759l0.941,2.624L229.559,67.397z M232.625,68.36l-1.104-3.081l0.354-0.37
		l3.307,4.252L232.625,68.36z M235.82,69.362l-0.029-0.074l1.055-1.138l1.531,2.015L235.82,69.362z M239.342,70.872l-5.029,0.285
		l0.011,0.152l-1.808-0.563l5.127-0.29l-0.004-0.12L239.342,70.872z M239.027,70.369l-0.096-0.248l0.93-1.025l1.502,2.006
		L239.027,70.369z M244.057,72.351l-5.19,0.275l0.004,0.103l-1.438-0.448l5.152-0.292l-0.006-0.102L244.057,72.351z M244.918,72.622
		l1.234,0.388l-4.822,0.255l0.014,0.236l-1.697-0.529l5.275-0.279L244.918,72.622z M247.207,73.339l0.471,0.148l0.031,0.041
		l0.021-0.024l0.821,0.257l-5.071,0.268l0.006,0.14l-1.732-0.541L247.207,73.339z M249.533,74.07l1.438,0.451l-5.215,0.275
		l0.004,0.083l-1.596-0.499l5.371-0.283L249.533,74.07z M251.809,74.784l1.039,0.325l-4.951,0.262l0.011,0.177l-1.312-0.41
		l5.217-0.275L251.809,74.784z M253.902,75.44l0.813,0.255l-4.74,0.251l0.015,0.251l-1.509-0.471L253.902,75.44z M255.768,76.026
		l1.082,0.34c0.002,0.002,0.004,0.005,0.004,0.007l0.011-0.003l0.049,0.015l-4.983,0.264l0.01,0.157l-1.58-0.493L255.768,76.026z
		 M257.967,76.717l1.189,0.373l-4.953,0.262l0.01,0.164l-1.648-0.514L257.967,76.717z M260.209,77.42l1.162,0.364l-5.086,0.269
		l0.006,0.111l-1.471-0.459L260.209,77.42z M262.34,78.088l1.221,0.382l-5.375,0.284l-1.139-0.355l5.295-0.28L262.34,78.088z
		 M264.225,78.679l1.615,0.507l-5.135,0.271l0.006,0.084l-1.467-0.457l4.986-0.263L264.225,78.679z M266.133,78.873l0.084-0.033
		l-0.084-0.203l0.846-1.012c0.549,0.697,1.092,1.392,1.572,2.008L266.133,78.873z M268.98,79.519l0.918-1.203l1.92,2.31
		c0.004,0.012,0.01,0.025,0.016,0.037l-2.754-0.864l0.016-0.007L268.98,79.519z M273.617,73.714
		c-0.014-0.577-0.023-1.091-0.033-1.494l4.588,5.78l0.125,2.234L273.617,73.714z M273.785,71.852l-0.205,0.163
		c-0.008-0.336-0.014-0.571-0.016-0.665h4.235l0.334,5.982L273.785,71.852z M278.457,71.35h1.092l0.945,8.953l-1.641-2.067
		L278.457,71.35z M278.418,70.679l-0.543-9.464l0.492-1.051l1.111,10.515H278.418z M278.289,59.421l-0.461,0.982l-0.076-1.315h0.375
		l-0.016-0.479h-0.387l-0.568-9.914L278.289,59.421z M276.283,44.193l0.527,9.433l-1.791-3.877h1.545l-0.027-0.767h-2.498
		l0.043-2.202h2.336l-0.014-0.384h-2.314l0.037-1.772l2.072-0.047l0.08-0.438L276.283,44.193z M273.756,43.906h0.443l0.314-6.563
		l1.299-0.096l0.451,6.656c-0.322-0.007-1.979-0.042-2.064,0.001l-0.432,0.096l-0.392,5.652l-0.213,8.956h-0.455l0.015,0.479h0.432
		l-0.16,6.705l-0.432-5.748l-0.049,1.437l0.252,5.77l-0.892,1.626L273.756,43.906z M269.639,34.375l2.326-0.168l-4.68,5.183
		l0.811-2.093l-0.074-2.223c0.494-0.107,0.777-0.17,0.802-0.175l0.157-0.035c0.029,0.565,0.127,2.432,0.127,2.432l0.931-1.102
		L269.639,34.375l-0.643,0.324l-0.033-0.06L269.639,34.375z M268.004,34.589l0.25,0.039c-0.074,0.016-0.156,0.034-0.246,0.053
		L268.004,34.589z M267.559,34.458l0.006,0.32c-4.307,0.939-19.405,4.216-27.41,5.729c-26.688,5.31-52.104,6.409-54.504,6.503
		l-0.02-0.377C217.152,46.22,260.799,36.074,267.559,34.458z M185.668,47.396c2.434-0.095,27.861-1.198,54.559-6.509
		c7.963-1.505,22.939-4.754,27.347-5.715l0.034,1.981l-1.25,3.064l0.009,0.192l0.026,0.862l0.777,0.144l0.768-0.144l0.601-0.814
		c0.282,0.041,3.86-3.855,5.01-5.117l-0.358,8.541l-0.193,0.024l-2.268,31.056l-4.41-1.394l0.147-0.435l-0.368,0.364l-2.681-0.848
		l0.162-0.504l-0.404,0.428l-3.338-1.055v-0.024l-0.524-0.221l-0.064-0.771l-1.074-0.037l-0.154,0.477l-14.77-4.671l2.24-2.106
		l0.021-0.814l21.223-21.983l-0.34-0.096L245.77,62.44l-1.238,0.431c0,0-2.588,2.441-3.105,2.823l-55.723-17.623L185.668,47.396z
		 M180.83,48.133l-0.016,0.014l-1.152-1.58l1.186,0.375L180.83,48.133z M175.416,45.225l0.91,2.463l-0.422,0.379l-2.037-3.332
		L175.416,45.225z M169.635,51.609c0.084-0.001,0.168-0.002,0.254-0.003l-0.037,0.067C169.775,51.65,169.705,51.629,169.635,51.609z
		 M173.35,53.099l0.09-0.26c-0.612-0.207-2.098-0.704-3.211-1.051l0.105-0.188c0.594-0.007,1.227-0.015,1.863-0.022
		c0.604,0.309,2.537,1.254,2.627,1.299l0.145-0.297l0.018,0.507L173.35,53.099z M225.363,68.515l5.195-0.294l-0.007-0.108
		l1.693,0.532l-4.892,0.276l0.013,0.219L225.363,68.515z M227.822,69.282l5.205-0.295l-0.006-0.098l1.487,0.467l-4.75,0.269
		l0.015,0.267L227.822,69.282z M230.098,69.992l5.334-0.302l-0.002-0.046l1.486,0.467l-4.943,0.28l0.01,0.189L230.098,69.992z
		 M234.953,71.507l5.031-0.285l-0.008-0.152l1.832,0.576l-4.896,0.277l0.01,0.198L234.953,71.507z M270.322,83.673
		c0.203,0.04,0.447,0.077,0.719,0.101c0.379,0.092,0.895,0.222,1.518,0.38l-0.217,6.608l-1.594-5.591l0.02-1.178l-0.406-0.176
		L270.322,83.673z M272.402,94.53l-1.898,6.589l0.203-13.207L272.402,94.53z M271.803,105.578c-0.063,0.064-1.361-0.319-1.361-0.319
		c-0.004-0.128,2.007-7.408,2.007-7.408l0.227,6.833L271.803,105.578z M271.182,80.992l-6.438-0.192l-3.203-1l5.224-0.277
		l-0.003-0.048l5.267,1.652c0.004,0.009,0.008,0.018,0.01,0.026l0.033-0.013l1.356,0.426c-0.012,0.008-0.024,0.015-0.038,0.024
		L271.182,80.992z M273.932,84.506c0.691,0.178,1.455,0.375,2.271,0.587c-0.039,0.296-1.617,3.734-2.25,5.107L273.932,84.506z
		 M275.533,105.578l-1.529-1.533l-0.021-5.49l2.146,5.563c0.016,0.448,0.049,1.46,0.049,1.46H275.533z M277.73,103.918
		c0,0-0.619,0.074-1.09,0.083l0.125-0.083c0,0-2.254-6.251-2.789-7.649l-0.019-3.964l3.156-6.971l-0.189-0.054
		c0.503,0.131,1.021,0.266,1.55,0.405l0.075,15.806L277.73,103.918z M279.076,82.125l-0.186-3.221l1.678,2.115l0.143,1.341
		L279.076,82.125z"/>
	<path fill="#7B7A7E" d="M287.164,112.985l-1.762-2.746l-2.971-0.384c0,0-16.921,0-17.111,0l-1.156,3.959h2.123l0.018,0.575h-6.688
		c0,0-1.781,1.564-1.55,1.788c0.232,0.224,7.978,0,7.978,0l0.045,1.371l-0.01,38.541l1.924-0.19l-0.026-1.447l4.793,0.263
		l-0.004,1.247l2.057-0.063l0.014-1.072l0.686,0.037l0.011,1.098l2.448,0.129l-0.004-1.09l4.73,0.258
		c0.006,0.536,0.018,0.832,0.033,0.832c0.193,0,1.605-0.129,1.605-0.129l0.286-37.933l-0.264-0.159l-0.117-3.544h2.961
		L287.164,112.985z M267.326,119.945l0.738-1.33l0.27,0.01l-0.459,0.428c0.1,0,1.484,2.586,2.791,5.069
		c-1.219,1.514-2.582,3.185-3.188,3.925L267.326,119.945z M267.549,131.771l2.619,3.351c-0.984,1.696-1.99,3.408-2.479,4.19
		L267.549,131.771z M267.783,144.255c0.5,0.956,1.512,2.877,2.5,4.747c-0.914,1.153-1.836,2.32-2.355,2.977L267.783,144.255z
		 M272.77,153.945c-2.067-0.049-3.891-0.096-4.807-0.127l-0.018-0.965l2.668-3.229c1.018,1.921,1.938,3.66,2.158,4.073
		L272.77,153.945z M272.779,151.611l-1.494-2.799l1.506-1.826L272.779,151.611z M272.797,145.85c-0.299,0.367-1.027,1.28-1.854,2.32
		l-2.791-5.234l-0.396-0.03l-0.002-0.023l5.05,0.124L272.797,145.85z M272.809,141.982l-5.07-0.123l-0.03-1.643l2.83-4.622
		l2.28,2.915L272.809,141.982z M272.824,137.029l-1.764-2.288l1.78-2.907L272.824,137.029z M272.844,131.322l-0.145-0.648
		c-0.025,0.082-0.951,1.713-2.021,3.567l-3.143-4.077l-0.016,0.054l-0.002-0.091l5.328,0.188L272.844,131.322z M272.848,129.439
		c-2.309-0.08-4.354-0.155-5.303-0.199l3.48-4.436c0.797,1.521,1.514,2.904,1.826,3.506L272.848,129.439z M272.857,126.807
		l-1.344-2.623l1.356-1.729L272.857,126.807z M272.875,121.307c-0.23,0.332-0.902,1.186-1.709,2.193l-2.49-4.862l3.572,0.135
		l0.629,1.749L272.875,121.307z M272.068,117.52l-0.021,0.318h-3.838l-0.065-0.382l-0.945,0.043l1.412-1.449h4.438l0.05,1.496
		L272.068,117.52z M274.844,153.995l0.117-9.46l0.463,0.443l0.088,9.031C275.289,154.007,275.066,154.001,274.844,153.995z
		 M275.029,139.053l0.106-8.656l0.457,0.017l0.019,8.563L275.029,139.053z M275.148,129.52l0.11-8.936l0.289-0.407l0.022,0.152
		l0.019,9.204C275.443,129.527,275.297,129.521,275.148,129.52z M277.793,122.203l1.57,2.016l-1.543,2.553L277.793,122.203z
		 M277.852,132.854l1.394,2.328l-1.371,1.5L277.852,132.854z M277.908,143.13l4.568,0.109l-2.898,5.172l-1.652-2.138L277.908,143.13
		z M277.932,147.35l1.25,1.767l-1.229,2.192L277.932,147.35z M282.697,154.17c-0.562-0.012-2.455-0.054-4.729-0.104l-0.006-1.16
		l1.765-3.021l2.811,3.971l0.162-1.03C282.697,153.323,282.697,153.773,282.697,154.17z M282.701,152.451l-2.549-3.296l2.611-4.472
		C282.732,147.708,282.709,150.43,282.701,152.451z M282.775,143.586l-0.236-0.345l0.238,0.006
		C282.777,143.359,282.775,143.475,282.775,143.586z M282.789,142.225l-4.887-0.117l-0.021-3.942l1.841-2.183l2.896,4.847
		l0.036-0.83l-2.528-4.499l2.726-3.229l0.063-0.304C282.871,135.302,282.826,138.877,282.789,142.225z M282.924,131.152
		l-3.244,3.551l-1.834-3.266l-0.006-0.946l5.09,0.181C282.928,130.831,282.926,130.992,282.924,131.152z M282.941,129.775
		c-0.555-0.019-2.629-0.084-5.107-0.168l-0.002-0.668l2.293-3.742l2.828,3.636C282.951,129.145,282.947,129.458,282.941,129.775z
		 M282.969,127.848l-2.461-3.272l2.564-4.177C283.047,122.089,283.01,124.738,282.969,127.848z M283.082,119.628l-0.787-0.257
		l-2.541,4.201l-1.857-2.473l0.39-0.451c0,0,0.119-1.363-0.021-1.67l4.824,0.135C283.088,119.263,283.084,119.436,283.082,119.628z
		 M283.543,118.157l-0.443,0.255l-6.037-0.365l0.103-0.145l-2.584-0.319h0.517l0.911-1.598h5.982l1.588,1.446L283.543,118.157z"/>
	<path fill="#7B7A7E" d="M224.834,69.348c-0.02,0.021-0.004,0.034,0.033,0.041C224.859,69.352,224.848,69.335,224.834,69.348z"/>
</g>
<path fill="#7B7A7E" d="M298.307,153.177h-44.33l-0.805,31.433h-20.15v-78.178c0,0-15.815-28.209-54.805-28.209
	c-27.449,0-26.598,23.373-26.598,23.373v91.88c0,0-121.703,8.868-157.971-51.582c-0.806,68.508-0.806,95.104-0.806,95.104h338.509
	v-57.224h-33.045L298.307,153.177L298.307,153.177z"/>
<polygon fill="#7B7A7E" points="5.622,53.11 5.622,180.557 49.74,180.557 49.216,28.33 "/>
<polygon fill="#7B7A7E" points="55.774,87.333 55.774,214.775 99.891,214.775 99.369,90.872 "/>
<g>
	<path fill="#2C2826" d="M110.686,46.386l-0.573,14.89c0,0,4.295-9.797,4.509-14.068c-1.496-3.844-4.032-1.499-4.032-1.499
		L110.686,46.386z"/>
	<path fill="#90684A" d="M109.127,88.343c0,0,0.48,4.593,1.641,5.796c1.158,1.202,2.121,2.943,2.291,2.925s1.747-3.696,1.07-5.993
		c-0.677-2.297-1.721-6.009-1.721-6.009L109.127,88.343z"/>
	<path fill="#757579" d="M114.104,66.8l-4.757,28.049c0,0-0.939,0.392-1.806,0.22c-1.366-0.274-1.423-1.093-1.423-1.093
		l5.032-27.668C111.151,66.307,112.627,65.651,114.104,66.8z"/>
	<path fill="#E9CAA5" d="M127.852,102.517l2.483,3.682c0,0-2.296,4.123-4.712,6.035c-2.053,1.624-3.96,3.065-4.845,2.501
		c-0.887-0.563-2.686-4.248-2.686-4.248s-6.319-4.176-5.327-10.398c0.481-3.026,1.032-5.254,1.032-5.254s1.48-3.115-0.551-5.923
		c-2.031-2.807-3.476-1.025-3.476-1.025s-2.591,2.549-4.461,1.807c-1.869-0.742,0.817-4.495,0.817-4.495s-2.517-0.077-3.195-1.818
		c-0.68-1.74,3.754-5.734,5.932-6.529c2.176-0.793,4.799-1.046,4.799-1.046s-6.171-3.638-5.865-5.283
		c0.308-1.645,5.133-0.613,5.463-0.508c0.328,0.104,5.261,0.916,7.473,2.748c2.21,1.83,5.283,11.196,5.283,11.196
		s1.563,2.497,1.387,5.78C127.255,92.501,127.852,102.517,127.852,102.517z"/>
	<path fill="#AF8766" d="M106.251,84.212c-0.816,0.258-2.621,0.199-2.621,0.199s0.993,0.726,1.485,0.802
		c0.494,0.075,1.013-0.014,1.013-0.014s4.851-3.343,5.756-3.192c0.904,0.154,5.7,3.208,5.7,3.208s-4.068-3.722-5.138-4.117
		C111.375,80.702,107.069,83.957,106.251,84.212z M114.911,70.759c1.679,0.896,6.247,4.419,8.325,6.046
		c-0.824-1.792-1.72-3.392-2.502-4.043c-1.855-1.536-5.618-2.353-6.979-2.64C114.127,70.333,114.516,70.548,114.911,70.759z
		 M104.737,87.998c-0.181,0.747-0.11,1.424,0.574,1.696c1.87,0.742,4.401,0.117,5.907-2.018c0.369-0.523,1.819,1.125,2.671,3.576
		c0.479,1.376-1.28,5.746-1.538,8.798c-0.438,5.133,4.08,9.123,5.39,10.166l2.793,4.546c0,0,0.499,0.028,1.068-0.034
		c0.571-0.061,1.579-0.665,1.579-0.665s-2.327-3.214-2.423-4.111c-0.098-0.898,2.643-2.265,2.643-2.265s-1.514,0.493-2.564,0.689
		c-0.519,0.096-1.237-0.187-1.834-0.498c-1.26-1.345-3.081-3.42-3.594-4.693c-1.387-3.446-1.382-7.426-1.136-8.54
		c0.382-0.429,0.855-0.997,1.118-1.444c0.481-0.827,0.208-2.875-0.211-3.688c-0.421-0.815-2.098-3.583-3.333-3.977
		c-1.235-0.394-4.306,3.255-5.534,3.433C105.654,89.067,105.105,88.522,104.737,87.998z M121.398,81.94c0,0-2.785-3.901-3.669-4.656
		c-0.885-0.753-7.061-4.721-7.948-5.694c-0.47-0.515-0.759-1.275-0.925-1.879c-0.563,0.125-0.974,0.37-1.058,0.812
		c-0.306,1.645,5.865,5.283,5.865,5.283s-0.209,0.021-0.547,0.066l0.219,0.048c0,0,1.435,0.855,2.866,1.713
		C117.636,78.489,121.398,81.94,121.398,81.94z"/>
	<path fill="#302F27" d="M102.142,98.205c-0.905-0.855-26.291-1.927-27.9-0.347c-2.897,2.843,2.843,7.654,3.938,7.981
		c1.093,0.33,11.703,3.283,15.639,3.063c3.937-0.22,6.78-3.938,7.108-4.047C101.253,104.748,103.046,99.058,102.142,98.205z"/>
	<path fill="#E9CAA5" d="M74.569,85.609l0.876,19.903c0,0,8.219,11.856,16.922,11.663c8.704-0.195,7.271-3.661,7.271-3.661
		l1.859-23.126c0,0-8.509,3.869-13.151,2.708C83.705,91.935,74.569,85.609,74.569,85.609z"/>
	<path fill="#FFFFFF" d="M30.091,237.003H140.66c0.009-0.235,0.012-0.472,0.002-0.703c-0.249-5.491-2.807-21.52-3.305-26.384
		c-0.499-4.87-2.122-33.198-2.247-35.32c-0.125-2.121-0.125-7.986-0.125-7.986s9.685,6.191,16.097,8.488
		c8.625,3.084,16.225,3.366,19.346,3.241c3.119-0.125,8.734-3.241,7.611-11.479c-1.125-8.235-0.498-16.473-7.361-21.84
		c-6.865-5.363-22.258-25.413-25.75-27.408c-3.496-1.997-4.493-1.124-4.493-1.124l-10.42-11.14c0,0-6.636,7.725-7.759,8.974
		c-1.124,1.248-3.069-1.701-3.069-1.701l-7.544-2.187c0,0-0.993-2.478-1.992-3.6c-0.997-1.123-6.614-7.987-6.614-7.987
		s-1.16-1.093-1.247-0.542c-0.075,0.485-0.5,4.534-1.997,6.906c-1.497,2.373-3.787,7.301-3.787,7.301L95.3,122.932
		c0,0-2.563-9.297-3.561-10.421c-0.998-1.122-8.607-3.379-11.665-5.927c-3.332-2.778-5.619-4.777-6.162-6.32
		c-0.553-1.577,1.095-2.734,1.095-2.734s-3.164,0.884-3.663,2.132c-0.5,1.249-2.57,7.928-2.57,7.928s-27.509,9.35-29.631,9.724
		c-2.121,0.375-7.611,4.368-8.61,8.861c-0.998,4.492-17.844,69.386-16.971,71.884C14.133,199.691,23.618,221.886,30.091,237.003z"/>
	<path fill="#302F27" d="M102.019,189.063c0.285,13.233-1.189,34.615-2.254,47.939h0.375c1.701-15.102,4.294-40.107,3.848-48.597
		c-0.656-12.468-3.719-46.587-4.594-50.522l-2.843-9.406c0,0,0.019,0.149,0.054,0.434
		C97.146,133.296,101.608,169.959,102.019,189.063z"/>
	<path fill="#D0CFCD" d="M16.5,183.049l-4.483,0.766c0,0-1.531,2.623-1.313,4.373c0.218,1.752,1.202,2.734,1.202,2.734l2.735,0.327
		L16.5,183.049z"/>
	<path fill="#D0CFCD" d="M14.421,190.813h-2.952c0,0-2.077,2.188-2.077,4.484c0,2.296,1.202,4.264,1.202,4.264l3.827,0.875
		l-1.092-2.953L14.421,190.813z"/>
	<path fill="#D0CFCD" d="M14.968,201.641h-2.077c0,0-2.734,1.422-2.625,4.594c0.109,3.17,1.969,4.592,1.969,4.592l7.437,2.08
		L14.968,201.641z"/>
	<path fill="#302F27" d="M54.46,187.298c0,0,0.188,4.351,2.648,4.919c2.461,0.568,6.813,1.326,6.813,1.326
		s-9.653,9.841-7.759,11.732c1.893,1.894,6.055,4.543,6.055,4.543s-5.11,16.846-3.406,18.17c1.702,1.322-2.839,5.677-2.839,5.677
		l-15.896-28.769c0,0-1.513-4.73-0.568-7.947c0.946-3.219,8.328-21.197,8.328-21.197l3.027,0.568L54.46,187.298z"/>
	<path fill="#302F27" d="M27.104,198.939c-0.469,0.113-0.762,0.185-0.762,0.185S26.633,199.046,27.104,198.939z"/>
	<g>
		<path fill="#BBBCC1" d="M140.187,163.255c4.428,3.281,14.27,8.693,16.731,9.515c2.461,0.818,12.654,3.188,15.42,2.295
			c3.469-1.117,4.951-6.277,5.545-9.446c0.049,0.415,0.1,0.829,0.156,1.241c1.123,8.238-4.492,11.354-7.611,11.479
			c-3.121,0.125-10.721-0.157-19.346-3.241c-6.141-2.199-15.276-7.967-16.041-8.451l-1.581-10.28
			C133.46,156.365,135.757,159.975,140.187,163.255z"/>
		<path fill="#BBBCC1" d="M79.09,122.828c0,0-0.034-5.067,2.479-7.473c2.516-2.407,5.796-1.148,5.796-1.148l3.991-0.273l1.313,3.39
			l-4.813-1.313c0,0-3.665-1.422-4.758,0.656c-1.093,2.078-3.775,9.089-3.775,9.089s-6.286-7.23-7.378-10.074
			c-1.095-2.844-3.063-7.435-3.063-7.435s2.078,4.045,4.155,6.56C74.428,116.488,79.09,122.828,79.09,122.828z"/>
		<path fill="#BBBCC1" d="M102.128,108.683c1.423,0.548,8.203,6.124,8.968,7.657c0.766,1.53,0.766,4.483,0.766,4.483
			s-3.826-5.577-5.687-7.218c-1.859-1.64-4.922-3.281-4.922-3.281l-4.593,5.249l3.063-6.343
			C99.723,109.231,100.708,108.137,102.128,108.683z"/>
		<path fill="#BBBCC1" d="M34.435,124.54c0,0,4.155,0.22,6.998,5.03c2.844,4.813,5.906,20.779,5.906,20.779
			s-3.719-14.217-6.781-19.248C37.498,126.07,34.435,124.54,34.435,124.54z"/>
		<path fill="#BBBCC1" d="M34.217,197.375c-0.527,0-5.242,1.118-7.113,1.564c1.768-0.396,6.076-1.196,7.113,0.185
			c1.311,1.75-3.063,3.938-3.063,3.938s5.467,0,7.656,3.498c2.186,3.498,13.997,26.027,15.309,27.776
			c0.491,0.655,1.044,1.615,1.497,2.665h2.585c-0.11-0.24-0.23-0.475-0.363-0.697c-1.968-3.281-15.967-31.931-17.279-33.899
			c-1.312-1.97-1.093-2.406-0.437-4.374c0.655-1.969,7.218-18.701,7.218-18.701l6.89-0.548c0,0-0.018-8.382-0.893-12.318
			c-0.875-3.938-5.56-9.114-5.56-9.114s-0.875,10.063-1.751,13.998c-0.875,3.938-5.904,23.404-7.654,23.622
			s-8.092-2.188-8.092-2.188S34.873,197.375,34.217,197.375z"/>
		<path fill="#BBBCC1" d="M129.249,106.497c0,0-0.547,4.061-3.717,6.233c-3.17,2.174-3.735,3.082-3.735,3.082l6.917,10.536
			c0,0,3.878-0.953,5.814-2.254c1.935-1.302,4.048-2.75,4.048-2.75s-3.237,4.641-5.468,5.582c-2.23,0.943-5.605,1.78-5.892,3.07
			c-0.285,1.29,3.34,10.034,6.61,13.802c3.27,3.771,10.748,15.349,12.595,18.487c1.846,3.139,10.572,10.222,12.942,11.27
			c0,0-10.087-3.094-12.501-5.462c-2.412-2.368-9.774-13.442-12.757-18.502c-2.984-5.058-8.52-12.844-9.121-15.207
			c-0.602-2.364-0.219-6.452-0.219-6.452s-6.897-11.689-6.999-12.357c-0.101-0.668,1.42-2.953,1.42-2.953s0.657,2.406,3.679,0.58
			C125.413,111.66,129.249,106.497,129.249,106.497z"/>
		<path fill="#BBBCC1" d="M89.552,161.941c0,0-9.946,1.094-14.614,1.531c-4.669,0.438-13.601-0.656-13.601-0.656
			s9.133,3.281,13.193,3.062C78.59,165.66,89.552,161.941,89.552,161.941z"/>
	</g>
	<path fill="#575F27" d="M102.128,110.872c0,0-1.64,5.577-8.092,6.014c-6.454,0.438-9.844-1.476-9.844-1.476
		s0.767-0.655,2.243-0.493c1.476,0.165,7.054,0.82,9.186,0c2.133-0.82,4.593-3.39,4.593-3.39S100.598,109.778,102.128,110.872z"/>
	<path fill="#64702C" d="M99.767,113.834c0,0-0.334-1.297-1.773-0.757c-1.441,0.541-2.813,1.754-4.808,1.651
		c-1.993-0.101-3.001-0.576-3.866-0.116c-1.298,0.688-1.271,2.055-0.937,2.811c0.333,0.755,2.846,5.166,3.732,5.274
		c0.888,0.107,6.543-0.217,6.765-1.082C99.102,120.752,100.876,115.779,99.767,113.834z"/>
	<path fill="#B1B1B6" d="M97.291,122.504c0,0,10.467,43.936,11.451,62.635c0.984,18.702,1.969,30.512,1.969,30.512
		s-7.546,13.453-9.186,13.453c-1.642,0-12.796-15.748-12.796-15.748s2.136-48.353,2.136-62.787c0-14.434,0.675-28.346,0.675-28.346
		L97.291,122.504z"/>
	<path fill="#575F27" d="M98.496,121.848c0,0,10.466,43.936,11.45,62.635c0.985,18.701,1.969,30.512,1.969,30.512
		s-7.545,13.453-9.186,13.453s-12.796-15.748-12.796-15.748s3.609-48.885,3.609-63.319c0-14.437-1.641-27.231-1.641-27.231
		L98.496,121.848z"/>
	<path fill="#64702C" d="M99.025,121.081c0,0,10.31,43.903,11.279,62.589c0.97,18.688,1.938,30.491,1.938,30.491
		s-7.434,13.44-9.048,13.44c-1.617,0-12.604-15.736-12.604-15.736s3.556-48.85,3.556-63.274c0-14.426-1.617-27.21-1.617-27.21
		L99.025,121.081z"/>
	<path fill="#575F27" d="M99.159,120.74c0,0-2.463,0.693-4.31,0.923c-1.848,0.231-4.079-0.308-4.079-0.308s0.386,0.539,0.616,0.925
		c0.23,0.385,0.615,0.614,0.615,0.614l0.066,0.799l7.339-0.969l-0.259-1.082L99.159,120.74z"/>
	<path fill="#D0CFCD" d="M74.458,175.389l-0.45,0.069l-26.104,4.12c0,0-2.621,3.671-1.922,6.642c0.698,2.97,3.144,4.716,3.144,4.716
		l25.682-0.524L74.458,175.389z"/>
	<path fill="#D0CFCD" d="M74.461,194.079l-29.179-0.699c0,0-3.477,2.688-3.301,6.183c0.174,3.494,2.777,6.223,2.777,6.223
		l29.175,5.066l0.698-16.422L74.461,194.079z"/>
	<path fill="#D0CFCD" d="M65.722,210.852l-19.041-2.97c0,0-2.271,1.746-1.223,4.019c1.048,2.271,5.17,10.582,5.17,10.582
		l12.648,4.44L65.722,210.852z"/>
	<path fill="#302F27" d="M69.53,182.997c0,4.196,2.704,7.446,6.323,7.446c3.617,0,6.78-3.25,6.78-7.446
		c0-4.197-2.933-7.601-6.552-7.601C72.464,175.396,69.53,178.8,69.53,182.997z"/>
	<path fill="#302F27" d="M66.428,202.496c0,4.646,7.344,8.414,8.033,8.414c4.436,0,8.031-3.768,8.031-8.414
		c0-4.648-3.596-8.417-8.031-8.417C70.024,194.079,66.428,197.848,66.428,202.496z"/>
	
		<ellipse transform="matrix(-0.2056 0.9786 -0.9786 -0.2056 292.0782 200.7027)" fill="#302F27" cx="64.581" cy="218.896" rx="8.098" ry="7.152"/>
	<path fill="#ABABAB" d="M47.832,216.896l8.782,1.897c0.251-0.715-0.509-2.155,1.143-4.604c2.542-3.773,7.792-3.445,7.792-3.445
		s-2.462,0.246-4.922,1.968c2.684-1.879-5.824,10.411-4.429,6.81l-7.956-1.805L47.832,216.896z"/>
	<path fill="#6D6D71" d="M69.567,198.604c0,0,2.543-3.688,6.397-2.707c3.854,0.985,5.659,5.496,3.854,9.434
		c-1.803,3.938-5.74,4.186-7.709,3.279c-1.968-0.9-2.461-4.018-2.461-4.018s1.969,3.69,4.593,3.608
		c2.625-0.083,6.234-5.332,4.922-8.283c-1.312-2.953-4.101-3.364-5.825-3.035C71.618,197.211,69.567,198.604,69.567,198.604z"/>
	<path fill="#6D6D71" d="M75.718,200.271c0,0-3.884-1.528-4.923,1.26c-1.037,2.789,1.369,4.865,3.01,4.812
		c1.64-0.055,3.007-1.258,3.116-2.46c0,0-1.806,1.969-3.336,1.477c-1.531-0.493-2.353-2.133-1.969-3.336
		C72,200.818,73.968,199.999,75.718,200.271z"/>
	<path fill="#6D6D71" d="M75.007,176.762c0,0,4.211,0.711,5.03,4.813c0.621,3.103-1.805,7.107-3.445,7.6
		c-1.641,0.491-3.335-0.165-3.335-0.165s2.68,0.493,4.43-2.514c1.75-3.009,1.768-4.265,1.258-5.796
		C78.233,178.564,75.007,176.762,75.007,176.762z"/>
	<path fill="#6D6D71" d="M72.437,178.457c0.164-0.057,2.844-0.82,3.938,0.6c1.094,1.422,1.694,5.416,0.164,7.055
		c-1.531,1.642-3.445,0.656-3.445,0.656s3.062-0.49,3.335-2.022c0.272-1.53-0.054-4.759-0.71-5.47
		C75.063,178.564,72.437,178.457,72.437,178.457z"/>
	<path fill="#6D6D71" d="M66.586,212.301c0,0,4.102,3.283,4.102,6.126c0,2.845-2.407,6.232-3.937,6.726
		c-1.531,0.492-4.047,0.056-4.047,0.056s3.938-0.165,5.85-3.118c1.255-1.936,1.423-3.607,0.985-5.138
		C69.102,215.419,66.586,212.301,66.586,212.301z"/>
	<path fill="#6D6D71" d="M59.479,221.271c0,0,1.531,2.569,3.719,2.732c2.187,0.163,4.1-1.421,4.593-2.354
		c0.49-0.928,0.438-2.293,0.438-2.293s-1.915,3.881-4.375,3.771C61.393,223.02,59.479,221.271,59.479,221.271z"/>
	<path fill="#6D6D71" d="M67.9,218.92c0,0-0.438-4.759-3.281-4.594c-2.845,0.165-4.21,2.788-4.265,3.99
		c-0.056,1.203,2.076,3.281,2.076,3.281s-1.693-2.57-0.765-3.937c0.93-1.368,3.008-2.354,3.883-1.751S67.845,217.989,67.9,218.92z"
		/>
	<path fill="#E9CAA5" d="M57.98,48.224l1.547,10.638c0,0-3.688,0.723-2.528,7.105c1.159,6.383,4.436,8.116,6.757,9.083
		c2.321,0.967,2.928-0.52,2.928-0.52s1.759,10.455,8.519,15.576c7.278,5.514,14.499,7.633,20.688,6.666
		c4.648-0.726,10.831-6.577,12.959-15.473c2.127-8.897,2.515-32.689,1.74-35.589c-0.774-2.901-15.474-4.256-26.112-3.288
		C73.839,43.389,58.753,45.128,57.98,48.224z"/>
	<path fill="#AF8766" d="M63.653,64.535c0,0-1.805-3.094-3.738-3.094c-1.935,0-2.449,2.449-2.192,3.353
		c0.258,0.902,0.773,1.677,0.773,1.677s-0.645-1.419,0.645-2.451c1.289-1.03,3.354,0.516,3.48,1.419
		c0.13,0.903-0.387,2.45-0.387,2.45s-1.547-0.516-1.933,0.646c-0.387,1.16,0.901,2.319,0.901,2.319s1.162-2.062,1.807-1.546
		c0.644,0.515,1.804,1.031,1.417,1.805c-0.387,0.774-1.546,0.387-1.417,0.774c0.129,0.387,2.707,1.289,2.707-1.033
		C65.716,68.533,64.942,66.34,63.653,64.535z"/>
	<path fill="#53261D" d="M101.595,80.384c0,0-12.334,0.109-13.352,0.545c-1.018,0.435,3.012,1.815,4.424,1.971
		C97.626,83.444,103.377,82.019,101.595,80.384z"/>
	<path fill="#2C2826" d="M92.538,52.027c0,0-6.319-1.837-10.575-1.321c-4.254,0.517-8.767,4.9-8.767,4.9s4.513-2.451,7.735-2.579
		c3.225-0.128,11.606,1.806,11.606,1.806L92.538,52.027L92.538,52.027z"/>
	<path fill="#2C2826" d="M100.983,52.189l0.063,2.675c0,0,4.253-1.392,5.932-1.321c2.321,0.096,3.353,1.579,3.353,1.579
		s0.419-1.967-0.837-2.837C106.859,50.462,100.983,52.189,100.983,52.189z"/>
	<g>
		<path fill="#DADFE2" d="M91.859,59.564c0,0-3.467-2.136-5.988-2.083c-5.125,0.108-8.274,3.623-8.274,3.623s3.287,2.29,6.869,2.338
			C88.048,63.492,91.318,60.555,91.859,59.564z"/>
		
			<ellipse transform="matrix(0.0401 0.9992 -0.9992 0.0401 142.2882 -27.6347)" fill="#32271F" cx="85.527" cy="60.239" rx="3.16" ry="3.321"/>
		
			<ellipse transform="matrix(0.0396 0.9992 -0.9992 0.0396 142.6223 -28.0754)" fill="#1F1F20" cx="85.917" cy="60.157" rx="1.257" ry="1.322"/>
		
			<ellipse transform="matrix(0.0407 0.9992 -0.9992 0.0407 140.3632 -27.1808)" fill="#FFFFFF" cx="84.337" cy="59.507" rx="0.87" ry="0.915"/>
	</g>
	<path fill="#AF8766" d="M101.088,95.753l0.229-1.741c0,0,3.6-2.853,4.397-5.206c0,0-4.618,5.812-12.597,6.333
		c-8.609,0.562-18.78-5.896-18.78-5.896s10.201,11.182,17.938,11.699C96.349,101.213,101.088,95.753,101.088,95.753z"/>
	<g>
		<path fill="#DADFE2" d="M100.038,60.346c0.261-0.025,2.608-2.387,5.066-2.219c2.456,0.168,4.999,3.339,4.999,3.339
			s-1.857,1.952-4.3,1.945C102.371,63.403,100.038,60.346,100.038,60.346z"/>
		<g>
			
				<ellipse transform="matrix(0.0942 0.9955 -0.9955 0.0942 155.7118 -49.5457)" fill="#32271F" cx="105.085" cy="60.802" rx="2.883" ry="2.643"/>
			
				<ellipse transform="matrix(0.0946 0.9955 -0.9955 0.0946 155.866 -49.9472)" fill="#1F1F20" cx="105.393" cy="60.719" rx="1.148" ry="1.052"/>
			
				<ellipse transform="matrix(0.0937 0.9956 -0.9956 0.0937 154.2831 -49.0903)" fill="#FFFFFF" cx="104.104" cy="60.194" rx="0.795" ry="0.729"/>
		</g>
	</g>
	<path fill="#AF8766" d="M99.275,84.489c0,0-3.676,0.773-5.707,0.484c-2.03-0.292-3.385-0.871-3.385-0.871s1.839,1.934,4.256,2.03
		C96.856,86.23,99.275,84.489,99.275,84.489z"/>
	<path fill="#AF8766" d="M101.755,72.465c0,0-2.029,3.547-4.641,3.547c-2.612,0-5.287-2.934-5.287-2.934s4.736,0.364,6.189,0.387
		C100.146,73.497,101.755,72.465,101.755,72.465z"/>
	<path fill="#AF8766" d="M110.72,46.164c0,0-8.447-3.259-19.278-2.775c-10.832,0.482-19.116,1.933-19.116,1.933
		s0.192,1.419-0.388,2.58c-0.581,1.161-1.097,1.515-1.097,1.515s15.377-3.418,24.564-2.547c9.188,0.871,15.54,3.015,15.54,3.015
		L110.72,46.164z"/>
	<path fill="#2C2826" d="M91.302,58.762c0,0-3.773-1.97-7.818-1.094c-4.047,0.874-6.124,3.39-6.124,3.39s1.863-3.255,5.468-4.484
		C87.474,54.988,91.302,58.762,91.302,58.762z"/>
	<path fill="#2C2826" d="M100.106,59.964c0,0,2.863-2.085,5.796-1.531c2.023,0.383,4.211,2.843,4.211,2.843
		s-0.164-3.389-4.266-3.937C102.817,56.936,100.106,59.964,100.106,59.964z"/>
	<path fill="#AF8766" d="M109.674,76.532c0,0-0.819,5.112-1.969,7.983c-1.147,2.872-2.377,4.758-2.377,4.758l1.065-0.109
		c0,0,2.461-4.402,3.117-6.78c0.655-2.379,1.147-6.015,1.147-6.015L109.674,76.532z"/>
	<path fill="#2C2826" d="M66.991,65.79c0,0-3.394-6.382-7.464-6.929c-1.507-4.605-2.894-8.891-2.894-8.891S64,41.654,68.486,41.227
		c4.485-0.427,6.834,0.427,6.834,0.427s-1.708,5.981-4.912,10.894c-3.203,4.913-0.427,11.961-0.427,11.961L66.991,65.79z"/>
	<g>
		<path fill="#F4F5F6" d="M116.004,48.416c0,0-8.768-5.222-25.144-5.027c-16.699,0.197-33.067,4.904-34.228,6.582
			c-1.16,1.675-0.265,4.571-0.265,4.571s0.287,0.222-1.014-2.38c-0.773-1.546,0.367-3.595,1.705-5.42c0,0-2.562-23.341,11.881-33.14
			c14.44-9.801,29.914-7.286,39.135,2.707c9.068,9.831,7.672,25.79,7.672,25.79s3.481,1.806,3.996,3.869
			C120.278,48.097,117.167,48.674,116.004,48.416z"/>
		<path fill="#CACBD0" d="M83.511,39.52c17.712-1.622,29.529,2.192,31.656,3.029c1.314,0.519,4.576,2.322,4.576,3.418
			c0,2.196-2.577,2.707-3.739,2.449c0,0-8.768-5.222-25.144-5.027c-16.699,0.197-30.088,5.205-31.789,6.33
			c-2.415,1.594-2.566,4.747-2.566,4.747s-0.589-0.92-0.846-3.885C55.201,45.31,65.201,41.196,83.511,39.52z"/>
		<path fill="#DBDCE0" d="M82.48,8.701c0,0,6.188,2.967,7.994,10.188c1.805,7.221,1.128,20.244,1.128,20.244h2.354
			c0,0,0.368-15.391-2.192-21.534C88.539,9.862,82.48,8.701,82.48,8.701z"/>
		<path fill="#DBDCE0" d="M97.341,9.056c0,0,5.843,3.054,7.546,10.49c1.703,7.435,1.065,20.846,1.065,20.846l1.735,0.386
			c0,0,0.967-15.046-1.45-21.372C103.195,11.437,97.341,9.056,97.341,9.056z"/>
		<path fill="#FFFFFF" d="M119.504,46.932c0,0,2.763-1.256-2.64-4.398c-5.403-3.142-16.213-5.781-29.156-5.026
			c-12.945,0.753-23.715,4.054-28.213,6.737c-3.472,2.072-4.941,6.042-4.506,7.491c0.772,2.58,1.516,2.729,1.516,2.729
			s-1.266-5.924,4.391-8.94c5.655-3.017,18.013-5.942,28.194-6.259c13.27-0.411,23.198,2.487,26.016,3.896
			C119.378,45.299,119.504,46.932,119.504,46.932z"/>
	</g>
</g>
<rect x="-7.611" y="0.365" fill="none" width="300.011" height="179.986"/>
<rect x="-7.611" y="0.365" fill="none" width="300.011" height="179.986"/>
<rect x="-7.611" y="0.365" fill="none" width="300.011" height="179.986"/>
<rect x="-7.611" y="0.365" fill="none" width="300.011" height="179.986"/>
<rect x="-7.611" y="0.365" fill="none" width="300.011" height="179.986"/>
<rect x="-7.611" y="0.365" fill="none" width="300.011" height="179.986"/>
<rect x="-6.5" y="188.861" fill="#333333" width="320" height="60"/>
<text transform="matrix(1 0 0 1 94.7148 227.4238)" fill="#ECF0F1" font-family="'CenturyGothic'" font-size="31">Nirmaan</text>
</svg>
