<?xml version="1.0" encoding="utf-8"?>
<!-- Generator: Adobe Illustrator 16.0.0, SVG Export Plug-In . SVG Version: 6.00 Build 0)  -->
<!DOCTYPE svg PUBLIC "-//W3C//DTD SVG 1.1//EN" "http://www.w3.org/Graphics/SVG/1.1/DTD/svg11.dtd">
<svg version="1.1" id="Layer_1" xmlns="http://www.w3.org/2000/svg" xmlns:xlink="http://www.w3.org/1999/xlink" x="0px" y="0px"
	 width="300px" height="240px" viewBox="0 0 300 240" enable-background="new 0 0 300 240" xml:space="preserve">
<rect x="0.389" y="3.365" fill="none" width="300.011" height="179.986"/>
<rect x="-6.5" y="-8.935" fill="#86961A" width="313" height="213.985"/>
<rect x="0.389" y="3.365" fill="none" width="300.011" height="179.986"/>
<rect x="0.389" y="3.365" fill="none" width="300.011" height="179.986"/>
<rect x="0.389" y="3.365" fill="none" width="300.011" height="179.986"/>
<rect x="0.389" y="3.365" fill="none" width="300.011" height="179.986"/>
<rect x="0.389" y="3.365" fill="none" width="300.011" height="179.986"/>
<rect x="-6.5" y="188.861" fill="#333333" width="320" height="60"/>
<text transform="matrix(1 0 0 1 85.7148 227.4238)" fill="#ECF0F1" font-family="'CenturyGothic'" font-size="31">Robotics</text>
<g opacity="0.12">
	
		<image overflow="visible" enable-background="new    " width="180" height="85" xlink:href="BCC8A78F.png"  transform="matrix(0.9944 0 0 0.9882 60.9971 137)">
	</image>
</g>
<g>
	<g>
		<polygon fill="#424857" points="156.411,173.875 167.063,173.875 160.145,117.454 149.482,117.454 		"/>
		<path fill="#F1475B" d="M173.006,178.813c0-5.453-4.42-9.871-9.871-9.871c-5.453,0-9.871,4.418-9.871,9.871H173.006z"/>
		<circle fill="#F8F6A3" cx="158.277" cy="145.664" r="6.518"/>
	</g>
	<g>
		<polygon fill="#424857" points="135.826,173.875 125.173,173.875 132.094,117.454 142.748,117.454 		"/>
		<path fill="#F1475B" d="M139.466,179.391c0-5.451-4.419-9.873-9.871-9.873c-5.452,0-9.872,4.422-9.872,9.873H139.466z"/>
		<circle fill="#F8F6A3" cx="133.96" cy="145.664" r="6.518"/>
	</g>
	<g>
		<path fill="#424857" d="M188.424,96.546c-3.752,0-7.554-1.301-11.32-3.88c-3.151-2.158-6.307-5.233-9.375-9.142
			c-3.608-4.598-6.246-9.25-7.514-11.647l-2.365-0.668l2.172-7.675l5.779,1.634l0.777,1.631c0.027,0.058,2.957,6.138,7.504,11.901
			c3.787,4.804,9.497,10.408,15.176,9.828c6.791-0.693,8.637-7.146,8.711-7.42l-0.008,0.032l7.729,1.974
			c-0.08,0.317-0.854,3.183-3.07,6.19c-3.064,4.158-7.405,6.634-12.553,7.159C189.52,96.518,188.971,96.546,188.424,96.546z"/>
	</g>
	<g>
		<path fill="#424857" d="M105.735,106.332l-2.87-7.441c7.166-2.763,11.068-6.265,12.279-11.021c1.25-4.909,2.405-8.77,3.744-12.521
			c0.045-0.127,0.093-0.262,0.142-0.402c0.609-1.73,1.627-4.627,3.734-7.128c2.704-3.21,6.492-4.907,10.954-4.907v7.976
			c-4.444,0-5.873,3.037-7.163,6.705c-0.054,0.153-0.105,0.3-0.156,0.439c-1.269,3.554-2.324,7.085-3.526,11.806
			c-1.065,4.181-3.39,7.8-6.913,10.758C113.306,102.827,109.96,104.704,105.735,106.332z"/>
	</g>
	<g>
		<g>
			<polygon fill="#E1F0E8" points="139.158,53.416 139.158,55.319 144.753,53.416 			"/>
			<polygon fill="#E1F0E8" points="139.158,63.964 139.538,63.964 153.002,59.385 153.002,57.84 139.158,62.548 			"/>
			<polygon fill="#E1F0E8" points="139.158,58.162 139.158,59.706 153.002,54.998 153.002,53.453 			"/>
			<polygon fill="#E1F0E8" points="152.438,63.964 153.002,63.772 153.002,62.227 147.887,63.964 			"/>
			<polygon fill="#424857" points="153.002,53.416 144.753,53.416 139.158,55.319 139.158,58.162 153.002,53.453 			"/>
			<polygon fill="#424857" points="139.158,62.548 153.002,57.84 153.002,54.998 139.158,59.706 			"/>
			<polygon fill="#424857" points="147.887,63.964 153.002,62.227 153.002,59.385 139.538,63.964 			"/>
			<polygon fill="#424857" points="153.002,63.964 153.002,63.772 152.438,63.964 			"/>
		</g>
		<g>
			<rect x="161.205" y="9.008" fill="#E1F0E8" width="3.689" height="11.067"/>
			<polygon fill="#424857" points="164.895,9.008 161.967,9.008 161.205,9.357 161.205,10.72 164.895,9.029 			"/>
			<polygon fill="#424857" points="161.205,13.313 164.895,11.621 164.895,10.259 161.205,11.95 			"/>
			<polygon fill="#424857" points="161.205,15.904 164.895,14.213 164.895,12.851 161.205,14.542 			"/>
			<polygon fill="#424857" points="161.205,18.497 164.895,16.806 164.895,15.443 161.205,17.134 			"/>
			<polygon fill="#E1F0E8" points="161.205,20.075 163.418,20.075 164.895,19.398 164.895,18.035 161.205,19.727 			"/>
		</g>
		<path fill="#88CEDB" d="M169.299,50.665c0,2.423-1.965,4.387-4.388,4.387H127.25c-2.423,0-4.387-1.964-4.387-4.387l-1.413-29.71
			c0-2.423,1.964-4.387,4.387-4.387h40.489c2.423,0,4.388,1.964,4.388,4.387L169.299,50.665z"/>
		<g>
			<circle fill="#FFFFFF" cx="154.113" cy="31.985" r="3.233"/>
			<path fill="#424857" d="M156.398,34.271c1.263-1.263,1.263-3.31,0-4.572c-1.262-1.262-3.312-1.263-4.571,0L156.398,34.271z"/>
		</g>
		<circle fill="#424857" cx="146.874" cy="19.055" r="0.798"/>
		<circle fill="#424857" cx="167.818" cy="19.87" r="0.797"/>
		<circle fill="#424857" cx="167.676" cy="22.822" r="0.797"/>
		<circle fill="#424857" cx="167.532" cy="25.774" r="0.798"/>
		<circle fill="#424857" cx="167.389" cy="28.725" r="0.798"/>
		<circle fill="#424857" cx="167.245" cy="31.677" r="0.797"/>
		<circle fill="#424857" cx="167.104" cy="34.629" r="0.798"/>
		<circle fill="#424857" cx="166.959" cy="37.581" r="0.797"/>
		<circle fill="#424857" cx="166.816" cy="40.533" r="0.797"/>
		<circle fill="#424857" cx="166.674" cy="43.485" r="0.798"/>
		<circle fill="#424857" cx="166.529" cy="46.437" r="0.797"/>
		<circle fill="#424857" cx="166.387" cy="49.388" r="0.797"/>
		<circle fill="#424857" cx="150.436" cy="19.055" r="0.799"/>
		<circle fill="#424857" cx="153.994" cy="19.055" r="0.797"/>
		<circle fill="#424857" cx="157.551" cy="19.055" r="0.798"/>
		<circle fill="#424857" cx="161.107" cy="19.055" r="0.797"/>
		<circle fill="#424857" cx="164.662" cy="19.055" r="0.798"/>
		<path fill="#F1475B" d="M165.92,7.97c0,1.046-0.85,1.894-1.896,1.894h-2.11c-1.046,0-1.896-0.848-1.896-1.894V7.631
			c0-1.046,0.85-1.895,1.896-1.895h2.11c1.047,0,1.896,0.848,1.896,1.895V7.97L165.92,7.97z"/>
		<circle fill="#FFFFFF" cx="164.611" cy="7.182" r="0.744"/>
		<path fill="#F1475B" d="M160.74,48.036c0,1.047-0.848,1.895-1.896,1.895h-25.529c-1.046,0-1.895-0.848-1.895-1.895v-3.838
			c0-1.046,0.848-1.894,1.895-1.894h25.529c1.049,0,1.896,0.848,1.896,1.894V48.036L160.74,48.036z"/>
		<g>
			<path fill="#424857" d="M158.338,46.74h-24.437c-0.331,0-0.598-0.268-0.598-0.598s0.268-0.598,0.598-0.598h24.437
				c0.33,0,0.598,0.268,0.598,0.598S158.668,46.74,158.338,46.74z"/>
		</g>
		<circle fill="#E1F0E8" cx="138.047" cy="31.985" r="5.626"/>
		<g>
			<circle fill="#FFFFFF" cx="138.047" cy="31.985" r="3.233"/>
			<path fill="#424857" d="M140.333,34.271c1.263-1.263,1.263-3.31,0-4.572c-1.262-1.263-3.309-1.263-4.572,0L140.333,34.271z"/>
		</g>
		<path fill="#88CEDB" d="M168.104,119.262c0,3.964-3.213,7.177-7.178,7.177h-29.691c-3.965,0-7.179-3.213-7.179-7.177V69.87
			c0-3.964,3.214-7.178,7.179-7.178h29.691c3.965,0,7.178,3.214,7.178,7.178V119.262z"/>
		<circle fill="#424857" cx="127.432" cy="69.311" r="0.798"/>
		<circle fill="#424857" cx="127.432" cy="72.862" r="0.798"/>
		<circle fill="#424857" cx="127.432" cy="76.412" r="0.798"/>
		<circle fill="#424857" cx="127.432" cy="79.963" r="0.798"/>
		<circle fill="#424857" cx="127.432" cy="83.513" r="0.798"/>
		<circle fill="#424857" cx="127.432" cy="87.064" r="0.798"/>
		<circle fill="#424857" cx="127.432" cy="90.615" r="0.798"/>
		<circle fill="#424857" cx="127.432" cy="94.165" r="0.798"/>
		<circle fill="#424857" cx="127.432" cy="97.716" r="0.798"/>
		<circle fill="#424857" cx="127.432" cy="101.267" r="0.798"/>
		<circle fill="#424857" cx="127.432" cy="104.817" r="0.798"/>
		<circle fill="#424857" cx="127.432" cy="108.368" r="0.798"/>
		<circle fill="#424857" cx="127.432" cy="111.919" r="0.798"/>
		<circle fill="#424857" cx="127.432" cy="115.469" r="0.798"/>
		<circle fill="#424857" cx="127.432" cy="119.02" r="0.798"/>
		<circle fill="#424857" cx="153.092" cy="122.451" r="0.798"/>
		<circle fill="#424857" cx="149.534" cy="122.451" r="0.798"/>
		<circle fill="#424857" cx="145.982" cy="122.451" r="0.798"/>
		<circle fill="#424857" cx="142.432" cy="122.451" r="0.798"/>
		<circle fill="#424857" cx="138.881" cy="122.451" r="0.798"/>
		<circle fill="#424857" cx="135.331" cy="122.451" r="0.798"/>
		<circle fill="#424857" cx="131.78" cy="122.451" r="0.798"/>
		<circle fill="#424857" cx="128.229" cy="122.451" r="0.798"/>
	</g>
	<circle fill="#F8F6A3" cx="160.74" cy="75.615" r="2.753"/>
	<circle fill="#F8F6A3" cx="160.74" cy="84.621" r="2.753"/>
	<circle fill="#F8F6A3" cx="160.74" cy="93.627" r="2.753"/>
	<path fill="#F1475B" d="M151.072,114.671c0,0.54-0.438,0.977-0.981,0.977h-16.617c-0.54,0-0.978-0.437-0.978-0.977l0,0
		c0-0.541,0.438-0.978,0.978-0.978h16.617C150.633,113.694,151.072,114.13,151.072,114.671L151.072,114.671z"/>
	<path fill="#F1475B" d="M151.072,110.143c0,0.54-0.438,0.978-0.981,0.978h-16.617c-0.54,0-0.978-0.438-0.978-0.978l0,0
		c0-0.54,0.438-0.979,0.978-0.979h16.617C150.633,109.165,151.072,109.603,151.072,110.143L151.072,110.143z"/>
	<path fill="#F1475B" d="M151.072,105.614c0,0.54-0.438,0.979-0.981,0.979h-16.617c-0.54,0-0.978-0.438-0.978-0.979l0,0
		c0-0.538,0.438-0.977,0.978-0.977h16.617C150.633,104.637,151.072,105.076,151.072,105.614L151.072,105.614z"/>
	<path fill="#F1475B" d="M151.072,101.087c0,0.54-0.438,0.977-0.981,0.977h-16.617c-0.54,0-0.978-0.437-0.978-0.977l0,0
		c0-0.541,0.438-0.978,0.978-0.978h16.617C150.633,100.109,151.072,100.546,151.072,101.087L151.072,101.087z"/>
	<path fill="#F1475B" d="M151.072,96.558c0,0.541-0.438,0.978-0.981,0.978h-16.617c-0.54,0-0.978-0.437-0.978-0.978l0,0
		c0-0.54,0.438-0.977,0.978-0.977h16.617C150.633,95.581,151.072,96.018,151.072,96.558L151.072,96.558z"/>
	<path fill="#F1475B" d="M151.072,92.03c0,0.54-0.438,0.978-0.981,0.978h-16.617c-0.54,0-0.978-0.438-0.978-0.978l0,0
		c0-0.54,0.438-0.978,0.978-0.978h16.617C150.633,91.053,151.072,91.49,151.072,92.03L151.072,92.03z"/>
	<path fill="#F1475B" d="M151.072,87.502c0,0.54-0.438,0.978-0.981,0.978h-16.617c-0.54,0-0.978-0.438-0.978-0.978l0,0
		c0-0.54,0.438-0.978,0.978-0.978h16.617C150.633,86.524,151.072,86.962,151.072,87.502L151.072,87.502z"/>
	<polygon fill="#F1475B" points="215.564,65.976 211.551,67.95 210.625,75.569 202.848,79.393 199.023,71.617 202.943,65.017 
		200.971,61.003 191.652,71.192 200.49,86.315 216.723,79.734 	"/>
	<polygon fill="#F1475B" points="84.068,104.688 88.302,106.131 94.345,101.398 102.547,104.193 99.753,112.396 92.315,114.292 
		90.872,118.524 104.667,117.91 109.11,100.966 92.979,94.14 	"/>
</g>
</svg>
