<?xml version="1.0" encoding="utf-8"?>
<!-- Generator: Adobe Illustrator 16.0.0, SVG Export Plug-In . SVG Version: 6.00 Build 0)  -->
<!DOCTYPE svg PUBLIC "-//W3C//DTD SVG 1.1//EN" "http://www.w3.org/Graphics/SVG/1.1/DTD/svg11.dtd">
<svg version="1.1" id="Layer_1" xmlns="http://www.w3.org/2000/svg" xmlns:xlink="http://www.w3.org/1999/xlink" x="0px" y="0px"
	 width="300px" height="240px" viewBox="0 0 300 240" enable-background="new 0 0 300 240" xml:space="preserve">
<rect x="-27.5" y="-10.833" fill="#91B843" width="369.333" height="219.626"/>
<circle fill="#C0C4C8" cx="153.5" cy="102.987" r="25.832"/>
<path fill="none" stroke="#F5ECE1" stroke-width="1.7895" stroke-miterlimit="10" d="M230.614,106.046
	c0-42.864-34.749-77.613-77.614-77.613c-42.864,0-77.613,34.749-77.613,77.613"/>
<path fill="none" stroke="#F5ECE1" stroke-width="0.2983" stroke-miterlimit="10" d="M223.404,100.75
	c0-37.015-33.389-67.021-70.404-67.021c-37.015,0-70.402,30.007-70.402,67.021"/>
<path fill="none" stroke="#F5ECE1" stroke-width="0.3992" stroke-miterlimit="10" stroke-dasharray="0.8948,0.8948" d="
	M238.211,112.096c0-49.546-35.664-89.712-85.211-89.712c-49.546,0-85.211,40.166-85.211,89.712"/>
<g>
	<path fill="#505B66" d="M183.454,102.457c0-16.543-13.411-29.954-29.954-29.954s-29.954,13.411-29.954,29.954
		c0,14.786,10.713,27.068,24.801,29.51v7.624h10.307v-7.624C172.74,129.524,183.454,117.242,183.454,102.457z M153.5,124.961
		c-12.43,0-22.505-10.075-22.505-22.504S141.07,79.951,153.5,79.951s22.505,10.076,22.505,22.505S165.93,124.961,153.5,124.961z"/>
	<rect x="147.086" y="167.494" fill="#F4B7A9" width="27.674" height="41.299"/>
	<rect x="134.26" y="190.097" fill="#F4B7A9" width="40.182" height="27.798"/>
	<path fill="#F4B7A9" d="M123.936,153.915c0-4.521,3.665-8.186,8.186-8.186h34.453c4.521,0,8.186,3.665,8.186,8.186v31.903
		c0,4.52-3.665,8.186-8.186,8.186h-34.453c-4.521,0-8.186-3.666-8.186-8.186V153.915z"/>
	<rect x="146.377" y="139.591" fill="#00B5AE" width="15.356" height="43.53"/>
	<path fill="#F4B7A9" d="M181.848,140.604c1.101,3.288-0.672,6.847-3.96,7.947l-18.705,6.263c-3.288,1.102-6.846-0.672-7.947-3.96
		l0,0c-1.101-3.288,0.672-6.846,3.96-7.946l18.705-6.264C177.188,135.543,180.746,137.316,181.848,140.604L181.848,140.604z"/>
	<path fill="#F4B7A9" d="M174.705,195.756c0,0,10.705-10.25,7.887-17.684c-3.364-8.871-12.166,3.359-12.166,3.359L174.705,195.756z"
		/>
	<path opacity="0.3" fill="#F4B7A9" d="M182.592,178.072c-1.788-4.714-5.11-3.47-7.832-1.269v-22.889
		c0-4.521-2.169-8.186-4.846-8.186h-20.397c-0.001,0-0.002,0-0.004,0h4.838v44.367v3.907v23.891h20.387v-22.17
		C175.376,195.104,185.319,185.268,182.592,178.072z"/>
	<path fill="#F4B7A9" d="M181.848,140.604c1.101,3.288-0.672,6.847-3.96,7.947l-18.705,6.263c-3.288,1.102-6.846-0.672-7.947-3.96
		l0,0c-1.101-3.288,0.672-6.846,3.96-7.946l18.705-6.264C177.188,135.543,180.746,137.316,181.848,140.604L181.848,140.604z"/>
	<path fill="#F4B7A9" d="M181.848,153.162c1.101,3.287-0.672,6.846-3.96,7.947l-18.705,6.262c-3.288,1.102-6.846-0.672-7.947-3.959
		l0,0c-1.101-3.289,0.672-6.847,3.96-7.947l18.705-6.264C177.188,148.101,180.746,149.873,181.848,153.162L181.848,153.162z"/>
	<path fill="#F4B7A9" d="M182.592,178.072c1.101,3.287-0.672,6.846-3.96,7.947l-18.705,6.264c-3.288,1.1-6.846-0.673-7.947-3.961
		l0,0c-1.101-3.288,0.672-6.846,3.96-7.947l18.705-6.264C177.933,173.012,181.49,174.784,182.592,178.072L182.592,178.072z"/>
	<path fill="#F4B7A9" d="M181.848,165.643c1.101,3.287-0.672,6.846-3.96,7.947l-18.705,6.264c-3.288,1.1-6.846-0.672-7.947-3.961
		l0,0c-1.101-3.287,0.672-6.846,3.96-7.947l18.705-6.263C177.188,160.582,180.746,162.354,181.848,165.643L181.848,165.643z"/>
	<path opacity="0.1" fill="#F4B7A9" d="M181.848,140.604c1.101,3.288-0.672,6.847-3.96,7.947l-18.705,6.263
		c-3.288,1.102-6.846-0.672-7.947-3.96l0,0c-1.101-3.288,0.672-6.846,3.96-7.946l18.705-6.264
		C177.188,135.543,180.746,137.316,181.848,140.604L181.848,140.604z"/>
	<path opacity="0.1" fill="#F4B7A9" d="M181.848,153.162c1.101,3.287-0.672,6.846-3.96,7.947l-18.705,6.262
		c-3.288,1.102-6.846-0.672-7.947-3.959l0,0c-1.101-3.289,0.672-6.847,3.96-7.947l18.705-6.264
		C177.188,148.101,180.746,149.873,181.848,153.162L181.848,153.162z"/>
	<path opacity="0.1" fill="#F4B7A9" d="M182.592,178.072c1.101,3.287-0.672,6.846-3.96,7.947l-18.705,6.264
		c-3.288,1.1-6.846-0.673-7.947-3.961l0,0c-1.101-3.288,0.672-6.846,3.96-7.947l18.705-6.264
		C177.933,173.012,181.49,174.784,182.592,178.072L182.592,178.072z"/>
	<path opacity="0.1" fill="#F4B7A9" d="M181.848,165.643c1.101,3.287-0.672,6.846-3.96,7.947l-18.705,6.264
		c-3.288,1.1-6.846-0.672-7.947-3.961l0,0c-1.101-3.287,0.672-6.846,3.96-7.947l18.705-6.263
		C177.188,160.582,180.746,162.354,181.848,165.643L181.848,165.643z"/>
	<rect x="131.157" y="203.996" fill="#F9D363" width="45.796" height="13.898"/>
	<path fill="#FAF5F0" d="M155.502,169.158c-2.513,0.664-4.01,3.24-3.346,5.752c0.665,2.512,3.24,4.01,5.753,3.346L155.502,169.158z"
		/>
	<path fill="#FAF5F0" d="M156.766,181.813c-2.512,0.664-4.01,3.24-3.345,5.752c0.664,2.513,3.239,4.01,5.752,3.346L156.766,181.813z
		"/>
	<path fill="#FAF5F0" d="M156.246,144.248c-2.512,0.664-4.01,3.239-3.346,5.752c0.665,2.512,3.241,4.01,5.753,3.345L156.246,144.248
		z"/>
	<path fill="#F4B7A9" d="M156.218,152.008c0,3.468-2.811,6.279-6.278,6.279h-19.726c-3.467,0-6.278-2.812-6.278-6.279l0,0
		c0-3.467,2.812-6.278,6.278-6.278h19.726C153.407,145.729,156.218,148.541,156.218,152.008L156.218,152.008z"/>
	<path fill="#F4B7A9" d="M163.159,166.145c-2.577,2.32-6.547,2.111-8.867-0.465l-8.009-9.471c-2.319-2.577-2.111-6.547,0.465-8.867
		l0,0c2.577-2.32,6.548-2.111,8.867,0.465l8.009,9.471C165.944,159.854,165.736,163.824,163.159,166.145L163.159,166.145z"/>
	<path fill="#FAF5F0" d="M154.843,163.391c1.41,2.183,4.322,2.811,6.505,1.4c2.184-1.408,2.812-4.32,1.402-6.504L154.843,163.391z"
		/>
</g>
<g>
	<path fill="#F9D363" d="M153.5,54.898c-11.923,0-21.624-9.7-21.624-21.624s9.701-21.624,21.624-21.624s21.624,9.7,21.624,21.624
		S165.423,54.898,153.5,54.898z"/>
	<path fill="#F5ECE1" d="M153.5,12.397c11.53,0,20.878,9.348,20.878,20.878c0,11.531-9.348,20.878-20.878,20.878
		s-20.878-9.347-20.878-20.878C132.622,21.745,141.97,12.397,153.5,12.397 M153.5,10.906c-12.334,0-22.369,10.035-22.369,22.369
		s10.035,22.369,22.369,22.369s22.369-10.035,22.369-22.369S165.834,10.906,153.5,10.906L153.5,10.906z"/>
</g>
<g>
	<path fill="#00B5AE" d="M207.618,76.629c-5.776,0-11.207-2.25-15.291-6.333c-8.43-8.431-8.43-22.149,0-30.581
		c4.085-4.084,9.515-6.333,15.291-6.333c5.775,0,11.206,2.25,15.29,6.333s6.333,9.514,6.333,15.29s-2.249,11.206-6.333,15.291
		C218.824,74.38,213.394,76.629,207.618,76.629z"/>
	<path fill="#F5ECE1" d="M207.618,34.127c5.343,0,10.686,2.039,14.763,6.115c8.153,8.153,8.153,21.373,0,29.526
		c-4.077,4.077-9.42,6.115-14.763,6.115c-5.344,0-10.688-2.038-14.764-6.115c-8.152-8.153-8.152-21.372,0-29.526
		C196.932,36.166,202.274,34.127,207.618,34.127 M207.618,32.636c-5.975,0-11.593,2.327-15.818,6.552
		c-8.721,8.722-8.721,22.914,0,31.635c4.226,4.225,9.843,6.552,15.818,6.552c5.975,0,11.592-2.327,15.817-6.552
		c4.225-4.225,6.552-9.843,6.552-15.818s-2.327-11.592-6.552-15.817C219.21,34.963,213.593,32.636,207.618,32.636L207.618,32.636z"
		/>
</g>
<g>
	<path fill="#EA7053" d="M230.614,130.357c-11.923,0-21.624-9.701-21.624-21.624c0-11.923,9.701-21.624,21.624-21.624
		c11.922,0,21.622,9.701,21.624,21.624C252.238,120.656,242.537,130.357,230.614,130.357L230.614,130.357z"/>
	<path fill="#F5ECE1" d="M230.614,87.855c11.53,0,20.877,9.348,20.878,20.878c0,11.53-9.348,20.878-20.878,20.878
		c-11.531,0-20.878-9.348-20.878-20.878S219.083,87.855,230.614,87.855 M230.614,86.364L230.614,86.364
		c-12.334,0-22.369,10.035-22.369,22.369c0,12.334,10.035,22.369,22.369,22.37c12.334-0.001,22.369-10.036,22.369-22.37
		C252.982,96.399,242.947,86.365,230.614,86.364L230.614,86.364z"/>
</g>
<g>
	<path fill="#EA7053" d="M99.383,76.629c-5.776,0-11.207-2.25-15.291-6.333c-4.084-4.084-6.333-9.515-6.333-15.291
		s2.249-11.206,6.333-15.29s9.515-6.333,15.29-6.333c5.776,0,11.206,2.25,15.291,6.333c8.43,8.432,8.43,22.15,0,30.581
		C110.589,74.38,105.158,76.629,99.383,76.629z"/>
	<path fill="#F5ECE1" d="M99.382,34.127c5.344,0,10.687,2.039,14.764,6.115c8.152,8.154,8.152,21.373,0,29.526
		c-4.076,4.077-9.42,6.115-14.764,6.115c-5.343,0-10.686-2.038-14.763-6.115c-8.153-8.153-8.153-21.373,0-29.526
		C88.696,36.166,94.039,34.127,99.382,34.127 M99.382,32.636c-5.975,0-11.592,2.327-15.817,6.552
		c-4.225,4.225-6.552,9.842-6.552,15.817s2.327,11.593,6.552,15.818c4.226,4.225,9.843,6.552,15.817,6.552
		c5.976,0,11.593-2.327,15.818-6.552c8.721-8.722,8.721-22.913,0-31.635C110.975,34.963,105.356,32.636,99.382,32.636L99.382,32.636
		z"/>
</g>
<g>
	<path fill="#00B5AE" d="M76.386,130.357c-11.923,0-21.624-9.701-21.624-21.624c0.002-11.923,9.702-21.623,21.624-21.624
		c11.923,0,21.624,9.7,21.624,21.624C98.01,120.656,88.309,130.357,76.386,130.357L76.386,130.357z"/>
	<path fill="#F5ECE1" d="M76.386,87.855c11.531,0,20.878,9.348,20.878,20.878s-9.347,20.878-20.878,20.878
		c-11.53,0-20.878-9.348-20.878-20.878C55.509,97.203,64.855,87.856,76.386,87.855 M76.386,86.364L76.386,86.364
		c-12.333,0-22.368,10.035-22.369,22.369c0,12.334,10.035,22.369,22.369,22.37c12.334-0.001,22.369-10.036,22.369-22.37
		C98.755,96.399,88.72,86.364,76.386,86.364L76.386,86.364z"/>
</g>
<g>
	<g>
		
			<line fill="none" stroke="#F5ECE1" stroke-width="0.5965" stroke-miterlimit="10" stroke-dasharray="0.8948,0.8948" x1="214.896" y1="84.321" x2="239.699" y2="73.367"/>
		<g>
			<circle fill="#F5ECE1" cx="214.946" cy="84.298" r="1.121"/>
		</g>
		<g>
			<polygon fill="#F5ECE1" points="239.898,74.896 241.654,72.495 238.697,72.175 			"/>
		</g>
	</g>
</g>
<g>
	<g>
		
			<line fill="none" stroke="#F5ECE1" stroke-width="0.5965" stroke-miterlimit="10" stroke-dasharray="0.8948,0.8948" x1="179.61" y1="47.015" x2="190.591" y2="22.223"/>
		<g>
			<circle fill="#F5ECE1" cx="179.633" cy="46.964" r="1.121"/>
		</g>
		<g>
			<polygon fill="#F5ECE1" points="191.767,23.22 191.45,20.263 189.048,22.015 			"/>
		</g>
	</g>
</g>
<g>
	<g>
		
			<line fill="none" stroke="#F5ECE1" stroke-width="0.5965" stroke-miterlimit="10" stroke-dasharray="0.8948,0.8948" x1="92.787" y1="84.321" x2="67.983" y2="73.367"/>
		<g>
			<circle fill="#F5ECE1" cx="92.736" cy="84.298" r="1.121"/>
		</g>
		<g>
			<polygon fill="#F5ECE1" points="68.979,72.19 66.022,72.51 67.777,74.911 			"/>
		</g>
	</g>
</g>
<g>
	<g>
		
			<line fill="none" stroke="#F5ECE1" stroke-width="0.5965" stroke-miterlimit="10" stroke-dasharray="0.8948,0.8948" x1="128.071" y1="47.015" x2="117.091" y2="22.223"/>
		<g>
			<circle fill="#F5ECE1" cx="128.049" cy="46.964" r="1.121"/>
		</g>
		<g>
			<polygon fill="#F5ECE1" points="118.619,22.022 116.216,20.27 115.899,23.227 			"/>
		</g>
	</g>
</g>
<g>
	<g>
		<path fill="#F5ECE1" d="M229.587,107.541c-0.205,0.372-0.671,0.507-1.042,0.302l-1.774-0.976
			c-0.372-0.205-0.507-0.671-0.303-1.042l0,0c0.204-0.372,0.671-0.507,1.042-0.302l1.774,0.977
			C229.655,106.703,229.791,107.169,229.587,107.541L229.587,107.541z"/>
		
			<rect x="228.684" y="96.071" transform="matrix(0.8761 0.4822 -0.4822 0.8761 77.6131 -98.6928)" fill="#F5ECE1" width="4.236" height="11.141"/>
		
			<rect x="226.531" y="104.448" transform="matrix(0.8761 0.4822 -0.4822 0.8761 79.2326 -97.1697)" fill="#505B66" width="4.236" height="2.21"/>
		<path fill="#505B66" d="M234.929,97.134c-0.13,0.237-0.429,0.324-0.666,0.193l-1.667-0.917c-0.238-0.131-0.324-0.43-0.194-0.667
			l0,0c0.132-0.238,0.43-0.324,0.668-0.193l1.666,0.917C234.974,96.597,235.06,96.896,234.929,97.134L234.929,97.134z"/>
	</g>
	<rect x="225.718" y="115.063" fill="#F5ECE1" width="4.575" height="4.682"/>
	<rect x="222.18" y="119.745" fill="#505B66" width="11.651" height="2.234"/>
	<g>
		<path fill="#505B66" d="M232.744,115.164h-9.407v-1.117h9.407c2.86,0,5.188-2.327,5.188-5.188s-2.327-5.188-5.188-5.188v-1.117
			c3.477,0,6.305,2.828,6.305,6.305S236.221,115.164,232.744,115.164z"/>
	</g>
	<circle fill="#505B66" cx="232.155" cy="103.065" r="1.356"/>
	<circle fill="#F5ECE1" cx="232.155" cy="103.065" r="0.825"/>
</g>
<g>
	<circle fill="#F5ECE1" cx="153.5" cy="37.619" r="9.168"/>
	<path fill="#EA7053" d="M146.036,37.619c0,4.123,3.341,7.464,7.464,7.464c4.122,0,7.464-3.342,7.464-7.464H146.036z"/>
	<circle fill="#F5ECE1" cx="155.8" cy="40.333" r="0.895"/>
	<circle fill="#F5ECE1" cx="152.605" cy="42.128" r="0.895"/>
	<circle fill="#F5ECE1" cx="149.411" cy="39.439" r="0.895"/>
	<rect x="150.753" y="21.637" fill="#F5ECE1" width="5.494" height="10.902"/>
	<path fill="#F5ECE1" d="M157.099,21.041c0,0.706-0.572,1.278-1.277,1.278h-4.643c-0.705,0-1.277-0.572-1.277-1.278l0,0
		c0-0.706,0.572-1.277,1.277-1.277h4.643C156.526,19.763,157.099,20.335,157.099,21.041L157.099,21.041z"/>
</g>
<g>
	<path fill="#F9D363" d="M86.509,108.254c0-5.336-4.325-9.661-9.661-9.661s-9.662,4.325-9.662,9.661h-2.239v6.463h23.802v-6.463
		H86.509z M71.568,108.254c0-2.915,2.364-5.278,5.279-5.278s5.278,2.363,5.278,5.278H71.568z"/>
	<rect x="66.143" y="112.733" fill="#505B66" width="0.672" height="1.975"/>
	<rect x="67.738" y="112.733" fill="#505B66" width="0.672" height="1.975"/>
	<rect x="69.333" y="112.733" fill="#505B66" width="0.672" height="1.975"/>
	<rect x="70.929" y="112.733" fill="#505B66" width="0.672" height="1.975"/>
	<rect x="72.523" y="112.733" fill="#505B66" width="0.672" height="1.975"/>
	<rect x="74.119" y="112.733" fill="#505B66" width="0.671" height="1.975"/>
	<rect x="75.714" y="112.733" fill="#505B66" width="0.672" height="1.975"/>
	<rect x="77.31" y="112.733" fill="#505B66" width="0.671" height="1.975"/>
	<rect x="78.904" y="112.733" fill="#505B66" width="0.672" height="1.975"/>
	<rect x="80.5" y="112.733" fill="#505B66" width="0.671" height="1.975"/>
	<rect x="82.095" y="112.733" fill="#505B66" width="0.672" height="1.975"/>
	<rect x="83.69" y="112.733" fill="#505B66" width="0.671" height="1.975"/>
	<rect x="85.285" y="112.733" fill="#505B66" width="0.672" height="1.975"/>
	<rect x="86.88" y="112.733" fill="#505B66" width="0.672" height="1.975"/>
</g>
<g>
	<path fill="#505B66" d="M105.898,66.606l-5.467-12.554v-2.019c0-0.58-0.47-1.05-1.05-1.05s-1.05,0.47-1.05,1.05v1.848
		l-5.467,12.555c-0.094,0.285,0.061,0.591,0.346,0.685c0.284,0.094,0.591-0.061,0.685-0.345l4.931-10.928v11.72
		c0,0.299,0.243,0.542,0.542,0.542c0.3,0,0.543-0.243,0.543-0.542V55.937l4.957,11.009c0.095,0.285,0.4,0.439,0.686,0.345
		C105.838,67.197,105.992,66.891,105.898,66.606z"/>
	<g>
		<path fill="#505B66" d="M92.538,50.409c0.141,0.385-0.056,0.81-0.44,0.951l-1.876,0.688c-0.384,0.141-0.81-0.056-0.95-0.44l0,0
			c-0.142-0.384,0.056-0.81,0.439-0.951l1.877-0.688C91.972,49.828,92.397,50.025,92.538,50.409L92.538,50.409z"/>
		
			<rect x="90.335" y="44.932" transform="matrix(0.9388 -0.3444 0.3444 0.9388 -10.3665 37.2412)" fill="#F5ECE1" width="18.625" height="5.738"/>
		
			<rect x="106.658" y="42.033" transform="matrix(0.9388 -0.3445 0.3445 0.9388 -8.8852 39.8034)" fill="#F9D363" width="1.787" height="5.738"/>
		
			<rect x="108.376" y="42.401" transform="matrix(0.939 -0.3439 0.3439 0.939 -8.6857 40.0671)" fill="#505B66" width="0.447" height="4.233"/>
		
			<rect x="90.85" y="47.832" transform="matrix(0.9389 -0.3443 0.3443 0.9389 -11.8468 34.6857)" fill="#F9D363" width="1.787" height="5.738"/>
		
			<rect x="99.424" y="44.933" transform="matrix(0.9387 -0.3446 0.3446 0.9387 -10.3694 37.2709)" fill="#505B66" width="0.446" height="5.738"/>
	</g>
</g>
<g>
	<g>
		<circle fill="#505B66" cx="207.83" cy="53.254" r="9.079"/>
	</g>
	<g>
		<circle fill="#F5ECE1" cx="207.831" cy="53.254" r="8.226"/>
	</g>
	<path fill="#505B66" d="M216.483,53.802v-1.097h-3.551c-0.069-1.229-0.354-2.422-0.825-3.546c0.848-0.564,1.618-1.3,2.269-2.191
		l-0.886-0.647c-0.54,0.74-1.171,1.357-1.861,1.839c-0.816-1.498-1.989-2.84-3.476-3.924l-0.266,0.365h-0.114l-0.267-0.365
		c-1.451,1.06-2.604,2.365-3.416,3.822c-0.629-0.465-1.2-1.045-1.689-1.731l-0.894,0.637c0.599,0.839,1.306,1.542,2.088,2.094
		c-0.498,1.153-0.796,2.382-0.867,3.648h-3.551v1.097h3.55c0.057,1.211,0.314,2.386,0.76,3.491
		c-0.739,0.539-1.409,1.214-1.979,2.014l0.894,0.636c0.455-0.638,0.98-1.184,1.558-1.631c0.819,1.548,2.021,2.923,3.553,4.015
		l0.3-0.42h0.038l0.299,0.42c1.567-1.117,2.788-2.532,3.608-4.125c0.641,0.468,1.228,1.053,1.733,1.747l0.886-0.647
		c-0.622-0.852-1.353-1.563-2.156-2.117c0.419-1.073,0.659-2.211,0.713-3.383H216.483z M211.832,52.706h-3.453v-2.262
		c0.961-0.06,1.895-0.313,2.769-0.734C211.533,50.664,211.768,51.67,211.832,52.706z M210.682,48.716
		c-0.729,0.354-1.506,0.568-2.303,0.627v-3.515C209.333,46.677,210.108,47.653,210.682,48.716z M207.282,45.829v3.496
		c-0.787-0.083-1.549-0.316-2.261-0.685C205.591,47.607,206.351,46.657,207.282,45.829z M204.546,49.63
		c0.858,0.44,1.781,0.712,2.736,0.797v2.279h-3.453C203.896,51.642,204.142,50.607,204.546,49.63z M203.825,53.802h3.457v2.042
		c-0.997,0.088-1.96,0.38-2.85,0.855C204.083,55.776,203.877,54.803,203.825,53.802z M204.882,57.703
		c0.75-0.412,1.562-0.668,2.4-0.757v3.8C206.272,59.865,205.464,58.833,204.882,57.703z M208.379,60.746v-3.819
		c0.847,0.063,1.671,0.302,2.439,0.697C210.233,58.786,209.411,59.844,208.379,60.746z M211.258,56.616
		c-0.905-0.455-1.878-0.727-2.879-0.79v-2.024h3.457C211.785,54.773,211.589,55.718,211.258,56.616z"/>
	<path fill="#F9D363" d="M219.408,53.254c0-6.384-5.194-11.578-11.578-11.578c-0.303,0-0.548,0.246-0.548,0.549
		c0,0.303,0.245,0.548,0.548,0.548c5.779,0,10.481,4.702,10.481,10.481s-4.702,10.481-10.481,10.481
		c-0.303,0-0.548,0.245-0.548,0.548c0,0.303,0.245,0.548,0.548,0.548c0.396,0,0.785-0.02,1.17-0.059v2.054h-2.229
		c-0.833,0-1.509,0.675-1.509,1.508H209h1.115h3.738c0-0.833-0.675-1.508-1.508-1.508h-2.23v-2.223
		C215.408,63.54,219.408,58.856,219.408,53.254z"/>
</g>
<path fill="#EA7053" d="M155.458,110.564c0,0.505-0.408,0.913-0.913,0.913h-2.09c-0.505,0-0.913-0.408-0.913-0.913l0,0
	c0-0.504,0.408-0.912,0.913-0.912h2.09C155.05,109.652,155.458,110.06,155.458,110.564L155.458,110.564z"/>
<rect x="139.411" y="93.874" fill="#EA7053" width="28.178" height="16.987"/>
<g>
	<g>
		<g>
			<path fill="#F7EFE7" d="M153.5,110.032c-4.461-0.924-9.064-0.924-13.525,0c0-5.734,0-11.468,0-17.202
				c4.461-0.924,9.064-0.924,13.525,0C153.5,98.564,153.5,104.298,153.5,110.032z"/>
			<path fill="#00B5AE" d="M144.953,99.229c-1.103,0.059-2.203,0.173-3.297,0.341c0-1.647,0-3.293,0-4.94
				c1.094-0.168,2.194-0.282,3.297-0.341C144.953,95.935,144.953,97.582,144.953,99.229z"/>
			<path fill="#505B66" d="M151.378,95.161c-1.871-0.263-3.76-0.366-5.644-0.31c0-0.198,0-0.397,0-0.595
				c1.884-0.057,3.772,0.046,5.644,0.309C151.378,94.764,151.378,94.962,151.378,95.161z"/>
			<path fill="#505B66" d="M151.378,96.349c-1.871-0.263-3.76-0.366-5.644-0.309c0-0.198,0-0.396,0-0.595
				c1.884-0.057,3.772,0.046,5.644,0.309C151.378,95.953,151.378,96.151,151.378,96.349z"/>
			<path fill="#505B66" d="M151.378,97.539c-1.871-0.263-3.76-0.366-5.644-0.309c0-0.198,0-0.396,0-0.595
				c1.884-0.057,3.772,0.046,5.644,0.309C151.378,97.142,151.378,97.34,151.378,97.539z"/>
			<path fill="#505B66" d="M151.378,98.728c-1.871-0.263-3.76-0.366-5.644-0.31c0-0.198,0-0.396,0-0.594
				c1.884-0.057,3.772,0.046,5.644,0.309C151.378,98.332,151.378,98.53,151.378,98.728z"/>
			<path fill="#505B66" d="M151.378,99.917c-1.871-0.263-3.76-0.366-5.644-0.31c0-0.198,0-0.396,0-0.595
				c1.884-0.057,3.772,0.046,5.644,0.31C151.378,99.521,151.378,99.719,151.378,99.917z"/>
			<path fill="#505B66" d="M151.378,101.106c-3.21-0.451-6.47-0.432-9.676,0.058c0-0.198,0-0.396,0-0.594
				c3.206-0.49,6.466-0.509,9.676-0.058C151.378,100.71,151.378,100.908,151.378,101.106z"/>
			<path fill="#505B66" d="M151.378,102.296c-3.21-0.451-6.47-0.432-9.676,0.058c0-0.198,0-0.396,0-0.595
				c3.206-0.49,6.466-0.509,9.676-0.058C151.378,101.9,151.378,102.098,151.378,102.296z"/>
			<path fill="#505B66" d="M151.378,103.485c-3.21-0.451-6.47-0.432-9.676,0.058c0-0.198,0-0.396,0-0.595
				c3.206-0.49,6.466-0.509,9.676-0.058C151.378,103.088,151.378,103.287,151.378,103.485z"/>
			<path fill="#505B66" d="M151.378,104.674c-3.21-0.451-6.47-0.432-9.676,0.058c0-0.198,0-0.396,0-0.594
				c3.206-0.49,6.466-0.509,9.676-0.058C151.378,104.278,151.378,104.476,151.378,104.674z"/>
			<path fill="#505B66" d="M151.378,105.864c-3.21-0.451-6.47-0.432-9.676,0.058c0-0.198,0-0.396,0-0.595
				c3.206-0.49,6.466-0.509,9.676-0.058C151.378,105.467,151.378,105.666,151.378,105.864z"/>
			<path fill="#505B66" d="M151.378,107.053c-3.21-0.451-6.47-0.432-9.676,0.058c0-0.198,0-0.396,0-0.595
				c3.206-0.49,6.466-0.509,9.676-0.058C151.378,106.657,151.378,106.855,151.378,107.053z"/>
		</g>
	</g>
	<g>
		<g>
			<path fill="#F7EFE7" d="M167.025,110.032c-4.461-0.924-9.064-0.924-13.525,0c0-5.734,0-11.468,0-17.202
				c4.461-0.924,9.064-0.924,13.525,0C167.025,98.564,167.025,104.298,167.025,110.032z"/>
			<path fill="#505B66" d="M164.902,95.16c-3.21-0.451-6.47-0.432-9.676,0.058c0-0.198,0-0.396,0-0.595
				c3.206-0.49,6.466-0.509,9.676-0.058C164.902,94.764,164.902,94.962,164.902,95.16z"/>
			<path fill="#505B66" d="M164.902,96.349c-3.21-0.451-6.47-0.432-9.676,0.058c0-0.198,0-0.396,0-0.595
				c3.206-0.49,6.466-0.509,9.676-0.058C164.902,95.953,164.902,96.151,164.902,96.349z"/>
			<path fill="#505B66" d="M164.902,97.539c-3.21-0.451-6.47-0.432-9.676,0.058c0-0.198,0-0.396,0-0.595
				c3.206-0.49,6.466-0.509,9.676-0.058C164.902,97.142,164.902,97.34,164.902,97.539z"/>
			<path fill="#505B66" d="M164.902,98.728c-3.21-0.451-6.47-0.432-9.676,0.058c0-0.198,0-0.396,0-0.594
				c3.206-0.49,6.466-0.509,9.676-0.058C164.902,98.332,164.902,98.53,164.902,98.728z"/>
			<path fill="#505B66" d="M164.902,99.917c-3.21-0.451-6.47-0.432-9.676,0.058c0-0.198,0-0.396,0-0.595
				c3.206-0.49,6.466-0.509,9.676-0.058C164.902,99.521,164.902,99.719,164.902,99.917z"/>
			<path fill="#505B66" d="M164.902,101.106c-3.21-0.451-6.47-0.432-9.676,0.058c0-0.198,0-0.396,0-0.594
				c3.206-0.49,6.466-0.509,9.676-0.058C164.902,100.71,164.902,100.908,164.902,101.106z"/>
			<path fill="#505B66" d="M164.902,102.296c-3.21-0.451-6.47-0.432-9.676,0.058c0-0.198,0-0.396,0-0.595
				c3.206-0.49,6.466-0.509,9.676-0.058C164.902,101.899,164.902,102.098,164.902,102.296z"/>
			<path fill="#505B66" d="M164.902,103.485c-3.21-0.451-6.47-0.432-9.676,0.058c0-0.198,0-0.396,0-0.595
				c3.206-0.49,6.466-0.509,9.676-0.058C164.902,103.088,164.902,103.287,164.902,103.485z"/>
			<path fill="#505B66" d="M164.902,104.674c-3.21-0.451-6.47-0.432-9.676,0.058c0-0.198,0-0.396,0-0.594
				c3.206-0.49,6.466-0.509,9.676-0.058C164.902,104.278,164.902,104.476,164.902,104.674z"/>
			<path fill="#505B66" d="M164.902,105.863c-3.21-0.451-6.47-0.432-9.676,0.058c0-0.198,0-0.396,0-0.595
				c3.206-0.49,6.466-0.509,9.676-0.058C164.902,105.467,164.902,105.665,164.902,105.863z"/>
			<path fill="#505B66" d="M164.902,107.053c-3.21-0.451-6.47-0.432-9.676,0.058c0-0.198,0-0.396,0-0.595
				c3.206-0.49,6.466-0.509,9.676-0.058C164.902,106.656,164.902,106.854,164.902,107.053z"/>
		</g>
	</g>
</g>
<rect x="-6.5" y="188.861" fill="#333333" width="320" height="60"/>
<text transform="matrix(1 0 0 1 94.7148 227.4238)" fill="#ECF0F1" font-family="'CenturyGothic'" font-size="31">Tech-Fair</text>
<g opacity="0.12">
</g>
</svg>
