<?xml version="1.0" encoding="utf-8"?>
<!-- Generator: Adobe Illustrator 16.0.0, SVG Export Plug-In . SVG Version: 6.00 Build 0)  -->
<!DOCTYPE svg PUBLIC "-//W3C//DTD SVG 1.1//EN" "http://www.w3.org/Graphics/SVG/1.1/DTD/svg11.dtd">
<svg version="1.1" id="Layer_1" xmlns="http://www.w3.org/2000/svg" xmlns:xlink="http://www.w3.org/1999/xlink" x="0px" y="0px"
	 width="200px" height="60px" viewBox="0 0 200 60" enable-background="new 0 0 200 60" xml:space="preserve">
<g>
	<path fill="#919191" d="M21.596,13.394v-1.067h4.105v1.067H21.596z M21.596,17.663v-4.269h1.026v4.269H21.596z M25.701,17.663
		v-4.269h1.026v4.269H25.701z"/>
	<path fill="#919191" d="M28.771,16.594v-4.269h1.026v4.269H28.771z M28.771,17.663v-1.067h5.131v1.067H28.771z M29.798,13.394
		v-1.067h3.079v1.067H29.798z M29.798,15.527V14.46h3.079v1.067H29.798z M32.876,15.527v-3.202h1.026v3.202H32.876z"/>
	<path fill="#919191" d="M35.947,16.594v-6.42h1.026v6.42H35.947z M36.972,13.394v-1.067h1.027v1.067H36.972z M36.972,17.663v-1.067
		h1.027v1.067H36.972z"/>
	<path fill="#919191" d="M40.052,13.394v-1.067h5.131v1.067H40.052z M40.052,17.663V14.46h1.026v3.202L40.052,17.663L40.052,17.663z
		 M41.078,15.527V14.46h3.079v1.067H41.078z M41.078,17.663v-1.067h3.079v1.067H41.078z M44.157,17.663v-4.269h1.026v4.269H44.157z"
		/>
	<path fill="#919191" d="M47.227,19.796v-1.067h1.026v1.067H47.227z M48.253,11.258v-1.067h1.026v1.067H48.253z M48.253,18.73v-6.42
		h1.026v6.421L48.253,18.73L48.253,18.73z"/>
	<path fill="#919191" d="M51.323,11.258v-1.067h1.026v1.067H51.323z M51.323,17.663v-5.336h1.026v5.336H51.323z"/>
	<path fill="#919191" d="M58.491,15.527v-3.202h1.026v3.202H58.491z M58.491,17.663v-1.067h4.104v1.067H58.491z M59.516,13.394
		v-1.067h4.104v1.067H59.516z M59.516,15.527V14.46h3.079v1.067H59.516z M62.595,17.663V14.46h1.026v3.202L62.595,17.663
		L62.595,17.663z"/>
	<path fill="#919191" d="M65.665,16.594v-4.269h1.026v4.269H65.665z M66.691,17.663v-1.067h4.105v1.067H66.691z M69.77,16.594
		v-4.269h1.026v4.269H69.77z"/>
	<path fill="#919191" d="M72.841,12.325V10.19h1.026v2.135H72.841z M72.841,13.394v-1.067h5.131v1.067H72.841z M72.841,17.663
		v-4.269h1.026v4.269H72.841z M73.867,17.663v-1.067h3.079v1.067H73.867z M76.946,17.663v-4.269h1.026v4.269H76.946z"/>
	<path fill="#919191" d="M80.016,12.325V10.19h1.026v2.135H80.016z M80.016,13.394v-1.067h5.131v1.067H80.016z M80.016,17.663
		v-4.269h1.026v4.269H80.016z M84.121,17.663v-4.269h1.026v4.269H84.121z"/>
	<path fill="#919191" d="M87.191,13.394v-1.067h5.131v1.067H87.191z M87.191,17.663V14.46h1.026v3.202L87.191,17.663L87.191,17.663z
		 M88.218,15.527V14.46h3.079v1.067H88.218z M88.218,17.663v-1.067h3.079v1.067H88.218z M91.297,17.663v-4.269h1.026v4.269H91.297z"
		/>
	<path fill="#919191" d="M94.367,15.527v-3.202h1.025v3.202H94.367z M94.367,17.663v-1.067h4.104v1.067H94.367z M95.392,13.394
		v-1.067h4.107v1.067H95.392z M95.392,15.527V14.46h3.079v1.067H95.392z M98.472,17.663V14.46H99.5v3.202L98.472,17.663
		L98.472,17.663z"/>
	<path fill="#919191" d="M101.534,12.325V10.19h1.017v2.135H101.534z M101.534,13.394v-1.067h5.118v1.067H101.534z M101.534,17.663
		v-4.269h1.017v4.269H101.534z M105.628,17.663v-4.269h1.024v4.269H105.628z"/>
	<path fill="#919191" d="M112.805,16.594v-4.269h1.022v4.269H112.805z M112.805,17.663v-1.067h5.131v1.067H112.805z M113.827,13.394
		v-1.067h3.08v1.067H113.827z M113.827,15.527V14.46h3.08v1.067H113.827z M116.907,15.527v-3.202h1.026v3.202H116.907z"/>
	<path fill="#919191" d="M119.979,13.394v-1.067h4.104v1.067H119.979z M119.979,17.663v-4.269h1.023v4.269H119.979z M124.083,17.663
		v-4.269h1.024v4.269H124.083z"/>
	<path fill="#919191" d="M127.152,13.394v-1.067h5.132v1.067H127.152z M127.152,17.663v-4.269h1.027v4.269H127.152z M127.161,19.796
		v-1.067h4.104v1.067H127.161z M128.182,17.663v-1.067h3.077v1.067H128.182z M131.259,17.663v-4.269h1.025v4.269H131.259z
		 M131.259,19.796v-2.135h1.025v2.135H131.259z"/>
	<path fill="#919191" d="M134.357,11.258v-1.067h1.026v1.067H134.357z M134.357,17.663v-5.336h1.026v5.336H134.357z"/>
	<path fill="#919191" d="M137.421,13.394v-1.067h4.104v1.067H137.421z M137.421,17.663v-4.269h1.027v4.269H137.421z M141.525,17.663
		v-4.269h1.024v4.269H141.525z"/>
	<path fill="#919191" d="M144.598,16.594v-4.269h1.024v4.269H144.598z M144.598,17.663v-1.067h5.131v1.067H144.598z M145.622,13.394
		v-1.067h3.08v1.067H145.622z M145.622,15.527V14.46h3.08v1.067H145.622z M148.702,15.527v-3.202h1.024v3.202H148.702z"/>
	<path fill="#919191" d="M151.771,16.594v-4.269h1.025v4.269H151.771z M151.771,17.663v-1.067h5.133v1.067H151.771z M152.798,13.394
		v-1.067h3.08v1.067H152.798z M152.798,15.527V14.46h3.08v1.067H152.798z M155.878,15.527v-3.202h1.024v3.202H155.878z"/>
	<path fill="#919191" d="M158.948,17.663v-5.336h1.024v5.336H158.948z M159.975,13.394v-1.067h1.024v1.067H159.975z"/>
	<path fill="#919191" d="M163.044,11.258v-1.067h1.026v1.067H163.044z M163.044,17.663v-5.336h1.026v5.336H163.044z"/>
	<path fill="#919191" d="M166.104,13.394v-1.067h4.105v1.067H166.104z M166.104,17.663v-4.269h1.027v4.269H166.104z M170.212,17.663
		v-4.269h1.024v4.269H170.212z"/>
	<path fill="#919191" d="M173.282,13.394v-1.067h5.131v1.067H173.282z M173.282,17.663v-4.269h1.022v4.269H173.282z M173.29,19.796
		v-1.067h4.104v1.067H173.29z M174.309,17.663v-1.067h3.078v1.067H174.309z M177.387,17.663v-4.269h1.026v4.269H177.387z
		 M177.387,19.796v-2.135h1.026v2.135H177.387z"/>
	<path fill="#919191" d="M84.626,23.246v-1.067h5.131v1.067H84.626z M84.626,26.446v-3.202h1.026v3.202H84.626z M84.626,27.515
		v-1.067h5.131v1.067H84.626z M88.731,24.313v-1.067h1.026v1.067H88.731z M88.731,26.446v-1.067h1.026v1.067H88.731z"/>
	<path fill="#919191" d="M91.802,23.246v-1.067h5.129v1.067H91.802z M91.802,27.515v-4.269h1.026v4.269H91.802z M92.828,27.515
		v-1.067h3.078v1.067H92.828z M95.906,27.515v-4.269h1.025v4.269H95.906z"/>
	<path fill="#919191" d="M98.976,27.522v-7.488h1.026v7.488H98.976z M100.003,27.515v-1.067h1.022v1.067H100.003z"/>
	<path fill="#919191" d="M103.057,27.522v-7.488h1.022v7.488H103.057z M104.079,27.515v-1.067h1.026v1.067H104.079z"/>
	<path fill="#919191" d="M107.15,26.446v-4.269h1.024v4.269H107.15z M107.15,27.515v-1.067h5.132v1.067H107.15z M108.177,23.246
		v-1.067h3.078v1.067H108.177z M108.177,25.379v-1.067h3.078v1.067H108.177z M111.255,25.379v-3.202h1.024v3.202H111.255z"/>
	<path fill="#919191" d="M114.325,23.246v-1.067h5.131v1.067H114.325z M114.325,27.515v-4.269h1.026v4.269H114.325z M114.333,29.648
		v-1.067h4.104v1.067H114.333z M115.354,27.515v-1.067h3.078v1.067H115.354z M118.432,27.515v-4.269h1.024v4.269H118.432z
		 M118.432,29.648v-2.134h1.024v2.134H118.432z"/>
	<path fill="#919191" d="M121.499,26.446v-4.269h1.026v4.269H121.499z M121.499,27.515v-1.067h5.133v1.067H121.499z M122.525,23.246
		v-1.067h3.08v1.067H122.525z M122.525,25.379v-1.067h3.08v1.067H122.525z M125.605,25.379v-3.202h1.024v3.202H125.605z"/>
</g>
<g>
	<path fill="#999999" d="M59.074,43.339v-1.12h5.39v1.121L59.074,43.339L59.074,43.339z M59.074,47.824v-4.485h1.078v4.484
		L59.074,47.824L59.074,47.824z M59.074,50.066v-2.242h1.078v2.242H59.074z M60.151,47.824v-1.121h3.234v1.121H60.151z
		 M63.386,47.824v-4.485h1.078v4.484L63.386,47.824L63.386,47.824z"/>
	<path fill="#999999" d="M70.921,47.824v-5.605H72v5.605H70.921z M72,43.339v-1.12h1.078v1.121L72,43.339L72,43.339z"/>
	<path fill="#999999" d="M79.538,46.704v-4.483h1.078v4.483H79.538z M79.538,47.824v-1.121h5.389v1.121H79.538z M80.616,43.339
		v-1.12h3.233v1.121L80.616,43.339L80.616,43.339z M80.616,45.583v-1.121h3.233v1.121H80.616z M83.849,45.583v-3.362h1.078v3.362
		H83.849z"/>
	<path fill="#999999" d="M91.386,45.583v-3.362h1.078v3.362H91.386z M91.386,47.824v-1.121h4.311v1.121H91.386z M92.463,43.339
		v-1.12h4.312v1.121L92.463,43.339L92.463,43.339z M92.463,45.583v-1.121h3.233v1.121H92.463z M95.696,47.824v-3.363h1.077v3.363
		H95.696z"/>
	<path fill="#999999" d="M103.225,46.704v-4.483h1.077v4.483H103.225z M103.225,47.824v-1.121h5.392v1.121H103.225z M104.302,43.339
		v-1.12h3.234v1.121L104.302,43.339L104.302,43.339z M104.302,45.583v-1.121h3.234v1.121H104.302z M107.538,45.583v-3.362h1.075
		v3.362H107.538z"/>
	<path fill="#999999" d="M115.073,43.339v-1.12h4.313v1.121L115.073,43.339L115.073,43.339z M115.073,47.824v-4.485h1.077v4.484
		L115.073,47.824L115.073,47.824z M119.387,47.824v-4.485h1.075v4.484L119.387,47.824L119.387,47.824z"/>
	<path fill="#999999" d="M126.921,46.704V39.96h1.078v6.744H126.921z M127.999,43.339v-1.12h1.08v1.121L127.999,43.339
		L127.999,43.339z M127.999,47.824v-1.121h1.08v1.121H127.999z"/>
	<path fill="#999999" d="M135.546,45.583v-3.362h1.078v3.362H135.546z M135.546,47.824v-1.121h4.313v1.121H135.546z M136.624,43.339
		v-1.12h4.312v1.121L136.624,43.339L136.624,43.339z M136.624,45.583v-1.121h3.231v1.121H136.624z M139.855,47.824v-3.363h1.078
		v3.363H139.855z"/>
</g>
</svg>
