<?xml version="1.0" encoding="utf-8"?>
<!-- Generator: Adobe Illustrator 16.0.0, SVG Export Plug-In . SVG Version: 6.00 Build 0)  -->
<!DOCTYPE svg PUBLIC "-//W3C//DTD SVG 1.1//EN" "http://www.w3.org/Graphics/SVG/1.1/DTD/svg11.dtd">
<svg version="1.1" id="Layer_1" xmlns="http://www.w3.org/2000/svg" xmlns:xlink="http://www.w3.org/1999/xlink" x="0px" y="0px"
	 width="200px" height="110px" viewBox="0 0 200 110" enable-background="new 0 0 200 110" xml:space="preserve">
<g>
	<path fill="none" stroke="#CCCCCC" stroke-miterlimit="10" d="M18.578,42.235H2.234v-5.273h5.799V26.419h5.273V15.874h5.271V5.329
		h21.089v31.633h5.273v5.274l0,0H34.395V26.419H23.85v5.272h-5.272V42.235 M34.395,21.146V10.602h-5.272v5.272H23.85v5.272
		 M23.85,21.146h10.545"/>
</g>
<g>
	<path fill="none" stroke="#CCCCCC" stroke-miterlimit="10" d="M81.791,21.146L81.791,21.146h-5.272v5.272h-5.272v10.544h-5.272
		v5.273H49.631v-5.273h-4.745"/>
	<path fill="none" stroke="#CCCCCC" stroke-miterlimit="10" d="M76.518,15.874h5.272l0.001,5.272"/>
	<path fill="none" stroke="#CCCCCC" stroke-miterlimit="10" d="M71.246,21.146h5.272v-5.272"/>
	<path fill="none" stroke="#CCCCCC" stroke-miterlimit="10" d="M65.974,26.419h-5.272V15.874h10.544v5.272"/>
	<path fill="none" stroke="#CCCCCC" stroke-miterlimit="10" d="M55.43,36.962h10.544V26.419"/>
	<path fill="none" stroke="#CCCCCC" stroke-miterlimit="10" d="M44.886,36.962V15.874H55.43v21.088"/>
</g>
<g>
	<path fill="none" stroke="#CCCCCC" stroke-miterlimit="10" d="M108.145,31.691h5.273l0.001,5.272l0,0h-5.271v5.273H86.536v-5.273
		 M92.334,31.691v5.271h15.811v-5.271 M86.536,36.963h-4.745V21.146h4.745v-5.272h16.34v15.817H92.334 M97.608,26.419v-5.272h-5.274
		v5.272H97.608"/>
</g>
<g>
	<path fill="none" stroke="#CCCCCC" stroke-miterlimit="10" d="M145.057,31.691h5.272l-0.004,5.272l0,0h-5.273v5.273h-15.813v-21.09
		h-5.271"/>
	<path fill="none" stroke="#CCCCCC" stroke-miterlimit="10" d="M139.785,36.962h5.271v-5.271"/>
	<path fill="none" stroke="#CCCCCC" stroke-miterlimit="10" d="M123.968,21.146v21.089h-10.545V15.874h21.091v5.272h5.271v15.816"/>
</g>
<g>
	<path fill="none" stroke="#CCCCCC" stroke-miterlimit="10" d="M150.323,10.602V5.33h10.545v5.272H150.323 M166.145,31.691h5.271
		v5.272h-0.001h-5.272v5.273h-15.814V15.874 M160.873,36.962h5.271v-5.271 M150.328,15.874h10.545v21.088"/>
</g>
<g>
	<path fill="none" stroke="#CCCCCC" stroke-miterlimit="10" d="M197.773,21.146h-5.271v5.272h-10.545v15.817h-10.543V15.874h16.342"
		/>
	<path fill="none" stroke="#CCCCCC" stroke-miterlimit="10" d="M192.502,21.146v-5.272h5.271v5.272"/>
	<path fill="none" stroke="#CCCCCC" stroke-miterlimit="10" d="M187.756,15.874v5.272h4.746"/>
</g>
<g>
	<path fill="none" stroke="#CCCCCC" stroke-miterlimit="10" d="M34.396,79.152v-5.273h5.271v-5.271h16.344v5.271h4.745v5.273
		L50.212,89.695"/>
	<path fill="none" stroke="#CCCCCC" stroke-miterlimit="10" d="M66.028,94.969v5.271h-5.272v5.271H44.412v-5.271h-4.746v5.271
		h-5.271V89.695l15.816-15.816H39.667v5.273h-5.271"/>
	<path fill="none" stroke="#CCCCCC" stroke-miterlimit="10" d="M50.212,89.695v10.545h10.544v-5.271h5.272"/>
</g>
<g>
	<path fill="none" stroke="#CCCCCC" stroke-miterlimit="10" d="M92.918,73.879h4.746l-0.002,26.361l0,0h-4.746v5.271H76.573v-5.271
		h-5.272V73.879h5.272v-5.271h16.345V73.879 M87.118,100.24V73.879H76.573v26.361H87.118L87.118,100.24"/>
</g>
<g>
	<path fill="none" stroke="#CCCCCC" stroke-miterlimit="10" d="M124.016,100.238h5.273l0.001,5.273l0,0h-21.092v-5.271h5.272V79.152
		h-5.272v5.271h-5.271V73.878h5.271v-5.271h10.547v5.271h5.271V100.238"/>
</g>
<g>
	<path fill="none" stroke="#CCCCCC" stroke-miterlimit="10" d="M134.563,94.969h5.271v5.271h10.545V89.17h-15.815V68.607h26.36
		v5.271h-15.815v5.272"/>
	<path fill="none" stroke="#CCCCCC" stroke-miterlimit="10" d="M145.107,79.15h7.908l7.907,7.906v13.184l0,0h-4.746v5.271h-16.344
		v-5.271h-5.271v-5.271"/>
</g>
</svg>
