<?xml version="1.0" encoding="utf-8"?>
<!-- Generator: Adobe Illustrator 16.0.0, SVG Export Plug-In . SVG Version: 6.00 Build 0)  -->
<!DOCTYPE svg PUBLIC "-//W3C//DTD SVG 1.1//EN" "http://www.w3.org/Graphics/SVG/1.1/DTD/svg11.dtd">
<svg version="1.1" id="Layer_1" xmlns="http://www.w3.org/2000/svg" xmlns:xlink="http://www.w3.org/1999/xlink" x="0px" y="0px"
	 width="200px" height="50px" viewBox="0 0 200 50" enable-background="new 0 0 200 50" xml:space="preserve">
<g enable-background="new    ">
	<path fill="#999999" d="M39.818,19.604v-1.795h0.863v1.795H39.818z M39.818,20.5v-0.896h4.314V20.5H39.818z M39.818,24.09V20.5
		h0.863v3.59H39.818z M40.681,24.09v-0.896h2.589v0.896H40.681z M43.27,24.09V20.5h0.863v3.59H43.27z"/>
	<path fill="#999999" d="M45.852,21.396v-1.795h0.863v1.795H45.852z M46.715,23.191v-1.795h0.863v1.795H46.715z M46.715,25.885
		v-0.896h0.863v0.896H46.715z M47.578,24.986v-1.795h0.863v1.795H47.578z M48.441,23.191v-1.795h0.863v1.795H48.441z M49.304,21.396
		v-1.795h0.863v1.795H49.304z"/>
	<path fill="#999999" d="M55.337,20.5H56.2v0.896h-0.863V20.5z M55.337,22.295H56.2v0.896h-0.863V22.295z"/>
	<path fill="#999999" d="M61.371,20.5v-0.896h4.314V20.5H61.371z M61.371,24.09V20.5h0.863v3.59H61.371z M61.371,25.885V24.09h0.863
		v1.795H61.371z M62.234,24.09v-0.896h2.589v0.896H62.234z M64.823,24.09V20.5h0.863v3.59H64.823z"/>
	<path fill="#999999" d="M67.404,19.604v-1.795h0.863v1.795H67.404z M67.404,20.5v-0.896h4.314V20.5H67.404z M67.404,24.09V20.5
		h0.863v3.59H67.404z M70.856,24.09V20.5h0.863v3.59H70.856z"/>
	<path fill="#999999" d="M73.438,20.5v-0.896h4.314V20.5H73.438z M73.438,24.09V20.5h0.863v3.59H73.438z M74.301,24.09v-0.896h2.589
		v0.896H74.301z M76.89,24.09V20.5h0.863v3.59H76.89z"/>
	<path fill="#999999" d="M79.472,23.191v-3.59h0.863v3.59H79.472z M79.472,24.09v-0.896h4.314v0.896H79.472z M80.334,20.5v-0.896
		h2.589V20.5H80.334z M80.334,22.295v-0.896h2.589v0.896H80.334z M82.923,22.295v-2.691h0.863v2.691H82.923z"/>
	<path fill="#999999" d="M85.505,20.5v-0.896h3.452V20.5H85.505z M85.505,24.09V20.5h0.863v3.59H85.505z M88.957,24.09V20.5h0.863
		v3.59H88.957z"/>
	<path fill="#999999" d="M91.539,18.705v-0.896h0.863v0.896H91.539z M91.539,24.09v-4.486h0.863v4.486H91.539z"/>
	<path fill="#999999" d="M94.114,20.5v-0.896h0.863V20.5H94.114z M94.114,24.09v-0.896h0.863v0.896H94.114z M94.977,21.396V20.5
		h0.863v0.896H94.977z M94.977,23.191v-0.896h0.863v0.896H94.977z M95.84,22.295v-0.896h0.863v0.896H95.84z M96.703,21.396V20.5
		h0.863v0.896H96.703z M96.703,23.191v-0.896h0.863v0.896H96.703z M97.565,20.5v-0.896h0.863V20.5H97.565z M97.565,24.09v-0.896
		h0.863v0.896H97.565z"/>
	<path fill="#999999" d="M103.6,23.191h0.862v0.897H103.6V23.191z"/>
	<path fill="#999999" d="M109.641,23.191v-5.397h0.861v5.397H109.641z M110.502,20.5v-0.896h0.863V20.5H110.502z M110.502,24.09
		v-0.896h0.863v0.896H110.502z"/>
	<path fill="#999999" d="M113.092,19.604v-1.795h0.862v1.795H113.092z M113.092,20.5v-0.896h4.314V20.5H113.092z M113.092,24.09
		V20.5h0.862v3.59H113.092z M116.543,24.09V20.5h0.863v3.59H116.543z"/>
	<path fill="#999999" d="M119.125,23.191v-3.59h0.863v3.59H119.125z M119.125,24.09v-0.896h4.314v0.896H119.125z M119.988,20.5
		v-0.896h2.588V20.5H119.988z M119.988,22.295v-0.896h2.588v0.896H119.988z M122.576,22.295v-2.691h0.863v2.691H122.576z"/>
	<path fill="#999999" d="M128.609,20.5v-0.896h4.314V20.5H128.609z M128.609,24.09V20.5h0.863v3.59H128.609z M129.473,24.09v-0.896
		h2.59v0.896H129.473z M132.063,24.09V20.5h0.862v3.59H132.063z"/>
	<path fill="#999999" d="M134.645,24.098v-5.398h0.862v5.398H134.645z M135.507,18.705v-0.896h0.863v0.896H135.507z M135.507,20.5
		v-0.896h0.863V20.5H135.507z"/>
	<path fill="#999999" d="M138.089,24.098v-5.398h0.862v5.398H138.089z M138.951,18.705v-0.896h0.863v0.896H138.951z M138.951,20.5
		v-0.896h0.863V20.5H138.951z"/>
	<path fill="#999999" d="M141.533,18.705v-0.896h0.863v0.896H141.533z M141.533,24.09v-4.486h0.863v4.486H141.533z"/>
	<path fill="#999999" d="M144.107,20.5v-0.896h4.314V20.5H144.107z M144.107,23.191V20.5h0.863v2.691H144.107z M144.107,24.09
		v-0.896h4.314v0.896H144.107z M147.561,21.396V20.5h0.862v0.896H147.561z M147.561,23.191v-0.896h0.862v0.896H147.561z"/>
	<path fill="#999999" d="M150.143,18.705v-0.896h0.862v0.896H150.143z M150.143,24.09v-4.486h0.862v4.486H150.143z"/>
	<path fill="#999999" d="M152.717,20.5v-0.896h4.314V20.5H152.717z M152.717,24.09v-2.691h0.863v2.691H152.717z M153.58,22.295
		v-0.896h2.588v0.896H153.58z M153.58,24.09v-0.896h2.588v0.896H153.58z M156.168,24.09V20.5h0.863v3.59H156.168z"/>
	<path fill="#999999" d="M158.75,24.098v-6.297h0.863v6.297H158.75z M159.613,24.09v-0.896h0.863v0.896H159.613z"/>
</g>
<g enable-background="new    ">
	<path fill="#999999" d="M57.474,31.477v-5.397h0.863v5.397H57.474z M58.336,28.784v-0.897H59.2v0.897H58.336z M58.336,32.374
		v-0.897H59.2v0.897H58.336z"/>
	<path fill="#999999" d="M60.925,31.477v-3.59h0.863v3.59H60.925z M60.925,32.374v-0.897h4.314v0.897H60.925z M61.788,28.784v-0.897
		h2.589v0.897H61.788z M61.788,30.579v-0.897h2.589v0.897H61.788z M64.377,30.579v-2.692h0.863v2.692H64.377z"/>
	<path fill="#999999" d="M66.959,28.784v-0.897h4.314v0.897H66.959z M66.959,31.477v-2.691h0.863v2.691H66.959z M66.959,32.374
		v-0.897h4.314v0.897H66.959z M70.411,29.682v-0.896h0.863v0.896H70.411z M70.411,31.477V30.58h0.863v0.896H70.411z"/>
	<path fill="#999999" d="M72.993,27.887v-1.795h0.863v1.795H72.993z M72.993,28.784v-0.897h4.314v0.897H72.993z M72.993,32.374
		v-3.59h0.863v3.59H72.993z M76.444,32.374v-3.59h0.863v3.59H76.444z"/>
	<path fill="#999999" d="M82.478,28.784v-0.897h4.314v0.897H82.478z M82.478,31.477v-2.691h0.863v2.691H82.478z M82.478,32.374
		v-0.897h4.314v0.897H82.478z M85.93,29.682v-0.896h0.863v0.896H85.93z M85.93,31.477V30.58h0.863v0.896H85.93z"/>
	<path fill="#999999" d="M88.512,32.381v-6.296h0.863v6.296H88.512z M89.375,32.374v-0.897h0.863v0.897H89.375z"/>
	<path fill="#999999" d="M91.957,31.477v-3.59h0.863v3.59H91.957z M92.819,32.374v-0.897h3.452v0.897H92.819z M95.408,31.477v-3.59
		h0.863v3.59H95.408z"/>
	<path fill="#999999" d="M97.99,27.887v-1.795h0.863v1.795H97.99z M97.99,28.784v-0.897h4.314v0.897H97.99z M97.99,32.374v-3.59
		h0.863v3.59H97.99z M98.853,32.374v-0.897h2.588v0.897H98.853z M101.441,32.374v-3.59h0.863v3.59H101.441z"/>
	<path fill="#999999" d="M107.475,28.784v-0.897h4.314v0.897H107.475z M107.475,32.374v-3.59h0.863v3.59H107.475z M108.338,32.374
		v-0.897h2.589v0.897H108.338z M110.927,32.374v-3.59h0.862v3.59H110.927z"/>
	<path fill="#999999" d="M113.509,32.381v-5.398h0.862v5.398H113.509z M114.371,26.989v-0.897h0.863v0.897H114.371z M114.371,28.784
		v-0.897h0.863v0.897H114.371z"/>
	<path fill="#999999" d="M120.404,28.784v-0.897h3.453v0.897H120.404z M120.404,32.374v-3.59h0.863v3.59H120.404z M123.857,32.374
		v-3.59h0.861v3.59H123.857z"/>
	<path fill="#999999" d="M126.439,30.579v-2.692h0.861v2.692H126.439z M126.439,32.374v-0.897h3.451v0.897H126.439z M127.302,28.784
		v-0.897h3.452v0.897H127.302z M127.302,30.579v-0.897h2.589v0.897H127.302z M129.891,32.374v-2.692h0.863v2.692H129.891z"/>
	<path fill="#999999" d="M132.473,31.477v-3.59h0.863v3.59H132.473z M132.473,32.374v-0.897h4.314v0.897H132.473z M133.336,28.784
		v-0.897h2.588v0.897H133.336z M133.336,30.579v-0.897h2.588v0.897H133.336z M135.924,30.579v-2.692h0.863v2.692H135.924z"/>
	<path fill="#999999" d="M138.506,28.784v-0.897h4.314v0.897H138.506z M138.506,31.477v-2.691h0.863v2.691H138.506z M138.506,32.374
		v-0.897h4.314v0.897H138.506z M141.958,29.682v-0.896h0.862v0.896H141.958z M141.958,31.477V30.58h0.862v0.896H141.958z"/>
</g>
</svg>
