<?xml version="1.0" encoding="utf-8"?>
<!-- Generator: Adobe Illustrator 16.0.0, SVG Export Plug-In . SVG Version: 6.00 Build 0)  -->
<!DOCTYPE svg PUBLIC "-//W3C//DTD SVG 1.1//EN" "http://www.w3.org/Graphics/SVG/1.1/DTD/svg11.dtd">
<svg version="1.1" id="Layer_1" xmlns="http://www.w3.org/2000/svg" xmlns:xlink="http://www.w3.org/1999/xlink" x="0px" y="0px"
	 width="200px" height="200px" viewBox="0 0 200 200" enable-background="new 0 0 200 200" xml:space="preserve">
<g>
	<path fill="none" stroke="#CCCCCC" stroke-width="1.0683" stroke-miterlimit="10" d="M44.939,96.236H34.395V80.419H23.85v5.272
		h-5.272v10.544H2.234v-5.273h5.799V80.419h5.273V69.874h5.271V59.329h21.089v31.633h5.273V96.236L44.939,96.236z M34.395,75.146
		V64.602h-5.272v5.272H23.85v5.272H34.395z"/>
	<path fill="none" stroke="#CCCCCC" stroke-width="1.0683" stroke-miterlimit="10" d="M81.791,75.146h-5.272v5.272h-5.272v10.544
		h-5.272v5.273H49.631v-5.273h-4.745V69.874H55.43v21.088h10.544V80.419h-5.272V69.874h10.544v5.272h5.272v-5.272h5.272
		L81.791,75.146L81.791,75.146z"/>
	<path fill="none" stroke="#CCCCCC" stroke-width="1.0683" stroke-miterlimit="10" d="M113.419,90.963h-5.271v5.273H86.536v-5.273
		h-4.745V75.146h4.745v-5.272h16.34v15.817H92.334v5.271h15.811v-5.271h5.273L113.419,90.963L113.419,90.963z M97.608,80.419v-5.272
		h-5.274v5.272H97.608z"/>
	<path fill="none" stroke="#CCCCCC" stroke-width="1.0683" stroke-miterlimit="10" d="M150.325,90.963h-5.273v5.273h-15.813v-21.09
		h-5.271v21.089h-10.545V69.874h21.09v5.272h5.271v15.816h5.271v-5.271h5.273L150.325,90.963L150.325,90.963z"/>
	<path fill="none" stroke="#CCCCCC" stroke-width="1.0683" stroke-miterlimit="10" d="M160.868,64.602h-10.545V59.33h10.545V64.602z
		 M171.415,90.963h-5.272v5.273h-15.816V69.874h10.545v21.088h5.271v-5.271h5.272V90.963z"/>
	<path fill="none" stroke="#CCCCCC" stroke-width="1.0683" stroke-miterlimit="10" d="M197.773,75.146h-5.271v5.272h-10.545v15.817
		h-10.543V69.874h16.342v5.272h4.746v-5.272h5.271V75.146z"/>
	<path fill="none" stroke="#CCCCCC" stroke-width="1.0683" stroke-miterlimit="10" d="M66.028,154.24h-5.272v5.271H44.412v-5.271
		h-4.746v5.271h-5.271v-15.816l15.816-15.816H39.667v5.273h-5.271v-5.273h5.271v-5.271h16.344v5.271h4.745v5.273l-10.544,10.543
		v10.545h10.544v-5.271h5.272V154.24z"/>
	<path fill="none" stroke="#CCCCCC" stroke-width="1.0683" stroke-miterlimit="10" d="M97.662,154.24h-4.746v5.271H76.573v-5.271
		h-5.272v-26.361h5.272v-5.271h16.345v5.271h4.746L97.662,154.24L97.662,154.24z M87.118,154.24v-26.361H76.573v26.361H87.118
		L87.118,154.24z"/>
	<path fill="none" stroke="#CCCCCC" stroke-width="1.0683" stroke-miterlimit="10" d="M129.29,159.512h-21.092v-5.271h5.272v-21.089
		h-5.272v5.271h-5.271v-10.545h5.271v-5.271h10.547v5.271h5.271v26.361h5.273L129.29,159.512L129.29,159.512z"/>
	<path fill="none" stroke="#CCCCCC" stroke-width="1.0683" stroke-miterlimit="10" d="M160.923,154.24h-4.746v5.271h-16.344v-5.271
		h-5.271v-5.271h5.271v5.271h10.545v-11.07h-15.815v-20.563h26.36v5.271h-15.815v5.272h7.908l7.907,7.906V154.24L160.923,154.24z"/>
</g>
<g>
	<path fill="#919191" d="M21.596,14.394v-1.067h4.105v1.067H21.596z M21.596,18.663v-4.269h1.026v4.269H21.596z M25.701,18.663
		v-4.269h1.026v4.269H25.701z"/>
	<path fill="#919191" d="M28.771,17.594v-4.269h1.026v4.269H28.771z M28.771,18.663v-1.067h5.131v1.067H28.771z M29.798,14.394
		v-1.067h3.079v1.067H29.798z M29.798,16.527V15.46h3.079v1.067H29.798z M32.876,16.527v-3.202h1.026v3.202H32.876z"/>
	<path fill="#919191" d="M35.947,17.594v-6.42h1.026v6.42H35.947z M36.972,14.394v-1.067h1.027v1.067H36.972z M36.972,18.663v-1.067
		h1.027v1.067H36.972z"/>
	<path fill="#919191" d="M40.052,14.394v-1.067h5.131v1.067H40.052z M40.052,18.663V15.46h1.026v3.202L40.052,18.663L40.052,18.663z
		 M41.078,16.527V15.46h3.079v1.067H41.078z M41.078,18.663v-1.067h3.079v1.067H41.078z M44.157,18.663v-4.269h1.026v4.269H44.157z"
		/>
	<path fill="#919191" d="M47.227,20.796v-1.067h1.026v1.067H47.227z M48.253,12.258v-1.067h1.026v1.067H48.253z M48.253,19.73v-6.42
		h1.026v6.421L48.253,19.73L48.253,19.73z"/>
	<path fill="#919191" d="M51.323,12.258v-1.067h1.026v1.067H51.323z M51.323,18.663v-5.336h1.026v5.336H51.323z"/>
	<path fill="#919191" d="M58.491,16.527v-3.202h1.026v3.202H58.491z M58.491,18.663v-1.067h4.104v1.067H58.491z M59.516,14.394
		v-1.067h4.104v1.067H59.516z M59.516,16.527V15.46h3.079v1.067H59.516z M62.595,18.663V15.46h1.026v3.202L62.595,18.663
		L62.595,18.663z"/>
	<path fill="#919191" d="M65.665,17.594v-4.269h1.026v4.269H65.665z M66.691,18.663v-1.067h4.105v1.067H66.691z M69.77,17.594
		v-4.269h1.026v4.269H69.77z"/>
	<path fill="#919191" d="M72.841,13.325V11.19h1.026v2.135H72.841z M72.841,14.394v-1.067h5.131v1.067H72.841z M72.841,18.663
		v-4.269h1.026v4.269H72.841z M73.867,18.663v-1.067h3.079v1.067H73.867z M76.946,18.663v-4.269h1.026v4.269H76.946z"/>
	<path fill="#919191" d="M80.016,13.325V11.19h1.026v2.135H80.016z M80.016,14.394v-1.067h5.131v1.067H80.016z M80.016,18.663
		v-4.269h1.026v4.269H80.016z M84.121,18.663v-4.269h1.026v4.269H84.121z"/>
	<path fill="#919191" d="M87.191,14.394v-1.067h5.131v1.067H87.191z M87.191,18.663V15.46h1.026v3.202L87.191,18.663L87.191,18.663z
		 M88.218,16.527V15.46h3.079v1.067H88.218z M88.218,18.663v-1.067h3.079v1.067H88.218z M91.297,18.663v-4.269h1.026v4.269H91.297z"
		/>
	<path fill="#919191" d="M94.367,16.527v-3.202h1.025v3.202H94.367z M94.367,18.663v-1.067h4.104v1.067H94.367z M95.392,14.394
		v-1.067h4.107v1.067H95.392z M95.392,16.527V15.46h3.079v1.067H95.392z M98.472,18.663V15.46H99.5v3.202L98.472,18.663
		L98.472,18.663z"/>
	<path fill="#919191" d="M101.534,13.325V11.19h1.017v2.135H101.534z M101.534,14.394v-1.067h5.118v1.067H101.534z M101.534,18.663
		v-4.269h1.017v4.269H101.534z M105.628,18.663v-4.269h1.024v4.269H105.628z"/>
	<path fill="#919191" d="M112.805,17.594v-4.269h1.022v4.269H112.805z M112.805,18.663v-1.067h5.131v1.067H112.805z M113.827,14.394
		v-1.067h3.08v1.067H113.827z M113.827,16.527V15.46h3.08v1.067H113.827z M116.907,16.527v-3.202h1.026v3.202H116.907z"/>
	<path fill="#919191" d="M119.979,14.394v-1.067h4.104v1.067H119.979z M119.979,18.663v-4.269h1.023v4.269H119.979z M124.083,18.663
		v-4.269h1.024v4.269H124.083z"/>
	<path fill="#919191" d="M127.152,14.394v-1.067h5.132v1.067H127.152z M127.152,18.663v-4.269h1.027v4.269H127.152z M127.161,20.796
		v-1.067h4.104v1.067H127.161z M128.182,18.663v-1.067h3.077v1.067H128.182z M131.259,18.663v-4.269h1.025v4.269H131.259z
		 M131.259,20.796v-2.135h1.025v2.135H131.259z"/>
	<path fill="#919191" d="M134.357,12.258v-1.067h1.027v1.067H134.357z M134.357,18.663v-5.336h1.027v5.336H134.357z"/>
	<path fill="#919191" d="M137.421,14.394v-1.067h4.104v1.067H137.421z M137.421,18.663v-4.269h1.027v4.269H137.421z M141.525,18.663
		v-4.269h1.025v4.269H141.525z"/>
	<path fill="#919191" d="M144.598,17.594v-4.269h1.024v4.269H144.598z M144.598,18.663v-1.067h5.131v1.067H144.598z M145.622,14.394
		v-1.067h3.08v1.067H145.622z M145.622,16.527V15.46h3.08v1.067H145.622z M148.702,16.527v-3.202h1.024v3.202H148.702z"/>
	<path fill="#919191" d="M151.771,17.594v-4.269h1.026v4.269H151.771z M151.771,18.663v-1.067h5.133v1.067H151.771z M152.798,14.394
		v-1.067h3.08v1.067H152.798z M152.798,16.527V15.46h3.08v1.067H152.798z M155.878,16.527v-3.202h1.024v3.202H155.878z"/>
	<path fill="#919191" d="M158.948,18.663v-5.336h1.024v5.336H158.948z M159.975,14.394v-1.067h1.024v1.067H159.975z"/>
	<path fill="#919191" d="M163.044,12.258v-1.067h1.026v1.067H163.044z M163.044,18.663v-5.336h1.026v5.336H163.044z"/>
	<path fill="#919191" d="M166.104,14.394v-1.067h4.105v1.067H166.104z M166.104,18.663v-4.269h1.027v4.269H166.104z M170.212,18.663
		v-4.269h1.024v4.269H170.212z"/>
	<path fill="#919191" d="M173.282,14.394v-1.067h5.131v1.067H173.282z M173.282,18.663v-4.269h1.022v4.269H173.282z M173.29,20.796
		v-1.067h4.104v1.067H173.29z M174.309,18.663v-1.067h3.078v1.067H174.309z M177.387,18.663v-4.269h1.026v4.269H177.387z
		 M177.387,20.796v-2.135h1.026v2.135H177.387z"/>
	<path fill="#919191" d="M84.626,24.246v-1.067h5.131v1.067H84.626z M84.626,27.446v-3.202h1.026v3.202H84.626z M84.626,28.515
		v-1.067h5.131v1.067H84.626z M88.731,25.313v-1.067h1.026v1.067H88.731z M88.731,27.446v-1.067h1.026v1.067H88.731z"/>
	<path fill="#919191" d="M91.802,24.246v-1.067h5.129v1.067H91.802z M91.802,28.515v-4.269h1.026v4.269H91.802z M92.828,28.515
		v-1.067h3.078v1.067H92.828z M95.906,28.515v-4.269h1.025v4.269H95.906z"/>
	<path fill="#919191" d="M98.976,28.522v-7.488h1.026v7.488H98.976z M100.003,28.515v-1.067h1.022v1.067H100.003z"/>
	<path fill="#919191" d="M103.057,28.522v-7.488h1.022v7.488H103.057z M104.079,28.515v-1.067h1.026v1.067H104.079z"/>
	<path fill="#919191" d="M107.15,27.446v-4.269h1.025v4.269H107.15z M107.15,28.515v-1.067h5.132v1.067H107.15z M108.177,24.246
		v-1.067h3.078v1.067H108.177z M108.177,26.379v-1.067h3.078v1.067H108.177z M111.255,26.379v-3.202h1.024v3.202H111.255z"/>
	<path fill="#919191" d="M114.325,24.246v-1.067h5.131v1.067H114.325z M114.325,28.515v-4.269h1.026v4.269H114.325z M114.333,30.648
		v-1.067h4.104v1.067H114.333z M115.354,28.515v-1.067h3.078v1.067H115.354z M118.432,28.515v-4.269h1.024v4.269H118.432z
		 M118.432,30.648v-2.134h1.024v2.134H118.432z"/>
	<path fill="#919191" d="M121.499,27.446v-4.269h1.026v4.269H121.499z M121.499,28.515v-1.067h5.133v1.067H121.499z M122.525,24.246
		v-1.067h3.08v1.067H122.525z M122.525,26.379v-1.067h3.08v1.067H122.525z M125.605,26.379v-3.202h1.025v3.202H125.605z"/>
</g>
<g>
	<path fill="#999999" d="M59.074,44.339v-1.12h5.39v1.121L59.074,44.339L59.074,44.339z M59.074,48.824v-4.485h1.078v4.484
		L59.074,48.824L59.074,48.824z M59.074,51.066v-2.242h1.078v2.242H59.074z M60.151,48.824v-1.121h3.234v1.121H60.151z
		 M63.386,48.824v-4.485h1.078v4.484L63.386,48.824L63.386,48.824z"/>
	<path fill="#999999" d="M70.921,48.824v-5.605H72v5.605H70.921z M72,44.339v-1.12h1.078v1.121L72,44.339L72,44.339z"/>
	<path fill="#999999" d="M79.538,47.704V43.22h1.078v4.484H79.538z M79.538,48.824v-1.121h5.389v1.121H79.538z M80.616,44.339v-1.12
		h3.233v1.121L80.616,44.339L80.616,44.339z M80.616,46.583v-1.121h3.233v1.121H80.616z M83.849,46.583V43.22h1.078v3.363H83.849z"
		/>
	<path fill="#999999" d="M91.386,46.583V43.22h1.078v3.363H91.386z M91.386,48.824v-1.121h4.311v1.121H91.386z M92.463,44.339v-1.12
		h4.312v1.121L92.463,44.339L92.463,44.339z M92.463,46.583v-1.121h3.233v1.121H92.463z M95.696,48.824v-3.363h1.077v3.363H95.696z"
		/>
	<path fill="#999999" d="M103.225,47.704V43.22h1.077v4.484H103.225z M103.225,48.824v-1.121h5.391v1.121H103.225z M104.302,44.339
		v-1.12h3.234v1.121L104.302,44.339L104.302,44.339z M104.302,46.583v-1.121h3.234v1.121H104.302z M107.538,46.583V43.22h1.075
		v3.363H107.538z"/>
	<path fill="#999999" d="M115.073,44.339v-1.12h4.313v1.121L115.073,44.339L115.073,44.339z M115.073,48.824v-4.485h1.077v4.484
		L115.073,48.824L115.073,48.824z M119.387,48.824v-4.485h1.075v4.484L119.387,48.824L119.387,48.824z"/>
	<path fill="#999999" d="M126.921,47.704V40.96h1.078v6.744H126.921z M127.999,44.339v-1.12h1.08v1.121L127.999,44.339
		L127.999,44.339z M127.999,48.824v-1.121h1.08v1.121H127.999z"/>
	<path fill="#999999" d="M135.546,46.583V43.22h1.078v3.363H135.546z M135.546,48.824v-1.121h4.313v1.121H135.546z M136.624,44.339
		v-1.12h4.312v1.121L136.624,44.339L136.624,44.339z M136.624,46.583v-1.121h3.231v1.121H136.624z M139.855,48.824v-3.363h1.078
		v3.363H139.855z"/>
</g>
<g enable-background="new    ">
	<path fill="#999999" d="M38.818,175.603v-1.795h0.863v1.795H38.818z M38.818,176.5v-0.897h4.314v0.897H38.818z M38.818,180.09
		v-3.59h0.863v3.59H38.818z M39.681,180.09v-0.897h2.589v0.897H39.681z M42.27,180.09v-3.59h0.863v3.59H42.27z"/>
	<path fill="#999999" d="M44.852,177.397v-1.795h0.863v1.795H44.852z M45.715,179.192v-1.795h0.863v1.795H45.715z M45.715,181.885
		v-0.897h0.863v0.897H45.715z M46.578,180.987v-1.795h0.863v1.795H46.578z M47.441,179.192v-1.795h0.863v1.795H47.441z
		 M48.304,177.397v-1.795h0.863v1.795H48.304z"/>
	<path fill="#999999" d="M54.337,176.5H55.2v0.897h-0.863V176.5z M54.337,178.295H55.2v0.897h-0.863V178.295z"/>
	<path fill="#999999" d="M60.371,176.5v-0.897h4.314v0.897H60.371z M60.371,180.09v-3.59h0.863v3.59H60.371z M60.371,181.885v-1.795
		h0.863v1.795H60.371z M61.234,180.09v-0.897h2.589v0.897H61.234z M63.823,180.09v-3.59h0.863v3.59H63.823z"/>
	<path fill="#999999" d="M66.404,175.603v-1.795h0.863v1.795H66.404z M66.404,176.5v-0.897h4.314v0.897H66.404z M66.404,180.09
		v-3.59h0.863v3.59H66.404z M69.856,180.09v-3.59h0.863v3.59H69.856z"/>
	<path fill="#999999" d="M72.438,176.5v-0.897h4.314v0.897H72.438z M72.438,180.09v-3.59h0.863v3.59H72.438z M73.301,180.09v-0.897
		h2.589v0.897H73.301z M75.89,180.09v-3.59h0.863v3.59H75.89z"/>
	<path fill="#999999" d="M78.472,179.192v-3.59h0.863v3.59H78.472z M78.472,180.09v-0.897h4.314v0.897H78.472z M79.334,176.5v-0.897
		h2.589v0.897H79.334z M79.334,178.295v-0.897h2.589v0.897H79.334z M81.923,178.295v-2.692h0.863v2.692H81.923z"/>
	<path fill="#999999" d="M84.505,176.5v-0.897h3.452v0.897H84.505z M84.505,180.09v-3.59h0.863v3.59H84.505z M87.957,180.09v-3.59
		h0.863v3.59H87.957z"/>
	<path fill="#999999" d="M90.539,174.705v-0.897h0.863v0.897H90.539z M90.539,180.09v-4.487h0.863v4.487H90.539z"/>
	<path fill="#999999" d="M93.114,176.5v-0.897h0.863v0.897H93.114z M93.114,180.09v-0.897h0.863v0.897H93.114z M93.977,177.397
		V176.5h0.863v0.897H93.977z M93.977,179.192v-0.897h0.863v0.897H93.977z M94.84,178.295v-0.897h0.863v0.897H94.84z M95.703,177.397
		V176.5h0.863v0.897H95.703z M95.703,179.192v-0.897h0.863v0.897H95.703z M96.565,176.5v-0.897h0.863v0.897H96.565z M96.565,180.09
		v-0.897h0.863v0.897H96.565z"/>
	<path fill="#999999" d="M102.6,179.192h0.862v0.897H102.6V179.192z"/>
	<path fill="#999999" d="M108.64,179.192v-5.398h0.862v5.398H108.64z M109.502,176.5v-0.897h0.863v0.897H109.502z M109.502,180.09
		v-0.897h0.863v0.897H109.502z"/>
	<path fill="#999999" d="M112.092,175.603v-1.795h0.862v1.795H112.092z M112.092,176.5v-0.897h4.314v0.897H112.092z M112.092,180.09
		v-3.59h0.862v3.59H112.092z M115.543,180.09v-3.59h0.863v3.59H115.543z"/>
	<path fill="#999999" d="M118.125,179.192v-3.59h0.863v3.59H118.125z M118.125,180.09v-0.897h4.314v0.897H118.125z M118.988,176.5
		v-0.897h2.588v0.897H118.988z M118.988,178.295v-0.897h2.588v0.897H118.988z M121.576,178.295v-2.692h0.863v2.692H121.576z"/>
	<path fill="#999999" d="M127.61,176.5v-0.897h4.314v0.897H127.61z M127.61,180.09v-3.59h0.862v3.59H127.61z M128.473,180.09v-0.897
		h2.59v0.897H128.473z M131.063,180.09v-3.59h0.862v3.59H131.063z"/>
	<path fill="#999999" d="M133.645,180.097v-5.398h0.862v5.398H133.645z M134.507,174.705v-0.897h0.863v0.897H134.507z
		 M134.507,176.5v-0.897h0.863v0.897H134.507z"/>
	<path fill="#999999" d="M137.089,180.097v-5.398h0.862v5.398H137.089z M137.951,174.705v-0.897h0.863v0.897H137.951z
		 M137.951,176.5v-0.897h0.863v0.897H137.951z"/>
	<path fill="#999999" d="M140.533,174.705v-0.897h0.863v0.897H140.533z M140.533,180.09v-4.487h0.863v4.487H140.533z"/>
	<path fill="#999999" d="M143.108,176.5v-0.897h4.314v0.897H143.108z M143.108,179.192V176.5h0.862v2.692H143.108z M143.108,180.09
		v-0.897h4.314v0.897H143.108z M146.561,177.397V176.5h0.862v0.897H146.561z M146.561,179.192v-0.897h0.862v0.897H146.561z"/>
	<path fill="#999999" d="M149.143,174.705v-0.897h0.862v0.897H149.143z M149.143,180.09v-4.487h0.862v4.487H149.143z"/>
	<path fill="#999999" d="M151.717,176.5v-0.897h4.314v0.897H151.717z M151.717,180.09v-2.692h0.863v2.692H151.717z M152.58,178.295
		v-0.897h2.588v0.897H152.58z M152.58,180.09v-0.897h2.588v0.897H152.58z M155.168,180.09v-3.59h0.863v3.59H155.168z"/>
	<path fill="#999999" d="M157.75,180.097v-6.296h0.863v6.296H157.75z M158.613,180.09v-0.897h0.863v0.897H158.613z"/>
</g>
<g enable-background="new    ">
	<path fill="#999999" d="M56.474,187.477v-5.398h0.863v5.398H56.474z M57.336,184.784v-0.897H58.2v0.897H57.336z M57.336,188.374
		v-0.897H58.2v0.897H57.336z"/>
	<path fill="#999999" d="M59.925,187.477v-3.59h0.863v3.59H59.925z M59.925,188.374v-0.897h4.314v0.897H59.925z M60.788,184.784
		v-0.897h2.589v0.897H60.788z M60.788,186.579v-0.897h2.589v0.897H60.788z M63.377,186.579v-2.692h0.863v2.692H63.377z"/>
	<path fill="#999999" d="M65.959,184.784v-0.897h4.314v0.897H65.959z M65.959,187.477v-2.692h0.863v2.692H65.959z M65.959,188.374
		v-0.897h4.314v0.897H65.959z M69.411,185.682v-0.897h0.863v0.897H69.411z M69.411,187.477v-0.897h0.863v0.897H69.411z"/>
	<path fill="#999999" d="M71.993,183.887v-1.795h0.863v1.795H71.993z M71.993,184.784v-0.897h4.314v0.897H71.993z M71.993,188.374
		v-3.59h0.863v3.59H71.993z M75.444,188.374v-3.59h0.863v3.59H75.444z"/>
	<path fill="#999999" d="M81.478,184.784v-0.897h4.314v0.897H81.478z M81.478,187.477v-2.692h0.863v2.692H81.478z M81.478,188.374
		v-0.897h4.314v0.897H81.478z M84.93,185.682v-0.897h0.863v0.897H84.93z M84.93,187.477v-0.897h0.863v0.897H84.93z"/>
	<path fill="#999999" d="M87.512,188.381v-6.296h0.863v6.296H87.512z M88.375,188.374v-0.897h0.863v0.897H88.375z"/>
	<path fill="#999999" d="M90.957,187.477v-3.59h0.863v3.59H90.957z M91.819,188.374v-0.897h3.452v0.897H91.819z M94.408,187.477
		v-3.59h0.863v3.59H94.408z"/>
	<path fill="#999999" d="M96.99,183.887v-1.795h0.863v1.795H96.99z M96.99,184.784v-0.897h4.315v0.897H96.99z M96.99,188.374v-3.59
		h0.863v3.59H96.99z M97.853,188.374v-0.897h2.589v0.897H97.853z M100.441,188.374v-3.59h0.863v3.59H100.441z"/>
	<path fill="#999999" d="M106.475,184.784v-0.897h4.314v0.897H106.475z M106.475,188.374v-3.59h0.863v3.59H106.475z
		 M107.338,188.374v-0.897h2.589v0.897H107.338z M109.927,188.374v-3.59h0.862v3.59H109.927z"/>
	<path fill="#999999" d="M112.509,188.381v-5.398h0.862v5.398H112.509z M113.371,182.989v-0.897h0.863v0.897H113.371z
		 M113.371,184.784v-0.897h0.863v0.897H113.371z"/>
	<path fill="#999999" d="M119.405,184.784v-0.897h3.452v0.897H119.405z M119.405,188.374v-3.59h0.862v3.59H119.405z
		 M122.857,188.374v-3.59h0.862v3.59H122.857z"/>
	<path fill="#999999" d="M125.439,186.579v-2.692h0.862v2.692H125.439z M125.439,188.374v-0.897h3.451v0.897H125.439z
		 M126.302,184.784v-0.897h3.452v0.897H126.302z M126.302,186.579v-0.897h2.589v0.897H126.302z M128.891,188.374v-2.692h0.863v2.692
		H128.891z"/>
	<path fill="#999999" d="M131.473,187.477v-3.59h0.863v3.59H131.473z M131.473,188.374v-0.897h4.314v0.897H131.473z
		 M132.336,184.784v-0.897h2.588v0.897H132.336z M132.336,186.579v-0.897h2.588v0.897H132.336z M134.924,186.579v-2.692h0.863v2.692
		H134.924z"/>
	<path fill="#999999" d="M137.506,184.784v-0.897h4.314v0.897H137.506z M137.506,187.477v-2.692h0.863v2.692H137.506z
		 M137.506,188.374v-0.897h4.314v0.897H137.506z M140.958,185.682v-0.897h0.862v0.897H140.958z M140.958,187.477v-0.897h0.862v0.897
		H140.958z"/>
</g>
</svg>
