<?xml version="1.0" encoding="utf-8"?>
<!-- Generator: Adobe Illustrator 16.0.0, SVG Export Plug-In . SVG Version: 6.00 Build 0)  -->
<!DOCTYPE svg PUBLIC "-//W3C//DTD SVG 1.1//EN" "http://www.w3.org/Graphics/SVG/1.1/DTD/svg11.dtd">
<svg version="1.1" id="Layer_1" xmlns="http://www.w3.org/2000/svg" xmlns:xlink="http://www.w3.org/1999/xlink" x="0px" y="0px"
	 width="300px" height="240px" viewBox="0 0 300 240" enable-background="new 0 0 300 240" xml:space="preserve">
<g>
	<defs>
		<rect id="SVGID_1_" y="-13.007" width="299.999" height="193.007"/>
	</defs>
	<clipPath id="SVGID_2_">
		<use xlink:href="#SVGID_1_"  overflow="visible"/>
	</clipPath>
	<rect x="-15.5" y="-20.007" clip-path="url(#SVGID_2_)" fill="#26A65B" width="330.999" height="206"/>
</g>
<rect x="0.001" y="97.822" fill="#219150" width="299.997" height="83.137"/>
<g>
	<g>
		<path fill-rule="evenodd" clip-rule="evenodd" fill="#333333" d="M94.092,195.464c-1.077,1.969-1.48,9.037-1.248,11.463
			c0.232,2.424,0.028,3.35,2.107,3.434c2.08,0.086,3.08-0.201,3.372-0.984c0.292-0.781,4.392,0.668,6.285,0.705
			c3.845,0.072,13.864,0.869,15.077-3.164c0.537-1.791-2.729-3.467-5.522-3.975c-4.755-0.865-9.05-1.27-10.335-5.451
			c-0.618-2.014-0.104-4.852-1.578-3.742c-1.476,1.107-2.604,3.098-4.707,2.438C95.438,195.526,94.725,194.616,94.092,195.464z"/>
		<path fill-rule="evenodd" clip-rule="evenodd" fill="#DAA767" d="M87.513,44.032c-0.22,13.913,14.12,30.18,26.499,26.9
			c12.734-3.375,17.029-25.753,9.06-37.505C113.623,19.492,87.778,27.215,87.513,44.032z"/>
		<path fill-rule="evenodd" clip-rule="evenodd" fill="#DAA767" d="M93.246,54.978L93.239,70.75
			c-0.002,5.108,9.843,14.877,9.929,10.604l0.534-26.405C103.842,48.035,93.25,48.062,93.246,54.978z"/>
		<path fill-rule="evenodd" clip-rule="evenodd" fill="#FBCC94" d="M89.693,49.472c4.273,12.124,15.912,23.038,25.901,20.391
			c9.987-2.646,14.425-17.814,11.878-30.394c-0.719-2.045-1.626-3.97-2.728-5.706c-10.258-16.165-36.155-8.296-35.634,10.8
			C89.156,46.175,89.357,47.821,89.693,49.472z"/>
		<path fill="#DAA767" d="M123.287,63.434c-1.503-0.523-3.005-1.56-4.272-2.934c-1.231-1.335-2.237-2.985-2.804-4.791
			c-0.076-0.242-0.336-0.378-0.578-0.303c-0.242,0.076-0.378,0.335-0.303,0.577c0.61,1.942,1.688,3.712,3.006,5.141
			c1.305,1.413,2.848,2.499,4.414,3.095C122.934,63.963,123.113,63.702,123.287,63.434z"/>
		<path fill-rule="evenodd" clip-rule="evenodd" fill="#AE7B3B" d="M91.098,58.866c9.125-2.359,13.803-9.962,19.809-21.708
			c1.98,3.001,15.941,7.808,13.711-5.059c-8.769-13.703-35.232-9.643-37.687,10.325C86.351,47.145,87.969,52.776,91.098,58.866z"/>
		<g>
			
				<ellipse transform="matrix(-0.4546 -0.8907 0.8907 -0.4546 95.8404 164.4125)" fill-rule="evenodd" clip-rule="evenodd" fill="#DAA767" cx="98.256" cy="52.864" rx="4.391" ry="2.738"/>
			
				<ellipse transform="matrix(-0.4545 -0.8907 0.8907 -0.4545 96.6671 163.0171)" fill-rule="evenodd" clip-rule="evenodd" fill="#FBCC94" cx="98.248" cy="51.91" rx="4.39" ry="2.738"/>
		</g>
		
			<ellipse transform="matrix(-0.2561 -0.9666 0.9666 -0.2561 106.0089 189.4648)" fill-rule="evenodd" clip-rule="evenodd" fill="#DAA767" cx="125.905" cy="53.943" rx="2.202" ry="2.09"/>
		
			<ellipse transform="matrix(-0.2561 -0.9666 0.9666 -0.2561 108.2873 189.1424)" fill-rule="evenodd" clip-rule="evenodd" fill="#FBCC94" cx="126.92" cy="52.905" rx="3.064" ry="3.094"/>
		<circle fill-rule="evenodd" clip-rule="evenodd" fill="#4D4D4D" cx="120.688" cy="47.529" r="1.817"/>
		<g>
			<path fill-rule="evenodd" clip-rule="evenodd" fill="#DAA767" d="M146.531,119.604l-5.086-2.718l-0.006,0.01l-0.576-0.319
				c-2.337-1.249-4.429-2.461-6.688-3.716l2.893-5.205c1.862,1.035,3.439,1.684,5.215,2.831l0.234,0.084
				c0.527-0.577,1.77-0.638,2.432-0.529l5.77,0.898c1.346,0.221,1.025,2.287-0.364,2.061l-1.776-0.241v0.001
				c-3.928,0.538,6.858,4.236,6.789,3.932c0.521,0.118,0.842,0.652,0.717,1.172l0,0c-0.126,0.52-0.652,0.835-1.173,0.716
				l-0.701-0.188c0.114,0.234,0.136,0.513,0.037,0.773l0,0c-0.188,0.499-0.751,0.748-1.252,0.565l-0.589-0.188
				c0.021,0.156,0.006,0.319-0.054,0.475l0,0c-0.188,0.5-0.751,0.749-1.252,0.567l-0.661-0.211
				c-0.024,0.104-0.066,0.206-0.127,0.299l0,0c-0.287,0.451-0.889,0.578-1.342,0.297l-2.229-1.263
				C146.671,119.677,146.601,119.645,146.531,119.604z"/>
			<path fill-rule="evenodd" clip-rule="evenodd" fill="#FBCC94" d="M146.18,119.239l-5.087-2.718l-0.005,0.01l-0.576-0.32
				c-2.338-1.249-4.429-2.461-6.688-3.717l2.893-5.204c1.862,1.035,3.439,1.685,5.216,2.831l0.233,0.085
				c0.527-0.578,1.769-0.639,2.431-0.529l5.77,0.898c1.347,0.22,1.026,2.286-0.362,2.06l-1.777-0.241l0,0
				c-3.928,0.539,6.858,4.237,6.789,3.933c0.521,0.119,0.842,0.652,0.716,1.172l0,0c-0.126,0.519-0.651,0.835-1.173,0.716
				l-0.7-0.188c0.114,0.234,0.136,0.513,0.037,0.772l0,0c-0.188,0.5-0.751,0.749-1.252,0.566l-0.589-0.188
				c0.021,0.156,0.006,0.319-0.055,0.476l0,0c-0.188,0.5-0.75,0.748-1.251,0.565l-0.661-0.21c-0.025,0.104-0.066,0.205-0.127,0.299
				l0,0c-0.287,0.45-0.889,0.579-1.342,0.297l-2.229-1.263C146.32,119.312,146.248,119.279,146.18,119.239z"/>
		</g>
		<path fill-rule="evenodd" clip-rule="evenodd" fill="#DAA767" d="M148.738,114.142c-0.237,0.503-1.922,3.306-2.723,4.117
			S148.654,116.705,148.738,114.142z"/>
		<path fill-rule="evenodd" clip-rule="evenodd" fill="#DAA767" d="M154.244,118.145c-0.826-0.418-5.613-2.237-6.15-2.247
			C147.558,115.887,151.586,117.86,154.244,118.145z"/>
		<path fill-rule="evenodd" clip-rule="evenodd" fill="#666666" d="M121.119,98.205l21.428,11.113l-2.314,7.015l-15.441-5.088
			C109.345,106.155,116.285,95.698,121.119,98.205z"/>
		<path fill-rule="evenodd" clip-rule="evenodd" fill="#666666" d="M105.779,78.333l18.233,22.217l-6.457,6.874l-15.753-14.414
			C87.454,79.878,101.646,73.298,105.779,78.333z"/>
		<path fill-rule="evenodd" clip-rule="evenodd" fill="#4D4D4D" d="M115.042,105.944c0.725,0.414,2.503-1.575,3.534-0.504
			c4.791,4.981,20.979,7.806,20.979,7.806l2.848-3.49l-2.17,6.577l-15.989-5.099C120.021,109.887,116.402,107.733,115.042,105.944z"
			/>
		<path fill-rule="evenodd" clip-rule="evenodd" fill="#4D4D4D" d="M119.428,105.978l-3.767,0.582l-13.859-13.552
			c-1.204-1.178-2.267-2.224-3.106-3.26C100.763,91.32,118.588,106.127,119.428,105.978z"/>
		<path fill-rule="evenodd" clip-rule="evenodd" fill="#666666" d="M111.498,125.697l-3.697,42.097l-15.808,1.18l-3.343-35.839
			C85.975,104.441,112.441,114.937,111.498,125.697z"/>
		<path fill-rule="evenodd" clip-rule="evenodd" fill="#666666" d="M88.758,104.25c-0.064,11.646-1.75,23.939-1.229,28.814
			c9.163,2.023,14.278,3.672,26.958-1.621c-0.553-15.014-5.305-45.368-9.175-61.281c-3.187,0.405-10.122,0.052-12.608-3.234
			C91.284,70.387,88.896,79.114,88.758,104.25z"/>
		<path fill-rule="evenodd" clip-rule="evenodd" fill="#4D4D4D" d="M104.681,82.328l-1.798,29.632l4.038,18.992l-3.306,1.463
			l-13.029-21.129l-0.407-22.081C89.819,69.757,105.074,75.827,104.681,82.328z"/>
		<path fill-rule="evenodd" clip-rule="evenodd" fill="#4D4D4D" d="M112.387,109.842c1.188,7.219,1.901,14.419,2.1,21.601
			c-12.68,5.293-17.795,3.645-26.958,1.621c6.236,0.602,20.646,0.102,24.558-2.697C112.992,127.039,112.387,109.842,112.387,109.842
			z"/>
		<g>
			<path fill-rule="evenodd" clip-rule="evenodd" fill="#DAA767" d="M107.616,139.139l-1.697-6l0.012-0.004l-0.204-0.682
				c-0.753-2.658-1.586-5.273-2.383-7.922l-6.164,1.855c3.093,10.287,3.939,9.455,4.973,11.635l0.012,3.891l0.163,2.531
				l-0.603,1.047c-0.295,0.497-0.115,1.146,0.386,1.435l0,0c0.112,0.064,0.231,0.105,0.351,0.125l0.039,0.75
				c0.006,0.578,0.496,1.039,1.072,1.027l0,0c0.578-0.014,1.033-0.496,1.027-1.074l-0.041-0.855c0.201-0.135,0.355-0.34,0.428-0.59
				l1.219-3.192l1.295-2.486l-0.055,0.02C107.678,140.164,107.779,139.654,107.616,139.139z"/>
			<path fill-rule="evenodd" clip-rule="evenodd" fill="#FBCC94" d="M107.215,138.754l-1.696-6l0.012-0.004l-0.206-0.682
				c-0.779-2.758-1.577-5.246-2.382-7.922l-6.163,1.855c3.093,10.287,4.948,12.012,5.09,12.391l-0.105,3.135l0.162,2.531
				l-0.602,1.047c-0.295,0.497-0.115,1.146,0.385,1.435l0,0c0.113,0.064,0.231,0.105,0.352,0.123l0.039,0.752
				c0.006,0.578,0.495,1.039,1.072,1.025l0,0c0.578-0.012,1.033-0.496,1.027-1.072l-0.041-0.855c0.2-0.137,0.355-0.342,0.427-0.592
				l1.22-3.19l1.295-2.488l-0.056,0.02C107.277,139.779,107.379,139.268,107.215,138.754z"/>
		</g>
		<path fill-rule="evenodd" clip-rule="evenodd" fill="#666666" d="M100.221,107.817l5.608,23.878l-7.583,2.504l-6.331-17.42
			C85.909,100.254,98.875,102.085,100.221,107.817z"/>
		<path fill-rule="evenodd" clip-rule="evenodd" fill="#666666" d="M103.842,83.304l-3.844,28.483l-9.432-0.045L90.389,90.39
			C90.227,70.942,104.713,76.849,103.842,83.304z"/>
		<path fill-rule="evenodd" clip-rule="evenodd" fill="#4D4D4D" d="M90.55,111.214c1.538-3,1.632-1.381,2.96,1.406
			c2.955,6.203,6.982,19.002,6.982,19.002l4.863,0.229l-7.109,2.348L90.55,111.214z"/>
		<path fill-rule="evenodd" clip-rule="evenodd" fill="#4D4D4D" d="M93.152,111.755l-2.594-0.454l-0.17-20.911
			c-0.014-1.685,0.084-3.175,0.27-4.495c0.045,0.452,1.784,21.284,2.008,23.271C92.891,111.153,92.691,111.407,93.152,111.755z"/>
		<path fill-rule="evenodd" clip-rule="evenodd" fill="#666666" d="M107.758,165.987l-1.82,34.014l-12.844-0.049l-1.474-33.119
			C90.729,146.812,108.185,158.003,107.758,165.987z"/>
		<path fill-rule="evenodd" clip-rule="evenodd" fill="#F48E70" d="M106.988,76.436c0.602,1.113,1.273,6.612,1.273,9.698
			c0,3.085-4.189-8.005-3.443-10.161C105.563,73.817,105.563,73.817,106.988,76.436z"/>
		<path fill-rule="evenodd" clip-rule="evenodd" fill="#F48E70" d="M105.312,70.163c1.71,1.433,2.442,4.358,1.534,6.686
			C105.938,79.174,101.725,74.543,105.312,70.163z"/>
		<path fill-rule="evenodd" clip-rule="evenodd" fill="#FFFFFF" d="M105.312,70.163c-2.034-0.126-9.993-0.423-12.479-3.709
			c-0.33,0.352-0.415,0.943-0.568,1.771c0.538,5.989,10.994,7.497,12.555,7.749C105.252,73.988,105.209,72.222,105.312,70.163z"/>
		<polygon fill-rule="evenodd" clip-rule="evenodd" fill="#4D4D4D" points="111.035,130.959 105.938,200.001 93.094,199.952 
			102.862,197.687 		"/>
		<path fill-rule="evenodd" clip-rule="evenodd" fill="#DAA767" d="M153.134,119c-0.804-0.459-5.013-2.22-5.549-2.258
			S150.493,118.58,153.134,119z"/>
		<path fill-rule="evenodd" clip-rule="evenodd" fill="#DAA767" d="M151.259,119.826c-0.688-0.394-4.294-1.901-4.753-1.935
			C146.047,117.859,148.996,119.464,151.259,119.826z"/>
	</g>
	<g>
		<path fill-rule="evenodd" clip-rule="evenodd" fill="#57291E" d="M195.789,195.464c1.076,1.969,1.479,9.037,1.247,11.463
			c-0.232,2.424-0.028,3.35-2.108,3.434c-2.078,0.086-3.079-0.201-3.371-0.984c-0.291-0.781-4.392,0.668-6.285,0.705
			c-3.844,0.072-13.864,0.869-15.076-3.164c-0.538-1.791,2.729-3.467,5.521-3.975c4.756-0.865,10.018-2.406,11.302-6.588
			c0.618-2.014-0.863-3.715,0.612-2.605c1.476,1.107,2.603,3.098,4.707,2.438S195.156,194.616,195.789,195.464z"/>
		<path fill-rule="evenodd" clip-rule="evenodd" fill="#DAA767" d="M198.328,43.173c0.221,13.913-14.121,30.18-26.498,26.899
			c-12.734-3.374-17.029-25.752-9.061-37.504C172.219,18.633,198.063,26.358,198.328,43.173z"/>
		<path fill-rule="evenodd" clip-rule="evenodd" fill="#DAA767" d="M194.208,52.487l0.202,15.771
			c0.066,5.109-9.657,14.999-9.797,10.727l-0.86-26.396C183.527,45.675,194.119,45.572,194.208,52.487z"/>
		<path fill-rule="evenodd" clip-rule="evenodd" fill="#FBCC94" d="M196.148,48.614c-4.273,12.124-15.912,23.038-25.902,20.391
			c-9.986-2.646-14.423-17.814-11.877-30.394c0.719-2.044,1.625-3.97,2.728-5.706c10.258-16.164,36.155-8.296,35.634,10.801
			C196.686,45.318,196.483,46.962,196.148,48.614z"/>
		<path fill="#DAA767" d="M162.554,62.576c1.503-0.523,3.006-1.56,4.272-2.934c1.231-1.335,2.238-2.985,2.806-4.791
			c0.075-0.242,0.333-0.378,0.577-0.302c0.242,0.075,0.378,0.334,0.303,0.576c-0.61,1.942-1.689,3.712-3.007,5.141
			c-1.304,1.413-2.848,2.499-4.413,3.095C162.908,63.105,162.729,62.843,162.554,62.576z"/>
		<path fill-rule="evenodd" clip-rule="evenodd" fill="#5E3419" d="M194.744,58.007c-9.126-2.359-13.803-9.962-19.809-21.708
			c-3.293,4.989-13.947,8.786-20.654,4.925c3.215-2.381,4.555-6.25,6.943-9.983c8.768-13.703,35.231-9.643,37.686,10.325
			C199.49,46.287,197.871,51.917,194.744,58.007z"/>
		<g>
			
				<ellipse transform="matrix(0.4546 -0.8907 0.8907 0.4546 55.9836 195.442)" fill-rule="evenodd" clip-rule="evenodd" fill="#DAA767" cx="187.586" cy="52.006" rx="4.391" ry="2.738"/>
			
				<ellipse transform="matrix(0.4546 -0.8907 0.8907 0.4546 56.8445 194.9355)" fill-rule="evenodd" clip-rule="evenodd" fill="#FBCC94" cx="187.594" cy="51.052" rx="4.391" ry="2.738"/>
		</g>
		
			<ellipse transform="matrix(0.2561 -0.9667 0.9667 0.2561 67.6659 194.0941)" fill-rule="evenodd" clip-rule="evenodd" fill="#DAA767" cx="159.936" cy="53.084" rx="2.202" ry="2.09"/>
		
			<ellipse transform="matrix(0.2562 -0.9666 0.9666 0.2562 67.9017 192.3327)" fill-rule="evenodd" clip-rule="evenodd" fill="#FBCC94" cx="158.921" cy="52.046" rx="3.063" ry="3.094"/>
		<circle fill-rule="evenodd" clip-rule="evenodd" fill="#4D4D4D" cx="165.153" cy="46.671" r="1.817"/>
		<path fill-rule="evenodd" clip-rule="evenodd" fill="#056698" d="M178.383,125.697l3.695,42.097l15.809,1.18l3.342-35.839
			C203.906,104.441,177.438,114.937,178.383,125.697z"/>
		<path fill-rule="evenodd" clip-rule="evenodd" fill="#056698" d="M201.123,104.25c0.063,11.646,1.75,23.939,1.229,28.814
			c-9.164,2.023-14.277,3.672-26.957-1.621c0.553-15.014,5.303-45.368,9.174-61.281c3.188,0.405,9.235-2.266,9.572-6.708
			C196.465,65.922,200.984,79.114,201.123,104.25z"/>
		<path fill-rule="evenodd" clip-rule="evenodd" fill="#044F78" d="M177.494,109.842c-1.188,7.219-1.902,14.419-2.1,21.601
			c12.68,5.293,17.793,3.645,26.957,1.621c-6.236,0.602-20.646,0.102-24.558-2.697C176.889,127.039,177.494,109.842,177.494,109.842
			z"/>
		<g>
			<g>
				<path fill-rule="evenodd" clip-rule="evenodd" fill="#DAA767" d="M151.943,122.129l5.598-1.387l0.004,0.01l0.637-0.168
					c2.572-0.639,4.896-1.3,7.395-1.962l-1.527-5.755c-2.061,0.546-3.748,0.788-5.752,1.465l-0.246,0.024
					c-0.37-0.689-1.559-1.053-2.227-1.109l-5.814-0.545c-1.36-0.116-1.555,1.966-0.153,2.087l1.782,0.202l0,0
					c3.675,1.484-7.688,2.425-7.547,2.146c-0.534-0.012-0.976,0.426-0.981,0.961l0,0c-0.006,0.534,0.427,0.97,0.961,0.981
					l0.726-0.011c-0.168,0.198-0.256,0.464-0.225,0.74l0,0c0.061,0.53,0.543,0.91,1.074,0.855l0.617-0.037
					c-0.06,0.146-0.084,0.309-0.064,0.475l0,0c0.06,0.529,0.543,0.91,1.074,0.855l0.693-0.043c-0.002,0.107,0.014,0.215,0.049,0.322
					l0,0c0.168,0.508,0.72,0.779,1.229,0.617l2.471-0.678C151.79,122.166,151.867,122.15,151.943,122.129z"/>
				<path fill-rule="evenodd" clip-rule="evenodd" fill="#FBCC94" d="M152.375,121.859l5.597-1.386l0.003,0.011l0.638-0.169
					c2.571-0.638,4.896-1.3,7.395-1.963l-1.528-5.754c-2.059,0.546-3.747,0.788-5.75,1.465l-0.248,0.024
					c-0.369-0.689-1.558-1.053-2.227-1.109l-5.813-0.545c-1.361-0.116-1.556,1.966-0.154,2.087l1.783,0.202h-0.002
					c3.676,1.485-7.688,2.425-7.546,2.146c-0.534-0.012-0.976,0.427-0.981,0.961l0,0c-0.006,0.534,0.428,0.97,0.961,0.981
					l0.727-0.011c-0.168,0.198-0.258,0.464-0.227,0.74l0,0c0.061,0.53,0.545,0.909,1.075,0.856l0.617-0.037
					c-0.06,0.144-0.083,0.306-0.064,0.472l0,0c0.06,0.531,0.544,0.91,1.075,0.857l0.692-0.043c-0.002,0.105,0.014,0.215,0.05,0.32
					l0,0c0.167,0.508,0.719,0.779,1.227,0.617l2.471-0.678C152.221,121.896,152.297,121.883,152.375,121.859z"/>
			</g>
			<path fill-rule="evenodd" clip-rule="evenodd" fill="#056698" d="M180.822,104.734l-22.547,8.614l1.504,7.232l16.88-2.997
				C192.672,114.742,185.91,102.79,180.822,104.734z"/>
			<path fill-rule="evenodd" clip-rule="evenodd" fill="#044F78" d="M185.68,81.042l-8.371,27.495l8.594,3.889l9.057-19.338
				C203.207,75.475,187.578,74.81,185.68,81.042z"/>
			<path fill-rule="evenodd" clip-rule="evenodd" fill="#056698" d="M184.995,82.034l-8.372,27.495l8.594,3.888l9.057-19.337
				C202.522,76.466,186.893,75.801,184.995,82.034z"/>
			<path fill-rule="evenodd" clip-rule="evenodd" fill="#044F78" d="M158.368,113.799l1.411,6.781l16.881-2.997
				c10.719-1.903,11.35-8.069,9.825-10.145c-1.618,4.221-1.659,4.195-6.371,6.216c-4.603,1.974-19.312,3.935-19.312,3.935
				L158.368,113.799z"/>
			<path fill-rule="evenodd" clip-rule="evenodd" fill="#044F78" d="M182.859,112.35l3.778-0.454l7.636-17.816
				c0.663-1.549,1.246-2.921,1.627-4.199c-0.229,0.392-10.488,18.606-11.521,20.319C183.349,111.913,183.424,112.226,182.859,112.35
				z"/>
			<path fill-rule="evenodd" clip-rule="evenodd" fill="#DAA767" d="M153.183,120.508c-0.788,0.09-4.589,1.002-4.978,1.246
				C147.814,122,151.145,121.553,153.183,120.508z"/>
			<path fill-rule="evenodd" clip-rule="evenodd" fill="#DAA767" d="M151.959,119.068c-0.861,0.097-5.014,1.095-5.44,1.362
				C146.094,120.697,149.731,120.209,151.959,119.068z"/>
			<path fill-rule="evenodd" clip-rule="evenodd" fill="#DAA767" d="M150.602,117.957c-0.867-0.02-5.287,0.764-5.744,0.971
				C144.398,119.135,148.24,118.788,150.602,117.957z"/>
		</g>
		<path fill-rule="evenodd" clip-rule="evenodd" fill="#056698" d="M182.123,165.987l1.82,34.014l12.844-0.049l1.473-33.119
			C199.15,146.812,181.695,158.003,182.123,165.987z"/>
		<polygon fill-rule="evenodd" clip-rule="evenodd" fill="#044F78" points="178.845,130.959 183.943,200.001 196.787,199.952 
			187.018,197.687 		"/>
		<path fill-rule="evenodd" clip-rule="evenodd" fill="#FBBE29" d="M182.893,76.436c-0.603,1.113-1.273,6.612-1.273,9.698
			c0,3.085,4.188-8.005,3.443-10.161C184.316,73.817,184.316,73.817,182.893,76.436z"/>
		<path fill-rule="evenodd" clip-rule="evenodd" fill="#FBBE29" d="M184.568,70.163c-1.71,1.433-2.441,4.358-1.535,6.686
			C183.941,79.174,188.156,74.543,184.568,70.163z"/>
		<path fill-rule="evenodd" clip-rule="evenodd" fill="#FFFFFF" d="M184.568,70.163c2.035-0.126,8.582-3.354,9.682-7.796
			c0.33,0.351,0.978,2.031,1.15,2.858c-0.539,5.989-8.777,10.496-10.338,10.748C184.629,73.988,184.672,72.222,184.568,70.163z"/>
	</g>
</g>
<rect x="0.001" y="180" fill="#2C2D2E" width="299.997" height="60"/>
<text transform="matrix(1 0 0 1 84.1182 218.5625)" fill="#ECF0F1" font-family="'CenturyGothic'" font-size="31">Sponsors</text>
</svg>
