<?xml version="1.0" encoding="utf-8"?>
<!-- Generator: Adobe Illustrator 16.0.0, SVG Export Plug-In . SVG Version: 6.00 Build 0)  -->
<!DOCTYPE svg PUBLIC "-//W3C//DTD SVG 1.1//EN" "http://www.w3.org/Graphics/SVG/1.1/DTD/svg11.dtd">
<svg version="1.1" id="Layer_1" xmlns="http://www.w3.org/2000/svg" xmlns:xlink="http://www.w3.org/1999/xlink" x="0px" y="0px"
	 width="300px" height="240px" viewBox="0 0 300 240" enable-background="new 0 0 300 240" xml:space="preserve">
<g>
	<defs>
		<rect id="SVGID_1_" x="-0.001" y="-5.287" width="300.002" height="194.965"/>
	</defs>
	<clipPath id="SVGID_2_">
		<use xlink:href="#SVGID_1_"  overflow="visible"/>
	</clipPath>
	<rect x="-5.001" y="-19.787" clip-path="url(#SVGID_2_)" fill="#BDC3C7" width="308.002" height="221.5"/>
	<g clip-path="url(#SVGID_2_)">
		<g>
			<path fill="#DECAA7" d="M54.082,147.572v-8.799h-11.44v8.604c-8.658,1.07-18.022,4.889-18.022,12.967
				c0,9.664,13.405,21.604,22.97,21.604c9.563,0,23.21-11.142,23.21-20.805C70.799,153.535,62.345,149.111,54.082,147.572z"/>
			<path fill="#FFFFFF" d="M54.082,147.572v-0.209c-3.766,1.049-7.402,1.742-10.961-0.021l-0.479,0.03
				c-8.658,1.07-18.022,4.89-18.022,12.967c0,9.664,13.405,21.604,22.97,21.604c9.563,0,23.21-11.142,23.21-20.806
				C70.799,153.535,62.345,149.111,54.082,147.572z"/>
			<path fill="#1F1A1A" d="M84.974,191.225c0,0-1.438-43.089-27.867-43.089c-0.827,0-10.249,21.319-10.249,21.319
				s-7.628-21.77-7.801-21.77c-25.994,0-28.613,43.535-28.613,43.535l36.664-0.359L84.974,191.225z"/>
			<polygon fill="#322D2D" points="46.858,169.455 51.637,174.225 61.607,145.873 54.082,147.572 			"/>
			<polygon fill="#322D2D" points="46.858,169.455 41.991,174.225 34.954,145.33 42.642,147.375 			"/>
			<g>
				<circle fill="#322D2D" cx="46.826" cy="177.66" r="2.125"/>
				<circle fill="#322D2D" cx="46.826" cy="185.959" r="2.125"/>
			</g>
			<path fill="#EEEFEF" d="M54.082,147.572v-1.842c-3.72,1.153-7.825,1.348-11.44,0.141v1.506
				C45.155,149.039,50.316,148.621,54.082,147.572z"/>
			<g>
				<path fill="#F7E0B7" d="M67.651,118.762c0,11.043-7.726,24.508-19.315,24.508c-11.589,0-19.315-13.465-19.315-24.508
					s9.428-19.996,19.315-19.996C58.224,98.766,67.651,107.719,67.651,118.762z"/>
				<g>
					<ellipse fill="#231F20" cx="40.476" cy="122.127" rx="2.346" ry="2.465"/>
					<ellipse fill="#231F20" cx="55.387" cy="122.127" rx="2.345" ry="2.465"/>
				</g>
				<path fill="#1F1A1A" d="M29.59,124.982c2.478-9.055,5.573-13.063,11.742-12.705c7.23,0.426,9.412,0.5,15.477-3.195
					c0.37,6.582,5.11,10.58,7.917,13.313c1.275,1.239,3.367-4.972,3.367-4.972S71.06,91.928,56.79,95.134
					c-9.454-8.019-25.413,3.634-27.348,11.654C27.207,116.061,29.039,119.455,29.59,124.982z"/>
				<path fill="#BE4127" d="M48.846,137.238c-3.165,0-5.482-1.646-5.519-1.668c-0.43-0.313-0.525-0.914-0.213-1.344
					c0.309-0.432,0.909-0.525,1.339-0.218c0.173,0.122,4.188,2.916,8.524-0.015c0.44-0.303,1.038-0.186,1.335,0.254
					c0.298,0.441,0.184,1.041-0.257,1.338C52.23,136.824,50.431,137.238,48.846,137.238z"/>
				<path fill="#F7E0B7" d="M25.998,120.498c0,4.262,1.504,4.439,3.357,4.439c1.854,0,3.358-1.986,3.358-4.439
					c0-2.449-1.504-4.438-3.358-4.438C27.501,116.061,25.998,116.24,25.998,120.498z"/>
				<path fill="#F7E0B7" d="M64.283,120.943c0,4.26,1.256,4.438,2.807,4.438c1.548,0,2.803-1.986,2.803-4.438
					c0-2.453-1.255-4.439-2.803-4.439C65.54,116.504,64.283,116.686,64.283,120.943z"/>
			</g>
		</g>
		<rect x="10.434" y="81.935" fill="none" width="74.057" height="95.532"/>
	</g>
	<g clip-path="url(#SVGID_2_)">
		<g>
			<g>
				<path fill="#DECAA7" d="M136.061,135.174v-10.109h-13.145v9.756c-9.949,1.231-20.709,5.748-20.709,15.029
					c0,11.103,15.401,24.818,26.392,24.818s26.671-12.801,26.671-23.903C155.271,142.025,145.555,136.943,136.061,135.174z"/>
				<path fill="#F7E0B7" d="M151.897,104.133c0,12.688-4.563,25.354-22.195,25.354c-17.636,0-22.193-12.664-22.193-25.354
					c0-12.688,10.831-22.973,22.193-22.973C141.063,81.161,151.897,87.024,151.897,104.133z"/>
				<g>
					<ellipse fill="#231F20" cx="120.671" cy="108.001" rx="2.694" ry="2.833"/>
					<ellipse fill="#231F20" cx="137.805" cy="108.001" rx="2.694" ry="2.833"/>
				</g>
				<path fill="#BE4127" d="M105.04,101.889c0,0-0.736-23.185,23.149-25.353c11.169-1.014,17.529,3.722,19.64,5.883
					c4.407,4.513,10.483,5.022,11.036-2.244c5.271,9.519,0.828,20.588-5.1,22.563c-1.791-1.852-3.976-1.313-4.53-1.084
					c-10.118,0.604-16.901-7.985-16.901-7.985s-3.598,3.595,2.398,6.992c-7.321,0.946-11.514-2.472-12.693-7.063
					c-1.161,6.923-9.344,8.204-12.874,7.997C108.208,101.541,105.04,101.889,105.04,101.889z"/>
				<path fill="#F7E0B7" d="M104.449,105.521c0,4.896,1.727,5.104,3.857,5.104s3.857-2.285,3.857-5.104
					c0-2.817-1.728-5.104-3.857-5.104C106.174,100.418,104.449,100.627,104.449,105.521z"/>
				<g>
					<path fill="#FFFFFF" d="M167.411,185.143c0,0,1.709-46.762-28.252-49.271c-0.949-0.078-11.112,13.952-11.112,13.952
						s-8.789-14.375-8.988-14.36c-29.046,1.744-30.097,49.681-30.097,49.681l39.085-0.414L167.411,185.143z"/>
					<g>
						<path fill="#1F1A1A" d="M96.273,152.945c-0.867,1.742-1.634,3.535-2.309,5.344h69.591c-0.609-1.811-1.313-3.604-2.128-5.344
							H96.273z"/>
						<path fill="#1F1A1A" d="M91.227,167.547h74.699c-0.325-1.743-0.721-3.536-1.198-5.344H92.643
							C92.093,164.012,91.625,165.805,91.227,167.547z"/>
						<path fill="#1F1A1A" d="M167.144,176.805c-0.129-1.629-0.313-3.43-0.58-5.342H90.425c-0.347,1.912-0.613,3.714-0.815,5.342
							H167.144z"/>
					</g>
				</g>
				<path fill="#BE4127" d="M136.265,115.561c-2.596-1.938-5.222-2.01-6.47-0.425c-1.251-1.585-3.876-1.513-6.472,0.425
					c-4.964,3.695-7.725,4.447-9.813,0.729c0,0,0.758,5.932,6.381,6.269c2.928,0.176,8.027-1.06,9.904-3.422
					c1.875,2.362,6.974,3.598,9.901,3.422c5.623-0.337,6.383-6.269,6.383-6.269C143.989,120.008,141.227,119.256,136.265,115.561z"
					/>
				<path fill="#F7E0B7" d="M147.263,105.72c0,4.894,1.729,5.103,3.861,5.103c2.131,0,3.859-2.281,3.859-5.103
					c0-2.815-1.729-5.101-3.859-5.101C148.992,100.619,147.263,100.826,147.263,105.72z"/>
			</g>
			<circle fill="#FFFFFF" cx="151.733" cy="109.053" r="1.016"/>
		</g>
		<rect x="85.897" y="61.764" fill="none" width="85.092" height="109.768"/>
	</g>
	<g clip-path="url(#SVGID_2_)">
		<g>
			<path fill="#1F1A1A" d="M212.888,87.89c32.98,0,25.194,57.625,25.194,57.625h-49.271
				C188.813,145.515,179.905,87.89,212.888,87.89z"/>
			<path fill="#DECAA7" d="M207.459,144.775v-8.193h11.303v7.857c8.56,1.16,17.539,3.532,17.539,12.244
				c0,10.426-12.975,23.875-22.424,23.875c-9.451,0-22.788-14.356-22.788-24.783C191.089,147.572,199.294,146.436,207.459,144.775z"
				/>
			<path fill="#BE4127" d="M192.681,149.852c5.901,5.793,13.938,5.969,20.4,5.969s15.422-0.777,20.818-6.267
				c14.131,11.196,16.968,40.231,16.968,40.231l-37.806-0.381l-37.33,0.381C175.731,189.785,181.099,158.018,192.681,149.852z"/>
			<path fill="#F7E0B7" d="M194.039,114.592c0,11.912,7.636,26.438,19.088,26.438c11.451,0,19.087-14.523,19.087-26.438
				s-9.314-21.57-19.087-21.57S194.039,102.68,194.039,114.592z"/>
			<g>
				<ellipse fill="#231F20" cx="220.495" cy="118.222" rx="2.316" ry="2.659"/>
				<ellipse fill="#231F20" cx="205.76" cy="118.222" rx="2.318" ry="2.659"/>
			</g>
			<path fill="#F7E0B7" d="M191.801,115.967c0,4.596,1.486,4.789,3.318,4.789c1.833,0,3.317-2.145,3.317-4.789
				s-1.484-4.789-3.317-4.789C193.287,111.178,191.801,111.375,191.801,115.967z"/>
			<path fill="#F7E0B7" d="M234.965,115.895c0,4.596-1.485,4.789-3.317,4.789c-1.834,0-3.316-2.145-3.316-4.789
				c0-2.644,1.482-4.789,3.316-4.789C233.479,111.105,234.965,111.299,234.965,115.895z"/>
			<path fill="#1F1A1A" d="M234.914,111.363c-0.634,0-43.974,0-43.974,0s7.047-19.026,22.814-19.026
				S234.914,111.363,234.914,111.363z"/>
			<g>
				<ellipse fill="#FFFFFF" cx="231.498" cy="151.544" rx="1.167" ry="1.272"/>
				<ellipse fill="#FFFFFF" cx="229.835" cy="152.614" rx="1.167" ry="1.274"/>
				<ellipse fill="#FFFFFF" cx="233.034" cy="150.27" rx="1.167" ry="1.273"/>
				<ellipse fill="#FFFFFF" cx="227.983" cy="153.352" rx="1.166" ry="1.271"/>
				<ellipse fill="#FFFFFF" cx="226.261" cy="154.091" rx="1.167" ry="1.272"/>
				<ellipse fill="#FFFFFF" cx="224.39" cy="154.625" rx="1.168" ry="1.273"/>
				<ellipse fill="#FFFFFF" cx="222.397" cy="155.162" rx="1.168" ry="1.274"/>
			</g>
			<path fill="#BE4127" d="M213.168,134.904c3.126,0,5.42-1.771,5.453-1.799c0.425-0.336,0.521-0.982,0.212-1.451
				c-0.309-0.461-0.9-0.564-1.325-0.23c-0.17,0.133-4.139,3.146-8.424-0.016c-0.435-0.322-1.024-0.199-1.319,0.273
				c-0.293,0.479-0.181,1.121,0.256,1.439C209.824,134.459,211.603,134.904,213.168,134.904z"/>
		</g>
		<circle fill="#BE4127" cx="193.233" cy="115.365" r="1.496"/>
		<circle fill="#BE4127" cx="232.688" cy="115.066" r="1.496"/>
		<rect x="175.899" y="77.053" fill="none" width="73.179" height="94.402"/>
	</g>
	<g clip-path="url(#SVGID_2_)">
		<g>
			<path fill="#DECAA7" d="M95.856,147.072v-8.693H84.551v8.5c-8.558,1.061-17.81,4.832-17.81,12.814
				c0,9.549,13.244,21.346,22.696,21.346c9.451,0,22.936-11.008,22.936-20.559C112.374,152.965,104.02,148.594,95.856,147.072z"/>
			<path fill="#F7E0B7" d="M109.473,115.861c0,10.91-7.634,24.217-19.086,24.217c-11.453,0-19.087-13.307-19.087-24.217
				c0-10.912,9.315-19.76,19.087-19.76C100.16,96.102,109.473,104.947,109.473,115.861z"/>
			<g>
				<ellipse fill="#231F20" cx="82.622" cy="119.186" rx="2.316" ry="2.436"/>
				<ellipse fill="#231F20" cx="97.356" cy="119.186" rx="2.317" ry="2.436"/>
			</g>
			<path fill="#3C2415" d="M81.138,98.175c4.729-6.756,23.023-5.983,28.091,3.022c2.985,5.313,3.146,14.483,1.316,18.66
				c-0.334,0.766-1.123-2.134-5.441-4.441c-6.313-3.377-17.464-7.418-23.396-12.746c-1.127,4.617-8.003,13.604-11.043,20.021
				c-0.349-3.525-0.951-15.488,0.287-18.418C72.191,101.348,74.383,96.262,81.138,98.175z"/>
			<path fill="#3C2415" d="M110.227,111.762c-0.975,5.889-5.762,16.611-7.434,17.541c-0.836,0.465-6.746-1.633-12.635-1.775
				c-5.89-0.141-11.759,1.678-12.646,0.586c-1.773-2.178-4.762-6.293-6.533-11.361c-1.964,6.42,2.21,17.336,9.322,22.979
				c5.17,4.099,9.484,4.478,16.613,2.219C104.047,139.689,115.16,114.852,110.227,111.762z"/>
			<path fill="#FFFFFF" d="M95.856,147.072v-0.205c-3.721,1.037-7.315,1.723-10.832-0.021l-0.473,0.03
				c-8.558,1.061-17.81,4.832-17.81,12.813c0,9.549,13.244,21.348,22.696,21.348c9.451,0,22.936-11.01,22.936-20.561
				C112.374,152.965,104.02,148.594,95.856,147.072z"/>
			<path fill="#84A58F" d="M126.381,190.209c0,0-1.422-42.58-27.535-42.58c-0.82,0,1.174,10.482-9.289,10.482
				s-8.377-10.924-8.548-10.924c-25.688,0-28.276,43.021-28.276,43.021l36.23-0.354L126.381,190.209z"/>
			<path fill="#EEEFEF" d="M95.856,147.072v-1.818c-3.676,1.143-7.732,1.328-11.305,0.139v1.486
				C87.035,148.521,92.135,148.109,95.856,147.072z"/>
			<path fill="#BE4127" d="M116.145,161.25c0.591-0.775,1.125-1.553,1.61-2.316c-1.607-2.533-3.51-4.824-5.767-6.67
				c-0.626,1.236-1.432,2.594-2.464,3.949c-4.6,6.045-11.316,9.107-19.969,9.107c-8.526,0-15.418-3.432-20.479-10.197
				c-0.674-0.898-1.267-1.803-1.795-2.686c-2.145,1.896-3.976,4.201-5.541,6.725c0.155,0.224,0.307,0.443,0.47,0.668
				c6.634,9.033,16.091,13.81,27.347,13.81C103.742,173.639,111.844,166.9,116.145,161.25z"/>
			<path fill="#F7E0B7" d="M71.16,119.602c0,4.209,1.485,4.387,3.317,4.387s3.318-1.963,3.318-4.387s-1.486-4.389-3.318-4.389
				S71.16,115.393,71.16,119.602z"/>
			<path fill="#F7E0B7" d="M103.463,119.596c0,4.209,1.486,4.387,3.319,4.387s3.316-1.963,3.316-4.387s-1.483-4.389-3.316-4.389
				S103.463,115.387,103.463,119.596z"/>
			<path fill="#BE4127" d="M90.307,136.424c-2.567,0-4.449-1.334-4.479-1.354c-0.349-0.254-0.427-0.741-0.173-1.09
				c0.251-0.351,0.738-0.43,1.087-0.178c0.141,0.1,3.397,2.366,6.916-0.013c0.356-0.242,0.842-0.147,1.083,0.207
				c0.242,0.356,0.148,0.844-0.208,1.084C93.05,136.086,91.592,136.424,90.307,136.424z"/>
		</g>
		<rect x="53.186" y="81.408" fill="none" width="73.181" height="94.403"/>
	</g>
	<g clip-path="url(#SVGID_2_)">
		<g>
			<g>
				<path fill="#4C2714" d="M166.866,90.409c26.925,0,26.957,34.908,24.167,44.134c-2.794,9.225-39.804,10.264-45.381,2.268
					C137.415,124.996,139.944,90.409,166.866,90.409z"/>
				<path fill="#DECAA7" d="M161.289,147.146v-8.883h11.546v8.568c8.746,1.084,18.198,5.051,18.198,13.203
					c0,9.754-13.537,21.803-23.189,21.803c-9.653,0-23.43-11.244-23.43-20.998C144.414,153.164,152.949,148.703,161.289,147.146z"/>
				<path fill="#F7E0B7" d="M147.88,117.172c0,11.145,7.8,24.732,19.499,24.732c11.697,0,19.499-13.59,19.499-24.732
					c0-11.146-9.52-20.188-19.499-20.188C157.397,96.984,147.88,106.025,147.88,117.172z"/>
				<g>
					<ellipse fill="#231F20" cx="174.558" cy="116.963" rx="2.366" ry="2.486"/>
					<ellipse fill="#231F20" cx="159.506" cy="116.963" rx="2.367" ry="2.486"/>
				</g>
				<path fill="#F7E0B7" d="M145.069,118.457c0,4.301,1.517,4.482,3.39,4.482c1.872,0,3.394-2.009,3.394-4.482
					c0-2.473-1.522-4.48-3.394-4.48C146.585,113.977,145.069,114.16,145.069,118.457z"/>
				<path fill="#F7E0B7" d="M189.862,119.447c0,4.299-1.516,4.48-3.387,4.48c-1.873,0-3.394-2.006-3.394-4.48
					c0-2.476,1.521-4.479,3.394-4.479S189.862,115.15,189.862,119.447z"/>
				<path fill="#4C2714" d="M189.862,116.316c0-1.301-2.318-24.321-22.483-24.321c-27.427,0-22.31,23.774-22.31,23.774
					s13.418-1.769,13.629-11.896C178.522,103.064,179.86,116.316,189.862,116.316z"/>
				<g>
					<path fill="#A63369" d="M130.569,191.248c0,0,0.991-43.49,27.667-43.49c0.836,0,3,10.477,9.486,11.021
						c6.486-0.545,8.557-11.469,8.731-11.469c26.241,0,27.963,43.938,27.963,43.938l-36.088-0.362L130.569,191.248z"/>
				</g>
				<g>
					<path fill="#A63369" d="M168.049,130.916c-0.541,0-0.772,0.287-0.772,0.287s-0.23-0.287-0.771-0.287s-2.309,1.291-2.896,1.799
						c0.256,0.123,0.908,0.457,1.16,0.775c0.256,0.32,1.063,1.523,2.51,1.523c1.449,0,2.258-1.203,2.512-1.523
						c0.253-0.318,0.904-0.652,1.156-0.775C170.354,132.207,168.59,130.916,168.049,130.916z"/>
				</g>
			</g>
			<path fill="#FFFFFF" d="M188.313,130.959c-1.404,0-2.51-2.178-2.51-4.959c0-2.235,0.719-4.15,1.793-4.762l0.288,0.674
				c-0.827,0.471-1.429,2.188-1.429,4.088c0,2.283,0.854,4.211,1.857,4.211c1.006,0,1.854-1.928,1.854-4.211
				c0-1.334-0.313-2.609-0.808-3.405c0.062-0.173,0.271-0.774,0.277-0.819c0.729,0.893,1.18,2.489,1.18,4.229
				C190.823,128.781,189.724,130.959,188.313,130.959z"/>
			<path fill="#FFFFFF" d="M146.375,130.793c-1.407,0-2.51-2.178-2.51-4.959c0-2.049,0.613-3.869,1.541-4.631
				c0.02,0.094,0.321,0.697,0.321,0.697c-0.711,0.625-1.211,2.207-1.211,3.934c0,2.279,0.853,4.209,1.857,4.209
				c1.008,0,1.856-1.93,1.856-4.209c0-1.334-0.316-2.61-0.805-3.405c0.061-0.173,0.268-0.774,0.279-0.819
				c0.729,0.891,1.178,2.49,1.178,4.227C148.884,128.617,147.783,130.793,146.375,130.793z"/>
		</g>
		<rect x="128.599" y="77.536" fill="none" width="77" height="99.356"/>
	</g>
	<g clip-path="url(#SVGID_2_)">
		<path fill="#BE4127" d="M243.146,92.945c-12.91,0.316-21.166,16.313-21.166,26.61c0,8.233-0.004,38.026-0.004,38.026l44.862,3.486
			c0,0,0-41.783,0-48.279C266.838,100.703,256.058,92.629,243.146,92.945z"/>
		<path fill="#DECAA7" d="M251.092,146.455v-8.697h-11.304v8.391c-8.559,1.063-17.811,4.943-17.811,12.924
			c0,9.553,13.246,21.35,22.693,21.35c9.452,0,22.938-11.008,22.938-20.561C267.61,152.344,259.258,147.975,251.092,146.455z"/>
		<path fill="#F7E0B7" d="M264.711,115.242c0,10.91-7.635,24.217-19.088,24.217c-11.452,0-19.086-13.307-19.086-24.217
			c0-10.914,9.313-19.762,19.086-19.762C255.394,95.48,264.711,104.328,264.711,115.242z"/>
		<ellipse fill="#231F20" cx="237.856" cy="118.565" rx="2.315" ry="2.438"/>
		<ellipse fill="#231F20" cx="252.593" cy="118.565" rx="2.317" ry="2.438"/>
		<g>
			<path fill="#BDB535" d="M259.776,113.189c-3.006-1.828-8.145-0.877-10.776,0.393c-2.25,1.082-3.787,1.099-4.188,1.08
				c0-0.008,0-0.01,0-0.01s-0.006,0-0.018,0.002c-0.014-0.002-0.02-0.002-0.02-0.002s0,0.002,0,0.01
				c-0.4,0.019-1.938,0.002-4.188-1.08c-2.634-1.27-7.771-2.221-10.776-0.393c-3.341,2.027-2.935,7.002-1.668,9.533
				c1.268,2.529,3.707,3.211,6.592,3.242c2.889,0.035,6.354-1.193,7.514-4.291c0.488-1.307,1.234-4.443,2.549-4.576
				c1.313,0.133,2.059,3.271,2.549,4.576c1.159,3.098,4.623,4.326,7.512,4.291c2.885-0.031,5.324-0.713,6.592-3.242
				C262.712,120.191,263.118,115.217,259.776,113.189z M240.196,122.553c-1.998,2.342-6.189,3.326-9.021,1.598
				s-4.119-7.146-0.703-9.763c3.318-2.539,10.701,0.265,11.336,1.972C242.438,118.066,242.196,120.211,240.196,122.553z
				 M258.412,124.15c-2.832,1.729-7.021,0.744-9.021-1.598s-2.244-4.486-1.609-6.193c0.633-1.707,8.017-4.511,11.336-1.972
				C262.534,117,261.243,122.42,258.412,124.15z"/>
		</g>
		<path fill="#414042" d="M240.196,122.553c-1.998,2.342-6.189,3.326-9.021,1.598s-4.119-7.146-0.703-9.763
			c3.318-2.539,10.701,0.265,11.336,1.972C242.438,118.066,242.196,120.211,240.196,122.553z"/>
		<path fill="#414042" d="M258.412,124.15c-2.832,1.729-7.021,0.744-9.021-1.598s-2.244-4.486-1.609-6.193
			c0.633-1.707,8.017-4.511,11.336-1.972C262.534,117,261.243,122.42,258.412,124.15z"/>
		<path fill="#BE4127" d="M226.431,129.936c1.288-16.131,6.112-21.395,18.6-25.668c26.009,5.48,13.25,29.273,17.408,40.801
			c3.67-12.146,5.013-28.426,1.108-38.344c-3.426-8.718-11.378-11.869-18.752-11.869
			C229.022,94.855,218.465,119.084,226.431,129.936z"/>
		<path fill="#BDB535" d="M236.817,146.592"/>
		<path fill="#BDB535" d="M281.854,189.678c0,0-1.422-42.58-27.535-42.58c-0.817,0-3.529,11.672-9.883,12.203
			c-6.351-0.531-7.783-12.646-7.953-12.646c-25.688,0-28.273,43.021-28.273,43.021l36.229-0.355L281.854,189.678z"/>
		<path fill="#BE4127" d="M245.959,130.357c-0.515,0-0.735,0.273-0.735,0.273s-0.221-0.273-0.734-0.273
			c-0.516,0-2.189,1.229-2.752,1.713c0.24,0.115,0.859,0.434,1.104,0.735c0.242,0.306,1.012,1.448,2.387,1.448
			c1.377,0,2.144-1.145,2.387-1.448c0.24-0.306,0.861-0.62,1.103-0.735C248.149,131.584,246.474,130.357,245.959,130.357z"/>
	</g>
</g>
<rect x="-0.001" y="180" fill="#2C2D2E" width="300.002" height="60"/>
<text transform="matrix(1 0 0 1 64.4165 220.5117)" fill="#ECF0F1" font-family="'CenturyGothic'" font-size="31">Committee</text>
</svg>
