<?xml version="1.0" encoding="utf-8"?>
<!-- Generator: Adobe Illustrator 16.0.0, SVG Export Plug-In . SVG Version: 6.00 Build 0)  -->
<!DOCTYPE svg PUBLIC "-//W3C//DTD SVG 1.1//EN" "http://www.w3.org/Graphics/SVG/1.1/DTD/svg11.dtd">
<svg version="1.1" id="Layer_1" xmlns="http://www.w3.org/2000/svg" xmlns:xlink="http://www.w3.org/1999/xlink" x="0px" y="0px"
	 width="300px" height="240px" viewBox="0 0 300 240" enable-background="new 0 0 300 240" xml:space="preserve">
<rect y="-32" fill="#2C3E50" width="300.02" height="272"/>
<g>
	<path fill="#213040" d="M130.344,150.674C108.701,66.71,134.92,42.814,150.362,27.73c15.404,15.084,41.562,38.994,19.919,122.959
		C157.559,154.15,143.053,154.346,130.344,150.674z"/>
	<path fill="#213040" d="M122.309,101.913c-2.179-45.661,16.134-62.547,28.051-74.184c11.882,11.635,30.152,28.528,27.96,74.18
		C159.91,104.229,140.723,104.23,122.309,101.913z"/>
	<path fill="#213040" d="M130.344,150.674c-0.762-2.955-1.458-5.83-2.105-8.639c14.119,4.256,30.021,4.177,44.146,0.005
		c-0.645,2.813-1.342,5.688-2.104,8.647C157.559,154.15,143.053,154.346,130.344,150.674z"/>
	<path fill="#213040" d="M131.124,51.904c5.782-11.288,13.292-18.383,19.236-24.174c5.908,5.79,13.404,12.885,19.177,24.17
		c-5.947,1.103-12.43,1.709-19.203,1.709C143.536,53.609,137.063,53.004,131.124,51.904z"/>
	<path fill="#213040" d="M150.333,97.752c10.096,0,18.336-8.241,18.336-18.344c0-10.103-8.24-18.342-18.336-18.342
		c-10.13,0-18.372,8.24-18.372,18.342C131.963,89.511,140.204,97.752,150.333,97.752z"/>
	<path fill="#213040" d="M150.333,93.275c7.631,0,13.862-6.229,13.862-13.868c0-7.638-6.23-13.868-13.862-13.868
		c-7.666,0-13.896,6.229-13.896,13.868C136.438,87.046,142.668,93.275,150.333,93.275z"/>
	<path fill="#213040" d="M125.534,123.04c-7.136,4.078-11.493,36.808-10.414,47.082c0.585,5.573,2.933,5.065,3.52,0.587
		c0.732-5.572,3.167-14.84,11.704-20.035C138.879,145.482,134.874,117.704,125.534,123.04z"/>
	<path fill="#213040" d="M174.484,123.04c7.139,4.078,11.492,36.808,10.414,47.082c-0.586,5.573-2.934,5.065-3.52,0.587
		c-0.732-5.572-3.168-14.84-11.705-20.035C161.137,145.482,165.145,117.704,174.484,123.04z"/>
	<path fill="#213040" d="M150.33,123.333c1.383,0,2.495,11.819,2.495,26.399c0,14.582-1.111,26.4-2.495,26.4
		c-1.388,0-2.515-11.818-2.515-26.4C147.815,135.152,148.941,123.333,150.33,123.333z"/>
	<g>
		<path fill="#213040" d="M142.981,155.178c-0.393,9.139-1.262,15.49-2.271,15.49c-1.028,0-1.914-6.617-2.293-16.059
			C139.928,154.848,141.454,155.036,142.981,155.178z"/>
		<path fill="#213040" d="M162.213,154.539c-0.379,9.479-1.266,16.129-2.299,16.129c-1.012,0-1.881-6.379-2.271-15.543
			C159.174,154.975,160.695,154.779,162.213,154.539z"/>
	</g>
	<g>
		<path fill="#213040" d="M161.219,70.821l-17.48,20.806c-1.354-0.73-2.57-1.679-3.609-2.797l17.712-21.08
			C159.129,68.582,160.27,69.62,161.219,70.821z"/>
		<path fill="#213040" d="M163.563,75.256l-15.032,17.905c-0.91-0.116-1.79-0.319-2.632-0.601l16.617-19.779
			C162.939,73.564,163.293,74.391,163.563,75.256z"/>
		<path fill="#213040" d="M156.146,66.816l-17.228,20.507c-0.483-0.697-0.91-1.439-1.262-2.222l16.083-19.139
			C154.574,66.174,155.377,66.461,156.146,66.816z"/>
	</g>
</g>
<g>
	<path fill="#FFAE00" d="M130.345,141.421c-21.643-83.965,4.576-107.86,20.017-122.944c15.404,15.084,41.562,38.993,19.919,122.958
		C157.561,144.896,143.056,145.093,130.345,141.421z"/>
	<path fill="#FFD375" d="M122.31,92.659c-2.18-45.66,16.134-62.546,28.05-74.182c11.884,11.634,30.154,28.527,27.964,74.179
		C159.91,94.977,140.724,94.979,122.31,92.659z"/>
	<path fill="#F06358" d="M130.345,141.421c-0.763-2.955-1.459-5.829-2.105-8.639c14.118,4.256,30.021,4.177,44.146,0.006
		c-0.645,2.813-1.344,5.688-2.104,8.647C157.561,144.896,143.056,145.093,130.345,141.421z"/>
	<path fill="#F06358" d="M131.125,42.651c5.782-11.288,13.291-18.383,19.237-24.174c5.908,5.789,13.404,12.884,19.177,24.169
		c-5.949,1.104-12.43,1.71-19.204,1.71C143.536,44.356,137.064,43.751,131.125,42.651z"/>
	<path fill="#EFF2F7" d="M150.333,88.499c10.096,0,18.336-8.241,18.336-18.344c0-10.104-8.24-18.343-18.336-18.343
		c-10.129,0-18.371,8.24-18.371,18.343C131.964,80.258,140.205,88.499,150.333,88.499z"/>
	<path fill="#3CB5A7" d="M150.333,84.023c7.631,0,13.862-6.23,13.862-13.868c0-7.638-6.229-13.869-13.862-13.869
		c-7.666,0-13.895,6.23-13.895,13.869C136.439,77.794,142.668,84.023,150.333,84.023z"/>
	<path fill="#3CB5A7" d="M125.534,113.786c-7.136,4.079-11.493,36.807-10.414,47.083c0.586,5.572,2.933,5.064,3.521,0.587
		c0.733-5.572,3.167-14.841,11.704-20.035C138.881,136.229,134.874,108.452,125.534,113.786z"/>
	<path fill="#3CB5A7" d="M174.484,113.786c7.139,4.079,11.494,36.807,10.414,47.083c-0.586,5.572-2.934,5.064-3.52,0.587
		c-0.732-5.572-3.168-14.841-11.705-20.035C161.137,136.229,165.145,108.452,174.484,113.786z"/>
	<path fill="#3CB5A7" d="M150.331,114.08c1.382,0,2.496,11.82,2.496,26.4c0,14.582-1.111,26.4-2.496,26.4
		c-1.388,0-2.513-11.818-2.513-26.4C147.817,125.9,148.942,114.08,150.331,114.08z"/>
	<g>
		<path fill="#697385" d="M142.981,145.925c-0.393,9.14-1.261,15.49-2.271,15.49c-1.031,0-1.914-6.617-2.294-16.06
			C139.93,145.596,141.452,145.783,142.981,145.925z"/>
		<path fill="#697385" d="M162.213,145.287c-0.377,9.479-1.266,16.128-2.297,16.128c-1.012,0-1.883-6.379-2.273-15.544
			C159.174,145.721,160.699,145.527,162.213,145.287z"/>
	</g>
	<g>
		<path fill="#56C7BA" d="M161.219,61.568L143.74,82.374c-1.354-0.73-2.571-1.678-3.609-2.796l17.709-21.081
			C159.129,59.328,160.27,60.367,161.219,61.568z"/>
		<path fill="#56C7BA" d="M163.563,66.003L148.53,83.909c-0.911-0.117-1.791-0.32-2.634-0.602l16.618-19.779
			C162.939,64.311,163.293,65.139,163.563,66.003z"/>
		<path fill="#56C7BA" d="M156.146,57.563L138.919,78.07c-0.486-0.697-0.909-1.439-1.262-2.222l16.085-19.139
			C154.574,56.921,155.379,57.208,156.146,57.563z"/>
	</g>
</g>
<rect y="2.403" fill="none" width="300.02" height="198.894"/>
<rect x="0.003" y="180" fill="#151E26" width="299.999" height="60"/>
<text transform="matrix(1 0 0 1 102.3076 219.8086)" fill="#ECF0F1" font-family="'CenturyGothic'" font-size="31">About</text>
</svg>
