<?xml version="1.0" encoding="utf-8"?>
<!-- Generator: Adobe Illustrator 16.0.0, SVG Export Plug-In . SVG Version: 6.00 Build 0)  -->
<!DOCTYPE svg PUBLIC "-//W3C//DTD SVG 1.1//EN" "http://www.w3.org/Graphics/SVG/1.1/DTD/svg11.dtd">
<svg version="1.1" id="Layer_1" xmlns="http://www.w3.org/2000/svg" xmlns:xlink="http://www.w3.org/1999/xlink" x="0px" y="0px"
	 width="300px" height="300px" viewBox="0 0 300 300" enable-background="new 0 0 300 300" xml:space="preserve">
<linearGradient id="SVGID_1_" gradientUnits="userSpaceOnUse" x1="123.731" y1="-60.3257" x2="140.3135" y2="-60.3257" gradientTransform="matrix(0.9947 -0.103 0.103 0.9947 -82.3639 205.9589)">
	<stop  offset="0" style="stop-color:#94BC49"/>
	<stop  offset="0.2253" style="stop-color:#B6CA4E"/>
	<stop  offset="0.3288" style="stop-color:#A7C449"/>
	<stop  offset="0.4775" style="stop-color:#99BE44"/>
	<stop  offset="0.6635" style="stop-color:#91BB42"/>
	<stop  offset="1" style="stop-color:#8FBA41"/>
</linearGradient>
<path fill="url(#SVGID_1_)" d="M52.727,148.266c0.331,3.219-1.965,6.095-5.133,6.423l-5.021,0.522
	c-3.168,0.327-6.006-2.021-6.339-5.237l-3.467-33.529c-0.335-3.224,1.965-6.099,5.129-6.429l5.017-0.52
	c3.168-0.325,6.01,2.016,6.343,5.243L52.727,148.266z"/>
<linearGradient id="SVGID_2_" gradientUnits="userSpaceOnUse" x1="150.2285" y1="-54.2188" x2="166.8223" y2="-54.2188" gradientTransform="matrix(0.9947 -0.103 0.103 0.9947 -82.3639 205.9589)">
	<stop  offset="0" style="stop-color:#94BC49"/>
	<stop  offset="0.2253" style="stop-color:#B6CA4E"/>
	<stop  offset="0.3288" style="stop-color:#A7C449"/>
	<stop  offset="0.4775" style="stop-color:#99BE44"/>
	<stop  offset="0.6635" style="stop-color:#91BB42"/>
	<stop  offset="1" style="stop-color:#8FBA41"/>
</linearGradient>
<path fill="url(#SVGID_2_)" d="M79.72,151.611c0.337,3.22-1.971,6.101-5.132,6.424l-5.026,0.521
	c-3.161,0.327-6.006-2.021-6.343-5.235l-3.471-33.529c-0.332-3.22,1.976-6.101,5.137-6.429l5.025-0.52
	c3.161-0.326,6.011,2.021,6.343,5.242L79.72,151.611z"/>
<linearGradient id="SVGID_3_" gradientUnits="userSpaceOnUse" x1="110.1475" y1="-77.7905" x2="180.707" y2="-77.7905" gradientTransform="matrix(0.9947 -0.103 0.103 0.9947 -82.3639 205.9589)">
	<stop  offset="0" style="stop-color:#94BC49"/>
	<stop  offset="0.2253" style="stop-color:#B6CA4E"/>
	<stop  offset="0.3288" style="stop-color:#A7C449"/>
	<stop  offset="0.4775" style="stop-color:#99BE44"/>
	<stop  offset="0.6635" style="stop-color:#91BB42"/>
	<stop  offset="1" style="stop-color:#8FBA41"/>
</linearGradient>
<path fill="url(#SVGID_3_)" d="M16.396,90.269l4.979,48.102c0.333,3.227,3.143,5.568,6.277,5.244l58.843-6.094
	c3.13-0.324,5.396-3.188,5.065-6.416L86.58,83.002L16.396,90.269z"/>
<path fill="#91BC42" d="M53.918,70.514c0.004,0.74-0.599,1.336-1.339,1.332l0,0c-0.744,0.006-1.344-0.594-1.344-1.336L51.22,36.95
	c0-0.739,0.599-1.345,1.342-1.339l0,0c0.741-0.007,1.347,0.594,1.34,1.341L53.918,70.514z"/>
<path fill="#91BC42" d="M61.92,67.173c-0.347,0.647-0.12,1.462,0.531,1.82l0,0c0.654,0.361,1.47,0.125,1.828-0.525l16.223-29.379
	c0.354-0.648,0.115-1.47-0.521-1.818l0,0c-0.658-0.366-1.472-0.131-1.835,0.525L61.92,67.173z"/>
<radialGradient id="SVGID_4_" cx="3959.7314" cy="941.2031" r="31.4384" gradientTransform="matrix(1.1287 -0.0336 0.0336 1.1287 -4464.8447 -871.3895)" gradientUnits="userSpaceOnUse">
	<stop  offset="0" style="stop-color:#B6CA4E"/>
	<stop  offset="0.1337" style="stop-color:#A7C449"/>
	<stop  offset="0.3256" style="stop-color:#99BE44"/>
	<stop  offset="0.5656" style="stop-color:#91BB42"/>
	<stop  offset="1" style="stop-color:#8FBA41"/>
</radialGradient>
<path fill="url(#SVGID_4_)" d="M86.462,81.496C84.96,62.44,68.784,47.665,49.433,48.137c-19.484,0.468-34.999,16.22-35.375,35.515
	L86.462,81.496z"/>
<path fill="#92B23F" d="M97.749,121.017c1.005,2.608-0.2,5.498-2.683,6.455l-3.941,1.517c-2.487,0.956-5.309-0.379-6.313-2.987
	L74.386,98.835c-1.002-2.607,0.202-5.502,2.687-6.455l3.936-1.517c2.485-0.957,5.313,0.383,6.318,2.987L97.749,121.017z"/>
<linearGradient id="SVGID_5_" gradientUnits="userSpaceOnUse" x1="199.7803" y1="190.7129" x2="213.6563" y2="190.7129" gradientTransform="matrix(0.9331 -0.3592 0.3094 0.8058 -164.806 29.2464)">
	<stop  offset="0" style="stop-color:#94BC49"/>
	<stop  offset="0.2253" style="stop-color:#B6CA4E"/>
	<stop  offset="0.3288" style="stop-color:#A7C449"/>
	<stop  offset="0.4775" style="stop-color:#99BE44"/>
	<stop  offset="0.6635" style="stop-color:#91BB42"/>
	<stop  offset="1" style="stop-color:#8FBA41"/>
</linearGradient>
<path fill="url(#SVGID_5_)" d="M98.769,119.758c1.005,2.607-0.2,5.498-2.68,6.458l-3.945,1.517c-2.488,0.956-5.31-0.38-6.313-2.99
	L75.405,97.58c-0.999-2.611,0.207-5.502,2.686-6.455l3.936-1.516c2.485-0.959,5.313,0.379,6.322,2.985L98.769,119.758z"/>
<path fill="#FFFFFF" d="M39.14,67.061c0.059,2.077-1.574,3.807-3.647,3.869c-2.077,0.062-3.812-1.569-3.871-3.644
	c-0.063-2.078,1.574-3.806,3.647-3.872C37.341,63.352,39.077,64.986,39.14,67.061z"/>
<g>
	<g>
		<g>
			<defs>
				<path id="SVGID_6_" d="M154.881,203.169c0.247,0.89,0.449,1.799,0.595,2.735c2.049,13.121-6.929,25.419-20.047,27.466
					c-13.122,2.048-25.419-6.929-27.467-20.05c-0.013-0.077-0.018-0.153-0.03-0.229c25.963-6.351,46.932-9.812,46.932-9.812
					C154.867,203.242,154.876,203.206,154.881,203.169z"/>
			</defs>
			<clipPath id="SVGID_7_">
				<use xlink:href="#SVGID_6_"  overflow="visible"/>
			</clipPath>
		</g>
	</g>
	<g>
		<path fill="#AF9595" d="M169.256,189.809l1.796-11.495c0,0-2.517,1.537-3.209,5.871c-0.257,1.616-1.555,6.776-1.555,6.776
			L169.256,189.809z"/>
		
			<rect x="167.771" y="196.017" transform="matrix(-0.9525 0.3046 -0.3046 -0.9525 397.2996 331.9158)" fill="#190707" width="9.985" height="1.855"/>
		
			<rect x="168.25" y="194.028" transform="matrix(0.3231 0.9464 -0.9464 0.3231 305.071 -36.5094)" fill="#190707" width="19.617" height="1.967"/>
		
			<rect x="214.3" y="188.506" transform="matrix(-0.9946 -0.1041 0.1041 -0.9946 413.5157 424.2996)" fill="#896143" width="7.056" height="25.709"/>
		
			<ellipse transform="matrix(-0.988 0.1542 -0.1542 -0.988 364.3802 533.3621)" opacity="0.15" cx="161.505" cy="280.813" rx="124.862" ry="5.545"/>
		<path fill="#BA2A2A" d="M276.222,216.271c0,0-9.119-38.512-56.733-31.083c0,0-0.086,11.002-0.88,15.873
			c-2.491,15.316-40.001,16.533-44.139,8.553c-5.574-10.752-5.187-19.638-5.187-19.638s-13.003,2.117-14.421,13.304
			c0,0-77.643,12.805-119.118,34.406c-25.276,13.166-23.133,25.311-19.973,32.197c4.199,9.16,14.829,16.564,56.168,10.111
			c57.332-8.947,177.684-24.409,199.63-38.297C280.133,236.28,276.222,216.271,276.222,216.271z"/>
		<path fill="#AF9595" d="M22.63,263.58c0.61,12.225,2.273,15.427,2.273,15.427c-4.932-2.317-7.511-5.589-9.132-9.124
			c-2.577-5.62-4.477-14.74,8.642-25.06C24.413,244.823,22.013,251.222,22.63,263.58z"/>
		<g>
			<path fill="#541616" d="M221.321,203.164c0,0-0.085,0.295-0.244,0.852c-0.124,0.569-0.478,1.343-0.956,2.281
				c-0.544,0.912-1.262,1.998-2.36,2.992c-0.502,0.54-1.16,0.985-1.795,1.509c-0.7,0.444-1.39,0.974-2.2,1.392
				c-1.573,0.905-3.391,1.699-5.374,2.35c-1.981,0.656-4.117,1.214-6.362,1.634c-4.482,0.83-9.374,1.252-14.228,1.002
				c-2.426-0.108-4.847-0.369-7.163-0.875c-2.298-0.507-4.573-1.22-6.274-2.502c-0.236-0.141-0.39-0.344-0.578-0.515l-0.275-0.265
				l-0.207-0.3l-0.207-0.298l-0.054-0.076c0.008,0.026-0.023-0.046-0.032-0.063l-0.093-0.191l-0.367-0.753
				c-0.49-0.998-0.968-1.976-1.435-2.928c-0.443-0.956-0.76-1.909-1.132-2.822c-0.178-0.458-0.353-0.908-0.525-1.352
				c-0.163-0.445-0.279-0.899-0.416-1.336c-0.268-0.877-0.521-1.72-0.763-2.519c-0.195-0.815-0.381-1.588-0.555-2.313
				c-0.193-0.723-0.3-1.414-0.409-2.051c-0.103-0.638-0.233-1.222-0.285-1.758c-0.121-1.064-0.235-1.905-0.26-2.481
				c-0.049-0.575-0.047-0.884-0.047-0.884s-0.033,0.306-0.034,0.884c-0.024,0.581-0.01,1.431,0.049,2.511
				c0.014,0.542,0.105,1.136,0.163,1.787c0.064,0.649,0.126,1.354,0.27,2.096c0.126,0.745,0.259,1.54,0.4,2.378
				c0.192,0.824,0.426,1.686,0.652,2.59c0.121,0.45,0.221,0.916,0.37,1.379c0.154,0.461,0.315,0.93,0.479,1.408
				c0.34,0.949,0.636,1.966,1.043,2.947c0.425,0.971,0.862,1.966,1.308,2.985l0.338,0.769l0.087,0.191
				c0.021,0.043,0.012,0.038,0.059,0.122l0.065,0.102l0.264,0.408l0.273,0.404l0.33,0.341c0.228,0.219,0.437,0.477,0.695,0.645
				c1.988,1.54,4.372,2.341,6.785,2.886c2.42,0.546,4.915,0.834,7.411,0.961c4.991,0.221,9.989-0.233,14.563-1.212
				c2.293-0.461,4.461-1.145,6.468-1.903c2.011-0.752,3.847-1.648,5.438-2.653c0.812-0.471,1.522-1.035,2.209-1.548
				c0.629-0.589,1.268-1.093,1.753-1.689c1.063-1.106,1.729-2.282,2.223-3.25c0.438-1.006,0.696-1.826,0.772-2.396
				C221.266,203.468,221.321,203.164,221.321,203.164z"/>
		</g>
		<g>
			<path fill="#5B2424" d="M71.411,276.614c40.325-6.296,111.667-16.838,158.436-25.095c0.159,0.322,0.339,0.641,0.512,0.949
				c0.134,0.246,0.283,0.486,0.432,0.726c-46.757,8.276-118.583,18.891-159.1,25.213c-5.1,0.796-9.715,1.467-13.9,2.025
				c-0.268-0.573-0.542-1.147-0.777-1.73C61.332,278.131,66.105,277.44,71.411,276.614z"/>
		</g>
		<g>
			<path fill="#5B2424" d="M70.895,273.146c40.324-6.292,111.667-16.835,158.435-25.094c0.159,0.325,0.339,0.642,0.511,0.953
				c0.135,0.244,0.281,0.483,0.432,0.725c-46.756,8.275-118.582,18.888-159.099,25.211c-5.101,0.795-9.715,1.468-13.899,2.026
				c-0.268-0.577-0.543-1.148-0.777-1.729C60.816,274.664,65.587,273.976,70.895,273.146z"/>
		</g>
		<path fill="#B54848" d="M240.217,190.809c-7.503-0.752-13.971-0.883-20.902,1.296c0.148-3.715,0.148-3.715,0.148-3.715
			c15.021-2.344,33.518,0.349,42.832,8.641C255.243,193.236,247.189,191.506,240.217,190.809z"/>
		<g>
			<circle fill="#423333" cx="253.943" cy="237.33" r="31.42"/>
			<circle fill="#210909" cx="253.942" cy="237.329" r="26.976"/>
			<path fill="#896143" d="M234.448,240.371c1.68,10.767,11.772,18.133,22.538,16.453c10.766-1.682,18.132-11.771,16.452-22.538
				c-1.682-10.767-11.771-18.132-22.538-16.449C240.134,219.514,232.769,229.604,234.448,240.371z"/>
			<circle fill="#5B2424" cx="253.943" cy="237.328" r="14.991"/>
			<circle cx="253.943" cy="237.328" r="6.498"/>
		</g>
		<path fill="#B54848" d="M87.122,265.042c-0.365,11.987,68.455-21.228,62.708-21.013c-5.75,0.219-61.761,9.641-61.761,9.641
			S87.29,259.572,87.122,265.042z"/>
		<path fill="#C77878" d="M154.881,203.169c0.247,0.89,0.449,1.799,0.595,2.735c2.049,13.121-6.929,25.419-20.047,27.466
			c-13.122,2.048-25.419-6.929-27.467-20.05c-0.013-0.077-0.018-0.153-0.03-0.229c25.963-6.351,46.932-9.812,46.932-9.812
			C154.867,203.242,154.876,203.206,154.881,203.169z"/>
		<path fill="#B54848" d="M220.199,232.799c-1.277,0.23-77.067,12.027-77.067,12.027l-3.718,5.09L220.199,232.799z"/>
		<path fill="#B54848" d="M212.93,238.526c-1.277,0.229-97.984,15.29-97.984,15.29l-3.719,5.091L212.93,238.526z"/>
		<path fill="#B54848" d="M204.509,243.41c-1.278,0.23-97.985,15.291-97.985,15.291l-3.718,5.093L204.509,243.41z"/>
		<path fill="#B54848" d="M192.678,249.337c-1.276,0.231-97.984,15.293-97.984,15.293l-3.717,5.092L192.678,249.337z"/>
		<path fill="#7E2121" d="M171.01,220.659c3.9,2.108,11.056,2.185,11.056,2.185S172.48,227.908,171.01,220.659z"/>
		<g>
			<path fill="#5B2424" d="M86.108,218.863c0.648-0.185,1.293-0.37,1.939-0.552l2.694,10.846l-1.957,0.488L86.108,218.863z"/>
			<path fill="#5B2424" d="M72.582,222.963c0.641-0.206,1.282-0.41,1.926-0.615l2.536,10.211l-1.958,0.489L72.582,222.963z"/>
			<path fill="#5B2424" d="M100.219,215.026c0.654-0.168,1.304-0.333,1.952-0.5l2.759,11.108l-1.956,0.487L100.219,215.026z"/>
			<path fill="#5B2424" d="M79.333,220.858c0.644-0.196,1.288-0.388,1.933-0.58l2.627,10.581l-1.958,0.484L79.333,220.858z"/>
			<path fill="#5B2424" d="M93.395,216.832c0.65-0.175,1.299-0.349,1.948-0.524l2.737,11.028l-1.956,0.486L93.395,216.832z"/>
			<path fill="#5B2424" d="M58.705,227.733c0.634-0.233,1.268-0.465,1.905-0.694l2.247,9.046l-1.958,0.483L58.705,227.733z"/>
			<path fill="#5B2424" d="M67.301,224.701l2.403,9.681l-1.955,0.486l-2.363-9.516C66.022,225.134,66.66,224.915,67.301,224.701z"/>
		</g>
		
			<rect x="243.716" y="197.034" transform="matrix(-0.9879 0.1548 -0.1548 -0.9879 518.193 358.4538)" fill="#C77878" width="2.845" height="4.742"/>
		
			<rect x="240.909" y="197.544" transform="matrix(-0.9882 0.1529 -0.1529 -0.9882 511.4333 360.5107)" fill="#C77878" width="1.897" height="4.744"/>
		
			<rect x="237.158" y="198.131" transform="matrix(-0.9881 0.1539 -0.1539 -0.9881 504.2303 361.9784)" fill="#C77878" width="1.898" height="4.742"/>
		<polygon fill="#7E2121" points="249.716,203.013 235.016,205.308 234.045,199.084 		"/>
		<g opacity="0.3">
			<path fill="#837070" d="M23.617,273.834c0.002,0,0.008,0,0.161,0.936l-4.177,0.651c-0.395-0.898-0.622-0.864-0.837-0.83
				L23.617,273.834z"/>
			<path fill="#837070" d="M23.112,270.072c-0.017,0.001,0.118,0.94,0.105,0.942l-6.216,0.97c-0.143,0.023-0.422-0.894-0.544-0.875
				L23.112,270.072z"/>
			<path fill="#837070" d="M22.898,267.223c-0.028,0.004-0.053,0.009,0.07,0.951l-7.545,1.176c-0.223-0.925-0.296-0.912-0.359-0.904
				L22.898,267.223z"/>
			<path fill="#837070" d="M22.646,263.422c-0.014,0.001,0.005,0.219,0.012,0.347c0.01,0.216,0.05,0.603,0.028,0.604l-8.375,1.309
				c-0.02,0.003-0.174-0.933-0.174-0.933L22.646,263.422z"/>
			<path fill="#837070" d="M24.318,277.565c0.032-0.003,0.068-0.01,0.104-0.017l-1.52,0.237c-0.391,0.062-0.763,0.119-1.108,0.173
				L24.318,277.565z"/>
			<path fill="#837070" d="M23.271,248.917c-0.106,0.017-0.066,0.971-0.03,1.927l-5.176,0.808c0.201-0.992,0.424-1.988,0.811-2.049
				L23.271,248.917z"/>
			<path fill="#837070" d="M22.82,252.829c-0.081,0.013-0.019,0.963-0.1,0.976l-7.205,1.126c0.226-0.037,0.319-1.01,0.576-1.052
				L22.82,252.829z"/>
			<path fill="#837070" d="M24.124,246.863c-0.123,0.021-0.265,0.041-0.269,1.001l-2.553,0.398c0.33-1.011,0.835-1.089,1.358-1.171
				L24.124,246.863z"/>
			<path fill="#837070" d="M22.592,260.548c-0.048,0.007,0.051,0.953,0.004,0.961l-8.621,1.344c0.043-0.005-0.054-0.951,0.011-0.963
				L22.592,260.548z"/>
			<path fill="#837070" d="M22.519,257.606l-8.262,1.289c0.074-0.351,0.161-0.703,0.264-1.061l8.027-1.252
				C22.535,256.924,22.521,257.267,22.519,257.606z"/>
		</g>
		<path fill="#C77878" d="M28.444,245.248c-1.013,1.728-1.045,3.59-0.074,4.16c0.97,0.564,2.577-0.375,3.589-2.105
			c1.01-1.729,1.044-3.592,0.074-4.159C31.062,242.575,29.456,243.517,28.444,245.248z"/>
		<g>
			<path fill="#423333" d="M35.129,271.479c2.675,17.145,18.743,28.873,35.889,26.198c17.146-2.677,28.875-18.74,26.2-35.889
				c-2.677-17.146-18.744-28.875-35.891-26.198C44.183,238.263,32.453,254.333,35.129,271.479z"/>
			<circle fill="#210909" cx="66.173" cy="266.633" r="26.977"/>
			<circle fill="#896143" cx="66.174" cy="266.633" r="19.731"/>
			<circle fill="#5B2424" cx="66.173" cy="266.634" r="14.991"/>
			<circle cx="66.173" cy="266.633" r="6.498"/>
		</g>
		<g opacity="0.5">
			<rect x="168.489" y="231.095" fill="#7E2121" width="0" height="6.643"/>
			
				<rect x="162.856" y="231.902" transform="matrix(-0.9877 0.1562 -0.1562 -0.9877 361.4055 442.0394)" fill="#7E2121" width="0.95" height="6.641"/>
			
				<rect x="158.17" y="232.632" transform="matrix(-0.9882 0.1534 -0.1534 -0.9882 351.6007 444.7839)" fill="#7E2121" width="0.949" height="6.644"/>
			
				<rect x="152.546" y="233.511" transform="matrix(-0.988 0.1544 -0.1544 -0.988 340.768 447.2021)" fill="#7E2121" width="0.949" height="6.642"/>
			
				<rect x="146.914" y="234.314" transform="matrix(-0.9881 0.1539 -0.1539 -0.9881 330.5381 449.6819)" fill="#7E2121" width="1.897" height="6.643"/>
		</g>
		<g>
			<defs>
				<path id="SVGID_8_" d="M154.881,203.169c0.247,0.89,0.449,1.799,0.595,2.735c2.049,13.121-6.929,25.419-20.047,27.466
					c-13.122,2.048-25.419-6.929-27.467-20.05c-0.013-0.077-0.018-0.153-0.03-0.229c25.963-6.351,46.932-9.812,46.932-9.812
					C154.867,203.242,154.876,203.206,154.881,203.169z"/>
			</defs>
			<clipPath id="SVGID_9_">
				<use xlink:href="#SVGID_8_"  overflow="visible"/>
			</clipPath>
			<g clip-path="url(#SVGID_9_)">
				
					<text transform="matrix(-0.988 0.1542 0.1542 0.988 142.1924 225.625)" fill="#5B2424" font-family="'ChunkFive-Roman'" font-size="27.801">3</text>
			</g>
		</g>
		<circle opacity="0.2" fill="#5B2424" cx="121.928" cy="212.911" r="1.008"/>
		<circle opacity="0.2" fill="#5B2424" cx="116.527" cy="214.264" r="1.008"/>
		<path opacity="0.2" fill="#5B2424" d="M110.629,215.695c0.085,0.55,0.601,0.927,1.152,0.842c0.548-0.087,0.925-0.604,0.84-1.15
			c-0.086-0.554-0.602-0.931-1.151-0.843C110.918,214.629,110.543,215.146,110.629,215.695z"/>
	</g>
	<g>
		<g>
			<defs>
				<path id="SVGID_10_" d="M154.881,203.169c0.247,0.89,0.449,1.799,0.595,2.735c2.049,13.121-6.929,25.419-20.047,27.466
					c-13.122,2.048-25.419-6.929-27.467-20.05c-0.013-0.077-0.018-0.153-0.03-0.229c25.963-6.351,46.932-9.812,46.932-9.812
					C154.867,203.242,154.876,203.206,154.881,203.169z"/>
			</defs>
			<clipPath id="SVGID_11_">
				<use xlink:href="#SVGID_10_"  overflow="visible"/>
			</clipPath>
		</g>
	</g>
</g>
<path fill="#FFD3BB" d="M263.468,99.456c0,0,0.646,6.187-0.446,7.012c0,0-10.391-4.458-12.988-7.315c0,0-5.173,8.061-6.573,11.929
	c0,0,12.12,8.622,15.18,11.214c0,0,9.219,4.937,14.822,4.274c0,0,3.695-4.917,3.817-8.3l2.4-13.266
	C279.68,105.004,266.569,98.053,263.468,99.456z"/>
<path fill="#FFD3BB" d="M170.164,94.468c0,0-4.897-1.66-18.629,1.502c0,0-11.615-0.216-13.558-5.333c0,0-2.141-1.473,0.023-9.964
	c0,0,5.773-13.957,6.388-16.651l14.918,5.988c0,0-3.893,8.564-2.578,8.943c0,0,13.27,0.408,14.515-0.943
	C171.243,78.01,173.112,88.198,170.164,94.468z"/>
<path fill="#FFD3BB" d="M254.404,26.36"/>
<path fill="#FFD3BB" d="M253.057,34.902c0,0,3.698,9.438-3.36,19.403l-45.088-13.001c0,0,1.839-29.609,25.7-27.194l11.078,3.194"/>
<path fill="#D31845" d="M200.379,77.403l-3.644-1.051c0,0-24.98,0.496-27.84-0.232c0,0-2.983,19.052-3.612,20.266
	c0,0,9.28,1.838,13.462,0.812l-11.886,41.223l60.784,17.526l11.96-41.48c0,0,7.651,4.438,10.485,5.255
	c0,0,6.426-16.481,8.725-17.674c0,0-18.923-12.772-19.825-13.512l-4.732-1.007L200.379,77.403z"/>
<path fill="#FFD3BB" d="M248.002,53.816c0,0,0.194-18.841,0.63-20.184c0,0-15.727,2.075-28.205-8.132
	c0,0-11.083,2.775-11.524,17.043L248.002,53.816z"/>
<g>
	<path fill="#FEC3A3" d="M279.68,105.004c0,0-13.11-6.951-16.212-5.548c0,0,0.192,1.852,0.188,3.665l15.308,5.838L279.68,105.004z"
		/>
</g>
<g>
	<path fill="#FEC3A3" d="M157.473,74.483c0.816-2.237,1.833-4.472,1.833-4.472l-14.918-5.988c-0.167,0.731-0.716,2.298-1.427,4.189
		C146.411,70.348,151.969,73.351,157.473,74.483z"/>
</g>
<path fill="#FFD3BB" d="M252.341,55.106c0,0-4.426-5.593,3.224-6.693c0,0,4.4-0.308,5.886,5.509c0,0,1.618,5.855,1.744,8.911
	c0,0,1.094-0.411,2.904-0.601c0,0,4.916-0.595,10.604,1.62c0,0,2.637-0.931,6.832,2.099c0,0,5.76-3.182,8.865,2.842
	c0,0,4.876,4.824,2.915,22.488c0,0-0.23,17.595-15.635,13.723c0,0-16.047-2.633-17.089-6.922c0,0-0.307,2.049-6.45,0.633
	c0,0-13.678-3.73-15.753-4.542c0,0-3.732,0.99-4.136-2.545c0,0-1.207-7.47,6.316-5.016l5.612,0.194c0,0,7.77,5.658,9.26-4.451
	c0,0-0.123-11.43-2.966-17.377l-0.691-9.456"/>
<g>
	<g>
		<path fill="#FFC2A1" d="M263.399,66.092c-2.289,5.55,0.279,13.12,3.458,17.817c3.18,4.699,7.47,3.794,9.926-0.925
			c0.303-0.582-0.903-0.55-1.131-0.112c-1.215,2.334-3.013,4.563-5.688,2.709c-1.925-1.333-3.129-3.835-4.033-5.897
			c-1.721-3.919-3.104-9.35-1.4-13.479C264.784,65.588,263.589,65.633,263.399,66.092L263.399,66.092z"/>
	</g>
</g>
<g>
	<g>
		<path fill="#FFC2A1" d="M273.914,66.695c-1.157,5.536,0.269,12.645,3.15,17.455c3.257,5.435,7.454,0.645,9.245-3.154
			c0.253-0.536-0.938-0.406-1.111-0.04c-0.848,1.798-2.709,6.146-5.313,4.641c-1.804-1.042-2.686-3.653-3.336-5.486
			c-1.465-4.131-2.351-9.217-1.443-13.558C275.204,66.083,274.002,66.274,273.914,66.695L273.914,66.695z"/>
	</g>
</g>
<g>
	<g>
		<path fill="#FFC2A1" d="M283.997,71.827c0.258,5.029,1.752,10.253,7.198,11.583c0.275,0.067,0.771-0.039,0.917-0.313
			c1.794-3.369,3.281-7.015,1.813-10.776c-0.17-0.435-1.346-0.083-1.189,0.318c1.426,3.655,0.006,7.146-1.735,10.417
			c0.306-0.104,0.611-0.209,0.917-0.313c-5.218-1.274-6.489-6.515-6.731-11.233C285.166,71.102,283.973,71.352,283.997,71.827
			L283.997,71.827z"/>
	</g>
</g>
<g>
	<path fill="none" d="M183.393,77.539c0.602,0.155,0.967,0.242,1.009,0.253C184.035,77.678,183.701,77.599,183.393,77.539z"/>
	<path fill="#FFD3BB" d="M186.95,41.335c-0.04,0.047-0.09,0.102-0.129,0.147C186.821,41.483,187.611,41.853,186.95,41.335z"/>
	<path fill="#FFD3BB" d="M193.696,74.23l-6.254-2.854c0,0-6.663-3.72-6.542-7.104c0,0,2.391-9.28,11.09-14.748l9.458-9.093
		c0,0,6.511-7.995-4.591-7.901c-1.164,0.004-2.86,1.491-2.863,1.493c-1.986,1.984-5.473,5.5-7.044,7.311
		c0.661,0.517-0.129,0.147-0.129,0.147c0.039-0.046,0.089-0.101,0.129-0.147c-0.268-0.21-0.768-0.563-1.667-1.15
		c0,0,0.383-3.308-9.388-4.986c0,0,0.91-3.157-6.609-2.762c0,0-1.019,0.566-3.342-2.243c0,0-3.562-3.45-12.19,3.747
		c0,0-13.957,16.793-10.822,27.655c0,0,0.631,6.982,18.631,10.465c0,0,2.085-0.216,10.818,2.003c0,0,1.234,0.475,2.795,1.102
		c0.497,0.092,1.088,0.244,1.795,0.481c2.596,0.873,5.082,1.546,6.422,1.891c0.309,0.06,0.643,0.139,1.009,0.253
		c0.003,0,0.013,0.003,0.013,0.003s0,0-0.001,0c1.137,0.352,2.545,0.982,4.238,2.079C188.651,79.874,198.376,82.7,193.696,74.23z"/>
	<polygon fill="#FFD3BB" points="184.401,77.792 184.413,77.794 184.414,77.795 	"/>
</g>
<g>
	<g>
		<path fill="#FFC2A1" d="M154.452,33.661c-1.436,3.25-4.098,5.78-5.325,9.15c-0.706,1.94-0.031,5.319,2.598,5.184
			c5.068-0.261,9.848-6.444,12.128-10.446c0.118-0.208-0.998-0.123-1.178,0.192c-1.423,2.495-8.06,11.675-11.451,9.304
			c-4.388-3.067,3.091-10.598,4.406-13.578C155.74,33.218,154.596,33.335,154.452,33.661L154.452,33.661z"/>
	</g>
</g>
<g>
	<g>
		<path fill="#FFC2A1" d="M157.637,44.824c-0.807,1.576-2.428,4.51-0.54,5.951c1.124,0.859,3.044,0.417,4.278,0.145
			c4.926-1.086,11.629-5.16,12.344-10.517c0.055-0.41-1.136-0.183-1.184,0.172c-0.615,4.611-5.491,7.659-9.482,9.263
			c-1.453,0.584-3.705,1.365-5.102,0.299c-1.537-1.173,0.27-4.315,0.869-5.485C158.966,44.369,157.813,44.479,157.637,44.824
			L157.637,44.824z"/>
	</g>
</g>
<g>
	<g>
		<path fill="#FFC2A1" d="M165.707,49.211c-0.785,2.38-2.52,5.287-0.528,7.481c1.458,1.607,4.352,0.306,5.82-0.456
			c6.348-3.292,11.217-10.729,12.79-17.53c0.132-0.567-1.085-0.415-1.203,0.098c-1.106,4.782-3.651,8.895-6.926,12.503
			c-1.706,1.881-3.776,3.523-6.032,4.693c-1.38-0.345-2.76-0.69-4.14-1.036c-0.117-1.106,0.045-2.172,0.483-3.199
			c0.265-0.818,0.6-1.614,0.87-2.432C167.055,48.689,165.867,48.726,165.707,49.211L165.707,49.211z"/>
	</g>
</g>
<path fill="#383838" d="M248.34,85.268c-0.694,2.405-3.205,3.793-5.611,3.101l-52.83-15.234c-2.404-0.693-3.791-3.206-3.099-5.611
	l7.081-24.557c0.693-2.405,3.205-3.792,5.61-3.099l52.83,15.233c2.406,0.694,3.792,3.206,3.099,5.61L248.34,85.268z"/>
<g>
	
		<ellipse transform="matrix(0.9609 0.2768 -0.2768 0.9609 23.3 -51.8018)" fill="#FDFDFD" cx="195.124" cy="56.624" rx="1.228" ry="2.345"/>
	
		<line fill="none" stroke="#FFFFFF" stroke-width="0.8211" stroke-miterlimit="10" x1="195.971" y1="53.688" x2="197.173" y2="49.516"/>
	
		<line fill="none" stroke="#FFFFFF" stroke-width="0.8211" stroke-miterlimit="10" x1="193.074" y1="63.733" x2="194.277" y2="59.562"/>
</g>
<rect x="199.622" y="49.395" transform="matrix(0.9609 0.2771 -0.2771 0.9609 26.5403 -59.276)" fill="#FFFFFF" width="46.804" height="29.765"/>
<polygon fill="#D31845" points="217.339,72.358 207.61,71.477 206.588,75.027 233.217,82.705 234.183,79.352 227.115,74.964 "/>
<polygon fill="#FFD3BB" points="207.61,71.477 199.967,73.118 206.588,75.027 "/>
<polygon fill="#FFD3BB" points="234.183,79.352 240.316,84.752 233.217,82.705 "/>
<path fill="#FFD3BB" d="M218.352,60.9c0,0-0.767,1.916,0.304,2.651c0,0,0.146,4.314,1.644,5.602l-0.549,2.832
	c0,0-0.354,1.18-2.411,0.373c0,0-2.245,4.053,4.196,5.91c0,0,5.372,1.122,5.58-3.305l-2.309-0.879l0.823-2.86
	c0,0,3.185-1.966,3.883-4.115c0,0,2.365-0.076,2.054-2.398l0.835-6.597l-8.88-2.56l-3.557,0.873L218.352,60.9z"/>
<path fill="#5A3D1B" d="M249.785,19.644c-10.298-6.972-22.551-12.067-32.637-4.619c-7.781,5.756-10.407,13.666-11.28,18.81
	c-0.599,1.56-0.834,3.141-0.544,4.688c0,0,0.042-0.019,0.117-0.057c1.161-0.57,10.695-5.412,12.998-11.873
	c0,0,1.823,10.69,7.511,13.231c0,0-1.605-3.52-0.916-5.274c0,0,5.858,7.772,13.545,9.219c0,0-3.824-3.932-3.512-7.05
	c0,0,4.53,7.553,13.271,8.758c0,0-1.793-2.78-1.896-3.682c0,0,5.786,3.731,7.095,6.678c0.066,0.151,0.125,0.3,0.168,0.447
	c0,0,0.235-0.579,0.551-1.545c1.534-2.594,2.953-6.819,3.011-13.611C257.391,18.798,249.785,19.644,249.785,19.644z"/>
<path fill="#5A3D1B" d="M230.589,55.516c-2.839-1.922-6.217-3.327-8.996-1.273c-2.146,1.586-2.869,3.768-3.11,5.185
	c-0.166,0.431-0.229,0.867-0.149,1.293c0,0,0.011-0.005,0.032-0.017c0.318-0.156,2.947-1.492,3.583-3.272
	c0,0,0.502,2.947,2.07,3.647c0,0-0.443-0.97-0.254-1.454c0,0,1.614,2.142,3.736,2.542c0,0-1.057-1.084-0.97-1.944
	c0,0,1.249,2.082,3.658,2.414c0,0-0.494-0.767-0.522-1.015c0,0,1.596,1.028,1.956,1.841c0.019,0.042,0.035,0.083,0.047,0.123
	c0,0,0.065-0.16,0.15-0.426c0.424-0.715,0.815-1.879,0.832-3.751C232.686,55.283,230.589,55.516,230.589,55.516z"/>
<path fill="#824528" d="M224.602,44.412c0,0-4.125-4.958-8.813-1.086c0,0,1.57-2.92,5.695-1.862
	C221.484,41.463,225.485,42.948,224.602,44.412z"/>
<path fill="#824528" d="M233.004,46.769c0,0,6.131-2.001,8.036,3.771c0,0,0.228-3.306-3.828-4.609
	C237.212,45.932,233.034,45.059,233.004,46.769z"/>
<g>
	<g>
		<g>
			
				<ellipse transform="matrix(0.9607 0.2775 -0.2775 0.9607 26.3763 -59.1241)" fill="#401E0B" cx="222.102" cy="63.638" rx="0.567" ry="0.671"/>
			<circle fill="#FFFFFF" cx="222.16" cy="63.995" r="0.172"/>
		</g>
		<g>
			
				<ellipse transform="matrix(-0.9608 -0.2772 0.2772 -0.9608 427.6702 190.7498)" fill="#401E0B" cx="227.319" cy="65.143" rx="0.567" ry="0.671"/>
			<circle fill="#FFFFFF" cx="227.081" cy="65.413" r="0.171"/>
		</g>
	</g>
	<path fill="#824528" d="M224.358,61.851c0,0-0.915-1.099-1.953-0.241c0,0,0.348-0.646,1.262-0.412
		C223.667,61.197,224.554,61.525,224.358,61.851z"/>
	<path fill="#824528" d="M226.218,62.373c0,0,1.359-0.443,1.781,0.835c0,0,0.049-0.733-0.85-1.021
		C227.149,62.187,226.226,61.994,226.218,62.373z"/>
</g>
<path fill="#DDB59F" d="M225.022,65.939c0,0-0.055,0.411-0.373,0.442c-0.318,0.033,0.251,0.417,0.485,0.086
	C225.37,66.139,225.309,65.98,225.022,65.939"/>
<path fill="#D84853" d="M221.888,66.208c0,0,0.25,2.425,3.792,2.725C225.68,68.933,221.46,70.434,221.888,66.208"/>
<path fill="#FFD3BB" d="M205.483,76.981l-6.783,0.294c0,0-4.126,15.276,13.469,20.071c0,0,16.927,7.113,22.087-9.818
	c0,0-2.274-1.79-5.842-3.935L205.483,76.981z"/>
</svg>
