<?xml version="1.0" encoding="utf-8"?>
<!-- Generator: Adobe Illustrator 16.0.0, SVG Export Plug-In . SVG Version: 6.00 Build 0)  -->
<!DOCTYPE svg PUBLIC "-//W3C//DTD SVG 1.1//EN" "http://www.w3.org/Graphics/SVG/1.1/DTD/svg11.dtd">
<svg version="1.1" id="Layer_1" xmlns="http://www.w3.org/2000/svg" xmlns:xlink="http://www.w3.org/1999/xlink" x="0px" y="0px"
	 width="1300px" height="1800px" viewBox="0 0 1300 1800" enable-background="new 0 0 1300 1800" xml:space="preserve">
<rect x="-26.607" y="-40.798" fill="#252623" width="1353.214" height="1920"/>
<g>
	<ellipse fill="#929183" cx="190.998" cy="960.207" rx="2.738" ry="4.928"/>
</g>
<g>
	<ellipse fill="#929183" cx="105.308" cy="1028.103" rx="4.654" ry="3.832"/>
</g>
<g>
	<ellipse fill="#929183" cx="597.541" cy="1039.877" rx="4.654" ry="3.834"/>
</g>
<g>
	<circle fill="#929183" cx="295.312" cy="1118.445" r="4.107"/>
</g>
<g>
	<circle fill="#929183" cx="295.312" cy="1118.445" r="4.107"/>
</g>
<g>
	<path fill="#929183" d="M457.921,993.885c0-2.27-1.839-4.108-4.105-4.108c-2.27,0-4.107,1.84-4.107,4.108
		c0,2.267,1.839,4.105,4.107,4.105C456.082,997.99,457.921,996.15,457.921,993.885z"/>
</g>
<g>
	<circle fill="#929183" cx="634.5" cy="960.207" r="4.106"/>
</g>
<g>
	<circle fill="#929183" cx="387.669" cy="1118.445" r="4.107"/>
</g>
<g>
	<ellipse fill="#929183" cx="96.549" cy="1170.459" rx="4.107" ry="4.926"/>
</g>
<g>
	<ellipse fill="#929183" cx="514.59" cy="1190.994" rx="4.107" ry="4.654"/>
</g>
<g>
	<ellipse fill="#929183" cx="601.375" cy="1209.607" rx="3.833" ry="4.652"/>
</g>
<ellipse fill="#929183" cx="846.804" cy="960.209" rx="2.738" ry="4.928"/>
<ellipse fill="#929183" cx="761.114" cy="1028.104" rx="4.653" ry="3.832"/>
<ellipse fill="#929183" cx="1253.347" cy="1039.875" rx="4.654" ry="3.834"/>
<circle fill="#929183" cx="951.119" cy="1118.447" r="4.107"/>
<circle fill="#929183" cx="951.119" cy="1118.447" r="4.107"/>
<path fill="#929183" d="M1113.727,993.881c0,2.271-1.839,4.109-4.104,4.109c-2.271,0-4.108-1.84-4.108-4.109
	c0-2.266,1.84-4.104,4.108-4.104C1111.888,989.775,1113.727,991.615,1113.727,993.881z"/>
<circle fill="#929183" cx="1290.306" cy="960.209" r="4.106"/>
<circle fill="#929183" cx="1043.474" cy="1118.447" r="4.107"/>
<ellipse fill="#929183" cx="752.355" cy="1170.463" rx="4.106" ry="4.926"/>
<ellipse fill="#929183" cx="1170.396" cy="1190.994" rx="4.105" ry="4.654"/>
<ellipse fill="#929183" cx="1257.181" cy="1209.611" rx="3.833" ry="4.652"/>
<ellipse fill="#929183" cx="190.68" cy="230.27" rx="2.738" ry="4.928"/>
<ellipse fill="#929183" cx="104.992" cy="298.165" rx="4.654" ry="3.833"/>
<ellipse fill="#929183" cx="597.224" cy="309.937" rx="4.655" ry="3.833"/>
<circle fill="#929183" cx="294.995" cy="388.507" r="4.107"/>
<circle fill="#929183" cx="294.995" cy="388.507" r="4.107"/>
<circle fill="#929183" cx="194.786" cy="483.23" r="4.107"/>
<circle fill="#929183" cx="453.496" cy="263.943" r="4.107"/>
<circle fill="#929183" cx="556.074" cy="255.729" r="4.107"/>
<circle fill="#929183" cx="387.352" cy="388.507" r="4.107"/>
<ellipse fill="#929183" cx="96.231" cy="440.523" rx="4.107" ry="4.928"/>
<ellipse fill="#929183" cx="514.271" cy="461.055" rx="4.107" ry="4.654"/>
<ellipse fill="#929183" cx="601.057" cy="479.671" rx="3.833" ry="4.655"/>
<ellipse fill="#929183" cx="846.485" cy="230.27" rx="2.737" ry="4.928"/>
<ellipse fill="#929183" cx="760.797" cy="298.165" rx="4.654" ry="3.833"/>
<ellipse fill="#929183" cx="1253.029" cy="309.937" rx="4.654" ry="3.833"/>
<circle fill="#929183" cx="950.8" cy="388.507" r="4.107"/>
<circle fill="#929183" cx="950.8" cy="388.507" r="4.107"/>
<circle fill="#929183" cx="850.591" cy="483.23" r="4.106"/>
<circle fill="#929183" cx="1109.301" cy="263.943" r="4.107"/>
<circle fill="#929183" cx="1289.987" cy="230.27" r="4.106"/>
<circle fill="#929183" cx="1043.158" cy="388.507" r="4.107"/>
<ellipse fill="#929183" cx="752.037" cy="440.523" rx="4.106" ry="4.928"/>
<ellipse fill="#929183" cx="1170.077" cy="461.055" rx="4.105" ry="4.654"/>
<ellipse fill="#929183" cx="1256.862" cy="479.671" rx="3.833" ry="4.655"/>
<g>
	<ellipse fill="#929183" cx="104.359" cy="2.559" rx="4.654" ry="3.833"/>
</g>
<g>
	<ellipse fill="#929183" cx="596.591" cy="14.332" rx="4.655" ry="3.833"/>
</g>
<g>
	<circle fill="#929183" cx="294.362" cy="92.902" r="4.107"/>
</g>
<g>
	<circle fill="#929183" cx="294.362" cy="92.902" r="4.107"/>
</g>
<g>
	<circle fill="#929183" cx="194.154" cy="187.625" r="4.107"/>
</g>
<g>
	<circle fill="#929183" cx="386.719" cy="92.902" r="4.107"/>
</g>
<g>
	<ellipse fill="#929183" cx="95.598" cy="144.917" rx="4.107" ry="4.928"/>
</g>
<g>
	<ellipse fill="#929183" cx="513.638" cy="165.45" rx="4.107" ry="4.654"/>
</g>
<g>
	<ellipse fill="#929183" cx="600.424" cy="184.066" rx="3.833" ry="4.655"/>
</g>
<ellipse fill="#929183" cx="760.165" cy="2.559" rx="4.654" ry="3.833"/>
<ellipse fill="#929183" cx="1252.396" cy="14.332" rx="4.654" ry="3.833"/>
<circle fill="#929183" cx="950.167" cy="92.902" r="4.107"/>
<circle fill="#929183" cx="950.167" cy="92.902" r="4.107"/>
<circle fill="#929183" cx="849.958" cy="187.625" r="4.106"/>
<circle fill="#929183" cx="1042.524" cy="92.902" r="4.106"/>
<ellipse fill="#929183" cx="751.404" cy="144.917" rx="4.106" ry="4.928"/>
<ellipse fill="#929183" cx="1169.444" cy="165.449" rx="4.105" ry="4.654"/>
<ellipse fill="#929183" cx="1256.229" cy="184.066" rx="3.834" ry="4.655"/>
<ellipse fill="#929183" cx="189.413" cy="813.422" rx="2.738" ry="4.928"/>
<ellipse fill="#929183" cx="103.724" cy="881.317" rx="4.654" ry="3.832"/>
<ellipse fill="#929183" cx="595.956" cy="893.088" rx="4.654" ry="3.834"/>
<circle fill="#929183" cx="293.728" cy="971.66" r="4.107"/>
<circle fill="#929183" cx="293.728" cy="971.66" r="4.107"/>
<circle fill="#929183" cx="193.519" cy="1066.383" r="4.107"/>
<circle fill="#929183" cx="452.23" cy="847.095" r="4.107"/>
<circle fill="#929183" cx="554.806" cy="838.881" r="4.107"/>
<circle fill="#929183" cx="386.084" cy="971.66" r="4.107"/>
<ellipse fill="#929183" cx="94.964" cy="1023.676" rx="4.107" ry="4.926"/>
<ellipse fill="#929183" cx="513.006" cy="1044.207" rx="4.107" ry="4.654"/>
<ellipse fill="#929183" cx="599.789" cy="1062.824" rx="3.833" ry="4.652"/>
<ellipse fill="#929183" cx="845.219" cy="813.422" rx="2.738" ry="4.928"/>
<ellipse fill="#929183" cx="759.529" cy="881.317" rx="4.653" ry="3.832"/>
<ellipse fill="#929183" cx="1251.762" cy="893.088" rx="4.654" ry="3.834"/>
<circle fill="#929183" cx="949.534" cy="971.66" r="4.106"/>
<circle fill="#929183" cx="949.534" cy="971.66" r="4.106"/>
<circle fill="#929183" cx="849.325" cy="1066.383" r="4.106"/>
<circle fill="#929183" cx="1108.035" cy="847.095" r="4.106"/>
<circle fill="#929183" cx="1288.721" cy="813.422" r="4.107"/>
<circle fill="#929183" cx="1041.89" cy="971.66" r="4.106"/>
<ellipse fill="#929183" cx="750.771" cy="1023.676" rx="4.105" ry="4.926"/>
<ellipse fill="#929183" cx="1168.813" cy="1044.207" rx="4.105" ry="4.654"/>
<ellipse fill="#929183" cx="1255.596" cy="1062.824" rx="3.833" ry="4.652"/>
<g>
	<ellipse fill="#929183" cx="188.78" cy="517.816" rx="2.738" ry="4.928"/>
</g>
<g>
	<ellipse fill="#929183" cx="103.091" cy="585.711" rx="4.654" ry="3.833"/>
</g>
<g>
	<ellipse fill="#929183" cx="595.323" cy="597.483" rx="4.653" ry="3.833"/>
</g>
<g>
	<circle fill="#929183" cx="293.095" cy="676.055" r="4.107"/>
</g>
<g>
	<circle fill="#929183" cx="293.095" cy="676.055" r="4.107"/>
</g>
<g>
	<circle fill="#929183" cx="192.886" cy="770.776" r="4.107"/>
</g>
<g>
	<circle fill="#929183" cx="451.596" cy="551.489" r="4.107"/>
</g>
<g>
	<circle fill="#929183" cx="632.283" cy="517.817" r="4.107"/>
</g>
<g>
	<circle fill="#929183" cx="385.451" cy="676.055" r="4.107"/>
</g>
<g>
	<ellipse fill="#929183" cx="94.331" cy="728.069" rx="4.107" ry="4.928"/>
</g>
<g>
	<ellipse fill="#929183" cx="512.373" cy="748.601" rx="4.107" ry="4.654"/>
</g>
<g>
	<ellipse fill="#929183" cx="599.156" cy="767.219" rx="3.833" ry="4.655"/>
</g>
<ellipse fill="#929183" cx="844.586" cy="517.816" rx="2.738" ry="4.928"/>
<ellipse fill="#929183" cx="758.896" cy="585.711" rx="4.653" ry="3.833"/>
<ellipse fill="#929183" cx="1251.129" cy="597.484" rx="4.654" ry="3.833"/>
<circle fill="#929183" cx="948.901" cy="676.054" r="4.106"/>
<circle fill="#929183" cx="948.901" cy="676.054" r="4.106"/>
<circle fill="#929183" cx="848.692" cy="770.777" r="4.107"/>
<circle fill="#929183" cx="1107.402" cy="551.49" r="4.107"/>
<circle fill="#929183" cx="1288.088" cy="517.816" r="4.107"/>
<circle fill="#929183" cx="1041.257" cy="676.054" r="4.106"/>
<ellipse fill="#929183" cx="750.138" cy="728.069" rx="4.106" ry="4.928"/>
<ellipse fill="#929183" cx="1168.178" cy="748.602" rx="4.107" ry="4.654"/>
<ellipse fill="#929183" cx="1254.963" cy="767.218" rx="3.833" ry="4.655"/>
<ellipse fill="#929183" cx="27.633" cy="464.771" rx="4.655" ry="3.834"/>
<circle fill="#929183" cx="64.591" cy="385.105" r="4.107"/>
<ellipse fill="#929183" cx="31.466" cy="634.506" rx="3.833" ry="4.654"/>
<ellipse fill="#929183" cx="27" cy="169.166" rx="4.655" ry="3.834"/>
<circle fill="#929183" cx="63.958" cy="89.5" r="4.106"/>
<ellipse fill="#929183" cx="30.833" cy="338.902" rx="3.833" ry="4.652"/>
<ellipse fill="#929183" cx="30.517" cy="50.916" rx="3.833" ry="4.652"/>
<ellipse fill="#929183" cx="17.41" cy="1188.443" rx="4.655" ry="3.834"/>
<circle fill="#929183" cx="54.369" cy="1108.777" r="4.107"/>
<ellipse fill="#929183" cx="16.777" cy="892.838" rx="4.655" ry="3.834"/>
<circle fill="#929183" cx="53.735" cy="813.172" r="4.106"/>
<ellipse fill="#929183" cx="20.61" cy="1062.574" rx="3.833" ry="4.652"/>
<ellipse fill="#929183" cx="20.294" cy="774.588" rx="3.833" ry="4.652"/>
<ellipse fill="#929183" cx="193.647" cy="1446.132" rx="2.738" ry="4.928"/>
<ellipse fill="#929183" cx="107.959" cy="1514.026" rx="4.654" ry="3.834"/>
<ellipse fill="#929183" cx="600.191" cy="1525.8" rx="4.654" ry="3.832"/>
<circle fill="#929183" cx="297.962" cy="1604.37" r="4.107"/>
<circle fill="#929183" cx="297.962" cy="1604.37" r="4.107"/>
<circle fill="#929183" cx="197.754" cy="1699.093" r="4.107"/>
<circle fill="#929183" cx="456.464" cy="1479.806" r="4.107"/>
<circle fill="#929183" cx="559.041" cy="1471.592" r="4.107"/>
<circle fill="#929183" cx="390.319" cy="1604.37" r="4.107"/>
<ellipse fill="#929183" cx="99.198" cy="1656.386" rx="4.107" ry="4.928"/>
<ellipse fill="#929183" cx="517.239" cy="1676.917" rx="4.106" ry="4.654"/>
<ellipse fill="#929183" cx="604.024" cy="1695.533" rx="3.833" ry="4.655"/>
<ellipse fill="#929183" cx="849.453" cy="1446.132" rx="2.738" ry="4.928"/>
<ellipse fill="#929183" cx="763.765" cy="1514.026" rx="4.653" ry="3.834"/>
<ellipse fill="#929183" cx="1255.997" cy="1525.8" rx="4.655" ry="3.832"/>
<path fill="#929183" d="M957.875,1604.37c0,2.268-1.84,4.105-4.109,4.105c-2.266,0-4.104-1.839-4.104-4.105
	c0-2.27,1.84-4.107,4.104-4.107C956.035,1600.263,957.875,1602.103,957.875,1604.37z"/>
<path fill="#929183" d="M957.875,1604.37c0,2.268-1.84,4.105-4.109,4.105c-2.266,0-4.104-1.839-4.104-4.105
	c0-2.27,1.84-4.107,4.104-4.107C956.035,1600.263,957.875,1602.103,957.875,1604.37z"/>
<circle fill="#929183" cx="853.558" cy="1699.093" r="4.106"/>
<circle fill="#929183" cx="1112.27" cy="1479.806" r="4.106"/>
<circle fill="#929183" cx="1292.954" cy="1446.132" r="4.106"/>
<circle fill="#929183" cx="1046.125" cy="1604.37" r="4.107"/>
<path fill="#929183" d="M759.111,1656.386c0,2.721-1.84,4.928-4.109,4.928c-2.266,0-4.104-2.207-4.104-4.928
	c0-2.723,1.84-4.93,4.104-4.93C757.271,1651.456,759.111,1653.663,759.111,1656.386z"/>
<ellipse fill="#929183" cx="1173.044" cy="1676.917" rx="4.106" ry="4.654"/>
<ellipse fill="#929183" cx="1259.829" cy="1695.533" rx="3.833" ry="4.655"/>
<g>
	<ellipse fill="#929183" cx="107.326" cy="1218.421" rx="4.654" ry="3.832"/>
</g>
<g>
	<ellipse fill="#929183" cx="599.559" cy="1230.194" rx="4.655" ry="3.833"/>
</g>
<g>
	<circle fill="#929183" cx="297.329" cy="1308.765" r="4.107"/>
</g>
<g>
	<circle fill="#929183" cx="297.329" cy="1308.765" r="4.107"/>
</g>
<g>
	<circle fill="#929183" cx="197.121" cy="1403.487" r="4.107"/>
</g>
<g>
	<circle fill="#929183" cx="389.686" cy="1308.765" r="4.107"/>
</g>
<g>
	<ellipse fill="#929183" cx="98.565" cy="1360.779" rx="4.107" ry="4.928"/>
</g>
<g>
	<ellipse fill="#929183" cx="516.606" cy="1381.312" rx="4.106" ry="4.654"/>
</g>
<g>
	<ellipse fill="#929183" cx="603.391" cy="1399.929" rx="3.833" ry="4.654"/>
</g>
<ellipse fill="#929183" cx="763.132" cy="1218.421" rx="4.653" ry="3.834"/>
<ellipse fill="#929183" cx="1255.363" cy="1230.194" rx="4.654" ry="3.832"/>
<path fill="#929183" d="M957.242,1308.765c0,2.269-1.84,4.106-4.109,4.106c-2.266,0-4.104-1.839-4.104-4.106
	c0-2.269,1.84-4.106,4.104-4.106C955.402,1304.657,957.242,1306.496,957.242,1308.765z"/>
<path fill="#929183" d="M957.242,1308.765c0,2.269-1.84,4.106-4.109,4.106c-2.266,0-4.104-1.839-4.104-4.106
	c0-2.269,1.84-4.106,4.104-4.106C955.402,1304.657,957.242,1306.496,957.242,1308.765z"/>
<circle fill="#929183" cx="852.925" cy="1403.487" r="4.106"/>
<circle fill="#929183" cx="1045.491" cy="1308.765" r="4.106"/>
<path fill="#929183" d="M758.479,1360.78c0,2.721-1.84,4.928-4.108,4.928c-2.267,0-4.105-2.207-4.105-4.928
	c0-2.724,1.841-4.93,4.105-4.93C756.639,1355.853,758.479,1358.058,758.479,1360.78z"/>
<ellipse fill="#929183" cx="1172.411" cy="1381.312" rx="4.105" ry="4.654"/>
<ellipse fill="#929183" cx="1259.196" cy="1399.929" rx="3.833" ry="4.654"/>
<g>
	<ellipse fill="#929183" cx="191.748" cy="1733.679" rx="2.738" ry="4.928"/>
</g>
<g>
	<ellipse fill="#929183" cx="106.058" cy="1801.573" rx="4.654" ry="3.832"/>
</g>
<g>
	<circle fill="#929183" cx="454.564" cy="1767.352" r="4.107"/>
</g>
<g>
	<circle fill="#929183" cx="635.25" cy="1733.679" r="4.107"/>
</g>
<ellipse fill="#929183" cx="847.554" cy="1733.679" rx="2.737" ry="4.928"/>
<ellipse fill="#929183" cx="761.863" cy="1801.573" rx="4.653" ry="3.834"/>
<path fill="#929183" d="M1114.477,1767.353c0,2.269-1.84,4.105-4.104,4.105c-2.271,0-4.109-1.838-4.109-4.105
	c0-2.269,1.841-4.106,4.109-4.106C1112.637,1763.245,1114.477,1765.084,1114.477,1767.353z"/>
<circle fill="#929183" cx="1291.056" cy="1733.679" r="4.106"/>
<ellipse fill="#929183" cx="30.6" cy="1680.634" rx="4.655" ry="3.834"/>
<circle fill="#929183" cx="67.559" cy="1600.968" r="4.107"/>
<ellipse fill="#929183" cx="29.967" cy="1385.028" rx="4.655" ry="3.834"/>
<circle fill="#929183" cx="66.925" cy="1305.362" r="4.106"/>
<ellipse fill="#929183" cx="33.8" cy="1554.765" rx="3.833" ry="4.652"/>
<ellipse fill="#929183" cx="33.484" cy="1266.778" rx="3.833" ry="4.652"/>
</svg>
