<?xml version="1.0" encoding="utf-8"?>
<!-- Generator: Adobe Illustrator 16.0.0, SVG Export Plug-In . SVG Version: 6.00 Build 0)  -->
<!DOCTYPE svg PUBLIC "-//W3C//DTD SVG 1.1//EN" "http://www.w3.org/Graphics/SVG/1.1/DTD/svg11.dtd">
<svg version="1.1" id="Layer_1" xmlns="http://www.w3.org/2000/svg" xmlns:xlink="http://www.w3.org/1999/xlink" x="0px" y="0px"
	 width="550px" height="761.58px" viewBox="0 0 550 761.58" enable-background="new 0 0 550 761.58" xml:space="preserve">
<rect x="-14.466" y="-19.391" fill="#2F302D" width="592.315" height="805.459"/>
<g>
	<ellipse fill="#929183" cx="80.782" cy="398.149" rx="1.198" ry="2.156"/>
</g>
<g>
	<ellipse fill="#929183" cx="43.275" cy="427.869" rx="2.037" ry="1.678"/>
</g>
<g>
	<ellipse fill="#929183" cx="258.73" cy="433.023" rx="2.037" ry="1.679"/>
</g>
<g>
	<circle fill="#929183" cx="126.442" cy="467.411" r="1.798"/>
</g>
<g>
	<circle fill="#929183" cx="126.442" cy="467.411" r="1.798"/>
</g>
<g>
	<circle fill="#929183" cx="195.82" cy="412.892" r="1.798"/>
</g>
<g>
	<circle fill="#929183" cx="274.908" cy="398.15" r="1.797"/>
</g>
<g>
	<circle fill="#929183" cx="166.867" cy="467.411" r="1.797"/>
</g>
<g>
	<ellipse fill="#929183" cx="39.441" cy="490.179" rx="1.798" ry="2.155"/>
</g>
<g>
	<ellipse fill="#929183" cx="222.422" cy="499.168" rx="1.798" ry="2.037"/>
</g>
<g>
	<ellipse fill="#929183" cx="260.408" cy="507.315" rx="1.678" ry="2.036"/>
</g>
<ellipse fill="#929183" cx="367.835" cy="398.151" rx="1.198" ry="2.156"/>
<ellipse fill="#929183" cx="330.327" cy="427.869" rx="2.037" ry="1.678"/>
<ellipse fill="#929183" cx="545.783" cy="433.021" rx="2.037" ry="1.679"/>
<circle fill="#929183" cx="413.494" cy="467.414" r="1.798"/>
<circle fill="#929183" cx="413.494" cy="467.414" r="1.798"/>
<circle fill="#929183" cx="482.872" cy="412.89" r="1.798"/>
<circle fill="#929183" cx="561.96" cy="398.151" r="1.798"/>
<circle fill="#929183" cx="453.919" cy="467.414" r="1.797"/>
<ellipse fill="#929183" cx="326.494" cy="490.182" rx="1.797" ry="2.155"/>
<ellipse fill="#929183" cx="509.474" cy="499.168" rx="1.797" ry="2.037"/>
<ellipse fill="#929183" cx="547.461" cy="507.317" rx="1.678" ry="2.036"/>
<ellipse fill="#929183" cx="80.643" cy="78.649" rx="1.198" ry="2.157"/>
<ellipse fill="#929183" cx="43.136" cy="108.368" rx="2.037" ry="1.678"/>
<ellipse fill="#929183" cx="258.591" cy="113.521" rx="2.038" ry="1.678"/>
<circle fill="#929183" cx="126.302" cy="147.912" r="1.798"/>
<circle fill="#929183" cx="126.302" cy="147.912" r="1.798"/>
<circle fill="#929183" cx="82.44" cy="189.373" r="1.797"/>
<circle fill="#929183" cx="195.68" cy="93.389" r="1.798"/>
<circle fill="#929183" cx="240.58" cy="89.794" r="1.797"/>
<circle fill="#929183" cx="166.728" cy="147.912" r="1.798"/>
<ellipse fill="#929183" cx="39.302" cy="170.679" rx="1.798" ry="2.157"/>
<ellipse fill="#929183" cx="222.282" cy="179.667" rx="1.797" ry="2.037"/>
<ellipse fill="#929183" cx="260.269" cy="187.815" rx="1.678" ry="2.038"/>
<ellipse fill="#929183" cx="367.696" cy="78.649" rx="1.199" ry="2.157"/>
<ellipse fill="#929183" cx="330.189" cy="108.368" rx="2.037" ry="1.678"/>
<ellipse fill="#929183" cx="545.644" cy="113.521" rx="2.038" ry="1.678"/>
<circle fill="#929183" cx="413.355" cy="147.912" r="1.798"/>
<circle fill="#929183" cx="413.355" cy="147.912" r="1.798"/>
<circle fill="#929183" cx="369.493" cy="189.373" r="1.797"/>
<circle fill="#929183" cx="482.732" cy="93.389" r="1.798"/>
<circle fill="#929183" cx="561.821" cy="78.649" r="1.797"/>
<circle fill="#929183" cx="453.781" cy="147.912" r="1.797"/>
<ellipse fill="#929183" cx="326.354" cy="170.679" rx="1.798" ry="2.157"/>
<ellipse fill="#929183" cx="509.334" cy="179.667" rx="1.797" ry="2.037"/>
<ellipse fill="#929183" cx="547.321" cy="187.815" rx="1.678" ry="2.038"/>
<g>
	<circle fill="#929183" cx="126.025" cy="18.522" r="1.798"/>
</g>
<g>
	<circle fill="#929183" cx="126.025" cy="18.522" r="1.798"/>
</g>
<g>
	<circle fill="#929183" cx="82.163" cy="59.983" r="1.798"/>
</g>
<g>
	<circle fill="#929183" cx="166.451" cy="18.522" r="1.798"/>
</g>
<g>
	<ellipse fill="#929183" cx="39.025" cy="41.29" rx="1.798" ry="2.157"/>
</g>
<g>
	<ellipse fill="#929183" cx="222.005" cy="50.277" rx="1.798" ry="2.038"/>
</g>
<g>
	<ellipse fill="#929183" cx="259.992" cy="58.426" rx="1.678" ry="2.037"/>
</g>
<circle fill="#929183" cx="413.078" cy="18.522" r="1.798"/>
<circle fill="#929183" cx="413.078" cy="18.522" r="1.798"/>
<circle fill="#929183" cx="369.215" cy="59.983" r="1.797"/>
<circle fill="#929183" cx="453.504" cy="18.522" r="1.797"/>
<ellipse fill="#929183" cx="326.077" cy="41.29" rx="1.798" ry="2.157"/>
<ellipse fill="#929183" cx="509.057" cy="50.277" rx="1.797" ry="2.038"/>
<ellipse fill="#929183" cx="547.045" cy="58.426" rx="1.678" ry="2.037"/>
<ellipse fill="#929183" cx="80.089" cy="333.901" rx="1.198" ry="2.157"/>
<ellipse fill="#929183" cx="42.582" cy="363.619" rx="2.037" ry="1.678"/>
<ellipse fill="#929183" cx="258.036" cy="368.771" rx="2.037" ry="1.679"/>
<circle fill="#929183" cx="125.748" cy="403.164" r="1.797"/>
<circle fill="#929183" cx="125.748" cy="403.164" r="1.797"/>
<circle fill="#929183" cx="81.886" cy="444.624" r="1.798"/>
<circle fill="#929183" cx="195.126" cy="348.64" r="1.798"/>
<circle fill="#929183" cx="240.024" cy="345.045" r="1.797"/>
<circle fill="#929183" cx="166.173" cy="403.164" r="1.797"/>
<ellipse fill="#929183" cx="38.747" cy="425.932" rx="1.798" ry="2.155"/>
<ellipse fill="#929183" cx="221.728" cy="434.918" rx="1.798" ry="2.037"/>
<ellipse fill="#929183" cx="259.714" cy="443.067" rx="1.678" ry="2.036"/>
<ellipse fill="#929183" cx="367.142" cy="333.901" rx="1.198" ry="2.157"/>
<ellipse fill="#929183" cx="329.634" cy="363.619" rx="2.038" ry="1.678"/>
<ellipse fill="#929183" cx="545.089" cy="368.771" rx="2.037" ry="1.679"/>
<circle fill="#929183" cx="412.801" cy="403.164" r="1.797"/>
<circle fill="#929183" cx="412.801" cy="403.164" r="1.797"/>
<circle fill="#929183" cx="368.938" cy="444.624" r="1.797"/>
<circle fill="#929183" cx="482.178" cy="348.64" r="1.797"/>
<circle fill="#929183" cx="561.267" cy="333.901" r="1.798"/>
<circle fill="#929183" cx="453.226" cy="403.164" r="1.797"/>
<ellipse fill="#929183" cx="325.8" cy="425.932" rx="1.797" ry="2.155"/>
<ellipse fill="#929183" cx="508.781" cy="434.918" rx="1.797" ry="2.037"/>
<ellipse fill="#929183" cx="546.767" cy="443.067" rx="1.677" ry="2.036"/>
<g>
	<ellipse fill="#929183" cx="79.812" cy="204.511" rx="1.198" ry="2.157"/>
</g>
<g>
	<ellipse fill="#929183" cx="42.304" cy="234.229" rx="2.037" ry="1.678"/>
</g>
<g>
	<ellipse fill="#929183" cx="257.76" cy="239.383" rx="2.037" ry="1.678"/>
</g>
<g>
	<circle fill="#929183" cx="125.471" cy="273.774" r="1.798"/>
</g>
<g>
	<circle fill="#929183" cx="125.471" cy="273.774" r="1.798"/>
</g>
<g>
	<circle fill="#929183" cx="81.609" cy="315.234" r="1.798"/>
</g>
<g>
	<circle fill="#929183" cx="194.849" cy="219.251" r="1.798"/>
</g>
<g>
	<circle fill="#929183" cx="273.937" cy="204.512" r="1.798"/>
</g>
<g>
	<circle fill="#929183" cx="165.896" cy="273.774" r="1.797"/>
</g>
<g>
	<ellipse fill="#929183" cx="38.47" cy="296.541" rx="1.797" ry="2.157"/>
</g>
<g>
	<ellipse fill="#929183" cx="221.451" cy="305.528" rx="1.797" ry="2.037"/>
</g>
<g>
	<ellipse fill="#929183" cx="259.437" cy="313.678" rx="1.678" ry="2.038"/>
</g>
<ellipse fill="#929183" cx="366.864" cy="204.512" rx="1.198" ry="2.157"/>
<ellipse fill="#929183" cx="329.357" cy="234.23" rx="2.037" ry="1.678"/>
<ellipse fill="#929183" cx="544.812" cy="239.383" rx="2.038" ry="1.678"/>
<circle fill="#929183" cx="412.524" cy="273.774" r="1.797"/>
<circle fill="#929183" cx="412.524" cy="273.774" r="1.797"/>
<circle fill="#929183" cx="368.661" cy="315.235" r="1.798"/>
<circle fill="#929183" cx="481.901" cy="219.25" r="1.798"/>
<circle fill="#929183" cx="560.989" cy="204.512" r="1.798"/>
<circle fill="#929183" cx="452.949" cy="273.774" r="1.797"/>
<ellipse fill="#929183" cx="325.523" cy="296.542" rx="1.797" ry="2.157"/>
<ellipse fill="#929183" cx="508.504" cy="305.528" rx="1.798" ry="2.037"/>
<ellipse fill="#929183" cx="546.49" cy="313.677" rx="1.678" ry="2.038"/>
<ellipse fill="#929183" cx="9.276" cy="181.293" rx="2.038" ry="1.678"/>
<circle fill="#929183" cx="25.453" cy="146.423" r="1.798"/>
<ellipse fill="#929183" cx="10.953" cy="255.587" rx="1.678" ry="2.038"/>
<ellipse fill="#929183" cx="8.999" cy="51.904" rx="2.038" ry="1.678"/>
<circle fill="#929183" cx="25.176" cy="17.033" r="1.797"/>
<ellipse fill="#929183" cx="10.677" cy="126.199" rx="1.678" ry="2.036"/>
<ellipse fill="#929183" cx="10.538" cy="0.145" rx="1.678" ry="2.037"/>
<ellipse fill="#929183" cx="4.801" cy="498.052" rx="2.038" ry="1.679"/>
<circle fill="#929183" cx="20.978" cy="463.182" r="1.798"/>
<ellipse fill="#929183" cx="4.524" cy="368.662" rx="2.038" ry="1.678"/>
<circle fill="#929183" cx="20.701" cy="333.792" r="1.797"/>
<ellipse fill="#929183" cx="6.202" cy="442.957" rx="1.678" ry="2.036"/>
<ellipse fill="#929183" cx="6.063" cy="316.903" rx="1.677" ry="2.037"/>
<ellipse fill="#929183" cx="81.942" cy="610.845" rx="1.199" ry="2.156"/>
<ellipse fill="#929183" cx="44.436" cy="640.563" rx="2.037" ry="1.678"/>
<ellipse fill="#929183" cx="259.89" cy="645.716" rx="2.038" ry="1.678"/>
<circle fill="#929183" cx="127.602" cy="680.106" r="1.797"/>
<circle fill="#929183" cx="127.602" cy="680.106" r="1.797"/>
<circle fill="#929183" cx="83.739" cy="721.568" r="1.798"/>
<circle fill="#929183" cx="196.979" cy="625.584" r="1.797"/>
<circle fill="#929183" cx="241.878" cy="621.988" r="1.798"/>
<circle fill="#929183" cx="168.027" cy="680.106" r="1.798"/>
<ellipse fill="#929183" cx="40.601" cy="702.875" rx="1.798" ry="2.156"/>
<ellipse fill="#929183" cx="223.581" cy="711.861" rx="1.797" ry="2.037"/>
<ellipse fill="#929183" cx="261.568" cy="720.01" rx="1.678" ry="2.038"/>
<ellipse fill="#929183" cx="368.995" cy="610.845" rx="1.199" ry="2.156"/>
<ellipse fill="#929183" cx="331.488" cy="640.563" rx="2.037" ry="1.678"/>
<ellipse fill="#929183" cx="546.943" cy="645.716" rx="2.038" ry="1.678"/>
<circle fill="#929183" cx="414.654" cy="680.106" r="1.798"/>
<circle fill="#929183" cx="414.654" cy="680.106" r="1.798"/>
<circle fill="#929183" cx="370.792" cy="721.568" r="1.797"/>
<circle fill="#929183" cx="484.031" cy="625.584" r="1.798"/>
<circle fill="#929183" cx="563.119" cy="610.845" r="1.797"/>
<circle fill="#929183" cx="455.08" cy="680.106" r="1.798"/>
<ellipse fill="#929183" cx="327.653" cy="702.875" rx="1.798" ry="2.156"/>
<ellipse fill="#929183" cx="510.633" cy="711.861" rx="1.797" ry="2.037"/>
<ellipse fill="#929183" cx="548.62" cy="720.01" rx="1.677" ry="2.038"/>
<g>
	<ellipse fill="#929183" cx="44.158" cy="511.174" rx="2.037" ry="1.678"/>
</g>
<g>
	<ellipse fill="#929183" cx="259.613" cy="516.326" rx="2.037" ry="1.678"/>
</g>
<g>
	<circle fill="#929183" cx="127.324" cy="550.716" r="1.798"/>
</g>
<g>
	<circle fill="#929183" cx="127.324" cy="550.716" r="1.798"/>
</g>
<g>
	<circle fill="#929183" cx="83.462" cy="592.178" r="1.797"/>
</g>
<g>
	<circle fill="#929183" cx="167.75" cy="550.716" r="1.798"/>
</g>
<g>
	<ellipse fill="#929183" cx="40.323" cy="573.485" rx="1.798" ry="2.157"/>
</g>
<g>
	<ellipse fill="#929183" cx="223.304" cy="582.471" rx="1.798" ry="2.036"/>
</g>
<g>
	<ellipse fill="#929183" cx="261.291" cy="590.621" rx="1.677" ry="2.037"/>
</g>
<ellipse fill="#929183" cx="331.211" cy="511.174" rx="2.037" ry="1.678"/>
<ellipse fill="#929183" cx="546.666" cy="516.326" rx="2.038" ry="1.678"/>
<circle fill="#929183" cx="414.377" cy="550.718" r="1.798"/>
<circle fill="#929183" cx="414.377" cy="550.718" r="1.798"/>
<circle fill="#929183" cx="370.514" cy="592.179" r="1.797"/>
<circle fill="#929183" cx="454.802" cy="550.718" r="1.797"/>
<ellipse fill="#929183" cx="327.376" cy="573.485" rx="1.798" ry="2.157"/>
<ellipse fill="#929183" cx="510.357" cy="582.473" rx="1.797" ry="2.036"/>
<ellipse fill="#929183" cx="548.343" cy="590.621" rx="1.678" ry="2.037"/>
<g>
	<ellipse fill="#929183" cx="81.11" cy="736.706" rx="1.198" ry="2.156"/>
</g>
<g>
	<ellipse fill="#929183" cx="43.603" cy="766.425" rx="2.037" ry="1.678"/>
</g>
<g>
	<circle fill="#929183" cx="196.147" cy="751.445" r="1.797"/>
</g>
<g>
	<circle fill="#929183" cx="275.236" cy="736.706" r="1.798"/>
</g>
<ellipse fill="#929183" cx="368.163" cy="736.707" rx="1.198" ry="2.156"/>
<ellipse fill="#929183" cx="330.655" cy="766.425" rx="2.037" ry="1.678"/>
<circle fill="#929183" cx="483.2" cy="751.446" r="1.797"/>
<circle fill="#929183" cx="562.288" cy="736.707" r="1.797"/>
<ellipse fill="#929183" cx="10.574" cy="713.488" rx="2.038" ry="1.678"/>
<circle fill="#929183" cx="26.751" cy="678.617" r="1.798"/>
<ellipse fill="#929183" cx="10.297" cy="584.099" rx="2.038" ry="1.679"/>
<circle fill="#929183" cx="26.474" cy="549.229" r="1.797"/>
<ellipse fill="#929183" cx="11.975" cy="658.395" rx="1.677" ry="2.036"/>
<ellipse fill="#929183" cx="11.837" cy="532.34" rx="1.677" ry="2.036"/>
</svg>
