<?xml version="1.0" encoding="utf-8"?>
<!-- Generator: Adobe Illustrator 16.0.0, SVG Export Plug-In . SVG Version: 6.00 Build 0)  -->
<!DOCTYPE svg PUBLIC "-//W3C//DTD SVG 1.1//EN" "http://www.w3.org/Graphics/SVG/1.1/DTD/svg11.dtd">
<svg version="1.1" id="Layer_1" xmlns="http://www.w3.org/2000/svg" xmlns:xlink="http://www.w3.org/1999/xlink" x="0px" y="0px"
	 width="1300px" height="2600px" viewBox="0 0 1300 2600" enable-background="new 0 0 1300 2600" xml:space="preserve">
<g>
	<circle opacity="0.1" fill="#F9F9F7" cx="1135.167" cy="393.19" r="74.513"/>
	<g>
		<g>
			<defs>
				<path id="SVGID_1_" d="M1066.26,393.19c0-14.34,4.358-27.661,11.823-38.709c12.442-18.417,33.516-30.528,57.413-30.528
					c38.238,0,69.236,30.999,69.236,69.237c0,15.353-4.997,29.541-13.457,41.022c-12.604,17.111-32.895,28.214-55.779,28.214
					C1097.258,462.427,1066.26,431.428,1066.26,393.19z"/>
			</defs>
			<use xlink:href="#SVGID_1_"  overflow="visible" fill="#36B1BA"/>
			<clipPath id="SVGID_2_">
				<use xlink:href="#SVGID_1_"  overflow="visible"/>
			</clipPath>
			<path clip-path="url(#SVGID_2_)" fill="#8ABA45" d="M1078.083,354.481c0,0,28.057-5.747,31.579,0.97
				c1.566,2.988-5.69,6.95-7.173,9.98c-1.148,2.351-4.367,7.859,0.311,9.731c4.679,1.872,10.292,2.808,10.292,7.485
				s1.799,10.647,4.679,10.543c3.698-0.134,6.375-9.287,9.356-11.479c3.044-2.236,10.695-7.385,14.035-5.614
				c2.556,1.356,5.207,7.036,5.457,9.917c0.286,3.272-0.865,12.573-3.587,14.41c-1.573,1.062-5.73-1.525-7.536-0.936
				c-4.868,1.59-10.45,11.533-14.919,14.034c-4.732,2.651-16.516,0.707-21.519,2.807c-1.74,0.728-3.743,3.743-0.937,7.485
				c2.807,3.743,12.835,8.21,15.906,12.164c1.12,1.442,2.807,8.421-5.614,4.677c-8.421-3.742-22.119-14.855-26.197-22.455
				c-2.975-5.544-3.742-16.341-2.807-25.011c0.936-8.672-14.971-15.22-18.713-16.156"/>
			<path clip-path="url(#SVGID_2_)" fill="#8ABA45" d="M1098.122,344.755c3.418,9.519,16.396-0.941,19.648,2.806
				c1.762,2.033-2.338,9.429,0,10.761c1.774,1.011,7.914-0.96,11.657-0.375c4.849,0.758,6.162,1.158,8.654,2.572
				c1.289,0.731,3.392,3.274,5.73,7.485c2.34,4.21,2.963,7.626,2.963,7.626s1.328,4.073,3.742,6.081
				c3.701,3.082,7.204-0.702,10.059-2.572c2.854-1.872,4.556-1.587,13.332-4.445c12.163-3.958,8.115-14.431,4.679-17.309
				c-3.517-2.944-10.761-3.743-18.245-1.871c-7.485,1.871-15.827,2.12-21.675-0.687c-2.788-1.337-10.877-6.354-12.28-8.577
				c-2.823-4.469-2.456-8.655-2.456-8.655s0.823-6.901-1.95-7.343c-3.079-0.491-7.515,0.796-12.669,3.952
				c-2.427,1.485-6.12,3.791-7.953,4.911C1100.088,339.893,1097.148,342.041,1098.122,344.755z"/>
			<path clip-path="url(#SVGID_2_)" fill="#8ABA45" d="M1204.732,386.08c0,0-10.52,5.345-10.798,1.134
				c-0.435-6.576,4.423-6.125,2.742-9.244c-1.809-3.354-14.035-4.75-14.035,5.927c0,5.927-7.559,5.31-8.421,9.293
				c-0.296,1.364,0.617,4.063,4.368,3.492c8.614-1.311,8.856,1.091,8.38,2.783c-0.398,1.416-1.465,2.771-2.767,3.455
				c-5.446,2.86-20.321-0.928-24.326,3.742c-1.188,1.385-0.002,4.364-2.496,6.861c-2.495,2.496-17.146,6.951-16.842,8.98
				c0.702,4.679,14.261,3.275,18.086,2.324c3.276-0.816,4.47-5.866,8.836-7.115c4.365-1.247,8.388-4.578,11.129-3.564
				c1.869,0.691,4.958,5.484-5.614,14.97c-11.981,10.75-24.551,1.29-31.188,5.613c-1.528,0.997-0.313,3.617-2.494,6.86
				c-1.795,2.667-7.809,3.294-8.733,5.614c-2.651,6.643,1.246,12.975,11.851,15.221
				C1153.015,464.673,1217.779,458.435,1204.732,386.08z"/>
		</g>
		<path fill="#7DC823" d="M1135.496,339.766"/>
		<path fill="#7DC823" d="M1115.147,422.971c-1.2,0.262-4.85,1.811-2.136,4.429c2.715,2.618,3.366,1.191,5.516-0.242
			c2.148-1.435,2.142-4.266,0.383-3.995C1117.173,423.431,1116.853,422.598,1115.147,422.971z"/>
		<path fill="#8ABA45" d="M1134.679,335.193c-1.856-0.256-6.662,0.417,1.115,7.229c7.781,6.813,10.665,4.847,11.026,4.127
			c1.014-2.027-0.702-6.784-5.196-8.583C1138.959,336.899,1137.313,335.559,1134.679,335.193z"/>
		<path fill="#7DC823" d="M1120.254,428.163c-0.336,0.159-1.306,0.859-0.33,1.449c0.975,0.587,1.069,0.122,1.605-0.445
			c0.535-0.565,0.309-0.984-0.156-1.2C1120.892,427.744,1120.729,427.94,1120.254,428.163z"/>
	</g>
	<path opacity="0.2" fill="#7C7979" d="M1175.046,336.008c0,0,48.695,99.593-55.546,124.739c0,0,60.553,15.624,83.053-48.433
		C1202.553,412.314,1218.222,367.508,1175.046,336.008z"/>
</g>
<g>
	<circle opacity="0.1" fill="#F9F9F7" cx="1086.163" cy="2312.476" r="57.306"/>
	<g>
		<g>
			<g>
				<g>
					<path fill="#E15444" d="M1094.23,2288.891c-51.336-17.094-96.383-20.656-100.613-7.954
						c-4.225,12.696,33.961,36.846,85.301,53.942c51.336,17.091,96.383,20.649,100.611,7.951S1145.566,2305.987,1094.23,2288.891z
						 M1080.867,2329.024c-38.27-12.742-66.738-30.747-63.588-40.215c3.152-9.464,36.73-6.81,75.002,5.933
						c38.268,12.743,66.738,30.747,63.588,40.212C1152.715,2344.421,1119.139,2341.766,1080.867,2329.024z"/>
					<path fill="#C6413E" d="M1094.094,2290.383c-50.104-16.463-93.979-20.158-98-8.25c-4.014,11.902,34.066,33.948,84.17,50.414
						c50.104,16.458,93.254,21.099,97.271,9.192C1181.555,2329.837,1144.193,2306.845,1094.094,2290.383z M1080.662,2331.365
						c-47.357-15.562-83.396-36.352-79.6-47.606c3.799-11.251,45.27-7.759,92.631,7.802c47.357,15.562,82.674,37.298,78.877,48.55
						C1168.77,2351.364,1128.025,2346.925,1080.662,2331.365z"/>
				</g>
				<g>
					<g>
						<path fill="#F4C02F" d="M1078.863,2334.89c-16.43-5.471-31.502-11.666-44.279-17.977c0.182,2.068,0.475,4.147,0.916,6.232
							c5.922,27.953,33.385,45.814,61.338,39.894c11.168-2.366,20.717-8.179,27.791-16.076
							C1110.732,2344.349,1095.117,2340.3,1078.863,2334.89z"/>
						<g>
							<defs>
								<path id="XMLID_2_" d="M1137.496,2306.399c-0.121-1.569-0.434-3.129-0.766-4.699c-5.922-27.954-33.383-45.815-61.338-39.894
									c-10.678,2.262-20.186,7.389-26.842,15.045c-1.418,1.631-4.115,5.011-5.391,6.753c-5.178,7.069-7.92,15.776-8.621,24.744
									c11.461,7.084,27.707,14.504,46.273,20.688c18.348,6.107,35.602,9.891,48.959,11.14c4.73-7.446,7.955-16.079,8.025-25.169
									C1137.811,2312.853,1137.662,2308.546,1137.496,2306.399z"/>
							</defs>
							<use xlink:href="#XMLID_2_"  overflow="visible" fill="#F2C549"/>
							<clipPath id="XMLID_4_">
								<use xlink:href="#XMLID_2_"  overflow="visible"/>
							</clipPath>
							<path opacity="0.8" clip-path="url(#XMLID_4_)" fill="#F4CF67" d="M1047.979,2270.344c0,0,45.83,33.44,96.979,35.048
								l-1.086,6.797c0,0-72.736-10.36-102.381-40.53"/>
							<path opacity="0.8" clip-path="url(#XMLID_4_)" fill="#F4CF67" d="M1033.029,2323.349c0,0,46.973,27.385,96.094,25.629
								l-0.412,6.219c0,0-70.598-4.811-101.771-30.251"/>
							<path opacity="0.8" clip-path="url(#XMLID_4_)" fill="#F4CF67" d="M1048.166,2262.688c0,0,48.248,33.724,99.398,35.332
								l-0.723,4.524c0,0-72.736-10.36-102.381-40.531"/>
							<path opacity="0.6" clip-path="url(#XMLID_4_)" fill="#F4CF67" d="M1036.295,2283.622c0,0,53.178,34.242,104.326,35.85
								l-2.639,11.74c0,0-75.221-7.982-104.863-38.153"/>
						</g>
					</g>
				</g>
			</g>
		</g>
		<path opacity="0.2" fill="#D35029" d="M1121.465,2274.641c0,0,19.846,82.455-59.234,83.416c0,0,30.309,17.945,57.943-6.688
			c4.295-3.83,7.752-8.934,11.838-15.034C1132.012,2336.334,1151.111,2305.327,1121.465,2274.641z"/>
	</g>
</g>
<g>
	<g>
		<path fill="#F4C02F" d="M263.804,1015.02c-6.599,19.365-38.436,20.367-96.682,0.963c-64.142-21.367-81.161-45.309-75.946-60.336"
			/>
		<path fill="#CC5F23" d="M301.658,1015.204c-5.043,13.977-65.115,11.324-129.833-12.031
			c-64.718-23.352-114.069-57.404-108.435-73.023c1.798-4.98,60.602-20.793,132.42,6.557
			C260.109,961.192,302.834,1011.946,301.658,1015.204z"/>
		<path fill="#E27F34" d="M300.651,1013.19c-5.043,13.975-62.54,8.992-127.258-14.361c-64.718-23.355-112.741-54.596-107.106-70.211
			c1.799-4.982,66.374-19.61,131.092,3.742C262.096,955.713,301.827,1009.934,300.651,1013.19z"/>
		<g>
			<g>
				<g opacity="0.29">
					<circle fill="#6D6D61" cx="87.686" cy="939.573" r="4.362"/>
				</g>
				<g>
					<circle fill="#F4F0DF" cx="86.813" cy="939.573" r="4.362"/>
				</g>
			</g>
			<g>
				<g opacity="0.29">
					<circle fill="#6D6D61" cx="106.419" cy="953.193" r="4.362"/>
				</g>
				<g>
					<circle fill="#F4F0DF" cx="105.546" cy="953.193" r="4.362"/>
				</g>
			</g>
			<g>
				<g opacity="0.29">
					<circle fill="#6D6D61" cx="128.77" cy="965.895" r="4.362"/>
				</g>
				<g>
					<circle fill="#F4F0DF" cx="127.897" cy="965.895" r="4.362"/>
				</g>
			</g>
			<g>
				<g opacity="0.29">
					<circle fill="#6D6D61" cx="276.832" cy="1007.827" r="4.361"/>
				</g>
				<g>
					<circle fill="#F4F0DF" cx="275.959" cy="1007.827" r="4.361"/>
				</g>
			</g>
			<g>
				<g opacity="0.29">
					<circle fill="#6D6D61" cx="253.715" cy="1006.346" r="4.362"/>
				</g>
				<g>
					<circle fill="#F4F0DF" cx="252.842" cy="1006.346" r="4.362"/>
				</g>
			</g>
			<g>
				<g opacity="0.29">
					<circle fill="#6D6D61" cx="228.406" cy="1001.848" r="4.362"/>
				</g>
				<g>
					<circle fill="#F4F0DF" cx="227.533" cy="1001.848" r="4.362"/>
				</g>
			</g>
			<g>
				<g opacity="0.29">
					<circle fill="#6D6D61" cx="152.993" cy="977.05" r="4.362"/>
				</g>
				<g>
					<circle fill="#F4F0DF" cx="152.121" cy="977.05" r="4.362"/>
				</g>
			</g>
			<g>
				<g opacity="0.29">
					<circle fill="#6D6D61" cx="177.989" cy="986.071" r="4.362"/>
				</g>
				<g>
					<circle fill="#F4F0DF" cx="177.116" cy="986.071" r="4.362"/>
				</g>
			</g>
			<g>
				<g opacity="0.29">
					<circle fill="#6D6D61" cx="202.984" cy="995.09" r="4.361"/>
				</g>
				<g>
					<circle fill="#F4F0DF" cx="202.111" cy="995.09" r="4.361"/>
				</g>
			</g>
		</g>
		<path fill="#BDE5E2" d="M147.383,932.243c0,0,6.769-48.73,10.949-64.621c7.028-26.715,41.715-38.172,72.211-27.166l0,0
			c30.497,11.004,49.875,41.971,38.224,67.018c-6.93,14.898-32.838,56.725-32.838,56.725s-25.422-5.768-46.313-13.307
			C171.013,944.178,147.383,932.243,147.383,932.243z"/>
	</g>
	<g>
		<path fill="#8ABA45" d="M212.967,957.905l21.709-45.164c7.551-20.926-6.386-30.492-19.464-35.211l0,0
			c-13.077-4.719-30.115-3.549-36.926,15.324l-12.672,47.965C165.614,940.819,189.556,952.518,212.967,957.905z"/>
		<g>
			<path fill="#697F41" d="M183.533,922.108c0,0,0.061,0.119,0.173,0.346c0.11,0.227,0.275,0.563,0.522,0.959
				c0.224,0.41,0.54,0.881,0.919,1.412c0.371,0.533,0.847,1.096,1.35,1.713c0.531,0.598,1.108,1.24,1.792,1.846
				c0.323,0.322,0.674,0.631,1.059,0.918c0.382,0.285,0.738,0.621,1.148,0.9c0.411,0.275,0.829,0.555,1.253,0.838
				c0.418,0.291,0.896,0.494,1.344,0.756c0.888,0.543,1.904,0.855,2.869,1.271l1.515,0.436c0.253,0.07,0.502,0.154,0.756,0.211
				l0.771,0.125c0.512,0.084,1.02,0.17,1.521,0.254c0.507,0.045,1.011,0.053,1.506,0.082c0.495,0.014,0.982,0.068,1.46,0.047
				c0.478-0.027,0.945-0.057,1.4-0.084c0.455-0.029,0.9-0.045,1.329-0.086c0.424-0.074,0.833-0.146,1.227-0.217
				c0.783-0.16,1.522-0.225,2.151-0.396c0.631-0.172,1.181-0.32,1.633-0.445c0.913-0.236,1.435-0.373,1.435-0.373
				s-0.502,0.195-1.382,0.535c-0.443,0.166-0.981,0.367-1.599,0.598c-0.619,0.232-1.354,0.367-2.145,0.564
				c-0.396,0.092-0.81,0.189-1.238,0.291c-0.434,0.064-0.888,0.107-1.352,0.164c-0.467,0.053-0.945,0.109-1.435,0.166
				c-0.49,0.053-0.996-0.002-1.509,0.004c-0.512-0.016-1.035-0.01-1.563-0.043c-0.523-0.076-1.054-0.154-1.588-0.232l-0.805-0.123
				c-0.266-0.055-0.526-0.141-0.791-0.209l-1.586-0.443c-1.005-0.441-2.061-0.781-2.981-1.354c-0.97-0.486-1.824-1.123-2.657-1.723
				c-0.414-0.303-0.781-0.652-1.154-0.975c-0.379-0.316-0.722-0.654-1.037-1.004c-0.667-0.66-1.221-1.352-1.729-1.99
				c-0.488-0.654-0.915-1.27-1.24-1.846c-0.334-0.57-0.61-1.076-0.801-1.514c-0.218-0.424-0.327-0.777-0.413-1.014
				C183.578,922.235,183.533,922.108,183.533,922.108z"/>
			<polygon fill="#FCFCFC" points="185.634,926.209 188.117,924.825 186.977,927.987 			"/>
			<polygon fill="#FCFCFC" points="208.327,934.108 207.3,931.458 205.798,934.778 			"/>
		</g>
		<g>
			<g>
				<path fill="#FCFCFA" d="M200.683,895.351c4.347,14.875,17.343,5.995,17.343,5.995l0.044-0.127
					c-4.989-16.613-17.345-5.995-17.345-5.995"/>
				<path fill="#709334" d="M200.683,895.351c0,0,0.095,0.34,0.303,0.917c0.206,0.577,0.547,1.385,1.039,2.301
					c0.482,0.922,1.186,1.917,2.077,2.83c0.9,0.902,2.062,1.656,3.36,2.016c0.643,0.192,1.311,0.307,1.977,0.328
					c0.665,0.023,1.328,0.004,1.962-0.1c0.637-0.08,1.245-0.227,1.821-0.371c0.572-0.162,1.111-0.327,1.596-0.523
					c0.975-0.371,1.787-0.709,2.332-0.99c0.558-0.263,0.876-0.412,0.876-0.412s-0.295,0.193-0.811,0.531
					c-0.258,0.17-0.576,0.368-0.957,0.571c-0.376,0.212-0.797,0.458-1.29,0.663c-0.479,0.232-1.019,0.439-1.598,0.646
					c-0.582,0.189-1.204,0.391-1.874,0.49c-0.33,0.072-0.673,0.109-1.021,0.137c-0.348,0.046-0.703,0.038-1.062,0.03
					c-0.717-0.016-1.446-0.128-2.15-0.334c-1.413-0.426-2.657-1.278-3.594-2.263c-0.934-0.994-1.553-2.107-1.995-3.076
					c-0.449-0.973-0.665-1.84-0.817-2.437C200.718,895.703,200.683,895.351,200.683,895.351z"/>
				<g>
					<circle fill="#4D5B2F" cx="209.376" cy="897.928" r="3.212"/>
					<circle fill="#FCFCFC" cx="209.544" cy="897.158" r="0.941"/>
				</g>
			</g>
			<g>
				<path fill="#FCFCFA" d="M209.164,911.762c4.348,14.875,17.344,5.994,17.344,5.994l0.043-0.125
					c-4.989-16.614-17.345-5.996-17.345-5.996"/>
				<path fill="#709334" d="M209.164,911.762c0,0,0.095,0.34,0.303,0.918c0.206,0.576,0.547,1.385,1.039,2.301
					c0.483,0.922,1.186,1.916,2.077,2.828c0.901,0.902,2.063,1.656,3.361,2.016c0.642,0.193,1.311,0.309,1.977,0.33
					c0.665,0.023,1.328,0.004,1.962-0.102c0.636-0.08,1.245-0.227,1.82-0.371c0.573-0.162,1.112-0.326,1.597-0.521
					c0.975-0.373,1.787-0.711,2.332-0.99c0.558-0.264,0.876-0.414,0.876-0.414s-0.295,0.193-0.811,0.533
					c-0.259,0.168-0.576,0.367-0.957,0.57c-0.376,0.211-0.797,0.459-1.29,0.662c-0.479,0.232-1.02,0.439-1.598,0.646
					c-0.582,0.189-1.204,0.393-1.874,0.492c-0.33,0.07-0.673,0.109-1.021,0.135c-0.348,0.047-0.703,0.039-1.062,0.031
					c-0.717-0.016-1.446-0.129-2.15-0.334c-1.413-0.426-2.658-1.279-3.595-2.262c-0.934-0.996-1.552-2.107-1.995-3.078
					c-0.448-0.971-0.665-1.838-0.817-2.436C209.199,912.114,209.164,911.762,209.164,911.762z"/>
				<g>
					<circle fill="#4D5B2F" cx="217.859" cy="914.34" r="3.212"/>
					<circle fill="#FCFCFC" cx="218.025" cy="913.569" r="0.941"/>
				</g>
			</g>
			<g>
				<path fill="#FCFCFA" d="M183.073,901.089c4.347,14.876,17.343,5.995,17.343,5.995l0.044-0.127
					c-4.989-16.613-17.345-5.994-17.345-5.994"/>
				<path fill="#709334" d="M183.073,901.089c0,0,0.095,0.34,0.303,0.917c0.206,0.577,0.547,1.385,1.039,2.301
					c0.482,0.922,1.185,1.917,2.077,2.83c0.9,0.902,2.062,1.656,3.36,2.016c0.643,0.193,1.311,0.307,1.977,0.328
					c0.665,0.024,1.328,0.005,1.962-0.1c0.637-0.08,1.245-0.227,1.821-0.371c0.572-0.162,1.111-0.327,1.596-0.523
					c0.975-0.371,1.787-0.709,2.332-0.99c0.558-0.262,0.876-0.412,0.876-0.412s-0.295,0.193-0.811,0.531
					c-0.258,0.17-0.576,0.369-0.957,0.572c-0.375,0.211-0.797,0.457-1.29,0.662c-0.479,0.232-1.019,0.439-1.598,0.646
					c-0.582,0.189-1.204,0.391-1.874,0.491c-0.33,0.071-0.673,0.109-1.021,0.136c-0.348,0.047-0.703,0.039-1.062,0.031
					c-0.717-0.016-1.446-0.129-2.15-0.334c-1.413-0.426-2.658-1.279-3.594-2.264c-0.934-0.994-1.553-2.107-1.995-3.076
					c-0.449-0.973-0.665-1.84-0.817-2.437C183.108,901.441,183.073,901.089,183.073,901.089z"/>
				<g>
					<circle fill="#4D5B2F" cx="191.767" cy="903.667" r="3.212"/>
					<circle fill="#FCFCFC" cx="191.935" cy="902.896" r="0.941"/>
				</g>
			</g>
		</g>
		<g>
			<g>
				<g>
					
						<rect x="226.432" y="874.79" transform="matrix(0.589 0.8081 -0.8081 0.589 804.9263 177.9274)" fill="#8ABA45" width="2.202" height="11.079"/>
				</g>
				<circle fill="#8ABA45" cx="233.813" cy="875.192" r="2.994"/>
			</g>
			<g>
				<g>
					
						<rect x="202.787" y="871.727" transform="matrix(0.1199 0.9928 -0.9928 0.1199 1049.8898 561.3784)" fill="#8ABA45" width="11.08" height="2.201"/>
				</g>
				<circle fill="#8ABA45" cx="207.663" cy="865.178" r="2.994"/>
			</g>
		</g>
	</g>
	<g>
		<path opacity="0.3" fill="#C3E5E2" d="M147.383,932.452c0,0,6.769-48.732,10.949-64.622c7.028-26.715,41.715-38.172,72.211-27.167
			l0,0c30.497,11.004,49.875,41.971,38.224,67.018c-6.93,14.898-32.838,56.725-32.838,56.725s-25.422-5.766-46.313-13.307
			C171.013,944.385,147.383,932.452,147.383,932.452z"/>
		<g opacity="0.7">
			<path fill="#F7F9F9" d="M195.985,846.017c0,0-0.705,0.306-1.939,0.84c-0.613,0.265-1.348,0.609-2.185,0.993
				c-0.838,0.385-1.766,0.852-2.773,1.345c-1.004,0.504-2.066,1.091-3.179,1.708c-0.544,0.332-1.12,0.637-1.685,0.986
				c-0.56,0.354-1.131,0.715-1.713,1.082c-0.562,0.387-1.133,0.781-1.711,1.18c-0.552,0.43-1.11,0.86-1.682,1.282
				c-0.535,0.461-1.064,0.935-1.614,1.389l-1.518,1.491l-1.396,1.586l-0.087,0.099c0.002-0.005-0.064,0.081-0.007,0.001
				l-0.042,0.057l-0.169,0.229l-0.343,0.451l-0.684,0.896c-0.451,0.598-0.906,1.186-1.361,1.762
				c-0.396,0.574-0.788,1.143-1.173,1.703c-0.813,1.09-1.473,2.238-2.137,3.314c-0.362,0.527-0.599,1.085-0.888,1.605
				c-0.269,0.527-0.588,1.02-0.791,1.531c-0.439,1.012-0.881,1.941-1.193,2.806c-0.331,0.868-0.619,1.624-0.857,2.247
				c-0.486,1.262-0.813,1.965-0.813,1.965s0.014-0.779,0.098-2.117c0.047-0.674,0.066-1.492,0.207-2.434
				c0.066-0.471,0.103-0.979,0.206-1.507c0.114-0.526,0.233-1.081,0.358-1.659c0.111-0.586,0.337-1.16,0.513-1.778
				c0.198-0.608,0.384-1.255,0.669-1.868c0.537-1.246,1.096-2.574,1.875-3.857c0.364-0.651,0.746-1.32,1.142-1.973
				c0.408-0.611,0.828-1.224,1.259-1.836l0.645-0.926l0.324-0.464l0.166-0.23l0.041-0.058l0.085-0.106l0.099-0.116
				c0.527-0.618,1.043-1.254,1.591-1.857l1.757-1.678c0.627-0.5,1.251-0.999,1.87-1.494c0.646-0.449,1.297-0.883,1.939-1.307
				c0.66-0.393,1.317-0.768,1.968-1.129c1.316-0.686,2.619-1.275,3.877-1.763c1.258-0.484,2.471-0.868,3.6-1.176
				c1.122-0.323,2.17-0.548,3.102-0.717c0.926-0.188,1.748-0.284,2.422-0.361C195.207,846.004,195.985,846.017,195.985,846.017z"/>
		</g>
	</g>
</g>
<g>
	<circle opacity="0.1" fill="#F9F9F7" cx="1155.313" cy="1429.559" r="98.663"/>
	<circle fill="#E9E8E8" cx="1155.311" cy="1429.559" r="92.845"/>
	<path opacity="0.2" fill="#C6C4C4" d="M1207.822,1352.984c0,0,65.131,133.211-74.297,166.842c0,0,80.993,20.898,111.089-64.781
		C1244.614,1455.045,1265.569,1395.113,1207.822,1352.984z"/>
	<g>
		<g>
			<g opacity="0.25">
				<path d="M1091.608,1419.801c-4.978-11.658-1.666-30.073,9.992-35.055c11.658-4.978,27.729-0.664,32.708,10.993
					c4.979,11.66-3.017,26.253-14.677,31.23C1107.974,1431.948,1096.588,1431.461,1091.608,1419.801z"/>
			</g>
			<g>
				<path fill="#BCBEC0" d="M1090.078,1419.801c-4.978-11.658-1.666-30.073,9.992-35.055c11.658-4.978,27.729-0.664,32.708,10.993
					c4.979,11.66-3.017,26.253-14.677,31.23C1106.443,1431.948,1095.058,1431.461,1090.078,1419.801z"/>
			</g>
		</g>
		<g>
			<g opacity="0.25">
				<path d="M1095.217,1417.227c-4.095-9.59-1.372-24.729,8.215-28.824c9.585-4.095,22.802-0.549,26.896,9.038
					c4.095,9.587-2.482,21.585-12.067,25.679C1108.673,1427.216,1099.312,1426.81,1095.217,1417.227z"/>
			</g>
			<g>
				<path fill="#AAADAF" d="M1093.687,1417.227c-4.095-9.59-1.372-24.729,8.215-28.824c9.585-4.095,22.802-0.549,26.896,9.038
					c4.095,9.587-2.482,21.585-12.067,25.679C1107.143,1427.216,1097.781,1426.81,1093.687,1417.227z"/>
			</g>
		</g>
	</g>
	<g>
		<g opacity="0.25">
			<path d="M1141.986,1445.518c-1.009-2.357-0.339-6.084,2.021-7.09c2.358-1.009,5.608-0.137,6.614,2.223
				c1.012,2.358-0.607,5.311-2.968,6.32C1145.294,1447.976,1142.989,1447.875,1141.986,1445.518z"/>
		</g>
		<g>
			<path fill="#BCBEC0" d="M1140.456,1445.518c-1.009-2.357-0.339-6.084,2.021-7.09c2.358-1.009,5.608-0.137,6.614,2.223
				c1.012,2.358-0.607,5.311-2.968,6.32C1143.764,1447.976,1141.459,1447.875,1140.456,1445.518z"/>
		</g>
	</g>
	<g>
		<g opacity="0.25">
			<path d="M1215.819,1458.406c-1.244-2.909-0.415-7.506,2.493-8.749c2.909-1.244,6.923-0.166,8.162,2.743
				c1.248,2.91-0.753,6.553-3.662,7.797C1219.902,1461.439,1217.062,1461.318,1215.819,1458.406z"/>
		</g>
		<g>
			<path fill="#BCBEC0" d="M1214.289,1458.406c-1.244-2.909-0.415-7.506,2.493-8.749c2.909-1.244,6.923-0.166,8.162,2.743
				c1.248,2.91-0.753,6.553-3.662,7.797C1218.372,1461.439,1215.531,1461.318,1214.289,1458.406z"/>
		</g>
	</g>
	<g>
		<g opacity="0.25">
			<path d="M1178.033,1436.483c-6.066-14.208,0.059-30.112,14.57-36.31c14.506-6.193,32.556-7.709,38.622,6.497
				c6.07,14.204-7.225,27.127-21.73,33.321C1194.984,1446.188,1184.099,1450.688,1178.033,1436.483z"/>
			<path d="M1181.972,1433.788c-5.131-12.013,0.052-25.462,12.32-30.702c12.268-5.239,27.528-6.521,32.657,5.492
				c5.135,12.01-6.11,22.938-18.374,28.178C1196.305,1441.994,1187.1,1445.798,1181.972,1433.788z"/>
		</g>
		<g>
			<g>
				<path fill="#BCBEC0" d="M1176.503,1436.483c-6.066-14.208,0.059-30.112,14.57-36.31c14.506-6.193,32.556-7.709,38.622,6.497
					c6.07,14.204-7.225,27.127-21.73,33.321C1193.454,1446.188,1182.568,1450.688,1176.503,1436.483z"/>
				<path fill="#AAADAF" d="M1180.441,1433.788c-5.131-12.013,0.052-25.462,12.32-30.702c12.268-5.239,27.528-6.521,32.657,5.492
					c5.135,12.01-6.11,22.938-18.374,28.178C1194.774,1441.994,1185.569,1445.798,1180.441,1433.788z"/>
			</g>
		</g>
	</g>
	<g>
		<g>
			<g opacity="0.25">
				<path d="M1199.654,1494.143c-8.467,6.299-20.009,4.77-26.444-3.875c-6.433-8.643-10.32-20.39-1.855-26.684
					c8.462-6.305,19.167,0.46,25.603,9.104C1203.392,1481.332,1208.118,1487.844,1199.654,1494.143z"/>
			</g>
			<g>
				<path fill="#BCBEC0" d="M1198.124,1494.143c-8.467,6.299-20.009,4.77-26.444-3.875c-6.433-8.643-10.32-20.39-1.855-26.684
					c8.462-6.305,19.167,0.46,25.603,9.104C1201.861,1481.332,1206.588,1487.844,1198.124,1494.143z"/>
			</g>
		</g>
		<g>
			<g opacity="0.25">
				<path d="M1197.232,1491.959c-7.158,5.327-16.915,4.032-22.357-3.279c-5.438-7.309-8.731-17.236-1.573-22.563
					c7.157-5.332,16.213,0.39,21.649,7.699C1200.393,1481.126,1204.389,1486.631,1197.232,1491.959z"/>
			</g>
			<g>
				<path fill="#AAADAF" d="M1195.702,1491.959c-7.158,5.327-16.915,4.032-22.357-3.279c-5.438-7.309-8.731-17.236-1.573-22.563
					c7.157-5.332,16.213,0.39,21.649,7.699C1198.862,1481.126,1202.858,1486.631,1195.702,1491.959z"/>
			</g>
		</g>
	</g>
	<g>
		<g>
			<g opacity="0.25">
				<path d="M1123.947,1494.48c0.326-5.631,4.912-9.828,10.658-9.497c5.749,0.335,11.895,2.772,11.564,8.399
					c-0.322,5.629-6.769,7.689-12.515,7.358C1127.906,1500.406,1123.617,1500.105,1123.947,1494.48z"/>
			</g>
			<g>
				<path fill="#BCBEC0" d="M1122.417,1494.48c0.326-5.631,4.912-9.828,10.658-9.497c5.749,0.335,11.895,2.772,11.564,8.399
					c-0.322,5.629-6.769,7.689-12.515,7.358C1126.376,1500.406,1122.087,1500.105,1122.417,1494.48z"/>
			</g>
		</g>
		<path fill="#AAADAF" d="M1124.138,1494.238c0.278-4.758,4.159-8.311,9.02-8.027c4.859,0.282,10.053,2.342,9.777,7.102
			s-5.726,6.501-10.583,6.22C1127.493,1499.25,1123.865,1498.996,1124.138,1494.238z"/>
	</g>
	<g>
		<g>
			<g opacity="0.25">
				<path d="M1165.331,1377.857c0.429-7.436,6.489-12.982,14.079-12.545c7.593,0.44,15.711,3.661,15.275,11.095
					c-0.427,7.435-8.943,10.155-16.531,9.717C1170.56,1385.686,1164.896,1385.285,1165.331,1377.857z"/>
			</g>
			<g>
				<path fill="#BCBEC0" d="M1163.801,1377.857c0.429-7.436,6.489-12.982,14.079-12.545c7.593,0.44,15.711,3.661,15.275,11.095
					c-0.427,7.435-8.943,10.155-16.531,9.717C1169.029,1385.686,1163.366,1385.285,1163.801,1377.857z"/>
			</g>
		</g>
		<g>
			<g opacity="0.25">
				<path d="M1167.605,1377.537c0.367-6.285,5.492-10.977,11.911-10.604s13.278,3.094,12.917,9.381
					c-0.363,6.288-7.563,8.586-13.98,8.215C1172.035,1384.158,1167.244,1383.822,1167.605,1377.537z"/>
			</g>
			<g>
				<path fill="#AAADAF" d="M1166.075,1377.537c0.367-6.285,5.492-10.977,11.911-10.604s13.278,3.094,12.917,9.381
					c-0.363,6.288-7.563,8.586-13.98,8.215C1170.505,1384.158,1165.714,1383.822,1166.075,1377.537z"/>
			</g>
		</g>
	</g>
	<g>
		<g>
			<g opacity="0.25">
				<path d="M1089.278,1444.23c2.669-3.045,7.121-3.4,10.23-0.676c3.108,2.727,5.514,6.82,2.845,9.863
					c-2.667,3.046-7.229,1.368-10.336-1.355C1088.905,1449.336,1086.608,1447.271,1089.278,1444.23z"/>
			</g>
			<g>
				<path fill="#BCBEC0" d="M1087.748,1444.23c2.669-3.045,7.121-3.4,10.23-0.676c3.108,2.727,5.514,6.82,2.845,9.863
					c-2.667,3.046-7.229,1.368-10.336-1.355C1087.375,1449.336,1085.078,1447.271,1087.748,1444.23z"/>
			</g>
		</g>
		<path fill="#AAADAF" d="M1088.83,1444.854c2.259-2.572,6.022-2.874,8.653-0.57c2.63,2.307,4.661,5.768,2.406,8.342
			c-2.257,2.575-6.113,1.156-8.744-1.147C1088.517,1449.172,1086.575,1447.428,1088.83,1444.854z"/>
	</g>
	<g>
		<path fill="#BCBEC0" d="M1137.37,1363.951c1.903-2.172,5.08-2.426,7.298-0.48c2.22,1.942,3.936,4.864,2.032,7.037
			c-1.905,2.173-5.159,0.977-7.376-0.967C1137.105,1367.595,1135.466,1366.123,1137.37,1363.951z"/>
		<g>
			<g opacity="0.25">
				<path d="M1139.672,1364.395c1.611-1.833,4.298-2.051,6.174-0.404c1.876,1.646,3.327,4.113,1.718,5.951
					c-1.611,1.838-4.361,0.826-6.236-0.82C1139.449,1367.478,1138.062,1366.232,1139.672,1364.395z"/>
			</g>
			<g>
				<path fill="#AAADAF" d="M1138.142,1364.395c1.611-1.833,4.298-2.051,6.174-0.404c1.876,1.646,3.327,4.113,1.718,5.951
					c-1.611,1.838-4.361,0.826-6.236-0.82C1137.919,1367.478,1136.531,1366.232,1138.142,1364.395z"/>
			</g>
		</g>
	</g>
</g>
<rect x="845.697" y="147.805" fill="none" width="208" height="170.872"/>
<g>
	<g>
		<g>
			<path fill="#98A8A7" d="M212.744,1904.067c-0.123,0.36-0.519,0.554-0.879,0.43l-11.677-4.008c-0.36-0.124-0.554-0.519-0.43-0.879
				l1.437-4.186c0.124-0.36,0.519-0.554,0.879-0.43l11.678,4.01c0.36,0.124,0.553,0.519,0.43,0.879L212.744,1904.067z"/>
		</g>
		<g>
			<path fill="#9DB2B2" d="M192.217,1921.577c-0.123,0.36-0.519,0.554-0.879,0.43l-87.248-29.953
				c-0.36-0.124-0.553-0.519-0.43-0.879l17.699-51.553c0.123-0.36,0.519-0.554,0.879-0.43l87.248,29.953
				c0.36,0.124,0.553,0.519,0.43,0.879L192.217,1921.577z"/>
		</g>
		<g>
			<g>
				
					<rect x="119.275" y="1839.896" transform="matrix(0.9458 0.3247 -0.3247 0.9458 612.9407 62.3566)" fill="#797C7C" width="0.692" height="55.888"/>
			</g>
			<g>
				
					<rect x="126.032" y="1842.214" transform="matrix(0.9458 0.3247 -0.3247 0.9458 614.0599 60.2885)" fill="#797C7C" width="0.692" height="55.89"/>
			</g>
			<g>
				
					<rect x="132.79" y="1844.535" transform="matrix(0.9458 0.3247 -0.3247 0.9458 615.1794 58.2198)" fill="#797C7C" width="0.692" height="55.89"/>
			</g>
			<g>
				
					<rect x="139.546" y="1846.853" transform="matrix(0.9458 0.3247 -0.3247 0.9458 616.2982 56.1517)" fill="#797C7C" width="0.692" height="55.89"/>
			</g>
			<g>
				
					<rect x="146.305" y="1849.173" transform="matrix(0.9458 0.3247 -0.3247 0.9458 617.4177 54.083)" fill="#797C7C" width="0.692" height="55.89"/>
			</g>
			<g>
				
					<rect x="153.061" y="1851.495" transform="matrix(0.9458 0.3247 -0.3247 0.9458 618.5375 52.015)" fill="#797C7C" width="0.692" height="55.888"/>
			</g>
			<g>
				
					<rect x="159.82" y="1853.816" transform="matrix(0.9458 0.3247 -0.3247 0.9458 619.6573 49.9464)" fill="#797C7C" width="0.692" height="55.89"/>
			</g>
			<g>
				
					<rect x="166.577" y="1856.134" transform="matrix(0.9458 0.3247 -0.3247 0.9458 620.7761 47.8781)" fill="#797C7C" width="0.692" height="55.89"/>
			</g>
			<g>
				
					<rect x="173.335" y="1858.454" transform="matrix(0.9458 0.3247 -0.3247 0.9458 621.8957 45.8094)" fill="#797C7C" width="0.692" height="55.89"/>
			</g>
			<g>
				
					<rect x="180.093" y="1860.775" transform="matrix(0.9458 0.3247 -0.3247 0.9458 623.0148 43.7411)" fill="#797C7C" width="0.692" height="55.888"/>
			</g>
			<g>
				
					<rect x="186.85" y="1863.093" transform="matrix(0.9458 0.3247 -0.3247 0.9458 624.134 41.6725)" fill="#797C7C" width="0.692" height="55.89"/>
			</g>
			<g>
				
					<rect x="193.608" y="1865.415" transform="matrix(0.9458 0.3247 -0.3247 0.9458 625.2538 39.6042)" fill="#797C7C" width="0.692" height="55.888"/>
			</g>
			<g>
				
					<rect x="114.558" y="1866.897" transform="matrix(0.9458 0.3247 -0.3247 0.9458 615.0873 48.7874)" fill="#797C7C" width="93.631" height="0.692"/>
			</g>
			<g>
				
					<rect x="109.384" y="1881.969" transform="matrix(0.9458 0.3247 -0.3247 0.9458 619.7012 51.2842)" fill="#797C7C" width="93.631" height="0.692"/>
			</g>
			<g>
				
					<rect x="104.208" y="1897.043" transform="matrix(0.9458 0.3247 -0.3247 0.9458 624.2728 53.7706)" fill="#797C7C" width="93.631" height="0.692"/>
			</g>
		</g>
	</g>
	<g>
		<g>
			<path fill="#98A8A7" d="M271.24,1924.149c-0.123,0.36-0.519,0.554-0.879,0.43l-11.678-4.01c-0.36-0.124-0.553-0.519-0.43-0.879
				l1.436-4.182c0.123-0.36,0.519-0.554,0.879-0.43l11.679,4.01c0.36,0.124,0.554,0.519,0.43,0.879L271.24,1924.149z"/>
		</g>
		<g>
			<path fill="#9DB2B2" d="M352.256,1976.522c-0.123,0.36-0.519,0.554-0.879,0.43l-87.249-29.953
				c-0.36-0.124-0.554-0.519-0.43-0.879l17.698-51.553c0.123-0.36,0.519-0.554,0.879-0.43l87.25,29.955
				c0.36,0.124,0.553,0.519,0.43,0.879L352.256,1976.522z"/>
		</g>
		<g>
			<g>
				
					<rect x="279.314" y="1894.841" transform="matrix(0.9458 0.3247 -0.3247 0.9458 639.4513 13.371)" fill="#797C7C" width="0.692" height="55.888"/>
			</g>
			<g>
				
					<rect x="286.071" y="1897.16" transform="matrix(0.9458 0.3247 -0.3247 0.9458 640.5704 11.3027)" fill="#797C7C" width="0.692" height="55.89"/>
			</g>
			<g>
				
					<rect x="292.829" y="1899.48" transform="matrix(0.9458 0.3247 -0.3247 0.9458 641.6899 9.2343)" fill="#797C7C" width="0.692" height="55.89"/>
			</g>
			<g>
				
					<rect x="299.585" y="1901.8" transform="matrix(0.9458 0.3247 -0.3247 0.9458 642.809 7.1663)" fill="#797C7C" width="0.692" height="55.888"/>
			</g>
			<g>
				
					<rect x="306.345" y="1904.119" transform="matrix(0.9458 0.3247 -0.3247 0.9458 643.9283 5.0972)" fill="#797C7C" width="0.692" height="55.89"/>
			</g>
			<g>
				
					<rect x="313.102" y="1906.441" transform="matrix(0.9458 0.3247 -0.3247 0.9458 645.0481 3.0289)" fill="#797C7C" width="0.692" height="55.888"/>
			</g>
			<g>
				
					<rect x="319.859" y="1908.761" transform="matrix(0.9458 0.3247 -0.3247 0.9458 646.1678 0.9608)" fill="#797C7C" width="0.692" height="55.89"/>
			</g>
			<g>
				
					<rect x="326.617" y="1911.082" transform="matrix(0.9458 0.3247 -0.3247 0.9458 647.287 -1.1079)" fill="#797C7C" width="0.692" height="55.888"/>
			</g>
			<g>
				
					<rect x="333.375" y="1913.4" transform="matrix(0.9458 0.3247 -0.3247 0.9458 648.4063 -3.1764)" fill="#797C7C" width="0.692" height="55.89"/>
			</g>
			<g>
				
					<rect x="340.133" y="1915.72" transform="matrix(0.9458 0.3247 -0.3247 0.9458 649.5257 -5.2446)" fill="#797C7C" width="0.692" height="55.89"/>
			</g>
			<g>
				
					<rect x="346.889" y="1918.04" transform="matrix(0.9458 0.3247 -0.3247 0.9458 650.6448 -7.3129)" fill="#797C7C" width="0.692" height="55.888"/>
			</g>
			<g>
				
					<rect x="353.647" y="1920.361" transform="matrix(0.9458 0.3247 -0.3247 0.9458 651.7646 -9.3813)" fill="#797C7C" width="0.692" height="55.89"/>
			</g>
			<g>
				
					<rect x="274.597" y="1921.843" transform="matrix(0.9458 0.3247 -0.3247 0.9458 641.5894 -0.2064)" fill="#797C7C" width="93.633" height="0.692"/>
			</g>
			<g>
				
					<rect x="269.422" y="1936.915" transform="matrix(0.9458 0.3247 -0.3247 0.9458 646.2162 2.2932)" fill="#797C7C" width="93.631" height="0.692"/>
			</g>
			<g>
				
					<rect x="264.246" y="1951.989" transform="matrix(0.9458 0.3247 -0.3247 0.9458 650.8241 4.7894)" fill="#797C7C" width="93.632" height="0.692"/>
			</g>
		</g>
	</g>
	<g>
		<g>
			<path fill="#449799" d="M246.469,1954.015c-0.123,0.36-0.519,0.554-0.879,0.43l-45.504-15.621
				c-0.36-0.124-0.553-0.519-0.43-0.879l21.942-63.908c0.124-0.36,0.519-0.554,0.879-0.43l45.503,15.623
				c0.36,0.124,0.553,0.519,0.43,0.879L246.469,1954.015z"/>
		</g>
		<polygon fill="#277A7A" points="258.881,1891.948 242.252,1886.437 225.648,1880.853 226.024,1880.667 216.86,1907.556 
			207.578,1934.403 207.394,1934.024 223.926,1939.817 240.432,1945.683 223.804,1940.173 207.201,1934.587 206.92,1934.493 
			207.016,1934.21 216.182,1907.323 225.465,1880.476 225.563,1880.194 225.841,1880.292 242.373,1886.083 		"/>
		<g>
			
				<rect x="228.029" y="1886.968" transform="matrix(0.9458 0.3246 -0.3246 0.9458 625.6257 27.6748)" fill="#277A7A" width="3.688" height="3.686"/>
			
				<rect x="225.371" y="1894.706" transform="matrix(0.946 0.3242 -0.3242 0.946 627.2186 28.7906)" fill="#FFD200" width="3.686" height="3.688"/>
			
				<rect x="235.216" y="1889.435" transform="matrix(0.9458 0.3246 -0.3246 0.9458 626.8159 25.4753)" fill="#C6413E" width="3.688" height="3.686"/>
			
				<rect x="232.559" y="1897.175" transform="matrix(0.9458 0.3248 -0.3248 0.9458 629.5067 26.8251)" fill="#277A7A" width="3.686" height="3.686"/>
			
				<rect x="242.402" y="1891.903" transform="matrix(0.9457 0.3251 -0.3251 0.9457 628.9429 23.4681)" fill="#124466" width="3.689" height="3.686"/>
			
				<rect x="239.745" y="1899.64" transform="matrix(0.9459 0.3246 -0.3246 0.9459 630.2131 24.5242)" fill="#C6413E" width="3.689" height="3.688"/>
			
				<rect x="249.591" y="1894.369" transform="matrix(0.9458 0.3246 -0.3246 0.9458 629.1964 21.0759)" fill="#8ABA45" width="3.688" height="3.688"/>
			
				<rect x="246.932" y="1902.11" transform="matrix(0.9456 0.3252 -0.3252 0.9456 632.6694 22.583)" fill="#FFD200" width="3.688" height="3.686"/>
		</g>
	</g>
	<g>
		<g>
			<path fill="#999999" d="M226.527,1955.732c-0.167,0.167-0.486,0.241-0.71,0.164l-11.626-3.992
				c-0.224-0.077-0.417-0.333-0.43-0.569l-0.42-7.539c-0.013-0.236,0.159-0.367,0.383-0.29l18.228,6.258
				c0.224,0.077,0.27,0.276,0.103,0.443L226.527,1955.732z"/>
		</g>
		<polyline fill="#888989" points="213.318,1943.366 213.445,1945.655 230.686,1951.573 232.358,1949.903 		"/>
	</g>
	<g>
		<g>
			<path fill="#999999" d="M250.615,1882.536c-0.123,0.36-0.519,0.554-0.879,0.43l-9.014-3.096c-0.36-0.124-0.553-0.519-0.43-0.879
				l5.914-17.227c0.123-0.36,0.519-0.554,0.879-0.43l9.014,3.096c0.36,0.124,0.553,0.519,0.43,0.879L250.615,1882.536z"/>
		</g>
		<path fill="#888989" d="M245.288,1864.44c0,0,5.467,3.166,10.415,3.273l-0.461,1.346c0,0-4.635,0.979-10.522-2.963
			L245.288,1864.44z"/>
	</g>
	<g>
		<path fill="#CCCCCC" d="M285.36,1848.89c-5.042,14.688-21.037,22.506-35.727,17.465c-14.688-5.043-22.508-21.037-17.465-35.727
			L285.36,1848.89z"/>
		
			<ellipse transform="matrix(0.9458 0.3247 -0.3247 0.9458 611.4226 15.6688)" fill="#999999" cx="258.765" cy="1839.759" rx="28.119" ry="7.031"/>
		<g>
			<path fill="#808080" d="M252.24,1844.856c0,0,8.214-6.346,10.996-20.813l2.769,0.951c0,0-6.987,16.129-3.903,23.156
				C262.102,1848.151,257.6,1846.839,252.24,1844.856z"/>
			<path fill="#C6413E" d="M262.73,1821.929c0.494-1.443,2.068-2.215,3.513-1.719s2.212,2.07,1.717,3.512
				c-0.495,1.445-2.069,2.217-3.514,1.723C263.002,1824.946,262.233,1823.372,262.73,1821.929z"/>
		</g>
	</g>
</g>
<rect x="845.697" y="2606.105" fill="none" width="208" height="170.871"/>
<rect x="845.697" y="2169.722" fill="none" width="208" height="170.872"/>
</svg>
