<?xml version="1.0" encoding="utf-8"?>
<!-- Generator: Adobe Illustrator 16.0.0, SVG Export Plug-In . SVG Version: 6.00 Build 0)  -->
<!DOCTYPE svg PUBLIC "-//W3C//DTD SVG 1.1//EN" "http://www.w3.org/Graphics/SVG/1.1/DTD/svg11.dtd">
<svg version="1.1" id="Layer_1" xmlns="http://www.w3.org/2000/svg" xmlns:xlink="http://www.w3.org/1999/xlink" x="0px" y="0px"
	 width="450px" height="623.16px" viewBox="0 0 450 623.16" enable-background="new 0 0 450 623.16" xml:space="preserve">
<rect x="-31" y="-8.038" fill="#2F302D" width="495" height="638.48"/>
<g>
	<ellipse fill="#929183" cx="72.363" cy="324.838" rx="0.91" ry="1.639"/>
</g>
<g>
	<ellipse fill="#929183" cx="43.867" cy="347.416" rx="1.548" ry="1.274"/>
</g>
<g>
	<ellipse fill="#929183" cx="207.555" cy="351.331" rx="1.548" ry="1.274"/>
</g>
<g>
	<circle fill="#929183" cx="107.052" cy="377.459" r="1.365"/>
</g>
<g>
	<circle fill="#929183" cx="107.052" cy="377.459" r="1.365"/>
</g>
<g>
	<circle fill="#929183" cx="159.76" cy="336.037" r="1.366"/>
</g>
<g>
	<circle fill="#929183" cx="219.845" cy="324.838" r="1.365"/>
</g>
<g>
	<circle fill="#929183" cx="137.764" cy="377.459" r="1.366"/>
</g>
<g>
	<ellipse fill="#929183" cx="40.955" cy="394.755" rx="1.366" ry="1.638"/>
</g>
<g>
	<ellipse fill="#929183" cx="179.971" cy="401.585" rx="1.366" ry="1.548"/>
</g>
<g>
	<ellipse fill="#929183" cx="208.83" cy="407.773" rx="1.274" ry="1.547"/>
</g>
<ellipse fill="#929183" cx="290.446" cy="324.839" rx="0.911" ry="1.639"/>
<ellipse fill="#929183" cx="261.95" cy="347.416" rx="1.548" ry="1.274"/>
<ellipse fill="#929183" cx="425.638" cy="351.331" rx="1.548" ry="1.274"/>
<circle fill="#929183" cx="325.134" cy="377.459" r="1.366"/>
<circle fill="#929183" cx="325.134" cy="377.459" r="1.366"/>
<circle fill="#929183" cx="377.842" cy="336.036" r="1.366"/>
<circle fill="#929183" cx="437.928" cy="324.839" r="1.366"/>
<circle fill="#929183" cx="355.846" cy="377.459" r="1.366"/>
<ellipse fill="#929183" cx="259.038" cy="394.757" rx="1.366" ry="1.638"/>
<ellipse fill="#929183" cx="398.053" cy="401.584" rx="1.365" ry="1.548"/>
<ellipse fill="#929183" cx="426.913" cy="407.775" rx="1.274" ry="1.547"/>
<ellipse fill="#929183" cx="72.257" cy="82.104" rx="0.91" ry="1.639"/>
<ellipse fill="#929183" cx="43.762" cy="104.681" rx="1.548" ry="1.275"/>
<ellipse fill="#929183" cx="207.45" cy="108.596" rx="1.548" ry="1.274"/>
<circle fill="#929183" cx="106.946" cy="134.724" r="1.365"/>
<circle fill="#929183" cx="106.946" cy="134.724" r="1.365"/>
<circle fill="#929183" cx="73.623" cy="166.223" r="1.366"/>
<circle fill="#929183" cx="159.655" cy="93.301" r="1.365"/>
<circle fill="#929183" cx="193.766" cy="90.57" r="1.366"/>
<circle fill="#929183" cx="137.659" cy="134.724" r="1.366"/>
<ellipse fill="#929183" cx="40.849" cy="152.021" rx="1.366" ry="1.639"/>
<ellipse fill="#929183" cx="179.865" cy="158.849" rx="1.366" ry="1.548"/>
<ellipse fill="#929183" cx="208.724" cy="165.04" rx="1.275" ry="1.547"/>
<ellipse fill="#929183" cx="290.339" cy="82.104" rx="0.911" ry="1.639"/>
<ellipse fill="#929183" cx="261.845" cy="104.681" rx="1.548" ry="1.275"/>
<ellipse fill="#929183" cx="425.532" cy="108.596" rx="1.548" ry="1.274"/>
<circle fill="#929183" cx="325.029" cy="134.724" r="1.366"/>
<circle fill="#929183" cx="325.029" cy="134.724" r="1.366"/>
<circle fill="#929183" cx="291.705" cy="166.223" r="1.366"/>
<circle fill="#929183" cx="377.737" cy="93.301" r="1.366"/>
<circle fill="#929183" cx="437.822" cy="82.104" r="1.365"/>
<circle fill="#929183" cx="355.741" cy="134.724" r="1.366"/>
<ellipse fill="#929183" cx="258.931" cy="152.021" rx="1.366" ry="1.639"/>
<ellipse fill="#929183" cx="397.947" cy="158.849" rx="1.365" ry="1.548"/>
<ellipse fill="#929183" cx="426.807" cy="165.04" rx="1.275" ry="1.547"/>
<g>
	<ellipse fill="#929183" cx="43.552" cy="6.38" rx="1.548" ry="1.274"/>
</g>
<g>
	<ellipse fill="#929183" cx="207.239" cy="10.295" rx="1.548" ry="1.274"/>
</g>
<g>
	<circle fill="#929183" cx="106.736" cy="36.423" r="1.365"/>
</g>
<g>
	<circle fill="#929183" cx="106.736" cy="36.423" r="1.365"/>
</g>
<g>
	<circle fill="#929183" cx="73.412" cy="67.922" r="1.366"/>
</g>
<g>
	<circle fill="#929183" cx="137.448" cy="36.423" r="1.366"/>
</g>
<g>
	<ellipse fill="#929183" cx="40.638" cy="53.72" rx="1.366" ry="1.639"/>
</g>
<g>
	<ellipse fill="#929183" cx="179.654" cy="60.548" rx="1.365" ry="1.548"/>
</g>
<g>
	<ellipse fill="#929183" cx="208.514" cy="66.739" rx="1.275" ry="1.548"/>
</g>
<ellipse fill="#929183" cx="261.634" cy="6.38" rx="1.547" ry="1.274"/>
<ellipse fill="#929183" cx="425.321" cy="10.295" rx="1.548" ry="1.274"/>
<circle fill="#929183" cx="324.818" cy="36.423" r="1.366"/>
<circle fill="#929183" cx="324.818" cy="36.423" r="1.366"/>
<circle fill="#929183" cx="291.495" cy="67.922" r="1.366"/>
<circle fill="#929183" cx="355.531" cy="36.423" r="1.366"/>
<ellipse fill="#929183" cx="258.721" cy="53.72" rx="1.366" ry="1.639"/>
<ellipse fill="#929183" cx="397.737" cy="60.548" rx="1.366" ry="1.548"/>
<ellipse fill="#929183" cx="426.597" cy="66.739" rx="1.274" ry="1.548"/>
<ellipse fill="#929183" cx="71.836" cy="276.026" rx="0.91" ry="1.639"/>
<ellipse fill="#929183" cx="43.341" cy="298.604" rx="1.548" ry="1.274"/>
<ellipse fill="#929183" cx="207.028" cy="302.518" rx="1.548" ry="1.275"/>
<circle fill="#929183" cx="106.525" cy="328.646" r="1.365"/>
<circle fill="#929183" cx="106.525" cy="328.646" r="1.365"/>
<circle fill="#929183" cx="73.201" cy="360.146" r="1.366"/>
<circle fill="#929183" cx="159.233" cy="287.224" r="1.366"/>
<circle fill="#929183" cx="193.344" cy="284.492" r="1.365"/>
<circle fill="#929183" cx="137.237" cy="328.646" r="1.366"/>
<ellipse fill="#929183" cx="40.428" cy="345.943" rx="1.366" ry="1.639"/>
<ellipse fill="#929183" cx="179.444" cy="352.771" rx="1.366" ry="1.548"/>
<ellipse fill="#929183" cx="208.303" cy="358.963" rx="1.274" ry="1.547"/>
<ellipse fill="#929183" cx="289.918" cy="276.026" rx="0.911" ry="1.639"/>
<ellipse fill="#929183" cx="261.423" cy="298.604" rx="1.548" ry="1.274"/>
<ellipse fill="#929183" cx="425.11" cy="302.518" rx="1.548" ry="1.275"/>
<circle fill="#929183" cx="324.607" cy="328.646" r="1.365"/>
<circle fill="#929183" cx="324.607" cy="328.646" r="1.365"/>
<circle fill="#929183" cx="291.284" cy="360.146" r="1.366"/>
<circle fill="#929183" cx="377.315" cy="287.224" r="1.365"/>
<circle fill="#929183" cx="437.402" cy="276.026" r="1.366"/>
<circle fill="#929183" cx="355.32" cy="328.646" r="1.366"/>
<ellipse fill="#929183" cx="258.51" cy="345.943" rx="1.366" ry="1.639"/>
<ellipse fill="#929183" cx="397.526" cy="352.771" rx="1.366" ry="1.548"/>
<ellipse fill="#929183" cx="426.386" cy="358.963" rx="1.274" ry="1.547"/>
<g>
	<ellipse fill="#929183" cx="71.625" cy="177.725" rx="0.91" ry="1.639"/>
</g>
<g>
	<ellipse fill="#929183" cx="43.13" cy="200.302" rx="1.548" ry="1.274"/>
</g>
<g>
	<ellipse fill="#929183" cx="206.818" cy="204.218" rx="1.548" ry="1.275"/>
</g>
<g>
	<circle fill="#929183" cx="106.314" cy="230.346" r="1.366"/>
</g>
<g>
	<circle fill="#929183" cx="106.314" cy="230.346" r="1.366"/>
</g>
<g>
	<circle fill="#929183" cx="72.991" cy="261.844" r="1.366"/>
</g>
<g>
	<circle fill="#929183" cx="159.022" cy="188.922" r="1.366"/>
</g>
<g>
	<circle fill="#929183" cx="219.108" cy="177.725" r="1.366"/>
</g>
<g>
	<circle fill="#929183" cx="137.026" cy="230.346" r="1.366"/>
</g>
<g>
	<ellipse fill="#929183" cx="40.217" cy="247.642" rx="1.365" ry="1.639"/>
</g>
<g>
	<ellipse fill="#929183" cx="179.233" cy="254.47" rx="1.365" ry="1.547"/>
</g>
<g>
	<ellipse fill="#929183" cx="208.092" cy="260.661" rx="1.275" ry="1.548"/>
</g>
<ellipse fill="#929183" cx="289.708" cy="177.725" rx="0.91" ry="1.639"/>
<ellipse fill="#929183" cx="261.213" cy="200.303" rx="1.548" ry="1.274"/>
<ellipse fill="#929183" cx="424.9" cy="204.217" rx="1.548" ry="1.275"/>
<circle fill="#929183" cx="324.397" cy="230.345" r="1.366"/>
<circle fill="#929183" cx="324.397" cy="230.345" r="1.366"/>
<circle fill="#929183" cx="291.074" cy="261.845" r="1.366"/>
<circle fill="#929183" cx="377.105" cy="188.922" r="1.366"/>
<circle fill="#929183" cx="437.191" cy="177.725" r="1.366"/>
<circle fill="#929183" cx="355.109" cy="230.345" r="1.365"/>
<ellipse fill="#929183" cx="258.3" cy="247.643" rx="1.366" ry="1.639"/>
<ellipse fill="#929183" cx="397.316" cy="254.471" rx="1.366" ry="1.547"/>
<ellipse fill="#929183" cx="426.175" cy="260.661" rx="1.275" ry="1.548"/>
<ellipse fill="#929183" cx="18.037" cy="160.085" rx="1.548" ry="1.275"/>
<circle fill="#929183" cx="30.328" cy="133.593" r="1.366"/>
<ellipse fill="#929183" cx="19.312" cy="216.529" rx="1.275" ry="1.548"/>
<ellipse fill="#929183" cx="17.827" cy="61.784" rx="1.548" ry="1.275"/>
<circle fill="#929183" cx="30.117" cy="35.292" r="1.366"/>
<ellipse fill="#929183" cx="19.101" cy="118.229" rx="1.275" ry="1.547"/>
<ellipse fill="#929183" cx="18.996" cy="22.461" rx="1.274" ry="1.547"/>
<ellipse fill="#929183" cx="14.638" cy="400.736" rx="1.548" ry="1.274"/>
<circle fill="#929183" cx="26.928" cy="374.244" r="1.366"/>
<ellipse fill="#929183" cx="14.427" cy="302.435" rx="1.548" ry="1.275"/>
<circle fill="#929183" cx="26.717" cy="275.942" r="1.366"/>
<ellipse fill="#929183" cx="15.702" cy="358.879" rx="1.275" ry="1.547"/>
<ellipse fill="#929183" cx="15.597" cy="263.112" rx="1.274" ry="1.547"/>
<ellipse fill="#929183" cx="73.244" cy="486.429" rx="0.911" ry="1.639"/>
<ellipse fill="#929183" cx="44.749" cy="509.006" rx="1.548" ry="1.274"/>
<ellipse fill="#929183" cx="208.437" cy="512.921" rx="1.548" ry="1.274"/>
<circle fill="#929183" cx="107.933" cy="539.049" r="1.365"/>
<circle fill="#929183" cx="107.933" cy="539.049" r="1.365"/>
<circle fill="#929183" cx="74.609" cy="570.548" r="1.366"/>
<circle fill="#929183" cx="160.641" cy="497.626" r="1.366"/>
<circle fill="#929183" cx="194.752" cy="494.895" r="1.366"/>
<circle fill="#929183" cx="138.646" cy="539.049" r="1.366"/>
<ellipse fill="#929183" cx="41.835" cy="556.347" rx="1.366" ry="1.639"/>
<ellipse fill="#929183" cx="180.851" cy="563.174" rx="1.365" ry="1.548"/>
<ellipse fill="#929183" cx="209.711" cy="569.364" rx="1.275" ry="1.548"/>
<ellipse fill="#929183" cx="291.327" cy="486.429" rx="0.911" ry="1.639"/>
<ellipse fill="#929183" cx="262.832" cy="509.006" rx="1.547" ry="1.274"/>
<ellipse fill="#929183" cx="426.519" cy="512.921" rx="1.548" ry="1.274"/>
<circle fill="#929183" cx="326.015" cy="539.049" r="1.366"/>
<circle fill="#929183" cx="326.015" cy="539.049" r="1.366"/>
<circle fill="#929183" cx="292.691" cy="570.548" r="1.365"/>
<circle fill="#929183" cx="378.723" cy="497.626" r="1.366"/>
<circle fill="#929183" cx="438.809" cy="486.429" r="1.365"/>
<circle fill="#929183" cx="356.728" cy="539.049" r="1.366"/>
<ellipse fill="#929183" cx="259.918" cy="556.347" rx="1.366" ry="1.639"/>
<ellipse fill="#929183" cx="398.934" cy="563.174" rx="1.365" ry="1.548"/>
<ellipse fill="#929183" cx="427.793" cy="569.364" rx="1.275" ry="1.548"/>
<g>
	<ellipse fill="#929183" cx="44.538" cy="410.705" rx="1.548" ry="1.274"/>
</g>
<g>
	<ellipse fill="#929183" cx="208.226" cy="414.62" rx="1.548" ry="1.274"/>
</g>
<g>
	<circle fill="#929183" cx="107.722" cy="440.747" r="1.366"/>
</g>
<g>
	<circle fill="#929183" cx="107.722" cy="440.747" r="1.366"/>
</g>
<g>
	<circle fill="#929183" cx="74.399" cy="472.246" r="1.366"/>
</g>
<g>
	<circle fill="#929183" cx="138.435" cy="440.747" r="1.366"/>
</g>
<g>
	<ellipse fill="#929183" cx="41.625" cy="458.045" rx="1.366" ry="1.639"/>
</g>
<g>
	<ellipse fill="#929183" cx="180.641" cy="464.874" rx="1.365" ry="1.549"/>
</g>
<g>
	<ellipse fill="#929183" cx="209.501" cy="471.063" rx="1.275" ry="1.548"/>
</g>
<ellipse fill="#929183" cx="262.621" cy="410.705" rx="1.548" ry="1.274"/>
<ellipse fill="#929183" cx="426.308" cy="414.62" rx="1.547" ry="1.274"/>
<circle fill="#929183" cx="325.805" cy="440.748" r="1.366"/>
<circle fill="#929183" cx="325.805" cy="440.748" r="1.366"/>
<circle fill="#929183" cx="292.481" cy="472.247" r="1.366"/>
<circle fill="#929183" cx="356.517" cy="440.748" r="1.366"/>
<ellipse fill="#929183" cx="259.708" cy="458.045" rx="1.366" ry="1.639"/>
<ellipse fill="#929183" cx="398.723" cy="464.872" rx="1.366" ry="1.549"/>
<ellipse fill="#929183" cx="427.583" cy="471.063" rx="1.274" ry="1.548"/>
<g>
	<ellipse fill="#929183" cx="72.612" cy="582.05" rx="0.91" ry="1.639"/>
</g>
<g>
	<ellipse fill="#929183" cx="44.117" cy="604.628" rx="1.548" ry="1.275"/>
</g>
<g>
	<circle fill="#929183" cx="160.009" cy="593.247" r="1.366"/>
</g>
<g>
	<circle fill="#929183" cx="220.095" cy="582.049" r="1.366"/>
</g>
<ellipse fill="#929183" cx="290.695" cy="582.05" rx="0.911" ry="1.639"/>
<ellipse fill="#929183" cx="262.199" cy="604.627" rx="1.548" ry="1.275"/>
<circle fill="#929183" cx="378.092" cy="593.247" r="1.365"/>
<circle fill="#929183" cx="438.178" cy="582.05" r="1.365"/>
<ellipse fill="#929183" cx="19.024" cy="564.409" rx="1.548" ry="1.275"/>
<circle fill="#929183" cx="31.314" cy="537.917" r="1.366"/>
<ellipse fill="#929183" cx="18.813" cy="466.108" rx="1.548" ry="1.275"/>
<circle fill="#929183" cx="31.104" cy="439.616" r="1.366"/>
<ellipse fill="#929183" cx="20.088" cy="522.553" rx="1.275" ry="1.548"/>
<ellipse fill="#929183" cx="19.983" cy="426.786" rx="1.274" ry="1.547"/>
</svg>
