<?xml version="1.0" encoding="utf-8"?>
<!-- Generator: Adobe Illustrator 16.0.0, SVG Export Plug-In . SVG Version: 6.00 Build 0)  -->
<!DOCTYPE svg PUBLIC "-//W3C//DTD SVG 1.1//EN" "http://www.w3.org/Graphics/SVG/1.1/DTD/svg11.dtd">
<svg version="1.1" id="Layer_1" xmlns="http://www.w3.org/2000/svg" xmlns:xlink="http://www.w3.org/1999/xlink" x="0px" y="0px"
	 width="550px" height="761.58px" viewBox="0 0 550 761.58" enable-background="new 0 0 550 761.58" xml:space="preserve">
<g>
	<circle opacity="0.1" fill="#F9F9F7" cx="475.989" cy="92.7" r="36.377"/>
	<g>
		<g>
			<defs>
				<path id="SVGID_1_" d="M442.348,92.7c0-7.001,2.127-13.505,5.772-18.898c6.073-8.991,16.362-14.904,28.03-14.904
					c18.667,0,33.801,15.134,33.801,33.802c0,7.495-2.439,14.422-6.57,20.027c-6.153,8.354-16.06,13.774-27.23,13.774
					C457.48,126.502,442.348,111.368,442.348,92.7z"/>
			</defs>
			<use xlink:href="#SVGID_1_"  overflow="visible" fill="#36B1BA"/>
			<clipPath id="SVGID_2_">
				<use xlink:href="#SVGID_1_"  overflow="visible"/>
			</clipPath>
			<path clip-path="url(#SVGID_2_)" fill="#8ABA45" d="M448.12,73.802c0,0,13.697-2.806,15.417,0.473
				c0.765,1.459-2.778,3.394-3.502,4.873c-0.562,1.148-2.133,3.837,0.151,4.75c2.284,0.915,5.024,1.371,5.024,3.654
				c0,2.284,0.879,5.198,2.285,5.147c1.805-0.065,3.112-4.534,4.567-5.604c1.486-1.092,5.221-3.605,6.852-2.741
				c1.248,0.662,2.542,3.435,2.665,4.842c0.139,1.598-0.424,6.138-1.752,7.035c-0.768,0.519-2.797-0.745-3.678-0.457
				c-2.378,0.777-5.104,5.63-7.285,6.852c-2.311,1.294-8.063,0.345-10.505,1.37c-0.85,0.356-1.828,1.827-0.458,3.655
				c1.371,1.827,6.268,4.007,7.767,5.938c0.546,0.704,1.369,4.111-2.742,2.283c-4.111-1.827-10.798-7.252-12.789-10.962
				c-1.452-2.707-1.827-7.978-1.37-12.21c0.457-4.234-7.309-7.431-9.137-7.887"/>
			<path clip-path="url(#SVGID_2_)" fill="#8ABA45" d="M457.902,69.054c1.67,4.647,8.005-0.459,9.594,1.369
				c0.859,0.993-1.143,4.603,0,5.254c0.865,0.494,3.862-0.469,5.69-0.184c2.367,0.371,3.008,0.566,4.226,1.256
				c0.629,0.357,1.655,1.599,2.797,3.654c1.143,2.056,1.446,3.724,1.446,3.724s0.649,1.988,1.827,2.969
				c1.807,1.505,3.518-0.343,4.91-1.255c1.394-0.915,2.225-0.775,6.51-2.17c5.938-1.933,3.962-7.045,2.284-8.45
				c-1.717-1.438-5.253-1.827-8.908-0.914c-3.654,0.914-7.727,1.035-10.581-0.335c-1.361-0.653-5.311-3.103-5.996-4.188
				c-1.377-2.182-1.198-4.226-1.198-4.226s0.402-3.369-0.952-3.584c-1.503-0.24-3.669,0.389-6.185,1.929
				c-1.186,0.725-2.988,1.851-3.883,2.397C458.863,66.68,457.428,67.729,457.902,69.054z"/>
			<path clip-path="url(#SVGID_2_)" fill="#8ABA45" d="M509.951,89.229c0,0-5.136,2.61-5.272,0.554
				c-0.212-3.21,2.159-2.99,1.339-4.513c-0.882-1.637-6.852-2.319-6.852,2.894c0,2.894-3.69,2.593-4.111,4.537
				c-0.145,0.666,0.301,1.984,2.133,1.705c4.206-0.641,4.324,0.532,4.091,1.358c-0.194,0.691-0.715,1.353-1.351,1.687
				c-2.658,1.397-9.921-0.453-11.877,1.827c-0.579,0.676,0,2.131-1.218,3.35c-1.218,1.218-8.371,3.393-8.224,4.384
				c0.344,2.284,6.963,1.599,8.831,1.135c1.6-0.399,2.183-2.864,4.313-3.474c2.131-0.609,4.096-2.234,5.434-1.74
				c0.912,0.337,2.42,2.677-2.741,7.309c-5.85,5.248-11.985,0.63-15.226,2.74c-0.746,0.487-0.153,1.766-1.218,3.35
				c-0.877,1.302-3.813,1.608-4.265,2.741c-1.294,3.243,0.609,6.334,5.787,7.431C484.701,127.598,516.32,124.553,509.951,89.229z"/>
		</g>
		<path fill="#7DC823" d="M476.15,66.618"/>
		<path fill="#7DC823" d="M466.215,107.239c-0.586,0.127-2.368,0.883-1.043,2.162c1.326,1.278,1.644,0.582,2.692-0.118
			c1.05-0.7,1.046-2.083,0.188-1.95C467.203,107.463,467.048,107.057,466.215,107.239z"/>
		<path fill="#8ABA45" d="M475.75,64.386c-0.906-0.125-3.252,0.203,0.545,3.529c3.798,3.326,5.206,2.366,5.383,2.015
			c0.495-0.989-0.343-3.312-2.537-4.19C477.84,65.219,477.037,64.564,475.75,64.386z"/>
		<path fill="#7DC823" d="M468.708,109.774c-0.164,0.078-0.638,0.419-0.162,0.707c0.477,0.287,0.523,0.06,0.784-0.217
			c0.262-0.276,0.15-0.481-0.075-0.586C469.019,109.569,468.94,109.665,468.708,109.774z"/>
	</g>
	<path opacity="0.2" fill="#7C7979" d="M495.457,64.784c0,0,23.773,48.622-27.117,60.898c0,0,29.562,7.627,40.547-23.645
		C508.887,102.037,516.536,80.162,495.457,64.784z"/>
</g>
<g>
	<circle opacity="0.1" fill="#F9F9F7" cx="430.508" cy="684.134" r="27.977"/>
	<g>
		<g>
			<g>
				<g>
					<path fill="#E15444" d="M434.447,672.619c-25.063-8.344-47.056-10.084-49.12-3.883c-2.063,6.199,16.579,17.988,41.644,26.337
						c25.063,8.342,47.055,10.08,49.12,3.881C478.154,692.753,459.509,680.968,434.447,672.619z M427.922,692.213
						c-18.683-6.221-32.581-15.011-31.043-19.632c1.539-4.621,17.933-3.325,36.616,2.896c18.682,6.219,32.582,15.011,31.043,19.63
						C462.999,699.73,446.607,698.435,427.922,692.213z"/>
					<path fill="#C6413E" d="M434.381,673.349c-24.462-8.037-45.882-9.841-47.845-4.028c-1.959,5.812,16.631,16.574,41.093,24.612
						c24.46,8.036,45.526,10.301,47.487,4.489C477.079,692.609,458.839,681.386,434.381,673.349z M427.822,693.356
						c-23.12-7.597-40.715-17.748-38.86-23.242c1.855-5.494,22.101-3.788,45.223,3.809c23.119,7.597,40.361,18.21,38.508,23.702
						C470.837,703.119,450.944,700.952,427.822,693.356z"/>
				</g>
				<g>
					<g>
						<path fill="#F4C02F" d="M426.944,695.076c-8.021-2.67-15.379-5.693-21.617-8.775c0.089,1.01,0.23,2.023,0.447,3.042
							c2.892,13.647,16.299,22.368,29.945,19.478c5.451-1.156,10.114-3.994,13.567-7.849
							C442.503,699.696,434.88,697.718,426.944,695.076z"/>
						<g>
							<defs>
								<path id="XMLID_2_" d="M455.568,681.167c-0.058-0.765-0.211-1.526-0.372-2.294c-2.892-13.647-16.299-22.366-29.946-19.476
									c-5.213,1.104-9.854,3.606-13.104,7.345c-0.693,0.796-2.01,2.447-2.633,3.298c-2.528,3.45-3.866,7.702-4.209,12.08
									c5.595,3.458,13.526,7.081,22.591,10.099c8.957,2.981,17.381,4.83,23.902,5.439c2.31-3.636,3.885-7.85,3.919-12.289
									C455.723,684.319,455.649,682.217,455.568,681.167z"/>
							</defs>
							<use xlink:href="#XMLID_2_"  overflow="visible" fill="#F2C549"/>
							<clipPath id="XMLID_5_">
								<use xlink:href="#XMLID_2_"  overflow="visible"/>
							</clipPath>
							<path opacity="0.8" clip-path="url(#XMLID_5_)" fill="#F4CF67" d="M411.866,663.566c0,0,22.374,16.324,47.346,17.11
								l-0.53,3.317c0,0-35.511-5.058-49.982-19.788"/>
							<path opacity="0.8" clip-path="url(#XMLID_5_)" fill="#F4CF67" d="M404.568,689.442c0,0,22.932,13.369,46.913,12.512
								l-0.201,3.037c0,0-34.467-2.349-49.685-14.769"/>
							<path opacity="0.8" clip-path="url(#XMLID_5_)" fill="#F4CF67" d="M411.958,659.828c0,0,23.554,16.464,48.526,17.249
								l-0.354,2.209c0,0-35.508-5.058-49.981-19.789"/>
							<path opacity="0.6" clip-path="url(#XMLID_5_)" fill="#F4CF67" d="M406.162,670.047c0,0,25.961,16.718,50.933,17.503
								l-1.288,5.732c0,0-36.724-3.897-51.194-18.627"/>
						</g>
					</g>
				</g>
			</g>
		</g>
		<path opacity="0.2" fill="#D35029" d="M447.742,665.662c0,0,9.688,40.255-28.918,40.726c0,0,14.796,8.761,28.288-3.265
			c2.097-1.871,3.784-4.363,5.779-7.341C452.892,695.782,462.216,680.644,447.742,665.662z"/>
	</g>
</g>
<g>
	<g>
		<path fill="#F4C02F" d="M115.39,237.547c-3.221,9.454-18.765,9.943-47.201,0.469c-31.314-10.431-39.623-22.119-37.077-29.456"/>
		<path fill="#CC5F23" d="M133.871,237.636c-2.462,6.824-31.79,5.529-63.385-5.874c-31.595-11.4-55.689-28.025-52.938-35.65
			c0.878-2.432,29.586-10.151,64.648,3.201C113.586,211.268,134.445,236.045,133.871,237.636z"/>
		<path fill="#E27F34" d="M133.379,236.653c-2.462,6.823-30.532,4.39-62.127-7.011c-31.596-11.403-55.042-26.654-52.291-34.278
			c0.878-2.432,32.404-9.574,64,1.827C114.556,208.592,133.954,235.063,133.379,236.653z"/>
		<g>
			<g>
				<g opacity="0.29">
					<circle fill="#6D6D61" cx="29.408" cy="200.713" r="2.13"/>
				</g>
				<g>
					<circle fill="#F4F0DF" cx="28.982" cy="200.713" r="2.13"/>
				</g>
			</g>
			<g>
				<g opacity="0.29">
					<circle fill="#6D6D61" cx="38.554" cy="207.362" r="2.129"/>
				</g>
				<g>
					<circle fill="#F4F0DF" cx="38.128" cy="207.362" r="2.129"/>
				</g>
			</g>
			<g>
				<g opacity="0.29">
					<circle fill="#6D6D61" cx="49.466" cy="213.563" r="2.13"/>
				</g>
				<g>
					<circle fill="#F4F0DF" cx="49.04" cy="213.563" r="2.13"/>
				</g>
			</g>
			<g>
				<g opacity="0.29">
					<circle fill="#6D6D61" cx="121.75" cy="234.035" r="2.129"/>
				</g>
				<g>
					<circle fill="#F4F0DF" cx="121.325" cy="234.035" r="2.129"/>
				</g>
			</g>
			<g>
				<g opacity="0.29">
					<circle fill="#6D6D61" cx="110.465" cy="233.312" r="2.13"/>
				</g>
				<g>
					<circle fill="#F4F0DF" cx="110.039" cy="233.312" r="2.13"/>
				</g>
			</g>
			<g>
				<g opacity="0.29">
					<circle fill="#6D6D61" cx="98.108" cy="231.116" r="2.13"/>
				</g>
				<g>
					<circle fill="#F4F0DF" cx="97.683" cy="231.116" r="2.13"/>
				</g>
			</g>
			<g>
				<g opacity="0.29">
					<circle fill="#6D6D61" cx="61.292" cy="219.01" r="2.13"/>
				</g>
				<g>
					<circle fill="#F4F0DF" cx="60.866" cy="219.01" r="2.13"/>
				</g>
			</g>
			<g>
				<g opacity="0.29">
					<circle fill="#6D6D61" cx="73.494" cy="223.413" r="2.13"/>
				</g>
				<g>
					<circle fill="#F4F0DF" cx="73.069" cy="223.413" r="2.13"/>
				</g>
			</g>
			<g>
				<g opacity="0.29">
					<circle fill="#6D6D61" cx="85.697" cy="227.816" r="2.129"/>
				</g>
				<g>
					<circle fill="#F4F0DF" cx="85.271" cy="227.816" r="2.129"/>
				</g>
			</g>
		</g>
		<path fill="#BDE5E2" d="M58.553,197.134c0,0,3.305-23.791,5.346-31.548c3.431-13.042,20.365-18.636,35.253-13.263l0,0
			c14.889,5.373,24.35,20.491,18.662,32.718c-3.383,7.274-16.032,27.693-16.032,27.693s-12.411-2.816-22.611-6.497
			C70.089,202.961,58.553,197.134,58.553,197.134z"/>
	</g>
	<g>
		<path fill="#8ABA45" d="M90.571,209.662l10.599-22.049c3.686-10.216-3.117-14.886-9.502-17.19l0,0
			c-6.385-2.304-14.702-1.732-18.027,7.481l-6.187,23.417C67.454,201.321,79.142,207.033,90.571,209.662z"/>
		<g>
			<path fill="#697F41" d="M76.202,192.186c0,0,0.03,0.059,0.084,0.169c0.054,0.111,0.134,0.275,0.255,0.468
				c0.109,0.2,0.263,0.43,0.448,0.689c0.182,0.26,0.413,0.535,0.659,0.836c0.259,0.292,0.542,0.606,0.875,0.901
				c0.158,0.157,0.329,0.308,0.517,0.448c0.187,0.139,0.36,0.303,0.561,0.44c0.201,0.134,0.405,0.27,0.611,0.408
				c0.204,0.143,0.438,0.242,0.656,0.369c0.434,0.265,0.93,0.418,1.401,0.621l0.74,0.213c0.124,0.034,0.245,0.075,0.369,0.103
				l0.377,0.06c0.25,0.042,0.498,0.083,0.743,0.125c0.247,0.022,0.493,0.026,0.735,0.04c0.241,0.007,0.479,0.034,0.712,0.024
				c0.233-0.014,0.461-0.028,0.684-0.042c0.223-0.015,0.439-0.022,0.649-0.042c0.207-0.036,0.406-0.072,0.598-0.105
				c0.382-0.079,0.744-0.11,1.051-0.194c0.308-0.083,0.576-0.156,0.797-0.217c0.446-0.115,0.7-0.182,0.7-0.182
				s-0.245,0.095-0.674,0.261c-0.217,0.082-0.479,0.18-0.781,0.292s-0.661,0.179-1.047,0.275c-0.193,0.044-0.395,0.092-0.604,0.142
				c-0.211,0.031-0.433,0.053-0.66,0.081c-0.228,0.025-0.462,0.053-0.7,0.081c-0.24,0.026-0.486-0.001-0.737,0.001
				c-0.25-0.007-0.505-0.004-0.763-0.021c-0.255-0.038-0.514-0.076-0.775-0.114l-0.393-0.06c-0.129-0.027-0.257-0.069-0.386-0.102
				l-0.774-0.217c-0.491-0.215-1.006-0.381-1.456-0.66c-0.473-0.238-0.89-0.548-1.297-0.841c-0.202-0.147-0.381-0.318-0.563-0.476
				c-0.186-0.154-0.353-0.32-0.507-0.49c-0.326-0.322-0.596-0.66-0.844-0.972c-0.238-0.319-0.447-0.62-0.605-0.901
				c-0.163-0.278-0.297-0.525-0.391-0.739c-0.106-0.207-0.16-0.379-0.202-0.495C76.224,192.249,76.202,192.186,76.202,192.186z"/>
			<polygon fill="#FCFCFC" points="77.227,194.188 78.439,193.513 77.883,195.056 			"/>
			<polygon fill="#FCFCFC" points="88.306,198.044 87.805,196.75 87.071,198.372 			"/>
		</g>
		<g>
			<g>
				<path fill="#FCFCFA" d="M84.574,179.124c2.122,7.262,8.467,2.927,8.467,2.927l0.022-0.062c-2.436-8.11-8.469-2.927-8.469-2.927"
					/>
				<path fill="#709334" d="M84.574,179.124c0,0,0.046,0.166,0.148,0.448c0.101,0.282,0.267,0.676,0.507,1.123
					c0.235,0.45,0.578,0.936,1.014,1.382c0.439,0.44,1.006,0.809,1.64,0.984c0.314,0.094,0.64,0.149,0.965,0.161
					c0.324,0.011,0.648,0.002,0.958-0.049c0.311-0.039,0.608-0.11,0.889-0.181c0.279-0.079,0.542-0.16,0.779-0.255
					c0.476-0.181,0.873-0.346,1.139-0.483c0.272-0.128,0.428-0.201,0.428-0.201s-0.144,0.095-0.396,0.259
					c-0.125,0.083-0.281,0.18-0.467,0.279c-0.183,0.104-0.389,0.224-0.63,0.324c-0.234,0.113-0.497,0.215-0.78,0.316
					c-0.284,0.093-0.587,0.191-0.915,0.239c-0.161,0.035-0.329,0.054-0.499,0.066c-0.169,0.023-0.343,0.019-0.518,0.015
					c-0.35-0.008-0.706-0.063-1.05-0.163c-0.689-0.208-1.297-0.624-1.754-1.104c-0.456-0.485-0.758-1.029-0.974-1.502
					c-0.219-0.475-0.325-0.898-0.399-1.189C84.592,179.295,84.574,179.124,84.574,179.124z"/>
				<g>
					<circle fill="#4D5B2F" cx="88.819" cy="180.382" r="1.568"/>
					<circle fill="#FCFCFC" cx="88.9" cy="180.006" r="0.459"/>
				</g>
			</g>
			<g>
				<path fill="#FCFCFA" d="M88.715,187.136c2.123,7.262,8.467,2.926,8.467,2.926L97.203,190c-2.436-8.111-8.468-2.927-8.468-2.927"
					/>
				<path fill="#709334" d="M88.715,187.136c0,0,0.046,0.166,0.148,0.448c0.101,0.282,0.267,0.676,0.507,1.123
					c0.236,0.451,0.579,0.936,1.014,1.381c0.44,0.441,1.006,0.809,1.641,0.984c0.313,0.095,0.639,0.151,0.965,0.162
					c0.324,0.012,0.648,0.001,0.958-0.05c0.311-0.039,0.608-0.11,0.889-0.181c0.28-0.079,0.543-0.159,0.78-0.254
					c0.476-0.182,0.872-0.347,1.138-0.483c0.272-0.128,0.428-0.202,0.428-0.202s-0.144,0.094-0.396,0.26
					c-0.126,0.082-0.281,0.179-0.467,0.278c-0.184,0.103-0.39,0.224-0.63,0.323c-0.234,0.113-0.498,0.214-0.78,0.316
					c-0.284,0.092-0.587,0.191-0.915,0.24c-0.161,0.034-0.329,0.053-0.499,0.065c-0.17,0.023-0.344,0.019-0.518,0.016
					c-0.351-0.008-0.707-0.063-1.05-0.163c-0.69-0.208-1.298-0.625-1.755-1.104c-0.456-0.486-0.758-1.029-0.974-1.503
					c-0.219-0.474-0.325-0.898-0.399-1.189C88.732,187.307,88.715,187.136,88.715,187.136z"/>
				<g>
					<circle fill="#4D5B2F" cx="92.96" cy="188.394" r="1.568"/>
					<circle fill="#FCFCFC" cx="93.041" cy="188.017" r="0.459"/>
				</g>
			</g>
			<g>
				<path fill="#FCFCFA" d="M75.977,181.925c2.122,7.263,8.467,2.927,8.467,2.927l0.021-0.062c-2.436-8.111-8.468-2.927-8.468-2.927
					"/>
				<path fill="#709334" d="M75.977,181.925c0,0,0.046,0.166,0.147,0.448s0.267,0.676,0.508,1.123
					c0.235,0.45,0.578,0.936,1.013,1.382c0.439,0.441,1.007,0.809,1.641,0.984c0.314,0.094,0.64,0.149,0.965,0.16
					c0.324,0.012,0.648,0.002,0.958-0.049c0.311-0.039,0.608-0.111,0.889-0.181c0.28-0.079,0.543-0.16,0.779-0.256
					c0.476-0.181,0.873-0.346,1.139-0.483c0.272-0.128,0.427-0.202,0.427-0.202s-0.144,0.095-0.396,0.26
					c-0.125,0.083-0.281,0.18-0.467,0.279c-0.184,0.104-0.389,0.223-0.63,0.324c-0.234,0.113-0.497,0.214-0.78,0.315
					c-0.284,0.093-0.587,0.19-0.915,0.24c-0.161,0.034-0.328,0.053-0.499,0.066c-0.17,0.023-0.343,0.019-0.519,0.016
					c-0.35-0.008-0.706-0.063-1.05-0.164c-0.69-0.208-1.298-0.625-1.754-1.105c-0.456-0.485-0.758-1.029-0.974-1.501
					c-0.22-0.475-0.324-0.898-0.398-1.19C75.995,182.097,75.977,181.925,75.977,181.925z"/>
				<g>
					<circle fill="#4D5B2F" cx="80.222" cy="183.183" r="1.568"/>
					<circle fill="#FCFCFC" cx="80.303" cy="182.807" r="0.459"/>
				</g>
			</g>
		</g>
		<g>
			<g>
				<g>
					
						<rect x="97.145" y="169.086" transform="matrix(0.5889 0.8082 -0.8082 0.5889 178.999 -8.3248)" fill="#8ABA45" width="1.075" height="5.409"/>
				</g>
				<circle fill="#8ABA45" cx="100.749" cy="169.281" r="1.461"/>
			</g>
			<g>
				<g>
					
						<rect x="85.601" y="167.59" transform="matrix(0.1199 0.9928 -0.9928 0.1199 244.6363 60.3049)" fill="#8ABA45" width="5.41" height="1.074"/>
				</g>
				<circle fill="#8ABA45" cx="87.982" cy="164.393" r="1.462"/>
			</g>
		</g>
	</g>
	<g>
		<path opacity="0.3" fill="#C3E5E2" d="M58.553,197.236c0,0,3.305-23.792,5.346-31.549c3.431-13.042,20.365-18.635,35.253-13.263
			l0,0c14.889,5.372,24.35,20.49,18.662,32.718c-3.383,7.273-16.032,27.693-16.032,27.693s-12.411-2.815-22.611-6.497
			C70.089,203.062,58.553,197.236,58.553,197.236z"/>
		<g opacity="0.7">
			<path fill="#F7F9F9" d="M82.281,155.038c0,0-0.345,0.15-0.947,0.41c-0.299,0.129-0.658,0.298-1.066,0.485
				c-0.409,0.188-0.862,0.417-1.354,0.657c-0.49,0.246-1.009,0.532-1.552,0.834c-0.266,0.162-0.547,0.311-0.822,0.481
				c-0.273,0.172-0.552,0.349-0.837,0.528c-0.274,0.188-0.553,0.381-0.835,0.576c-0.27,0.21-0.542,0.419-0.821,0.625
				c-0.261,0.225-0.519,0.457-0.788,0.678l-0.741,0.728l-0.681,0.774l-0.042,0.048c0.001-0.002-0.032,0.04-0.003,0.001l-0.021,0.028
				l-0.082,0.112l-0.168,0.22l-0.333,0.438c-0.22,0.292-0.442,0.579-0.665,0.86c-0.193,0.28-0.385,0.557-0.573,0.831
				c-0.396,0.532-0.719,1.093-1.043,1.618c-0.177,0.257-0.292,0.529-0.434,0.784c-0.131,0.257-0.287,0.498-0.386,0.748
				c-0.214,0.494-0.43,0.948-0.583,1.37c-0.162,0.424-0.302,0.793-0.418,1.097c-0.238,0.616-0.397,0.959-0.397,0.959
				s0.007-0.38,0.048-1.033c0.022-0.329,0.032-0.729,0.101-1.188c0.032-0.229,0.05-0.478,0.101-0.735
				c0.056-0.257,0.114-0.528,0.175-0.81c0.054-0.286,0.165-0.566,0.25-0.868c0.096-0.297,0.188-0.613,0.326-0.912
				c0.263-0.608,0.535-1.257,0.916-1.883c0.178-0.318,0.364-0.645,0.557-0.963c0.2-0.299,0.405-0.598,0.615-0.896l0.315-0.452
				l0.158-0.227l0.081-0.112l0.02-0.029l0.042-0.052l0.048-0.057c0.257-0.301,0.509-0.612,0.776-0.907l0.857-0.818
				c0.306-0.245,0.611-0.488,0.913-0.729c0.316-0.22,0.633-0.432,0.947-0.638c0.322-0.192,0.643-0.375,0.961-0.551
				c0.642-0.335,1.278-0.623,1.893-0.86c0.614-0.237,1.206-0.424,1.757-0.574c0.548-0.158,1.06-0.268,1.515-0.351
				c0.452-0.092,0.853-0.138,1.182-0.176C81.9,155.032,82.281,155.038,82.281,155.038z"/>
		</g>
	</g>
</g>
<g>
	<circle opacity="0.1" fill="#F9F9F7" cx="449.077" cy="355.911" r="48.168"/>
	<circle fill="#E9E8E8" cx="449.076" cy="355.911" r="45.327"/>
	<path opacity="0.2" fill="#C6C4C4" d="M474.713,318.527c0,0,31.797,65.034-36.272,81.454c0,0,39.541,10.2,54.234-31.627
		C492.675,368.354,502.905,339.095,474.713,318.527z"/>
	<g>
		<g>
			<g opacity="0.25">
				<path d="M417.977,351.147c-2.43-5.691-0.813-14.682,4.878-17.114c5.691-2.43,13.537-0.325,15.969,5.367
					c2.431,5.692-1.474,12.817-7.166,15.248C425.966,357.079,420.407,356.839,417.977,351.147z"/>
			</g>
			<g>
				<path fill="#BCBEC0" d="M417.229,351.147c-2.43-5.691-0.813-14.682,4.878-17.114c5.691-2.43,13.537-0.325,15.969,5.367
					c2.431,5.692-1.474,12.817-7.166,15.248C425.219,357.079,419.66,356.839,417.229,351.147z"/>
			</g>
		</g>
		<g>
			<g opacity="0.25">
				<path d="M419.738,349.89c-2-4.682-0.671-12.073,4.011-14.072c4.679-1.999,11.132-0.268,13.13,4.413
					c1.999,4.681-1.212,10.538-5.892,12.537C426.308,354.767,421.737,354.569,419.738,349.89z"/>
			</g>
			<g>
				<path fill="#AAADAF" d="M418.991,349.89c-2-4.682-0.671-12.073,4.011-14.072c4.679-1.999,11.132-0.268,13.13,4.413
					c1.999,4.681-1.212,10.538-5.892,12.537C425.561,354.767,420.99,354.569,418.991,349.89z"/>
			</g>
		</g>
	</g>
	<g>
		<g opacity="0.25">
			<path d="M442.57,363.702c-0.491-1.15-0.165-2.971,0.987-3.461c1.152-0.493,2.738-0.067,3.229,1.084
				c0.495,1.152-0.296,2.594-1.448,3.087C444.187,364.903,443.062,364.854,442.57,363.702z"/>
		</g>
		<g>
			<path fill="#BCBEC0" d="M441.823,363.702c-0.491-1.15-0.165-2.971,0.987-3.461c1.152-0.493,2.738-0.067,3.229,1.084
				c0.495,1.152-0.296,2.594-1.448,3.087C443.439,364.903,442.314,364.854,441.823,363.702z"/>
		</g>
	</g>
	<g>
		<g opacity="0.25">
			<path d="M478.617,369.993c-0.608-1.419-0.203-3.664,1.217-4.27c1.42-0.607,3.38-0.081,3.984,1.338
				c0.609,1.421-0.367,3.201-1.787,3.807C480.61,371.476,479.224,371.416,478.617,369.993z"/>
		</g>
		<g>
			<path fill="#BCBEC0" d="M477.87,369.993c-0.608-1.419-0.203-3.664,1.217-4.27c1.42-0.607,3.38-0.081,3.984,1.338
				c0.609,1.421-0.367,3.201-1.787,3.807C479.863,371.476,478.477,371.416,477.87,369.993z"/>
		</g>
	</g>
	<g>
		<g opacity="0.25">
			<path d="M460.169,359.292c-2.961-6.937,0.029-14.702,7.114-17.728c7.082-3.023,15.894-3.762,18.854,3.173
				c2.963,6.935-3.525,13.244-10.608,16.267C468.444,364.03,463.131,366.227,460.169,359.292z"/>
			<path d="M462.093,357.977c-2.505-5.866,0.024-12.431,6.014-14.99c5.99-2.557,13.44-3.184,15.944,2.682
				c2.506,5.862-2.983,11.198-8.972,13.757C469.089,361.981,464.596,363.839,462.093,357.977z"/>
		</g>
		<g>
			<g>
				<path fill="#BCBEC0" d="M459.422,359.292c-2.961-6.937,0.029-14.702,7.114-17.728c7.082-3.023,15.894-3.762,18.854,3.173
					c2.963,6.935-3.525,13.244-10.608,16.267C467.697,364.03,462.384,366.227,459.422,359.292z"/>
				<path fill="#AAADAF" d="M461.346,357.977c-2.505-5.866,0.024-12.431,6.014-14.99c5.99-2.557,13.44-3.184,15.944,2.682
					c2.506,5.862-2.983,11.198-8.972,13.757C468.342,361.981,463.849,363.839,461.346,357.977z"/>
			</g>
		</g>
	</g>
	<g>
		<g>
			<g opacity="0.25">
				<path d="M470.726,387.44c-4.135,3.076-9.77,2.33-12.911-1.893c-3.14-4.218-5.038-9.953-0.905-13.025
					c4.13-3.078,9.356,0.226,12.499,4.443C472.55,381.187,474.856,384.366,470.726,387.44z"/>
			</g>
			<g>
				<path fill="#BCBEC0" d="M469.979,387.44c-4.135,3.076-9.77,2.33-12.911-1.893c-3.14-4.218-5.038-9.953-0.905-13.025
					c4.13-3.078,9.356,0.226,12.499,4.443C471.803,381.187,474.109,384.366,469.979,387.44z"/>
			</g>
		</g>
		<g>
			<g opacity="0.25">
				<path d="M469.543,386.375c-3.494,2.6-8.259,1.967-10.916-1.601c-2.655-3.568-4.263-8.414-0.768-11.016
					c3.494-2.603,7.915,0.19,10.569,3.759C471.085,381.087,473.037,383.773,469.543,386.375z"/>
			</g>
			<g>
				<path fill="#AAADAF" d="M468.796,386.375c-3.494,2.6-8.259,1.967-10.916-1.601c-2.655-3.568-4.263-8.414-0.768-11.016
					c3.494-2.603,7.915,0.19,10.569,3.759C470.338,381.087,472.29,383.773,468.796,386.375z"/>
			</g>
		</g>
	</g>
	<g>
		<g>
			<g opacity="0.25">
				<path d="M433.765,387.605c0.159-2.748,2.397-4.797,5.203-4.637c2.807,0.165,5.807,1.354,5.646,4.101
					c-0.157,2.749-3.306,3.756-6.11,3.595C435.697,390.498,433.603,390.353,433.765,387.605z"/>
			</g>
			<g>
				<path fill="#BCBEC0" d="M433.018,387.605c0.159-2.748,2.397-4.797,5.203-4.637c2.807,0.165,5.807,1.354,5.646,4.101
					c-0.157,2.749-3.306,3.756-6.11,3.595C434.95,390.498,432.855,390.353,433.018,387.605z"/>
			</g>
		</g>
		<path fill="#AAADAF" d="M433.857,387.487c0.136-2.321,2.03-4.057,4.404-3.918c2.371,0.137,4.907,1.143,4.772,3.466
			s-2.795,3.174-5.166,3.037C435.495,389.935,433.724,389.811,433.857,387.487z"/>
	</g>
	<g>
		<g>
			<g opacity="0.25">
				<path d="M453.969,330.67c0.209-3.63,3.167-6.338,6.872-6.125c3.707,0.215,7.671,1.788,7.458,5.417
					c-0.209,3.63-4.365,4.958-8.07,4.744C456.521,334.492,453.756,334.296,453.969,330.67z"/>
			</g>
			<g>
				<path fill="#BCBEC0" d="M453.222,330.67c0.209-3.63,3.167-6.338,6.872-6.125c3.707,0.215,7.671,1.788,7.458,5.417
					c-0.209,3.63-4.365,4.958-8.07,4.744C455.773,334.492,453.009,334.296,453.222,330.67z"/>
			</g>
		</g>
		<g>
			<g opacity="0.25">
				<path d="M455.079,330.514c0.178-3.068,2.681-5.359,5.814-5.177c3.134,0.183,6.482,1.51,6.306,4.58
					c-0.177,3.069-3.692,4.191-6.824,4.011C457.24,333.746,454.901,333.582,455.079,330.514z"/>
			</g>
			<g>
				<path fill="#AAADAF" d="M454.332,330.514c0.178-3.068,2.681-5.359,5.814-5.177c3.134,0.183,6.482,1.51,6.306,4.58
					c-0.177,3.069-3.692,4.191-6.824,4.011C456.493,333.746,454.154,333.582,454.332,330.514z"/>
			</g>
		</g>
	</g>
	<g>
		<g>
			<g opacity="0.25">
				<path d="M416.84,363.073c1.302-1.486,3.476-1.66,4.993-0.329c1.518,1.33,2.692,3.329,1.39,4.815
					c-1.303,1.487-3.53,0.668-5.046-0.662C416.657,365.566,415.535,364.558,416.84,363.073z"/>
			</g>
			<g>
				<path fill="#BCBEC0" d="M416.093,363.073c1.302-1.486,3.476-1.66,4.993-0.329c1.518,1.33,2.692,3.329,1.39,4.815
					c-1.303,1.487-3.53,0.668-5.046-0.662C415.91,365.566,414.788,364.558,416.093,363.073z"/>
			</g>
		</g>
		<path fill="#AAADAF" d="M416.62,363.378c1.103-1.256,2.94-1.402,4.226-0.278c1.283,1.126,2.274,2.815,1.173,4.072
			c-1.101,1.258-2.983,0.564-4.269-0.56C416.467,365.487,415.52,364.635,416.62,363.378z"/>
	</g>
	<g>
		<path fill="#BCBEC0" d="M440.317,323.881c0.929-1.06,2.48-1.184,3.563-0.234c1.083,0.948,1.921,2.375,0.992,3.436
			c-0.932,1.061-2.52,0.477-3.602-0.472C440.188,325.66,439.388,324.941,440.317,323.881z"/>
		<g>
			<g opacity="0.25">
				<path d="M441.44,324.098c0.788-0.895,2.099-1.002,3.015-0.197c0.916,0.803,1.624,2.007,0.838,2.905
					c-0.786,0.897-2.129,0.403-3.044-0.4C441.333,325.603,440.654,324.995,441.44,324.098z"/>
			</g>
			<g>
				<path fill="#AAADAF" d="M440.693,324.098c0.788-0.895,2.099-1.002,3.015-0.197c0.916,0.803,1.624,2.007,0.838,2.905
					c-0.786,0.897-2.129,0.403-3.044-0.4C440.586,325.603,439.907,324.995,440.693,324.098z"/>
			</g>
		</g>
	</g>
</g>
<rect x="386.662" y="-237.6" fill="none" width="101.547" height="83.42"/>
<g>
	<g>
		<g>
			<path fill="#98A8A7" d="M73.524,503.469c-0.061,0.176-0.253,0.271-0.429,0.21l-5.701-1.957c-0.176-0.061-0.27-0.253-0.209-0.429
				l0.701-2.043c0.061-0.176,0.253-0.271,0.429-0.21l5.701,1.957c0.176,0.061,0.27,0.253,0.209,0.429L73.524,503.469z"/>
		</g>
		<g>
			<path fill="#9DB2B2" d="M63.503,512.017c-0.061,0.176-0.253,0.27-0.429,0.21l-42.595-14.623c-0.176-0.06-0.27-0.253-0.21-0.429
				l8.641-25.169c0.06-0.176,0.253-0.27,0.429-0.21l42.596,14.623c0.176,0.06,0.27,0.253,0.209,0.429L63.503,512.017z"/>
		</g>
		<g>
			<g>
				
					<rect x="27.891" y="472.139" transform="matrix(0.9453 0.3262 -0.3262 0.9453 159.9815 17.4142)" fill="#797C7C" width="0.338" height="27.286"/>
			</g>
			<g>
				
					<rect x="31.191" y="473.271" transform="matrix(0.9469 0.3214 -0.3214 0.9469 158.1756 15.7598)" fill="#797C7C" width="0.337" height="27.286"/>
			</g>
			<g>
				
					<rect x="34.489" y="474.404" transform="matrix(0.9443 0.3292 -0.3292 0.9443 162.5933 15.7931)" fill="#797C7C" width="0.338" height="27.286"/>
			</g>
			<g>
				
					<rect x="37.789" y="475.536" transform="matrix(0.9462 0.3236 -0.3236 0.9462 160.3335 14.0359)" fill="#797C7C" width="0.338" height="27.286"/>
			</g>
			<g>
				
					<rect x="41.088" y="476.67" transform="matrix(0.9441 0.3296 -0.3296 0.9441 163.9337 13.8056)" fill="#797C7C" width="0.338" height="27.286"/>
			</g>
			<g>
				
					<rect x="44.387" y="477.801" transform="matrix(0.9471 0.321 -0.321 0.9471 160.1092 11.7047)" fill="#797C7C" width="0.338" height="27.286"/>
			</g>
			<g>
				
					<rect x="47.686" y="478.936" transform="matrix(0.9459 0.3245 -0.3245 0.9459 162.4173 11.1234)" fill="#797C7C" width="0.337" height="27.286"/>
			</g>
			<g>
				
					<rect x="50.985" y="480.067" transform="matrix(0.9443 0.3292 -0.3292 0.9443 165.377 10.6786)" fill="#797C7C" width="0.338" height="27.286"/>
			</g>
			<g>
				
					<rect x="54.284" y="481.202" transform="matrix(0.9444 0.3287 -0.3287 0.9444 165.7038 9.6028)" fill="#797C7C" width="0.339" height="27.285"/>
			</g>
			<g>
				
					<rect x="57.583" y="482.334" transform="matrix(0.9452 0.3266 -0.3266 0.9452 165.1602 8.3378)" fill="#797C7C" width="0.338" height="27.285"/>
			</g>
			<g>
				
					<rect x="60.882" y="483.465" transform="matrix(0.9462 0.3236 -0.3236 0.9462 164.1414 6.9897)" fill="#797C7C" width="0.338" height="27.285"/>
			</g>
			<g>
				
					<rect x="64.182" y="484.599" transform="matrix(0.946 0.324 -0.324 0.946 164.916 6.0301)" fill="#797C7C" width="0.338" height="27.284"/>
			</g>
			<g>
				
					<rect x="25.589" y="485.323" transform="matrix(0.9458 0.3247 -0.3247 0.9458 160.2805 10.5794)" fill="#797C7C" width="45.711" height="0.338"/>
			</g>
			<g>
				
					<rect x="23.063" y="492.681" transform="matrix(0.9458 0.3247 -0.3247 0.9458 162.5313 11.798)" fill="#797C7C" width="45.711" height="0.337"/>
			</g>
			<g>
				
					<rect x="20.536" y="500.038" transform="matrix(0.9458 0.3247 -0.3247 0.9458 164.7625 13.0119)" fill="#797C7C" width="45.711" height="0.34"/>
			</g>
		</g>
	</g>
	<g>
		<g>
			<path fill="#98A8A7" d="M102.082,513.273c-0.061,0.176-0.253,0.27-0.429,0.21l-5.701-1.959c-0.176-0.06-0.27-0.253-0.21-0.429
				l0.701-2.041c0.06-0.176,0.253-0.27,0.429-0.21l5.702,1.959c0.176,0.06,0.27,0.253,0.209,0.429L102.082,513.273z"/>
		</g>
		<g>
			<path fill="#9DB2B2" d="M141.635,538.843c-0.061,0.176-0.253,0.27-0.429,0.21L98.61,524.43c-0.176-0.06-0.27-0.253-0.21-0.429
				l8.641-25.169c0.06-0.176,0.253-0.27,0.429-0.21l42.596,14.623c0.176,0.06,0.27,0.253,0.21,0.429L141.635,538.843z"/>
		</g>
		<g>
			<g>
				
					<rect x="106.023" y="498.964" transform="matrix(0.946 0.324 -0.324 0.946 171.8282 -6.7528)" fill="#797C7C" width="0.338" height="27.284"/>
			</g>
			<g>
				
					<rect x="109.322" y="500.096" transform="matrix(0.9443 0.3292 -0.3292 0.9443 175.2217 -7.4093)" fill="#797C7C" width="0.338" height="27.286"/>
			</g>
			<g>
				
					<rect x="112.622" y="501.23" transform="matrix(0.9462 0.3236 -0.3236 0.9462 172.6736 -8.7967)" fill="#797C7C" width="0.338" height="27.286"/>
			</g>
			<g>
				
					<rect x="115.92" y="502.363" transform="matrix(0.9452 0.3266 -0.3266 0.9452 174.9011 -9.6175)" fill="#797C7C" width="0.338" height="27.285"/>
			</g>
			<g>
				
					<rect x="119.22" y="503.494" transform="matrix(0.946 0.324 -0.324 0.946 174.0085 -10.7845)" fill="#797C7C" width="0.338" height="27.286"/>
			</g>
			<g>
				
					<rect x="122.519" y="504.628" transform="matrix(0.9443 0.3292 -0.3292 0.9443 177.4489 -11.501)" fill="#797C7C" width="0.338" height="27.284"/>
			</g>
			<g>
				
					<rect x="125.818" y="505.76" transform="matrix(0.9452 0.3266 -0.3266 0.9452 176.5539 -12.6638)" fill="#797C7C" width="0.338" height="27.286"/>
			</g>
			<g>
				
					<rect x="129.118" y="506.892" transform="matrix(0.9471 0.321 -0.321 0.9471 173.9311 -13.954)" fill="#797C7C" width="0.338" height="27.286"/>
			</g>
			<g>
				
					<rect x="132.417" y="508.025" transform="matrix(0.9459 0.3245 -0.3245 0.9459 176.4402 -14.7955)" fill="#797C7C" width="0.337" height="27.286"/>
			</g>
			<g>
				
					<rect x="135.715" y="509.158" transform="matrix(0.9443 0.3292 -0.3292 0.9443 179.6758 -15.5927)" fill="#797C7C" width="0.338" height="27.284"/>
			</g>
			<g>
				
					<rect x="139.014" y="510.291" transform="matrix(0.9444 0.3287 -0.3287 0.9444 179.976 -16.6349)" fill="#797C7C" width="0.339" height="27.284"/>
			</g>
			<g>
				
					<rect x="142.314" y="511.422" transform="matrix(0.9469 0.3214 -0.3214 0.9469 176.336 -17.9344)" fill="#797C7C" width="0.337" height="27.286"/>
			</g>
			<g>
				
					<rect x="103.721" y="512.146" transform="matrix(0.9458 0.3247 -0.3247 0.9458 173.2199 -13.3395)" fill="#797C7C" width="45.712" height="0.339"/>
			</g>
			<g>
				
					<rect x="101.194" y="519.506" transform="matrix(0.9458 0.3248 -0.3248 0.9458 175.4888 -12.1187)" fill="#797C7C" width="45.711" height="0.337"/>
			</g>
			<g>
				
					<rect x="98.667" y="526.865" transform="matrix(0.9458 0.3247 -0.3247 0.9458 177.7273 -10.9008)" fill="#797C7C" width="45.712" height="0.338"/>
			</g>
		</g>
	</g>
	<g>
		<g>
			<path fill="#449799" d="M89.989,527.854c-0.061,0.176-0.253,0.271-0.429,0.21l-22.215-7.626c-0.176-0.06-0.27-0.253-0.209-0.429
				l10.712-31.201c0.061-0.176,0.253-0.27,0.429-0.21l22.215,7.628c0.176,0.061,0.27,0.253,0.209,0.429L89.989,527.854z"/>
		</g>
		<polygon fill="#277A7A" points="96.048,497.551 87.93,494.862 79.824,492.135 80.008,492.044 75.534,505.172 71.002,518.279 
			70.912,518.094 78.983,520.923 87.042,523.786 78.923,521.095 70.818,518.368 70.681,518.323 70.728,518.185 75.202,505.059 
			79.734,491.951 79.782,491.813 79.917,491.86 87.989,494.689 		"/>
		<g>
			
				<rect x="80.986" y="495.122" transform="matrix(0.9454 0.3258 -0.3258 0.9454 166.0751 0.3856)" fill="#277A7A" width="1.801" height="1.799"/>
			
				<rect x="79.688" y="498.898" transform="matrix(0.9459 0.3244 -0.3244 0.9459 166.5116 0.8896)" fill="#FFD200" width="1.8" height="1.802"/>
			
				<rect x="84.494" y="496.326" transform="matrix(0.9456 0.3253 -0.3253 0.9456 166.4037 -0.7334)" fill="#C6413E" width="1.801" height="1.799"/>
			
				<rect x="83.198" y="500.102" transform="matrix(0.946 0.324 -0.324 0.946 166.8788 -0.2191)" fill="#277A7A" width="1.799" height="1.802"/>
			
				<rect x="88.003" y="497.531" transform="matrix(0.9458 0.3248 -0.3248 0.9458 166.6861 -1.8562)" fill="#124466" width="1.801" height="1.8"/>
			
				<rect x="86.706" y="501.309" transform="matrix(0.9458 0.3248 -0.3248 0.9458 167.8869 -1.223)" fill="#C6413E" width="1.801" height="1.799"/>
			
				<rect x="91.513" y="498.734" transform="matrix(0.9461 0.3239 -0.3239 0.9461 166.8398 -2.9939)" fill="#8ABA45" width="1.8" height="1.801"/>
			
				<rect x="90.215" y="502.515" transform="matrix(0.9455 0.3255 -0.3255 0.9455 168.8174 -2.2438)" fill="#FFD200" width="1.8" height="1.799"/>
		</g>
	</g>
	<g>
		<g>
			<path fill="#999999" d="M80.253,528.691c-0.082,0.082-0.238,0.118-0.347,0.08l-5.675-1.948c-0.109-0.038-0.204-0.163-0.21-0.278
				l-0.205-3.68c-0.006-0.115,0.078-0.18,0.187-0.142l8.898,3.054c0.109,0.038,0.132,0.135,0.05,0.217L80.253,528.691z"/>
		</g>
		<polyline fill="#888989" points="73.804,522.655 73.867,523.772 82.283,526.662 83.1,525.846 		"/>
	</g>
	<g>
		<g>
			<path fill="#999999" d="M92.012,492.958c-0.06,0.176-0.253,0.27-0.429,0.21l-4.4-1.513c-0.176-0.06-0.27-0.253-0.209-0.429
				l2.888-8.411c0.06-0.176,0.253-0.27,0.429-0.21l4.4,1.513c0.176,0.06,0.27,0.253,0.21,0.429L92.012,492.958z"/>
		</g>
		<path fill="#888989" d="M89.412,484.122c0,0,2.669,1.547,5.084,1.6l-0.225,0.656c0,0-2.262,0.478-5.137-1.447L89.412,484.122z"/>
	</g>
	<g>
		<path fill="#CCCCCC" d="M108.975,476.532c-2.461,7.17-10.271,10.985-17.442,8.525c-7.17-2.463-10.988-10.271-8.526-17.441
			L108.975,476.532z"/>
		
			<ellipse transform="matrix(0.9458 0.3247 -0.3247 0.9458 158.5014 -5.5876)" fill="#999999" cx="95.991" cy="472.074" rx="13.728" ry="3.431"/>
		<g>
			<path fill="#808080" d="M92.806,474.563c0,0,4.01-3.1,5.368-10.162l1.352,0.466c0,0-3.411,7.873-1.905,11.304
				C97.621,476.17,95.423,475.53,92.806,474.563z"/>
			<circle fill="#C6413E" cx="99.204" cy="463.806" r="1.35"/>
		</g>
	</g>
</g>
<rect x="386.662" y="962.555" fill="none" width="101.547" height="83.42"/>
<rect x="386.662" y="749.511" fill="none" width="101.547" height="83.419"/>
</svg>
