<?xml version="1.0" encoding="utf-8"?>
<!-- Generator: Adobe Illustrator 16.0.0, SVG Export Plug-In . SVG Version: 6.00 Build 0)  -->
<!DOCTYPE svg PUBLIC "-//W3C//DTD SVG 1.1//EN" "http://www.w3.org/Graphics/SVG/1.1/DTD/svg11.dtd">
<svg version="1.1" id="Layer_1" xmlns="http://www.w3.org/2000/svg" xmlns:xlink="http://www.w3.org/1999/xlink" x="0px" y="0px"
	 width="450px" height="623.16px" viewBox="0 0 450 623.16" enable-background="new 0 0 450 623.16" xml:space="preserve">
<g>
	<circle opacity="0.1" fill="#F9F9F7" cx="399.012" cy="74.336" r="29.769"/>
	<g>
		<g>
			<defs>
				<path id="SVGID_1_" d="M371.482,74.336c0-5.729,1.741-11.051,4.723-15.465c4.972-7.357,13.391-12.196,22.938-12.196
					c15.276,0,27.66,12.384,27.66,27.661c0,6.134-1.995,11.802-5.377,16.39c-5.034,6.836-13.141,11.271-22.283,11.271
					C383.866,101.997,371.482,89.612,371.482,74.336z"/>
			</defs>
			<use xlink:href="#SVGID_1_"  overflow="visible" fill="#36B1BA"/>
			<clipPath id="SVGID_2_">
				<use xlink:href="#SVGID_1_"  overflow="visible"/>
			</clipPath>
			<path clip-path="url(#SVGID_2_)" fill="#8ABA45" d="M376.205,58.871c0,0,11.21-2.295,12.617,0.388
				c0.626,1.193-2.274,2.776-2.866,3.987c-0.459,0.939-1.745,3.14,0.124,3.888c1.869,0.748,4.112,1.122,4.112,2.991
				c0,1.868,0.718,4.253,1.869,4.211c1.478-0.054,2.547-3.71,3.737-4.586c1.217-0.893,4.273-2.95,5.607-2.242
				c1.021,0.541,2.081,2.811,2.181,3.961c0.113,1.308-0.346,5.024-1.434,5.757c-0.628,0.424-2.288-0.609-3.01-0.374
				c-1.946,0.636-4.176,4.607-5.961,5.607c-1.891,1.06-6.599,0.283-8.597,1.121c-0.695,0.291-1.495,1.496-0.375,2.991
				c1.122,1.495,5.129,3.279,6.355,4.859c0.447,0.576,1.121,3.365-2.243,1.869c-3.364-1.495-8.837-5.935-10.466-8.971
				c-1.188-2.215-1.495-6.528-1.122-9.992c0.374-3.465-5.98-6.081-7.476-6.454"/>
			<path clip-path="url(#SVGID_2_)" fill="#8ABA45" d="M384.211,54.986c1.366,3.803,6.551-0.376,7.851,1.121
				c0.703,0.812-0.934,3.767,0,4.299c0.708,0.403,3.162-0.384,4.657-0.15c1.937,0.303,2.462,0.463,3.457,1.028
				c0.515,0.292,1.355,1.308,2.289,2.99c0.936,1.682,1.184,3.047,1.184,3.047s0.531,1.627,1.496,2.429
				c1.478,1.231,2.877-0.28,4.019-1.027c1.14-0.749,1.819-0.634,5.326-1.776c4.859-1.582,3.242-5.765,1.869-6.915
				c-1.405-1.176-4.299-1.496-7.289-0.748c-2.991,0.748-6.323,0.847-8.659-0.274c-1.114-0.535-4.346-2.539-4.906-3.427
				c-1.127-1.785-0.981-3.458-0.981-3.458s0.329-2.757-0.779-2.934c-1.229-0.196-3.002,0.318-5.061,1.579
				c-0.97,0.593-2.445,1.515-3.179,1.961C384.997,53.043,383.822,53.901,384.211,54.986z"/>
			<path clip-path="url(#SVGID_2_)" fill="#8ABA45" d="M426.804,71.496c0,0-4.202,2.135-4.313,0.453
				c-0.174-2.627,1.767-2.446,1.095-3.693c-0.723-1.34-5.606-1.897-5.606,2.368c0,2.368-3.02,2.122-3.364,3.713
				c-0.118,0.545,0.246,1.624,1.745,1.396c3.44-0.524,3.538,0.436,3.348,1.112c-0.159,0.566-0.586,1.107-1.104,1.38
				c-2.177,1.143-8.12-0.37-9.72,1.495c-0.475,0.554-0.001,1.744-0.997,2.741c-0.996,0.997-6.851,2.777-6.729,3.588
				c0.28,1.869,5.697,1.309,7.226,0.928c1.31-0.326,1.786-2.343,3.53-2.842c1.744-0.499,3.351-1.829,4.446-1.424
				c0.746,0.276,1.98,2.191-2.243,5.981c-4.787,4.294-9.808,0.516-12.46,2.242c-0.611,0.398-0.125,1.445-0.997,2.741
				c-0.717,1.065-3.119,1.316-3.489,2.242c-1.059,2.654,0.498,5.184,4.735,6.082C406.142,102.894,432.016,100.402,426.804,71.496z"
				/>
		</g>
		<path fill="#7DC823" d="M399.144,52.992"/>
		<path fill="#7DC823" d="M391.013,86.234c-0.479,0.104-1.937,0.723-0.854,1.77c1.086,1.046,1.346,0.476,2.204-0.097
			c0.858-0.573,0.855-1.704,0.153-1.596C391.822,86.417,391.694,86.085,391.013,86.234z"/>
		<path fill="#8ABA45" d="M398.816,51.166c-0.742-0.103-2.66,0.166,0.446,2.888c3.108,2.722,4.261,1.937,4.404,1.649
			c0.405-0.81-0.28-2.71-2.075-3.429C400.526,51.847,399.869,51.312,398.816,51.166z"/>
		<path fill="#7DC823" d="M393.054,88.308c-0.135,0.064-0.522,0.343-0.132,0.579c0.39,0.234,0.428,0.048,0.641-0.178
			c0.215-0.226,0.124-0.393-0.062-0.479C393.308,88.141,393.244,88.219,393.054,88.308z"/>
	</g>
	<path opacity="0.2" fill="#7C7979" d="M414.943,51.491c0,0,19.455,39.789-22.19,49.835c0,0,24.191,6.241,33.181-19.35
		C425.934,81.976,432.193,64.076,414.943,51.491z"/>
</g>
<g>
	<circle opacity="0.1" fill="#F9F9F7" cx="387.455" cy="555.517" r="22.894"/>
	<g>
		<g>
			<g>
				<g>
					<path fill="#E15444" d="M390.679,546.094c-20.509-6.829-38.507-8.252-40.196-3.179c-1.688,5.074,13.568,14.72,34.078,21.553
						c20.51,6.827,38.507,8.249,40.196,3.176S411.188,552.924,390.679,546.094z M385.339,562.129
						c-15.288-5.092-26.662-12.285-25.403-16.067c1.26-3.781,14.674-2.721,29.964,2.371c15.288,5.09,26.663,12.282,25.404,16.064
						C414.044,568.279,400.63,567.219,385.339,562.129z"/>
					<path fill="#C6413E" d="M390.624,546.69c-20.018-6.578-37.547-8.054-39.152-3.296c-1.604,4.755,13.609,13.563,33.627,20.14
						c20.018,6.576,37.256,8.431,38.86,3.674C425.565,562.452,410.639,553.268,390.624,546.69z M385.258,563.063
						c-18.92-6.217-33.318-14.524-31.802-19.021c1.519-4.494,18.086-3.099,37.009,3.116c18.919,6.22,33.028,14.903,31.511,19.398
						C420.457,571.053,404.179,569.28,385.258,563.063z"/>
				</g>
				<g>
					<g>
						<path fill="#F4C02F" d="M384.538,564.472c-6.563-2.187-12.585-4.662-17.689-7.182c0.073,0.825,0.189,1.655,0.366,2.488
							c2.366,11.169,13.338,18.304,24.505,15.939c4.462-0.946,8.277-3.269,11.104-6.423
							C397.271,568.252,391.032,566.633,384.538,564.472z"/>
						<g>
							<defs>
								<path id="XMLID_2_" d="M407.964,553.088c-0.049-0.626-0.174-1.248-0.306-1.877c-2.366-11.167-13.338-18.302-24.506-15.938
									c-4.266,0.904-8.063,2.951-10.723,6.011c-0.567,0.652-1.645,2.003-2.154,2.697c-2.068,2.825-3.164,6.304-3.444,9.887
									c4.578,2.83,11.069,5.794,18.487,8.264c7.329,2.441,14.223,3.952,19.559,4.451c1.89-2.975,3.18-6.424,3.207-10.057
									C408.09,555.668,408.029,553.945,407.964,553.088z"/>
							</defs>
							<use xlink:href="#XMLID_2_"  overflow="visible" fill="#F2C549"/>
							<clipPath id="XMLID_5_">
								<use xlink:href="#XMLID_2_"  overflow="visible"/>
							</clipPath>
							<path opacity="0.8" clip-path="url(#XMLID_5_)" fill="#F4CF67" d="M372.2,538.685c0,0,18.31,13.36,38.745,14.001
								l-0.435,2.716c0,0-29.06-4.139-40.903-16.192"/>
							<path opacity="0.8" clip-path="url(#XMLID_5_)" fill="#F4CF67" d="M366.228,559.861c0,0,18.767,10.939,38.392,10.237
								l-0.166,2.485c0,0-28.204-1.922-40.658-12.085"/>
							<path opacity="0.8" clip-path="url(#XMLID_5_)" fill="#F4CF67" d="M372.275,535.625c0,0,19.275,13.475,39.711,14.115
								l-0.289,1.809c0,0-29.059-4.138-40.902-16.193"/>
							<path opacity="0.6" clip-path="url(#XMLID_5_)" fill="#F4CF67" d="M367.532,543.989c0,0,21.245,13.681,41.68,14.322
								l-1.054,4.691c0,0-30.052-3.191-41.895-15.243"/>
						</g>
					</g>
				</g>
			</g>
		</g>
		<path opacity="0.2" fill="#D35029" d="M401.559,540.401c0,0,7.929,32.94-23.664,33.324c0,0,12.108,7.171,23.149-2.671
			c1.715-1.53,3.097-3.57,4.729-6.007C405.772,565.048,413.403,552.661,401.559,540.401z"/>
	</g>
</g>
<g>
	<g>
		<path fill="#F4C02F" d="M103.594,214.207c-2.636,7.737-15.356,8.137-38.625,0.385c-25.625-8.537-32.425-18.102-30.341-24.105"/>
		<path fill="#CC5F23" d="M118.718,214.279c-2.015,5.584-26.015,4.524-51.87-4.806c-25.855-9.329-45.572-22.934-43.321-29.174
			c0.718-1.99,24.211-8.307,52.904,2.62C102.118,192.701,119.188,212.978,118.718,214.279z"/>
		<path fill="#E27F34" d="M118.315,213.475c-2.015,5.583-24.985,3.593-50.841-5.737c-25.855-9.331-45.042-21.812-42.791-28.05
			c0.719-1.991,26.518-7.835,52.373,1.495C102.912,190.513,118.785,212.174,118.315,213.475z"/>
		<g>
			<g>
				<g opacity="0.29">
					<circle fill="#6D6D61" cx="33.233" cy="184.065" r="1.743"/>
				</g>
				<g>
					<circle fill="#F4F0DF" cx="32.884" cy="184.065" r="1.743"/>
				</g>
			</g>
			<g>
				<g opacity="0.29">
					<circle fill="#6D6D61" cx="40.717" cy="189.506" r="1.743"/>
				</g>
				<g>
					<circle fill="#F4F0DF" cx="40.368" cy="189.506" r="1.743"/>
				</g>
			</g>
			<g>
				<g opacity="0.29">
					<circle fill="#6D6D61" cx="49.646" cy="194.58" r="1.743"/>
				</g>
				<g>
					<circle fill="#F4F0DF" cx="49.298" cy="194.58" r="1.743"/>
				</g>
			</g>
			<g>
				<g opacity="0.29">
					<circle fill="#6D6D61" cx="108.799" cy="211.333" r="1.742"/>
				</g>
				<g>
					<circle fill="#F4F0DF" cx="108.45" cy="211.333" r="1.742"/>
				</g>
			</g>
			<g>
				<g opacity="0.29">
					<circle fill="#6D6D61" cx="99.563" cy="210.741" r="1.743"/>
				</g>
				<g>
					<circle fill="#F4F0DF" cx="99.215" cy="210.741" r="1.743"/>
				</g>
			</g>
			<g>
				<g opacity="0.29">
					<circle fill="#6D6D61" cx="89.452" cy="208.944" r="1.743"/>
				</g>
				<g>
					<circle fill="#F4F0DF" cx="89.104" cy="208.944" r="1.743"/>
				</g>
			</g>
			<g>
				<g opacity="0.29">
					<circle fill="#6D6D61" cx="59.324" cy="199.037" r="1.743"/>
				</g>
				<g>
					<circle fill="#F4F0DF" cx="58.975" cy="199.037" r="1.743"/>
				</g>
			</g>
			<g>
				<g opacity="0.29">
					<circle fill="#6D6D61" cx="69.31" cy="202.641" r="1.743"/>
				</g>
				<g>
					<circle fill="#F4F0DF" cx="68.961" cy="202.641" r="1.743"/>
				</g>
			</g>
			<g>
				<g opacity="0.29">
					<circle fill="#6D6D61" cx="79.296" cy="206.244" r="1.742"/>
				</g>
				<g>
					<circle fill="#F4F0DF" cx="78.947" cy="206.244" r="1.742"/>
				</g>
			</g>
		</g>
		<path fill="#BDE5E2" d="M57.083,181.136c0,0,2.705-19.468,4.374-25.816c2.809-10.673,16.666-15.25,28.85-10.854l0,0
			c12.184,4.397,19.925,16.769,15.271,26.775c-2.769,5.952-13.119,22.662-13.119,22.662s-10.156-2.304-18.503-5.316
			C66.523,185.905,57.083,181.136,57.083,181.136z"/>
	</g>
	<g>
		<path fill="#8ABA45" d="M83.284,191.388l8.673-18.043c3.017-8.36-2.551-12.182-7.776-14.067l0,0
			c-5.225-1.885-12.031-1.417-14.752,6.122l-5.063,19.163C64.366,184.563,73.931,189.236,83.284,191.388z"/>
		<g>
			<path fill="#697F41" d="M71.525,177.087c0,0,0.024,0.048,0.069,0.138c0.044,0.091,0.11,0.225,0.208,0.383
				c0.09,0.164,0.216,0.352,0.367,0.564c0.148,0.213,0.338,0.438,0.539,0.684c0.212,0.239,0.443,0.496,0.716,0.738
				c0.129,0.129,0.27,0.252,0.424,0.367c0.152,0.114,0.294,0.248,0.458,0.36c0.165,0.11,0.332,0.221,0.5,0.334
				c0.167,0.116,0.358,0.198,0.537,0.302c0.354,0.217,0.761,0.342,1.146,0.508l0.605,0.174c0.101,0.027,0.2,0.061,0.302,0.084
				l0.308,0.049c0.205,0.034,0.408,0.068,0.608,0.102c0.203,0.018,0.403,0.021,0.602,0.032c0.198,0.006,0.392,0.028,0.583,0.02
				c0.19-0.011,0.377-0.023,0.559-0.034c0.182-0.012,0.36-0.018,0.531-0.035c0.169-0.03,0.333-0.058,0.49-0.086
				c0.313-0.064,0.608-0.09,0.86-0.159c0.252-0.068,0.471-0.127,0.652-0.178c0.364-0.094,0.573-0.148,0.573-0.148
				s-0.201,0.078-0.552,0.213c-0.177,0.067-0.392,0.147-0.639,0.239c-0.247,0.093-0.541,0.147-0.856,0.225
				c-0.158,0.037-0.324,0.076-0.495,0.117c-0.172,0.025-0.354,0.043-0.54,0.065c-0.187,0.021-0.377,0.043-0.573,0.066
				c-0.196,0.021-0.398,0-0.603,0.001c-0.205-0.005-0.414-0.003-0.625-0.017c-0.209-0.03-0.421-0.062-0.635-0.093l-0.321-0.049
				c-0.106-0.022-0.21-0.056-0.316-0.083l-0.633-0.178c-0.401-0.176-0.823-0.312-1.192-0.54c-0.387-0.195-0.728-0.449-1.061-0.688
				c-0.165-0.121-0.312-0.26-0.461-0.389c-0.151-0.126-0.288-0.262-0.414-0.401c-0.267-0.264-0.488-0.54-0.69-0.795
				c-0.195-0.262-0.366-0.507-0.496-0.737c-0.134-0.228-0.244-0.43-0.32-0.605c-0.087-0.169-0.131-0.311-0.166-0.405
				C71.543,177.138,71.525,177.087,71.525,177.087z"/>
			<polygon fill="#FCFCFC" points="72.364,178.726 73.356,178.172 72.901,179.435 			"/>
			<polygon fill="#FCFCFC" points="81.431,181.881 81.021,180.822 80.42,182.149 			"/>
		</g>
		<g>
			<g>
				<path fill="#FCFCFA" d="M78.376,166.397c1.737,5.942,6.929,2.395,6.929,2.395l0.018-0.05c-1.993-6.637-6.93-2.395-6.93-2.395"/>
				<path fill="#709334" d="M78.376,166.397c0,0,0.038,0.136,0.121,0.366c0.083,0.23,0.218,0.553,0.415,0.919
					c0.192,0.368,0.474,0.766,0.83,1.131c0.359,0.36,0.824,0.662,1.342,0.805c0.256,0.077,0.524,0.123,0.79,0.131
					c0.266,0.009,0.53,0.002,0.783-0.04c0.254-0.032,0.498-0.09,0.728-0.148c0.229-0.064,0.444-0.13,0.637-0.209
					c0.39-0.148,0.714-0.283,0.932-0.396c0.223-0.105,0.35-0.165,0.35-0.165s-0.118,0.078-0.324,0.213
					c-0.103,0.068-0.229,0.146-0.382,0.228c-0.15,0.085-0.319,0.183-0.516,0.265c-0.191,0.093-0.407,0.176-0.638,0.258
					c-0.232,0.076-0.481,0.156-0.749,0.196c-0.132,0.028-0.269,0.044-0.408,0.054c-0.139,0.019-0.281,0.016-0.424,0.012
					c-0.287-0.006-0.578-0.051-0.86-0.133c-0.564-0.17-1.061-0.511-1.436-0.904c-0.373-0.397-0.62-0.842-0.797-1.229
					c-0.179-0.388-0.266-0.734-0.326-0.973C78.391,166.538,78.376,166.397,78.376,166.397z"/>
				<g>
					<circle fill="#4D5B2F" cx="81.85" cy="167.427" r="1.283"/>
					<circle fill="#FCFCFC" cx="81.917" cy="167.119" r="0.376"/>
				</g>
			</g>
			<g>
				<path fill="#FCFCFA" d="M81.765,172.954c1.737,5.942,6.929,2.394,6.929,2.394l0.018-0.05c-1.994-6.638-6.93-2.395-6.93-2.395"/>
				<path fill="#709334" d="M81.765,172.954c0,0,0.038,0.135,0.121,0.367c0.083,0.23,0.219,0.553,0.416,0.918
					c0.193,0.369,0.473,0.766,0.83,1.13c0.36,0.361,0.824,0.662,1.343,0.806c0.256,0.078,0.523,0.123,0.79,0.131
					c0.265,0.01,0.53,0.002,0.784-0.04c0.254-0.032,0.497-0.09,0.728-0.148c0.229-0.064,0.444-0.13,0.638-0.208
					c0.389-0.149,0.713-0.284,0.932-0.396c0.222-0.105,0.35-0.166,0.35-0.166s-0.118,0.077-0.323,0.213
					c-0.104,0.067-0.23,0.146-0.382,0.228c-0.151,0.084-0.319,0.183-0.516,0.265c-0.192,0.093-0.407,0.175-0.638,0.258
					c-0.232,0.076-0.481,0.157-0.749,0.197c-0.131,0.028-0.269,0.043-0.408,0.054c-0.139,0.019-0.281,0.016-0.424,0.013
					c-0.287-0.006-0.578-0.052-0.859-0.133c-0.564-0.17-1.062-0.511-1.436-0.904c-0.373-0.398-0.62-0.842-0.797-1.23
					c-0.179-0.388-0.265-0.734-0.326-0.973C81.779,173.094,81.765,172.954,81.765,172.954z"/>
				<g>
					<circle fill="#4D5B2F" cx="85.239" cy="173.984" r="1.283"/>
					<circle fill="#FCFCFC" cx="85.305" cy="173.675" r="0.376"/>
				</g>
			</g>
			<g>
				<path fill="#FCFCFA" d="M71.341,168.689c1.736,5.943,6.928,2.396,6.928,2.396l0.018-0.051c-1.993-6.637-6.93-2.395-6.93-2.395"
					/>
				<path fill="#709334" d="M71.341,168.689c0,0,0.038,0.136,0.121,0.367c0.082,0.231,0.218,0.553,0.415,0.919
					c0.193,0.369,0.474,0.766,0.83,1.131c0.36,0.361,0.824,0.661,1.343,0.806c0.257,0.077,0.523,0.122,0.79,0.131
					c0.266,0.01,0.531,0.002,0.784-0.04c0.254-0.032,0.498-0.09,0.728-0.148c0.229-0.064,0.444-0.13,0.637-0.209
					c0.39-0.148,0.714-0.283,0.932-0.396c0.223-0.104,0.35-0.165,0.35-0.165s-0.117,0.077-0.323,0.212
					c-0.104,0.068-0.23,0.147-0.382,0.229c-0.15,0.084-0.318,0.182-0.516,0.265c-0.191,0.093-0.407,0.175-0.638,0.258
					c-0.232,0.076-0.481,0.156-0.749,0.196c-0.132,0.028-0.269,0.043-0.409,0.054c-0.138,0.019-0.28,0.016-0.423,0.013
					c-0.287-0.006-0.578-0.051-0.86-0.134c-0.564-0.17-1.062-0.511-1.436-0.904c-0.373-0.396-0.62-0.841-0.797-1.229
					c-0.179-0.389-0.265-0.735-0.326-0.974C71.355,168.831,71.341,168.689,71.341,168.689z"/>
				<g>
					<circle fill="#4D5B2F" cx="74.815" cy="169.719" r="1.283"/>
					<circle fill="#FCFCFC" cx="74.882" cy="169.412" r="0.376"/>
				</g>
			</g>
		</g>
		<g>
			<g>
				<g>
					
						<rect x="88.664" y="158.183" transform="matrix(0.5886 0.8084 -0.8084 0.5886 166.332 -6.0434)" fill="#8ABA45" width="0.879" height="4.426"/>
				</g>
				<circle fill="#8ABA45" cx="91.613" cy="158.343" r="1.196"/>
			</g>
			<g>
				<g>
					
						<rect x="79.217" y="156.959" transform="matrix(0.1199 0.9928 -0.9928 0.1199 227.9315 57.6843)" fill="#8ABA45" width="4.427" height="0.879"/>
				</g>
				<circle fill="#8ABA45" cx="81.165" cy="154.343" r="1.196"/>
			</g>
		</g>
	</g>
	<g>
		<path opacity="0.3" fill="#C3E5E2" d="M57.083,181.22c0,0,2.705-19.47,4.374-25.818c2.809-10.673,16.666-15.25,28.85-10.853l0,0
			c12.184,4.396,19.925,16.767,15.271,26.774c-2.769,5.952-13.119,22.662-13.119,22.662s-10.156-2.303-18.503-5.316
			C66.523,185.987,57.083,181.22,57.083,181.22z"/>
		<g opacity="0.7">
			<path fill="#F7F9F9" d="M76.5,146.688c0,0-0.282,0.123-0.775,0.336c-0.245,0.106-0.539,0.243-0.873,0.396
				c-0.334,0.154-0.705,0.341-1.108,0.538c-0.401,0.201-0.826,0.436-1.27,0.682c-0.217,0.133-0.447,0.254-0.673,0.394
				c-0.224,0.141-0.452,0.285-0.685,0.432c-0.224,0.154-0.453,0.313-0.683,0.471c-0.221,0.172-0.444,0.344-0.672,0.513
				c-0.213,0.185-0.425,0.374-0.645,0.555L68.51,151.6l-0.557,0.634l-0.035,0.039c0.001-0.001-0.026,0.032-0.002,0l-0.017,0.023
				l-0.067,0.091l-0.137,0.18l-0.273,0.359c-0.18,0.239-0.362,0.473-0.544,0.704c-0.158,0.229-0.314,0.456-0.468,0.68
				c-0.325,0.436-0.588,0.895-0.854,1.324c-0.145,0.211-0.239,0.433-0.355,0.642c-0.107,0.21-0.234,0.407-0.316,0.611
				c-0.175,0.404-0.352,0.775-0.477,1.121c-0.132,0.347-0.247,0.648-0.342,0.897c-0.194,0.504-0.325,0.785-0.325,0.785
				s0.006-0.311,0.04-0.846c0.019-0.269,0.026-0.596,0.083-0.972c0.026-0.188,0.041-0.391,0.082-0.602
				c0.046-0.21,0.093-0.432,0.144-0.663c0.044-0.234,0.135-0.464,0.205-0.711c0.079-0.243,0.153-0.501,0.267-0.746
				c0.215-0.498,0.438-1.028,0.75-1.542c0.146-0.26,0.298-0.527,0.456-0.788c0.163-0.245,0.331-0.489,0.503-0.734l0.258-0.37
				l0.129-0.186l0.066-0.092l0.017-0.023l0.034-0.042l0.039-0.047c0.21-0.247,0.417-0.5,0.636-0.742l0.702-0.669
				c0.25-0.2,0.5-0.4,0.747-0.598c0.258-0.18,0.518-0.353,0.775-0.522c0.264-0.156,0.526-0.307,0.786-0.451
				c0.526-0.274,1.046-0.509,1.549-0.704c0.502-0.194,0.987-0.347,1.438-0.47c0.449-0.129,0.867-0.219,1.239-0.287
				c0.37-0.075,0.698-0.114,0.968-0.144C76.189,146.683,76.5,146.688,76.5,146.688z"/>
		</g>
	</g>
</g>
<g>
	<circle opacity="0.1" fill="#F9F9F7" cx="375.16" cy="297.492" r="39.417"/>
	<circle fill="#E9E8E8" cx="375.159" cy="297.492" r="37.092"/>
	<path opacity="0.2" fill="#C6C4C4" d="M396.139,266.899c0,0,26.021,53.22-29.684,66.656c0,0,32.357,8.348,44.382-25.881
		C410.837,307.673,419.208,283.73,396.139,266.899z"/>
	<g>
		<g>
			<g opacity="0.25">
				<path d="M349.709,293.593c-1.988-4.657-0.666-12.015,3.992-14.005c4.657-1.988,11.078-0.266,13.067,4.392
					c1.988,4.658-1.205,10.489-5.863,12.478S351.698,298.25,349.709,293.593z"/>
			</g>
			<g>
				<path fill="#BCBEC0" d="M349.098,293.593c-1.988-4.657-0.666-12.015,3.992-14.005c4.657-1.988,11.078-0.266,13.067,4.392
					c1.988,4.658-1.205,10.489-5.863,12.478S351.087,298.25,349.098,293.593z"/>
			</g>
		</g>
		<g>
			<g opacity="0.25">
				<path d="M351.15,292.564c-1.636-3.832-0.549-9.879,3.282-11.516c3.829-1.635,9.109-0.219,10.745,3.611
					c1.636,3.831-0.991,8.624-4.82,10.259C356.526,296.555,352.786,296.393,351.15,292.564z"/>
			</g>
			<g>
				<path fill="#AAADAF" d="M350.539,292.564c-1.636-3.832-0.549-9.879,3.282-11.516c3.829-1.635,9.109-0.219,10.745,3.611
					c1.636,3.831-0.991,8.624-4.82,10.259C355.915,296.555,352.175,296.393,350.539,292.564z"/>
			</g>
		</g>
	</g>
	<g>
		<g opacity="0.25">
			<path d="M369.835,303.868c-0.402-0.942-0.135-2.432,0.809-2.833c0.942-0.403,2.24-0.055,2.642,0.888
				c0.404,0.943-0.242,2.124-1.186,2.526C371.157,304.849,370.237,304.809,369.835,303.868z"/>
		</g>
		<g>
			<path fill="#BCBEC0" d="M369.224,303.868c-0.402-0.942-0.135-2.432,0.809-2.833c0.942-0.403,2.24-0.055,2.642,0.888
				c0.404,0.943-0.242,2.124-1.186,2.526C370.546,304.849,369.626,304.809,369.224,303.868z"/>
		</g>
	</g>
	<g>
		<g opacity="0.25">
			<path d="M399.333,309.017c-0.497-1.162-0.166-3,0.996-3.496c1.162-0.497,2.766-0.066,3.261,1.096
				c0.499,1.162-0.301,2.618-1.463,3.115C400.964,310.229,399.83,310.181,399.333,309.017z"/>
		</g>
		<g>
			<path fill="#BCBEC0" d="M398.722,309.017c-0.497-1.162-0.166-3,0.996-3.496c1.162-0.497,2.766-0.066,3.261,1.096
				c0.499,1.162-0.301,2.618-1.463,3.115C400.353,310.229,399.219,310.181,398.722,309.017z"/>
		</g>
	</g>
	<g>
		<g opacity="0.25">
			<path d="M384.237,300.258c-2.424-5.677,0.022-12.031,5.82-14.507c5.795-2.474,13.007-3.079,15.43,2.596
				c2.426,5.675-2.885,10.838-8.681,13.312C391.009,304.135,386.66,305.933,384.237,300.258z"/>
			<path d="M385.811,299.182c-2.05-4.8,0.021-10.173,4.922-12.267c4.901-2.093,10.998-2.605,13.048,2.194
				c2.051,4.797-2.441,9.164-7.342,11.258C391.536,302.459,387.859,303.979,385.811,299.182z"/>
		</g>
		<g>
			<g>
				<path fill="#BCBEC0" d="M383.626,300.258c-2.424-5.677,0.022-12.031,5.82-14.507c5.795-2.474,13.007-3.079,15.43,2.596
					c2.426,5.675-2.885,10.838-8.681,13.312C390.397,304.135,386.049,305.933,383.626,300.258z"/>
				<path fill="#AAADAF" d="M385.199,299.182c-2.05-4.8,0.021-10.173,4.922-12.267c4.901-2.093,10.998-2.605,13.048,2.194
					c2.051,4.797-2.441,9.164-7.342,11.258C390.925,302.459,387.248,303.979,385.199,299.182z"/>
			</g>
		</g>
	</g>
	<g>
		<g>
			<g opacity="0.25">
				<path d="M392.875,323.293c-3.384,2.516-7.994,1.906-10.565-1.549c-2.569-3.451-4.122-8.145-0.741-10.66
					c3.381-2.519,7.657,0.185,10.229,3.638C394.368,318.176,396.256,320.777,392.875,323.293z"/>
			</g>
			<g>
				<path fill="#BCBEC0" d="M392.264,323.293c-3.384,2.516-7.994,1.906-10.565-1.549c-2.569-3.451-4.122-8.145-0.741-10.66
					c3.381-2.519,7.657,0.185,10.229,3.638C393.757,318.176,395.645,320.777,392.264,323.293z"/>
			</g>
		</g>
		<g>
			<g opacity="0.25">
				<path d="M391.907,322.422c-2.859,2.127-6.758,1.609-8.932-1.311c-2.173-2.922-3.489-6.887-0.63-9.014
					c2.86-2.131,6.478,0.154,8.649,3.077C393.17,318.094,394.767,320.293,391.907,322.422z"/>
			</g>
			<g>
				<path fill="#AAADAF" d="M391.296,322.422c-2.859,2.127-6.758,1.609-8.932-1.311c-2.173-2.922-3.489-6.887-0.63-9.014
					c2.86-2.131,6.478,0.154,8.649,3.077C392.559,318.094,394.155,320.293,391.296,322.422z"/>
			</g>
		</g>
	</g>
	<g>
		<g>
			<g opacity="0.25">
				<path d="M362.63,323.428c0.129-2.25,1.961-3.926,4.258-3.795c2.295,0.135,4.751,1.109,4.619,3.357
					c-0.128,2.248-2.703,3.072-5,2.939C364.21,325.795,362.496,325.676,362.63,323.428z"/>
			</g>
			<g>
				<path fill="#BCBEC0" d="M362.019,323.428c0.129-2.25,1.961-3.926,4.258-3.795c2.295,0.135,4.751,1.109,4.619,3.357
					c-0.128,2.248-2.703,3.072-5,2.939C363.599,325.795,361.885,325.676,362.019,323.428z"/>
			</g>
		</g>
		<path fill="#AAADAF" d="M362.705,323.332c0.11-1.9,1.661-3.32,3.604-3.207c1.941,0.111,4.017,0.934,3.906,2.838
			c-0.11,1.9-2.287,2.596-4.228,2.484C364.045,325.332,362.596,325.232,362.705,323.332z"/>
	</g>
	<g>
		<g>
			<g opacity="0.25">
				<path d="M379.162,276.836c0.172-2.97,2.593-5.187,5.625-5.012c3.033,0.176,6.276,1.463,6.103,4.433
					c-0.17,2.97-3.572,4.057-6.604,3.882C381.251,279.963,378.988,279.804,379.162,276.836z"/>
			</g>
			<g>
				<path fill="#BCBEC0" d="M378.551,276.836c0.172-2.97,2.593-5.187,5.625-5.012c3.033,0.176,6.276,1.463,6.103,4.433
					c-0.17,2.97-3.572,4.057-6.604,3.882C380.64,279.963,378.377,279.804,378.551,276.836z"/>
			</g>
		</g>
		<g>
			<g opacity="0.25">
				<path d="M380.07,276.708c0.147-2.511,2.194-4.385,4.76-4.236c2.563,0.148,5.305,1.236,5.159,3.747
					c-0.144,2.512-3.021,3.431-5.584,3.283C381.841,279.354,379.927,279.219,380.07,276.708z"/>
			</g>
			<g>
				<path fill="#AAADAF" d="M379.459,276.708c0.147-2.511,2.194-4.385,4.76-4.236c2.563,0.148,5.305,1.236,5.159,3.747
					c-0.144,2.512-3.021,3.431-5.584,3.283C381.229,279.354,379.315,279.219,379.459,276.708z"/>
			</g>
		</g>
	</g>
	<g>
		<g>
			<g opacity="0.25">
				<path d="M348.778,303.353c1.066-1.216,2.845-1.358,4.087-0.27c1.241,1.088,2.203,2.724,1.137,3.94
					c-1.065,1.218-2.889,0.547-4.129-0.541C348.63,305.392,347.711,304.568,348.778,303.353z"/>
			</g>
			<g>
				<path fill="#BCBEC0" d="M348.167,303.353c1.066-1.216,2.845-1.358,4.087-0.27c1.241,1.088,2.203,2.724,1.137,3.94
					c-1.065,1.218-2.889,0.547-4.129-0.541C348.019,305.392,347.1,304.568,348.167,303.353z"/>
			</g>
		</g>
		<path fill="#AAADAF" d="M348.6,303.602c0.902-1.027,2.406-1.148,3.457-0.228c1.051,0.921,1.861,2.304,0.961,3.333
			c-0.901,1.028-2.442,0.463-3.494-0.458C348.474,305.328,347.698,304.63,348.6,303.602z"/>
	</g>
	<g>
		<path fill="#BCBEC0" d="M367.991,271.28c0.761-0.868,2.03-0.969,2.916-0.192c0.887,0.776,1.572,1.943,0.813,2.812
			c-0.763,0.868-2.062,0.39-2.946-0.386C367.886,272.736,367.231,272.148,367.991,271.28z"/>
		<g>
			<g opacity="0.25">
				<path d="M368.911,271.458c0.645-0.732,1.717-0.82,2.467-0.162c0.749,0.657,1.329,1.643,0.686,2.377
					c-0.644,0.734-1.742,0.33-2.491-0.328C368.822,272.689,368.268,272.191,368.911,271.458z"/>
			</g>
			<g>
				<path fill="#AAADAF" d="M368.3,271.458c0.645-0.732,1.717-0.82,2.467-0.162c0.749,0.657,1.329,1.643,0.686,2.377
					c-0.644,0.734-1.742,0.33-2.491-0.328C368.211,272.689,367.656,272.191,368.3,271.458z"/>
			</g>
		</g>
	</g>
</g>
<rect x="312.158" y="-195.958" fill="none" width="83.098" height="68.265"/>
<g>
	<g>
		<g>
			<path fill="#98A8A7" d="M55.908,410.48c-0.049,0.145-0.208,0.222-0.351,0.172l-4.666-1.601c-0.144-0.05-0.221-0.207-0.171-0.352
				l0.574-1.672c0.049-0.145,0.208-0.222,0.351-0.172l4.666,1.602c0.144,0.05,0.221,0.207,0.171,0.352L55.908,410.48z"/>
		</g>
		<g>
			<path fill="#9DB2B2" d="M47.707,417.476c-0.049,0.145-0.208,0.222-0.351,0.172l-34.857-11.966
				c-0.144-0.05-0.221-0.207-0.171-0.352l7.071-20.597c0.049-0.145,0.208-0.222,0.351-0.172l34.857,11.967
				c0.144,0.05,0.221,0.207,0.171,0.352L47.707,417.476z"/>
		</g>
		<g>
			<g>
				
					<rect x="18.565" y="384.844" transform="matrix(0.9445 0.3284 -0.3284 0.9445 131.0795 15.8189)" fill="#797C7C" width="0.277" height="22.327"/>
			</g>
			<g>
				
					<rect x="21.265" y="385.768" transform="matrix(0.9467 0.3221 -0.3221 0.9467 128.977 14.256)" fill="#797C7C" width="0.276" height="22.33"/>
			</g>
			<g>
				
					<rect x="23.965" y="386.696" transform="matrix(0.9445 0.3284 -0.3284 0.9445 131.9875 14.1485)" fill="#797C7C" width="0.277" height="22.328"/>
			</g>
			<g>
				
					<rect x="26.664" y="387.621" transform="matrix(0.9469 0.3215 -0.3215 0.9469 129.6419 12.5572)" fill="#797C7C" width="0.276" height="22.33"/>
			</g>
			<g>
				
					<rect x="29.364" y="388.548" transform="matrix(0.948 0.3183 -0.3183 0.948 128.7834 11.4037)" fill="#797C7C" width="0.276" height="22.33"/>
			</g>
			<g>
				
					<rect x="32.063" y="389.476" transform="matrix(0.9469 0.3215 -0.3215 0.9469 130.5247 10.9197)" fill="#797C7C" width="0.276" height="22.327"/>
			</g>
			<g>
				
					<rect x="34.764" y="390.403" transform="matrix(0.9467 0.3221 -0.3221 0.9467 131.1893 10.1556)" fill="#797C7C" width="0.276" height="22.33"/>
			</g>
			<g>
				
					<rect x="37.464" y="391.329" transform="matrix(0.9467 0.3221 -0.3221 0.9467 131.6313 9.3354)" fill="#797C7C" width="0.276" height="22.33"/>
			</g>
			<g>
				
					<rect x="40.163" y="392.257" transform="matrix(0.9456 0.3252 -0.3252 0.9456 133.3949 8.8246)" fill="#797C7C" width="0.276" height="22.328"/>
			</g>
			<g>
				
					<rect x="42.863" y="393.185" transform="matrix(0.9456 0.3252 -0.3252 0.9456 133.8434 7.9971)" fill="#797C7C" width="0.276" height="22.328"/>
			</g>
			<g>
				
					<rect x="45.562" y="394.111" transform="matrix(0.9447 0.3278 -0.3278 0.9447 135.3898 7.4153)" fill="#797C7C" width="0.277" height="22.327"/>
			</g>
			<g>
				
					<rect x="48.262" y="395.038" transform="matrix(0.9447 0.3278 -0.3278 0.9447 135.843 6.5815)" fill="#797C7C" width="0.277" height="22.328"/>
			</g>
			<g>
				
					<rect x="16.681" y="395.629" transform="matrix(0.9458 0.3247 -0.3247 0.9458 130.4283 9.9559)" fill="#797C7C" width="37.407" height="0.278"/>
			</g>
			<g>
				
					<rect x="14.614" y="401.652" transform="matrix(0.9458 0.3247 -0.3247 0.9458 132.2637 10.9513)" fill="#797C7C" width="37.406" height="0.276"/>
			</g>
			<g>
				
					<rect x="12.546" y="407.674" transform="matrix(0.9458 0.3247 -0.3247 0.9458 134.1153 11.9511)" fill="#797C7C" width="37.407" height="0.277"/>
			</g>
		</g>
	</g>
	<g>
		<g>
			<path fill="#98A8A7" d="M79.277,418.503c-0.049,0.145-0.208,0.222-0.351,0.172l-4.666-1.602c-0.144-0.05-0.221-0.207-0.171-0.352
				l0.573-1.671c0.049-0.145,0.208-0.222,0.351-0.172l4.666,1.604c0.144,0.05,0.221,0.207,0.171,0.352L79.277,418.503z"/>
		</g>
		<g>
			<path fill="#9DB2B2" d="M111.644,439.427c-0.049,0.145-0.208,0.222-0.351,0.172l-34.857-11.966
				c-0.144-0.05-0.221-0.207-0.171-0.352l7.07-20.597c0.049-0.145,0.208-0.222,0.351-0.172l34.858,11.969
				c0.144,0.05,0.221,0.207,0.171,0.352L111.644,439.427z"/>
		</g>
		<g>
			<g>
				
					<rect x="82.503" y="406.794" transform="matrix(0.9467 0.3221 -0.3221 0.9467 139.0112 -4.3462)" fill="#797C7C" width="0.276" height="22.327"/>
			</g>
			<g>
				
					<rect x="85.203" y="407.72" transform="matrix(0.9467 0.3221 -0.3221 0.9467 139.4535 -5.1662)" fill="#797C7C" width="0.276" height="22.329"/>
			</g>
			<g>
				
					<rect x="87.903" y="408.647" transform="matrix(0.9469 0.3215 -0.3215 0.9469 139.6537 -6.0159)" fill="#797C7C" width="0.276" height="22.33"/>
			</g>
			<g>
				
					<rect x="90.602" y="409.574" transform="matrix(0.9469 0.3215 -0.3215 0.9469 140.095 -6.8345)" fill="#797C7C" width="0.276" height="22.328"/>
			</g>
			<g>
				
					<rect x="93.302" y="410.5" transform="matrix(0.948 0.3183 -0.3183 0.948 139.098 -7.8089)" fill="#797C7C" width="0.276" height="22.33"/>
			</g>
			<g>
				
					<rect x="96.002" y="411.429" transform="matrix(0.9445 0.3284 -0.3284 0.9445 144.1039 -8.1357)" fill="#797C7C" width="0.277" height="22.327"/>
			</g>
			<g>
				
					<rect x="98.701" y="412.355" transform="matrix(0.9445 0.3284 -0.3284 0.9445 144.5581 -8.9708)" fill="#797C7C" width="0.277" height="22.328"/>
			</g>
			<g>
				
					<rect x="101.401" y="413.282" transform="matrix(0.9467 0.3221 -0.3221 0.9467 142.1079 -10.0869)" fill="#797C7C" width="0.276" height="22.328"/>
			</g>
			<g>
				
					<rect x="104.101" y="414.208" transform="matrix(0.948 0.3183 -0.3183 0.948 140.8403 -11.0538)" fill="#797C7C" width="0.276" height="22.33"/>
			</g>
			<g>
				
					<rect x="106.801" y="415.136" transform="matrix(0.9456 0.3252 -0.3252 0.9456 144.4584 -11.604)" fill="#797C7C" width="0.276" height="22.328"/>
			</g>
			<g>
				
					<rect x="109.5" y="416.063" transform="matrix(0.9445 0.3284 -0.3284 0.9445 146.3741 -12.3114)" fill="#797C7C" width="0.277" height="22.327"/>
			</g>
			<g>
				
					<rect x="112.2" y="416.988" transform="matrix(0.9467 0.3221 -0.3221 0.9467 143.8772 -13.3673)" fill="#797C7C" width="0.276" height="22.33"/>
			</g>
			<g>
				
					<rect x="80.618" y="417.581" transform="matrix(0.9458 0.3247 -0.3247 0.9458 141.0315 -9.615)" fill="#797C7C" width="37.407" height="0.277"/>
			</g>
			<g>
				
					<rect x="78.551" y="423.602" transform="matrix(0.9458 0.3247 -0.3247 0.9458 142.855 -8.6193)" fill="#797C7C" width="37.406" height="0.277"/>
			</g>
			<g>
				
					<rect x="76.483" y="429.625" transform="matrix(0.9458 0.3247 -0.3247 0.9458 144.7058 -7.6209)" fill="#797C7C" width="37.407" height="0.277"/>
			</g>
		</g>
	</g>
	<g>
		<g>
			<path fill="#449799" d="M69.381,430.435c-0.049,0.145-0.208,0.222-0.351,0.172l-18.179-6.24c-0.144-0.05-0.221-0.207-0.171-0.352
				l8.766-25.531c0.049-0.145,0.208-0.222,0.351-0.172l18.18,6.24c0.144,0.05,0.221,0.207,0.171,0.352L69.381,430.435z"/>
		</g>
		<polygon fill="#277A7A" points="74.34,405.638 67.696,403.436 61.063,401.205 61.213,401.132 57.552,411.873 53.844,422.601 
			53.77,422.449 60.375,424.762 66.969,427.106 60.326,424.904 53.693,422.673 53.581,422.636 53.619,422.522 57.281,411.781 
			60.989,401.056 61.029,400.943 61.14,400.981 67.745,403.295 		"/>
		<g>
			
				<rect x="62.013" y="403.65" transform="matrix(0.9454 0.3259 -0.3259 0.9454 135.2366 1.6312)" fill="#277A7A" width="1.474" height="1.472"/>
			
				<rect x="60.952" y="406.74" transform="matrix(0.9458 0.3248 -0.3248 0.9458 135.6781 2.0531)" fill="#FFD200" width="1.473" height="1.473"/>
			
				<rect x="64.885" y="404.636" transform="matrix(0.9458 0.3248 -0.3248 0.9458 135.2075 0.6615)" fill="#C6413E" width="1.473" height="1.472"/>
			
				<rect x="63.824" y="407.728" transform="matrix(0.9458 0.3249 -0.3249 0.9458 136.1981 1.1817)" fill="#277A7A" width="1.473" height="1.472"/>
			
				<rect x="67.756" y="405.622" transform="matrix(0.9454 0.3259 -0.3259 0.9454 136.1927 -0.133)" fill="#124466" width="1.474" height="1.47"/>
			
				<rect x="66.694" y="408.712" transform="matrix(0.9458 0.3247 -0.3247 0.9458 136.5855 0.2874)" fill="#C6413E" width="1.474" height="1.472"/>
			
				<rect x="70.628" y="406.606" transform="matrix(0.9458 0.3248 -0.3248 0.9458 136.1588 -1.0967)" fill="#8ABA45" width="1.473" height="1.473"/>
			
				<rect x="69.566" y="409.699" transform="matrix(0.9458 0.3249 -0.3249 0.9458 137.1499 -0.5769)" fill="#FFD200" width="1.473" height="1.473"/>
		</g>
	</g>
	<g>
		<g>
			<path fill="#999999" d="M61.415,431.12c-0.067,0.066-0.195,0.096-0.284,0.065l-4.645-1.594c-0.089-0.03-0.167-0.133-0.172-0.228
				l-0.167-3.013c-0.005-0.095,0.063-0.146,0.153-0.116l7.282,2.501c0.089,0.03,0.108,0.11,0.041,0.177L61.415,431.12z"/>
		</g>
		<polyline fill="#888989" points="56.137,426.18 56.188,427.096 63.075,429.459 63.744,428.792 		"/>
	</g>
	<g>
		<g>
			<path fill="#999999" d="M71.038,401.879c-0.049,0.145-0.208,0.222-0.351,0.172l-3.601-1.237c-0.144-0.05-0.221-0.207-0.171-0.352
				l2.362-6.882c0.049-0.145,0.208-0.222,0.351-0.172l3.601,1.237c0.144,0.05,0.221,0.207,0.171,0.352L71.038,401.879z"/>
		</g>
		<path fill="#888989" d="M68.909,394.648c0,0,2.184,1.266,4.161,1.308l-0.184,0.538c0,0-1.852,0.392-4.204-1.185L68.909,394.648z"
			/>
	</g>
	<g>
		<path fill="#CCCCCC" d="M84.918,388.437c-2.014,5.868-8.405,8.99-14.273,6.977c-5.869-2.016-8.992-8.404-6.978-14.272
			L84.918,388.437z"/>
		
			<ellipse transform="matrix(0.9458 0.3247 -0.3247 0.9458 128.9758 -3.2727)" fill="#999999" cx="74.293" cy="384.789" rx="11.234" ry="2.808"/>
		<g>
			<path fill="#808080" d="M71.687,386.825c0,0,3.282-2.536,4.394-8.315l1.106,0.381c0,0-2.792,6.442-1.56,9.25
				C75.626,388.141,73.828,387.616,71.687,386.825z"/>
			<circle fill="#C6413E" cx="76.922" cy="378.022" r="1.104"/>
		</g>
	</g>
</g>
<rect x="312.158" y="786.163" fill="none" width="83.098" height="68.265"/>
<rect x="312.158" y="611.823" fill="none" width="83.098" height="68.265"/>
</svg>
