<?xml version="1.0" encoding="utf-8"?>
<!-- Generator: Adobe Illustrator 16.0.0, SVG Export Plug-In . SVG Version: 6.00 Build 0)  -->
<!DOCTYPE svg PUBLIC "-//W3C//DTD SVG 1.1//EN" "http://www.w3.org/Graphics/SVG/1.1/DTD/svg11.dtd">
<svg version="1.1" id="Layer_1" xmlns="http://www.w3.org/2000/svg" xmlns:xlink="http://www.w3.org/1999/xlink" x="0px" y="0px"
	 width="750px" height="1038.42px" viewBox="0 0 750 1038.42" enable-background="new 0 0 750 1038.42" xml:space="preserve">
<g>
	<circle opacity="0.1" fill="#F9F9F7" cx="677.072" cy="154.008" r="46.534"/>
	<g>
		<g>
			<defs>
				<path id="SVGID_1_" d="M634.039,154.008c0-8.956,2.722-17.275,7.384-24.174c7.77-11.501,20.931-19.065,35.855-19.065
					c23.88,0,43.238,19.359,43.238,43.239c0,9.588-3.12,18.449-8.404,25.619c-7.871,10.686-20.543,17.62-34.834,17.62
					C653.397,197.248,634.039,177.888,634.039,154.008z"/>
			</defs>
			<use xlink:href="#SVGID_1_"  overflow="visible" fill="#36B1BA"/>
			<clipPath id="SVGID_2_">
				<use xlink:href="#SVGID_1_"  overflow="visible"/>
			</clipPath>
			<path clip-path="url(#SVGID_2_)" fill="#8ABA45" d="M641.423,129.834c0,0,17.521-3.589,19.722,0.606
				c0.978,1.866-3.555,4.34-4.48,6.233c-0.717,1.468-2.728,4.908,0.194,6.077c2.922,1.169,6.428,1.754,6.428,4.675
				s1.123,6.649,2.922,6.584c2.31-0.084,3.981-5.8,5.843-7.168c1.901-1.396,6.68-4.612,8.766-3.506
				c1.596,0.847,3.252,4.394,3.408,6.193c0.178,2.043-0.541,7.853-2.241,8.999c-0.981,0.663-3.578-0.953-4.705-0.584
				c-3.041,0.994-6.527,7.202-9.317,8.765c-2.956,1.656-10.314,0.441-13.438,1.753c-1.087,0.455-2.338,2.337-0.586,4.675
				c1.753,2.337,8.017,5.127,9.935,7.596c0.699,0.9,1.752,5.259-3.507,2.92c-5.259-2.336-13.813-9.277-16.36-14.023
				c-1.857-3.462-2.337-10.205-1.753-15.62c0.585-5.416-9.349-9.505-11.687-10.089"/>
			<path clip-path="url(#SVGID_2_)" fill="#8ABA45" d="M653.937,123.76c2.136,5.945,10.24-0.588,12.271,1.752
				c1.1,1.27-1.46,5.888,0,6.721c1.107,0.631,4.942-0.6,7.28-0.235c3.027,0.474,3.848,0.724,5.404,1.607
				c0.805,0.457,2.118,2.045,3.579,4.674s1.85,4.763,1.85,4.763s0.83,2.543,2.338,3.797c2.311,1.925,4.498-0.438,6.281-1.606
				c1.782-1.169,2.845-0.991,8.326-2.776c7.596-2.472,5.068-9.012,2.922-10.81c-2.196-1.839-6.72-2.337-11.395-1.169
				c-4.675,1.169-9.884,1.324-13.536-0.428c-1.741-0.835-6.793-3.968-7.67-5.356c-1.762-2.791-1.533-5.405-1.533-5.405
				s0.515-4.31-1.218-4.585c-1.923-0.307-4.692,0.497-7.911,2.468c-1.516,0.928-3.822,2.368-4.968,3.067
				C655.165,120.724,653.329,122.065,653.937,123.76z"/>
			<path clip-path="url(#SVGID_2_)" fill="#8ABA45" d="M720.517,149.568c0,0-6.569,3.338-6.743,0.708
				c-0.271-4.107,2.762-3.825,1.712-5.772c-1.129-2.095-8.765-2.966-8.765,3.701c0,3.702-4.721,3.316-5.259,5.804
				c-0.186,0.852,0.385,2.538,2.728,2.181c5.38-0.819,5.531,0.681,5.233,1.738c-0.249,0.884-0.915,1.73-1.728,2.158
				c-3.401,1.786-12.691-0.579-15.192,2.337c-0.742,0.865-0.001,2.726-1.559,4.285c-1.558,1.559-10.709,4.341-10.519,5.608
				c0.439,2.922,8.906,2.045,11.296,1.451c2.046-0.51,2.791-3.663,5.518-4.443c2.727-0.779,5.238-2.858,6.95-2.226
				c1.167,0.431,3.096,3.424-3.506,9.349c-7.483,6.713-15.332,0.806-19.478,3.505c-0.954,0.623-0.195,2.259-1.558,4.285
				c-1.121,1.665-4.877,2.057-5.454,3.505c-1.656,4.149,0.778,8.103,7.401,9.506C688.218,198.65,728.664,194.754,720.517,149.568z"
				/>
		</g>
		<path fill="#7DC823" d="M677.278,120.644"/>
		<path fill="#7DC823" d="M664.569,172.606c-0.749,0.164-3.028,1.13-1.334,2.766c1.696,1.635,2.103,0.744,3.444-0.151
			c1.343-0.896,1.338-2.664,0.24-2.495C665.834,172.894,665.635,172.374,664.569,172.606z"/>
		<path fill="#8ABA45" d="M676.768,117.789c-1.16-0.16-4.16,0.26,0.696,4.515c4.859,4.255,6.66,3.027,6.886,2.578
			c0.634-1.266-0.438-4.237-3.245-5.36C679.44,118.854,678.413,118.017,676.768,117.789z"/>
		<path fill="#7DC823" d="M667.759,175.849c-0.21,0.1-0.815,0.537-0.207,0.905c0.609,0.367,0.669,0.076,1.003-0.278
			c0.335-0.353,0.193-0.615-0.097-0.75C668.156,175.587,668.056,175.71,667.759,175.849z"/>
	</g>
	<path opacity="0.2" fill="#7C7979" d="M701.977,118.298c0,0,30.411,62.197-34.688,77.9c0,0,37.815,9.757,51.867-30.247
		C719.155,165.951,728.94,137.969,701.977,118.298z"/>
</g>
<g>
	<circle opacity="0.1" fill="#F9F9F7" cx="617.205" cy="929.096" r="35.788"/>
	<g>
		<g>
			<g>
				<g>
					<path fill="#E15444" d="M622.243,914.367c-32.06-10.676-60.192-12.9-62.834-4.968c-2.639,7.929,21.209,23.01,53.271,33.688
						c32.061,10.673,60.192,12.895,62.834,4.965C678.154,940.121,654.303,925.044,622.243,914.367z M613.897,939.431
						c-23.899-7.958-41.679-19.202-39.711-25.114c1.969-5.911,22.938-4.253,46.839,3.705c23.898,7.957,41.68,19.201,39.711,25.112
						C658.768,949.046,637.799,947.388,613.897,939.431z"/>
					<path fill="#C6413E" d="M622.158,915.299c-31.291-10.281-58.691-12.589-61.202-5.152c-2.507,7.434,21.274,21.2,52.565,31.483
						c31.29,10.278,58.237,13.178,60.746,5.741C676.778,939.938,653.445,925.579,622.158,915.299z M613.77,940.893
						c-29.575-9.718-52.082-22.702-49.711-29.731c2.373-7.026,28.271-4.846,57.85,4.872c29.574,9.72,51.63,23.294,49.259,30.321
						C668.793,953.382,643.348,950.61,613.77,940.893z"/>
				</g>
				<g>
					<g>
						<path fill="#F4C02F" d="M612.646,943.094c-10.26-3.416-19.673-7.285-27.652-11.227c0.114,1.292,0.296,2.59,0.572,3.892
							c3.698,17.457,20.85,28.612,38.306,24.915c6.975-1.479,12.938-5.108,17.356-10.039
							C632.549,949.002,622.797,946.473,612.646,943.094z"/>
						<g>
							<defs>
								<path id="XMLID_2_" d="M649.263,925.301c-0.075-0.979-0.271-1.953-0.478-2.935c-3.698-17.457-20.849-28.611-38.307-24.914
									c-6.668,1.412-12.605,4.614-16.763,9.396c-0.886,1.02-2.569,3.13-3.367,4.218c-3.233,4.415-4.945,9.854-5.384,15.454
									c7.157,4.423,17.304,9.057,28.898,12.919c11.458,3.813,22.233,6.177,30.576,6.956c2.953-4.65,4.968-10.041,5.012-15.719
									C649.46,929.332,649.366,926.642,649.263,925.301z"/>
							</defs>
							<use xlink:href="#XMLID_2_"  overflow="visible" fill="#F2C549"/>
							<clipPath id="XMLID_5_">
								<use xlink:href="#XMLID_2_"  overflow="visible"/>
							</clipPath>
							<path opacity="0.8" clip-path="url(#XMLID_5_)" fill="#F4CF67" d="M593.358,902.784c0,0,28.621,20.884,60.564,21.888
								l-0.679,4.244c0,0-45.425-6.47-63.938-25.312"/>
							<path opacity="0.8" clip-path="url(#XMLID_5_)" fill="#F4CF67" d="M584.022,935.887c0,0,29.335,17.102,60.012,16.004
								l-0.258,3.885c0,0-44.089-3.004-63.557-18.892"/>
							<path opacity="0.8" clip-path="url(#XMLID_5_)" fill="#F4CF67" d="M593.476,898.003c0,0,30.131,21.061,62.075,22.065
								l-0.452,2.825c0,0-45.423-6.47-63.937-25.313"/>
							<path opacity="0.6" clip-path="url(#XMLID_5_)" fill="#F4CF67" d="M586.062,911.076c0,0,33.21,21.386,65.152,22.389
								l-1.647,7.332c0,0-46.976-4.985-65.487-23.826"/>
						</g>
					</g>
				</g>
			</g>
		</g>
		<path opacity="0.2" fill="#D35029" d="M639.251,905.467c0,0,12.394,51.494-36.992,52.095c0,0,18.928,11.207,36.187-4.177
			c2.682-2.393,4.841-5.579,7.393-9.39C645.838,943.995,657.766,924.632,639.251,905.467z"/>
	</g>
</g>
<g>
	<g>
		<path fill="#F4C02F" d="M152.491,362.211c-4.121,12.094-24.004,12.72-60.379,0.601c-40.057-13.344-50.686-28.295-47.429-37.68"/>
		<path fill="#CC5F23" d="M176.131,362.325c-3.149,8.729-40.665,7.072-81.082-7.514c-40.417-14.583-71.237-35.849-67.718-45.604
			c1.123-3.11,37.846-12.985,82.698,4.095C150.184,328.595,176.866,360.291,176.131,362.325z"/>
		<path fill="#E27F34" d="M175.503,361.068c-3.149,8.728-39.057,5.616-79.474-8.969c-40.417-14.586-70.409-34.096-66.89-43.847
			c1.124-3.112,41.451-12.247,81.868,2.337C151.424,325.173,176.237,359.035,175.503,361.068z"/>
		<g>
			<g>
				<g opacity="0.29">
					<circle fill="#6D6D61" cx="42.503" cy="315.094" r="2.724"/>
				</g>
				<g>
					<circle fill="#F4F0DF" cx="41.958" cy="315.094" r="2.724"/>
				</g>
			</g>
			<g>
				<g opacity="0.29">
					<circle fill="#6D6D61" cx="54.202" cy="323.599" r="2.724"/>
				</g>
				<g>
					<circle fill="#F4F0DF" cx="53.657" cy="323.599" r="2.724"/>
				</g>
			</g>
			<g>
				<g opacity="0.29">
					<circle fill="#6D6D61" cx="68.161" cy="331.532" r="2.724"/>
				</g>
				<g>
					<circle fill="#F4F0DF" cx="67.616" cy="331.532" r="2.724"/>
				</g>
			</g>
			<g>
				<g opacity="0.29">
					<circle fill="#6D6D61" cx="160.627" cy="357.719" r="2.724"/>
				</g>
				<g>
					<circle fill="#F4F0DF" cx="160.082" cy="357.719" r="2.724"/>
				</g>
			</g>
			<g>
				<g opacity="0.29">
					<circle fill="#6D6D61" cx="146.19" cy="356.794" r="2.724"/>
				</g>
				<g>
					<circle fill="#F4F0DF" cx="145.646" cy="356.794" r="2.724"/>
				</g>
			</g>
			<g>
				<g opacity="0.29">
					<circle fill="#6D6D61" cx="130.385" cy="353.985" r="2.724"/>
				</g>
				<g>
					<circle fill="#F4F0DF" cx="129.84" cy="353.985" r="2.724"/>
				</g>
			</g>
			<g>
				<g opacity="0.29">
					<circle fill="#6D6D61" cx="83.289" cy="338.499" r="2.724"/>
				</g>
				<g>
					<circle fill="#F4F0DF" cx="82.744" cy="338.499" r="2.724"/>
				</g>
			</g>
			<g>
				<g opacity="0.29">
					<circle fill="#6D6D61" cx="98.898" cy="344.132" r="2.724"/>
				</g>
				<g>
					<circle fill="#F4F0DF" cx="98.354" cy="344.132" r="2.724"/>
				</g>
			</g>
			<g>
				<g opacity="0.29">
					<circle fill="#6D6D61" cx="114.508" cy="349.764" r="2.724"/>
				</g>
				<g>
					<circle fill="#F4F0DF" cx="113.963" cy="349.764" r="2.724"/>
				</g>
			</g>
		</g>
		<path fill="#BDE5E2" d="M79.785,310.516c0,0,4.228-30.433,6.838-40.356c4.39-16.684,26.051-23.839,45.097-16.966l0,0
			c19.045,6.873,31.147,26.211,23.871,41.854c-4.328,9.304-20.507,35.425-20.507,35.425s-15.876-3.603-28.924-8.31
			C94.542,317.97,79.785,310.516,79.785,310.516z"/>
	</g>
	<g>
		<path fill="#8ABA45" d="M120.743,326.542l13.558-28.205c4.715-13.068-3.988-19.042-12.155-21.99l0,0
			c-8.167-2.947-18.807-2.216-23.061,9.57l-7.914,29.955C91.17,315.872,106.122,323.178,120.743,326.542z"/>
		<g>
			<path fill="#697F41" d="M102.361,304.186c0,0,0.038,0.075,0.108,0.216c0.069,0.142,0.172,0.352,0.326,0.599
				c0.14,0.256,0.337,0.55,0.574,0.882c0.232,0.333,0.529,0.685,0.843,1.07c0.332,0.374,0.692,0.775,1.119,1.153
				c0.202,0.201,0.421,0.394,0.662,0.573c0.238,0.178,0.461,0.388,0.717,0.563c0.257,0.172,0.518,0.346,0.783,0.523
				c0.261,0.182,0.559,0.309,0.839,0.472c0.554,0.339,1.189,0.534,1.792,0.794l0.946,0.272c0.158,0.043,0.313,0.096,0.472,0.131
				l0.482,0.078c0.319,0.053,0.637,0.106,0.95,0.159c0.316,0.028,0.631,0.033,0.94,0.051c0.309,0.009,0.613,0.043,0.912,0.03
				c0.298-0.017,0.59-0.036,0.875-0.053c0.284-0.019,0.563-0.028,0.83-0.054c0.265-0.046,0.52-0.091,0.766-0.135
				c0.489-0.1,0.951-0.141,1.344-0.248c0.394-0.107,0.737-0.2,1.02-0.278c0.57-0.147,0.896-0.233,0.896-0.233
				s-0.313,0.122-0.863,0.334c-0.277,0.104-0.613,0.229-0.999,0.374c-0.386,0.145-0.846,0.229-1.339,0.353
				c-0.248,0.057-0.506,0.118-0.773,0.182c-0.271,0.04-0.554,0.067-0.844,0.103c-0.292,0.033-0.59,0.068-0.896,0.104
				c-0.306,0.033-0.622-0.001-0.942,0.002c-0.32-0.009-0.647-0.006-0.976-0.026c-0.327-0.048-0.658-0.097-0.992-0.146l-0.502-0.077
				c-0.166-0.034-0.329-0.087-0.494-0.13l-0.99-0.277c-0.627-0.275-1.287-0.488-1.862-0.845c-0.605-0.304-1.139-0.701-1.659-1.076
				c-0.258-0.189-0.488-0.407-0.721-0.609c-0.237-0.197-0.451-0.409-0.648-0.626c-0.417-0.413-0.762-0.844-1.08-1.243
				c-0.305-0.409-0.571-0.793-0.774-1.153c-0.208-0.356-0.381-0.672-0.5-0.945c-0.136-0.265-0.204-0.485-0.258-0.633
				C102.389,304.266,102.361,304.186,102.361,304.186z"/>
			<polygon fill="#FCFCFC" points="103.673,306.748 105.224,305.883 104.512,307.857 			"/>
			<polygon fill="#FCFCFC" points="117.845,311.68 117.204,310.025 116.266,312.099 			"/>
		</g>
		<g>
			<g>
				<path fill="#FCFCFA" d="M113.071,287.477c2.715,9.29,10.831,3.744,10.831,3.744l0.028-0.079
					c-3.116-10.375-10.833-3.744-10.833-3.744"/>
				<path fill="#709334" d="M113.071,287.477c0,0,0.059,0.212,0.189,0.572c0.129,0.36,0.341,0.865,0.649,1.437
					c0.301,0.576,0.74,1.197,1.297,1.768c0.562,0.563,1.288,1.034,2.099,1.259c0.401,0.12,0.818,0.191,1.234,0.205
					c0.415,0.014,0.829,0.002,1.225-0.063c0.398-0.05,0.778-0.142,1.138-0.232c0.357-0.101,0.694-0.204,0.997-0.327
					c0.609-0.231,1.116-0.442,1.457-0.618c0.348-0.164,0.547-0.258,0.547-0.258s-0.184,0.121-0.506,0.332
					c-0.161,0.106-0.359,0.23-0.598,0.356c-0.234,0.133-0.498,0.287-0.806,0.414c-0.299,0.146-0.636,0.275-0.998,0.404
					c-0.363,0.119-0.752,0.244-1.17,0.307c-0.206,0.045-0.42,0.068-0.638,0.085c-0.217,0.029-0.439,0.024-0.663,0.019
					c-0.447-0.01-0.903-0.08-1.343-0.208c-0.882-0.266-1.659-0.798-2.244-1.413c-0.583-0.621-0.97-1.316-1.246-1.921
					c-0.28-0.607-0.415-1.148-0.51-1.521C113.093,287.696,113.071,287.477,113.071,287.477z"/>
				<g>
					<circle fill="#4D5B2F" cx="118.5" cy="289.086" r="2.006"/>
					<circle fill="#FCFCFC" cx="118.605" cy="288.605" r="0.588"/>
				</g>
			</g>
			<g>
				<path fill="#FCFCFA" d="M118.368,297.726c2.715,9.29,10.832,3.743,10.832,3.743l0.027-0.078
					c-3.116-10.376-10.832-3.745-10.832-3.745"/>
				<path fill="#709334" d="M118.368,297.726c0,0,0.06,0.212,0.189,0.573c0.128,0.359,0.341,0.864,0.649,1.437
					c0.302,0.576,0.74,1.197,1.297,1.766c0.563,0.564,1.288,1.035,2.1,1.259c0.4,0.121,0.818,0.193,1.234,0.206
					c0.415,0.015,0.829,0.002,1.225-0.063c0.397-0.05,0.777-0.142,1.137-0.232c0.358-0.101,0.695-0.204,0.997-0.326
					c0.609-0.233,1.116-0.444,1.457-0.618c0.348-0.165,0.547-0.259,0.547-0.259s-0.184,0.121-0.506,0.333
					c-0.162,0.104-0.36,0.229-0.598,0.356c-0.235,0.132-0.498,0.287-0.806,0.414c-0.299,0.145-0.637,0.274-0.998,0.404
					c-0.363,0.119-0.752,0.245-1.17,0.308c-0.206,0.044-0.42,0.068-0.638,0.084c-0.217,0.029-0.439,0.024-0.663,0.02
					c-0.448-0.01-0.903-0.081-1.343-0.208c-0.882-0.266-1.66-0.799-2.245-1.413c-0.583-0.622-0.969-1.316-1.246-1.922
					c-0.28-0.606-0.415-1.148-0.51-1.521C118.39,297.945,118.368,297.726,118.368,297.726z"/>
				<g>
					<circle fill="#4D5B2F" cx="123.798" cy="299.335" r="2.006"/>
					<circle fill="#FCFCFC" cx="123.902" cy="298.854" r="0.588"/>
				</g>
			</g>
			<g>
				<path fill="#FCFCFA" d="M102.074,291.06c2.714,9.29,10.831,3.744,10.831,3.744l0.028-0.079
					c-3.116-10.375-10.832-3.744-10.832-3.744"/>
				<path fill="#709334" d="M102.074,291.06c0,0,0.06,0.212,0.189,0.573c0.129,0.36,0.342,0.865,0.649,1.437
					c0.301,0.576,0.74,1.197,1.297,1.768c0.562,0.564,1.288,1.034,2.099,1.259c0.401,0.121,0.818,0.191,1.234,0.205
					c0.415,0.015,0.83,0.003,1.225-0.063c0.398-0.05,0.778-0.141,1.138-0.231c0.357-0.101,0.694-0.205,0.997-0.327
					c0.608-0.231,1.116-0.443,1.457-0.618c0.348-0.164,0.546-0.257,0.546-0.257s-0.184,0.121-0.506,0.332
					c-0.161,0.106-0.36,0.23-0.598,0.357c-0.234,0.132-0.498,0.285-0.806,0.414c-0.299,0.145-0.636,0.274-0.998,0.404
					c-0.363,0.118-0.751,0.244-1.17,0.307c-0.206,0.044-0.42,0.068-0.638,0.085c-0.217,0.029-0.439,0.024-0.663,0.02
					c-0.448-0.01-0.903-0.081-1.343-0.209c-0.882-0.266-1.66-0.799-2.244-1.414c-0.583-0.621-0.97-1.316-1.246-1.921
					c-0.281-0.607-0.415-1.149-0.51-1.522C102.096,291.28,102.074,291.06,102.074,291.06z"/>
				<g>
					<circle fill="#4D5B2F" cx="107.503" cy="292.67" r="2.006"/>
					<circle fill="#FCFCFC" cx="107.608" cy="292.188" r="0.588"/>
				</g>
			</g>
		</g>
		<g>
			<g>
				<g>
					
						<rect x="129.152" y="274.636" transform="matrix(0.5888 0.8083 -0.8083 0.5888 278.1671 9.4053)" fill="#8ABA45" width="1.375" height="6.919"/>
				</g>
				<circle fill="#8ABA45" cx="133.762" cy="274.887" r="1.87"/>
			</g>
			<g>
				<g>
					
						<rect x="114.385" y="272.723" transform="matrix(0.1199 0.9928 -0.9928 0.1199 375.1563 123.638)" fill="#8ABA45" width="6.92" height="1.375"/>
				</g>
				<circle fill="#8ABA45" cx="117.43" cy="268.633" r="1.87"/>
			</g>
		</g>
	</g>
	<g>
		<path opacity="0.3" fill="#C3E5E2" d="M79.785,310.646c0,0,4.228-30.434,6.838-40.358c4.39-16.683,26.051-23.838,45.097-16.966
			l0,0c19.045,6.873,31.147,26.211,23.871,41.854c-4.328,9.304-20.507,35.425-20.507,35.425s-15.876-3.601-28.924-8.31
			C94.542,318.099,79.785,310.646,79.785,310.646z"/>
		<g opacity="0.7">
			<path fill="#F7F9F9" d="M110.138,256.667c0,0-0.44,0.191-1.211,0.525c-0.383,0.166-0.842,0.38-1.364,0.62
				c-0.523,0.241-1.103,0.532-1.732,0.84c-0.627,0.314-1.291,0.681-1.985,1.067c-0.34,0.208-0.7,0.397-1.052,0.616
				c-0.35,0.221-0.706,0.446-1.07,0.676c-0.351,0.241-0.708,0.488-1.068,0.737c-0.345,0.269-0.693,0.537-1.05,0.801
				c-0.334,0.288-0.665,0.583-1.008,0.867l-0.948,0.931l-0.871,0.991l-0.055,0.061c0.001-0.002-0.04,0.051-0.004,0.001l-0.026,0.036
				l-0.105,0.143l-0.214,0.282l-0.427,0.56c-0.282,0.373-0.566,0.74-0.85,1.1c-0.248,0.358-0.492,0.713-0.732,1.063
				c-0.508,0.681-0.92,1.398-1.334,2.07c-0.226,0.33-0.374,0.677-0.554,1.003c-0.168,0.329-0.367,0.637-0.494,0.956
				c-0.274,0.632-0.55,1.212-0.746,1.752c-0.207,0.542-0.386,1.014-0.535,1.403c-0.304,0.788-0.507,1.227-0.507,1.227
				s0.009-0.486,0.061-1.322c0.029-0.421,0.042-0.932,0.129-1.52c0.042-0.294,0.064-0.612,0.129-0.941
				c0.072-0.329,0.146-0.675,0.224-1.036c0.069-0.366,0.21-0.725,0.32-1.111c0.124-0.38,0.24-0.784,0.417-1.167
				c0.335-0.778,0.684-1.608,1.171-2.409c0.228-0.407,0.466-0.825,0.713-1.232c0.255-0.382,0.517-0.764,0.786-1.146l0.403-0.578
				l0.202-0.29l0.104-0.144l0.025-0.036l0.053-0.066l0.062-0.073c0.329-0.386,0.651-0.783,0.994-1.16l1.097-1.047
				c0.392-0.313,0.781-0.624,1.168-0.933c0.404-0.281,0.81-0.552,1.211-0.816c0.412-0.245,0.823-0.479,1.229-0.705
				c0.822-0.428,1.635-0.796,2.421-1.101c0.786-0.303,1.543-0.542,2.248-0.734c0.701-0.202,1.355-0.342,1.937-0.448
				c0.578-0.118,1.092-0.178,1.513-0.226C109.651,256.659,110.138,256.667,110.138,256.667z"/>
		</g>
	</g>
</g>
<g>
	<circle opacity="0.1" fill="#F9F9F7" cx="617.462" cy="540.372" r="61.616"/>
	<circle fill="#E9E8E8" cx="617.46" cy="540.372" r="57.983"/>
	<path opacity="0.2" fill="#C6C4C4" d="M650.255,492.55c0,0,40.675,83.192-46.399,104.195c0,0,50.581,13.05,69.376-40.457
		C673.231,556.288,686.318,518.86,650.255,492.55z"/>
	<g>
		<g>
			<g opacity="0.25">
				<path d="M577.679,534.278c-3.108-7.28-1.041-18.781,6.239-21.893c7.281-3.108,17.317-0.415,20.427,6.865
					c3.109,7.281-1.884,16.396-9.165,19.505S580.788,541.559,577.679,534.278z"/>
			</g>
			<g>
				<path fill="#BCBEC0" d="M576.723,534.278c-3.108-7.28-1.041-18.781,6.239-21.893c7.281-3.108,17.317-0.415,20.427,6.865
					c3.109,7.281-1.884,16.396-9.165,19.505S579.832,541.559,576.723,534.278z"/>
			</g>
		</g>
		<g>
			<g opacity="0.25">
				<path d="M579.932,532.67c-2.558-5.989-0.857-15.443,5.13-18.001c5.986-2.557,14.24-0.343,16.797,5.645
					c2.557,5.988-1.55,13.48-7.536,16.037C588.335,538.908,582.489,538.655,579.932,532.67z"/>
			</g>
			<g>
				<path fill="#AAADAF" d="M578.976,532.67c-2.558-5.989-0.857-15.443,5.13-18.001c5.986-2.557,14.24-0.343,16.797,5.645
					c2.557,5.988-1.55,13.48-7.536,16.037C587.379,538.908,581.533,538.655,578.976,532.67z"/>
			</g>
		</g>
	</g>
	<g>
		<g opacity="0.25">
			<path d="M609.14,550.339c-0.63-1.472-0.212-3.801,1.263-4.429c1.473-0.63,3.502-0.086,4.13,1.388
				c0.632,1.474-0.379,3.318-1.854,3.948C611.206,551.874,609.767,551.811,609.14,550.339z"/>
		</g>
		<g>
			<path fill="#BCBEC0" d="M608.184,550.339c-0.63-1.472-0.212-3.801,1.263-4.429c1.473-0.63,3.502-0.086,4.13,1.388
				c0.632,1.474-0.379,3.318-1.854,3.948C610.25,551.874,608.811,551.811,608.184,550.339z"/>
		</g>
	</g>
	<g>
		<g opacity="0.25">
			<path d="M655.249,558.387c-0.777-1.815-0.259-4.688,1.558-5.463c1.816-0.777,4.323-0.104,5.097,1.712
				c0.779,1.817-0.47,4.094-2.286,4.869C657.8,560.281,656.025,560.206,655.249,558.387z"/>
		</g>
		<g>
			<path fill="#BCBEC0" d="M654.293,558.387c-0.777-1.815-0.259-4.688,1.558-5.463c1.816-0.777,4.323-0.104,5.097,1.712
				c0.779,1.817-0.47,4.094-2.286,4.869C656.844,560.281,655.069,560.206,654.293,558.387z"/>
		</g>
	</g>
	<g>
		<g opacity="0.25">
			<path d="M631.651,544.697c-3.788-8.874,0.037-18.807,9.1-22.678c9.059-3.867,20.331-4.813,24.119,4.059
				c3.791,8.871-4.511,16.941-13.57,20.809C642.237,550.758,635.439,553.567,631.651,544.697z"/>
			<path d="M634.111,543.014c-3.204-7.503,0.032-15.901,7.693-19.175c7.662-3.271,17.192-4.072,20.396,3.431
				c3.206,7.499-3.816,14.324-11.476,17.598C643.062,548.138,637.313,550.514,634.111,543.014z"/>
		</g>
		<g>
			<g>
				<path fill="#BCBEC0" d="M630.695,544.697c-3.788-8.874,0.037-18.807,9.1-22.678c9.059-3.867,20.331-4.813,24.119,4.059
					c3.791,8.871-4.511,16.941-13.57,20.809C641.281,550.758,634.483,553.567,630.695,544.697z"/>
				<path fill="#AAADAF" d="M633.155,543.014c-3.204-7.503,0.032-15.901,7.693-19.175c7.662-3.271,17.192-4.072,20.396,3.431
					c3.206,7.499-3.816,14.324-11.476,17.598C642.105,548.138,636.357,550.514,633.155,543.014z"/>
			</g>
		</g>
	</g>
	<g>
		<g>
			<g opacity="0.25">
				<path d="M645.154,580.705c-5.288,3.934-12.496,2.979-16.516-2.421c-4.017-5.396-6.444-12.732-1.158-16.664
					c5.284-3.937,11.97,0.289,15.989,5.686C647.488,572.705,650.439,576.771,645.154,580.705z"/>
			</g>
			<g>
				<path fill="#BCBEC0" d="M644.198,580.705c-5.288,3.934-12.496,2.979-16.516-2.421c-4.017-5.396-6.444-12.732-1.158-16.664
					c5.284-3.937,11.97,0.289,15.989,5.686C646.532,572.705,649.483,576.771,644.198,580.705z"/>
			</g>
		</g>
		<g>
			<g opacity="0.25">
				<path d="M643.642,579.341c-4.47,3.327-10.563,2.518-13.963-2.047c-3.396-4.565-5.453-10.765-0.982-14.092
					c4.471-3.329,10.125,0.244,13.521,4.809C645.615,572.576,648.111,576.014,643.642,579.341z"/>
			</g>
			<g>
				<path fill="#AAADAF" d="M642.686,579.341c-4.47,3.327-10.563,2.518-13.963-2.047c-3.396-4.565-5.453-10.765-0.982-14.092
					c4.471-3.329,10.125,0.244,13.521,4.809C644.659,572.576,647.155,576.014,642.686,579.341z"/>
			</g>
		</g>
	</g>
	<g>
		<g>
			<g opacity="0.25">
				<path d="M597.875,580.916c0.203-3.518,3.066-6.138,6.655-5.932c3.59,0.21,7.428,1.731,7.223,5.246
					c-0.201,3.516-4.228,4.803-7.816,4.596C600.347,584.616,597.668,584.43,597.875,580.916z"/>
			</g>
			<g>
				<path fill="#BCBEC0" d="M596.919,580.916c0.203-3.518,3.066-6.138,6.655-5.932c3.59,0.21,7.428,1.731,7.223,5.246
					c-0.201,3.516-4.228,4.803-7.816,4.596C599.391,584.616,596.712,584.43,596.919,580.916z"/>
			</g>
		</g>
		<path fill="#AAADAF" d="M597.993,580.765c0.173-2.971,2.597-5.189,5.633-5.013c3.034,0.175,6.278,1.462,6.106,4.435
			c-0.173,2.972-3.576,4.06-6.609,3.885C600.088,583.895,597.822,583.736,597.993,580.765z"/>
	</g>
	<g>
		<g>
			<g opacity="0.25">
				<path d="M623.719,508.084c0.268-4.644,4.053-8.108,8.792-7.835c4.742,0.275,9.813,2.287,9.54,6.929
					c-0.267,4.644-5.585,6.342-10.323,6.068C626.984,512.973,623.447,512.723,623.719,508.084z"/>
			</g>
			<g>
				<path fill="#BCBEC0" d="M622.763,508.084c0.268-4.644,4.053-8.108,8.792-7.835c4.742,0.275,9.813,2.287,9.54,6.929
					c-0.267,4.644-5.585,6.342-10.323,6.068C626.028,512.973,622.491,512.723,622.763,508.084z"/>
			</g>
		</g>
		<g>
			<g opacity="0.25">
				<path d="M625.14,507.884c0.229-3.925,3.43-6.855,7.438-6.622c4.008,0.233,8.292,1.932,8.066,5.858
					c-0.227,3.927-4.724,5.362-8.73,5.131C627.905,512.019,624.913,511.809,625.14,507.884z"/>
			</g>
			<g>
				<path fill="#AAADAF" d="M624.184,507.884c0.229-3.925,3.43-6.855,7.438-6.622c4.008,0.233,8.292,1.932,8.066,5.858
					c-0.227,3.927-4.724,5.362-8.73,5.131C626.949,512.019,623.957,511.809,624.184,507.884z"/>
			</g>
		</g>
	</g>
	<g>
		<g>
			<g opacity="0.25">
				<path d="M576.224,549.534c1.666-1.901,4.447-2.123,6.389-0.422c1.94,1.702,3.443,4.259,1.776,6.159
					c-1.666,1.903-4.515,0.855-6.454-0.846C575.99,552.723,574.556,551.433,576.224,549.534z"/>
			</g>
			<g>
				<path fill="#BCBEC0" d="M575.268,549.534c1.666-1.901,4.447-2.123,6.389-0.422c1.94,1.702,3.443,4.259,1.776,6.159
					c-1.666,1.903-4.515,0.855-6.454-0.846C575.034,552.723,573.6,551.433,575.268,549.534z"/>
			</g>
		</g>
		<path fill="#AAADAF" d="M575.942,549.923c1.411-1.605,3.762-1.794,5.405-0.355c1.642,1.44,2.91,3.602,1.502,5.209
			c-1.409,1.608-3.817,0.723-5.461-0.716C575.747,552.621,574.535,551.531,575.942,549.923z"/>
	</g>
	<g>
		<path fill="#BCBEC0" d="M606.257,499.399c1.188-1.356,3.173-1.515,4.558-0.3c1.386,1.213,2.457,3.038,1.27,4.395
			c-1.191,1.357-3.223,0.61-4.606-0.604C606.092,501.675,605.067,500.756,606.257,499.399z"/>
		<g>
			<g opacity="0.25">
				<path d="M607.694,499.676c1.007-1.145,2.684-1.281,3.855-0.252c1.172,1.027,2.078,2.568,1.072,3.716
					c-1.006,1.147-2.724,0.516-3.895-0.512C607.556,501.602,606.688,500.824,607.694,499.676z"/>
			</g>
			<g>
				<path fill="#AAADAF" d="M606.738,499.676c1.007-1.145,2.684-1.281,3.855-0.252c1.172,1.027,2.078,2.568,1.072,3.716
					c-1.006,1.147-2.724,0.516-3.895-0.512C606.6,501.602,605.732,500.824,606.738,499.676z"/>
			</g>
		</g>
	</g>
</g>
<rect x="499.501" y="-245.594" fill="none" width="129.897" height="106.711"/>
<g>
	<g>
		<g>
			<path fill="#98A8A7" d="M98.936,702.379c-0.077,0.225-0.324,0.345-0.549,0.268l-7.292-2.503
				c-0.225-0.077-0.346-0.324-0.269-0.549l0.897-2.614c0.077-0.225,0.324-0.345,0.549-0.268l7.293,2.503
				c0.225,0.077,0.346,0.324,0.269,0.549L98.936,702.379z"/>
		</g>
		<g>
			<path fill="#9DB2B2" d="M86.116,713.313c-0.077,0.225-0.324,0.345-0.549,0.268L31.08,694.876
				c-0.225-0.077-0.346-0.324-0.269-0.549l11.054-32.196c0.077-0.225,0.324-0.345,0.549-0.268l54.487,18.705
				c0.225,0.077,0.346,0.324,0.269,0.549L86.116,713.313z"/>
		</g>
		<g>
			<g>
				
					<rect x="40.563" y="662.302" transform="matrix(0.9448 0.3277 -0.3277 0.9448 225.0288 24.1776)" fill="#797C7C" width="0.432" height="34.903"/>
			</g>
			<g>
				
					<rect x="44.783" y="663.75" transform="matrix(0.9456 0.3254 -0.3254 0.9456 224.0869 22.4239)" fill="#797C7C" width="0.432" height="34.904"/>
			</g>
			<g>
				
					<rect x="49.003" y="665.199" transform="matrix(0.9456 0.3254 -0.3254 0.9456 224.788 21.1296)" fill="#797C7C" width="0.432" height="34.904"/>
			</g>
			<g>
				
					<rect x="53.223" y="666.646" transform="matrix(0.9463 0.3233 -0.3233 0.9463 224.0681 19.4691)" fill="#797C7C" width="0.432" height="34.904"/>
			</g>
			<g>
				
					<rect x="57.443" y="668.096" transform="matrix(0.9456 0.3254 -0.3254 0.9456 226.19 18.5411)" fill="#797C7C" width="0.432" height="34.904"/>
			</g>
			<g>
				
					<rect x="61.663" y="669.545" transform="matrix(0.9463 0.3233 -0.3233 0.9463 225.4585 16.8957)" fill="#797C7C" width="0.432" height="34.903"/>
			</g>
			<g>
				
					<rect x="65.884" y="670.995" transform="matrix(0.9462 0.3237 -0.3237 0.9462 226.4004 15.6676)" fill="#797C7C" width="0.431" height="34.904"/>
			</g>
			<g>
				
					<rect x="70.104" y="672.443" transform="matrix(0.9456 0.3254 -0.3254 0.9456 228.2931 14.6583)" fill="#797C7C" width="0.432" height="34.904"/>
			</g>
			<g>
				
					<rect x="74.324" y="673.893" transform="matrix(0.9456 0.3254 -0.3254 0.9456 228.9944 13.364)" fill="#797C7C" width="0.432" height="34.903"/>
			</g>
			<g>
				
					<rect x="78.544" y="675.342" transform="matrix(0.9456 0.3254 -0.3254 0.9456 229.6954 12.0698)" fill="#797C7C" width="0.432" height="34.902"/>
			</g>
			<g>
				
					<rect x="82.765" y="676.789" transform="matrix(0.9463 0.3233 -0.3233 0.9463 228.9343 10.4619)" fill="#797C7C" width="0.432" height="34.903"/>
			</g>
			<g>
				
					<rect x="86.985" y="678.239" transform="matrix(0.9463 0.3233 -0.3233 0.9463 229.6298 9.1751)" fill="#797C7C" width="0.432" height="34.902"/>
			</g>
			<g>
				
					<rect x="37.618" y="679.165" transform="matrix(0.9458 0.3247 -0.3247 0.9458 224.2314 15.1067)" fill="#797C7C" width="58.473" height="0.433"/>
			</g>
			<g>
				
					<rect x="34.386" y="688.578" transform="matrix(0.9458 0.3247 -0.3247 0.9458 227.111 16.6655)" fill="#797C7C" width="58.473" height="0.432"/>
			</g>
			<g>
				
					<rect x="31.154" y="697.99" transform="matrix(0.9458 0.3247 -0.3247 0.9458 229.98 18.222)" fill="#797C7C" width="58.473" height="0.434"/>
			</g>
		</g>
	</g>
	<g>
		<g>
			<path fill="#98A8A7" d="M135.467,714.919c-0.077,0.225-0.324,0.345-0.549,0.268l-7.293-2.503
				c-0.225-0.077-0.345-0.324-0.268-0.549l0.896-2.612c0.077-0.225,0.324-0.345,0.548-0.268l7.294,2.504
				c0.225,0.077,0.345,0.324,0.268,0.549L135.467,714.919z"/>
		</g>
		<g>
			<path fill="#9DB2B2" d="M186.062,747.628c-0.077,0.225-0.324,0.345-0.548,0.268l-54.488-18.705
				c-0.225-0.077-0.346-0.324-0.269-0.549l11.053-32.196c0.077-0.225,0.324-0.345,0.548-0.268l54.489,18.706
				c0.225,0.077,0.345,0.324,0.268,0.549L186.062,747.628z"/>
		</g>
		<g>
			<g>
				
					<rect x="140.509" y="696.616" transform="matrix(0.9456 0.3254 -0.3254 0.9456 239.9886 -6.9337)" fill="#797C7C" width="0.432" height="34.902"/>
			</g>
			<g>
				
					<rect x="144.729" y="698.063" transform="matrix(0.9456 0.3254 -0.3254 0.9456 240.6894 -8.228)" fill="#797C7C" width="0.432" height="34.904"/>
			</g>
			<g>
				
					<rect x="148.95" y="699.513" transform="matrix(0.9463 0.3233 -0.3233 0.9463 239.8372 -9.7178)" fill="#797C7C" width="0.432" height="34.904"/>
			</g>
			<g>
				
					<rect x="153.169" y="700.962" transform="matrix(0.9456 0.3254 -0.3254 0.9456 242.0917 -10.8162)" fill="#797C7C" width="0.432" height="34.902"/>
			</g>
			<g>
				
					<rect x="157.39" y="702.41" transform="matrix(0.9463 0.3233 -0.3233 0.9463 241.2275 -12.2913)" fill="#797C7C" width="0.432" height="34.904"/>
			</g>
			<g>
				
					<rect x="161.61" y="703.86" transform="matrix(0.9456 0.3254 -0.3254 0.9456 243.4937 -13.4052)" fill="#797C7C" width="0.432" height="34.902"/>
			</g>
			<g>
				
					<rect x="165.83" y="705.309" transform="matrix(0.9456 0.3254 -0.3254 0.9456 244.1952 -14.6992)" fill="#797C7C" width="0.432" height="34.904"/>
			</g>
			<g>
				
					<rect x="170.051" y="706.758" transform="matrix(0.9463 0.3233 -0.3233 0.9463 243.3133 -16.1515)" fill="#797C7C" width="0.432" height="34.903"/>
			</g>
			<g>
				
					<rect x="174.271" y="708.206" transform="matrix(0.9462 0.3237 -0.3237 0.9462 244.2803 -17.4127)" fill="#797C7C" width="0.431" height="34.904"/>
			</g>
			<g>
				
					<rect x="178.491" y="709.656" transform="matrix(0.9455 0.3257 -0.3257 0.9455 246.5724 -18.5572)" fill="#797C7C" width="0.432" height="34.902"/>
			</g>
			<g>
				
					<rect x="182.711" y="711.104" transform="matrix(0.9456 0.3254 -0.3254 0.9456 246.9988 -19.8763)" fill="#797C7C" width="0.432" height="34.902"/>
			</g>
			<g>
				
					<rect x="186.931" y="712.553" transform="matrix(0.9463 0.3233 -0.3233 0.9463 246.0939 -21.2983)" fill="#797C7C" width="0.432" height="34.904"/>
			</g>
			<g>
				
					<rect x="137.563" y="713.479" transform="matrix(0.9458 0.3247 -0.3247 0.9458 240.7955 -15.4879)" fill="#797C7C" width="58.475" height="0.433"/>
			</g>
			<g>
				
					<rect x="134.332" y="722.892" transform="matrix(0.9458 0.3247 -0.3247 0.9458 243.6829 -13.9276)" fill="#797C7C" width="58.473" height="0.432"/>
			</g>
			<g>
				
					<rect x="131.099" y="732.306" transform="matrix(0.9458 0.3247 -0.3247 0.9458 246.5609 -12.3683)" fill="#797C7C" width="58.474" height="0.433"/>
			</g>
		</g>
	</g>
	<g>
		<g>
			<path fill="#449799" d="M119.997,733.571c-0.077,0.225-0.324,0.345-0.549,0.268l-28.418-9.755
				c-0.225-0.077-0.345-0.324-0.268-0.549l13.704-39.912c0.077-0.225,0.324-0.345,0.549-0.268l28.417,9.755
				c0.225,0.077,0.345,0.324,0.268,0.549L119.997,733.571z"/>
		</g>
		<polygon fill="#277A7A" points="127.749,694.809 117.364,691.367 106.995,687.88 107.229,687.764 101.506,704.557 95.709,721.323 
			95.594,721.087 105.918,724.704 116.227,728.368 105.843,724.926 95.474,721.438 95.299,721.379 95.358,721.202 101.083,704.412 
			106.88,687.645 106.941,687.469 107.115,687.529 117.439,691.147 		"/>
		<g>
			
				<rect x="108.481" y="691.7" transform="matrix(0.9457 0.3252 -0.3252 0.9457 231.2598 2.0047)" fill="#277A7A" width="2.303" height="2.302"/>
			
				<rect x="106.821" y="696.531" transform="matrix(0.9459 0.3244 -0.3244 0.9459 232.1837 2.7073)" fill="#FFD200" width="2.303" height="2.304"/>
			
				<rect x="112.969" y="693.241" transform="matrix(0.9458 0.3247 -0.3247 0.9458 231.6789 0.5735)" fill="#C6413E" width="2.304" height="2.301"/>
			
				<rect x="111.31" y="698.073" transform="matrix(0.9457 0.3249 -0.3249 0.9457 233.3026 1.3994)" fill="#277A7A" width="2.302" height="2.302"/>
			
				<rect x="117.458" y="694.782" transform="matrix(0.9457 0.3251 -0.3251 0.9457 232.7019 -0.7548)" fill="#124466" width="2.304" height="2.302"/>
			
				<rect x="115.798" y="699.614" transform="matrix(0.9457 0.3251 -0.3251 0.9457 234.1346 0.0393)" fill="#C6413E" width="2.304" height="2.302"/>
			
				<rect x="121.947" y="696.321" transform="matrix(0.9459 0.3244 -0.3244 0.9459 232.9335 -2.2112)" fill="#8ABA45" width="2.303" height="2.303"/>
			
				<rect x="120.287" y="701.155" transform="matrix(0.9458 0.3249 -0.3249 0.9458 234.7426 -1.3579)" fill="#FFD200" width="2.303" height="2.302"/>
		</g>
	</g>
	<g>
		<g>
			<path fill="#999999" d="M107.544,734.644c-0.104,0.104-0.304,0.15-0.444,0.103l-7.26-2.494c-0.14-0.048-0.261-0.208-0.269-0.355
				l-0.262-4.708c-0.008-0.147,0.099-0.229,0.239-0.182l11.383,3.908c0.14,0.048,0.168,0.172,0.064,0.276L107.544,734.644z"/>
		</g>
		<polyline fill="#888989" points="99.294,726.92 99.374,728.351 110.141,732.046 111.185,731.002 		"/>
	</g>
	<g>
		<g>
			<path fill="#999999" d="M122.586,688.933c-0.077,0.225-0.324,0.345-0.548,0.268l-5.63-1.933
				c-0.225-0.077-0.345-0.324-0.268-0.549l3.694-10.761c0.077-0.225,0.324-0.345,0.548-0.268l5.629,1.934
				c0.225,0.077,0.345,0.324,0.268,0.549L122.586,688.933z"/>
		</g>
		<path fill="#888989" d="M119.26,677.63c0,0,3.414,1.978,6.504,2.046l-0.288,0.839c0,0-2.894,0.612-6.571-1.851L119.26,677.63z"/>
	</g>
	<g>
		<path fill="#CCCCCC" d="M144.285,667.919c-3.148,9.173-13.138,14.055-22.312,10.907c-9.173-3.15-14.057-13.139-10.907-22.312
			L144.285,667.919z"/>
		
			<ellipse transform="matrix(0.9458 0.3247 -0.3247 0.9458 221.9444 -5.5748)" fill="#999999" cx="127.676" cy="662.217" rx="17.561" ry="4.39"/>
		<g>
			<path fill="#808080" d="M123.601,665.4c0,0,5.13-3.963,6.868-12.999l1.729,0.595c0,0-4.364,10.073-2.438,14.461
				C129.76,667.457,126.949,666.639,123.601,665.4z"/>
			<circle fill="#C6413E" cx="131.785" cy="651.641" r="1.726"/>
		</g>
	</g>
</g>
<rect x="499.501" y="1289.639" fill="none" width="129.897" height="106.71"/>
<rect x="499.501" y="1017.113" fill="none" width="129.897" height="106.71"/>
</svg>
