<?xml version="1.0" encoding="utf-8"?>
<!-- Generator: Adobe Illustrator 16.0.0, SVG Export Plug-In . SVG Version: 6.00 Build 0)  -->
<!DOCTYPE svg PUBLIC "-//W3C//DTD SVG 1.1//EN" "http://www.w3.org/Graphics/SVG/1.1/DTD/svg11.dtd">
<svg version="1.1" id="Layer_1" xmlns="http://www.w3.org/2000/svg" xmlns:xlink="http://www.w3.org/1999/xlink" x="0px" y="0px"
	 width="750px" height="1038.42px" viewBox="0 0 750 1038.42" enable-background="new 0 0 750 1038.42" xml:space="preserve">
<rect x="-16" y="-37.096" fill="#2F302D" width="784.157" height="1112.597"/>
<g>
	<ellipse fill="#929183" cx="110.097" cy="542.964" rx="1.586" ry="2.855"/>
</g>
<g>
	<ellipse fill="#929183" cx="60.442" cy="582.307" rx="2.697" ry="2.221"/>
</g>
<g>
	<ellipse fill="#929183" cx="345.68" cy="589.13" rx="2.697" ry="2.221"/>
</g>
<g>
	<circle fill="#929183" cx="170.545" cy="634.659" r="2.38"/>
</g>
<g>
	<circle fill="#929183" cx="170.545" cy="634.659" r="2.38"/>
</g>
<g>
	<path fill="#929183" d="M264.773,562.479c0-1.315-1.066-2.382-2.379-2.382c-1.314,0-2.38,1.066-2.38,2.382
		c0,1.313,1.066,2.379,2.38,2.379C263.708,564.858,264.773,563.792,264.773,562.479z"/>
</g>
<g>
	<circle fill="#929183" cx="367.097" cy="542.963" r="2.38"/>
</g>
<g>
	<circle fill="#929183" cx="224.064" cy="634.659" r="2.38"/>
</g>
<g>
	<ellipse fill="#929183" cx="55.366" cy="664.799" rx="2.38" ry="2.854"/>
</g>
<g>
	<ellipse fill="#929183" cx="297.612" cy="676.699" rx="2.379" ry="2.697"/>
</g>
<g>
	<ellipse fill="#929183" cx="347.902" cy="687.484" rx="2.221" ry="2.695"/>
</g>
<ellipse fill="#929183" cx="490.122" cy="542.965" rx="1.587" ry="2.855"/>
<ellipse fill="#929183" cx="440.466" cy="582.309" rx="2.697" ry="2.221"/>
<ellipse fill="#929183" cx="725.705" cy="589.13" rx="2.697" ry="2.221"/>
<circle fill="#929183" cx="550.57" cy="634.66" r="2.38"/>
<circle fill="#929183" cx="550.57" cy="634.66" r="2.38"/>
<path fill="#929183" d="M644.798,562.477c0,1.315-1.065,2.382-2.379,2.382c-1.315,0-2.381-1.066-2.381-2.382
	c0-1.313,1.065-2.379,2.381-2.379C643.732,560.098,644.798,561.164,644.798,562.477z"/>
<circle fill="#929183" cx="747.122" cy="542.965" r="2.379"/>
<circle fill="#929183" cx="604.088" cy="634.66" r="2.38"/>
<ellipse fill="#929183" cx="435.392" cy="664.803" rx="2.38" ry="2.854"/>
<ellipse fill="#929183" cx="677.636" cy="676.699" rx="2.379" ry="2.697"/>
<ellipse fill="#929183" cx="727.926" cy="687.488" rx="2.221" ry="2.695"/>
<ellipse fill="#929183" cx="109.913" cy="119.981" rx="1.587" ry="2.856"/>
<ellipse fill="#929183" cx="60.259" cy="159.325" rx="2.697" ry="2.221"/>
<ellipse fill="#929183" cx="345.496" cy="166.147" rx="2.698" ry="2.221"/>
<circle fill="#929183" cx="170.361" cy="211.677" r="2.38"/>
<circle fill="#929183" cx="170.361" cy="211.677" r="2.38"/>
<circle fill="#929183" cx="112.293" cy="266.566" r="2.38"/>
<circle fill="#929183" cx="262.209" cy="139.494" r="2.38"/>
<circle fill="#929183" cx="321.651" cy="134.735" r="2.38"/>
<circle fill="#929183" cx="223.88" cy="211.677" r="2.38"/>
<ellipse fill="#929183" cx="55.182" cy="241.818" rx="2.38" ry="2.855"/>
<ellipse fill="#929183" cx="297.427" cy="253.716" rx="2.38" ry="2.697"/>
<ellipse fill="#929183" cx="347.717" cy="264.504" rx="2.221" ry="2.697"/>
<ellipse fill="#929183" cx="489.938" cy="119.981" rx="1.587" ry="2.856"/>
<ellipse fill="#929183" cx="440.284" cy="159.325" rx="2.697" ry="2.221"/>
<ellipse fill="#929183" cx="725.521" cy="166.147" rx="2.698" ry="2.221"/>
<circle fill="#929183" cx="550.386" cy="211.677" r="2.38"/>
<circle fill="#929183" cx="550.386" cy="211.677" r="2.38"/>
<circle fill="#929183" cx="492.317" cy="266.566" r="2.379"/>
<circle fill="#929183" cx="642.233" cy="139.494" r="2.38"/>
<circle fill="#929183" cx="746.937" cy="119.981" r="2.379"/>
<circle fill="#929183" cx="603.905" cy="211.677" r="2.38"/>
<ellipse fill="#929183" cx="435.207" cy="241.818" rx="2.38" ry="2.855"/>
<ellipse fill="#929183" cx="677.452" cy="253.716" rx="2.379" ry="2.697"/>
<ellipse fill="#929183" cx="727.742" cy="264.504" rx="2.221" ry="2.697"/>
<g>
	<ellipse fill="#929183" cx="59.892" cy="-11.972" rx="2.697" ry="2.221"/>
</g>
<g>
	<ellipse fill="#929183" cx="345.13" cy="-5.15" rx="2.697" ry="2.221"/>
</g>
<g>
	<circle fill="#929183" cx="169.994" cy="40.38" r="2.38"/>
</g>
<g>
	<circle fill="#929183" cx="169.994" cy="40.38" r="2.38"/>
</g>
<g>
	<circle fill="#929183" cx="111.926" cy="95.27" r="2.38"/>
</g>
<g>
	<circle fill="#929183" cx="223.513" cy="40.38" r="2.38"/>
</g>
<g>
	<ellipse fill="#929183" cx="54.815" cy="70.521" rx="2.38" ry="2.855"/>
</g>
<g>
	<ellipse fill="#929183" cx="297.06" cy="82.419" rx="2.38" ry="2.697"/>
</g>
<g>
	<ellipse fill="#929183" cx="347.35" cy="93.208" rx="2.221" ry="2.698"/>
</g>
<ellipse fill="#929183" cx="439.917" cy="-11.972" rx="2.697" ry="2.221"/>
<ellipse fill="#929183" cx="725.154" cy="-5.15" rx="2.697" ry="2.221"/>
<circle fill="#929183" cx="550.019" cy="40.38" r="2.38"/>
<circle fill="#929183" cx="550.019" cy="40.38" r="2.38"/>
<circle fill="#929183" cx="491.95" cy="95.27" r="2.38"/>
<circle fill="#929183" cx="603.538" cy="40.38" r="2.38"/>
<ellipse fill="#929183" cx="434.84" cy="70.521" rx="2.38" ry="2.855"/>
<ellipse fill="#929183" cx="677.085" cy="82.419" rx="2.38" ry="2.697"/>
<ellipse fill="#929183" cx="727.375" cy="93.207" rx="2.221" ry="2.698"/>
<ellipse fill="#929183" cx="109.179" cy="457.905" rx="1.586" ry="2.855"/>
<ellipse fill="#929183" cx="59.524" cy="497.249" rx="2.697" ry="2.221"/>
<ellipse fill="#929183" cx="344.762" cy="504.07" rx="2.697" ry="2.222"/>
<circle fill="#929183" cx="169.627" cy="549.601" r="2.38"/>
<circle fill="#929183" cx="169.627" cy="549.601" r="2.38"/>
<circle fill="#929183" cx="111.559" cy="604.49" r="2.38"/>
<circle fill="#929183" cx="261.475" cy="477.417" r="2.38"/>
<circle fill="#929183" cx="320.916" cy="472.658" r="2.38"/>
<circle fill="#929183" cx="223.146" cy="549.601" r="2.38"/>
<ellipse fill="#929183" cx="54.448" cy="579.742" rx="2.38" ry="2.854"/>
<ellipse fill="#929183" cx="296.694" cy="591.64" rx="2.38" ry="2.697"/>
<ellipse fill="#929183" cx="346.983" cy="602.428" rx="2.221" ry="2.695"/>
<ellipse fill="#929183" cx="489.204" cy="457.905" rx="1.587" ry="2.855"/>
<ellipse fill="#929183" cx="439.549" cy="497.249" rx="2.697" ry="2.221"/>
<ellipse fill="#929183" cx="724.787" cy="504.07" rx="2.697" ry="2.222"/>
<circle fill="#929183" cx="549.652" cy="549.601" r="2.38"/>
<circle fill="#929183" cx="549.652" cy="549.601" r="2.38"/>
<circle fill="#929183" cx="491.583" cy="604.49" r="2.38"/>
<circle fill="#929183" cx="641.5" cy="477.417" r="2.379"/>
<circle fill="#929183" cx="746.204" cy="457.905" r="2.379"/>
<circle fill="#929183" cx="603.17" cy="549.601" r="2.379"/>
<ellipse fill="#929183" cx="434.473" cy="579.742" rx="2.379" ry="2.854"/>
<ellipse fill="#929183" cx="676.718" cy="591.64" rx="2.379" ry="2.697"/>
<ellipse fill="#929183" cx="727.008" cy="602.428" rx="2.221" ry="2.695"/>
<g>
	<ellipse fill="#929183" cx="108.813" cy="286.608" rx="1.586" ry="2.855"/>
</g>
<g>
	<ellipse fill="#929183" cx="59.157" cy="325.952" rx="2.697" ry="2.221"/>
</g>
<g>
	<ellipse fill="#929183" cx="344.395" cy="332.774" rx="2.697" ry="2.221"/>
</g>
<g>
	<circle fill="#929183" cx="169.26" cy="378.304" r="2.38"/>
</g>
<g>
	<circle fill="#929183" cx="169.26" cy="378.304" r="2.38"/>
</g>
<g>
	<circle fill="#929183" cx="111.192" cy="433.193" r="2.38"/>
</g>
<g>
	<circle fill="#929183" cx="261.108" cy="306.121" r="2.38"/>
</g>
<g>
	<circle fill="#929183" cx="365.812" cy="286.608" r="2.38"/>
</g>
<g>
	<circle fill="#929183" cx="222.779" cy="378.304" r="2.38"/>
</g>
<g>
	<ellipse fill="#929183" cx="54.081" cy="408.445" rx="2.38" ry="2.855"/>
</g>
<g>
	<ellipse fill="#929183" cx="296.327" cy="420.342" rx="2.38" ry="2.696"/>
</g>
<g>
	<ellipse fill="#929183" cx="346.616" cy="431.131" rx="2.221" ry="2.697"/>
</g>
<ellipse fill="#929183" cx="488.837" cy="286.608" rx="1.586" ry="2.855"/>
<ellipse fill="#929183" cx="439.182" cy="325.952" rx="2.697" ry="2.221"/>
<ellipse fill="#929183" cx="724.42" cy="332.773" rx="2.697" ry="2.221"/>
<circle fill="#929183" cx="549.286" cy="378.303" r="2.379"/>
<circle fill="#929183" cx="549.286" cy="378.303" r="2.379"/>
<circle fill="#929183" cx="491.216" cy="433.193" r="2.38"/>
<circle fill="#929183" cx="641.133" cy="306.121" r="2.38"/>
<circle fill="#929183" cx="745.836" cy="286.608" r="2.38"/>
<circle fill="#929183" cx="602.803" cy="378.303" r="2.379"/>
<ellipse fill="#929183" cx="434.106" cy="408.445" rx="2.38" ry="2.855"/>
<ellipse fill="#929183" cx="676.352" cy="420.343" rx="2.38" ry="2.696"/>
<ellipse fill="#929183" cx="726.641" cy="431.131" rx="2.221" ry="2.697"/>
<ellipse fill="#929183" cx="15.431" cy="255.87" rx="2.698" ry="2.222"/>
<circle fill="#929183" cx="36.848" cy="209.705" r="2.38"/>
<ellipse fill="#929183" cx="17.652" cy="354.227" rx="2.221" ry="2.697"/>
<ellipse fill="#929183" cx="15.064" cy="84.573" rx="2.698" ry="2.222"/>
<circle fill="#929183" cx="36.48" cy="38.408" r="2.379"/>
<ellipse fill="#929183" cx="17.285" cy="182.932" rx="2.221" ry="2.696"/>
<ellipse fill="#929183" cx="17.102" cy="16.05" rx="2.221" ry="2.696"/>
<ellipse fill="#929183" cx="9.507" cy="675.222" rx="2.698" ry="2.222"/>
<circle fill="#929183" cx="30.924" cy="629.057" r="2.38"/>
<ellipse fill="#929183" cx="9.141" cy="503.925" rx="2.698" ry="2.222"/>
<circle fill="#929183" cx="30.557" cy="457.76" r="2.38"/>
<ellipse fill="#929183" cx="11.362" cy="602.283" rx="2.221" ry="2.695"/>
<ellipse fill="#929183" cx="11.178" cy="435.401" rx="2.221" ry="2.696"/>
<ellipse fill="#929183" cx="111.632" cy="824.546" rx="1.587" ry="2.855"/>
<ellipse fill="#929183" cx="61.978" cy="863.889" rx="2.697" ry="2.223"/>
<ellipse fill="#929183" cx="347.216" cy="870.712" rx="2.697" ry="2.221"/>
<circle fill="#929183" cx="172.081" cy="916.241" r="2.38"/>
<circle fill="#929183" cx="172.081" cy="916.241" r="2.38"/>
<circle fill="#929183" cx="114.012" cy="971.131" r="2.38"/>
<circle fill="#929183" cx="263.929" cy="844.059" r="2.38"/>
<circle fill="#929183" cx="323.37" cy="839.299" r="2.38"/>
<circle fill="#929183" cx="225.6" cy="916.241" r="2.38"/>
<ellipse fill="#929183" cx="56.902" cy="946.384" rx="2.38" ry="2.855"/>
<ellipse fill="#929183" cx="299.147" cy="958.281" rx="2.38" ry="2.697"/>
<ellipse fill="#929183" cx="349.437" cy="969.068" rx="2.221" ry="2.697"/>
<ellipse fill="#929183" cx="491.657" cy="824.546" rx="1.587" ry="2.855"/>
<ellipse fill="#929183" cx="442.003" cy="863.889" rx="2.696" ry="2.223"/>
<ellipse fill="#929183" cx="727.24" cy="870.712" rx="2.697" ry="2.221"/>
<circle fill="#929183" cx="552.105" cy="916.241" r="2.38"/>
<circle fill="#929183" cx="552.105" cy="916.241" r="2.38"/>
<circle fill="#929183" cx="494.036" cy="971.131" r="2.38"/>
<circle fill="#929183" cx="643.953" cy="844.059" r="2.379"/>
<circle fill="#929183" cx="748.657" cy="824.546" r="2.379"/>
<circle fill="#929183" cx="605.624" cy="916.241" r="2.38"/>
<ellipse fill="#929183" cx="436.926" cy="946.384" rx="2.38" ry="2.855"/>
<ellipse fill="#929183" cx="679.171" cy="958.281" rx="2.38" ry="2.697"/>
<ellipse fill="#929183" cx="729.461" cy="969.068" rx="2.221" ry="2.697"/>
<g>
	<ellipse fill="#929183" cx="61.611" cy="692.594" rx="2.697" ry="2.222"/>
</g>
<g>
	<ellipse fill="#929183" cx="346.849" cy="699.415" rx="2.697" ry="2.221"/>
</g>
<g>
	<circle fill="#929183" cx="171.714" cy="744.945" r="2.38"/>
</g>
<g>
	<circle fill="#929183" cx="171.714" cy="744.945" r="2.38"/>
</g>
<g>
	<circle fill="#929183" cx="113.646" cy="799.834" r="2.38"/>
</g>
<g>
	<circle fill="#929183" cx="225.233" cy="744.945" r="2.38"/>
</g>
<g>
	<ellipse fill="#929183" cx="56.534" cy="775.087" rx="2.38" ry="2.855"/>
</g>
<g>
	<ellipse fill="#929183" cx="298.78" cy="786.983" rx="2.38" ry="2.696"/>
</g>
<g>
	<ellipse fill="#929183" cx="349.07" cy="797.772" rx="2.221" ry="2.697"/>
</g>
<ellipse fill="#929183" cx="441.636" cy="692.593" rx="2.697" ry="2.222"/>
<ellipse fill="#929183" cx="726.873" cy="699.415" rx="2.697" ry="2.221"/>
<circle fill="#929183" cx="551.739" cy="744.944" r="2.38"/>
<circle fill="#929183" cx="551.739" cy="744.944" r="2.38"/>
<circle fill="#929183" cx="493.669" cy="799.834" r="2.379"/>
<circle fill="#929183" cx="605.257" cy="744.944" r="2.38"/>
<ellipse fill="#929183" cx="436.56" cy="775.087" rx="2.38" ry="2.855"/>
<ellipse fill="#929183" cx="678.804" cy="786.984" rx="2.379" ry="2.696"/>
<ellipse fill="#929183" cx="729.094" cy="797.772" rx="2.221" ry="2.697"/>
<g>
	<ellipse fill="#929183" cx="110.532" cy="991.173" rx="1.586" ry="2.855"/>
</g>
<g>
	<ellipse fill="#929183" cx="60.877" cy="1030.518" rx="2.697" ry="2.222"/>
</g>
<g>
	<circle fill="#929183" cx="262.828" cy="1010.686" r="2.38"/>
</g>
<g>
	<circle fill="#929183" cx="367.531" cy="991.174" r="2.38"/>
</g>
<ellipse fill="#929183" cx="490.557" cy="991.173" rx="1.586" ry="2.855"/>
<ellipse fill="#929183" cx="440.901" cy="1030.517" rx="2.697" ry="2.222"/>
<circle fill="#929183" cx="642.853" cy="1010.686" r="2.38"/>
<circle fill="#929183" cx="747.556" cy="991.173" r="2.379"/>
<ellipse fill="#929183" cx="17.15" cy="960.435" rx="2.698" ry="2.222"/>
<circle fill="#929183" cx="38.567" cy="914.27" r="2.38"/>
<ellipse fill="#929183" cx="16.784" cy="789.138" rx="2.698" ry="2.222"/>
<circle fill="#929183" cx="38.2" cy="742.974" r="2.38"/>
<ellipse fill="#929183" cx="19.005" cy="887.496" rx="2.221" ry="2.696"/>
<ellipse fill="#929183" cx="18.822" cy="720.615" rx="2.221" ry="2.695"/>
</svg>
