<?xml version="1.0" encoding="utf-8"?>
<!-- Generator: Adobe Illustrator 16.0.0, SVG Export Plug-In . SVG Version: 6.00 Build 0)  -->
<!DOCTYPE svg PUBLIC "-//W3C//DTD SVG 1.1//EN" "http://www.w3.org/Graphics/SVG/1.1/DTD/svg11.dtd">
<svg version="1.1" id="Layer_1" xmlns="http://www.w3.org/2000/svg" xmlns:xlink="http://www.w3.org/1999/xlink" x="0px" y="0px"
	 width="300px" height="300px" viewBox="0 0 300 300" enable-background="new 0 0 300 300" xml:space="preserve">
<g>
	<path fill-rule="evenodd" clip-rule="evenodd" fill="#FEFEFE" d="M43.869,232.987c0.204-0.372,0.407-0.743,0.611-1.114
		c1.39-1.045,2.78-2.091,4.169-3.136c36.584-34.247,73.786-67.866,109.494-102.961c17.775-17.493,36.087-35.962,35.792-64.124
		c-0.646-2.896-1.292-5.794-1.939-8.691c2.763-3.236,1.585-4.909-2.203-5.541c0.215-1.75,0.43-3.5,0.644-5.25
		c-1.348-3.156-2.695-6.31-4.042-9.466c-0.113-0.288-0.323-0.463-0.627-0.525c-0.801-1.732-1.602-3.464-2.402-5.197
		c-2.455-4.178-4.909-8.356-9.581-16.307c-2.569,17.581-4.532,31.012-6.494,44.444c-3.699,8.215-7.397,16.43-11.098,24.646
		c-8.34,11.474-16.682,22.947-25.023,34.421c-23.991,29.458-47.983,58.873-71.975,88.331c-2.334,2.742-4.668,5.484-6.995,8.228
		c-0.585,0.835-1.17,1.669-1.755,2.505c-1.713,1.881-3.426,3.764-5.139,5.645c-4.06,4.868-8.118,9.735-12.175,14.603
		c-2.21,2.59-4.42,5.18-6.629,7.771c-3.542,4.362-7.084,8.725-10.625,13.087c0.881,0.783,1.763,1.564,2.645,2.347
		c4.233-4.694,8.465-9.389,12.698-14.084c2.589-2.143,5.179-4.285,7.768-6.429c0.932-0.319,1.865-0.639,2.801-0.96
		c0.478-0.532,0.956-1.063,1.433-1.595C43.646,233.606,43.862,233.391,43.869,232.987z"/>
	<path fill-rule="evenodd" clip-rule="evenodd" fill="#FEFEFE" d="M138.884,224.462c1.041,1.843,2.081,3.685,3.122,5.526
		c2.368,2.58,4.734,5.16,7.704,8.396c3.722-5.343,6.878-9.875,10.037-14.405c2.411-2.988,4.823-5.978,7.235-8.966
		c2.66-2.661,5.32-5.321,7.98-7.982c2.313-1.727,4.626-3.452,7.243-5.405c-5.624-3.885-10.095-1.373-13.297,1.648
		c-5.601,5.284-11.321,11.042-9.283,20.086c-5.537-2.192-6.33,15.269-14.195,3.425c-3.238-4.757-6.477-9.513-9.715-14.27
		c-1.328-1.902-2.656-3.805-3.984-5.708c-3.057-5.691-8.012-8.112-14.274-8.28c-1.78-0.263-3.561-0.524-5.341-0.788
		c-1.909-0.144-3.819-0.288-8.64-0.651c7.067,4.264,11.615,7.008,16.163,9.751c2.797,2.842,5.594,5.684,8.393,8.528
		C131.649,218.399,135.266,221.431,138.884,224.462z"/>
	<path fill-rule="evenodd" clip-rule="evenodd" fill="#FEFEFE" d="M188.434,172.693c0.412,1.369,0.824,2.737,1.236,4.106
		c0.644,2.261,1.287,4.521,1.931,6.78c0.843,1.676,1.686,3.351,2.528,5.024c1.408,4.228,2.816,8.455,4.224,12.683
		c0.143,0.283,0.371,0.446,0.686,0.488c0.314,1.396,0.63,2.793,0.945,4.189c1.088,2.585,2.178,5.171,3.266,7.756
		c4.062,6.694,8.122,13.389,12.184,20.084c1.141,1.851,2.281,3.7,3.421,5.551c19.442,21.836,46.436,20.684,77.213,25.979
		c-6.134-3.995-7.614-4.959-9.095-5.922c-0.507-0.204-1.014-0.408-1.521-0.612c0,0,0.039,0.021,0.037,0.021
		c-3.421-1.892-6.844-3.784-10.266-5.677c-3.353-1.793-6.706-3.586-10.058-5.379c-7.559-5.376-15.116-10.753-22.674-16.13
		c-7.972-8.573-15.943-17.147-23.914-25.722c-6.464-11.494-12.929-22.988-19.392-34.482c-2.425-4.74-4.85-9.48-7.275-14.213
		c-2.634-4.912-5.268-9.836-7.9-14.772c-2.768-4.566-5.535-9.133-12.201-20.132c4.34,13.013,6.228,18.674,8.114,24.334
		c2.276,6.082,4.554,12.147,6.83,18.242C187.313,167.491,187.873,170.092,188.434,172.693z"/>
	<path fill-rule="evenodd" clip-rule="evenodd" fill="#FEFEFE" d="M14.53,257.46c-0.827-0.261-1.654-0.521-2.48-0.782
		c-0.784,2.223-1.568,4.444-2.352,6.666c0.789,0.243,1.577,0.486,2.366,0.729C12.886,261.868,13.708,259.664,14.53,257.46z"/>
	<path fill-rule="evenodd" clip-rule="evenodd" fill="#512610" d="M193.935,61.653c0.295,28.161-18.017,46.631-35.792,64.124
		c-35.708,35.095-72.909,68.714-109.493,102.961c-1.112-0.796-2.225-1.59-3.338-2.386c0.442-1.387,0.884-2.773,1.325-4.16
		c2.44-0.751,4.881-1.504,7.322-2.255c1.392-1.776,2.785-3.552,4.177-5.327c0.401-0.709,0.803-1.418,1.204-2.128
		c2.871-2.95,5.742-5.899,8.614-8.849c5.67-5.73,11.34-11.459,17.011-17.188c1.865-1.775,3.731-3.551,5.597-5.326
		c1.101-1.836,2.202-3.673,3.302-5.509c5.699-4.444,11.398-8.888,17.097-13.33c1.603-1.192,3.205-2.386,4.811-3.58
		c-1.285-1.171-2.452-2.233-3.62-3.298c1.1-0.749,2.199-1.5,3.298-2.25c6.541-3.473,13.082-6.962,20.147-10.73
		c-3.152,0-5.758,0-8.364,0c2.416-1.781,4.832-3.563,7.247-5.344c0.618-4.21,11.528-0.556,6.775-8.868
		c0.381-0.252,0.763-0.504,1.144-0.756c10.198,1.944,10.234-9.632,16.998-12.771c-0.68-0.885-1.354-1.763-1.522-1.982
		c1.485-2.363,2.716-4.319,3.945-6.274c2.257-0.503,4.513-1.006,5.218-1.163c2.497-3.406,4.188-5.71,5.959-8.126
		c-1.688-0.131-3.317-0.257-5.029-0.39c-0.062-5.467,11.183-3.819,6.661-11.471c1.074-1.117,2.147-2.234,3.221-3.35
		c1.125-0.669,2.249-1.338,3.372-2.008c1.736-3.623,3.472-7.244,5.207-10.867c0.634-1.475,1.269-2.95,2.151-5.003
		C189.659,63.565,191.798,62.609,193.935,61.653z"/>
	<path fill-rule="evenodd" clip-rule="evenodd" fill="#F1C428" d="M115.45,153.151c-1.1,0.75-2.199,1.501-3.299,2.25
		c-2.864,1.863-4.778,3.892-1.191,6.878c-5.698,4.442-11.397,8.886-17.097,13.331c-1.536,1.774-3.071,3.549-4.607,5.322
		c-2.544,1.126-5.088,2.253-8.145,3.606c1.672,0.827,2.762,1.366,3.852,1.905c-5.67,5.729-11.341,11.458-17.011,17.188
		c-3.111,1.128-6.46,4.135-8.759-1.114c23.992-29.458,47.983-58.873,71.975-88.331c1.839-0.823,5.467,3.466,5.685-1.989
		c0.726,0.001,1.452,0.002,2.177,0.002c0.334,2.156,0.668,4.311,1.002,6.467c-0.312,0.01-0.623,0.016-0.935,0.016
		c-3.85,1.995-7.699,3.989-10.621,5.502c1.191,2.895,2.089,5.076,2.987,7.256c-0.354,0.766-0.708,1.532-1.063,2.298
		c-5.374,5.394-10.748,10.787-16.123,16.182C114.669,150.996,115.06,152.074,115.45,153.151z M101.287,158.906
		c4.949-2.715,6.663-3.656,9.383-5.148c-1.97-1.123-3.89-2.57-4.161-2.312C105.173,152.725,104.272,154.455,101.287,158.906z"/>
	<path fill-rule="evenodd" clip-rule="evenodd" fill="#E5AF3A" d="M203.249,213.723c-1.088-2.587-2.178-5.173-3.265-7.758
		c6.188-3.891,12.389-2.718,18.593-0.051c7.971,8.574,15.942,17.148,23.914,25.723c-0.975,2.611-1.949,5.225-2.822,7.565
		c2.93,1.767,6.081,3.668,9.232,5.568c-0.062,0.898-0.122,1.796-0.184,2.693c-8.033-3.047-16.067-6.095-24.103-9.143
		c0.539-0.514,1.078-1.026,1.615-1.54c-1.069-0.649-2.138-1.3-3.207-1.949c-1.863-4.478-3.727-8.956-5.463-13.129
		c-2.021,0.24-3.857,0.458-5.878,0.697c1.552-2.761,2.678-4.767,3.805-6.772c0.841-1.49,5.972-3.023-0.045-4.441
		c-1.955-4.793-3.693-2.197-5.438,0.16C207.753,212.138,205.5,212.93,203.249,213.723z"/>
	<path fill-rule="evenodd" clip-rule="evenodd" fill="#512610" d="M223.023,234.832c1.069,0.649,2.138,1.3,3.207,1.949
		c-0.537,0.514-1.076,1.026-1.615,1.54c8.035,3.048,16.069,6.096,24.103,9.142c1.245,0.858,2.49,1.719,3.735,2.579
		c0.587,0.199,1.174,0.4,1.763,0.601c1.863,0.036,3.728,0.071,5.592,0.107l0.271,0.25c-0.738,0.636-1.477,1.272-2.99,2.576
		c9.808,1.812,19.104,3.528,28.402,5.245l-0.039-0.021c0.507,0.204,1.014,0.408,1.521,0.612c1.48,0.963,2.961,1.927,9.095,5.922
		c-30.777-5.295-57.771-4.143-77.213-25.979c1.082-1.395,2.163-2.789,3.245-4.185C222.42,235.092,222.728,234.979,223.023,234.832z"
		/>
	<path fill-rule="evenodd" clip-rule="evenodd" fill="#ECC140" d="M167.289,55.121c1.962-13.432,3.925-26.863,6.494-44.444
		c4.672,7.95,7.126,12.128,9.581,16.306c-3.777,3.264-0.731,5.959,0.731,8.787c0.057,0.35,0.105,0.701,0.142,1.052
		c-0.369,1.367-0.738,2.734-1.107,4.102c-1.833,1.548-3.802,3.097-0.005,4.65c0.036,0.648,0.074,1.296,0.111,1.945
		c-0.723,0.375-1.446,0.749-2.169,1.124c-0.872-1.77-2.198-3.465-2.502-5.327c-0.386-2.361,0.74-5.096-0.007-7.243
		c-1.298-3.729-4.757-3.701-6.419-0.832c-0.839,1.447,1.367,4.658,2.421,7.726c-1.902,2.424-8.384,5.522-2.123,8.924
		c4.026-1.512,6.32-2.374,8.613-3.235c-2.492,3.941-4.984,7.882-7.476,11.822C171.479,58.692,169.384,56.907,167.289,55.121z"/>
	<path fill-rule="evenodd" clip-rule="evenodd" fill="#F3C721" d="M167.289,55.121c2.095,1.786,4.189,3.571,6.285,5.356
		c-0.218,3.756-4.207,8.233,2.055,10.751l0.04,0.04c-2.515,2.499-5.03,4.997-7.546,7.495c-1.152,2.72-7.562,2.426-4.376,7.634
		c0.367,1.062,0.734,2.123,1.102,3.185c-3.582-0.003-7.165-0.006-10.748-0.01l-0.007-0.007c0.699-3.267,1.398-6.533,2.098-9.799
		C159.892,71.551,163.59,63.336,167.289,55.121z"/>
	<path fill-rule="evenodd" clip-rule="evenodd" fill="#DAA253" d="M218.577,205.914c-6.204-2.667-12.404-3.84-18.593,0.051
		c-0.316-1.396-0.632-2.793-0.946-4.189c7.522-0.097,11.452-2.598,6.741-10.472c-2.735-4.575-5.729-8.995-8.606-13.484
		c0.009-1.77,0.019-3.54,0.026-5.311c0.357-0.367,0.714-0.735,1.07-1.103c0.306,0.007,0.61,0.016,0.916,0.025
		C205.648,182.926,212.113,194.42,218.577,205.914z"/>
	<path fill-rule="evenodd" clip-rule="evenodd" fill="#ECC140" d="M154.101,89.573c3.583,0.003,7.166,0.006,10.749,0.01
		c0.37,0.363,0.74,0.727,1.109,1.09c-2.085,2.527-4.17,5.055-6.257,7.581c-3.604-2.378-7.456-7.14-11.647-2.622
		c-4.481,4.83-7.528,10.988-11.202,16.567c-0.217,5.456-3.846,1.167-5.685,1.989c8.341-11.474,16.683-22.947,25.023-34.421
		c-0.699,3.266-1.398,6.532-2.098,9.799c-0.068,0.13-0.137,0.261-0.205,0.393C153.959,89.83,154.03,89.701,154.101,89.573z"/>
	<path fill-rule="evenodd" clip-rule="evenodd" fill="#D3994D" d="M223.023,234.832c-0.296,0.147-0.604,0.26-0.926,0.338
		c-2.223-0.455-4.443-0.91-6.665-1.365c-4.062-6.695-8.122-13.39-12.184-20.083c2.251-0.792,4.504-1.584,6.757-2.376
		c1.109,0.375,2.217,0.75,3.326,1.126c0.719,1.052,1.438,2.104,2.156,3.156c-1.128,2.006-2.254,4.012-3.806,6.772
		c2.021-0.239,3.856-0.457,5.878-0.697C219.297,225.876,221.16,230.354,223.023,234.832z"/>
	<path fill-rule="evenodd" clip-rule="evenodd" fill="#F3C721" d="M248.901,244.771c-3.151-1.9-6.303-3.802-9.232-5.568
		c0.873-2.341,1.848-4.954,2.822-7.565c7.558,5.376,15.115,10.753,22.674,16.129c-1.108,1.088-2.215,2.176-3.322,3.264
		c-0.588-0.009-1.176-0.02-1.765-0.029c0,0-0.271-0.25-0.271-0.249c-1.825-1.236-3.65-2.472-6.389-4.324
		C253.529,244.695,252.72,242.418,248.901,244.771z"/>
	<path fill-rule="evenodd" clip-rule="evenodd" fill="#E5AF3A" d="M197.173,177.818c2.878,4.49,5.871,8.91,8.606,13.485
		c4.711,7.874,0.781,10.375-6.741,10.472c-0.314-0.042-0.543-0.205-0.686-0.488c0.984-4.443,1.967-8.886,2.976-13.323
		c-2.383,0.218-4.79,0.429-7.199,0.641c-0.843-1.674-1.686-3.349-2.528-5.024C193.458,181.659,195.316,179.738,197.173,177.818z"/>
	<path fill-rule="evenodd" clip-rule="evenodd" fill="#E7B762" d="M166.981,215.014c-2.412,2.988-4.824,5.978-7.236,8.969
		c-0.24-0.168-0.28-0.376-0.12-0.622c-2.038-9.044,3.683-14.802,9.283-20.086c3.202-3.021,7.673-5.533,13.297-1.648
		c-2.617,1.953-4.93,3.679-7.243,5.405C169.257,206.647,167.715,210.427,166.981,215.014z"/>
	<path fill-rule="evenodd" clip-rule="evenodd" fill="#ECC140" d="M184.01,142.446c2.633,4.936,5.267,9.86,7.9,14.772
		c-0.369,1.483-0.738,2.974-1.107,4.464c-1.093,1.075-2.185,2.149-3.278,3.225c-0.257-0.014-0.515-0.02-0.771-0.018
		c-2.276-6.095-4.554-12.16-6.829-18.241C181.285,145.249,182.647,143.847,184.01,142.446z"/>
	<path fill-rule="evenodd" clip-rule="evenodd" fill="#ECC140" d="M119.638,206.839c-4.548-2.743-9.096-5.487-16.163-9.751
		c4.821,0.363,6.731,0.508,8.641,0.651c0.911,1.248,1.822,2.496,2.732,3.745c0.87-0.986,1.739-1.971,2.608-2.957
		c6.262,0.168,11.217,2.589,14.274,8.28C127.699,206.818,123.669,206.828,119.638,206.839z"/>
	<path fill-rule="evenodd" clip-rule="evenodd" fill="#D3994D" d="M193.935,61.653c-2.137,0.957-4.275,1.912-5.355,2.396
		c-0.883,2.054-1.518,3.529-2.151,5.004c-0.702,0.02-1.404,0.04-2.105,0.06c-4.701-2.743-8.538-5.89-5.679-12.561
		c0.953,1.078,1.719,1.945,2.485,2.813c-0.018,0.644-0.034,1.288-0.051,1.933c0.461,0.46,0.923,0.92,1.384,1.38
		c0.409-0.01,0.818-0.021,1.227-0.03c0.851-0.055,1.699-0.108,2.546-0.212c-0.304-1.416-0.605-2.779-0.907-4.144l-0.018,0.023
		c0.412-0.37,0.823-0.741,1.235-1.111c1.059-1.049,2.118-2.099,3.177-3.149c0.759-0.364,1.517-0.728,2.273-1.093
		C192.643,55.858,193.289,58.756,193.935,61.653z"/>
	<path fill-rule="evenodd" clip-rule="evenodd" fill="#E5AF3A" d="M119.638,206.839c4.031-0.011,8.061-0.021,12.092-0.031
		c1.328,1.903,2.657,3.806,3.984,5.708c0.003,0.665,0.007,1.329,0.01,1.993c-2.565,0.286-5.13,0.571-7.696,0.856
		C125.232,212.522,122.436,209.681,119.638,206.839z"/>
	<path fill-rule="evenodd" clip-rule="evenodd" fill="#512610" d="M159.625,223.36c-0.16,0.246-0.12,0.454,0.12,0.621
		c-3.157,4.528-6.313,9.061-10.036,14.403c-2.97-3.236-5.336-5.816-7.702-8.391c1.142-1.065,2.283-2.137,3.423-3.209
		C153.295,238.629,154.088,221.168,159.625,223.36z"/>
	<path fill-rule="evenodd" clip-rule="evenodd" fill="#DAA253" d="M260.078,251c0.589,0.01,1.177,0.021,1.764,0.031
		c4.46,0.704,8.921,1.409,13.381,2.113c3.422,1.893,6.845,3.785,10.268,5.677c-9.298-1.717-18.595-3.434-28.402-5.245
		C258.602,252.272,259.34,251.636,260.078,251z"/>
	<path fill-rule="evenodd" clip-rule="evenodd" fill="#ECC140" d="M46.637,222.191c-0.441,1.387-0.883,2.773-1.325,4.16
		c-1.31,1.168-2.62,2.336-3.929,3.504c-0.859,0.938-1.718,1.876-2.582,2.82c1.207,1.034,2.094,1.795,2.982,2.557
		c-0.933,0.318-1.866,0.638-2.797,0.956c-1.953-0.896-3.905-1.794-5.858-2.69c4.059-4.867,8.118-9.734,12.177-14.603
		C45.749,219.994,46.193,221.093,46.637,222.191z"/>
	<path fill-rule="evenodd" clip-rule="evenodd" fill="#E7B762" d="M31.217,242.618c-4.233,4.695-8.465,9.39-12.698,14.084
		c-0.882-0.782-1.763-1.563-2.645-2.347c3.542-4.362,7.084-8.725,10.626-13.087C28.073,241.719,29.646,242.169,31.217,242.618z"/>
	<path fill-rule="evenodd" clip-rule="evenodd" fill="#E5AF3A" d="M187.524,164.907c1.094-1.075,2.186-2.149,3.278-3.224
		c-0.002,2.563-0.002,5.129-0.002,8.333c2.402-1.161,3.937-1.901,5.636-2.722c0.686,1.535,1.259,2.823,1.833,4.111
		c-0.356,0.367-0.713,0.735-1.07,1.103c-2.509,1.431-5.02,2.86-7.529,4.291c-0.412-1.369-0.824-2.737-1.236-4.106
		C188.131,170.098,187.828,167.502,187.524,164.907z"/>
	<path fill-rule="evenodd" clip-rule="evenodd" fill="#ECC140" d="M59.194,202.519c2.299,5.249,5.648,2.242,8.759,1.114
		c-2.872,2.949-5.743,5.898-8.614,8.849c-0.726-1.072-1.451-2.144-2.458-3.632c-1.29,1.509-2.171,2.54-3.052,3.571
		c-0.546-0.559-1.092-1.117-1.637-1.675C54.525,208.003,56.86,205.261,59.194,202.519z"/>
	<path fill-rule="evenodd" clip-rule="evenodd" fill="#E7B762" d="M145.43,226.785c-1.14,1.072-2.281,2.144-3.423,3.209
		c-1.042-1.848-2.083-3.689-3.124-5.532c-1.053-3.317-2.105-6.635-3.158-9.953c-0.003-0.664-0.007-1.328-0.01-1.993
		C138.954,217.272,142.192,222.028,145.43,226.785z"/>
	<path fill-rule="evenodd" clip-rule="evenodd" fill="#E7B762" d="M184.01,142.446c-1.362,1.4-2.725,2.802-4.086,4.203
		c-1.888-5.661-3.775-11.322-8.115-24.335C178.475,133.313,181.242,137.88,184.01,142.446z"/>
	<path fill-rule="evenodd" clip-rule="evenodd" fill="#DAA253" d="M31.217,242.618c-1.572-0.449-3.145-0.899-4.717-1.35
		c2.209-2.591,4.419-5.181,6.628-7.771c1.952,0.896,3.904,1.794,5.857,2.69C36.396,238.333,33.806,240.476,31.217,242.618z"/>
	<path fill-rule="evenodd" clip-rule="evenodd" fill="#894A13" d="M135.725,214.509c1.053,3.318,2.105,6.636,3.158,9.953
		c-3.617-3.031-7.234-6.063-10.853-9.096C130.595,215.08,133.16,214.795,135.725,214.509z"/>
	<path fill-rule="evenodd" clip-rule="evenodd" fill="#E7B762" d="M198.27,171.406c-0.574-1.288-1.147-2.576-1.833-4.111
		c-1.699,0.82-3.233,1.561-5.636,2.722c0-3.204,0-5.77,0.002-8.333c0.369-1.491,0.738-2.981,1.107-4.465
		c2.426,4.732,4.851,9.473,7.275,14.213C198.88,171.422,198.575,171.413,198.27,171.406z"/>
	<path fill-rule="evenodd" clip-rule="evenodd" fill="#E7B762" d="M194.129,188.604c2.409-0.212,4.816-0.423,7.199-0.641
		c-1.009,4.438-1.991,8.88-2.976,13.323C196.945,197.06,195.537,192.832,194.129,188.604z"/>
	<path fill-rule="evenodd" clip-rule="evenodd" fill="#E5AF3A" d="M46.637,222.191c-0.444-1.099-0.888-2.197-1.333-3.296
		c1.713-1.881,3.426-3.764,5.139-5.645c1.172,2.229,2.343,4.457,3.515,6.686C51.518,220.688,49.077,221.44,46.637,222.191z"/>
	<path fill-rule="evenodd" clip-rule="evenodd" fill="#DAA253" d="M183.236,47.518c-0.037-0.648-0.075-1.296-0.11-1.946
		c0.001-1.551,0.002-3.101,0.004-4.649c0.369-1.368,0.738-2.735,1.108-4.102c0.718-1.372,1.437-2.744,2.155-4.116
		c1.347,3.156,2.694,6.31,4.043,9.466c-4.71-1.228-5.141,2.502-6.273,5.415C183.854,47.563,183.545,47.54,183.236,47.518z"/>
	<path fill-rule="evenodd" clip-rule="evenodd" fill="#E7B762" d="M189.67,176.8c2.51-1.431,5.021-2.86,7.529-4.291
		c-0.008,1.771-0.018,3.541-0.026,5.311c-1.856,1.919-3.715,3.84-5.572,5.761C190.957,181.32,190.313,179.061,189.67,176.8z"/>
	<path fill-rule="evenodd" clip-rule="evenodd" fill="#ECC140" d="M275.223,253.145c-4.46-0.704-8.921-1.409-13.381-2.113
		c1.108-1.09,2.215-2.178,3.323-3.266C268.517,249.559,271.87,251.352,275.223,253.145z"/>
	<path fill-rule="evenodd" clip-rule="evenodd" fill="#D3994D" d="M184.162,47.586c1.134-2.914,1.564-6.644,6.274-5.416
		c-0.215,1.75-0.43,3.5-0.646,5.249c-1.835,0.769-3.67,1.539-5.505,2.308C184.245,49.014,184.204,48.3,184.162,47.586z"/>
	<path fill-rule="evenodd" clip-rule="evenodd" fill="#DAA253" d="M184.286,49.728c1.835-0.769,3.67-1.539,5.505-2.308
		c3.789,0.633,4.967,2.306,2.204,5.542c-0.757,0.365-1.515,0.729-2.273,1.093C187.91,52.613,186.098,51.17,184.286,49.728z"/>
	<path fill-rule="evenodd" clip-rule="evenodd" fill="#E7B762" d="M53.958,219.937c-1.172-2.229-2.343-4.457-3.515-6.686
		c0.585-0.836,1.17-1.67,1.751-2.505c0.542,0.558,1.088,1.116,1.635,1.674c1.436,0.729,2.871,1.459,4.306,2.189
		C56.743,216.385,55.351,218.16,53.958,219.937z"/>
	<path fill-rule="evenodd" clip-rule="evenodd" fill="#894A13" d="M166.981,215.014c0.733-4.587,2.275-8.366,7.98-7.982
		C172.302,209.692,169.642,212.353,166.981,215.014z"/>
	<path fill-rule="evenodd" clip-rule="evenodd" fill="#DAA253" d="M14.53,257.46c-0.822,2.204-1.644,4.408-2.466,6.612
		c-0.789-0.242-1.577-0.485-2.366-0.729c0.784-2.222,1.567-4.443,2.352-6.666C12.876,256.938,13.703,257.199,14.53,257.46z"/>
	<path fill-rule="evenodd" clip-rule="evenodd" fill="#894A13" d="M215.433,233.805c2.222,0.455,4.442,0.91,6.665,1.365
		c-1.081,1.396-2.162,2.79-3.244,4.185C217.714,237.505,216.573,235.655,215.433,233.805z"/>
	<path fill-rule="evenodd" clip-rule="evenodd" fill="#D3994D" d="M41.383,229.855c1.309-1.168,2.619-2.336,3.929-3.504
		c1.113,0.796,2.226,1.59,3.338,2.386c-1.39,1.045-2.78,2.091-4.17,3.137C43.447,231.201,42.415,230.528,41.383,229.855z"/>
	<path fill-rule="evenodd" clip-rule="evenodd" fill="#DAA253" d="M184.096,35.769c-1.463-2.827-4.509-5.523-0.731-8.787
		c0.801,1.734,1.602,3.466,2.402,5.199C185.209,33.377,184.652,34.573,184.096,35.769z"/>
	<path fill-rule="evenodd" clip-rule="evenodd" fill="#F3C721" d="M117.457,198.527c-0.869,0.986-1.738,1.971-2.608,2.957
		c-0.911-1.249-1.822-2.497-2.732-3.745C113.896,198.003,115.676,198.265,117.457,198.527z"/>
	<path fill-rule="evenodd" clip-rule="evenodd" fill="#894A13" d="M41.383,229.855c1.032,0.673,2.064,1.346,3.096,2.019
		c-0.203,0.37-0.406,0.741-0.607,1.11c-0.216,0.216-0.434,0.433-0.652,0.65c-0.478,0.531-0.956,1.063-1.435,1.596
		c-0.89-0.76-1.777-1.521-2.984-2.555C39.665,231.731,40.523,230.793,41.383,229.855z"/>
	<path fill-rule="evenodd" clip-rule="evenodd" fill="#E7B762" d="M187.524,164.907c0.304,2.595,0.606,5.19,0.909,7.786
		c-0.561-2.602-1.12-5.202-1.681-7.804C187.01,164.888,187.268,164.894,187.524,164.907z"/>
	<path fill-rule="evenodd" clip-rule="evenodd" fill="#D3994D" d="M184.096,35.769c0.557-1.196,1.113-2.392,1.671-3.588
		c0.304,0.061,0.514,0.236,0.627,0.524c-0.719,1.372-1.438,2.744-2.156,4.116C184.201,36.47,184.152,36.119,184.096,35.769z"/>
	<path fill-rule="evenodd" clip-rule="evenodd" fill="#D3994D" d="M43.22,233.635c0.218-0.218,0.436-0.435,0.652-0.65
		C43.862,233.391,43.646,233.606,43.22,233.635z"/>
	<path fill-rule="evenodd" clip-rule="evenodd" fill="#DAA253" d="M286.972,259.412c-0.507-0.204-1.014-0.408-1.521-0.612
		C285.958,259.004,286.465,259.208,286.972,259.412z"/>
	<path fill-rule="evenodd" clip-rule="evenodd" fill="#E5AF3A" d="M184.286,49.728c1.812,1.442,3.624,2.885,5.436,4.328
		c-1.059,1.05-2.118,2.1-3.179,3.15c-0.001,0-0.079-0.109-0.079-0.109c-0.367,0.029-0.733,0.058-1.1,0.087
		c-0.018,0.377-0.035,0.754-0.055,1.132l0.018-0.023c-0.35,0.008-0.699,0.029-1.046,0.063c-1.052,0.336-2.102,0.673-3.152,1.01
		c-0.767-0.868-1.532-1.735-2.485-2.813c-2.859,6.67,0.978,9.818,5.678,12.561c-4.256,2.678-5.671,6.17-3.101,10.806
		c-1.123,0.669-2.247,1.338-3.372,2.008c-0.46-1.578-0.921-3.156-1.439-4.933c-1.473,3.099-2.691,5.662-3.911,8.224
		c-2.179,1.818-4.358,3.636-6.539,5.455c-0.369-0.363-0.739-0.727-1.109-1.09c-0.368-1.062-0.735-2.124-1.102-3.186
		c1.459-2.544,2.917-5.088,4.375-7.633c2.516-2.498,5.031-4.996,7.546-7.495c0.065-0.142,0.13-0.283,0.195-0.425
		c-0.079,0.128-0.157,0.257-0.235,0.385c-6.262-2.518-2.272-6.995-2.055-10.751c2.492-3.941,4.984-7.882,7.477-11.823l0.017-0.013
		c0.723-0.375,1.446-0.749,2.169-1.124c0.309,0.022,0.618,0.045,0.927,0.067C184.204,48.3,184.245,49.014,184.286,49.728z"/>
	<path fill-rule="evenodd" clip-rule="evenodd" fill="#D3994D" d="M139.097,118.683c0.312,0,0.624-0.005,0.936-0.016
		c1.376,0.345,2.752,0.691,4.128,1.038c1.78,1.604,3.561,3.209,7.478,6.74c-2.219-5.234-3.142-7.41-4.064-9.586
		c2.909-4.385,5.819-8.77,8.729-13.156c0.694-0.044,1.388-0.088,2.082-0.132c1.145,0.952,2.288,1.903,3.433,2.855
		c-1.229,1.955-2.46,3.911-3.945,6.274c0.168,0.219,0.843,1.098,1.522,1.982c-6.764,3.139-6.8,14.715-16.998,12.771
		C141.298,124.53,140.198,121.607,139.097,118.683z"/>
	<path fill-rule="evenodd" clip-rule="evenodd" fill="#DAA253" d="M161.819,106.426c-1.145-0.952-2.288-1.903-3.433-2.855
		c0.048-0.33,0.089-0.66,0.123-0.99c0.325-0.357,0.65-0.713,0.977-1.071l0.09-0.105c0.108-0.105,0.319-0.226,0.307-0.313
		c-0.039-0.267-0.164-0.52-0.256-0.779c0.026-0.686,0.052-1.372,0.077-2.058c2.085-2.527,4.17-5.055,6.255-7.582
		c2.181-1.818,4.36-3.636,6.539-5.455c0.711,0.02,1.42,0.04,2.13,0.059c4.521,7.651-6.723,6.004-6.661,11.471
		c1.712,0.133,3.341,0.259,5.029,0.39c-1.771,2.416-3.462,4.72-5.959,8.126C166.332,105.42,164.076,105.923,161.819,106.426z"/>
	<path fill-rule="evenodd" clip-rule="evenodd" fill="#E5AF3A" d="M114.279,149.92c5.375-5.395,10.749-10.788,16.123-16.182
		c1.359,1.113,2.719,2.226,4.078,3.339c-2.415,1.781-4.831,3.563-7.247,5.343C122.915,144.919,118.596,147.42,114.279,149.92z"/>
	<path fill-rule="evenodd" clip-rule="evenodd" fill="#ECC140" d="M139.097,118.683c1.101,2.924,2.201,5.847,3.301,8.77
		c-0.381,0.252-0.762,0.504-1.142,0.756c-3.263,1.078-6.528,2.154-9.793,3.231c-0.898-2.18-1.796-4.361-2.987-7.256
		C131.398,122.671,135.247,120.678,139.097,118.683z"/>
	<path fill-rule="evenodd" clip-rule="evenodd" fill="#DAA253" d="M114.279,149.92c4.317-2.5,8.636-5.001,12.954-7.5
		c2.606,0.001,5.212,0.001,8.364,0.001c-7.065,3.768-13.606,7.257-20.147,10.73C115.06,152.074,114.669,150.996,114.279,149.92z"/>
	<path fill-rule="evenodd" clip-rule="evenodd" fill="#D3994D" d="M131.464,131.44c3.265-1.078,6.53-2.154,9.793-3.231
		c4.75,8.313-6.159,4.658-6.777,8.868c-1.359-1.113-2.719-2.226-4.078-3.339C130.755,132.973,131.109,132.207,131.464,131.44z"/>
	<path fill-rule="evenodd" clip-rule="evenodd" fill="#894A13" d="M181.221,79.919c-2.57-4.636-1.155-8.128,3.101-10.806
		c0.702-0.02,1.404-0.04,2.106-0.06C184.692,72.675,182.957,76.296,181.221,79.919z"/>
	<path fill-rule="evenodd" clip-rule="evenodd" fill="#894A13" d="M110.96,162.279c-3.587-2.986-1.673-5.015,1.191-6.878
		c1.168,1.064,2.335,2.127,3.62,3.298C114.165,159.894,112.563,161.087,110.96,162.279z"/>
	<path fill-rule="evenodd" clip-rule="evenodd" fill="#D3994D" d="M84.963,186.444c-1.09-0.539-2.18-1.078-3.852-1.905
		c3.056-1.354,5.6-2.48,8.146-3.605c0.435,0.063,0.869,0.123,1.303,0.185C88.695,182.894,86.829,184.669,84.963,186.444z"/>
	<path fill-rule="evenodd" clip-rule="evenodd" fill="#894A13" d="M174.628,85.277c-0.71-0.019-1.419-0.039-2.13-0.059
		c1.22-2.562,2.438-5.125,3.911-8.224c0.519,1.777,0.979,3.355,1.439,4.933C176.775,83.043,175.702,84.16,174.628,85.277z"/>
	<path fill-rule="evenodd" clip-rule="evenodd" fill="#E5AF3A" d="M58.135,214.609c-1.435-0.73-2.87-1.461-4.306-2.189
		c0.88-1.03,1.762-2.062,3.052-3.57c1.006,1.488,1.732,2.56,2.458,3.632C58.938,213.191,58.537,213.9,58.135,214.609z"/>
	<path fill-rule="evenodd" clip-rule="evenodd" fill="#DAA253" d="M90.561,181.118c-0.434-0.062-0.868-0.122-1.303-0.185
		c1.534-1.774,3.07-3.549,4.605-5.323C92.763,177.445,91.662,179.282,90.561,181.118z"/>
	<path fill-rule="evenodd" clip-rule="evenodd" fill="#F3C721" d="M158.51,102.58c-0.034,0.33-0.075,0.661-0.123,0.99
		c-0.694,0.044-1.388,0.088-2.082,0.131c-10.307-6.409-9.715,9.329-17.275,8.499c-0.725,0-1.451-0.001-2.177-0.002
		c3.673-5.579,6.721-11.737,11.202-16.567c4.191-4.518,8.044,0.244,11.647,2.622c-0.023,0.687-0.049,1.373-0.076,2.059
		c-0.017,0.363-0.033,0.727-0.05,1.091l-0.09,0.105C159.161,101.866,158.835,102.222,158.51,102.58z"/>
	<path fill-rule="evenodd" clip-rule="evenodd" fill="#ECC140" d="M139.03,112.2c7.56,0.83,6.968-14.908,17.275-8.499
		c-2.91,4.387-5.82,8.772-8.729,13.157c-1.138,0.948-2.276,1.897-3.414,2.846c-1.376-0.346-2.752-0.692-4.128-1.038
		C139.698,116.511,139.364,114.356,139.03,112.2z"/>
	<path fill-rule="evenodd" clip-rule="evenodd" fill="#ECC140" d="M101.287,158.906c2.985-4.451,3.886-6.182,5.223-7.46
		c0.271-0.259,2.19,1.188,4.161,2.312C107.95,155.25,106.236,156.191,101.287,158.906z"/>
	<path fill-rule="evenodd" clip-rule="evenodd" fill="#ECC140" d="M248.901,244.771c3.818-2.353,4.628-0.075,4.518,1.656
		c2.738,1.853,4.563,3.088,6.389,4.324c-1.864-0.037-3.729-0.072-5.592-0.108c-0.589-0.2-1.176-0.401-1.763-0.601
		c-1.245-0.86-2.49-1.721-3.735-2.579C248.779,246.566,248.84,245.669,248.901,244.771z"/>
	<path fill-rule="evenodd" clip-rule="evenodd" fill="#E7B762" d="M215.488,215.628c-0.719-1.053-1.438-2.104-2.156-3.157
		c0.704-0.429,1.406-0.857,2.11-1.284C221.459,212.604,216.328,214.138,215.488,215.628z"/>
	<path fill-rule="evenodd" clip-rule="evenodd" fill="#F3C721" d="M215.442,211.187c-0.704,0.427-1.406,0.855-2.11,1.284
		c-1.109-0.375-2.217-0.75-3.326-1.125C211.749,208.989,213.487,206.394,215.442,211.187z"/>
	<path fill-rule="evenodd" clip-rule="evenodd" fill="#DAA253" d="M252.453,250.042c0.587,0.199,1.174,0.4,1.763,0.601
		C253.627,250.442,253.04,250.241,252.453,250.042z"/>
	<path fill-rule="evenodd" clip-rule="evenodd" fill="#F3C721" d="M181.051,48.654c-2.293,0.862-4.587,1.724-8.613,3.235
		c-6.261-3.402,0.221-6.5,2.123-8.924c-1.054-3.067-3.26-6.279-2.421-7.726c1.662-2.869,5.121-2.897,6.419,0.832
		c0.747,2.147-0.379,4.882,0.007,7.243c0.304,1.862,1.63,3.558,2.502,5.327L181.051,48.654z"/>
	<path fill-rule="evenodd" clip-rule="evenodd" fill="#D3994D" d="M183.13,40.923c-0.002,1.549-0.003,3.099-0.004,4.649
		C179.328,44.02,181.297,42.471,183.13,40.923z"/>
	<path fill-rule="evenodd" clip-rule="evenodd" fill="#ECC140" d="M168.123,78.764c-1.458,2.544-2.916,5.088-4.375,7.633
		C160.562,81.19,166.971,81.483,168.123,78.764z"/>
	<path fill-rule="evenodd" clip-rule="evenodd" fill="#F3C721" d="M154.101,89.573c-0.07,0.128-0.142,0.257-0.212,0.385
		c0.068-0.132,0.137-0.262,0.205-0.393L154.101,89.573z"/>
	<path fill-rule="evenodd" clip-rule="evenodd" fill="#E7B762" d="M181.129,59.366c1.051-0.337,2.101-0.674,3.152-1.01
		c-0.198,1.431-0.395,2.862-0.593,4.293c-0.408,0.009-0.817,0.02-1.23,0.03c-0.462-0.46-0.921-0.92-1.38-1.38
		C181.095,60.653,181.111,60.009,181.129,59.366z"/>
	<path fill-rule="evenodd" clip-rule="evenodd" fill="#894A13" d="M183.688,62.648c0.198-1.431,0.395-2.862,0.593-4.293
		c0.347-0.034,0.696-0.055,1.046-0.063c0.302,1.365,0.604,2.728,0.907,4.144C185.388,62.54,184.539,62.594,183.688,62.648z"/>
	<path fill-rule="evenodd" clip-rule="evenodd" fill="#894A13" d="M181.078,61.298c0.459,0.46,0.918,0.92,1.38,1.38
		C182.001,62.218,181.539,61.758,181.078,61.298z"/>
	<path fill-rule="evenodd" clip-rule="evenodd" fill="#894A13" d="M185.31,58.315c0.02-0.378,0.037-0.755,0.055-1.132
		c0.366-0.028,0.732-0.058,1.1-0.087c0,0,0.078,0.109,0.079,0.109C186.133,57.575,185.722,57.945,185.31,58.315z"/>
	<path fill-rule="evenodd" clip-rule="evenodd" fill="#F3C721" d="M175.629,71.229c0.078-0.128,0.156-0.257,0.235-0.385
		c-0.065,0.142-0.13,0.283-0.195,0.425L175.629,71.229z"/>
	<path fill-rule="evenodd" clip-rule="evenodd" fill="#D3994D" d="M186.464,57.096c-0.367,0.029-0.733,0.059-1.1,0.087
		C185.73,57.154,186.097,57.125,186.464,57.096z"/>
	<path fill-rule="evenodd" clip-rule="evenodd" fill="#512610" d="M144.162,119.705c1.138-0.949,2.276-1.898,3.414-2.846
		c0.923,2.177,1.846,4.353,4.064,9.586C147.722,122.914,145.942,121.309,144.162,119.705z"/>
	<path fill-rule="evenodd" clip-rule="evenodd" fill="#ECC140" d="M158.51,102.58c0.325-0.358,0.651-0.714,0.977-1.071
		C159.16,101.867,158.835,102.223,158.51,102.58z"/>
	<path fill-rule="evenodd" clip-rule="evenodd" fill="#ECC140" d="M159.576,101.404c0.017-0.364,0.033-0.729,0.05-1.091
		c0.093,0.259,0.218,0.512,0.257,0.779C159.896,101.178,159.685,101.298,159.576,101.404z"/>
</g>
</svg>
