<?xml version="1.0" encoding="utf-8"?>
<!-- Generator: Adobe Illustrator 16.0.0, SVG Export Plug-In . SVG Version: 6.00 Build 0)  -->
<!DOCTYPE svg PUBLIC "-//W3C//DTD SVG 1.1//EN" "http://www.w3.org/Graphics/SVG/1.1/DTD/svg11.dtd">
<svg version="1.1" id="Layer_1" xmlns="http://www.w3.org/2000/svg" xmlns:xlink="http://www.w3.org/1999/xlink" x="0px" y="0px"
	 width="300px" height="300px" viewBox="0 0 300 300" enable-background="new 0 0 300 300" xml:space="preserve">
<g>
	<path d="M279.287,85.713c24.34,46.461,18.73,112.261-14.449,152.83c-37.068,47.905-96.421,65.746-153.943,51.129
		c-45.406-11.448-89.365-54.739-100.036-100.589C-4.702,129.785,15.583,70.987,64.211,34.029
		C103.282,4.02,165.47-3.484,210.373,19.024C238.664,30.75,265.894,58.036,279.287,85.713L279.287,85.713z"/>
	<path fill="#EA5959" d="M273.174,94.049c21.229,44.126,13.228,105.147-18.896,141.715c-33.512,38.568-79.582,55.856-130.601,46.681
		c-30.344-7.667-60.688-21.117-80.027-49.457C11.972,195.307,6.248,131.729,29.756,88.493c25.621-48.906,76.248-76.694,130.6-73.36
		c33.065,3.335,61.966,16.673,86.696,40.014C257.668,67.319,266.449,80.268,273.174,94.049L273.174,94.049z"/>
	<path d="M160.915,33.471c0.945,4.448,5.946,9.337,1.666,13.896c-1.612,2.445-2.723,5.057-2.222,8.336
		c7.502,5.17,9.447-9.613,18.339-4.445c2.056-1.778,4.111-3.501,7.223-2.779c-0.669,8.558,8.893,4.056,13.338,6.113
		c4.333-0.889,11.839,2.445,12.227-4.445c0.889,0.279,1.725,0.724,2.78,0.556c0.5,2.333-1.724,4.78,1.666,5.557
		c3.834-0.945,8.781,2.334,9.447-2.78c1.224-0.279,2.391,0.667,2.782,1.112l-1.111,1.111c3.167,3.059,6.336,1.111,10.558,1.667
		c2.612-0.888-0.723-5.668,3.335-4.447c1.166,2.056-0.221,5.113,2.223,6.668c-0.667,0.724-1.667,0.724-2.223,1.668
		c0.056,2.224,2.835,2.501,4.446,3.335h3.335c-0.167,0.5,0.279,0.778,0.556,1.111c-9.613,3.502-25.676-3.778-28.896,10.559
		c-2.28-0.721-3.392,2.058-4.447,3.335c-2.112-0.335-3.444-2.445-5.558-2.779c-0.389,9.225,4.281,17.729,8.892,25.564
		c-1.222,1.5-2.722,2.445-4.445,2.779c-5.78-7.725-8.061-16.896-11.671-25.564c-2.666,1.778,0.443,4.833-0.557,7.78
		c0.448,1.889-0.554,2.723-2.22,2.779l-10.56-2.223c-5.392,2.889-7.339,13.004-15.006,10.56c-0.946,0.555-1.388,2.279-2.779,1.667
		l-0.557-0.557c-3.779,1.503-7.779,4.002-12.226,2.224c-2.278,0.556-5.28-0.5-6.668,2.222c-0.947,5.227-0.333,11.061-1.668,16.119
		c-2.611-0.723-5.225,0.889-5.559,3.333c-0.444,3.892,0.723,7.06,1.112,10.561l4.444-1.111c2.725,5.5,8.392,9.78,11.673,15.003
		c3.61,4.503,9.391,9.059,9.447,15.56c-1.334,0.334-2.224,1.835-3.335,2.782c-0.112,4.667,5.058,7.167,6.668,11.114
		c5.001,5.554,6.835,12.391,12.226,17.783c-2.056,14.171,5.946,24.175,3.891,38.344c-1.223,10.451,7.615,16.786,10.56,25.566v7.223
		c-10.282,5.727-18.838-2.665-26.676-7.779c-6.337-4.724-3-11.392-3.891-18.338c-4.333-12.78-7.058-26.286-10.559-39.457
		c-3.613-6.391-12.003-10.893-14.45-17.784c-5.893-6.558-10.337-16.618-19.452-18.895c-2.111,0.669-0.335,2.889-1.667,3.889
		c-6.669,12.84-11.672,26.344-15.006,40.569c-4.891,8.561-8.167,17.784-12.225,26.676c-5.389,1.335-12.115-0.442-17.228,1.669
		c0.389,5.001,4.056,10.002,1.111,15.005c-5.169-0.388-11.781,5.948-15.561-1.112c-7.336-3.111-6.28-12.616-9.448-18.895
		c1.89-8.616,9.615-14.839,14.45-22.23c3.502-2.221,8.558-1.943,10.56-6.669c3.724-19.783,9.892-38.514,16.117-57.241
		c0.445-5.725-5.724-10.727-1.111-16.117c-0.669-0.945-1.946-0.445-2.78-1.112c4.834-17.673,8.781-35.623,9.448-55.019
		c5.725-7.67,10.949-16.507,18.896-22.231c0.946-0.167,2.222,0.444,2.78-0.556c-0.89-9.56,0.11-20.729,10.002-25.565
		C144.352,20.134,156.745,23.747,160.915,33.471L160.915,33.471z"/>
	<path fill="#EA5959" d="M178.698,69.041c-3.112,6.446-13.341,0.611-16.673,8.891c-2.112-0.334-4.559-1-5.559-2.778l8.893-7.225
		C170.138,67.484,174.251,68.652,178.698,69.041L178.698,69.041z"/>
</g>
</svg>
