<?xml version="1.0" encoding="utf-8"?>
<!-- Generator: Adobe Illustrator 16.0.0, SVG Export Plug-In . SVG Version: 6.00 Build 0)  -->
<!DOCTYPE svg PUBLIC "-//W3C//DTD SVG 1.1//EN" "http://www.w3.org/Graphics/SVG/1.1/DTD/svg11.dtd">
<svg version="1.1" id="Layer_1" xmlns="http://www.w3.org/2000/svg" xmlns:xlink="http://www.w3.org/1999/xlink" x="0px" y="0px"
	 width="300px" height="300px" viewBox="0 0 300 300" enable-background="new 0 0 300 300" xml:space="preserve">
<g>
	<g>
		
			<radialGradient id="SVGID_1_" cx="145.6006" cy="120.3521" r="209.0103" gradientTransform="matrix(1 0 0 -1 8.3398 275.04)" gradientUnits="userSpaceOnUse">
			<stop  offset="0" style="stop-color:#FFFFFF"/>
			<stop  offset="0.3003" style="stop-color:#FDFEFE"/>
			<stop  offset="0.4487" style="stop-color:#F5F9FB"/>
			<stop  offset="0.5637" style="stop-color:#E8F2F6"/>
			<stop  offset="0.6617" style="stop-color:#D5E7EF"/>
			<stop  offset="0.7488" style="stop-color:#BDD9E5"/>
			<stop  offset="0.8282" style="stop-color:#9FC8DA"/>
			<stop  offset="0.9016" style="stop-color:#7CB3CC"/>
			<stop  offset="0.9686" style="stop-color:#549CBC"/>
			<stop  offset="1" style="stop-color:#3E90B4"/>
		</radialGradient>
		<circle fill="url(#SVGID_1_)" cx="150.002" cy="150" r="132.728"/>
		<path fill="#414042" d="M245.839,114.982c-14.315,3.277-30.014,6.27-43.857,13.251l-6.036,56.997
			c13.263,6.834,25.45,14.557,40.386,20.005c11.405-11.523,22.231-24.436,29.822-45.108
			C261.063,144.942,255.16,129.817,245.839,114.982z"/>
		<path fill="#414042" d="M153.744,95.121l-0.079-45.778c-16.98-3.642-34.352-5.236-52.091-4.909
			C87.023,59.375,75.994,73.736,69.866,87.087l31.078,30.903C118.376,109.361,135.663,101.749,153.744,95.121z"/>
		<path fill="#414042" d="M96.29,176.549c16.152,11.105,32.376,21.45,48.316,34.729c-2.818,13.998-5.675,27.965-9.437,41.146
			c-17.951,0.66-35.611-0.523-52.468-6.798c-10.11-12.743-17.792-27.598-22.647-44.919L96.29,176.549z"/>
		<path fill="#414042" d="M196.771,36.548l44.468,33.553l17.507,3.779c-17.974-25.107-42.87-42.244-67.921-50.209L196.771,36.548z"
			/>
		<path fill="#414042" d="M224.44,249.779l-49.638,22.644c-2.711,3.446-4.815,6.655-6.793,9.818
			c27.331-4.567,50.628-15.556,70.208-32.462C233.735,249.532,229.272,249.236,224.44,249.779z"/>
		<path fill="#414042" d="M26.769,100.898c2.569,2.598,4.355,8.518,6.107,12.235c-5.503,18.34-7.274,37.468-5.285,57.373
			c-2.647,2.53-4.815,5.945-6.804,9.689C14.807,155.753,16.239,122.607,26.769,100.898z"/>
		<g>
			
				<radialGradient id="SVGID_2_" cx="140.6436" cy="122.1665" r="55.7871" gradientTransform="matrix(1 0 0 -1 8.3398 275.04)" gradientUnits="userSpaceOnUse">
				<stop  offset="0" style="stop-color:#FFFFFF"/>
				<stop  offset="0.4589" style="stop-color:#FDFDFD"/>
				<stop  offset="0.6855" style="stop-color:#F5F6F7"/>
				<stop  offset="0.8607" style="stop-color:#E8EBED"/>
				<stop  offset="1" style="stop-color:#D7DCE0"/>
			</radialGradient>
			<path fill="url(#SVGID_2_)" d="M202.519,127.474l-0.024-0.018l-0.045-0.038l-0.182-0.136l-0.36-0.27l-0.706-0.532
				c-0.467-0.349-0.925-0.69-1.361-1.026c-0.881-0.665-1.711-1.28-2.48-1.866c-1.548-1.162-2.869-2.15-3.923-2.94
				c-7.801-5.822-14.017-10.265-20.055-14.268c-6.06-3.945-11.859-7.656-19.257-11.076c7.121,3.945,12.617,8.001,18.483,12.197
				c5.837,4.232,11.939,8.796,19.725,14.631c1.054,0.789,2.371,1.777,3.912,2.936c0.77,0.582,1.602,1.205,2.481,1.867
				c0.439,0.333,0.894,0.673,1.36,1.026l0.704,0.533l0.214,0.161c-0.508,4.796-1.111,10.469-1.772,16.689
				c-0.676,6.394-1.413,13.366-2.178,20.544c-0.379,3.587-0.763,7.225-1.15,10.869l-0.576,5.466l-0.258,2.433l-0.029,0.017
				l-0.587,0.333l-1.181,0.679c-12.574,7.189-25.061,13.157-34.436,17.168c-4.686,2.021-8.587,3.572-11.305,4.636
				c-1.154,0.44-2.096,0.805-2.798,1.074c-0.097-0.066-0.182-0.127-0.252-0.173c-0.165-0.114-0.248-0.171-0.248-0.171
				s-21.787-14.908-45.75-31.304l-1.122-0.773l-0.157-0.109l-0.012-0.255l-0.137-2.722c-0.051-1.822-0.121-3.645-0.121-5.466
				c-0.043-3.646,0.033-7.292,0.203-10.879c0.317-7.179,1.027-14.131,1.846-20.491c0.837-6.36,1.799-12.117,2.676-16.933l0.117-0.65
				l0.13-0.053c0.537-0.234,1.056-0.46,1.563-0.678c1.008-0.441,1.962-0.846,2.847-1.234c1.774-0.77,3.286-1.427,4.496-1.95
				c17.857-7.748,27.863-12.434,42.549-19.438c-15.156,5.92-25.416,10.017-43.289,17.74c-1.208,0.52-2.723,1.175-4.492,1.945
				c-0.889,0.385-1.839,0.794-2.849,1.233c-0.508,0.216-1.027,0.444-1.562,0.676l-0.404,0.174l-0.104,0.047l-0.05,0.02l-0.025,0.009
				c-1.097,1.368-0.308,0.397-0.553,0.708l-0.038,0.223l-0.164,0.893c-0.889,4.836-1.853,10.627-2.698,17.027
				c-0.825,6.399-1.54,13.407-1.858,20.648c-0.175,3.618-0.252,7.298-0.207,10.979c0,1.845,0.072,3.688,0.128,5.522l0.135,2.75
				l0.033,0.687c-0.357-0.623,0.487,0.898,0.415,0.749l0.036,0.029l0.071,0.047l0.138,0.094l0.283,0.193l1.126,0.769
				c23.966,16.391,45.757,31.292,45.757,31.292s0.083,0.063,0.25,0.174c0.081,0.056,0.183,0.125,0.306,0.214
				c0.06,0.038,0.127,0.087,0.199,0.13l0.107,0.08l0.028,0.017c0.382,0.044-0.84-0.099,0.857,0.107h0.004l0.019-0.008l0.067-0.027
				c0.73-0.279,1.799-0.687,3.172-1.213c2.733-1.07,6.655-2.629,11.364-4.653c9.432-4.035,21.988-10.027,34.625-17.259l1.188-0.677
				l0.594-0.343l0.297-0.172l0.073-0.039l0.037-0.024c0.213-0.322-0.427,0.699,0.493-0.733l0.017-0.17l0.288-2.721l0.576-5.469
				c0.387-3.647,0.773-7.282,1.154-10.874c0.76-7.174,1.5-14.145,2.175-20.542c0.676-6.396,1.293-12.218,1.81-17.097l0.015-0.112
				C202.168,126.645,202.688,127.854,202.519,127.474z"/>
			
				<radialGradient id="SVGID_3_" cx="138.2754" cy="238.0977" r="36.8111" gradientTransform="matrix(1 0 0 -1 8.3398 275.04)" gradientUnits="userSpaceOnUse">
				<stop  offset="0" style="stop-color:#FFFFFF"/>
				<stop  offset="0.4589" style="stop-color:#FDFDFD"/>
				<stop  offset="0.6855" style="stop-color:#F5F6F7"/>
				<stop  offset="0.8607" style="stop-color:#E8EBED"/>
				<stop  offset="1" style="stop-color:#D7DCE0"/>
			</radialGradient>
			<path fill="url(#SVGID_3_)" d="M99.388,40.585c0.215,0.71,0.442,1.445,0.687,2.218c0.125,0.385,0.252,0.78,0.384,1.184
				l0.198,0.614l0.026,0.076l0.014,0.041l0.002,0.003c-0.823-0.562,1.124,0.773,0.925,0.63h0.01h0.019l0.165-0.003l0.332-0.014
				c3.847-0.253,15.472-0.316,26.063,0.944c10.594,1.154,20.13,3.013,20.13,2.999c0,0,0.599,0.108,1.657,0.305
				c0.527,0.095,1.17,0.224,1.915,0.367c0.37,0.069,0.768,0.144,1.191,0.228l0.313,0.058l0.041,0.008l0.023,0.005
				c-0.564,0.09,0.777-0.12,0.639-0.103l0.012-0.003l0.068-0.04l0.146-0.081c0.197-0.106,0.397-0.215,0.602-0.323
				c3.262-1.803,7.838-3.975,12.841-5.733c9.976-3.659,21.518-5.366,25.336-5.824c0.888-0.106,1.718-0.208,2.522-0.313l0.293-0.036
				l0.073-0.012l0.023-0.002c-0.163,0.269,1.397-2.324,0.737-1.229l-0.004-0.002v-0.01l-0.016-0.037l-0.057-0.135l-0.228-0.542
				c-0.149-0.353-0.296-0.704-0.446-1.042c-0.587-1.366-1.147-2.615-1.711-3.822c-1.131-2.417-2.271-4.67-3.656-7.342
				c0.831,2.892,1.555,5.313,2.396,7.844c0.42,1.268,0.866,2.559,1.381,3.95c0.087,0.23,0.17,0.462,0.256,0.699
				c-0.577,0.06-1.171,0.127-1.794,0.197c-3.862,0.45-15.563,2.171-25.73,5.907c-5.093,1.791-9.771,4.019-13.107,5.86
				c-0.184,0.096-0.361,0.2-0.541,0.293l-0.059-0.01c-0.421-0.081-0.821-0.157-1.195-0.228c-0.746-0.143-1.39-0.27-1.921-0.367
				c-1.065-0.197-1.664-0.307-1.664-0.307c0,0.017-9.578-1.86-20.261-3.028c-10.537-1.256-22.136-1.21-26.19-0.951l-0.026-0.072
				c-0.137-0.402-0.273-0.793-0.407-1.176c-0.265-0.762-0.525-1.494-0.779-2.188c-0.512-1.394-0.999-2.675-1.494-3.91
				c-0.987-2.478-2.002-4.791-3.23-7.541c0.668,2.933,1.249,5.391,1.942,7.966C98.583,37.849,98.956,39.165,99.388,40.585z"/>
			
				<radialGradient id="SVGID_4_" cx="39.5771" cy="131.1431" r="43.0648" gradientTransform="matrix(1 0 0 -1 8.3398 275.04)" gradientUnits="userSpaceOnUse">
				<stop  offset="0" style="stop-color:#FFFFFF"/>
				<stop  offset="0.4589" style="stop-color:#FDFDFD"/>
				<stop  offset="0.6855" style="stop-color:#F5F6F7"/>
				<stop  offset="0.8607" style="stop-color:#E8EBED"/>
				<stop  offset="1" style="stop-color:#D7DCE0"/>
			</radialGradient>
			<path fill="url(#SVGID_4_)" d="M33.413,112.747l0.284-1.138l0.018-0.079l0.407-0.385c0.566-0.532,1.127-1.067,1.688-1.591
				c2.266-2.08,4.541-4.017,6.668-5.738c4.283-3.417,8.029-5.896,9.919-7.094c7.04-4.346,11.146-6.637,17.468-9.635
				c-6.734,1.887-11.277,3.665-18.454,8.074c-1.931,1.207-5.75,3.735-10.097,7.202c-2.166,1.75-4.471,3.712-6.769,5.821
				c-0.567,0.531-1.137,1.071-1.712,1.611l-0.43,0.405l-0.11,0.102l-0.052,0.052l-0.01,0.015c-0.516,0.882-0.146,0.252-0.261,0.458
				l-0.01,0.034l-0.07,0.289l-0.285,1.146c-0.386,1.531-0.751,3.069-1.093,4.598c-2.849,12.198-3.798,23.588-3.803,23.578
				c0.033-0.012-1.258,11.358-0.506,23.89c0.084,1.563,0.187,3.146,0.332,4.719l0.101,1.182l0.024,0.297l0.005,0.037
				c0.445,1.047,0.129,0.294,0.23,0.536l0.012,0.014l0.047,0.053l0.098,0.114l0.391,0.441c0.521,0.592,1.029,1.181,1.556,1.759
				c2.069,2.321,4.15,4.514,6.091,6.495c3.883,3.958,7.229,7.041,8.92,8.561c6.249,5.589,10.171,8.33,16.042,12.138
				c-5.15-4.74-8.623-7.942-14.802-13.51c-1.667-1.511-4.982-4.57-8.828-8.494c-1.921-1.962-3.984-4.133-6.036-6.43
				c-0.516-0.574-1.022-1.162-1.539-1.742l-0.355-0.408l-0.001-0.034l-0.101-1.171c-0.147-1.551-0.246-3.115-0.331-4.66
				c-0.746-12.374,0.521-23.625,0.494-23.616c0.003,0.012,0.948-11.25,3.774-23.339C32.664,115.79,33.029,114.265,33.413,112.747z"
				/>
			
				<radialGradient id="SVGID_5_" cx="115.4404" cy="11.9097" r="38.7999" gradientTransform="matrix(1 0 0 -1 8.3398 275.04)" gradientUnits="userSpaceOnUse">
				<stop  offset="0" style="stop-color:#FFFFFF"/>
				<stop  offset="0.4589" style="stop-color:#FDFDFD"/>
				<stop  offset="0.6855" style="stop-color:#F5F6F7"/>
				<stop  offset="0.8607" style="stop-color:#E8EBED"/>
				<stop  offset="1" style="stop-color:#D7DCE0"/>
			</radialGradient>
			<path fill="url(#SVGID_5_)" d="M174.964,271.607h-0.004l-0.007-0.004l-0.017-0.006l-0.063-0.014l-0.13-0.033l-0.523-0.126
				c-1.397-0.327-2.905-0.712-4.585-1.161c-1.815-0.494-5.447-1.538-9.669-3.346c-4.229-1.784-8.982-4.415-13.289-7.351
				c-2.157-1.454-4.227-2.944-6.133-4.348c-0.952-0.698-1.868-1.372-2.729-2.013c-0.435-0.313-0.852-0.623-1.256-0.92l-0.597-0.436
				l-0.143-0.108l-0.074-0.051l-0.02-0.013l-0.005-0.007c0.125,0.031-1.131-0.339-0.604-0.181h-0.046l-0.346,0.014
				c-3.674,0.171-6.05,0.185-6.05,0.187c0.007-0.02-9.519,0.288-19.879-0.93c-5.178-0.591-10.546-1.539-15.012-2.678
				c-4.472-1.12-8.057-2.328-9.82-2.991l-0.609-0.215l-0.296-0.106l-0.017-0.006l-0.01-0.004c-0.453,0.113,1.002-0.246-1.016,0.248
				l-0.003,0.003l-0.025,0.032l-0.052,0.056l-0.106,0.122c-0.274,0.313-0.542,0.612-0.802,0.913c-0.523,0.6-1.016,1.174-1.486,1.728
				c-0.944,1.11-1.796,2.149-2.609,3.176c-1.628,2.048-3.108,4.033-4.85,6.42c2.18-1.992,3.997-3.676,5.858-5.514
				c0.931-0.92,1.876-1.882,2.878-2.939c0.502-0.528,1.018-1.076,1.56-1.663c0.19-0.21,0.39-0.426,0.59-0.644l0.364,0.131
				c1.799,0.686,5.457,1.921,10.005,3.062c4.544,1.161,9.997,2.121,15.25,2.721c10.509,1.231,20.126,0.911,20.118,0.931
				c0,0,2.398-0.02,6.108-0.183l0.07-0.004l0.583,0.427c0.399,0.297,0.818,0.604,1.248,0.923c0.861,0.635,1.775,1.313,2.733,2.016
				c1.913,1.404,4,2.921,6.195,4.394c4.371,2.979,9.251,5.686,13.594,7.519c4.335,1.853,8.061,2.917,9.919,3.415
				c1.529,0.401,2.921,0.727,4.231,0.965l-0.004,0.014c-0.39,0.563-0.754,1.112-1.112,1.657c-1.442,2.188-2.739,4.3-4.26,6.834
				c1.998-2.181,3.654-4.02,5.343-6.021c0.423-0.5,0.847-1.011,1.277-1.534c0.217-0.263,0.434-0.533,0.653-0.811l0.164-0.199
				l0.023-0.03C175.58,273.209,174.513,270.433,174.964,271.607z"/>
			
				<radialGradient id="SVGID_6_" cx="215.8135" cy="80.4556" r="76.064" gradientTransform="matrix(1 0 0 -1 8.3398 275.04)" gradientUnits="userSpaceOnUse">
				<stop  offset="0" style="stop-color:#FFFFFF"/>
				<stop  offset="0.4589" style="stop-color:#FDFDFD"/>
				<stop  offset="0.6855" style="stop-color:#F5F6F7"/>
				<stop  offset="0.8607" style="stop-color:#E8EBED"/>
				<stop  offset="1" style="stop-color:#D7DCE0"/>
			</radialGradient>
			<path fill="url(#SVGID_6_)" d="M234.309,211.211c-0.257,1.382-0.993,5.536-1.747,9.321c-0.741,3.788-1.544,7.194-1.544,7.194
				c-0.007,0-0.784,3.415-1.868,7.104c-1.054,3.695-2.519,7.614-3.042,8.901c-0.944,2.385-1.25,3.838-1.671,6.047
				c1.48-1.693,2.392-2.932,3.389-5.363c0.551-1.304,2.038-5.307,3.109-9.064c1.097-3.742,1.874-7.205,1.883-7.199
				c0,0,0.817-3.447,1.569-7.257c0.759-3.813,1.496-7.978,1.739-9.36c0.447-2.559,0.392-4.062,0.197-6.3
				C235.356,207.264,234.783,208.656,234.309,211.211z"/>
			<path fill="#FEF3F3" d="M280.047,161.079c-0.974-0.012-5.829-0.431-5.822-0.462c-0.004,0.035-4.813-0.69-5.761-0.924
				c-0.877-0.173-1.434,0.025-2.313,0.434c0.606,0.739,1.047,1.174,1.947,1.379c0.964,0.27,5.906,0.983,5.909,0.948
				c0,0.032,4.967,0.495,5.964,0.476c0.913,0.02,1.451-0.291,2.218-0.86C281.441,161.458,280.944,161.125,280.047,161.079z"/>
			
				<radialGradient id="SVGID_7_" cx="235.5859" cy="182.499" r="15.9868" gradientTransform="matrix(1 0 0 -1 8.3398 275.04)" gradientUnits="userSpaceOnUse">
				<stop  offset="0" style="stop-color:#FFFFFF"/>
				<stop  offset="0.4589" style="stop-color:#FDFDFD"/>
				<stop  offset="0.6855" style="stop-color:#F5F6F7"/>
				<stop  offset="0.8607" style="stop-color:#E8EBED"/>
				<stop  offset="1" style="stop-color:#D7DCE0"/>
			</radialGradient>
			<path fill="url(#SVGID_7_)" d="M246.286,99.554c-0.233-3.792-0.578-7.231-0.574-7.234c-0.004,0.003-0.317-3.442-0.826-7.207
				c-0.495-3.772-1.222-7.863-1.491-9.215c-0.495-2.505-1.118-3.859-2.158-5.797c-0.11,2.202-0.12,3.664,0.337,6.14
				c0.254,1.344,0.974,5.383,1.468,9.118c0.504,3.729,0.823,7.141,0.83,7.139c-0.004,0.002,0.33,3.41,0.554,7.171
				c0.24,3.76,0.363,7.869,0.403,9.24c0.073,2.528,0.407,3.953,1.007,6.073c0.577-2.12,0.885-3.571,0.841-6.116
				C246.656,107.485,246.532,103.346,246.286,99.554z"/>
		</g>
	</g>
	<path fill="#565759" d="M101.589,44.427c-13.502,13.868-24.561,30.072-30.244,42.46l15.72,15.441
		c14.633-18.03,39.641-37.742,66.417-52.079C140.694,47.499,113.209,44.217,101.589,44.427z"/>
</g>
</svg>
